<svg xmlns="http://www.w3.org/2000/svg" width="72" height="72" viewBox="0 0 72 72"><g id="temperature" fill="none" fill-rule="evenodd" stroke="none" stroke-width="1"><g id="bg" fill-rule="nonzero" transform="translate(-1 -3)"><rect id="03-19_bluish" width="72" height="72" x="1" y="3" fill="#203040" rx="10"/><rect id="03-18_pinkish" width="72" height="72" x="1" y="3" fill="#AB28B9" rx="10"/></g><path id="Combined-Shape" fill="#D8D8D8" d="M36,16 C38.7614237,16 41,18.2385763 41,21 L41,37.337822 C43.9890069,39.0668691 46,42.2985882 46,46 C46,51.5228475 41.5228475,56 36,56 C30.4771525,56 26,51.5228475 26,46 C26,42.2985882 28.0109931,39.0668691 31,37.337822 L31,21 C31,18.2385763 33.2385763,16 36,16 Z M36,18.5 C34.6192881,18.5 33.5,19.6192881 33.5,21 L33.5,28.5 L38.5,28.5 L38.5,21 C38.5,19.6192881 37.3807119,18.5 36,18.5 Z"/></g></svg>