<svg xmlns="http://www.w3.org/2000/svg" xmlns:xlink="http://www.w3.org/1999/xlink" viewBox="0 0 144 144">
<rect id="background" fill="#5e8b8b" fill-rule="nonzero" x="0" y="0" width="144" height="144"/>
<path id="icon" fill="#f3f3f3" fill-rule="evenodd" d="M113,49l-0,46c-0,3.311 -2.689,6 -6,6l-46,0c-3.311,0 -6,-2.689 -6,-6l-0,-46c-0,-3.311 2.689,-6 6,-6l46,-0c3.311,-0 6,2.689 6,6Zm-4,-0c0,-1.104 -0.896,-2 -2,-2l-46,0c-1.104,0 -2,0.896 -2,2l0,46c0,1.104 0.896,2 2,2l46,0c1.104,0 2,-0.896 2,-2l0,-46Zm-16,25c-1.104,0 -2,-0.896 -2,-2c-0,-1.104 0.896,-2 2,-2l1,0l-0,-7c-0,-1.104 0.896,-2 2,-2c1.104,0 2,0.896 2,2l-0,7l1,0c1.104,0 2,0.896 2,2c-0,1.104 -0.896,2 -2,2l-6,0Zm5,1l-0,6c-0,1.104 -0.896,2 -2,2c-1.104,0 -2,-0.896 -2,-2l-0,-6l4,0Zm-29,3c-1.104,0 -2,-0.896 -2,-2c-0,-1.104 0.896,-2 2,-2l1,0l-0,-11c-0,-1.104 0.896,-2 2,-2c1.104,0 2,0.896 2,2l-0,11l1,0c1.104,0 2,0.896 2,2c-0,1.104 -0.896,2 -2,2l-6,0Zm5,1l-0,2c-0,1.104 -0.896,2 -2,2c-1.104,0 -2,-0.896 -2,-2l-0,-2l4,0Zm7,-9c-1.104,0 -2,-0.896 -2,-2c-0,-1.104 0.896,-2 2,-2l1,0l-0,-3c-0,-1.104 0.896,-2 2,-2c1.104,0 2,0.896 2,2l-0,3l1,0c1.104,0 2,0.896 2,2c-0,1.104 -0.896,2 -2,2l-6,0Zm5,1l-0,10c-0,1.104 -0.896,2 -2,2c-1.104,0 -2,-0.896 -2,-2l-0,-10l4,0Zm-39,-25l-0,10c-0,1.656 -1.344,3 -3,3l-10,-0c-1.656,-0 -3,-1.344 -3,-3l-0,-10c-0,-1.656 1.344,-3 3,-3l10,-0c1.656,-0 3,1.344 3,3Zm-0,21l-0,10c-0,1.656 -1.344,3 -3,3l-10,-0c-1.656,-0 -3,-1.344 -3,-3l-0,-10c-0,-1.656 1.344,-3 3,-3l10,-0c1.656,-0 3,1.344 3,3Zm-3,-0l-10,-0l-0,10l10,-0l-0,-10Zm3,21l-0,10c-0,1.656 -1.344,3 -3,3l-10,-0c-1.656,-0 -3,-1.344 -3,-3l-0,-10c-0,-1.656 1.344,-3 3,-3l10,-0c1.656,-0 3,1.344 3,3Zm-3,-0l-10,-0l-0,10l10,-0l-0,-10Z"/>
</svg>