<svg xmlns="http://www.w3.org/2000/svg" xmlns:xlink="http://www.w3.org/1999/xlink" viewBox="0 0 144 144">
<rect id="background" fill="#5e8b8b" fill-rule="nonzero" x="0" y="0" width="144" height="144"/>
<path fill="#f3f3f3" fill-rule="evenodd" d="M111,62c0,-2.208 -1.792,-4 -4,-4l-55,0c-2.208,0 -4,1.792 -4,4l0,34c0,2.208 1.792,4 4,4l55,0c2.208,0 4,-1.792 4,-4l0,-34Zm-4,1c0,-0.552 -0.448,-1 -1,-1l-53,0c-0.552,0 -1,0.448 -1,1l0,32c0,0.552 0.448,1 1,1l53,0c0.552,0 1,-0.448 1,-1l0,-32Zm-59,29l0,-4l-3,0c-0.552,0 -1,-0.448 -1,-1l0,-32c0,-0.552 0.448,-1 1,-1l53,0c0.552,0 1,0.448 1,1l0,3l4,-0l0,-4c0,-2.208 -1.792,-4 -4,-4l-55,0c-2.208,0 -4,1.792 -4,4l0,34c0,2.208 1.792,4 4,4l4,0Zm54,-10l-13,0l0,9l13,0l0,-9Zm-62,2l0,-4l-3,0c-0.552,0 -1,-0.448 -1,-1l0,-32c0,-0.552 0.448,-1 1,-1l53,0c0.552,0 1,0.448 1,1l0,3l4,-0l0,-4c0,-2.208 -1.792,-4 -4,-4l-55,0c-2.208,0 -4,1.792 -4,4l0,34c0,2.208 1.792,4 4,4l4,0Z"/>
</svg>