<svg xmlns="http://www.w3.org/2000/svg" viewBox="0 0 24 24"><path fill="#FFF" d="m13.609 9.013-.022-.016-3.568-2.023-1.786 1.02v7.884l1.789 1.01 5.057-2.89-1.737-.985-3.373 1.928V8.92l9.786 5.554-.006.035a8 8 0 0 1-2.894 3.947 8.046 8.046 0 0 1-4.774 1.554c-4.452 0-8.074-3.593-8.074-8.01 0-4.416 3.622-8.01 8.075-8.01 3.41 0 6.468 2.145 7.61 5.338.085.237.16.48.221.724l1.792-1.03a10.01 10.01 0 0 0-3.903-5.255A10.078 10.078 0 0 0 12.082 2c-2.693 0-5.225 1.04-7.13 2.929A9.894 9.894 0 0 0 2 12a9.894 9.894 0 0 0 2.953 7.071A10.057 10.057 0 0 0 12.082 22a10.13 10.13 0 0 0 6.512-2.368A10.001 10.001 0 0 0 22 13.777l-8.391-4.764Z"/></svg>
