<svg width="24" height="24" viewBox="0 0 24 24" fill="none" xmlns="http://www.w3.org/2000/svg">
<path d="M3 6L5.47892 3.65155C5.86462 3.28615 6.46872 3.28615 6.85441 3.65155L8.64559 5.34845C9.03129 5.71385 9.63538 5.71385 10.0211 5.34845L11.8123 3.65155C12.198 3.28615 12.802 3.28615 13.1877 3.65155L14.9789 5.34845C15.3646 5.71385 15.9687 5.71385 16.3544 5.34845L18.1456 3.65155C18.5313 3.28615 19.1354 3.28615 19.5211 3.65155L22 6" stroke="white" stroke-width="1.5" stroke-linecap="round" stroke-linejoin="round"/>
<path d="M3 11L5.47892 8.65155C5.86462 8.28615 6.46872 8.28615 6.85441 8.65155L8.64559 10.3485C9.03129 10.7138 9.63538 10.7138 10.0211 10.3485L11.8123 8.65155C12.198 8.28615 12.802 8.28615 13.1877 8.65155L14.9789 10.3485C15.3646 10.7138 15.9687 10.7138 16.3544 10.3485L18.1456 8.65155C18.5313 8.28615 19.1354 8.28615 19.5211 8.65155L22 11" stroke="white" stroke-width="1.5" stroke-linecap="round" stroke-linejoin="round"/>
<path d="M3 16L5.47892 13.6515C5.86462 13.2862 6.46872 13.2862 6.85441 13.6515L8.64559 15.3485C9.03129 15.7138 9.63538 15.7138 10.0211 15.3485L11.8123 13.6515C12.198 13.2862 12.802 13.2862 13.1877 13.6515L14.9789 15.3485C15.3646 15.7138 15.9687 15.7138 16.3544 15.3485L18.1456 13.6515C18.5313 13.2862 19.1354 13.2862 19.5211 13.6515L22 16" stroke="white" stroke-width="1.5" stroke-linecap="round" stroke-linejoin="round"/>
<path d="M3 21L5.47892 18.6515C5.86462 18.2862 6.46872 18.2862 6.85441 18.6515L8.64559 20.3485C9.03129 20.7138 9.63538 20.7138 10.0211 20.3485L11.8123 18.6515C12.198 18.2862 12.802 18.2862 13.1877 18.6515L14.9789 20.3485C15.3646 20.7138 15.9687 20.7138 16.3544 20.3485L18.1456 18.6515C18.5313 18.2862 19.1354 18.2862 19.5211 18.6515L22 21" stroke="white" stroke-width="1.5" stroke-linecap="round" stroke-linejoin="round"/>
</svg>
