<svg width="144" height="144" viewBox="0 0 144 144" fill="none" xmlns="http://www.w3.org/2000/svg">
<path d="M110.321 52.7455C109.399 49.3013 106.692 46.5947 103.248 45.6727C97.0115 44 71.9934 44 71.9934 44C71.9934 44 46.9753 44 40.7389 45.6727C37.3013 46.5947 34.5881 49.3013 33.6661 52.7455C32 58.9819 32 72.0013 32 72.0013C32 72.0013 32 85.0208 33.6727 91.2572C34.5947 94.7014 37.3013 97.408 40.7455 98.3298C46.9819 100.003 71.9999 100.003 71.9999 100.003C71.9999 100.003 97.0182 100.003 103.254 98.3298C106.699 97.408 109.405 94.7014 110.327 91.2572C112 85.0208 112 72.0013 112 72.0013C112 72.0013 111.993 58.9819 110.321 52.7455Z" fill="#FF0000"/>
<path d="M63.9985 84.0012L84.7755 72.0027L63.9985 60.0039V84.0012Z" fill="white"/>
</svg>
