<svg width="144" height="144" viewBox="0 0 144 144" fill="none" xmlns="http://www.w3.org/2000/svg">
<path d="M77.7962 59.9879L77.8834 60.0534L111.048 79.1104C109.42 88.2068 104.649 96.5179 97.5865 102.528C90.4111 108.635 81.2703 112 71.8467 112C61.2047 112 51.2004 107.84 43.6715 100.285C36.1456 92.7294 31.999 82.6815 31.999 72.0004C31.999 61.3192 36.1456 51.2714 43.6707 43.7154C51.1959 36.1601 61.2002 32 71.8467 32C79.9781 32 87.7959 34.4445 94.4568 39.0626C100.965 43.5762 105.945 49.8483 108.866 57.2035C109.236 58.1467 109.582 59.1154 109.882 60.0887L102.798 64.2089C102.554 63.2312 102.261 62.2579 101.925 61.3109C97.4112 48.5433 85.3206 39.9622 71.846 39.9622C54.2466 39.9622 39.9296 54.3356 39.9296 72.0004C39.9296 89.6652 54.2466 104.039 71.846 104.039C78.6859 104.039 85.207 101.891 90.7112 97.8229C96.1018 93.838 100.057 88.3767 102.147 82.0347L102.169 81.8948L63.4919 59.6826V83.7684L76.8266 76.0552L83.6929 79.9926L63.7055 91.5553L56.6384 87.5133V55.9813L63.6965 51.9002L77.7999 59.9924L77.7962 59.9879Z" fill="#151515"/>
</svg>
