<svg width="144" height="144" viewBox="0 0 144 144" fill="none" xmlns="http://www.w3.org/2000/svg">
<path d="M66.9458 82.3498C70.5268 83.2956 78.3532 85.3628 79.5975 80.3627C80.8725 75.2503 73.2822 73.5471 69.5784 72.716C69.1645 72.6232 68.7991 72.5412 68.5001 72.4665L66.0902 82.1277C66.3357 82.1887 66.6236 82.2647 66.9458 82.3498Z" fill="white"/>
<path d="M70.3225 68.2326C73.3082 69.0294 79.8206 70.7673 80.955 66.2229C82.1134 61.5745 75.7838 60.1733 72.6926 59.489C72.3448 59.412 72.0381 59.3441 71.7876 59.2817L69.6026 68.0441C69.809 68.0955 70.0512 68.1602 70.3225 68.2326Z" fill="white"/>
<path fill-rule="evenodd" clip-rule="evenodd" d="M62.3165 110.802C83.7475 116.146 105.451 103.105 110.794 81.6765C116.136 60.2467 103.096 38.5394 81.6663 33.197C60.2415 27.8545 38.538 40.8969 33.1981 62.3279C27.8531 83.7552 40.8942 105.46 62.3165 110.802ZM80.8275 56.2092C86.3687 58.1179 90.4212 60.9792 89.6249 66.3016C89.0487 70.1978 86.8887 72.0841 84.0212 72.7453C87.9587 74.7953 89.9624 77.939 88.0537 83.3889C85.685 90.1576 80.0575 90.7289 72.5738 89.3126L70.7576 96.5913L66.3689 95.4976L68.1614 88.3164C67.0239 88.0339 65.8614 87.7339 64.6639 87.4089L62.8652 94.6238L58.4815 93.5301L60.2977 86.2377C59.888 86.1327 59.4757 86.0252 59.0604 85.9169C58.4369 85.7543 57.8068 85.59 57.169 85.4302L51.4578 84.0064L53.6365 78.9827C53.6365 78.9827 56.8703 79.8427 56.8265 79.779C58.069 80.0865 58.6202 79.2765 58.8377 78.7365L61.7077 67.2304C61.8155 67.2562 61.921 67.2827 62.0228 67.3082C62.0733 67.3209 62.1229 67.3333 62.1715 67.3454C61.9965 67.2754 61.8377 67.2303 61.7152 67.1991L63.7627 58.9854C63.8164 58.0529 63.4952 56.8767 61.7177 56.433C61.7865 56.3867 58.5302 55.6405 58.5302 55.6405L59.6977 50.953L65.7502 52.4643L65.7452 52.4868C66.6552 52.713 67.5926 52.928 68.5476 53.1455L70.3464 45.9381L74.7326 47.0318L72.9701 54.098C74.1476 54.3667 75.3326 54.638 76.4863 54.9255L78.2363 47.9055L82.625 48.9993L80.8275 56.2092Z" fill="white"/>
</svg>
