<svg width="144" height="144" viewBox="0 0 144 144" fill="none" xmlns="http://www.w3.org/2000/svg">
<path fill-rule="evenodd" clip-rule="evenodd" d="M115.747 94.0616C115.719 93.8815 115.691 93.7036 115.661 93.5257C115.479 92.4215 115.254 91.3301 114.99 90.2537C114.529 88.3735 113.948 86.5382 113.256 84.7609C112.67 83.2558 112.004 81.7914 111.264 80.3722C110.312 78.5497 109.238 76.8005 108.052 75.1367C106.599 73.0976 104.976 71.1875 103.203 69.4272C102.459 68.6874 101.689 67.9735 100.894 67.2896C99.172 65.8038 97.3322 64.4511 95.3943 63.2419C95.4026 63.2283 95.4105 63.2141 95.4183 63.2C95.4237 63.1903 95.4291 63.1805 95.4347 63.1709C95.4376 63.1659 95.4406 63.161 95.4436 63.1561C95.8839 62.3955 96.3248 61.6355 96.7657 60.8756L96.7776 60.8551C97.2214 60.09 97.6652 59.3249 98.1086 58.5592L100.713 54.0699C101.337 52.9957 101.961 51.9194 102.583 50.8453C102.731 50.5902 102.847 50.3265 102.935 50.0563C103.177 49.3038 103.188 48.5126 102.993 47.7772C102.943 47.595 102.883 47.4171 102.81 47.2434C102.737 47.0698 102.652 46.9004 102.555 46.7374C102.223 46.18 101.749 45.6954 101.153 45.3417C100.626 45.0287 100.036 44.8421 99.4313 44.7886C99.1783 44.7671 98.9231 44.7692 98.6701 44.795C98.46 44.8164 98.2521 44.855 98.0464 44.9086C97.3111 45.1037 96.6291 45.5068 96.0975 46.0899C95.9066 46.3001 95.735 46.5316 95.5871 46.7867C94.9634 47.8609 94.3394 48.9372 93.7177 50.0113L91.1126 54.5008C90.6689 55.2672 90.2245 56.0331 89.7802 56.7991C89.3359 57.565 88.8915 58.331 88.4478 59.0974L88.3336 59.2941C88.2743 59.3961 88.2148 59.4983 88.1561 59.6012L88.0464 59.5577C87.9487 59.5189 87.8515 59.4802 87.7532 59.4428C82.8584 57.5775 77.5476 56.557 71.9968 56.557C71.8447 56.557 71.6945 56.557 71.5425 56.5589C66.6068 56.6084 61.8644 57.4658 57.4413 59.0053C56.929 59.1832 56.423 59.3718 55.9214 59.5693L55.6488 59.0996C55.1997 58.3238 54.7499 57.5485 54.3001 56.7732C53.8615 56.0171 53.4221 55.2596 52.984 54.503L50.379 50.0134C49.7551 48.9393 49.1312 47.863 48.5095 46.7889C48.3615 46.5338 48.19 46.3022 47.9992 46.0921C47.4675 45.5089 46.7857 45.1058 46.0503 44.9108C45.8445 44.8572 45.6365 44.8186 45.4264 44.7971C45.1734 44.7714 44.9183 44.7692 44.6653 44.7907C44.0607 44.8421 43.4711 45.0287 42.9437 45.3438C42.3476 45.6976 41.876 46.1821 41.5415 46.7396C41.445 46.9025 41.3593 47.0719 41.2864 47.2456C41.2135 47.4192 41.1513 47.5972 41.1042 47.7794C40.909 48.5148 40.9198 49.3059 41.162 50.0584C41.2499 50.3286 41.3657 50.5923 41.5137 50.8474C42.1375 51.9216 42.7614 52.9979 43.3832 54.0721L45.9882 58.5614C46.4317 59.3275 46.8757 60.093 47.3198 60.8584C47.7641 61.6244 48.2093 62.3918 48.6531 63.1583L48.6634 63.1767L48.6746 63.1968C46.8843 64.3095 45.1799 65.5423 43.5719 66.8909C42.6092 67.6991 41.6809 68.5461 40.7911 69.4316C39.0202 71.1916 37.3972 73.102 35.9414 75.1409C34.7537 76.8046 33.6795 78.5519 32.7297 80.3766C31.99 81.7958 31.3233 83.2602 30.738 84.7653C30.0454 86.5426 29.4644 88.3779 29.0035 90.2581C28.7398 91.3345 28.5168 92.4235 28.3324 93.5298C28.306 93.686 28.2813 93.8439 28.2568 94.0006L28.2466 94.0658C28.148 94.7068 28.0644 95.3522 27.9937 96.0018H115.994C115.923 95.3522 115.839 94.7068 115.741 94.0658L115.747 94.0616ZM94.884 83.8385C96.6445 82.667 96.9003 79.9566 95.4554 77.7849C94.0103 75.6132 91.4115 74.8025 89.651 75.974C87.8902 77.1455 87.6344 79.8556 89.0795 82.0276C90.5247 84.1993 93.1234 85.01 94.884 83.8385ZM54.4132 75.982C56.1737 77.1535 56.4298 79.8636 54.9846 82.0353C53.5395 84.2069 50.9408 85.0179 49.1802 83.8464C47.4195 82.6746 47.1637 79.9645 48.6088 77.7928C50.0538 75.6212 52.6526 74.8102 54.4132 75.982Z" fill="white"/>
</svg>
