<svg xmlns="http://www.w3.org/2000/svg" xmlns:xlink="http://www.w3.org/1999/xlink" viewBox="0 0 144 144">
<rect id="background" fill="#263838" fill-rule="nonzero" x="0" y="0" width="144" height="144"/>
<path id="icon" fill="#999" fill-rule="evenodd" d="M39,49c0,1.104 -0.896,2 -2,2l-8,0c-1.104,0 -2,-0.896 -2,-2l-0,-8c-0,-1.104 0.896,-2 2,-2l8,0c1.104,0 2,0.896 2,2l0,8Zm2,-6l32.008,0c0.982,0 1.817,0.199 2.498,0.463c1.333,0.517 2.098,1.299 2.244,1.459l9.078,9.078l7.172,0c3.311,0 6,2.689 6,6l-0,5.213l10.932,-6.904c0.616,-0.389 1.395,-0.412 2.033,-0.061c0.639,0.352 1.035,1.023 1.035,1.752l-0,24c-0,0.729 -0.396,1.4 -1.035,1.752c-0.638,0.351 -1.417,0.328 -2.033,-0.061l-10.932,-6.904l-0,5.213c-0,3.311 -2.689,6 -6,6l-7.175,0c-3.968,3.968 -9.072,9.072 -9.067,9.066c-0.234,0.255 -1.881,1.931 -4.75,1.931l-32.008,-0l-0,-4l32.008,-0c1.148,-0 1.801,-0.634 1.801,-0.634c0.024,-0.027 0.049,-0.053 0.075,-0.079l6.284,-6.284l-11.168,0c-3.311,0 -6,-2.689 -6,-6l-0,-10.003l-23,-0l-0,-4l23,-0l-0,-9.997c-0,-3.311 2.689,-6 6,-6l11.172,0l-6.288,-6.287c-0.026,-0.026 -0.051,-0.053 -0.075,-0.08c0,0 -0.272,-0.255 -0.751,-0.441c-0.286,-0.111 -0.638,-0.192 -1.05,-0.192l-32.008,0l-0,-4Zm-2,60c-0,1.104 -0.896,2 -2,2l-8,0c-1.104,0 -2,-0.896 -2,-2l-0,-8c-0,-1.104 0.896,-2 2,-2l8,0c1.104,0 2,0.896 2,2l-0,8Zm-0,-27c-0,1.104 -0.896,2 -2,2l-8,0c-1.104,0 -2,-0.896 -2,-2l-0,-8c-0,-1.104 0.896,-2 2,-2l8,0c1.104,0 2,0.896 2,2l-0,8Zm57,-16c-0,-1.104 -0.896,-2 -2,-2l-24,0c-1.104,0 -2,0.896 -2,2l-0,24c-0,1.104 0.896,2 2,2l24,0c1.104,0 2,-0.896 2,-2l-0,-24Zm-5,3l-0,18l-18,0l0,-18l18,0Zm-4,4l-10,0l0,10l10,0l-0,-10Z"/>
</svg>