<svg xmlns="http://www.w3.org/2000/svg" width="72" height="72" viewBox="0 0 72 72">
  <g fill="none" fill-rule="evenodd">
    <polygon fill="#D8D8D8" points="0 0 25 0 25 18 0 18" transform="translate(37 16)"/>
    <polygon fill="#D8D8D8" points="0 0 25 0 25 18 0 18" transform="translate(37 36)"/>
    <polygon fill="#D8D8D8" points="0 0 25 0 25 18 0 18" transform="translate(10 36)"/>
    <polygon fill="#D8D8D8" points="0 0 25 0 25 18 0 18" transform="translate(10 16)"/>
    <path fill="#FFF" fill-rule="nonzero" d="M30.1125,65.072 C31.5255,65.072 32.1375,64.343 32.1375,63.002 L32.1375,62.813 L30.7965,62.813 L30.7965,62.885 C30.7965,63.722 30.5535,64.091 30.0945,64.091 C29.3299091,64.091 29.295155,63.1233512 29.2935752,62.0099588 L29.2935,61.85 C29.2935,60.356 29.3385,59.393 30.0855,59.393 C30.4995,59.393 30.7335,59.699 30.7335,60.428 L30.7335,60.554 L32.0655,60.554 L32.0655,60.356 C32.0655,59.015 31.4175,58.403 30.1755,58.403 C28.0655625,58.403 27.9405029,59.8304229 27.9347472,61.5888347 L27.9345,61.76 C27.9345,63.605 28.0605,65.072 30.1125,65.072 Z M33.5655,65 L33.9345,63.56 L35.7885,63.56 L36.1485,65 L37.5795,65 L35.8155,58.502 L34.0245,58.502 L32.2245,65 L33.5655,65 Z M35.5095,62.579 L34.1955,62.579 L34.8345,59.753 L35.5095,62.579 Z M39.1785,65 L39.1785,59.987 L40.3845,65 L41.6805,65 L42.9495,59.987 L42.9495,65 L44.2725,65 L44.2725,58.502 L42.1575,58.502 L41.0685,62.921 L40.0425,58.502 L37.8915,58.502 L37.8915,65 L39.1785,65 Z M50.2065,65 L50.2065,63.92 L48.1905,63.92 L48.1905,58.502 L46.8135,58.502 L46.8135,65 L50.2065,65 Z M51.8685,65 L51.8685,58.502 L50.5095,58.502 L50.5095,65 L51.8685,65 Z M53.9895,65 L53.9895,60.248 L55.7715,65 L57.5535,65 L57.5535,58.502 L56.2935,58.502 L56.2935,63.002 L54.5565,58.502 L52.7295,58.502 L52.7295,65 L53.9895,65 Z M59.7015,65 L59.7015,61.715 L61.2675,65 L62.7975,65 L60.9795,61.418 L62.7975,58.502 L61.3035,58.502 L59.7015,61.238 L59.7015,58.502 L58.3335,58.502 L58.3335,65 L59.7015,65 Z"/>
  </g>
</svg>
