<svg xmlns="http://www.w3.org/2000/svg" width="144" height="144" viewBox="0 0 144 144">
  <g fill="none">
    <rect width="144" height="144" fill="#0A1423" rx="22"/>
    <path fill="#3D6EE0" d="M72,110 C54.326888,110 40,95.673112 40,78 C40,60.326888 54.326888,46 72,46 C89.673112,46 104,60.326888 104,78 C104,95.673112 89.673112,110 72,110 Z M72,104 C86.3594035,104 98,92.3594035 98,78 C98,63.6405965 86.3594035,52 72,52 C57.6405965,52 46,63.6405965 46,78 C46,92.3594035 57.6405965,104 72,104 Z M82,34 L82,42 L62,42 L62,34 L82,34 Z M70.8,61.2 L70.8,54 L73.2,54 L73.2,61.2 L70.8,61.2 Z M70.8,102 L70.8,94.8 L73.2,94.8 L73.2,102 L70.8,102 Z M62.5607688,64.0507734 L58.9607688,57.8153906 L61.0392297,56.6153906 L64.6392297,62.8507734 L62.5607688,64.0507734 Z M82.9607688,99.3846096 L79.3607688,93.1492268 L81.4392297,91.9492268 L85.0392297,98.1846096 L82.9607688,99.3846096 Z M56.8507736,70.6392288 L50.6153908,67.0392288 L51.8153908,64.9607679 L58.0507736,68.5607679 L56.8507736,70.6392288 Z M92.1846084,91.03923 L85.9492256,87.43923 L87.1492256,85.3607691 L93.3846084,88.9607691 L92.1846084,91.03923 Z M55.2,79.2 L48,79.2 L48,76.8 L55.2,76.8 L55.2,79.2 Z M96,79.2 L88.8,79.2 L88.8,76.8 L96,76.8 L96,79.2 Z M58.0507736,87.4392312 L51.8153908,91.0392312 L50.6153908,88.9607703 L56.8507736,85.3607703 L58.0507736,87.4392312 Z M93.3846084,67.0392312 L87.1492256,70.6392312 L85.9492256,68.5607703 L92.1846084,64.9607703 L93.3846084,67.0392312 Z M64.6392312,93.1492264 L61.0392312,99.3846092 L58.9607703,98.1846092 L62.5607703,91.9492264 L64.6392312,93.1492264 Z M85.0392312,57.8153916 L81.4392312,64.0507744 L79.3607703,62.8507744 L82.9607703,56.6153916 L85.0392312,57.8153916 Z"/>
  </g>
</svg>
