<svg xmlns="http://www.w3.org/2000/svg" width="144" height="144" viewBox="0 0 144 144">
  <path id="btn_streamlabs_alert" fill="#375650" fill-rule="evenodd" d="M91.9914846,87 L69.1111111,87 L52,101 L52.0085154,87 C47.5855345,87 44,83.4314134 44,79.019894 L44,50.980106 C44,46.5728152 47.578055,43 52.0085154,43 L91.9914846,43 C96.4144655,43 100,46.5685866 100,50.980106 L100,79.019894 C100,83.4271848 96.421945,87 91.9914846,87 Z M91,83 C94.7975375,83 96,81.7993887 96,78 L96,52 C96,48.196966 94.7911265,47 91,47 L53,47 C49.2024625,47 48,48.2006113 48,52 L48,78 C48,83 50,83 56,83 L56,92 L68,83 L91,83 Z M52,63 L84,63 L84,67 L52,67 L52,63 Z M52,71 L92,71 L92,75 L52,75 L52,71 Z M52,55 L92,55 L92,59 L52,59 L52,55 Z"/>
</svg>
