<svg xmlns="http://www.w3.org/2000/svg" width="144" height="144" viewBox="0 0 144 144">
  <g id="btn_system_duration" fill="none" fill-rule="evenodd">
    <path id="btn_duration" fill="#EFEFEF" d="M68,73.527787 L68,56 L76,56 L76,73.527787 C77.2274987,74.6264281 78,76.2230004 78,78 C78,81.3137085 75.3137085,84 72,84 C68.6862915,84 66,81.3137085 66,78 C66,76.2230004 66.7725013,74.6264281 68,73.527787 Z M96.9777778,58.0355556 C101.368889,63.5111111 104,70.4444444 104,78 C104,95.6711111 89.6711111,110 71.9822222,110 C54.2933333,110 40,95.6711111 40,78 C40,60.3288889 54.2933333,46 71.9822222,46 C79.5377778,46 86.4888889,48.6311111 91.9466667,53.0044444 L97.0133333,47.9377778 C98.8444444,49.4666667 100.515556,51.1377778 102.044444,52.9688889 L96.9777778,58.0355556 Z M72,104 C86.3594035,104 98,92.3594035 98,78 C98,63.6405965 86.3594035,52 72,52 C57.6405965,52 46,63.6405965 46,78 C46,92.3594035 57.6405965,104 72,104 Z M82,34 L82,42 L62,42 L62,34 L82,34 Z"/>
  </g>
</svg>
