<svg xmlns="http://www.w3.org/2000/svg" width="144" height="144" viewBox="0 0 144 144">
  <path id="btn_streamlabs_mute" fill="#375650" fill-rule="evenodd" d="M44,40 L100,40 C102.209139,40 104,41.790861 104,44 L104,100 C104,102.209139 102.209139,104 100,104 L44,104 C41.790861,104 40,102.209139 40,100 L40,44 C40,41.790861 41.790861,40 44,40 Z M44,44 L44,100 L100,100 L100,44 L44,44 Z M49.3913043,92 L94.6086957,92 C95.3770918,92 96,92.6229082 96,93.3913043 L96,94.6086957 C96,95.3770918 95.3770918,96 94.6086957,96 L49.3913043,96 C48.6229082,96 48,95.3770918 48,94.6086957 L48,93.3913043 C48,92.6229082 48.6229082,92 49.3913043,92 Z M60,64.8888889 L76,56 L76,88 L60,79.1111111 L60,64.8888889 Z M52,68.5714286 L58,66 L58,78 L52,75.4285714 L52,68.5714286 Z M49.3913043,48 L74.6086957,48 C75.3770918,48 76,48.6229082 76,49.3913043 L76,50.6086957 C76,51.3770918 75.3770918,52 74.6086957,52 L49.3913043,52 C48.6229082,52 48,51.3770918 48,50.6086957 L48,49.3913043 C48,48.6229082 48.6229082,48 49.3913043,48 Z M85.3913043,48 L94.6086957,48 C95.3770918,48 96,48.6229082 96,49.3913043 L96,50.6086957 C96,51.3770918 95.3770918,52 94.6086957,52 L85.3913043,52 C84.6229082,52 84,51.3770918 84,50.6086957 L84,49.3913043 C84,48.6229082 84.6229082,48 85.3913043,48 Z"/>
</svg>
