<svg xmlns="http://www.w3.org/2000/svg" width="144" height="144" viewBox="0 0 144 144">
  <path id="btn_egc_toggle_recording" fill="#EFEFEF" d="M72,34.1658 L104.105136,52.7017 L104.105136,89.7735 L72,108.3094 L39.8948645,89.7735 L39.8948645,52.7017 L72,34.1658 Z M72,43.8564 L48.2871742,57.547 L48.2871742,84.9282 L72,98.6188 L95.7128258,84.9282 L95.7128258,57.547 L72,43.8564 Z M72,62 L80,66.6188 L80,75.8564 L72,80.4752 L64,75.8564 L64,66.6188 L72,62 Z M56,78 L50,82 L50,59 L69.8974682,47 L69.8974682,55 L56,62.9671507 L56,78 Z M88,64 L94,60 L94,83 L74,95 L74,87 L88,79 L88,64 Z"/>
</svg>
