<svg xmlns="http://www.w3.org/2000/svg" width="144" height="144" viewBox="0 0 144 144">
  <g id="btn_twitch_open_last_create_clip_inactive" fill="none" fill-rule="evenodd">
    <rect id="TWITCH_Background_inactive" width="144" height="144" fill="#362759" fill-rule="nonzero" rx="22"/>
    <path id="body" fill="#EFEFEF" d="M90,100 L106,100 L106,48 L38,48.1831264 L38,100 L50,100 L50,104 L34,104 L34,44 L110,44 L110,104 L90,104 L90,100 Z M76,96 L72,92 L68,96 L50,96 L50,84 L54,84 L54,68 L50,68 L50,56 L94,56 L94,68 L90,68 L90,84 L94,84 L94,96 L76,96 Z M86,60 L86,64 L90,64 L90,60 L86,60 Z M78,60 L78,64 L82,64 L82,60 L78,60 Z M70,60 L70,64 L74,64 L74,60 L70,60 Z M62,60 L62,64 L66,64 L66,60 L62,60 Z M54,60 L54,64 L58,64 L58,60 L54,60 Z M86,92 L90,92 L90,88 L86,88 L86,92 Z M78,92 L82,92 L82,88 L78,88 L78,92 Z M70,92 L74,92 L74,88 L70,88 L70,92 Z M62,92 L66,92 L66,88 L62,88 L62,92 Z M54,92 L58,92 L58,88 L54,88 L54,92 Z M86,84 L86,68 L58.1904762,68 L58.1904762,84 L86,84 Z M72,96 L84,108 L78,108 L78,116 L66,116 L66,108 L60,108 L72,96 Z"/>
    <path id="titlebar" fill="#EFEFEF" d="M36,36 L108,36 C109.104569,36 110,36.8954305 110,38 L110,44 L34,44 L34,38 C34,36.8954305 34.8954305,36 36,36 Z"/>
  </g>
</svg>
