<svg xmlns="http://www.w3.org/2000/svg" width="144" height="144" viewBox="0 0 144 144">
  <path id="btn_twitch_toggle_subchat" fill="#EFEFEF" fill-rule="evenodd" d="M70.5951256,43.7463318 C69.0790196,43.1775285 68,41.7147735 68,40 C68,37.790861 69.790861,36 72,36 C74.209139,36 76,37.790861 76,40 C76,41.7147735 74.9209804,43.1775285 73.4048744,43.7463318 L84,72 L104,56 L104,84 L40,84 L40,56 L60,72 L70.5951256,43.7463318 Z M104,56 C101.790861,56 100,54.209139 100,52 C100,49.790861 101.790861,48 104,48 C106.209139,48 108,49.790861 108,52 C108,54.209139 106.209139,56 104,56 Z M40,56 C37.790861,56 36,54.209139 36,52 C36,49.790861 37.790861,48 40,48 C42.209139,48 44,49.790861 44,52 C44,54.209139 42.209139,56 40,56 Z M44,88 L100,88 L100,92 L44,92 L44,88 Z M44,96 L100,96 L100,100 L44,100 L44,96 Z M44,104 L100,104 L100,108 L44,108 L44,104 Z"/>
</svg>
