<svg width="48px" height="48px" viewBox="0 0 48 48" version="1.1" xmlns="http://www.w3.org/2000/svg" xmlns:xlink="http://www.w3.org/1999/xlink">
    <g id="btn_system_custom_folder_checked" stroke="none" stroke-width="1" fill="none" fill-rule="evenodd">
            <path d="M23.5189,29.5 L16,29.5 C15.72386,29.5 15.5,29.2762 15.5,29 L15.5,16 C15.5,15.72386 15.72386,15.5 16,15.5 L20.17157,15.5 C20.30418,15.5 20.43136,15.55268 20.52513,15.64645 L22.6464,17.76777 C23.1153,18.23661 23.7512,18.5 24.4142,18.5 L32,18.5 C32.2761,18.5 32.5,18.72386 32.5,19 L32.5,22.9982 C33.0409,23.2237 33.5448,23.5203 34,23.8762 L34,19 C34,17.89543 33.1046,17 32,17 L24.4142,17 C24.149,17 23.8946,16.89464 23.7071,16.70711 L21.58579,14.58579 C21.21071,14.21071 20.70201,14 20.17157,14 L16,14 C14.89543,14 14,14.89543 14,16 L14,29 C14,30.1046 14.89543,31 16,31 L23.8135,31 C23.659,30.5219 23.5585,30.0195 23.5189,29.5 Z" id="Path" fill="#EFEFEF"></path>
            <path d="M30,24 C32.7614237,24 35,26.2385763 35,29 C35,31.7614237 32.7614237,34 30,34 C27.2385763,34 25,31.7614237 25,29 C25,26.2385763 27.2385763,24 30,24 Z M32.8535534,27.1464466 C32.6582912,26.9511845 32.3417088,26.9511845 32.1464466,27.1464466 L29.231,30.062 L27.8535432,28.6849364 C27.6582754,28.4896799 27.3416929,28.489689 27.1464364,28.6849568 C26.9511799,28.8802246 26.951189,29.1968071 27.1464568,29.3920636 L28.8772568,31.1227636 C29.0725206,31.3180161 29.3890952,31.3180115 29.5843534,31.1227534 L32.8535534,27.8535534 C33.0488155,27.6582912 33.0488155,27.3417088 32.8535534,27.1464466 Z" id="check" fill="#EFEFEF" fill-rule="nonzero"></path>
    </g>
</svg>