<svg xmlns="http://www.w3.org/2000/svg" width="144" height="144" viewBox="0 0 144 144">
  <g id="btn_twitch_toggle_followerschat_inactive" fill="none" fill-rule="evenodd">
    <rect id="TWITCH_Background_inactive" width="144" height="144" fill="#362759" fill-rule="nonzero" rx="22"/>
    <path fill="#EFEFEF" d="M72,96.9994199 C70,96.9994199 67.1185733,95.9723711 64,98 C60.8814267,100.027629 53.5426338,109 53.5426338,109 C53.5426338,109 57.6442707,95.5454545 53.5426338,93.3030303 C43.5255527,87.8425042 36,77.8567486 36,66.3939394 C36,48.4545455 54.4319721,35 72,35 C89.5680279,35 108,48.4545455 108,66.3939394 C108,84.3333333 89.5680279,96.9994199 72,96.9994199 Z M60,74.031746 L60,89 L84,89 L84,74.031746 C84,70.3244065 82.4287353,66.9966768 79.9374732,64.7222222 C82.4287353,62.4477676 84,59.1200379 84,55.4126984 C84,48.5573544 78.627417,43 72,43 C65.372583,43 60,48.5573544 60,55.4126984 C60,59.1200379 61.5712647,62.4477676 64.0625268,64.7222222 C61.5712647,66.9966768 60,70.3244065 60,74.031746 Z M46.0312634,68 C44.7856323,69.1517699 44,70.8369117 44,72.7142857 L44,79 L56,79 L56,72.7142857 C56,70.8369117 55.2143677,69.1517699 53.9687366,68 C55.2143677,66.8482301 56,65.1630883 56,63.2857143 C56,59.8142101 53.3137085,57 50,57 C46.6862915,57 44,59.8142101 44,63.2857143 C44,65.1630883 44.7856323,66.8482301 46.0312634,68 Z M90.0312634,68 C88.7856323,69.1517699 88,70.8369117 88,72.7142857 L88,79 L100,79 L100,72.7142857 C100,70.8369117 99.2143677,69.1517699 97.9687366,68 C99.2143677,66.8482301 100,65.1630883 100,63.2857143 C100,59.8142101 97.3137085,57 94,57 C90.6862915,57 88,59.8142101 88,63.2857143 C88,65.1630883 88.7856323,66.8482301 90.0312634,68 Z"/>
  </g>
</svg>
