<svg xmlns="http://www.w3.org/2000/svg" xmlns:xlink="http://www.w3.org/1999/xlink" width="144" height="144"><defs><path id="a" d="M40 72C22.327 72 8 57.673 8 40 8 22.327 22.327 8 40 8c17.673 0 32 14.327 32 32 0 17.673-14.327 32-32 32zm0-2c16.569 0 30-13.431 30-30 0-16.569-13.431-30-30-30-16.569 0-30 13.431-30 30 0 16.569 13.431 30 30 30zm-2-34h4v2h-4v-2zm-8 0v2H17a1 1 0 1 1 0-2h13zm8 6h4v2h-4v-2zm-8 0v2H17a1 1 0 1 1 0-2h13zm3.992-16H20.504c.5-.695 1.037-1.363 1.607-2H57.89c.57.637 1.107 1.305 1.607 2H33.992zM38 50v-2h4v2h-4zm-8 0H18.176a23.841 23.841 0 0 1-.81-2H30v2zm8-20h4v2h-4v-2zm-8 0v2H17.366c.24-.681.511-1.349.81-2H30zm20 6h13a1 1 0 1 1 0 2H50v-2zm0 6h13a1 1 0 1 1 0 2H50v-2zm0 8v-2h12.634c-.24.681-.511 1.349-.81 2H50zm0-20h11.824c.299.651.57 1.319.81 2H50v-2zM20.504 54h38.992c-.5.695-1.037 1.363-1.607 2H22.11a24.115 24.115 0 0 1-1.607-2zm9.89-36h19.213a23.948 23.948 0 0 1 3.664 2H26.73a23.948 23.948 0 0 1 3.664-2zM53.27 60a23.949 23.949 0 0 1-3.664 2H30.393a23.949 23.949 0 0 1-3.664-2H53.27zM46 28a2 2 0 0 1 2 2v20a2 2 0 1 1-4 0V30a2 2 0 0 1 2-2zm-12 0a2 2 0 0 1 2 2v20a2 2 0 1 1-4 0V30a2 2 0 0 1 2-2z"/></defs><g fill="none" fill-rule="evenodd"><rect width="144" height="144" fill="#1ED760" rx="22"/><use fill="#191414" xlink:href="#a" transform="translate(32 32)"/></g></svg>