<svg xmlns="http://www.w3.org/2000/svg" width="144" height="144" viewBox="0 0 144 144">
  <g id="btn_streamlabs_emptyjar" fill="none" fill-rule="evenodd">
    <polygon id="thing3" fill="#808C71" points="52 55.1 66.4 44 70 70 62.8 70"/>
    <polygon id="thing2" fill="#3D8ED0" points="63 74 80 96 52 96"/>
    <circle id="thing1" cx="82" cy="70" r="12" fill="#00A0C1"/>
    <path id="streamlabs_jar" fill="#375650" d="M50,40 L50,91.8095238 C50,95.1758309 52.8241691,97.9047619 56.1904762,97.9047619 L87.9047619,97.9047619 C91.271069,97.9047619 94,95.1758309 94,91.8095238 L94,40 L98,40 C99.1045695,40 100,40.8954305 100,42 L100,91.8095238 C100,98.5421379 94.5421379,104 87.8095238,104 L56.1904762,104 C49.4578621,104 44,98.5421379 44,91.8095238 L44,42 C44,40.8954305 44.8954305,40 46,40 L50,40 Z M60,64 L84,64 L84,84 C84,85.8203579 82.1175094,88 80,88 L64,88 C61.8663552,88 60,85.8159258 60,84 L60,64 Z M74.9090909,76 L80,71 L77.0909091,68 L72,73.0909091 L66.9090909,68 L64,71 L69.0909091,76 L64,81.0909091 L66.9090909,84 L72,78.9090909 L77.0909091,84 L80,81.0909091 L74.9090909,76 Z M66,56 L68,52 L76,52 L78,56 L88,56 L88,60 L56,60 L56,56 L66,56 Z"/>
  </g>
</svg>
