<svg xmlns="http://www.w3.org/2000/svg" width="144" height="144" viewBox="0 0 144 144">
  <g id="btn_system_text" fill="none" fill-rule="evenodd">
    <path id="btn_text" fill="#EFEFEF" d="M95.4628906,45 L96,59 L94,59 C93.6920558,56.6484257 93.7692084,54.7529347 93.2373047,53.7451172 C92.3694618,52.1214112 91.2146882,50.9246458 89.7729492,50.1547852 C88.3312102,49.3849245 86.4345821,49 84.0830078,49 L76,49 L76,88.5537109 C76,92.0530774 76.4404259,94.3684852 77.1962891,95.2363281 C78.2600965,96.4121153 79.8977754,97 82.109375,97 L84.0830078,97 L84.0830078,99 L59.9375,99 L59.9375,97 L61.953125,97 C64.3606891,97 66.0683543,96.2721427 67.0761719,94.8164062 C67.6920604,93.9205684 68,91.7451331 68,88.5537109 L68,49 L61.1552734,49 C58.4957549,49 56.6061254,49.1959616 55.4863281,49.5878906 C54.0305917,50.1197943 52.7848359,51.141594 51.7490234,52.6533203 C50.713211,54.1650466 50.1959645,56.4244663 50,59 L48,59 L48.9775391,45 L95.4628906,45 Z"/>
  </g>
</svg>
