<svg xmlns="http://www.w3.org/2000/svg" xmlns:xlink="http://www.w3.org/1999/xlink" width="144" height="144"><defs><path id="a" d="M53.029 55.172h-4.115c-3.288 0-6.642-2.883-12.433-9.75a2814.74 2814.74 0 0 0 2.65-3.263c5.022 5.972 8.2 8.875 9.783 8.875h4.115v-4.827L64 53.103 53.029 60v-4.828zm0-30.344V20L64 26.897l-10.971 6.896v-4.827h-4.115c-1.748 0-5.44 3.539-11.411 10.84-.373.455-.763.935-1.223 1.502-9.58 11.81-11.497 13.864-14.794 13.864H16v-4.138h5.486c.462 0 2.017-1.171 4.135-3.441 1.799-1.927 2.533-2.813 7.47-8.9.464-.572.858-1.056 1.234-1.516 7.154-8.746 10.913-12.35 14.59-12.35h4.114zm-20.116 9.736a332.23 332.23 0 0 0-1.947 2.384l-.708.873c-2.504-3.07-3.257-3.936-4.637-5.414-2.118-2.27-3.673-3.441-4.135-3.441H16v-4.138h5.486c2.868 0 4.693 1.555 11.427 9.736z"/></defs><g fill="none" fill-rule="evenodd"><rect width="144" height="144" fill="#1ED760" rx="22"/><use fill="#191414" fill-rule="nonzero" xlink:href="#a" transform="translate(32 32)"/></g></svg>