<?xml version="1.0" encoding="UTF-8"?>
<svg width="144px" height="144px" viewBox="0 0 144 144" version="1.1" xmlns="http://www.w3.org/2000/svg" xmlns:xlink="http://www.w3.org/1999/xlink">
    <title>gamecapture</title>
    <g id="gamecapture" stroke="none" stroke-width="1" fill="none" fill-rule="evenodd">
        <path d="M109.330087,118.333333 C107.613661,118.333333 106.222222,116.956168 106.222222,115.225468 L106.222222,112.107865 C106.222222,110.391439 107.603135,109 109.333333,109 L112.444444,109 C118.687861,109 118.666667,108.900833 118.666667,102.777778 L118.666667,99.6666667 C118.666667,97.9484476 120.043832,96.5555556 121.774532,96.5555556 L124.892135,96.5555556 C126.608561,96.5555556 128,97.9327209 128,99.6634205 L128,105.888889 C128,113.884639 123.625583,118.333333 115.555556,118.333333 L109.330087,118.333333 Z M112.444444,34.3333333 L109.333333,34.3333333 C107.615114,34.3333333 106.222222,32.9561679 106.222222,31.2254685 L106.222222,28.1078649 C106.222222,26.3914385 107.599388,25 109.330087,25 L115.555556,25 C123.551306,25 128,29.3744167 128,37.4444444 L128,43.6699129 C128,45.3863393 126.622835,46.7777778 124.892135,46.7777778 L121.774532,46.7777778 C120.058105,46.7777778 118.666667,45.396865 118.666667,43.6666667 L118.666667,40.5555556 C118.666667,34.4325 118.576639,34.3333333 112.444444,34.3333333 Z M16,99.6634205 C16,97.9469941 17.3771655,96.5555556 19.1078649,96.5555556 L22.2254685,96.5555556 C23.9418948,96.5555556 25.3333333,97.9364683 25.3333333,99.6666667 L25.3333333,102.777778 C25.3333333,108.746833 25.4573889,109 31.5555556,109 L34.6666667,109 C36.3848859,109 37.7777778,110.377165 37.7777778,112.107865 L37.7777778,115.225468 C37.7777778,116.941895 36.4006123,118.333333 34.6699129,118.333333 L28.4444444,118.333333 C20.4486944,118.333333 16,113.958917 16,105.888889 L16,99.6634205 Z M25.3333333,43.637519 C25.3333333,45.371836 23.9561679,46.7777778 22.2254685,46.7777778 L19.1078649,46.7777778 C17.3914385,46.7777778 16,45.4006123 16,43.6699129 L16,37.4444444 C16,29.4486944 20.3744167,25 28.4444444,25 L34.6699129,25 C36.3863393,25 37.7777778,26.3771655 37.7777778,28.1078649 L37.7777778,31.2254685 C37.7777778,32.9418948 36.396865,34.3333333 34.6666667,34.3333333 L31.5555556,34.3333333 C25.5040556,34.3333333 25.3333333,34.2695556 25.3333333,40.5555556 L25.3333333,43.637519 Z" id="frame" fill="#FFFFFF" fill-rule="nonzero"></path>
        <path d="M60.3333333,92.8611111 C59.0583611,93.5782222 56.4444444,93.1807778 56.4444444,90.3333333 L56.4444444,53 C56.4444444,50.1014167 59.0583611,49.7551111 60.3333333,50.4722222 L94.9444444,70.6944444 C96.0323611,71.7823611 96.0471389,73.2861944 94.9444444,74.3888889 L60.3333333,92.8611111 L60.3333333,92.8611111 Z" id="arrow" fill="#FFFFFF" fill-rule="nonzero"></path>
    </g>
</svg>