<svg xmlns="http://www.w3.org/2000/svg" width="72" height="72" viewBox="0 0 72 72">
  <path fill="#D8D8D8" fill-rule="evenodd" d="M31.4694212,15.1774158 C31.065802,14.2075007 30.5441099,13.299635 29.9224203,12.4719988 L36.541393,8.65053309 L38.0996232,11.3494669 L31.4694212,15.1774158 Z M21.5582302,7.59730155 C21.047795,7.53308371 20.5277389,7.5 20,7.5 C19.4722611,7.5 18.952205,7.53308371 18.4417698,7.59730155 L18.4417698,0 L21.5582302,0 L21.5582302,7.59730155 Z M10.0775797,12.4719988 C9.45589014,13.299635 8.934198,14.2075007 8.53057884,15.1774158 L1.90037684,11.3494669 L3.45860701,8.65053309 L10.0775797,12.4719988 Z M8.53057884,24.8225842 C8.934198,25.7924993 9.45589014,26.700365 10.0775797,27.5280012 L3.45860701,31.3494669 L1.90037684,28.6505331 L8.53057884,24.8225842 Z M18.4417698,32.4026984 C18.952205,32.4669163 19.4722611,32.5 20,32.5 C20.5277389,32.5 21.047795,32.4669163 21.5582302,32.4026984 L21.5582302,40 L18.4417698,40 L18.4417698,32.4026984 Z M29.9224203,27.5280012 C30.5441099,26.700365 31.065802,25.7924993 31.4694212,24.8225842 L38.0996232,28.6505331 L36.541393,31.3494669 L29.9224203,27.5280012 Z M20,27.5 C15.8816889,27.5 12.5431381,24.1421356 12.5431381,20 C12.5431381,15.8578644 15.8816889,12.5 20,12.5 C24.1183111,12.5 27.4568619,15.8578644 27.4568619,20 C27.4568619,24.1421356 24.1183111,27.5 20,27.5 Z" transform="translate(16 16)"/>
</svg>
