<svg xmlns="http://www.w3.org/2000/svg" width="144" height="144" viewBox="0 0 144 144">
  <path fill="#FFF" d="M72.0019136,12 C105.083719,12 132,38.9137062 132,71.9961732 C132,105.086294 105.083719,132 72.0019136,132 C38.9124542,132 12,105.082467 12,71.9961732 C12,38.9137062 38.9124542,12 72.0019136,12 Z M72.0019136,122.444544 C99.8214001,122.444544 122.451284,99.8168251 122.451284,71.9923465 C122.451284,44.1793482 99.8214001,21.543976 72.0019136,21.543976 C44.1785999,21.543976 21.5487163,44.1793482 21.5487163,71.9923465 C21.5487163,99.8168251 44.1785999,122.444544 72.0019136,122.444544 Z M85.5768822,59.3346113 L104.958787,59.3346113 C108.294922,59.3346113 111,62.0260304 111,65.3538819 L111,78.6499521 C111,81.9739696 108.294922,84.6692226 104.958787,84.6692226 L85.5730343,84.6692226 L85.5730343,103.980729 C85.5730343,107.304747 82.8679561,110 79.5356691,110 L66.4643309,110 C63.128196,110 60.4269657,107.304747 60.4269657,103.980729 L60.4269657,84.6692226 L41.0373652,84.6692226 C37.7012303,84.6692226 35,81.9739696 35,78.6499521 L35,65.3538819 C35,62.0298643 37.7012303,59.3346113 41.0373652,59.3346113 L60.4308136,59.3346113 L60.4308136,40.0192705 C60.4308136,36.695253 63.1320439,34 66.4681788,34 L79.5356691,34 C82.871804,34 85.5768822,36.6914191 85.5768822,40.0192705 L85.5768822,59.3346113 Z"/>
</svg>
