<svg xmlns="http://www.w3.org/2000/svg" viewBox="0 0 144 144">
    <path fill="#FFF" fill-rule="nonzero" d="M79.4367201,43 L84,45.5651002 L84,98.3713296 L79.4204227,100.904762 L74.8571429,98.3713296 L74.8571429,45.5651002 L79.4367201,43 Z M91.635316,52.1428571 L96.1904762,54.6747253 L96.1904762,89.2456654 L91.6190476,91.7619048 L87.047619,89.2456654 L87.047619,54.6747253 L91.635316,52.1428571 Z M52.0081487,55.1904762 L56.5714286,57.6928294 L56.5714286,83.1952067 L51.9918513,85.6666667 L47.4285714,83.1952067 L47.4285714,57.6928294 L52.0081487,55.1904762 Z M106.873411,61.2857143 L111.428571,63.7333064 L111.428571,80.1865641 L106.857143,82.6190476 L102.285714,80.1865641 L102.285714,63.7333064 L106.873411,61.2857143 Z M36.7700535,61.2857143 L41.3333333,63.7333064 L41.3333333,80.1865641 L36.7700535,82.6190476 L32.1904762,80.1865641 L32.1904762,63.7333064 L36.7700535,61.2857143 Z M24.5795773,64.3333333 L29.1428571,66.6539645 L29.1428571,74.2318281 L24.5795773,76.5238095 L20,74.2318281 L20,66.6539645 L24.5795773,64.3333333 Z M64.1986249,64.3333333 L68.7619048,66.6539645 L68.7619048,74.2318281 L64.1823275,76.5238095 L59.6190476,74.2318281 L59.6190476,66.6539645 L64.1986249,64.3333333 Z M119.055768,67.3809524 L123.619048,69.9909098 L123.619048,73.9458761 L119.055768,76.5238095 L114.476191,73.9458761 L114.476191,69.9909098 L119.055768,67.3809524 Z" transform="matrix(1 0 0 -1 0 143.905)" />
</svg>
