<svg xmlns="http://www.w3.org/2000/svg" width="40" height="40"><path fill="#FFF" fill-rule="evenodd" d="M15.85 15.74a.245.245 0 0 1-.067-.044c-.253-.264-.29-.75-.29-1.473 0-.621.407-.8.524-.828.255-.002 14.365.018 14.365.018 1.996 0 3.618-1.66 3.618-3.706C34 7.66 32.378 6 30.382 6h-14.73c-.088 0-.176.002-.263.008-.285.02-7.13.57-7.13 8.215 0 3.417 1.168 5.422 2.364 6.67 2.168 2.26 4.901 2.263 4.998 2.26l9.289.013c.138.008.637.054.95.462.198.26.257.654.257 1.177 0 .556-.073.974-.283 1.256-.338.46-.887.52-1.01.53-.085.002-17.206-.004-17.206-.004C5.62 26.587 4 28.247 4 30.293 4 32.338 5.62 34 7.618 34h17.408l.186-.004s3.99-.217 6.386-3.454c.976-1.321 1.753-3.145 1.753-5.737 0-2.621-.8-4.446-1.8-5.753-2.44-3.188-6.495-3.3-6.495-3.3h-.077l-9.128-.011Zm2.98 12.493c-4.991.002-11.212.002-11.212.002-1.111 0-2.01.921-2.01 2.058 0 1.138.899 2.06 2.01 2.06H18.83v-4.12Zm12.863-2.423h-4.057c-.1.513-.281.923-.52 1.248-.733.99-1.906 1.152-2.147 1.175h-4.53v4.12h4.587c.034 0 .068 0 .103-.003 0 0 3.242-.174 5.188-2.804.673-.91 1.216-2.117 1.376-3.736Zm-8.037-8.41v4.116l1.29.002c.146.006 1.405.083 2.177 1.094.291.377.49.886.567 1.55h4.033c-.113-1.816-.701-3.13-1.438-4.093-1.978-2.583-5.269-2.666-5.269-2.666l-1.36-.003Zm-9.546-1.48H9.992c.283 1.823 1.01 3.015 1.778 3.818 1.705 1.776 3.849 1.766 3.849 1.766l6.427.01v-4.118l-6.372-.008c-.033-.004-.582-.063-1.037-.537-.218-.228-.398-.532-.527-.932Zm6.329-8.272h-4.786c-.052 0-.103.004-.155.006 0 0-5.631.363-5.631 6.569v.048h4.017v-.048c0-2.03 1.58-2.405 1.874-2.456.004 0 2.087-.002 4.68-.002V7.648Zm1.607 0v4.117h8.336c1.11 0 2.01-.923 2.01-2.058 0-1.136-.9-2.06-2.01-2.06h-8.336Z"/></svg>