<svg xmlns="http://www.w3.org/2000/svg" xmlns:xlink="http://www.w3.org/1999/xlink" viewBox="0 0 144 144">
<rect id="background" fill="#263838" fill-rule="nonzero" x="0" y="0" width="144" height="144"/>
<path id="icon" fill="#999" fill-rule="evenodd" d="M106,53l0,37c0,5.519 -4.481,10 -10,10l-49,0c-5.519,0 -10,-4.481 -10,-10l0,-37c0,-5.519 4.481,-10 10,-10l49,0c5.519,0 10,4.481 10,10Zm-4,0c-0,-3.311 -2.689,-6 -6,-6l-49,0c-3.311,0 -6,2.689 -6,6l0,37c0,3.311 2.689,6 6,6l49,0c3.311,0 6,-2.689 6,-6l-0,-37Zm-39,1c4.415,0 8,3.585 8,8c0,4.415 -3.585,8 -8,8c-4.415,0 -8,-3.585 -8,-8c0,-4.415 3.585,-8 8,-8Zm32,39l-47,0c-0.593,0 -1.156,-0.13 -1.662,-0.361c-0.586,-0.269 -1.007,-0.803 -1.131,-1.436c-0.124,-0.632 0.065,-1.286 0.508,-1.755l10.83,-11.487c0.378,-0.4 0.904,-0.628 1.455,-0.628c0.551,0 1.077,0.228 1.455,0.628c0,0 7.953,8.435 7.953,8.435l16.595,-18.723c0.38,-0.428 0.925,-0.673 1.497,-0.673c0.572,0 1.117,0.245 1.497,0.673l11.5,12.975c0.324,0.366 0.503,0.838 0.503,1.326l0,7.026c0,2.208 -1.792,4 -4,4Z"/>
</svg>