<?xml version="1.0" encoding="UTF-8"?>
<svg version="1.1" viewBox="0 0 144 144" xmlns="http://www.w3.org/2000/svg">
 <g id="mediaSource" fill-rule="evenodd">
  <rect id="background" width="144" height="144" fill="#5e8b8b" fill-rule="nonzero"/>
  <path d="m112 48c0-4.415-3.585-8-8-8h-64c-4.415 0-8 3.585-8 8v48c0 4.415 3.585 8 8 8h64c4.415 0 8-3.585 8-8v-48zm-4 0c0-2.208-1.792-4-4-4h-64c-2.208 0-4 1.792-4 4v48c0 2.208 1.792 4 4 4h64c2.208 0 4-1.792 4-4v-48zm-62 43c0-0.552-0.448-1-1-1h-2c-0.552 0-1 0.448-1 1v2c0 0.552 0.448 1 1 1h2c0.552 0 1-0.448 1-1v-2zm56 0c0-0.552-0.448-1-1-1h-2c-0.552 0-1 0.448-1 1v2c0 0.552 0.448 1 1 1h2c0.552 0 1-0.448 1-1v-2zm-56-8c0-0.552-0.448-1-1-1h-2c-0.552 0-1 0.448-1 1v2c0 0.552 0.448 1 1 1h2c0.552 0 1-0.448 1-1v-2zm56 0c0-0.552-0.448-1-1-1h-2c-0.552 0-1 0.448-1 1v2c0 0.552 0.448 1 1 1h2c0.552 0 1-0.448 1-1v-2zm-56-8c0-0.552-0.448-1-1-1h-2c-0.552 0-1 0.448-1 1v2c0 0.552 0.448 1 1 1h2c0.552 0 1-0.448 1-1v-2zm56 0c0-0.552-0.448-1-1-1h-2c-0.552 0-1 0.448-1 1v2c0 0.552 0.448 1 1 1h2c0.552 0 1-0.448 1-1v-2zm-56-8c0-0.552-0.448-1-1-1h-2c-0.552 0-1 0.448-1 1v2c0 0.552 0.448 1 1 1h2c0.552 0 1-0.448 1-1v-2zm56 0c0-0.552-0.448-1-1-1h-2c-0.552 0-1 0.448-1 1v2c0 0.552 0.448 1 1 1h2c0.552 0 1-0.448 1-1v-2zm-56-8c0-0.552-0.448-1-1-1h-2c-0.552 0-1 0.448-1 1v2c0 0.552 0.448 1 1 1h2c0.552 0 1-0.448 1-1v-2zm56 0c0-0.552-0.448-1-1-1h-2c-0.552 0-1 0.448-1 1v2c0 0.552 0.448 1 1 1h2c0.552 0 1-0.448 1-1v-2zm-56-8c0-0.552-0.448-1-1-1h-2c-0.552 0-1 0.448-1 1v2c0 0.552 0.448 1 1 1h2c0.552 0 1-0.448 1-1v-2zm56 0c0-0.552-0.448-1-1-1h-2c-0.552 0-1 0.448-1 1v2c0 0.552 0.448 1 1 1h2c0.552 0 1-0.448 1-1v-2z" fill="#f3f3f3"/>
  <path id="play" d="m86 72-24 14v-28l24 14z" fill="#f3f3f3" fill-rule="nonzero"/>
 </g>
</svg>
