<svg xmlns="http://www.w3.org/2000/svg" xmlns:xlink="http://www.w3.org/1999/xlink" viewBox="0 0 144 144">
<rect id="background" fill="#5e8b8b" fill-rule="nonzero" x="0" y="0" width="144" height="144"/>
<path id="icon" fill="#f3f3f3" fill-rule="evenodd" d="M100,99l-55,-0c-3.863,-0 -7,-3.137 -7,-7l0,-44c0,-3.863 3.137,-7 7,-7l17.625,-0c1.783,-0 2.836,0.359 4.406,1.564c2.021,1.539 6.104,4.689 8.368,6.436l24.601,-0c2.79,-0 5.201,1.636 6.325,4l6.964,-0c3.863,-0 6.094,3.137 4.978,7l-9.245,32c-1.116,3.863 -5.159,7 -9.022,7Zm-53.1,-6.1l-0.9,2.1l55.156,-0c1.655,-0 3.388,-1.344 3.866,-3l9.245,-32c0.478,-1.656 -0.478,-3 -2.134,-3l-52,-0c-1.655,-0 -3.388,1.344 -3.866,3l-9.245,32c-0.09,0.314 -0.13,0.616 -0.122,0.9Zm31.1,-18.9c0,1.104 -0.896,2 -2,2l-13,0c-1.104,0 -2,-0.896 -2,-2c0,-1.104 0.896,-2 2,-2l13,0c1.104,0 2,0.896 2,2Zm15,-8c0,1.104 -0.896,2 -2,2l-25,0c-1.104,0 -2,-0.896 -2,-2c0,-1.104 0.896,-2 2,-2l25,0c1.104,0 2,0.896 2,2Z"/>
</svg>