<svg xmlns="http://www.w3.org/2000/svg" xmlns:xlink="http://www.w3.org/1999/xlink" viewBox="0 0 144 144">
<rect id="background" fill="#263838" fill-rule="nonzero" x="0" y="0" width="144" height="144"/>
<path id="icon" fill="#999" fill-rule="evenodd" d="M46,49c0.115,-0 0.23,0.001 0.345,0.003c0.052,-0.002 0.104,-0.003 0.156,-0.003l51.499,-0c12.142,-0 22,9.858 22,22c0,12.142 -9.858,22 -22,22c-8.542,-0 -15.954,-4.879 -19.598,-12l-12.804,0c-3.644,7.121 -11.056,12 -19.598,12c-12.142,0 -22,-9.858 -22,-22c-0,-12.142 9.858,-22 22,-22Zm-0,4c-9.934,-0 -18,8.066 -18,18c-0,9.934 8.066,18 18,18c6.991,0 13.055,-3.995 16.037,-9.822c0.684,-1.337 2.059,-2.178 3.561,-2.178l12.804,-0c1.502,-0 2.877,0.841 3.561,2.178c2.982,5.827 9.046,9.822 16.037,9.822c9.934,-0 18,-8.066 18,-18c0,-9.934 -8.066,-18 -18,-18l-52,-0Zm56,18c2.76,0 5,2.24 5,5c0,2.76 -2.24,5 -5,5c-2.76,0 -5,-2.24 -5,-5c0,-2.76 2.24,-5 5,-5Zm-10,-10c2.76,0 5,2.24 5,5c0,2.76 -2.24,5 -5,5c-2.76,0 -5,-2.24 -5,-5c0,-2.76 2.24,-5 5,-5Zm-49,7l0,-4c0,-1.656 1.344,-3 3,-3c1.656,0 3,1.344 3,3l0,4l4,0c1.656,0 3,1.344 3,3c0,1.656 -1.344,3 -3,3l-4,0l0,4c0,1.656 -1.344,3 -3,3c-1.656,0 -3,-1.344 -3,-3l0,-4l-4,0c-1.656,0 -3,-1.344 -3,-3c0,-1.656 1.344,-3 3,-3l4,0Z"/>
</svg>