<?xml version="1.0" encoding="UTF-8"?>
<svg version="1.1" viewBox="0 0 144 144" xmlns="http://www.w3.org/2000/svg"><g fill-rule="evenodd"><rect width="144" height="144" fill="#263838" fill-rule="nonzero"/><path d="m86 60v4h24c1 0 2 0.9 2 2v28c0 1-0.9 2-2 2h-46c-1 0-2-0.9-2-2v-10h-4v12c0 2 2 4 4 4h50c2 0 4-2 4-4v-32c0-2-2-4-4-4z" fill="#999" fill-rule="nonzero"/><path d="m86 76-8 8h4c2 0 4-2 4-4zm-28 4v-6l14-14h6zm0-12v-6l2-2h6zm14 16h-6l20-20v6zm14-24h-2l-24 24h-28c-2 0-4-2-4-4v-32c0-2 2-4 4-4h50c2 0 4 2 4 4z" fill="#999"/></g></svg>
