<svg xmlns="http://www.w3.org/2000/svg" xmlns:xlink="http://www.w3.org/1999/xlink" viewBox="0 0 144 144">

<g id="transition" fill="none" fill-rule="evenodd" stroke="none">
<rect id="background" fill="#5e8b8b" fill-rule="nonzero" x="0" y="0" width="144" height="144"/>
<path fill="#f3f3f3" fill-rule="nonzero" d="M86,60l0,4l24,0c1.104,0 2,0.896 2,2l-0,28c-0,1.104 -0.896,2 -2,2l-46,0c-1.104,0 -2,-0.896 -2,-2l-0,-10l-4,0l0,12c0,2.208 1.792,4 4,4l50,-0c2.208,-0 4,-1.792 4,-4l0,-32c0,-2.208 -1.792,-4 -4,-4l-26,-0Z"/>
<path fill="#f3f3f3" d="M86,75.828l-8.172,8.172l4.172,-0c2.208,-0 4,-1.792 4,-4l0,-4.172Zm-28,4l0,-5.656l14.172,-14.172l5.656,0l-19.828,19.828Zm0,-12l0,-5.656l2.172,-2.172l5.656,-0l-7.828,7.828Zm14.172,16.172l-6.344,-0l20.172,-20.172l0,6.344l-13.828,13.828Zm13.828,-24l-1.828,0l-24,24l-28.172,-0c-2.208,-0 -4,-1.792 -4,-4l0,-32c0,-2.208 1.792,-4 4,-4l50,-0c2.208,-0 4,1.792 4,4l0,12Z"/></g></svg>