<svg xmlns="http://www.w3.org/2000/svg" xmlns:xlink="http://www.w3.org/1999/xlink" viewBox="0 0 144 144">

<g id="screenshot" fill="none" fill-rule="evenodd" stroke="none">
<rect id="background" fill="#263838" fill-rule="nonzero" x="0" y="0" width="144" height="144"/>
<path fill="#999" fill-rule="nonzero" d="M32,92l0,6c0,3.311 2.689,6 6,6l6,-0l0,-4l-6,-0c-1.104,-0 -2,-0.896 -2,-2l0,-6l-4,-0Zm80,-0l-4,-0l0,6c0,1.104 -0.896,2 -2,2l-6,-0l0,4l6,-0c3.311,-0 6,-2.689 6,-6l0,-6Zm-12,-52l0,4l6,-0c1.104,-0 2,0.896 2,2l0,6l4,-0l0,-6c0,-3.311 -2.689,-6 -6,-6l-6,-0Zm-56,-0l-6,-0c-3.311,-0 -6,2.689 -6,6l0,6l4,-0l0,-6c0,-1.104 0.896,-2 2,-2l6,-0l0,-4Z"/>
<path fill="#999" fill-rule="nonzero" d="M82,54c0,-3.311 -2.689,-6 -6,-6l-8,0c-3.311,0 -6,2.689 -6,6c-0,0 -12,0 -12,0c-3.311,0 -6,2.689 -6,6l-0,28c-0,3.311 2.689,6 6,6l44,0c3.311,0 6,-2.689 6,-6l-0,-28c-0,-3.311 -2.689,-6 -6,-6l-12,0Zm-10,4c8.831,0 16,7.169 16,16c0,8.831 -7.169,16 -16,16c-8.831,0 -16,-7.169 -16,-16c0,-8.831 7.169,-16 16,-16Zm-5,8c1.656,-0 3,1.344 3,3c0,1.656 -1.344,3 -3,3c-1.656,0 -3,-1.344 -3,-3c-0,-1.656 1.344,-3 3,-3Zm25,-8c1.104,-0 2,0.896 2,2c0,1.104 -0.896,2 -2,2c-1.104,0 -2,-0.896 -2,-2c-0,-1.104 0.896,-2 2,-2Z"/></g></svg>