<svg xmlns="http://www.w3.org/2000/svg" width="18" height="18" viewBox="0 0 18 18">
  <g fill="none" fill-rule="evenodd">
    <path fill="#D8D8D8" d="M6,5 L14,5 C14.5522847,5 15,5.44771525 15,6 L15,16 C15,16.5522847 14.5522847,17 14,17 L6,17 C5.44771525,17 5,16.5522847 5,16 L5,6 C5,5.44771525 5.44771525,5 6,5 Z M7,7 L7,15 L13,15 L13,7 L7,7 Z"/>
    <path fill="#D8D8D8" d="M12,5 L10,5 L10,3 L4,3 L4,11 L5,11 L5,13 L3,13 C2.44771525,13 2,12.5522847 2,12 L2,2 C2,1.44771525 2.44771525,1 3,1 L11,1 C11.5522847,1 12,1.44771525 12,2 L12,5 Z"/>
  </g>
</svg>
