<svg xmlns="http://www.w3.org/2000/svg" width="15" height="15" viewBox="0 0 15 15">
  <g fill="none" fill-rule="evenodd">
    <path fill="#D8D8D8" d="M7.5,0 C11.6421356,0 15,3.35786438 15,7.5 C15,11.6421356 11.6421356,15 7.5,15 C3.35786438,15 0,11.6421356 0,7.5 C0,3.35786438 3.35786438,0 7.5,0 Z M7.5,1 C3.91014913,1 1,3.91014913 1,7.5 C1,11.0898509 3.91014913,14 7.5,14 C11.0898509,14 14,11.0898509 14,7.5 C14,3.91014913 11.0898509,1 7.5,1 Z"/>
    <path fill="#D8D8D8" d="M8.64149792,2 L9.33249792,2.691 L4.64693007,7.54379959 L9.35749792,12.423 L8.78049792,13 L6.84649792,13 L1.42949792,7.58366483 L7.01349792,2 L8.64149792,2 Z M10.0294979,3.388 L12.6614979,6.019 L12.405861,6.28350847 C11.7546322,5.61213713 10.6987816,5.61213713 10.0475528,6.28350847 C9.39632396,6.95487981 9.39632396,8.04338782 10.0475528,8.71475916 C10.6987816,9.3861305 11.7546322,9.3861305 12.405861,8.71475916 L12.7304979,9.05 L10.0554979,11.725 L6,7.5429437 L10.0294979,3.388 Z"/>
  </g>
</svg>
