<svg xmlns="http://www.w3.org/2000/svg" width="28" height="28" viewBox="0 0 28 28">
  <path fill="none" stroke="#FFF" stroke-width="1.5" d="M19.4127976,3.2262581 L17.9177255,1.75 L13.5019693,1.75 L1.06836576,14.0271393 L13.4894285,26.25 L17.9044813,26.25 L19.3014542,24.8706066 L8.4214709,14.1035263 L19.4127976,3.2262581 Z M25.4880607,9.22507029 L21.5721271,5.35841469 L12.7821857,14.0571418 L21.507707,22.6921172 L25.589024,18.6621595 C24.0378821,18.9864094 22.3576352,18.5521314 21.1523217,17.3593256 C19.25259,15.4793076 19.25259,12.4279233 21.1523217,10.5479053 C22.3315296,9.38093425 23.9653205,8.93998924 25.4880607,9.22507029 Z M27.9946873,17.3408992 L27.674203,17.664744 C27.5992239,17.7262605 27.5228171,17.7852 27.4451023,17.8415626 L26.9578086,17.3593256 L27.4853655,16.8262367 L27.9946873,17.3408992 Z M27.9547948,10.6066424 L27.4853655,11.0809941 L26.9578086,10.5479053 L27.4321345,10.0785016 L27.9547948,10.6066424 Z"/>
</svg>
