<svg xmlns="http://www.w3.org/2000/svg" width="782" height="782" viewBox="0 0 782 782">
  <path fill="none" stroke="#979797" stroke-width="8" d="M355.994063,667.033804 L354.334592,667.033804 L357.166175,668.208536 L355.994063,667.033804 Z M193.036683,505.037619 L193.036683,514.694473 L197.036683,514.694473 L199.86511,511.866046 L193.036683,505.037619 Z M79.3719453,391.372882 L76.5435182,388.544455 L76.5435182,394.201309 L79.3719453,391.372882 Z M193.036683,277.708145 L199.86511,270.879717 L197.036683,268.05129 L193.036683,268.05129 L193.036683,277.708145 Z M356.242458,114.502369 L357.414031,113.330796 L354.585604,114.502369 L356.242458,114.502369 Z M460.037763,114.502369 L461.694617,114.502369 L458.86619,113.330796 L460.037763,114.502369 Z M504.023762,158.488367 L506.849033,161.313639 L506.845878,155.659944 L504.023762,158.488367 Z M501.653529,625.136102 L504.475645,627.964526 L504.4788,622.31083 L501.653529,625.136102 Z M459.755827,667.033804 L458.584254,668.205377 L461.412681,667.033804 L459.755827,667.033804 Z M663.256248,317.720854 L532.924633,187.389239 L328.770152,392 L531.553284,595.236347 L664.114321,462.67531 L658.751758,457.300762 C622.893364,490.268248 567.137265,489.342632 532.396192,454.523914 C496.711272,418.759239 496.711272,360.776934 532.396192,325.012259 C567.137265,290.193541 622.893364,289.267925 658.751758,322.235411 L663.256248,317.720854 Z"/>
</svg>
