<svg xmlns="http://www.w3.org/2000/svg" width="28" height="28" viewBox="0 0 28 28">
  <path fill="#FFF" fill-rule="evenodd" d="M18.2123634,27 L13.1822958,27 L5.79311735,19.6875 L5.79311735,19.74827 L0,14.0280532 L5.79311735,8.30783628 L5.79311735,8.3125 L7.90641356,6.22113374 L13.1940873,1 L18.2256075,1 L20.4796349,3.22566272 L9.48770659,14.1035263 L20.3682915,24.871202 L18.2123634,27 Z M27.9596914,10.6115904 L27.4853655,11.0809941 C25.8822246,9.49448921 23.2830196,9.49448921 21.6798786,11.0809941 C20.0767377,12.6674991 20.0767377,15.2397318 21.6798786,16.8262367 C23.2830196,18.4127417 25.8822246,18.4127417 27.4853655,16.8262367 L28,17.3355308 L21.5071185,23.746706 L11.71595,14.0571418 L21.5715386,4.30382591 L27.9596914,10.6115904 Z"/>
</svg>
