<svg xmlns="http://www.w3.org/2000/svg" width="103" height="20" viewBox="0 0 103 20">
  <g fill="#EFEFEF" fill-rule="evenodd">
    <path fill-rule="nonzero" d="M28.5653674,9.03471087 L31.0749665,4.6956729 L33.4286019,4.6956729 L30.5645396,9.24534378 L33.4286019,14.834137 L31.0182524,14.834137 L28.5653674,9.63852522 L28.5370104,9.63852522 L28.5370104,14.834137 L26.3960529,14.834137 L26.3960529,4.6956729 L28.5370104,4.6956729 L28.5370104,9.03471087 L28.5653674,9.03471087 Z M39.7794909,14.834137 L34.0797234,14.834137 L34.0797234,4.6956729 L39.6660627,4.6956729 L39.6660627,6.25435644 L36.2206808,6.25435644 L36.2206808,8.75386699 L39.3966707,8.75386699 L39.3966707,10.3125505 L36.2206808,10.3125505 L36.2206808,13.2754535 L39.7794909,13.2754535 L39.7794909,14.834137 Z M42.7275336,14.834137 L42.7275336,11.3235885 L40.0477922,4.6956729 L42.387249,4.6956729 L43.9185298,8.97854209 L45.5490603,4.6956729 L47.7325533,4.6956729 L44.8684911,11.3235885 L44.8684911,14.834137 L42.7275336,14.834137 Z M54.6494927,15.0026434 C51.1190397,15.0026434 51.1190397,12.4188796 51.1190397,9.76490496 C51.1190397,7.08284589 51.1190397,4.52716657 54.6494927,4.52716657 C56.8329857,4.52716657 57.7120543,5.72075306 57.6269832,7.89729315 L55.5285613,7.89729315 C55.5285613,6.54924252 55.2875264,6.04372353 54.6494927,6.04372353 C53.444318,6.04372353 53.2883542,7.16709906 53.2883542,9.76490496 C53.2883542,12.3627109 53.444318,13.4860864 54.6494927,13.4860864 C55.6419895,13.4860864 55.599454,12.2222889 55.627811,11.4218839 L57.7404114,11.4218839 C57.7404114,14.1320273 56.6486649,15.0026434 54.6494927,15.0026434 Z M60.872775,6.25435644 L60.872775,9.07683745 L61.8227362,9.07683745 C62.6734478,9.07683745 62.9144828,8.23430581 62.9144828,7.58836488 C62.9144828,6.61945349 62.5033055,6.25435644 61.8227362,6.25435644 L60.872775,6.25435644 Z M60.872775,10.635521 L60.872775,14.834137 L58.7318176,14.834137 L58.7318176,4.6956729 L62.6876263,4.6956729 C64.1480145,4.6956729 65.0837972,5.62245771 65.0837972,7.34964758 C65.0837972,8.64152944 64.5733703,9.61044083 63.1838747,9.83511593 L63.1838747,9.86320032 C63.6517661,9.9193691 65.0412617,10.0317067 65.0412617,11.8571919 C65.0412617,12.5031328 65.0837972,14.4128712 65.2822966,14.834137 L63.1838747,14.834137 C62.9003042,14.2162805 62.9570183,13.528213 62.9570183,12.8682299 C62.9570183,11.6606012 63.0704465,10.635521 61.4257375,10.635521 L60.872775,10.635521 Z M72.0301843,14.834137 L66.3304169,14.834137 L66.3304169,4.6956729 L71.9167561,4.6956729 L71.9167561,6.25435644 L68.4713743,6.25435644 L68.4713743,8.75386699 L71.6473641,8.75386699 L71.6473641,10.3125505 L68.4713743,10.3125505 L68.4713743,13.2754535 L72.0301843,13.2754535 L72.0301843,14.834137 Z M74.4252646,14.834137 L72.3126642,14.834137 L75.1483694,4.6956729 L77.9698961,4.6956729 L80.7488872,14.834137 L78.4945016,14.834137 L77.9273605,12.587386 L75.0065842,12.587386 L74.4252646,14.834137 Z M77.4736477,11.0287024 L76.4386153,6.64753787 L76.4102582,6.64753787 L75.4319399,11.0287024 L77.4736477,11.0287024 Z M80.6201898,4.6956729 L87.525132,4.6956729 L87.525132,6.38073619 L85.1431396,6.38073619 L85.1431396,14.834137 L83.0021822,14.834137 L83.0021822,6.38073619 L80.6201898,6.38073619 L80.6201898,4.6956729 Z M91.6216354,13.4860864 C92.8268101,13.4860864 92.9827739,12.3627109 92.9827739,9.76490496 C92.9827739,7.16709906 92.8268101,6.04372353 91.6216354,6.04372353 C90.4164607,6.04372353 90.2604969,7.16709906 90.2604969,9.76490496 C90.2604969,12.3627109 90.4164607,13.4860864 91.6216354,13.4860864 Z M91.6216354,15.0026434 C88.0911824,15.0026434 88.0911824,12.4188796 88.0911824,9.76490496 C88.0911824,7.08284589 88.0911824,4.52716657 91.6216354,4.52716657 C95.1520884,4.52716657 95.1520884,7.08284589 95.1520884,9.76490496 C95.1520884,12.4188796 95.1520884,15.0026434 91.6216354,15.0026434 Z M98.6247366,6.25435644 L98.6247366,9.07683745 L99.5746978,9.07683745 C100.425409,9.07683745 100.666444,8.23430581 100.666444,7.58836488 C100.666444,6.61945349 100.255267,6.25435644 99.5746978,6.25435644 L98.6247366,6.25435644 Z M98.6247366,10.635521 L98.6247366,14.834137 L96.4837791,14.834137 L96.4837791,4.6956729 L100.439588,4.6956729 C101.899976,4.6956729 102.835759,5.62245771 102.835759,7.34964758 C102.835759,8.64152944 102.325332,9.61044083 100.935836,9.83511593 L100.935836,9.86320032 C101.403728,9.9193691 102.793223,10.0317067 102.793223,11.8571919 C102.793223,12.5031328 102.835759,14.4128712 103.034258,14.834137 L100.935836,14.834137 C100.652266,14.2162805 100.70898,13.528213 100.70898,12.8682299 C100.70898,11.6606012 100.822408,10.635521 99.1776991,10.635521 L98.6247366,10.635521 Z"/>
    <path d="M11.1352524,7.2977528 L7.69173453,5.45277262 L5.97924634,6.3763035 L5.97924634,13.5085153 L7.69470116,14.423026 L12.5458858,11.8078585 L10.8793804,10.9162453 L7.64352676,12.6613093 L7.64352676,7.21310158 L17.0306914,12.2380532 C16.5174641,13.7048784 15.5577587,14.9399535 14.2487324,15.8412808 C12.9130065,16.7606485 11.3295667,17.2470461 9.67047792,17.2470461 C5.39926983,17.2470461 1.92460236,13.9963006 1.92460236,10.0003469 C1.92460236,6.00439324 5.39926983,2.75295394 9.67047792,2.75295394 C12.9411895,2.75295394 15.8751883,4.69368713 16.9706171,7.58223639 C17.0521994,7.79663988 17.1233986,8.01659427 17.1827312,8.23724252 L18.9018943,7.30538529 C18.8284702,7.0854309 18.7454045,6.86617037 18.6549222,6.65315461 C17.9466389,4.99066025 16.7377365,3.57171159 15.158005,2.55034611 C13.5411907,1.5053893 11.6432881,0.952380952 9.67047792,0.952380952 C7.08728331,0.952380952 4.6590952,1.8932584 2.83239169,3.60224154 C1.00568817,5.31122469 0,7.58362412 0,10.0003469 C0,12.4163759 1.00568817,14.6887753 2.83239169,16.3977585 C4.6590952,18.1067416 7.08728331,19.047619 9.67047792,19.047619 C11.9570094,19.047619 14.1760499,18.286452 15.9174628,16.9049719 C17.6306926,15.5456954 18.7891623,13.6653282 19.184466,11.6080262 L11.1352524,7.2977528 Z"/>
  </g>
</svg>
