<svg xmlns="http://www.w3.org/2000/svg" width="11" height="10" viewBox="0 0 11 10">
  <g fill="#6A6969" fill-rule="evenodd" transform="translate(.5)">
    <rect width="2.75" height="1.25" x="7" y="8" transform="rotate(45 8.375 8.625)"/>
    <path fill-rule="nonzero" d="M1.31801671,1.31801674 C-0.439338096,3.07537159 -0.439338096,5.9245728 1.31801186,7.68196566 C3.07536778,9.43936447 5.92458391,9.43936447 7.68197784,7.68197051 C9.43929353,5.92456906 9.43929353,3.07537533 7.68197299,1.31801189 C5.92458017,-0.439338106 3.07537152,-0.439338106 1.31801671,1.31801674 Z M7.15165591,1.8483265 C8.6160916,3.3127979 8.6160916,5.68714916 7.15165052,7.15166167 C5.68715125,8.61616093 3.31280828,8.61616093 1.84833934,7.15165628 C0.383863784,5.68714501 0.383863784,3.31280206 1.84833395,1.84833188 C3.26703943,0.429626407 5.53964701,0.385291861 7.01175874,1.71533315 L7.15165591,1.8483265 Z"/>
    <polygon fill-rule="nonzero" points="1 -1 2 -1 2 2 1 2" transform="rotate(90 1.012 4.012)"/>
    <polygon fill-rule="nonzero" points="0 0 1 0 1 3 0 3" transform="rotate(-180 2.512 3)"/>
  </g>
</svg>
