<svg xmlns="http://www.w3.org/2000/svg" width="15" height="15" viewBox="0 0 15 15">
  <g fill="none" fill-rule="evenodd" transform="matrix(-1 0 0 1 15 0)">
    <path fill="#8E8E93" d="M0,0 L15,0 L15,15 L0,15 L0,0 Z M1,1 L1,14 L14,14 L14,1 L1,1 Z" opacity=".18"/>
    <path fill="#D8D8D8" fill-rule="nonzero" d="M1.25,11.4718421 L1.25,3.52815791 C1.25,2.27292746 2.26996604,1.25 3.52815791,1.25 L11.4718421,1.25 C12.7270726,1.25 13.75,2.26996604 13.75,3.52815791 L13.75,11.4718421 C13.75,12.7270726 12.7300339,13.75 11.4718421,13.75 L3.52815791,13.75 C2.27292746,13.75 1.25,12.7300339 1.25,11.4718421 Z M2.5,10.9090909 C2.5,11.9156444 3.08672474,12.5 4.09090909,12.5 L10.9090909,12.5 C11.9156444,12.5 12.5,11.9132753 12.5,10.9090909 L12.5,4.09090909 C12.5,3.0843556 11.9132753,2.5 10.9090909,2.5 L4.09090909,2.5 C3.0843556,2.5 2.5,3.08672474 2.5,4.09090909 L2.5,10.9090909 Z"/>
  </g>
</svg>
