<svg xmlns="http://www.w3.org/2000/svg" width="15" height="15" viewBox="0 0 15 15">
  <g fill="none" fill-rule="evenodd">
    <path fill="#8E8E93" d="M0,0 L15,0 L15,15 L0,15 L0,0 Z M1,1 L1,14 L14,14 L14,1 L1,1 Z" opacity=".18"/>
    <g fill="#D8D8D8" fill-rule="nonzero">
      <path d="M13,12 L2,12 C1.44771525,12 1,11.5522847 1,11 L1,4 C1,3.44771525 1.44771525,3 2,3 L4.792,3 L5.646,2.146 C5.73995073,2.05228605 5.86730114,1.999763 6,2 L9,2 C9.13269886,1.999763 9.26004927,2.05228605 9.354,2.146 L10.207,3 L13,3 C13.5522847,3 14,3.44771525 14,4 L14,11 C14,11.5522847 13.5522847,12 13,12 Z M2,4 L2,11 L13,11 L13,4 L10,4 C9.86730114,4.000237 9.73995073,3.94771395 9.646,3.854 L8.793,3 L6.207,3 L5.353,3.854 C5.25929446,3.94746895 5.13235245,3.99997188 5,4 L2,4 Z"/>
      <path d="M7.5,10 C6.11928813,10 5,8.88071187 5,7.5 C5,6.11928813 6.11928813,5 7.5,5 C8.88071187,5 10,6.11928813 10,7.5 C10,8.16304122 9.7366079,8.79892601 9.26776695,9.26776695 C8.79892601,9.7366079 8.16304122,10 7.5,10 Z M7.5,6 C6.67157288,6 6,6.67157288 6,7.5 C6,8.32842712 6.67157288,9 7.5,9 C8.32842712,9 9,8.32842712 9,7.5 C9,6.67157288 8.32842712,6 7.5,6 Z"/>
    </g>
  </g>
</svg>
