<svg xmlns="http://www.w3.org/2000/svg" width="15" height="15" viewBox="0 0 15 15">
  <g fill="none" fill-rule="evenodd">
    <path fill="#8E8E93" fill-rule="nonzero" d="M0,0 L15,0 L15,15 L0,15 L0,0 Z M1,1 L1,14 L14,14 L14,1 L1,1 Z" opacity=".18"/>
    <polygon fill="#D8D8D8" fill-rule="nonzero" points="1 14 14 14 14 1 1 1"/>
    <path fill="#C8C8C8" fill-rule="nonzero" d="M13.9991847,1.70618472 L13.9991847,3.12018472 L3.12018472,13.9991847 L1.70618472,13.9991847 L13.9991847,1.70618472 Z M13.9991847,4.53618472 L13.9991847,5.95018472 L5.95018472,13.9991847 L4.53618472,13.9991847 L13.9991847,4.53618472 Z M13.9991847,7.36418472 L13.9991847,8.77818472 L8.77818472,13.9991847 L7.36418472,13.9991847 L13.9991847,7.36418472 Z M13.9991847,10.1921847 L13.9991847,11.6061847 L11.6061847,13.9991847 L10.1921847,13.9991847 L13.9991847,10.1921847 Z M13.2931847,0.99918472 L0.99918472,13.2931847 L0.99918472,11.8791847 L11.8791847,0.99918472 L13.2931847,0.99918472 Z M10.4651847,0.99918472 L0.99918472,10.4651847 L0.99918472,9.05118472 L9.05118472,0.99918472 L10.4651847,0.99918472 Z M7.63718472,0.99918472 L0.99918472,7.63718472 L0.99918472,6.22318472 L6.22318472,0.99918472 L7.63718472,0.99918472 Z M4.80918472,0.99918472 L0.99918472,4.80918472 L0.99918472,3.39418472 L3.39418472,0.99918472 L4.80918472,0.99918472 Z"/>
  </g>
</svg>
