<svg xmlns="http://www.w3.org/2000/svg" width="18" height="18" viewBox="0 0 18 18">
  <g fill="none" fill-rule="evenodd">
    <path fill="#D8D8D8" d="M3,4 L15,4 L15,16 C15,17.1045695 14.1045695,18 13,18 L5,18 C3.8954305,18 3,17.1045695 3,16 L3,4 Z M5,6 L5,16 L13,16 L13,6 L5,6 Z"/>
    <path fill="#D8D8D8" d="M15,7.5 L15,3 L3,3 L3,7.5 L3,2 C3,1.44771525 3.44771525,1 4,1 L14,1 C14.5522847,1 15,1.44771525 15,2 L15,7.5 Z"/>
    <rect width="4" height="2" x="7" fill="#D8D8D8"/>
    <rect width="1" height="6" x="7" y="8" fill="#D8D8D8"/>
    <rect width="1" height="6" x="10" y="8" fill="#D8D8D8"/>
  </g>
</svg>
