<svg xmlns="http://www.w3.org/2000/svg" width="18" height="18" viewBox="0 0 18 18">
  <g fill="none" fill-rule="evenodd">
    <path fill="#D8D8D8" fill-rule="nonzero" d="M6,3 L6,2 C6,1 7,0 8,0 L11,0 C12,0 13,1 13,2 L13,3 L17,3 L17,4 L2,4 L2,3 L6,3 Z M7,2 L7,3 L12,3 L12,2 C12,1.44771525 11.5522847,1 11,1 L8,1 C7.44771525,1 7,1.44771525 7,2 Z M5,5 L5,15 C5,15.5522847 5.44771525,16 6,16 L13,16 C13.5522847,16 14,15.5522847 14,15 L14,5 L15,5 L15,15 C15,16 14,17 13,17 L6,17 C5,17 4,16 4,15 L4,5 L5,5 Z"/>
    <path fill="#D8D8D8" fill-rule="nonzero" d="M8 7L7 7C6.33333333 8.55555556 6 9.72222222 6 10.5 6 11.2777778 6.33333333 12.4444444 7 14L8 14C7.33333333 12.4444444 7 11.2777778 7 10.5 7 9.72222222 7.33333333 8.55555556 8 7zM10 7L9 7C8.66666667 8.55555556 8.5 9.72222222 8.5 10.5 8.5 11.2777778 8.66666667 12.4444444 9 14L10 14C10.3333333 12.4444444 10.5 11.2777778 10.5 10.5 10.5 9.72222222 10.3333333 8.55555556 10 7zM12 7L11 7C11.6666667 8.55555556 12 9.72222222 12 10.5 12 11.2777778 11.6666667 12.4444444 11 14L12 14C12.6666667 12.4444444 13 11.2777778 13 10.5 13 9.72222222 12.6666667 8.55555556 12 7z"/>
  </g>
</svg>
