<svg xmlns="http://www.w3.org/2000/svg" width="18" height="18" viewBox="0 0 18 18">
  <g fill="none" fill-rule="evenodd">
    <path fill="#D8D8D8" fill-rule="nonzero" d="M15,5 L15,15 C15,16 14,17 13,17 L6,17 C5,17 4,16 4,15 L4,5 L2,5 L2,4 L6,4 L6,3 C6,2 7,1 8,1 L11,1 C12,1 13,2 13,3 L13,4 L17,4 L17,5 L15,5 Z M14,5 L5,5 L5,15 C5,15.5522847 5.44771525,16 6,16 L13,16 C13.5522847,16 14,15.5522847 14,15 L14,5 Z M7,3 L7,4 L12,4 L12,3 C12,2.44771525 11.5522847,2 11,2 L8,2 C7.44771525,2 7,2.44771525 7,3 Z"/>
    <polygon fill="#D8D8D8" fill-rule="nonzero" points="8 7 7 7 7 14 8 14"/>
    <polygon fill="#D8D8D8" fill-rule="nonzero" points="10 7 9 7 9 14 10 14"/>
    <polygon fill="#D8D8D8" fill-rule="nonzero" points="12 7 11 7 11 14 12 14"/>
  </g>
</svg>
