<svg xmlns="http://www.w3.org/2000/svg" xmlns:xlink="http://www.w3.org/1999/xlink" viewBox="0 0 144 144">

<g id="mediaSource-pressed" fill="none" fill-rule="evenodd" stroke="none">
<rect id="background" fill="#5e8b8b" fill-rule="nonzero" x="0" y="0" width="144" height="144"/>
<path fill="#f3f3f3" d="M112,48c0,-4.415 -3.585,-8 -8,-8l-64,0c-4.415,0 -8,3.585 -8,8l0,48c0,4.415 3.585,8 8,8l64,0c4.415,0 8,-3.585 8,-8l0,-48Zm-4,0c0,-2.208 -1.792,-4 -4,-4l-64,0c-2.208,0 -4,1.792 -4,4l0,48c0,2.208 1.792,4 4,4l64,0c2.208,0 4,-1.792 4,-4l0,-48Zm-62,43c0,-0.552 -0.448,-1 -1,-1l-2,0c-0.552,0 -1,0.448 -1,1l0,2c0,0.552 0.448,1 1,1l2,0c0.552,0 1,-0.448 1,-1l0,-2Zm56,0c0,-0.552 -0.448,-1 -1,-1l-2,0c-0.552,0 -1,0.448 -1,1l0,2c0,0.552 0.448,1 1,1l2,0c0.552,0 1,-0.448 1,-1l0,-2Zm-56,-8c0,-0.552 -0.448,-1 -1,-1l-2,0c-0.552,0 -1,0.448 -1,1l0,2c0,0.552 0.448,1 1,1l2,0c0.552,0 1,-0.448 1,-1l0,-2Zm56,0c0,-0.552 -0.448,-1 -1,-1l-2,0c-0.552,0 -1,0.448 -1,1l0,2c0,0.552 0.448,1 1,1l2,0c0.552,0 1,-0.448 1,-1l0,-2Zm-56,-8c0,-0.552 -0.448,-1 -1,-1l-2,0c-0.552,0 -1,0.448 -1,1l0,2c0,0.552 0.448,1 1,1l2,0c0.552,0 1,-0.448 1,-1l0,-2Zm56,0c0,-0.552 -0.448,-1 -1,-1l-2,0c-0.552,0 -1,0.448 -1,1l0,2c0,0.552 0.448,1 1,1l2,0c0.552,0 1,-0.448 1,-1l0,-2Zm-56,-8c0,-0.552 -0.448,-1 -1,-1l-2,0c-0.552,0 -1,0.448 -1,1l0,2c0,0.552 0.448,1 1,1l2,0c0.552,0 1,-0.448 1,-1l0,-2Zm56,0c0,-0.552 -0.448,-1 -1,-1l-2,0c-0.552,0 -1,0.448 -1,1l0,2c0,0.552 0.448,1 1,1l2,0c0.552,0 1,-0.448 1,-1l0,-2Zm-56,-8c0,-0.552 -0.448,-1 -1,-1l-2,0c-0.552,0 -1,0.448 -1,1l0,2c0,0.552 0.448,1 1,1l2,0c0.552,0 1,-0.448 1,-1l0,-2Zm56,0c0,-0.552 -0.448,-1 -1,-1l-2,0c-0.552,0 -1,0.448 -1,1l0,2c0,0.552 0.448,1 1,1l2,0c0.552,0 1,-0.448 1,-1l0,-2Zm-56,-8c0,-0.552 -0.448,-1 -1,-1l-2,0c-0.552,0 -1,0.448 -1,1l0,2c0,0.552 0.448,1 1,1l2,0c0.552,0 1,-0.448 1,-1l0,-2Zm56,0c0,-0.552 -0.448,-1 -1,-1l-2,0c-0.552,0 -1,0.448 -1,1l0,2c0,0.552 0.448,1 1,1l2,0c0.552,0 1,-0.448 1,-1l0,-2Z"/>
<path id="start" fill="#f3f3f3" fill-rule="nonzero" d="M58,70l0,-12l4.102,4.102c2.535,-2.534 6.035,-4.102 9.898,-4.102c7.727,0 14,6.273 14,14c0,7.727 -6.273,14 -14,14c-7.048,0 -12.886,-5.219 -13.858,-12l4.058,0c0.928,4.562 4.966,8 9.8,8c5.519,0 10,-4.481 10,-10c0,-5.519 -4.481,-10 -10,-10c-2.76,-0 -5.26,1.12 -7.07,2.93l5.07,5.07l-12,0Z"/></g></svg>