<svg xmlns="http://www.w3.org/2000/svg" width="56" height="56" viewBox="0 0 56 56"><g id="category-controlcenter" fill="none" fill-rule="evenodd" stroke="none" stroke-width="1"><rect id="Rectangle" width="56" height="56" x="0" y="0" opacity=".4"/><path id="left" fill="#FFFFFF" d="M16,6 C17.1045695,6 18,6.8954305 18,8 L18.0003581,28.2521271 C21.4506308,29.1403373 24,32.2724501 24,36 C24,39.7275499 21.4506308,42.8596627 18.0003581,43.7478729 L18,48 C18,49.1045695 17.1045695,50 16,50 C14.8954305,50 14,49.1045695 14,48 L13.9996419,43.7478729 C10.5493692,42.8596627 8,39.7275499 8,36 C8,32.272811 10.5488756,29.1409437 13.9986398,28.2523852 L14,8 C14,6.8954305 14.8954305,6 16,6 Z M16.2860048,31.0080429 L16,31 L15.6700515,31.0107132 L15.4618095,31.028627 L15.3675324,31.0396205 L15.1282938,31.075724 L14.9259299,31.1156416 L14.7181381,31.1658354 L14.4904734,31.2319038 L14.2760452,31.3051542 L14.2581158,31.3117792 C12.3555197,32.0189587 11,33.8511801 11,36 C11,38.0581873 12.2435853,39.8259197 14.0203539,40.5927953 L14.2761346,40.6948786 C14.3784168,40.7324461 14.482267,40.7667666 14.5875603,40.7977151 C14.6574466,40.8182589 14.7281182,40.8373541 14.7993916,40.8549208 L14.5875603,40.7977151 L14.7180676,40.834146 L14.9261291,40.884402 L15.1281975,40.9242591 L15.3669962,40.9603118 L15.5886808,40.9833242 L15.6700292,40.9892853 C15.7791026,40.9963914 15.8891299,41 16,41 L16.3299485,40.9892868 L16.5379634,40.9713973 L16.6324676,40.9603795 L16.7891139,40.9380825 L17.0690649,40.8854513 L17.1928163,40.8568346 C17.2959859,40.8315833 17.3978991,40.8031303 17.4984446,40.7715871 L17.6986004,40.7040806 L17.8507742,40.6462842 L18.0401787,40.5661897 C19.7845957,39.7855937 21,38.0347333 21,36 C21,33.9652667 19.7845957,32.2144063 18.0401787,31.4338103 L17.6987854,31.2959862 C17.6104342,31.2640737 17.5209264,31.2345795 17.4303419,31.2075835 L17.2954219,31.1694421 L17.1589855,31.1350106 L16.9436928,31.0889262 L16.7890104,31.0619011 L16.5377402,31.0285788 C16.4544234,31.0196699 16.3704945,31.0128075 16.2860048,31.0080429 Z"/><path id="right" fill="#FFFFFF" d="M40,50 C41.1045695,50 42,49.1045695 42,48 L42.0003581,27.7478729 C45.4506308,26.8596627 48,23.7275499 48,20 C48,16.2724501 45.4506308,13.1403373 42.0003581,12.2521271 L42,8 C42,6.8954305 41.1045695,6 40,6 C38.8954305,6 38,6.8954305 38,8 L37.9996419,12.2521271 C34.5493692,13.1403373 32,16.2724501 32,20 C32,23.727189 34.5488756,26.8590563 37.9986398,27.7476148 L38,48 C38,49.1045695 38.8954305,50 40,50 Z M40.2860048,24.9919571 L40,25 L39.6700515,24.9892868 L39.4618095,24.971373 L39.3675324,24.9603795 L39.1282938,24.924276 L38.9259299,24.8843584 L38.7181381,24.8341646 L38.4904734,24.7680962 L38.2760452,24.6948458 L38.2581158,24.6882208 C36.3555197,23.9810413 35,22.1488199 35,20 C35,17.9418127 36.2435853,16.1740803 38.0203539,15.4072047 L38.2761346,15.3051214 C38.3784168,15.2675539 38.482267,15.2332334 38.5875603,15.2022849 C38.6574466,15.1817411 38.7281182,15.1626459 38.7993916,15.1450792 L38.5875603,15.2022849 L38.7180676,15.165854 L38.9261291,15.115598 L39.1281975,15.0757409 L39.3669962,15.0396882 L39.5886808,15.0166758 L39.6700292,15.0107147 C39.7791026,15.0036086 39.8891299,15 40,15 L40.3299485,15.0107132 L40.5379634,15.0286027 L40.6324676,15.0396205 L40.7891139,15.0619175 L41.0690649,15.1145487 L41.1928163,15.1431654 C41.2959859,15.1684167 41.3978991,15.1968697 41.4984446,15.2284129 L41.6986004,15.2959194 L41.8507742,15.3537158 L42.0401787,15.4338103 C43.7845957,16.2144063 45,17.9652667 45,20 C45,22.0347333 43.7845957,23.7855937 42.0401787,24.5661897 L41.6987854,24.7040138 C41.6104342,24.7359263 41.5209264,24.7654205 41.4303419,24.7924165 L41.2954219,24.8305579 L41.1589855,24.8649894 L40.9436928,24.9110738 L40.7890104,24.9380989 L40.5377402,24.9714212 C40.4544234,24.9803301 40.3704945,24.9871925 40.2860048,24.9919571 Z"/></g></svg>