<svg xmlns="http://www.w3.org/2000/svg" xmlns:xlink="http://www.w3.org/1999/xlink" viewBox="0 0 144 144">
<rect id="background" fill="#263838" fill-rule="nonzero" x="0" y="0" width="144" height="144"/>
<path id="icon" fill="#999" fill-rule="evenodd" d="M51,52c0,3.863 -3.137,7 -7,7c-3.863,0 -7,-3.137 -7,-7c0,-3.863 3.137,-7 7,-7c3.863,0 7,3.137 7,7Zm-4,0c0,-1.656 -1.344,-3 -3,-3c-1.656,0 -3,1.344 -3,3c0,1.656 1.344,3 3,3c1.656,0 3,-1.344 3,-3Zm4,20c0,3.863 -3.137,7 -7,7c-3.863,0 -7,-3.137 -7,-7c0,-3.863 3.137,-7 7,-7c3.863,0 7,3.137 7,7Zm-4,0c0,-1.656 -1.344,-3 -3,-3c-1.656,0 -3,1.344 -3,3c0,1.656 1.344,3 3,3c1.656,0 3,-1.344 3,-3Zm4,20c0,3.863 -3.137,7 -7,7c-3.863,0 -7,-3.137 -7,-7c0,-3.863 3.137,-7 7,-7c3.863,0 7,3.137 7,7Zm-4,0c0,-1.656 -1.344,-3 -3,-3c-1.656,0 -3,1.344 -3,3c0,1.656 1.344,3 3,3c1.656,0 3,-1.344 3,-3Zm59,-40c0,2.208 -1.792,4 -4,4l-42,0c-2.208,0 -4,-1.792 -4,-4c0,-2.208 1.792,-4 4,-4l42,0c2.208,0 4,1.792 4,4Zm0,20c0,2.208 -1.792,4 -4,4l-42,0c-2.208,0 -4,-1.792 -4,-4c0,-2.208 1.792,-4 4,-4l42,0c2.208,0 4,1.792 4,4Zm0,20c0,2.208 -1.792,4 -4,4l-42,0c-2.208,0 -4,-1.792 -4,-4c0,-2.208 1.792,-4 4,-4l42,0c2.208,0 4,1.792 4,4Z"/>
</svg>