<svg xmlns="http://www.w3.org/2000/svg" xmlns:xlink="http://www.w3.org/1999/xlink" viewBox="0 0 144 144">

<g id="saveReplayBuffer" fill="none" fill-rule="evenodd" stroke="none">
<rect id="background" fill="#263838" fill-rule="nonzero" x="0" y="0" width="144" height="144"/>
<path fill="#999" fill-rule="nonzero" d="M74,72l-24,14l0,-28l24,14Z" style="fill:#999;"/>
<path fill="#999" fill-rule="nonzero" d="M67.383,96.253l3.03,5.247c-3.817,1.61 -8.012,2.5 -12.413,2.5c-1.476,0 -2.93,-0.1 -4.354,-0.294l1.568,-5.854c0.915,0.098 1.845,0.148 2.786,0.148c3.308,0 6.472,-0.619 9.383,-1.747Zm-24.718,-3.261c1.494,1.094 3.11,2.033 4.821,2.791l-1.568,5.854c-2.719,-1.111 -5.252,-2.585 -7.536,-4.362l4.283,-4.283Zm35.4,-4.464c1.067,1.754 2.322,3.381 3.735,4.854c-1.354,1.506 -2.849,2.883 -4.464,4.11l-3.029,-5.247c1.375,-1.109 2.634,-2.354 3.758,-3.717Zm1.419,-31.167c-4.683,-6.857 -12.562,-11.361 -21.484,-11.361c-12.989,0 -23.767,9.546 -25.694,22l7.694,-0l-11,14l-11,-14l8.248,-0c1.971,-15.776 15.445,-28 31.752,-28c10.488,0 19.805,5.057 25.643,12.864c-1.544,1.342 -2.939,2.85 -4.159,4.497Z"/>
<path fill="#999" fill-rule="nonzero" d="M102,52c12.142,0 22,9.858 22,22c-0,12.142 -9.858,22 -22,22c-12.142,0 -22,-9.858 -22,-22c-0,-12.142 9.858,-22 22,-22Zm10,30l-20,0l0,4l20,0l0,-4Zm-8,-9.515l0,-12.485l-4,-0l0,12.343l-4.172,-4.171l-2.828,2.828l9.071,9.071l9.071,-9.071l-2.828,-2.828l-4.314,4.313Z"/></g></svg>