<?xml version="1.0" encoding="UTF-8"?>
<svg version="1.1" viewBox="0 0 144 144" xmlns="http://www.w3.org/2000/svg"><g><rect width="144" height="144" fill="#5f8c8c"/><path d="m74 72-24 14v-28z" fill="#f2f2f2"/><path d="m67 96 3 5c-4 2-8 2-12 2-1 0-3-0.1-4-0.3l2-6c0.9 0.1 2 0.1 3 0.1 3 0 6-0.6 9-2zm-25-3c1 1 3 2 5 3l-2 6c-3-1-5-3-8-4zm35-4c1 2 2 3 4 5-1 2-3 3-4 4l-3-5c1-1 3-2 4-4zm1-31c-5-7-13-11-21-11-13 0-24 10-26 22h8l-11 14-11-14h8c2-16 15-28 32-28 10 0 20 5 26 13-2 1-3 3-4 4z" fill="#f2f2f2"/><path d="m102 52c12 0 22 10 22 22s-10 22-22 22-22-10-22-22 10-22 22-22zm10 30h-20v4h20zm-8-10v-12h-4v12l-4-4-3 3 9 9 9-9-3-3z" fill="#f2f2f2"/></g></svg>
