<svg xmlns="http://www.w3.org/2000/svg" width="205" height="31" viewBox="0 0 205 31">
  <path fill="#CCC" d="M15.6052445,0.1025641 C18.7681606,0.1025641 21.810981,1.04290219 24.4031454,2.81975182 C26.9358564,4.55648665 28.8740343,6.9692738 30.0095926,9.7961873 C30.1546587,10.1584004 30.2878341,10.531232 30.4055516,10.9052435 L30.4055516,10.9052435 L27.6492961,12.4897781 C27.5541708,12.1145867 27.4400205,11.7405752 27.3092232,11.3760025 C25.5529724,6.4642993 20.8490265,3.16426715 15.6052445,3.16426715 C8.7574121,3.16426715 3.18663693,8.6930303 3.18663693,15.4877694 C3.18663693,22.2825085 8.7574121,27.8100918 15.6052445,27.8100918 C18.2651856,27.8100918 20.803842,26.9830191 22.9453502,25.4197217 C25.0440521,23.8871004 26.5827038,21.7869727 27.396025,19.3470491 L27.396025,19.3470491 L27.4055376,19.2927761 L12.3555265,10.7483239 L12.3555265,20.0124828 L17.5434224,17.0451675 L20.2152542,18.5612709 L12.4375721,23.0081144 L9.6872619,21.453076 L9.6872619,9.3254284 L12.4328158,7.755052 L17.9203564,10.8674884 L17.9536502,10.8922652 L30.8585859,18.221475 C30.2248136,21.7197214 28.3674921,24.9171069 25.6207492,27.2284272 C22.8288217,29.5775027 19.2711356,30.8717949 15.6052445,30.8717949 C11.4637268,30.8717949 7.5707241,29.2719223 4.64205397,26.3659591 C1.71338389,23.4599958 0.1010101,19.5959968 0.1010101,15.4877694 C0.1010101,11.3783622 1.71338389,7.5143632 4.64205397,4.60839992 C7.5707241,1.70243668 11.4637268,0.1025641 15.6052445,0.1025641 Z M48.7505034,5.83036467 C52.9078138,5.83036467 54.9735077,7.66831339 54.6899811,11.8738974 L50.5326707,11.8738974 C50.5326707,10.369396 50.2783068,8.83777208 48.5528448,8.83777208 C47.1659946,8.83777208 46.3461976,9.58922507 46.3461976,10.9820456 C46.3461976,14.7983419 54.944345,14.4632992 54.944345,20.7860342 C54.944345,25.9935556 51.0689411,26.6062051 47.8172957,26.6062051 C42.527499,26.6062051 41.5392062,23.5413618 41.7644074,20.0601083 L46.0351284,20.0601083 C46.0351284,21.9842108 46.1209965,23.5972023 48.4669768,23.5972023 C49.9105323,23.5972023 50.6169186,22.6782279 50.6169186,21.3157208 C50.6169186,17.6940684 42.0187712,17.4707066 42.0187712,11.4830143 C42.0187712,8.33520798 43.5465747,5.83036467 48.7505034,5.83036467 Z M182.077683,5.83004558 C186.432652,5.83004558 188.185657,8.19768091 188.017161,12.5133504 L183.830688,12.5133504 C183.830688,9.83939031 183.349503,8.83745299 182.077683,8.83745299 C179.725645,8.83745299 179.376822,10.9704325 179.362767,15.8861234 L179.362308,16.2179658 C179.362308,21.3696467 179.673378,23.5968832 182.077683,23.5968832 C184.057509,23.5968832 183.973261,21.0920399 184.028347,19.5045755 L188.242362,19.5045755 C188.242362,24.8796182 186.064878,26.605886 182.077683,26.605886 C175.350231,26.605886 175.049002,21.929969 175.035514,16.9237021 L175.035069,15.7424171 C175.041158,10.6006701 175.245115,5.83004558 182.077683,5.83004558 Z M109.221224,6.1642906 L114.765384,26.271641 L110.267842,26.271641 L109.136976,21.8155726 L103.309289,21.8155726 L102.15088,26.271641 L97.9368642,26.271641 L103.592815,6.1642906 L109.221224,6.1642906 Z M78.5125362,6.16109972 C81.4255697,6.16109972 83.5593101,8.00064387 83.5593101,11.426057 C83.5593101,13.9883362 82.6293427,15.9108433 79.8572624,16.3559715 L79.9463708,16.411812 C80.8795784,16.5218974 83.4151165,16.8122678 83.6516587,20.3669117 C83.6565192,20.4498746 84.1312238,26.271641 84.1312238,26.271641 L80.0403396,26.271641 C79.9350297,24.8277664 79.6239605,21.2428091 79.575356,20.7354587 C79.4133407,19.0905584 78.9337757,17.9434359 76.4387414,17.9434359 L75.3354178,17.9434359 L75.3354178,26.271641 L71.0646968,26.271641 L71.0646968,6.16109972 L78.5125362,6.16109972 Z M153.557173,6.16301425 C159.156419,6.16301425 160.203037,9.84050712 160.203037,16.1058063 C160.203037,19.1977721 160.684222,26.2703647 153.387057,26.2703647 L146.430124,26.2703647 L146.430124,6.16301425 L153.557173,6.16301425 Z M69.411,6.13 L69.411,9.53 L64.711,9.53 L64.711,26.23 L60.411,26.23 L60.411,9.53 L55.711,9.53 L55.711,6.13 L69.411,6.13 Z M96.811,6.13 L96.811,9.23 L89.911,9.23 L89.911,14.23 L96.211,14.23 L96.211,17.33 L89.911,17.33 L89.911,23.23 L97.011,23.23 L97.011,26.23 L85.611,26.23 L85.611,6.13 L96.811,6.13 Z M123.011,6.13 L126.211,19.83 L129.611,6.13 L136.311,6.13 L136.311,26.23 L132.111,26.23 L132.111,10.73 L128.111,26.23 L124.111,26.23 L120.311,10.73 L120.311,26.23 L116.111,26.23 L116.111,6.13 L123.011,6.13 Z M173.311,6.13 L173.311,9.23 L166.511,9.23 L166.511,14.23 L172.811,14.23 L172.811,17.33 L166.511,17.33 L166.511,23.23 L173.611,23.23 L173.611,26.23 L162.211,26.23 L162.211,6.13 L173.311,6.13 Z M194.411,6.13 L194.411,14.73 L194.511,14.73 L199.511,6.13 L204.211,6.13 L198.411,15.23 L204.211,26.23 L199.411,26.23 L194.511,15.93 L194.411,15.93 L194.411,26.23 L190.111,26.23 L190.111,6.13 L194.411,6.13 Z M152.907492,9.25498006 L150.700845,9.25498006 L150.700845,23.1799943 L152.764919,23.1799943 C155.366883,23.1799943 155.875611,21.2590826 155.875611,16.2174872 L155.875367,15.7370409 C155.87,12.2357354 155.746562,9.25498006 152.907492,9.25498006 Z M106.167237,10.0348319 L106.108912,10.0348319 L104.158248,18.7236068 L108.231311,18.7236068 L106.167237,10.0348319 Z M77.2293757,9.25306553 L75.3354178,9.25306553 L75.3354178,14.8514701 L77.2293757,14.8514701 C78.9272951,14.8514701 79.4084803,13.1810427 79.4084803,11.8983077 C79.4084803,9.97739601 78.5886833,9.25306553 77.2293757,9.25306553 Z"/>
</svg>
