
<svg width="19px" height="42px" translatex="[0, 0, 22, 44, 56, 78, 98, 110, 132, 156]" viewBox="0 0 19 42" version="1.1" xmlns="http://www.w3.org/2000/svg" xmlns:xlink="http://www.w3.org/1999/xlink">
    <path d="M16.24,2.48 L16.184,37.48 L13.384,39.776 L4.536,39.776 L2.8,38.32 L2.8,1.08 L5.04,0.016 L15.232,0.016 L16.24,2.48 Z M12.208,3.096 C12.1333333,3.096 12.0773333,3.07733333 12.04,3.04 L7.504,3.04 C6.90666667,3.04 6.608,3.152 6.608,3.376 L6.608,30.2 L12.208,3.096 Z M11.872,35.912 C12.096,35.912 12.292,35.8373333 12.46,35.688 C12.628,35.5386667 12.712,35.3893333 12.712,35.24 L12.712,5.728 L6.944,35.8 C7.09333333,35.8746667 7.224,35.912 7.336,35.912 L11.872,35.912 Z" id="0"></path>
    <polygon id="1" points="1.968 36.808 8.296 36.584 9.36 4.664 2.36 5.168 1.8 2.032 13.616 0.016 12.832 36.416 18.096 36.248 17.872 39.832 2.248 39.832"></polygon>
    <polygon id="2" points="11.152 36.248 16.696 34.176 16.08 39.776 2.64 39.776 1.8 35.016 12.16 16.872 12.16 3.6 7.064 4.104 6.056 4.944 5.776 13.288 2.36 13.288 2.36 2.704 6.056 0.016 16.528 0.016 16.528 18.44 5.664 36.192"></polygon>
    <path d="M14.448,16.872 L16.464,19.952 L16.464,36.864 L13.832,39.776 L2.856,39.776 L2.856,28.688 L5.488,28.688 L5.992,35.408 C5.992,35.632 6.29066667,35.744 6.888,35.744 L11.704,36.416 C11.7413333,36.4533333 11.8346667,36.472 11.984,36.472 C12.3573333,36.472 12.544,36.2853333 12.544,35.912 L11.928,19.056 L5.712,18.944 L5.712,15.864 L12.32,14.128 L12.712,3.432 L2.8,3.824 L2.8,1.64 L5.376,0.016 L16.632,0.016 L16.632,13.512 L16.296,14.856 L14.448,16.872 Z" id="3"></path>
    <path d="M12.824,39.776 L13.216,28.576 L3.584,28.576 L2.8,26.224 L11.256,0.016 L17.024,0.016 L17.024,39.776 L12.824,39.776 Z M12.6,24.88 L13.72,2.928 L13.44,2.928 L7.112,25.496 L12.6,24.88 Z" id="4"></path>
    <path d="M5.552,12.728 L6.056,16.592 L14.736,15.472 L16.248,39.776 L1.8,39.776 L1.8,28.8 L4.712,28.8 L5.944,35.24 L10.872,36.696 C11.096,36.696 11.292,36.5933333 11.46,36.388 C11.628,36.1826667 11.712,35.968 11.712,35.744 L10.872,20.176 C10.872,19.952 10.648,19.84 10.2,19.84 L4.152,19.84 L1.8,15.92 L1.8,1.752 L4.152,0.016 L14.568,0.016 L13.728,3.432 L5.552,4.552 L5.552,12.728 Z" id="5"></path>
    <path d="M16.36,19.504 L15.24,39.776 L1.8,39.776 L3.088,0.016 L15.8,0.576 L15.8,5.336 L7.904,3.768 L6.56,5.056 L6.56,17.432 L11.656,17.432 L16.36,19.504 Z M11.656,21.464 L6.56,20.288 L6.56,36.416 L11.656,35.296 L11.656,21.464 Z" id="6"></path>
    <polygon id="7" points="5.224 40 10.488 19.84 2.704 19.56 2.704 16.088 11.16 16.032 13.232 4.384 0.8 4.832 1.36 0.016 18.44 0.52 14.912 16.032 16.872 16.032 16.872 19.84 14.072 19.84 9.2 41.064"></polygon>
    <path d="M3.088,39.776 L1.8,36.192 L3.088,23.368 L6.224,20.232 L3.48,17.88 L3.368,2.088 L7.792,0.016 L16.36,0.744 L15.408,18.776 L12.608,20.12 L16.248,22.248 L15.744,36.808 L14.176,39.776 L3.088,39.776 Z M7.232,17.376 L11.656,18.72 L12.608,3.488 L7.456,3.544 L7.232,17.376 Z M12.16,36.584 L12.664,23.424 L7.736,21.744 L6.112,36.584 L12.16,36.584 Z" id="8"></path>
    <path d="M2.8,21.688 L2.8,0.016 L16.8,0.016 L15.12,39.776 L3.472,39.776 L2.856,35.296 L10.136,36.752 L11.48,35.24 L11.48,23.592 L8.064,23.592 L2.8,21.688 Z M6.384,19 L12.04,20.176 L12.6,3.936 L6.384,3.376 L6.384,19 Z" id="9"></path>
    <path transform="translate(-2,-4)" d="M12.176,18.392 L7.024,18.392 L6.8,13.016 L12.176,13.24 L12.176,18.392 Z M6.8,35.304 L12.176,35.08 L11.952,40.456 L6.8,40.456 L6.8,35.304 Z" id="10"></path>
</svg>
