<svg xmlns="http://www.w3.org/2000/svg"  translatex="[0, 0, 22, 44, 56, 78, 98, 110, 132, 156]" width="22" height="50" viewBox="0 0 22 50">
    <g id="bayon" fill="none" fill-rule="evenodd" stroke="none" stroke-width="1">
        <path id="0" fill-rule="nonzero" d="M2.00027552,32.6450241 L2.03927552,19.9690241 C2.03121376,19.0052521 2.20596682,18.0486912 2.55427552,17.1500241 C2.71699013,16.7374055 2.91751043,16.3407168 3.15327552,15.9650241 C3.88194218,14.7670241 4.89727552,13.8066908 6.19927552,13.0840241 C7.20415021,12.5331729 8.30859834,12.1877992 9.44827552,12.0680241 C9.8546606,12.0222207 10.2633176,11.9995175 10.6722755,12.0000078 C12.3909422,12.0000078 13.8882755,12.3583574 15.1642755,13.0750241 C16.4402755,13.7910241 17.4462755,14.7513574 18.1822755,15.9560241 C18.9186964,17.1639154 19.300889,18.5544311 19.2852755,19.9690241 L19.3242755,32.6450241 C19.3342262,34.0546962 18.9560902,35.4399261 18.2312755,36.6490241 C17.4859643,37.8761611 16.4319144,38.8864216 15.1742755,39.5790241 C13.8789422,40.3076908 12.3782755,40.6724397 10.6722755,40.6724397 C9.81662452,40.6776256 8.9637499,40.5741247 8.13427552,40.3640241 C7.44574279,40.1868383 6.78245371,39.9230683 6.16027552,39.5790241 C4.85827552,38.8496908 3.83960885,37.8763575 3.10427552,36.6590241 C2.37053411,35.4495619 1.98824321,34.059602 2.00027552,32.6450241 L2.00027552,32.6450241 Z M14.4812755,32.6450241 L14.4422755,19.9690241 C14.4472723,19.5635625 14.3718171,19.1611348 14.2202755,18.7850241 C14.0395287,18.3565748 13.7570365,17.9786599 13.3972755,17.6840241 C12.9384064,17.3034942 12.3931014,17.0414867 11.8092755,16.9210241 C11.4355916,16.841316 11.054357,16.8024213 10.6722755,16.8047901 C10.2869943,16.8025225 9.90252695,16.8407346 9.52527552,16.9190241 C9.01394218,17.0283574 8.56460885,17.2173574 8.17727552,17.4860241 C8.08774042,17.5477272 8.00130215,17.6138074 7.91827552,17.6840241 C7.29799946,18.194349 6.92419005,18.9445132 6.89027552,19.7470241 C6.88569498,19.8209362 6.88336057,19.8949703 6.88327552,19.9690241 L6.88327552,32.6450241 C6.87938451,33.004023 6.9320288,33.3613968 7.03927552,33.7040241 C7.20186175,34.2083398 7.50718904,34.6546942 7.91827552,34.9890241 C8.33442342,35.32867 8.82187002,35.5700005 9.34427552,35.6950241 C9.74627552,35.7970241 10.1889422,35.8483212 10.6722755,35.8483212 C11.0781538,35.8511185 11.4830739,35.8081775 11.8792755,35.7200241 C12.4408752,35.5974127 12.9667589,35.3473014 13.4162755,34.9890241 C14.1262755,34.4156908 14.4812755,33.6343575 14.4812755,32.6450241 Z"/>
        <path id="1" fill-rule="nonzero" d="M18.7270081,39.8321839 L14.1960081,39.8321839 C14.1696679,39.8324795 14.1434108,39.8291133 14.1180081,39.8221403 C14.0606747,39.8054737 14.0243414,39.767807 14.0090081,39.7091403 C14.0029004,39.6852917 13.9998757,39.6607583 14,39.6361403 L14.0390081,12.1561404 C14.0387768,12.1352021 14.0414694,12.1143341 14.0470081,12.0941404 C14.0603414,12.0481404 14.0906747,12.018807 14.1380081,12.0061404 C14.1570086,12.0016878 14.1764985,11.9996716 14.1960081,12 L18.6880081,12 C18.7088995,11.999583 18.7297668,12.0019389 18.7500081,12.0071404 C18.7960081,12.0204737 18.8250081,12.050807 18.8370081,12.0981404 C18.8417973,12.1170975 18.8441496,12.1365881 18.8440081,12.1561404 L18.8830081,39.6361403 C18.8834411,39.6602813 18.8814309,39.6844041 18.8770081,39.7081403 C18.8616747,39.7814737 18.8206747,39.8221403 18.7540081,39.8301403 C18.7450579,39.8313632 18.7360407,39.8321839 18.7270081,39.8321839 L18.7270081,39.8321839 Z"/>
        <path id="2" fill-rule="nonzero" d="M19.273501,40.2823375 L4.35150097,40.2823375 C4.32549522,40.2823375 4.29958122,40.2792054 4.27450097,40.2723249 C4.21650097,40.2556583 4.17983431,40.2179916 4.16450097,40.1593249 C4.15873015,40.1354327 4.15604163,40.1109 4.15650097,40.0863249 L4.15650097,35.5553249 C4.15650097,35.5119916 4.17450097,35.4689916 4.21050097,35.4263249 C4.21807854,35.4169581 4.22608717,35.4079484 4.23450097,35.3993249 L14.117501,21.8443249 C14.206858,21.7216461 14.2854819,21.5914984 14.352501,21.4553249 C14.4358343,21.2886583 14.510501,21.1026583 14.576501,20.8973249 C14.6711676,20.6033249 14.729501,20.3379916 14.751501,20.1013249 C14.758109,20.0315193 14.761446,19.9614426 14.761501,19.8913249 C14.760496,19.2078724 14.5368817,18.5433483 14.124501,17.9983249 C14.0605693,17.9106848 13.9931829,17.8256178 13.922501,17.7433249 C13.6427731,17.4087416 13.2877398,17.1452082 12.886501,16.9743249 C12.5396115,16.833042 12.168037,16.7623307 11.793501,16.7663249 C10.9728343,16.7663249 10.2761676,17.0789916 9.70350097,17.7043249 C9.13083431,18.3289916 8.84450097,19.1229916 8.84450097,20.0863249 L8.84450097,22.0403249 C8.84474693,22.0663307 8.84138147,22.0922447 8.83450097,22.1173249 C8.81783431,22.1753249 8.78016764,22.2119916 8.72150097,22.2273249 C8.69760872,22.2330958 8.67307599,22.2357843 8.64850097,22.2353249 L4.15650097,22.2353249 C4.05250097,22.2353249 4.00050097,22.1703249 4.00050097,22.0403249 L4.00050097,20.0863249 C3.9841233,18.64856 4.36960181,17.2347924 5.11350097,16.0043249 C5.81463255,14.8088001 6.80101157,13.8055863 7.98450097,13.0843249 C9.12763961,12.3735066 10.447387,11.9979208 11.793501,12.0003249 C13.1791719,11.9872919 14.5402559,12.3665649 15.719501,13.0943249 C16.8795614,13.824425 17.847356,14.8223989 18.541501,16.0043249 C19.2444778,17.1785141 19.6124544,18.5228045 19.6056918,19.8913249 C19.6027608,20.6140811 19.5028661,21.3331884 19.308501,22.0293249 C19.2596682,22.206869 19.205645,22.3829445 19.146501,22.5573249 C18.9285617,23.2121648 18.633133,23.8386081 18.266501,24.4233249 C18.1476533,24.6106439 18.0208715,24.7928094 17.886501,24.9693249 L10.289501,35.3993249 L19.273501,35.3993249 C19.2960312,35.3990293 19.3185184,35.4013787 19.340501,35.4063249 C19.3998343,35.4203249 19.4348343,35.4563249 19.445501,35.5143249 C19.4480852,35.5278405 19.4494242,35.5415647 19.449501,35.5553249 L19.449501,40.0863249 C19.449501,40.2169916 19.3908343,40.2823375 19.273501,40.2823375 Z"/>
        <path id="3" fill-rule="nonzero" d="M4.00024685,32.6454873 L4.00024685,30.8484873 C4.00029002,30.8226638 4.0026326,30.7968954 4.00724685,30.7714873 C4.02324685,30.6828207 4.07024685,30.6368207 4.14824685,30.6334873 C4.15124653,30.6334254 4.15424717,30.6334254 4.15724685,30.6334873 L8.64924685,30.6334873 C8.67638454,30.6331706 8.70339641,30.6372224 8.72924685,30.6454873 C8.80591352,30.6714873 8.84424685,30.739154 8.84424685,30.8484873 L8.84424685,32.6454873 C8.82889315,33.4766525 9.12904124,34.2827645 9.68424685,34.9014873 C10.173615,35.4759954 10.8820248,35.8182241 11.6362468,35.8444873 C11.688541,35.8470663 11.7408892,35.8484001 11.7932468,35.8484873 C12.1217718,35.8518176 12.4488779,35.8049437 12.7632468,35.7094873 C13.2511893,35.5575916 13.6821825,35.2624814 14.0002468,34.8624873 C14.5210036,34.2414541 14.8048038,33.4559546 14.8012468,32.6454873 L14.8012468,31.5714873 C14.8071796,30.7552453 14.5313272,29.9619489 14.0202468,29.3254873 C13.8258837,29.0716203 13.5886481,28.8536748 13.3192468,28.6814873 C12.937577,28.4450551 12.4961664,28.3229038 12.0472468,28.3294873 L10.4852468,28.3294873 C10.4577744,28.3299122 10.4304161,28.3258591 10.4042468,28.3174873 C10.3275802,28.2914873 10.2892468,28.2238207 10.2892468,28.1144873 L10.3282468,23.6414873 C10.3280155,23.6205491 10.3307082,23.5996811 10.3362468,23.5794873 C10.3495802,23.5334873 10.3799135,23.5044873 10.4272468,23.4924873 C10.446204,23.4876981 10.4656946,23.4853458 10.4852468,23.4854873 L12.0472468,23.4854873 C12.7632468,23.4854873 13.4012468,23.2054873 13.9612468,22.6454873 C14.4008634,22.203984 14.6821328,21.6294913 14.7612468,21.0114873 C14.7884893,20.8217134 14.8018581,20.6302057 14.8012468,20.4384873 L14.8012468,19.8914873 C14.8012468,19.032154 14.5149135,18.303154 13.9422468,17.7044873 C13.4062472,17.1321864 12.6573537,16.8071471 11.8732468,16.8064873 C11.8465846,16.8058612 11.8199164,16.8055278 11.7932468,16.8054873 C11.0276625,16.7937064 10.2912315,17.0987734 9.75824685,17.6484873 C9.73970034,17.6669434 9.7213658,17.6856113 9.70324685,17.7044873 C9.13058018,18.303154 8.84424685,19.032154 8.84424685,19.8914873 L8.84424685,21.8054873 C8.84461289,21.8292946 8.84260293,21.8530791 8.83824685,21.8764873 C8.82291352,21.9498207 8.78191352,21.9908207 8.71524685,21.9994873 C8.70627601,22.0003761 8.69725885,22.00071 8.68824685,22.0004873 L4.19624685,22.0004873 C4.09158018,22.0004873 4.03924685,21.9354873 4.03924685,21.8054873 L4.03924685,19.6764873 C4.03183556,18.7963616 4.18291105,17.9220884 4.48524685,17.0954873 C4.65889136,16.630766 4.88289252,16.1864523 5.15324685,15.7704873 C5.88191352,14.6244873 6.83891352,13.7098207 8.02424685,13.0264873 C9.20891352,12.3424873 10.4652468,12.0004873 11.7932468,12.0004873 C13.1802978,11.9847665 14.5451082,12.3496613 15.7392468,13.0554873 C16.9239135,13.7714873 17.8645802,14.7154873 18.5612468,15.8874873 C19.2571262,17.0564709 19.6186044,18.3941132 19.6062468,19.7544873 L19.6062468,20.3994873 C19.6084929,20.8837382 19.5710341,21.367358 19.4942468,21.8454873 C19.4042468,22.390154 19.2595802,22.890154 19.0602468,23.3454873 C19.0471905,23.3759417 19.0338566,23.4062763 19.0202468,23.4364873 C18.6295802,24.289154 18.0892468,25.106154 17.3992468,25.8874873 C18.0892468,26.682154 18.6359135,27.5544873 19.0392468,28.5044873 C19.4432468,29.455154 19.6452468,30.4318207 19.6452468,31.4344873 L19.6452468,32.6454873 C19.6592661,34.0753276 19.2953219,35.4834983 18.5902468,36.7274873 C17.900239,37.9248202 16.9197399,38.9290494 15.7392468,39.6474873 C14.5513316,40.3711077 13.1841235,40.7466915 11.7932468,40.7314873 C10.4185532,40.7366755 9.07075418,40.3506487 7.90724685,39.6184873 C6.72191352,38.889154 5.77458018,37.909154 5.06524685,36.6784873 C4.35679781,35.4532439 3.98908263,34.06076 4.00024685,32.6454873 L4.00024685,32.6454873 Z"/>
        <path id="4" fill-rule="nonzero" d="M16.476,39.832071 L11.965,39.832071 C11.8603333,39.832071 11.808,39.7667377 11.808,39.636071 L11.808,34.949071 L3.156,34.949071 C3.052,34.949071 3,34.884071 3,34.754071 L3,30.359071 L11.711,12.156071 C11.7296103,12.1258961 11.7521401,12.0983224 11.778,12.074071 C11.8282476,12.0258833 11.8953846,11.9993157 11.965,12 L16.476,12 C16.4946003,11.9996062 16.5130637,12.0033672 16.53,12.011071 C16.5646667,12.0277377 16.5853333,12.0634043 16.592,12.118071 C16.5933714,12.1306907 16.5940391,12.143377 16.594,12.156071 L16.633,30.183071 L19.445,30.183071 C19.4724725,30.1826462 19.4998307,30.1866992 19.526,30.195071 C19.602,30.221071 19.640076,30.2887377 19.640076,30.398071 L19.640076,34.754071 C19.640366,34.7778783 19.6383561,34.8016627 19.634,34.825071 C19.6193333,34.8984043 19.5783333,34.939071 19.511,34.947071 C19.5020499,34.9482939 19.4930326,34.9489618 19.484,34.949071 L16.633,34.949071 L16.633,39.636071 C16.6331037,39.6602458 16.6307584,39.6843689 16.626,39.708071 C16.6113333,39.7814043 16.5703333,39.822071 16.503,39.830071 C16.4940499,39.8312939 16.4850326,39.832071 16.476,39.832071 Z M7.726,30.183071 L11.808,30.183071 L11.808,21.472071 L7.726,30.183071 Z"/>
        <path id="5" fill-rule="nonzero" d="M4,32.4291165 L4,31.2381165 C4,31.2133448 4.00360583,31.1886825 4.01124889,31.1651165 C4.03458222,31.0964499 4.09624889,31.0621165 4.19624889,31.0621165 L8.72724889,31.0621165 C8.82791555,31.0621165 8.87991555,31.1174499 8.88324889,31.2281165 C8.88329298,31.2314497 8.88329298,31.2347834 8.88324889,31.2381165 L8.88324889,32.1561165 C8.87875764,32.5866754 8.95577918,33.0141959 9.11024889,33.4161165 C9.25989034,33.7934345 9.48131466,34.1381364 9.76224889,34.4311165 C10.0303809,34.7211838 10.3532445,34.9553449 10.7122489,35.1201165 C11.0771711,35.2813569 11.4723093,35.3628392 11.8712489,35.3591165 C12.7045822,35.3591165 13.4079156,35.0434499 13.9812489,34.4121165 C14.5539156,33.7807832 14.8402489,33.0287832 14.8402489,32.1561165 L14.8402489,29.4411165 C14.8456744,29.017465 14.7565083,28.5979401 14.5792489,28.2131165 C14.4239538,27.8877153 14.2077182,27.5951013 13.9422489,27.3511165 C13.3926267,26.8362743 12.6740013,26.5397213 11.9212489,26.5171165 C11.8526443,26.5133682 11.7839554,26.5113676 11.7152489,26.5111165 C10.7242499,26.4919534 9.7726971,26.8990855 9.10224889,27.6291165 C9.02614191,27.7096761 8.95309033,27.7930684 8.88324889,27.8791165 L8.80524889,27.9961165 L4.52824889,27.6641165 C4.50031849,27.6645174 4.47244419,27.6614949 4.44524889,27.6551165 C4.35724889,27.6331165 4.31324889,27.5707832 4.31324889,27.4681165 L4.80124889,16.5111165 L5.03524889,12.1561165 C5.03501756,12.1351783 5.03771021,12.1143103 5.04324889,12.0941165 C5.05658222,12.0481165 5.08691555,12.0187832 5.13424889,12.0061165 C5.15324938,12.001664 5.1727393,11.9996478 5.19224889,12 L18.6492489,12 C18.6698066,11.9996515 18.690331,12.0020068 18.7102489,12.0071165 C18.7569156,12.0204499 18.7862489,12.0507832 18.7982489,12.0981165 C18.8030381,12.1170737 18.8053904,12.1365643 18.8052489,12.1561165 L18.8052489,16.5111165 C18.8053526,16.5352913 18.8030073,16.5594145 18.7982489,16.5831165 C18.7835822,16.6564499 18.7429156,16.6971165 18.6762489,16.7051165 C18.6672988,16.7063394 18.6582815,16.7070074 18.6492489,16.7071165 L9.27424889,16.7071165 L9.07824889,22.2341165 C9.31491555,22.1207832 9.60324889,22.0194499 9.94324889,21.9301165 C10.0774599,21.894875 10.2124989,21.8628657 10.3482489,21.8341165 C10.5646615,21.7875136 10.7828319,21.7494839 11.0022489,21.7201165 C11.2189156,21.6921165 11.4252489,21.6754499 11.6212489,21.6701165 C11.6655711,21.6688477 11.7099085,21.6681809 11.7542489,21.6681165 C13.152768,21.6555894 14.5288865,22.0196529 15.7382489,22.7221165 C16.9495822,23.4387832 17.9165822,24.3827832 18.6392489,25.5541165 C19.360642,26.7213119 19.7364958,28.069046 19.7232489,29.4411165 L19.7232489,32.1561165 C19.7321698,33.5666458 19.368219,34.9544883 18.6682489,36.1791165 C17.9753232,37.379546 16.9958177,38.3896288 15.8172489,39.1191165 C14.6335031,39.8543989 13.2646879,40.237015 11.8712489,40.2221165 C10.4947658,40.2338688 9.14221823,39.8619701 7.96524889,39.1481165 C6.76724889,38.4321165 5.80691555,37.4817832 5.08424889,36.2971165 C4.36780395,35.1347441 3.99220977,33.7945243 4,32.4291165 Z"/>
        <path id="6" fill-rule="nonzero" d="M4.03918334,32.723717 L4.00018334,20.0867169 C3.9904468,18.6646457 4.36868091,17.266839 5.09418334,16.0437169 C5.80024475,14.8435903 6.78936634,13.8345558 7.97518334,13.1047169 C9.14324198,12.3755197 10.494221,11.9926961 11.8711833,12.0002288 C13.2629243,11.9893258 14.6299851,12.3683336 15.8171833,13.0947169 C16.9895121,13.8243947 17.9650031,14.8304449 18.6581833,16.0247169 C19.3279465,17.1749098 19.6931333,18.476985 19.7191833,19.8077169 C19.7219097,19.9006918 19.7231853,19.9937022 19.7231853,20.0867169 L19.7231853,20.8877169 C19.7231853,20.9917169 19.6581833,21.0437169 19.5281833,21.0437169 L15.0351833,21.0437169 C15.0146257,21.044182 14.9941013,21.0418267 14.9741833,21.0367169 C14.9275167,21.0233836 14.8981833,20.9930503 14.8861833,20.9457169 C14.8813941,20.9267598 14.8790418,20.9072692 14.8791833,20.8877169 L14.8791833,20.0867169 C14.8791833,19.2013836 14.59285,18.4463836 14.0201833,17.8217169 C13.44685,17.1963836 12.7305167,16.8837169 11.8711833,16.8837169 C11.1072781,16.8762995 10.3741994,17.1845834 9.84518334,17.7357169 C9.81704163,17.7639213 9.78937114,17.7925919 9.76218334,17.8217169 C9.17618334,18.4463836 8.88318334,19.2013836 8.88318334,20.0867169 L8.88318334,22.840717 C9.82051668,22.4373836 10.8165167,22.235717 11.8711833,22.235717 C13.2607448,22.220219 14.6271515,22.5921199 15.8171833,23.309717 C17.00185,24.025717 17.9425167,24.9923836 18.6391833,26.209717 C19.3387922,27.4380403 19.6994314,28.8302113 19.6841833,30.243717 L19.6841833,32.723717 C19.6965869,34.1226674 19.3321701,35.499161 18.6291833,36.708717 C17.9131833,37.9193836 16.9691833,38.882717 15.7971833,39.598717 C14.6251833,40.314717 13.3165167,40.6728546 11.8711833,40.6728546 C10.4991611,40.6786898 9.15292352,40.3000388 7.98518334,39.579717 C6.79985001,38.8503836 5.84585001,37.886717 5.12318334,36.688717 C4.40112299,35.4931591 4.02580449,34.1203382 4.03918334,32.723717 Z M14.8401833,32.723717 L14.8401833,30.243717 C14.8401833,29.3843836 14.55385,28.6420503 13.9811833,28.016717 C13.7022756,27.7048973 13.3585906,27.457799 12.9741833,27.292717 C12.6245303,27.1484361 12.2494166,27.075998 11.8711833,27.079717 C11.0511833,27.079717 10.3481833,27.385717 9.76218334,27.997717 C9.17618334,28.609717 8.88318334,29.3583836 8.88318334,30.243717 L8.88318334,32.723717 C8.88318334,33.5703836 9.17618334,34.3093836 9.76218334,34.940717 C10.016623,35.221419 10.3215917,35.4517568 10.6611833,35.619717 C11.038813,35.800122 11.4526937,35.8917915 11.8711833,35.887717 C12.6332143,35.900988 13.3669536,35.5992431 13.8991833,35.053717 C13.9269996,35.0261925 13.954337,34.9981883 13.9811833,34.969717 C14.5378773,34.3793705 14.8455449,33.5971283 14.8401833,32.785717 C14.840272,32.7650506 14.840272,32.7443833 14.8401833,32.723717 L14.8401833,32.723717 Z"/>
        <path id="7" fill-rule="nonzero" d="M11.8711165,39.8320926 L6.92911654,39.8320926 C6.91402136,39.8320926 6.89894803,39.8308801 6.88411654,39.8280668 C6.80478321,39.8114002 6.78744987,39.7474002 6.83211654,39.6360668 L15.0741165,16.7070668 L4.15611654,16.7070668 C4.1351783,16.7072981 4.11431026,16.7046055 4.09411654,16.6990668 C4.04811654,16.6857335 4.01878321,16.6554002 4.00611654,16.6080668 C4.00166402,16.5890663 3.99964783,16.5695764 4,16.5500668 L4,12.1950668 C3.99975051,12.1712595 4.00176046,12.1474751 4.00611654,12.1240668 C4.02144987,12.0507335 4.06244987,12.0097335 4.12911654,12.0010668 C4.13808738,12 4.14710454,12 4.15611654,12 L19.6441165,12 C19.7487832,12 19.8011165,12.0650668 19.8011165,12.1950668 L19.8011165,16.6680668 L12.1251165,39.6360668 C12.0737832,39.7634002 11.9917832,39.8287335 11.8791165,39.8320926 C11.87645,39.8320926 11.8737831,39.8320926 11.8711165,39.8320926 Z"/>
        <path id="8" fill-rule="nonzero" d="M4.00034559,32.7237906 L4.00034559,30.2437906 C3.99261004,29.1618441 4.21235987,28.0903508 4.64534559,27.0987906 C5.07467892,26.122124 5.64767892,25.2627906 6.36434559,24.5207906 C5.77834559,23.8827906 5.31934559,23.1307906 4.98734559,22.2647906 C4.65534559,21.3987906 4.48934559,20.4711239 4.48934559,19.4817906 C4.4786974,18.1552898 4.81516371,16.8490697 5.46534559,15.6927906 C6.09937242,14.5773489 7.01526388,13.6480087 8.12134559,12.9977906 C9.24134559,12.3331239 10.4783456,12.0002472 11.8323456,12.0002472 C12.8139653,11.9920704 13.7867448,12.1868306 14.6893456,12.5727906 C14.9840413,12.7006454 15.269408,12.8490093 15.5433456,13.0167906 C16.6398493,13.6835563 17.5527339,14.6132825 18.1993456,15.7217906 C18.8458453,16.823068 19.1894718,18.0757866 19.1953456,19.3527906 C19.196004,19.3957875 19.1963373,19.4387887 19.1963456,19.4817906 C19.1999133,20.1807317 19.1094351,20.876976 18.9273456,21.5517906 C18.8630548,21.7869253 18.7866189,22.0185695 18.6983456,22.2457906 C18.3776782,23.0796789 17.911436,23.8499774 17.3213456,24.5207906 C18.0373456,25.2367906 18.6036789,26.0897906 19.0203456,27.0797906 C19.4394499,28.0816599 19.6520277,29.1578137 19.6453456,30.2437906 L19.6453456,32.7237906 C19.6577491,34.122741 19.2933324,35.4992346 18.5903456,36.7087906 C17.8743456,37.9194573 16.9303456,38.8827906 15.7583456,39.5987906 C14.5863456,40.3147906 13.2776789,40.6729282 11.8323456,40.6729282 C10.4603234,40.6787634 9.11408577,40.3001124 7.94634559,39.5797906 C6.76101225,38.8504573 5.80701225,37.8867906 5.08434559,36.6887906 C4.36228524,35.4932327 3.98696673,34.1204118 4.00034559,32.7237906 Z M14.8013456,32.7237906 L14.8013456,30.2437906 C14.8013456,29.3844573 14.5150123,28.642124 13.9423456,28.0167906 C13.6634379,27.704971 13.3197528,27.4578727 12.9353456,27.2927906 C12.5856925,27.1485097 12.2105789,27.0760717 11.8323456,27.0797906 C11.0123456,27.0797906 10.3093456,27.3857906 9.72334559,27.9977906 C9.13734559,28.6097906 8.84434559,29.3584573 8.84434559,30.2437906 L8.84434559,32.7237906 C8.84434559,33.5704573 9.13734559,34.3094573 9.72334559,34.9407906 C9.97778522,35.2214926 10.2827539,35.4518305 10.6223456,35.6197906 C10.9999753,35.8001957 11.4138559,35.8918651 11.8323456,35.8877906 C12.5943765,35.9010617 13.3281159,35.5993168 13.8603456,35.0537906 C13.8881618,35.0262661 13.9154993,34.9982619 13.9423456,34.9697906 C14.4990396,34.3794441 14.8067071,33.597202 14.8013456,32.7857906 C14.8014343,32.7651243 14.8014343,32.744457 14.8013456,32.7237906 L14.8013456,32.7237906 Z M11.8323456,22.1577906 C12.4783469,22.1677856 13.0998753,21.9109257 13.5503456,21.4477906 C13.5737546,21.424186 13.596758,21.4001824 13.6193456,21.3757906 C14.103714,20.8657145 14.3671397,20.1850484 14.3523456,19.4817906 C14.3650228,18.7729534 14.1022605,18.086832 13.6193456,17.5677906 C13.3943948,17.3154422 13.1200755,17.111915 12.8133456,16.9697906 C12.5047079,16.8324917 12.1701261,16.7632562 11.8323456,16.7667906 C11.1835174,16.7636283 10.5615242,17.0255011 10.1103456,17.4917906 C10.0849213,17.5167018 10.0599178,17.5420387 10.0353456,17.5677906 C9.53684793,18.0789483 9.26292633,18.7678917 9.27434559,19.4817906 C9.26824212,20.1831855 9.54214561,20.8580463 10.0353456,21.3567906 C10.2492871,21.5864092 10.5021895,21.77634 10.7823456,21.9177906 C11.1088847,22.0784538 11.468433,22.1606362 11.8323456,22.1577906 L11.8323456,22.1577906 Z"/>
        <path id="9" fill-rule="nonzero" d="M4.0002605,32.6067365 L4.0002605,31.8057365 C4.0002605,31.7017365 4.0652605,31.6497365 4.1952605,31.6497365 L8.6872605,31.6497365 C8.70819874,31.6495052 8.72906677,31.6521978 8.7492605,31.6577365 C8.79592716,31.6710698 8.8252605,31.7010698 8.8372605,31.7477365 C8.8420497,31.7666937 8.844402,31.7861842 8.8442605,31.8057365 L8.8442605,32.6067365 C8.83053476,33.4446385 9.1457394,34.2545493 9.7222605,34.8627365 C9.97699598,35.143539 10.2823116,35.3738826 10.6222605,35.5417365 C10.9998902,35.7221416 11.4137709,35.813811 11.8322605,35.8097365 C12.6040539,35.8194202 13.3451563,35.5079109 13.8782605,34.9497365 C13.9064151,34.921206 13.9340857,34.8922018 13.9612605,34.8627365 C14.5472605,34.2314032 14.8402605,33.4794032 14.8402605,32.6067365 L14.8402605,29.8337365 C13.9022605,30.2370698 12.8995938,30.4387365 11.8322605,30.4387365 C10.8824531,30.4467699 9.93975772,30.2743836 9.0542605,29.9307365 C8.66219178,29.7759565 8.28469835,29.5865405 7.9262605,29.3647365 C6.7542605,28.6487365 5.8132605,27.6817365 5.1032605,26.4637365 C4.39382422,25.2462351 4.02622524,23.8597927 4.0392605,22.4507365 L4.0392605,19.9697365 C4.03209044,19.0509773 4.18504401,18.1379935 4.4912605,17.2717365 C4.65479489,16.8168634 4.86315316,16.379378 5.1132605,15.9657365 C5.80103165,14.7833427 6.77483777,13.7926876 7.9452605,13.0847365 C9.11388013,12.3666012 10.4606572,11.9910143 11.8322605,12.0002348 C13.2088398,11.9892855 14.5613943,12.3615323 15.7382605,13.0757365 C16.9193226,13.7880834 17.9029689,14.7851383 18.5992605,15.9757365 C19.3191066,17.1828606 19.6940431,18.5643145 19.6832605,19.9697365 L19.6832605,22.4507365 L19.7222605,32.6067365 C19.7342201,34.0201303 19.3630758,35.4103661 18.6482605,36.6297365 C17.9534718,37.8320667 16.9702246,38.842464 15.7872605,39.5697365 C14.5998052,40.3041174 13.2283885,40.6865884 11.8322605,40.6727365 C10.4536953,40.6806328 9.10051433,40.3019777 7.9262605,39.5797365 C6.73712289,38.8598758 5.7518941,37.8477959 5.0642605,36.6397365 C4.35616084,35.4143948 3.98879253,34.021917 4.0002605,32.6067365 L4.0002605,32.6067365 Z M14.8402605,22.4507365 L14.8402605,19.9697365 C14.8520636,19.1408921 14.5361648,18.3409026 13.9612605,17.7437365 C13.3752605,17.1184031 12.6655938,16.8057365 11.8322605,16.8057365 C11.0115938,16.8057365 10.3149272,17.1117365 9.7422605,17.7237365 C9.18556653,18.3140829 8.87789894,19.0963251 8.8832605,19.9077365 C8.88317177,19.9284028 8.88317177,19.9490701 8.8832605,19.9697365 L8.8832605,22.4507365 C8.8832605,23.2967365 9.16959383,24.0324032 9.7422605,24.6577365 C10.0002716,24.9458065 10.3130063,25.1796776 10.6622605,25.3457365 C11.0291619,25.5138937 11.4286815,25.5989197 11.8322605,25.5947365 C12.2499262,25.5998933 12.6639686,25.5167441 13.0472605,25.3507365 C13.4006658,25.1915209 13.7180745,24.9622246 13.9802605,24.6767365 C14.5486979,24.0768256 14.8577054,23.2769991 14.8402605,22.4507365 Z"/>
        <path id="10" fill-rule="nonzero" d="M8.6870259,22.8440519 L4.15602594,22.8440519 C4.1350877,22.8442573 4.11421966,22.8415646 4.09402594,22.8360259 C4.04802594,22.8226926 4.01902594,22.7923593 4.00702594,22.7450259 C4.00223674,22.7260687 3.99988443,22.7065782 4,22.6870259 L4,18.1560259 C3.99979461,18.1350877 4.00248726,18.1142197 4.00802594,18.0940259 C4.0206926,18.0480259 4.0506926,18.0190259 4.09802594,18.0070259 C4.11698313,18.0022367 4.13647365,17.9998844 4.15602594,18 L8.6870259,18 C8.7079642,17.9997946 8.7288322,18.0024873 8.7490259,18.0080259 C8.7956926,18.0213593 8.8250259,18.0513593 8.8370259,18.0980259 C8.8418151,18.1169831 8.8441674,18.1364737 8.84405191,18.1560259 L8.84405191,22.6870259 C8.8442573,22.7079642 8.8415646,22.7288322 8.8360259,22.7490259 C8.8226926,22.7956926 8.7923593,22.8250259 8.7450259,22.8370259 C8.7260687,22.8418151 8.7065782,22.8441674 8.6870259,22.8440519 Z M8.6870259,34.7190519 L4.15602594,34.7190519 C4.1350877,34.7192573 4.11421966,34.7165646 4.09402594,34.7110259 C4.04802594,34.6976926 4.01902594,34.6673593 4.00702594,34.6200259 C4.00223674,34.6010687 3.99988443,34.5815782 4,34.5620259 L4,30.0310259 C3.99979461,30.0100877 4.00248726,29.9892197 4.00802594,29.9690259 C4.0206926,29.9230259 4.0506926,29.8940259 4.09802594,29.8820259 C4.11698313,29.8772367 4.13647365,29.8748844 4.15602594,29.875 L8.6870259,29.875 C8.7079642,29.8747946 8.7288322,29.8774873 8.7490259,29.8830259 C8.7956926,29.8963593 8.8250259,29.9263593 8.8370259,29.9730259 C8.8418151,29.9919831 8.8441674,30.0114737 8.84405191,30.0310259 L8.84405191,34.5620259 C8.8442573,34.5829642 8.8415646,34.6038322 8.8360259,34.6240259 C8.8226926,34.6706926 8.7923593,34.7000259 8.7450259,34.7120259 C8.7260687,34.7168151 8.7065782,34.7191674 8.6870259,34.7190519 Z"/>
    </g>
</svg>