<svg xmlns="http://www.w3.org/2000/svg" width="22" height="50" viewBox="0 0 22 50"><g id="belgium" fill="none" fill-rule="evenodd" stroke="none" stroke-width="1"><path id="0" fill="#FF0097" fill-rule="nonzero" d="M21,32.5454546 C21,33.7939394 20.7594551,34.9939394 20.2783654,36.1454546 C19.7972756,37.2969697 19.1060897,38.3212121 18.2048077,39.2181818 C17.3157051,40.1151515 16.2895834,40.8030303 15.1264423,41.2818181 C13.9633013,41.7606061 12.7544871,42 11.5,42 C10.2455129,42 9.03669871,41.7606061 7.87355769,41.2818181 C6.71041666,40.8030303 5.68429487,40.1212121 4.79519231,39.2363636 C3.89391026,38.339394 3.20272436,37.3151515 2.72163461,36.1636364 C2.24054487,35.0121212 2,33.8060606 2,32.5454546 L2,22.4545454 C2,21.1939394 2.24054487,19.9878788 2.72163461,18.8363636 C3.20272436,17.6848485 3.89391026,16.6606061 4.79519231,15.7636364 C5.68429487,14.8787879 6.71041666,14.1969697 7.87355769,13.7181818 C9.03669871,13.2393939 10.2455129,13 11.5,13 C12.7544871,13 13.9633013,13.2393939 15.1264423,13.7181818 C16.2895834,14.1969697 17.3157051,14.8787879 18.2048077,15.7636364 C19.1060897,16.6606061 19.7972756,17.6848485 20.2783654,18.8363636 C20.7594551,19.9878788 21,21.1939394 21,22.4545454 L21,32.5454546 Z M17.2548077,32.3636364 L17.2548077,22.6909091 C17.2548077,21.030303 16.676282,19.5575758 15.5192308,18.2727273 C14.3621795,16.9878788 13.0224359,16.3454545 11.5,16.3454545 C9.97756412,16.3454545 8.63782051,16.9909091 7.48076923,18.2818182 C6.32371795,19.5727273 5.74519231,21.0424242 5.74519231,22.6909091 L5.74519231,32.3636364 C5.74519231,34.0121212 6.32067308,35.4727273 7.47163461,36.7454545 C8.62259615,38.0181818 9.96538462,38.6545454 11.5,38.6545454 C13.0346154,38.6545454 14.3774039,38.0181818 15.5283654,36.7454545 C16.6793269,35.4727273 17.2548077,34.0121212 17.2548077,32.3636364 Z"/><path id="1" fill="#FF0097" fill-rule="nonzero" d="M17.2811791,18.0122265 C17.2811791,17.6265551 17.1300075,17.4337194 16.8276644,17.4337194 L13,17.4337194 L13.8707483,14 L17.7346938,14 C18.7505669,14 19.5487528,14.3048048 20.1292517,14.9144144 C20.7097506,15.524024 21,16.3513514 21,17.3963964 L21,43 L17.2811791,43 L17.2811791,18.0122265 Z"/><path id="2" fill="#FF0097" fill-rule="nonzero" d="M3.78658537,37.8939682 L15.2926829,25.7968254 C16.5975609,24.5202116 17.25,23.1453968 17.25,21.6723809 C17.25,20.2116402 16.7378049,18.9657143 15.7134147,17.9346032 C14.6890244,16.9034921 13.4512195,16.3879365 12,16.3879365 C10.5609756,16.3879365 9.32621951,16.9034921 8.29573171,17.9346032 C7.26524391,18.9657143 6.75,20.2116402 6.75,21.6723809 C6.75,23.255873 7.37195122,24.6 8.61585366,25.7047619 L6.14634147,28.3561905 C4.04878049,26.6744973 3,24.4465608 3,21.6723809 C3,19.2050794 3.86280488,17.1428571 5.58841463,15.4857143 C7.31402439,13.8285714 9.45121951,13 12,13 C14.5487805,13 16.6859756,13.8285714 18.4115853,15.4857143 C20.1371951,17.1428571 21,19.2050794 21,21.6723809 C21,22.8016931 20.7560976,23.9371428 20.2682927,25.0787301 C19.7804878,26.2203174 19.1646341,27.14709 18.4207317,27.8590476 L8.28658537,38.6120635 L20.7804878,38.6120635 L20.7804878,42 L5.32317073,42 C4.67682927,42 4.12804878,41.7759788 3.67682927,41.3279365 C3.22560975,40.8798942 3,40.3612699 3,39.7720635 C3,39.0110053 3.26219512,38.3849735 3.78658537,37.8939682 Z"/><path id="3" fill="#FF0097" fill-rule="nonzero" d="M5.9175705,28.9292149 L11.670282,28.9292149 C13.1945047,28.9292149 14.5005423,29.4455169 15.5883948,30.478121 C16.6762473,31.510725 17.2201735,32.7672673 17.2201735,34.2477477 C17.2201735,35.7531102 16.6854664,37.015873 15.6160521,38.0360361 C14.5466377,39.0561991 13.2313811,39.5662806 11.670282,39.5662806 L4,39.5662806 L4,43 L11.7809111,43 C14.4114244,43 16.6055676,42.1695624 18.3633405,40.5086873 C20.1211135,38.8478121 21,36.7608323 21,34.2477477 C21,32.8667954 20.7019161,31.5822608 20.1057484,30.3941441 C19.5095806,29.2060274 18.6583514,28.2076362 17.5520608,27.3989704 C18.4125091,26.7769198 19.1008677,25.9309309 19.6171367,24.8610038 C20.1334056,23.7910768 20.3915402,22.6651652 20.3915402,21.483269 C20.3915402,19.4056199 19.657086,17.6389961 18.1881779,16.1833977 C16.7192697,14.7277992 14.9338395,14 12.8318872,14 L4.94034707,14 L4.94034707,17.4337194 L12.6475054,17.4337194 C13.6800434,17.4337194 14.5988792,17.8442728 15.404013,18.6653797 C16.2091468,19.4864865 16.6117137,20.4257829 16.6117137,21.483269 C16.6117137,22.540755 16.2122198,23.473831 15.4132321,24.2824968 C14.6142444,25.0911626 13.6923355,25.4954955 12.6475054,25.4954955 L5.9175705,25.4954955 L5.9175705,28.9292149 Z"/><path id="4" fill="#FF0097" fill-rule="nonzero" d="M13.3556267,32.6801802 L13.3556267,14 L17.1046614,14 L17.1046614,32.6801802 L21,32.6801802 L21,36.1138996 L17.1046614,36.1138996 L17.1046614,43 L13.3556267,43 L13.3556267,36.1138996 L3.49840844,36.1138996 C1.90125866,36.1138996 0.843604146,35.6473617 0.325444866,34.7142857 C-0.192714411,33.7812098 -0.0921305512,32.5557701 0.627196445,31.0379666 L8.71048114,14 L12.7886994,14 L4.28479134,31.8777349 C4.05314367,32.4126984 4.20554345,32.6801802 4.7419907,32.6801802 L13.3556267,32.6801802 Z"/><path id="5" fill="#FF0097" fill-rule="nonzero" d="M3.86769231,28.5559846 L11.6584616,28.5559846 C13.16,28.5559846 14.4615385,29.0971686 15.5630769,30.1795367 C16.6646154,31.2619047 17.2153846,32.5557701 17.2153846,34.0611325 C17.2153846,35.5416131 16.6615384,36.8292579 15.5538461,37.9240669 C14.4461539,39.018876 13.1476923,39.5662806 11.6584616,39.5662806 L3,39.5662806 L3,43 L11.7692307,43 C14.3907693,43 16.5846153,42.1509009 18.3507693,40.4527027 C20.1169231,38.7545045 21,36.6239811 21,34.0611325 C21,31.498284 20.1169231,29.3677606 18.3507693,27.6695624 C16.5846153,25.9713642 14.3907693,25.1222651 11.7692307,25.1222651 L7.65230769,25.1222651 L7.65230769,17.4337194 L18.9138461,17.4337194 L18.9138461,14 L3.86769231,14 L3.86769231,28.5559846 Z"/><path id="6" fill="#FF0097" fill-rule="nonzero" d="M9.6618445,23.5069885 C10.0476191,23.433291 10.4936709,23.3964422 11,23.3964422 C13.7848102,23.3964422 16.1416516,24.3299449 18.0705244,26.1969504 C20.0235082,28.0762389 21,30.4099958 21,33.1982211 C21,35.9864464 20.0235082,38.3202033 18.0705244,40.1994917 C16.1416516,42.0664973 13.7848102,43 11,43 C8.21518987,43 5.8583484,42.0664973 3.92947559,40.1994917 C1.97649187,38.3202033 1,35.9864464 1,33.1982211 C1,32.3015671 1.13863773,31.3772765 1.4159132,30.4253494 C1.69318867,29.4734223 2.0729355,28.6228293 2.55515371,27.8735705 L11.3616637,14 L15.7016275,14 L9.6618445,23.5069885 Z M11,26.7865312 C9.26401447,26.7865312 7.78119349,27.4129606 6.55153707,28.6658195 C5.32188065,29.9186786 4.70705244,31.429479 4.70705244,33.1982211 C4.70705244,34.9669632 5.32188065,36.4777637 6.55153707,37.7306226 C7.78119349,38.9834816 9.26401447,39.6099111 11,39.6099111 C12.7359855,39.6099111 14.2188065,38.9834816 15.4484629,37.7306226 C16.6781193,36.4777637 17.2929476,34.9669632 17.2929476,33.1982211 C17.2929476,31.429479 16.6781193,29.9186786 15.4484629,28.6658195 C14.2188065,27.4129606 12.7359855,26.7865312 11,26.7865312 Z"/><path id="7" fill="#FF0097" fill-rule="nonzero" d="M16.4744801,17.4337194 L2,17.4337194 L2,14 L17.5879017,14 C18.6654064,14 19.5034657,14.2519305 20.1020794,14.7557915 C20.7006932,15.2596525 21,15.9594595 21,16.8552124 C21,17.539468 20.8383743,18.2050622 20.5151229,18.8519949 L9.30907373,43 L5.30434783,43 L16.81569,18.2361647 C16.8875236,18.0868726 16.9234405,17.9438009 16.9234405,17.8069498 C16.9234405,17.5581296 16.773787,17.4337194 16.4744801,17.4337194 Z"/><path id="8" fill="#FF0097" fill-rule="nonzero" d="M7.54785156,20.2181818 C7.54785156,19.1515151 7.93440755,18.2393939 8.70751953,17.4818182 C9.48063151,16.7242424 10.4114583,16.3454545 11.5,16.3454545 C12.5885417,16.3454545 13.5193685,16.7242424 14.2924804,17.4818182 C15.0655924,18.2393939 15.4521485,19.1515151 15.4521485,20.2181818 C15.4521485,21.2848485 15.0655924,22.1969697 14.2924804,22.9545455 C13.5193685,23.7121213 12.5885417,24.0909091 11.5,24.0909091 C10.4114583,24.0909091 9.48063151,23.7121213 8.70751953,22.9545455 C7.93440755,22.1969697 7.54785156,21.2848485 7.54785156,20.2181818 Z M3.74414062,20.2181818 C3.74414062,21.2969697 3.96679688,22.3030303 4.41210938,23.2363637 C4.85742188,24.169697 5.48828125,24.9515151 6.3046875,25.5818182 C4.96875,26.3454546 3.91731771,27.3909091 3.15039062,28.7181818 C2.38346354,30.0454545 2,31.4909091 2,33.0545455 C2,35.5757576 2.91536458,37.6969697 4.74609375,39.4181818 C6.57682292,41.1393939 8.828125,42 11.5,42 C14.171875,42 16.4231771,41.1393939 18.2539062,39.4181818 C20.0846354,37.6969697 21,35.5757576 21,33.0545455 C21,31.4909091 20.6103515,30.0363636 19.8310547,28.6909091 C19.0517578,27.3454545 18.0065104,26.3090909 16.6953125,25.5818182 C17.4746094,24.9878788 18.0961914,24.2060606 18.5600586,23.2363637 C19.0239258,22.2666666 19.2558594,21.2606061 19.2558594,20.2181818 C19.2558594,18.169697 18.5105794,16.4545455 17.0200196,15.0727273 C15.5294596,13.6909091 13.6894531,13 11.5,13 C9.31054688,13 7.47054037,13.6909091 5.97998047,15.0727273 C4.48942057,16.4545455 3.74414062,18.169697 3.74414062,20.2181818 Z M5.80371094,33.0545455 C5.80371094,31.5030303 6.36035156,30.1848485 7.47363281,29.1 C8.58691406,28.0151515 9.92903647,27.4727272 11.5,27.4727272 C13.0833333,27.4727272 14.4285482,28.0151515 15.5356446,29.1 C16.6427409,30.1848485 17.196289,31.5030303 17.196289,33.0545455 C17.196289,34.6060606 16.6427409,35.9272727 15.5356446,37.0181818 C14.4285482,38.1090909 13.0833333,38.6545454 11.5,38.6545454 C9.9166667,38.6545454 8.57145182,38.1090909 7.46435547,37.0181818 C6.35725912,35.9272727 5.80371094,34.6060606 5.80371094,33.0545455 Z"/><path id="9" fill="#FF0097" fill-rule="nonzero" d="M12.3381555,32.4990476 C11.9644364,32.5726984 11.5183846,32.6095238 11,32.6095238 C8.21518987,32.6095238 5.8583484,31.6766138 3.92947559,29.8107936 C1.97649187,27.9326984 1,25.6004233 1,22.8139682 C1,20.0275132 1.97649187,17.6891005 3.92947559,15.7987302 C5.8583484,13.93291 8.21518987,13 11,13 C13.7848102,13 16.1416516,13.93291 18.0705244,15.7987302 C20.0235082,17.6891005 21,20.0275132 21,22.8139682 C21,23.7100529 20.8613622,24.6337566 20.5840868,25.5850793 C20.3068113,26.5364022 19.9270645,27.386455 19.4448463,28.1352381 L10.6383363,42 L6.29837252,42 L12.3381555,32.4990476 Z M11,29.2215873 C12.7359855,29.2215873 14.2188065,28.5955555 15.4484629,27.343492 C16.6781193,26.0914285 17.2929476,24.5815873 17.2929476,22.8139682 C17.2929476,21.0340741 16.6781193,19.5180952 15.4484629,18.2660317 C14.2188065,17.0139683 12.7359855,16.3879365 11,16.3879365 C9.26401447,16.3879365 7.78119349,17.0139683 6.55153707,18.2660317 C5.32188065,19.5180952 4.70705244,21.0340741 4.70705244,22.8139682 C4.70705244,24.5815873 5.32188065,26.0914285 6.55153707,27.343492 C7.78119349,28.5955555 9.26401447,29.2215873 11,29.2215873 Z"/><path id="10" fill="#FF0097" fill-rule="nonzero" d="M18,17 C17.1755725,17 16.4694656,17.2682435 15.8816794,17.8047305 C15.2938931,18.3412174 15,18.9856986 15,19.7381738 C15,20.490649 15.2938931,21.1351302 15.8816794,21.6716171 C16.4694656,22.2081042 17.1755725,22.4763477 18,22.4763477 C18.8244275,22.4763477 19.5305344,22.2081042 20.1183206,21.6716171 C20.7061069,21.1351302 21,20.490649 21,19.7381738 C21,18.9856986 20.7061069,18.3412174 20.1183206,17.8047305 C19.5305344,17.2682435 18.8244275,17 18,17 Z M18,30.5236523 C17.1755725,30.5236523 16.4694656,30.7918958 15.8816794,31.3283829 C15.2938931,31.8648698 15,32.509351 15,33.2618262 C15,34.0143014 15.2938931,34.6587826 15.8816794,35.1952695 C16.4694656,35.7317565 17.1755725,36 18,36 C18.8244275,36 19.5305344,35.7317565 20.1183206,35.1952695 C20.7061069,34.6587826 21,34.0143014 21,33.2618262 C21,32.509351 20.7061069,31.8648698 20.1183206,31.3283829 C19.5305344,30.7918958 18.8244275,30.5236523 18,30.5236523 Z"/></g></svg>