<svg width="27px" height="23px" viewBox="0 0 27 23" translatex="[0, 0, 29, 48, 68, 98, 120, 138, 168]" version="1.1" xmlns="http://www.w3.org/2000/svg" xmlns:xlink="http://www.w3.org/1999/xlink">
    <path d="M0,0 L26.112,0 L26.112,22.24 L0,22.24 L0,0 Z M5.344,1.44 L5.344,19.904 L23.904,1.44 L5.344,1.44 Z M24.672,20.8 L24.672,2.688 L6.496,20.8 L24.672,20.8 Z" id="0"></path>
    <polygon id="1" points="16.96 0 16.96 20.8 23.776 20.8 23.776 22.24 4 22.24 4 20.8 11.616 20.8 11.616 1.44 4 1.44 4 0"></polygon>
    <polygon id="2" points="0 0 26.112 0 26.112 11.84 5.344 11.84 5.344 20.8 24.672 20.8 24.672 16.32 26.112 16.32 26.112 22.24 0 22.24 0 10.4 20.768 10.4 20.768 1.44 1.44 1.44 1.44 5.92 0 5.92"></polygon>
    <polygon id="3" points="1.44 5.92 0 5.92 0 0 26.112 0 26.112 22.24 0 22.24 0 16.32 1.44 16.32 1.44 20.8 20.768 20.8 20.768 11.84 5.184 11.84 5.184 10.4 20.768 10.4 20.768 1.44 1.44 1.44"></polygon>
    <polygon id="4" points="26.112 0 26.112 22.24 20.768 22.24 20.768 11.84 0 11.84 0 0 1.44 0 1.44 10.4 20.768 10.4 20.768 0"></polygon>
    <polygon id="5" points="0 0 26.112 0 26.112 5.92 24.672 5.92 24.672 1.44 5.344 1.44 5.344 10.4 26.112 10.4 26.112 22.24 0 22.24 0 16.32 1.44 16.32 1.44 20.8 20.768 20.8 20.768 11.84 0 11.84"></polygon>
    <path d="M26.112,5.92 L24.672,5.92 L24.672,1.44 L5.344,1.44 L5.344,10.4 L26.112,10.4 L26.112,22.24 L0,22.24 L0,0 L26.112,0 L26.112,5.92 Z M24.672,11.84 L5.344,11.84 L5.344,20.8 L24.672,20.8 L24.672,11.84 Z" id="6"></path>
    <polygon id="7" points="25.224 0 25.224 22.24 19.88 22.24 19.88 1.44 2.44 1.44 2.44 5.92 1 5.92 1 0"></polygon>
    <path d="M26.112,0 L26.112,22.24 L0,22.24 L0,0 L26.112,0 Z M24.64,20.8 L24.64,11.84 L5.344,11.84 L5.344,20.8 L24.64,20.8 Z M5.344,1.44 L5.344,10.368 L24.64,10.368 L24.64,1.44 L5.344,1.44 Z" id="8"></path>
    <path d="M0,16.32 L1.44,16.32 L1.44,20.8 L20.768,20.8 L20.768,11.84 L0,11.84 L0,0 L26.112,0 L26.112,22.24 L0,22.24 L0,16.32 Z M1.44,10.4 L20.768,10.4 L20.768,1.44 L1.44,1.44 L1.44,10.4 Z" id="9"></path>
    <path d="M16.144,5 L16.144,9.896 L10,9.896 L10,5 L16.144,5 Z M16.144,17.832 L16.144,22.728 L10,22.728 L10,17.832 L16.144,17.832 Z" id="10"></path>
</svg>