<svg width="28px" height="41px" translatex="[0, 4, 27, 49, 70, 93, 114, 136, 159]" lxeftOffset="14" xopOffset="42" viewBox="0 0 28 41" version="1.1" xmlns="http://www.w3.org/2000/svg" xmlns:xlink="http://www.w3.org/1999/xlink">
    <path d="M12.7600082,0 C14.6129866,0.0066612347 16.4370548,0.459899343 18.0732866,1.31904578 C18.2680953,1.41890206 18.4604879,1.52340309 18.6502043,1.63240455 C20.5326715,2.7134253 22.1262189,4.18582582 23.4338839,6.05411941 C24.3871096,7.4800374 25.0826925,9.06218193 25.4882001,10.7254018 C25.5547292,10.9907572 25.6148467,11.2576791 25.6688006,11.5274483 C25.9023234,12.7140428 26.0649439,13.9134964 26.1557417,15.118697 C26.2348277,16.1481248 26.2736802,17.1802485 26.2722049,18.2095721 C26.2844128,20.7269565 26.0710383,23.2403721 25.634714,25.7192555 C25.1801769,28.3144826 24.399622,30.8418963 23.3136847,33.2367828 C22.676593,34.6811483 21.7601365,35.9852545 20.6122172,37.0785968 C19.0366429,38.5398771 17.0736183,39.4299311 14.7362903,39.747611 C14.0625316,39.8374424 13.3832416,39.8817028 12.7042107,39.8801687 C10.6853183,39.8801687 8.78376936,39.4491669 7.00923072,38.5898956 C5.76909447,38.0026748 4.65714899,37.1763012 3.73527242,36.1560388 C3.38393354,35.7626118 3.06431534,35.3419689 2.78019105,34.8992595 C1.62538289,33.1111694 0.871743594,31.0828563 0.518990875,28.8178039 C0.360361833,27.7836323 0.241812642,26.7437093 0.163684889,25.7013631 C0.0545898813,24.2838014 0,22.7592457 0,21.1279968 L0,18.6986355 C-0.00125383802,17.6802123 0.0243514267,16.6627016 0.0769177145,15.6464172 C0.13019678,14.64558 0.211552412,13.7074584 0.320967665,12.8328182 C0.3833368,12.3269177 0.45899672,11.8227444 0.548292739,11.3184608 C0.90496991,9.35884609 1.63231796,7.48678304 2.68468283,5.81011428 L2.923,5.44261005 L3.05111557,5.18037433 C3.25369856,4.78969127 3.49667619,4.42170425 3.77508751,4.08354365 L3.9904623,3.83562706 C4.2704736,3.52431369 4.5879676,3.22478405 4.94289312,2.93672603 L5.29060271,2.66716125 L5.33452891,2.63479427 C6.45497794,1.81313165 7.68739652,1.16891285 9.0287028,0.703184177 C9.58466017,0.50815895 10.1523902,0.348474047 10.7299624,0.224773128 C11.297101,0.10508114 11.8432335,0.0330394631 12.3683316,0.00901047195 L12.7600082,0 Z M12.921,1.53961005 L12.5395789,1.55085551 C11.8999499,1.58247475 11.2646506,1.68152502 10.6421497,1.84713543 C9.78772668,2.06763171 8.89232599,2.40698889 7.95635759,2.86592367 C6.17503884,3.73945498 4.95982051,4.82808807 4.29311947,6.12815509 L4.20176413,6.25355016 L4.189,6.26461005 L3.9586906,6.63010793 C3.13462124,7.98042307 2.54734259,9.40134085 2.19595109,10.89367 L2.09760935,11.3435119 C1.90507858,12.3117391 1.76577787,13.289794 1.68030894,14.2735649 C1.58468814,15.3667612 1.53788259,16.4643452 1.53990845,17.5630577 L1.54716305,18.4310914 C1.56043943,19.3923011 1.59401206,20.6275081 1.64821074,22.1539968 L1.65290077,22.553141 C1.6560186,22.6730523 1.66068202,22.7798245 1.66686444,22.8734511 L1.69291481,23.1475199 C1.6955618,23.1700662 1.69860804,23.1959193 1.70214971,23.2261852 C1.7378359,25.5101008 1.87139316,27.4422292 2.10196068,29.0207299 C2.32684092,30.5602947 2.81892904,31.9847603 3.57391149,33.289014 C4.39945542,34.6523703 5.53670404,35.8003939 6.89669396,36.6415601 C7.10894855,36.7759579 7.32526766,36.9038265 7.54517011,37.0248888 C9.27204702,37.9746711 11.0792904,38.4479968 12.9742107,38.4479968 C14.787522,38.4479968 16.4403442,37.9708934 17.943773,37.014166 C20.6133412,35.3153499 22.4018312,32.9220566 23.321198,29.8170404 C23.8386903,28.0421816 24.2067741,26.2271362 24.4216564,24.3903985 C24.63383,22.592466 24.7376824,20.7821791 24.7329541,18.9679968 C24.7329541,16.6426966 24.5973643,14.5602418 24.3275748,12.7230395 C24.2961599,12.5103022 24.2624012,12.2979176 24.2257155,12.0823863 C23.9879611,10.6228604 23.5072145,9.21351725 22.8045233,7.9148995 C22.6110135,7.56104639 22.4002836,7.21688633 22.1696972,6.87861285 C21.4406068,5.78078795 20.5483707,4.800562 19.525597,3.97321804 C19.0427323,3.58638591 18.5299594,3.23844431 17.9888279,2.93078822 C16.9444034,2.32655731 15.8038472,1.9064374 14.6197916,1.68929535 C14.1999513,1.61474287 13.7750972,1.568038 13.3479802,1.5493451 L12.921,1.53961005 Z M12.756,8.63961005 L12.9722214,8.64170644 C13.6506287,8.66830692 14.3089247,8.89171861 14.8691322,9.28950923 C15.5430296,9.77919776 16.0560093,10.5327421 16.4149745,11.5365288 C16.9811398,13.1186109 17.2926109,14.9237931 17.3516802,16.9510599 L17.3622107,17.6719968 C17.3622107,18.9459671 17.3076256,20.2378161 17.1996954,21.5286913 L17.1298897,23.2464705 C17.1096662,23.8276074 17.0975549,24.3110791 17.0935422,24.6958444 L17.0922057,24.9642326 C17.0871285,26.0996343 16.8463421,27.2216121 16.3865329,28.2558487 C16.2708895,28.5210547 16.1436922,28.7810713 16.0077968,29.0305213 C15.8184409,29.3870594 15.5894621,29.7210947 15.3221075,30.0298327 C14.6487143,30.7929086 13.8199235,31.1859968 12.8662107,31.1859968 C12.4214603,31.1859968 11.9690522,31.0772395 11.5109199,30.8644157 L11.37,30.79361 L11.2913829,30.7844203 C10.5634238,30.6671156 9.92604024,30.2366208 9.56577237,29.6353802 L9.4815866,29.4815953 C8.62789683,28.119978 8.11929155,25.6733225 7.92290044,22.1082499 C7.85843669,20.8822096 7.82752896,19.6546351 7.83021384,18.4297565 C7.8263409,17.3293341 7.89380424,16.2298179 8.03243992,15.1361022 C8.18422523,13.9765172 8.42060603,12.8943043 8.74188113,11.8899767 L8.77116228,11.7982478 C8.92782969,11.2991596 9.15067387,10.8233175 9.43710344,10.3782768 C10.1505108,9.29903901 11.1861928,8.71409205 12.4986257,8.64665179 L12.6283561,8.64166589 L12.756,8.63961005 Z M12.882506,10.1797312 L12.8662107,10.1799968 C12.2099942,10.1799968 11.6951992,10.2911098 11.3143147,10.5050252 C11.0730803,10.6378078 10.8717169,10.8326503 10.7328709,11.0663249 C10.5699881,11.3449702 10.4360349,11.6395459 10.3319193,11.9489281 C10.135684,12.5182604 9.99352169,13.2021593 9.90731601,13.9997216 L9.76896554,15.3465435 C9.61625607,16.9225137 9.5236191,18.2411925 9.490968,19.301575 C9.48265005,19.5684184 9.4783971,19.8353731 9.47821074,20.1019968 C9.47821074,22.1982355 9.64690036,24.2402678 9.98414981,26.2282647 C10.2154414,27.5899004 10.597922,28.5018767 11.1022335,28.970163 C11.2275311,29.0889646 11.3740821,29.1824462 11.5337948,29.2459644 L11.597,29.26761 L11.6242107,29.2679968 L11.7823246,29.2936551 L11.9443246,29.3476551 L12.0471197,29.3954684 C12.2360582,29.5110427 12.445432,29.5892616 12.6608128,29.6253739 C12.7470853,29.6392863 12.833834,29.6463769 12.9248814,29.6463769 C13.403696,29.6507811 13.8583829,29.4367846 14.1682426,29.054998 C14.2579798,28.9500829 14.3396172,28.8385023 14.4137657,28.7191127 C14.8669447,27.9973833 15.1772888,27.2089416 15.3456199,26.3504532 C15.3868731,26.140823 15.4254388,25.9306729 15.4612538,25.7203701 L15.5324332,25.2636192 C15.5817684,24.9111453 15.6062109,24.6294182 15.6062114,24.4211881 L15.6082266,24.1309454 L15.6133234,23.8413834 C15.6200584,23.5241656 15.6318997,23.1641995 15.6488338,22.7615643 L15.739206,20.9466285 L15.7881989,19.8355699 C15.8108858,19.2398443 15.8222107,18.7523978 15.8222107,18.3739968 C15.8222107,16.2874726 15.6103915,14.3457961 15.1864477,12.5439388 C15.1069564,12.1912718 14.9910441,11.8478166 14.8426504,11.5235742 C14.6775481,11.1720845 14.4813602,10.893778 14.2582162,10.6873675 C13.8833256,10.3453368 13.3897085,10.1631924 12.882506,10.1797312 Z" id="0"></path>
    <path d="M18.2689028,0 L18.8645077,0.00335370125 L19.4589402,0.0167058436 L20.0276009,0.0406430992 C21.3741726,0.11304484 22.1628787,0.283223602 22.5115534,0.631898299 L22.6399202,0.760265095 L22.6560279,0.941087136 C22.7812717,2.34704963 22.8525197,3.93836744 22.8699776,5.71571673 L22.8740066,6.60182251 C22.8733514,7.48525799 22.8666657,8.36855485 22.853952,9.25137655 L22.8240764,11.0271472 C22.7875942,12.8987461 22.7312924,15.0578438 22.6551719,17.5045689 L22.5496993,20.7127904 C22.4987946,22.1798552 22.4514875,23.6470427 22.4077829,25.1141859 L22.3108112,28.758176 C22.2802197,30.0717172 22.257934,31.2644372 22.2439523,32.3363561 C22.2326586,33.1541446 22.2266743,33.9719978 22.226,34.7894517 C22.226,35.9623235 22.2793134,37.1352188 22.3879212,38.3445761 C22.3968025,38.8448172 22.144137,39.3134709 21.7395322,39.5689043 C21.5967268,39.6682472 21.4326992,39.7521882 21.2449018,39.8232354 L21.0588401,39.8856142 C20.8017302,39.9622596 20.5397871,40.0216431 20.2776377,40.0629064 C19.7015825,40.1570423 19.0149222,40.203554 18.2165876,40.203554 C17.6038406,40.2042508 16.9915463,40.1883225 16.3803573,40.1557414 C15.8190729,40.1257906 15.2589178,40.0774955 14.7002035,40.0108632 C13.6175356,39.8804476 12.8902053,39.6649699 12.4858809,39.3180195 L12.4106017,39.2491471 L12.2618403,39.1021829 L12.2674903,37.647424 L12.2820547,36.4020581 C12.3101014,34.5055658 12.3668377,32.2264358 12.4522592,29.5643545 L12.5169113,27.6315288 L12.6600591,23.6467902 L12.7282488,21.5946807 C12.7858808,19.7684374 12.8297816,18.1234199 12.8599555,16.6595825 L12.8929028,14.713 L12.8314175,14.7898962 L12.7115119,14.919044 C12.3214075,15.3112722 11.8100946,15.5561757 11.2728115,15.6161237 L11.070299,15.6298609 C11.022463,15.6321884 10.9745787,15.6333855 10.926,15.6334517 C10.6645111,15.6334517 10.1764384,15.5660182 9.43525565,15.4302193 L8.75154945,15.3002563 C8.10995187,15.1754799 7.47527954,15.0174119 6.84963942,14.8265506 C6.44918622,14.7039597 6.05393878,14.5649678 5.66626529,14.4104695 C5.48272516,14.3379504 5.30294109,14.2562635 5.1256855,14.1647277 C4.74623106,13.9667171 4.46026013,13.7501727 4.28099697,13.517673 C4.10530833,13.3069906 4.00628888,13.0429388 4,12.7574517 C4,12.2722549 4.12912564,11.760005 4.38108668,11.2206274 C4.44164037,11.0911542 4.50689248,10.9639308 4.57605024,10.8403984 L5.1592083,9.78004684 L5.18230512,9.73504149 C5.65502432,8.73917074 6.23793732,7.60052722 6.93118825,6.3186164 C7.2665071,5.69853531 7.60681391,5.08116453 7.95174879,4.4671468 C8.21214276,4.00216558 8.48033263,3.54159326 8.75646219,3.08520004 L9.10760022,2.51862499 C9.67833379,1.61914289 10.177006,0.94340829 10.6099318,0.486910515 L10.7985449,0.298080563 L10.939869,0.164502229 L14.629209,0.107971391 L16.1209868,0.0465938822 C16.5745622,0.0303596399 16.9844586,0.0183512444 17.3506909,0.0105714541 L18.0598332,0 L18.2689028,0 Z M14.396,11.7403449 L14.3959028,11.963 L14.4089939,12.0000436 C14.5072604,12.3189052 14.5500061,12.8340564 14.5569659,13.6000679 L14.558,13.8374517 C14.558,16.2923895 14.5038561,18.8461774 14.3955808,21.4989213 L14.179278,26.6083114 C14.0893458,28.2800059 14.0127987,29.9523936 13.949646,31.6252643 L13.8943232,33.2345903 C13.8618036,34.2849496 13.838008,35.2902748 13.8229326,36.2506583 L13.8075184,37.4911282 L13.8039028,38.322 L13.8814379,38.3386999 C14.5133692,38.4542766 15.1611868,38.523665 15.8250713,38.5467973 L16.326,38.5554725 C16.8179214,38.5554725 17.2951571,38.5502838 17.7610178,38.5395953 L18.3254885,38.522111 C19.4943323,38.4770172 20.3099558,38.3854369 20.7513886,38.2548907 L20.8319028,38.228 L20.790991,37.7286762 C20.7384923,37.002479 20.7056842,36.2698212 20.6925613,35.5307116 L20.686,34.7894517 C20.686,32.7991916 20.7287821,30.6314641 20.8143253,28.2860913 L21.0646797,22.1273902 C21.1547542,20.4016251 21.2313075,18.6751809 21.2943275,16.9483574 L21.3474935,15.3481937 C21.4105031,13.2562277 21.442,11.3306126 21.442,9.57145169 L21.4367378,9.16428981 C21.4244565,8.65149804 21.3906683,8.00664193 21.3352708,7.23107758 L21.310772,6.87627909 L21.2588978,6.01398488 C21.2384595,5.61899412 21.2274798,5.29346699 21.226,5.03545169 L21.226,3.09145169 C21.226,2.54871374 21.2181698,2.10157448 21.2027782,1.75189983 L20.2011539,1.71126307 C19.9412127,1.69863876 19.659825,1.6833099 19.3568691,1.66527703 L17.9388886,1.57978567 C17.6939685,1.56711318 17.4731305,1.55741429 17.2764965,1.55068566 L16.7140049,1.53931426 L14.0349541,1.59249261 L13.6653626,1.61146382 C13.3312458,1.62560036 12.9317403,1.63556336 12.4662513,1.64141633 L11.6509028,1.646 L11.5748757,1.7422932 C11.2075785,2.21394752 10.8474534,2.75428836 10.4950015,3.36320235 L10.2844552,3.73677862 L9.76614666,4.67198781 C9.63568151,4.90401681 9.52415438,5.09922217 9.43155512,5.25760733 L8.89237791,6.16292975 L8.11008504,7.49751867 C7.63361033,8.3190736 7.23369565,9.0269651 6.91075197,9.62039749 C6.42262254,10.5225184 6.00555936,11.4613182 5.66311696,12.4289295 L5.58768066,12.6446586 L5.66298081,12.6899448 C5.96457199,12.8274912 6.4189989,12.9986164 7.01568246,13.1961604 L7.64568217,13.3979547 L8.04679157,13.5208753 C9.5477634,13.9749889 10.6236386,14.2008455 11.246,14.2014517 C11.2754639,14.2014517 11.3045879,14.1882946 11.3487297,14.1388669 L11.4045706,14.0677824 C11.4474347,14.0052414 11.4876123,13.9409009 11.5256393,13.8738012 C11.6425027,13.6688314 11.7760265,13.3923363 11.9309772,13.0318617 L12.1157477,12.6459696 L12.305593,12.2710678 C12.3355517,12.2143111 12.3646587,12.1604403 12.3928985,12.1094892 L12.4750004,11.9654289 C12.5097503,11.9052477 12.5457812,11.8458153 12.581972,11.7889047 C12.6512377,11.6789753 12.7345203,11.5785314 12.8267328,11.4929031 C12.9592318,11.3677958 13.1181386,11.2769391 13.2897412,11.2257156 L13.9126734,9.28964102 L13.9109028,11.255 L14.396,11.7403449 Z" id="1"></path>
    <path d="M14.9159368,0 L15.4990066,0.00493963876 C16.2787153,0.0236029715 17.0565092,0.0862516233 17.8300328,0.19292495 C18.8259465,0.335789921 19.7320034,0.558232945 20.5439685,0.859622075 C21.3508028,1.15119672 22.1109369,1.55857718 22.8036926,2.07135323 C24.6378412,3.45169193 25.8457428,5.21123354 26.4150155,7.33651828 C26.8897652,9.10932643 27.1594471,11.1591131 27.2258354,13.486768 C27.2368621,13.8778957 27.2425455,14.264784 27.2425455,14.6456408 C27.2454292,15.3222477 27.1908429,15.9973337 27.0787337,16.665988 C26.8956599,17.7255537 26.5570826,18.6618927 26.0615175,19.4718409 C25.2862804,20.7386917 24.3355737,21.7464409 23.2107505,22.489968 C22.217685,23.1464011 20.9465773,23.852781 19.392911,24.6121938 L18.9621748,24.8206236 C18.4497214,25.0607311 17.9412913,25.3093336 17.4372646,25.5662417 C16.4072455,26.0917483 15.5604504,26.578059 14.8981223,27.0237195 C14.0666573,27.5830687 13.42344,28.2972929 12.9635858,29.1720518 L12.8679368,29.364 L12.8625594,29.4133673 C12.8419532,29.5497149 12.8008208,29.7127849 12.7394818,29.9108117 L12.6343212,30.2290071 C12.5930801,30.3476659 12.5586542,30.4561827 12.530962,30.5541237 L12.4909368,30.706 L12.5399249,30.7135461 C12.739725,30.7389598 13.0109202,30.7575046 13.3503958,30.7683709 L13.8609957,30.7784887 L14.6156574,30.7782995 C15.1810606,30.7746618 15.864895,30.7646579 16.6669735,30.7482857 L19.7073386,30.6720745 L20.5688537,30.6476448 L23.2642812,30.5846737 C23.705539,30.5767451 24.1085869,30.571081 24.4734628,30.5676822 L25.4423902,30.5638585 L25.5898437,30.7166741 C25.71862,30.8501334 25.8267925,31.0020352 25.9071523,31.1603388 C26.1062167,31.5372237 26.2492833,32.0453695 26.34574,32.6922914 C26.4288165,33.2586432 26.4844469,33.8286823 26.5123885,34.3994597 C26.5308963,34.763335 26.5401145,35.1276233 26.540034,35.4918585 C26.540034,36.2048352 26.4886458,36.7747448 26.3817253,37.2076184 L26.3419367,37.3535342 L26.3239368,37.405 L26.3244387,37.8875929 L26.3328607,38.1026252 C26.34419,38.2677087 26.3656949,38.3937024 26.3953532,38.4828057 L26.4054604,38.5093911 L26.5539377,38.7680851 L26.4342608,39.0093659 L26.4320339,39.0562055 L26.4318903,39.263109 L26.2315874,39.4634118 L26.1016408,39.557072 L25.7800704,39.7178572 L23.8085939,39.719867 L20.5154789,39.7333483 C20.0460103,39.7363461 19.586925,39.7398436 19.1381858,39.7438412 L16.5698882,39.7718115 L10.7228751,39.866778 L10.0721797,39.8795977 L8.32649284,39.9315996 C7.78663137,39.9461091 7.28880214,39.9577939 6.83299941,39.9666532 L5.87836058,39.9818184 C5.56346476,39.9858032 5.26672808,39.9878585 4.98003399,39.9878585 L2.55003399,39.9878585 L2.39192011,39.9622001 L2.11794323,39.8708745 L1.9804806,39.7334118 L1.86979564,39.5655538 L1.77793681,39.337 L0,38.4478585 L1.72593681,38.447 L1.72603443,36.7345255 C1.72481816,35.8228035 1.74208824,34.9111818 1.77782608,34.0003014 L1.81971915,33.0896917 C1.87800481,31.9774809 1.97403539,30.8675696 2.1075206,29.762914 C2.17304875,29.2109436 2.26982287,28.6631329 2.39786768,28.1200581 C2.67233235,26.9776343 3.07279311,26.0686063 3.6073061,25.3951347 L3.73059074,25.2467919 L3.85406395,25.1115221 C4.95987661,23.8951281 6.19482147,22.8168554 7.55882187,21.8768015 C8.10499738,21.501408 8.6572959,21.1350018 9.21517009,20.7779387 L9.98879752,20.2879148 C10.2551107,20.1211548 10.529881,19.9509635 10.8131678,19.7773038 L11.7096011,19.2342748 L12.9774507,18.4820347 L13.3425139,18.2628779 C14.0247774,17.8507592 14.5702612,17.4994362 14.9756359,17.2115492 C15.3218655,16.9632393 15.6371271,16.6743774 15.9161471,16.3494421 C16.0771583,16.1636113 16.2280097,15.9692152 16.3669381,15.7687031 C16.6636413,15.33689 16.8518985,14.8399266 16.9163325,14.3154365 C16.9419022,14.1216954 16.9544979,13.9264623 16.9540498,13.7258852 C16.9579181,13.2391135 16.885114,12.7547686 16.7392694,12.2936377 C16.6293253,11.9534908 16.4746455,11.6294711 16.2762644,11.3253923 C16.1532874,11.1322398 16.0046779,10.9566616 15.8334866,10.8025442 C15.5396142,10.5365288 15.1561433,10.3912706 14.7466985,10.3958046 C14.4136038,10.3909173 14.0823098,10.4455104 13.7749079,10.5546525 C13.1667695,10.7802087 12.7265398,11.2545103 12.442133,12.012908 C12.179655,12.7244274 11.9942868,13.4620586 11.889072,14.2141251 C11.790055,14.9117129 11.7415817,15.6155445 11.744031,16.3201204 L11.7447545,16.5282448 L11.5975874,16.6754118 C11.2592731,17.0137262 10.587543,17.2105754 9.52793958,17.3318657 L9.24121558,17.3625316 C8.69030376,17.4158674 8.16389768,17.4560743 7.66255517,17.4831005 C7.18308644,17.5095316 6.70299604,17.5231223 6.22021827,17.5238552 L6.05593922,17.5217083 L5.89308553,17.5164993 C5.60660071,17.5056346 5.24546633,17.4819103 4.8082426,17.4453103 L4.47737657,17.4155809 L2.64775487,17.3545935 L2.50584999,17.2001491 C2.42095965,17.1077573 2.35200547,17.0019066 2.30854327,16.9016982 C2.14818525,16.5647022 2.02427702,16.0069356 1.91919647,15.1982413 C1.82138096,14.4449261 1.76072547,13.774308 1.73746042,13.1865043 C1.73008079,13.0079373 1.72627137,12.8292406 1.72603399,12.6498585 C1.72603399,10.7123129 2.09891926,8.83856441 2.84379369,7.0322439 C3.59133481,5.21945669 4.65932669,3.67367897 6.04782081,2.39777644 C6.59741991,1.89847505 7.22358756,1.49061106 7.89786188,1.19179833 C8.43472045,0.947386403 9.02510034,0.748484605 9.66871094,0.594577723 C9.81853691,0.558737906 9.96902413,0.525721079 10.1199759,0.495568116 C11.5666292,0.206237453 12.9714166,0.0431915372 14.3344385,0.00695084998 L14.9159368,0 Z M15.4601188,1.48584177 C11.3911044,1.48585845 8.58601152,2.19578938 7.03510996,3.57804004 C5.76705673,4.67473472 4.83448872,6.02653056 4.23418299,7.63877236 C3.69223474,9.1091832 3.38757082,10.6553802 3.33064132,12.2217771 L3.32067288,12.7292601 L3.32003399,12.8658585 C3.32003399,13.1163918 3.32630713,13.3471452 3.3387749,13.5580386 L3.3615457,13.8537084 L3.43175952,14.4580766 L3.47248627,14.7666136 L3.53658648,15.115203 L3.58443163,15.4102195 L3.61072734,15.6167177 L3.63093681,15.87 L4.06379544,15.9062117 L4.41963849,15.930989 C4.60848655,15.94371 4.79745862,15.9545178 4.98581732,15.9633778 L5.34270965,15.9768415 L5.65016434,15.9830952 L5.79003399,15.9838585 C6.30449136,15.9838585 7.13298779,15.9133481 8.26195213,15.7722445 L8.83340828,15.6994732 C9.3762661,15.6339502 9.83351429,15.5901847 10.2068212,15.568288 L10.230203,15.156821 C10.2681963,14.5595417 10.3472255,13.9652314 10.4668844,13.3777695 L10.5642403,12.9385178 C10.7078131,12.3491452 10.8984781,11.7722525 11.1318589,11.2195268 C11.3177498,10.7623543 11.5787269,10.3394572 11.9086202,9.96311702 C12.5187085,9.28619109 13.3198257,8.90303106 14.2860307,8.81971117 C14.4236975,8.8078269 14.5618117,8.80187049 14.6975243,8.80186475 C15.6057047,8.79730625 16.4708253,9.1885668 17.0583387,9.86369927 C17.2286769,10.0492224 17.3835625,10.2483611 17.5202663,10.4573277 C18.2043633,11.493246 18.548034,12.642088 18.548034,13.8918585 C18.548034,15.2869234 18.0523153,16.4705782 17.0697641,17.4130202 C16.6994172,17.7655414 16.3094852,18.096897 15.9031813,18.4044785 C15.2883934,18.8731956 14.5832074,19.3429658 13.7902057,19.812661 L12.5865136,20.5174039 C11.1646828,21.3569152 9.98830353,22.0755016 9.05756291,22.6729928 C8.75220403,22.8684246 8.44922645,23.0675524 8.15067554,23.2689904 C7.2758541,23.8653763 6.46602706,24.5519123 5.73345235,25.3184109 C5.47483044,25.5873805 5.22472465,25.8644108 4.97904717,26.1542805 C4.51846534,26.6830069 4.17041109,27.3000122 3.95443543,27.9727929 C3.79025239,28.4659639 3.67664576,29.0095857 3.61443246,29.6027972 C3.55583112,30.1750177 3.51042531,30.7485127 3.47817308,31.324187 C3.4431802,31.9197263 3.4170739,32.5601569 3.39988536,33.245049 C3.38206571,33.9757143 3.37344785,34.7065752 3.37403399,35.4378585 L3.3740339,37.5975685 L3.37228089,37.8205039 L3.35708578,38.2639752 L3.34293681,38.447 L5.19462705,38.4474377 C6.00552828,38.4443521 7.08112419,38.4242931 8.42256295,38.3871982 L9.99146421,38.3399702 L16.3669924,38.231908 L19.5541186,38.1979948 C20.9076235,38.187712 22.3555179,38.1813677 23.8978171,38.1789614 L24.7379368,38.178 L24.732822,38.0605387 L24.730034,37.8678585 C24.730034,37.5839873 24.7506601,37.1826374 24.7918016,36.6601682 L24.8382939,36.1237378 L24.8920352,34.4647473 C24.8927822,34.1286128 24.880884,33.7925691 24.8564154,33.4579995 C24.831093,33.1180472 24.7914437,32.8058875 24.737085,32.5182241 C24.721625,32.4331182 24.7040369,32.3484404 24.6843412,32.2642698 L24.6429368,32.106 L23.8484567,32.1219722 C23.468321,32.1320457 23.0410206,32.1463296 22.5660693,32.1648455 L21.4577254,32.2117993 L17.940034,32.2658585 L12.5978811,32.2658437 C12.4304077,32.2671323 12.2631083,32.2547545 12.0935628,32.2281762 C11.3535944,32.1059708 10.906034,31.6525904 10.9060519,30.9600886 C10.9011536,30.3811439 10.9889109,29.8051438 11.1670224,29.2507689 C11.3215447,28.7805266 11.5478281,28.3369961 11.8374458,27.9364577 C12.4339983,27.1089817 13.1929825,26.4076418 14.1118967,25.8333217 C14.417099,25.6434316 14.7258024,25.4592273 15.0371825,25.2811847 L15.6178177,24.9540097 C15.9227302,24.7850499 16.2495433,24.6080256 16.5982939,24.4229111 L17.7583454,23.8188926 L20.874332,22.1538329 C21.4471816,21.8200855 21.9977011,21.4494067 22.5206935,21.0454706 C23.0376866,20.6425857 23.4820096,20.2299774 23.8555796,19.8063952 C24.1288247,19.4994604 24.3734524,19.1682002 24.583247,18.8220425 C24.9270374,18.238547 25.1827383,17.6074622 25.343119,16.9449673 C25.4886366,16.3660602 25.5824318,15.733976 25.6239058,15.0493445 C25.6402978,14.7721301 25.6483527,14.4943605 25.6480397,14.2134686 C25.6536396,13.0418704 25.5840965,11.871119 25.4401719,10.7110515 C25.1165729,8.21139464 24.4173214,6.26181101 23.3525959,4.85692982 C23.2462315,4.716633 23.1348099,4.58024298 23.0202179,4.44991497 C21.8323481,3.11265811 20.2488897,2.18916689 18.4946264,1.81251629 C17.4990807,1.58712094 16.4808268,1.47750263 15.4601188,1.48584177 Z" id="2"></path>
    <path d="M13.6179296,0.000819740311 L13.7554022,0 C15.2230626,-0.00652225081 16.6849984,0.175029358 18.1072493,0.541040529 C18.6037425,0.67094777 19.0934716,0.825453838 19.5709629,1.00264466 C20.6813148,1.40482136 21.7159763,1.99118873 22.6338643,2.7390601 C23.147093,3.16244632 23.6150828,3.63785886 24.0317039,4.15940018 C24.8720667,5.22088193 25.4215126,6.48291349 25.6252121,7.81656224 C25.7167005,8.37959231 25.7617182,8.94945549 25.7599136,9.52920574 L25.7056851,12.1107569 L25.7056548,18.4232445 L25.7599136,23.3421319 C25.7613586,24.5382585 25.7293849,25.7334007 25.6639008,26.9267527 C25.5918311,28.2118821 25.4782292,29.4159951 25.3230118,30.538959 C25.118756,32.0223926 24.7799661,33.2848088 24.304523,34.3242121 C24.0993809,34.7793552 23.8504495,35.2134629 23.5638075,35.6167633 C21.5529369,38.5002758 18.1932312,39.9347569 13.5416851,39.9347569 C11.4966952,39.9347569 9.62179907,39.7792777 7.92007759,39.4681989 C7.20369599,39.3422063 6.50437162,39.1334368 5.83653805,38.846249 C5.01475408,38.493659 4.2667558,37.9893987 3.63013175,37.3583103 C2.20950811,35.9376866 1.44806006,33.9737468 1.33818503,31.4921095 L1.32736861,31.1705812 L1.31789069,29.996893 C1.29871204,28.6713649 1.23260836,27.8199412 1.12979564,27.4857998 L1.05011014,27.2268219 L1.64349767,26.5147569 L1.87768514,26.5147569 C2.40327025,26.5147569 3.11480421,26.4817886 4.01003335,26.4156596 L4.35435059,26.3893065 C4.70187411,26.3618821 5.04923081,26.3323833 5.37408017,26.3033484 C5.99723898,26.2183102 6.62272026,26.1512581 7.25059773,26.1022096 C7.84658624,26.056678 8.41353102,26.0321762 8.95468514,26.0287569 L9.30070283,26.0287569 L9.45083393,26.2173044 C9.50461131,26.2848427 9.55642209,26.3539237 9.60658835,26.4250102 C9.66972398,26.5147292 9.73721711,26.6155544 9.80938085,26.7279108 L9.96859782,26.9829073 C9.98781624,27.0150045 10.0066542,27.0476919 10.0537492,27.1294106 C10.2977537,27.658647 10.6612846,28.124015 11.1192218,28.4917109 C11.2939486,28.6346072 11.4780977,28.7655779 11.6730964,28.8853907 C11.9015912,29.0277597 12.138646,29.1559058 12.3806447,29.2680561 C12.8587213,29.4867067 13.2820623,29.5927569 13.6555791,29.5927916 C13.9589812,29.5963684 14.2602728,29.5419451 14.5364183,29.4351502 C14.8607213,29.3041529 15.1477556,29.0952743 15.3760568,28.8223612 C15.8384265,28.2829299 16.0656851,27.6693316 16.0656887,26.9588763 C16.0682437,26.2795602 15.8006917,25.6270825 15.3141343,25.1370778 C15.2376187,25.0565111 15.1575545,24.9793905 15.0777808,24.9090869 C14.7547039,24.6299251 14.3787788,24.4185959 13.9658542,24.2855227 C13.4143986,24.0994822 12.7510128,24.0047569 11.9772356,24.0047545 C11.4635191,24.0063475 10.9506724,24.0471204 10.4416305,24.1269555 C10.1950529,24.164848 9.94970175,24.2103309 9.70592635,24.2633393 L9.51601831,24.3046344 L9.3480731,24.2068349 C9.09002727,24.056567 8.88203208,23.8335298 8.75948252,23.5837151 C8.47524335,23.0612867 8.32806448,22.2749936 8.29588792,21.2059955 C8.29155994,21.0540765 8.28949225,20.9021015 8.28968611,20.7517377 C8.28881183,20.3060358 8.30851219,19.860531 8.348774,19.4161007 C8.37496162,19.1305072 8.4115312,18.8459611 8.45374014,18.5994714 L8.50024734,18.0522632 C8.5272508,17.7114609 8.54504359,17.426746 8.55369204,17.2006949 L8.56065885,16.947946 L8.49826049,15.9495722 L8.81568848,15.3147162 L9.01896355,15.2513871 C9.54966339,15.0860509 10.2819131,14.9934594 11.2257474,14.9669512 L11.6129158,14.9597433 C11.6758633,14.9591748 11.7376219,14.9589292 11.7975931,14.9590159 C12.106661,14.9490637 12.4155303,14.9336856 12.7235028,14.9129267 C13.1871153,14.8811576 13.5889349,14.8382176 13.9274542,14.7846525 L14.2508587,14.7260284 C14.7745516,14.6182092 15.2232699,14.3900474 15.6022331,14.0414402 C15.7785331,13.875721 15.9097328,13.6678396 15.9862559,13.4289317 C16.0741615,13.1701595 16.1196851,12.8569 16.1197122,12.483557 C16.12244,12.2212802 16.0836608,11.960223 16.0061074,11.714113 C15.8997916,11.3865494 15.7080239,11.0932738 15.4440338,10.8586091 C15.2464958,10.6767521 15.0215371,10.5271559 14.7809157,10.4169032 C14.5107836,10.2956377 14.2178453,10.2335326 13.9196851,10.2347569 C13.1269695,10.2347569 12.3144898,10.5163092 11.4732995,11.0935872 C11.1595039,11.306369 10.8653858,11.5468137 10.5965264,11.8100141 C10.2833024,12.1202264 10.0347691,12.44475 9.84886621,12.7845833 C9.80653377,12.8616067 9.76709765,12.9401868 9.73064056,13.0201588 L9.61486575,13.1801212 C9.48912257,13.2962175 9.34140679,13.3859618 9.19564546,13.4382886 C8.75818542,13.6124699 8.07452721,13.6907569 7.10568714,13.6906569 L4.38473102,13.6357978 L3.83282692,13.6099653 C3.48867349,13.5979555 3.0820616,13.5898604 2.61353259,13.5857396 L1.68309312,13.5827952 L1.53964106,13.4511672 C1.41096022,13.3330929 1.30948282,13.1884585 1.24861828,13.0419142 C1.11213538,12.7420993 1.03626333,12.3342835 1.01002743,11.8065602 L1,11.4231117 C1,11.3953455 1,11.3656094 1,11.3330351 L1.05370945,10.1176865 C1.04226456,8.9569222 1.25428965,7.80479945 1.67977445,6.72024451 C1.96976774,5.99894655 2.3572751,5.32080867 2.83192615,4.70418394 C3.80650576,3.44196926 5.0488881,2.41160489 6.46600644,1.68914969 C6.80965494,1.51045018 7.16105296,1.3470657 7.52034508,1.19899307 C9.36317685,0.444997472 11.3301912,0.0403945248 13.3178504,0.0058969588 L13.6179296,0.000819740311 Z M14.0276851,1.54075688 C11.8586133,1.54075688 9.90690901,1.89798847 8.16625967,2.61164258 C7.27000221,2.97211675 6.42778927,3.45457435 5.66511822,4.04407262 C5.07240029,4.50619238 4.54088411,5.04184363 4.08357127,5.63786443 C3.08900327,6.93585996 2.59356173,8.42181433 2.59356173,10.1016485 L2.63558001,12.0439705 L3.23320471,12.053536 C3.55104694,12.0607003 3.82425696,12.0714141 4.05093097,12.0856122 L4.21218124,12.0969131 L6.36055002,12.1507576 C7.02222811,12.1519022 7.68348068,12.1171336 8.34059736,12.046691 L8.52558001,12.0249705 L8.54546989,11.9902084 C8.75151017,11.6332649 8.99470918,11.2994424 9.27012452,10.9952137 L9.48264937,10.7726921 C9.75398159,10.4990702 10.0584574,10.2385321 10.3962421,9.99064285 L10.6948375,9.78076545 C11.1339211,9.48111116 11.6065056,9.23377384 12.1029695,9.04378715 C12.6996909,8.81541381 13.3328841,8.69715787 13.9736851,8.69475688 C14.9652833,8.69475688 15.8349644,9.04053372 16.5576916,9.72196218 C17.2925016,10.4147831 17.6596851,11.3484783 17.6596851,12.4887569 C17.6596851,13.2016083 17.5435935,13.810806 17.3052364,14.3123536 C17.1825946,14.5734192 17.0183999,14.8128525 16.8178453,15.0225777 C16.2819521,15.5790822 15.6365318,15.9434323 14.8900224,16.1093184 C14.6533624,16.1608284 14.4150099,16.2042288 14.1774648,16.2391333 C13.7854003,16.2984371 13.3378744,16.3491289 12.834504,16.3913719 L12.2806402,16.4330062 L11.5599167,16.4805541 C11.1218842,16.5123176 10.7430995,16.5469689 10.4245319,16.5842416 L10.07158,16.6299705 L10.0996851,17.0787569 C10.0996851,17.6192656 10.063659,18.1596814 9.99259909,18.6936548 L9.93275087,19.0928277 L9.90256237,19.3139676 L9.82662701,19.9419726 C9.7928745,20.2457452 9.77568514,20.6239111 9.77568082,21.0768356 C9.77428416,21.4127709 9.80172326,21.7482063 9.85773631,22.0796874 C9.88408619,22.2360845 9.91898308,22.3907985 9.96223174,22.5431415 L9.98758001,22.6259705 L10.5047911,22.5610044 C11.0638326,22.4969762 11.5537049,22.4647569 11.9721493,22.4647694 C12.5123941,22.4609488 13.0516776,22.5109155 13.5854779,22.614614 C14.2383569,22.7462077 14.8225663,22.9652862 15.3351053,23.2725149 C15.6067631,23.4347975 15.8610724,23.6244965 16.0928428,23.8375351 C17.0023828,24.6680885 17.542531,25.8275098 17.5926166,27.0460853 C17.6013527,27.1794963 17.6057113,27.3131579 17.6056851,27.4467569 C17.6056851,28.4726916 17.2792313,29.3362147 16.6238846,30.0126565 C16.2771621,30.3626303 15.8518811,30.6247506 15.3916129,30.7744667 C14.9041769,30.9424701 14.3414535,31.0247569 13.7036851,31.0247569 C12.7662435,31.0247569 11.8237509,30.7347838 10.8804,30.1636764 L10.6231044,30.0009562 C10.5641343,29.9620035 10.505657,29.9223098 10.4504291,29.8837836 C10.09896,29.6421591 9.77141764,29.3674579 9.47020082,29.0613096 C9.05951101,28.6389176 8.7477519,28.1843466 8.53792719,27.6990357 L8.48858001,27.5759705 L8.28730819,27.5849964 C8.09350211,27.5958042 7.89155976,27.6119881 7.68211368,27.6334922 L7.33970251,27.6728958 L6.35965315,27.8028706 L6.16697609,27.8327469 C5.26799522,27.9734037 4.46320852,28.0603248 3.75263503,28.093183 L3.43650072,28.1046518 L3.01626674,28.1083498 L2.78158001,28.1029705 C2.80444793,28.2975354 2.82367963,28.4992693 2.84012398,28.7107919 L2.86270102,29.0354016 L2.90364384,29.7698223 C2.91049782,29.9204614 2.9148144,30.0464697 2.91659107,30.1480581 L2.91715377,30.2317114 C2.9393343,30.712433 2.97311298,31.1925494 3.01836723,31.670668 C3.05944083,32.0957472 3.10888175,32.491925 3.16684043,32.8605299 C3.21889041,33.1979533 3.28439136,33.533164 3.36279696,33.86373 C3.5748445,34.7445428 4.02325098,35.5272159 4.71523853,36.2192035 L4.86168514,36.3656501 L4.86158001,36.4159705 L4.92095608,36.4565082 C5.56617559,36.8740779 6.33997057,37.2317989 7.24273706,37.5280859 L7.63753435,37.6513001 C7.90574476,37.7306512 8.17593938,37.8031346 8.44817942,37.8687578 C10.0485382,38.2556577 11.692151,38.449422 13.3815168,38.449422 C14.238276,38.4524208 15.0933394,38.4027243 15.939569,38.3006303 C17.9169287,38.0530605 19.4518923,37.4952654 20.5511154,36.6375477 C22.09482,35.4331188 23.0850285,33.8081613 23.5283744,31.7449222 C23.6827558,31.0103407 23.803781,30.2691428 23.8913183,29.5215912 C24.1100081,27.7173998 24.2197189,25.5492965 24.2197189,23.0245704 L24.1656851,18.3747569 L24.1657065,10.0001376 C24.1737228,9.1324731 24.0721414,8.26726896 23.8624258,7.42116918 C23.505283,5.92936802 22.6423502,4.60736538 21.4197735,3.6795565 C19.5513654,2.25682373 17.0925817,1.54075688 14.0276851,1.54075688 Z" id="3"></path>
    <path d="M22.4945164,0 L23.0794979,0.584981541 L23.0578398,0.818699475 L23.0321595,1.12690902 L23.012136,1.43647971 C22.9721007,2.12758123 22.9519729,3.02277436 22.9494915,4.17031519 C22.9155129,4.51010081 22.8979729,5.05384184 22.8977014,5.8110379 L22.7355751,10.7285039 L22.6397149,13.3084385 C22.5905912,14.75303 22.5565732,16.0115432 22.5376567,17.0839035 L22.5319105,17.4344622 C22.5243875,17.9106121 22.5204081,18.3868114 22.5199729,18.8627708 C22.5198942,19.0523048 22.5221777,19.2418324 22.5268206,19.4312214 L22.5423536,19.8438603 C22.5457013,19.9076205 22.5494241,19.9688617 22.5535156,20.0275655 L22.5638757,20.1551766 L22.7356597,20.1480178 L22.9910699,20.1445641 C23.2721528,20.1440565 23.5532176,20.1491792 23.8351523,20.1599707 L24.2976837,20.1855739 C25.2454658,20.2543209 25.8430785,20.4125621 26.1535263,20.7230099 L26.3086132,20.8780968 L25.9755454,28.9272353 L25.9231865,29.1301701 C25.6719727,29.6325978 25.1055675,29.8385633 24.2868359,29.838562 C24.1339169,29.8382143 23.9810868,29.8322964 23.8293156,29.8208987 L23.4996104,29.7878488 L23.1452219,29.7484356 L22.769776,29.7308536 L22.5608757,29.7331766 L22.5350937,29.9282024 C22.4459227,30.6134137 22.37375,31.5289605 22.3196573,32.6636075 L22.3039729,33.0105633 L22.3004654,33.5047951 C22.2934141,33.9691364 22.2756223,34.3446228 22.2461094,34.6386002 L22.2001699,35.0374327 C22.1850891,35.179256 22.1729352,35.3105413 22.1636936,35.4310914 L22.1404898,35.9110362 C22.1398389,35.9336337 22.1390664,35.9591569 22.1381118,35.9885807 C21.9964632,37.1217701 21.9259729,37.9852758 21.9254462,38.5955074 C21.9147141,38.8291362 21.7993183,39.0455033 21.6393686,39.1621916 C21.4181664,39.3517935 21.0799643,39.4774711 20.601767,39.5739064 C20.4878371,39.5966286 20.3733866,39.6166574 20.2577221,39.6340945 C19.8842999,39.6897828 19.5089704,39.7318307 19.1339694,39.7600403 C18.7324219,39.7914539 18.3045297,39.8122353 17.8491255,39.8224602 L17.2139729,39.8285812 L16.2696115,39.82366 C15.7826513,39.8181875 15.3584351,39.8081433 14.9966401,39.7934894 L13.6984433,39.7281019 L13.3793283,39.7205629 L13.221859,39.694905 L12.9478821,39.6035794 L12.8104195,39.4661167 L12.6997346,39.2982587 L12.5917346,39.0282587 L12.5858757,39.0001766 L12.5718762,38.9820608 C12.5426395,38.9324398 12.5213169,38.8753155 12.5103504,38.8105232 L12.5019729,38.7075633 L12.5019729,38.1805633 L12.5598757,38.1801766 L12.5625882,38.0056077 L12.5812966,37.331575 C12.593424,36.994703 12.6098824,36.6453124 12.6306701,36.2833689 L12.7941919,33.8808844 L12.9879729,31.3905633 L12.9879738,30.1765305 C12.9876359,30.001846 12.9933503,29.8272022 13.0051934,29.6516488 L13.0244079,29.4347992 L13.0358757,29.3441766 L9.47291699,29.2982001 L9.01367984,29.2831682 C8.43933282,29.2670575 7.7300388,29.2559425 6.88631466,29.2498571 L5.29609355,29.2443034 L3.60613957,29.2985633 L3.2312569,29.2922838 L2.9648214,29.2788835 C2.92301113,29.2759745 2.88248633,29.27272 2.84322846,29.2691086 L2.70187572,29.2531766 L2.7019729,30.8082248 L1.74586354,28.6794151 C1.67090022,28.5125067 1.608135,28.3403837 1.55909982,28.1679978 C1.40878317,27.6543565 1.28742096,26.9573906 1.19184733,26.0710999 C1.06392785,24.8832761 1,23.6864051 1,22.4753572 C1.00976654,21.5374226 1.18091646,20.6081686 1.50390442,19.7339492 C1.90439371,18.6084002 2.5430338,17.446262 3.38222185,16.3026158 C6.23419471,11.0318812 9.50069245,5.67193738 13.181644,0.222685542 L13.2738757,0.28017661 L13.4157854,0.11056333 L15.1437825,0.106280391 C16.3133078,0.0990090758 17.234017,0.0824707767 17.9098005,0.0566014299 L22.4945164,0 Z M21.4418757,1.54217661 L19.6110631,1.55602876 C18.9376145,1.56501363 18.3752322,1.57850281 17.9225513,1.59652005 L14.0808757,1.64717661 L13.6369289,2.30796693 C11.4728118,5.55182214 9.26932636,9.09262874 7.0240564,12.9346072 L6.22560746,14.3075975 C6.06082228,14.5977797 5.86969928,14.9513963 5.6527895,15.3674713 L5.06071937,16.5278112 L4.77708885,17.0217493 C4.63631999,17.2740493 4.46740053,17.5843232 4.27065399,17.9520388 L4.02122184,18.4208354 C3.80139785,18.8375888 3.57188215,19.2491575 3.33230308,19.6561531 C3.1377274,19.9850422 2.94440902,20.2954049 2.75229876,20.5872655 L2.62987572,20.7691766 C2.61103027,20.9928447 2.59856246,21.4373978 2.59475387,22.0836589 L2.59383946,22.4809365 C2.59347443,23.0157864 2.59978331,23.5496191 2.6128104,24.0818166 L2.63378254,24.7246816 C2.67936122,25.8542731 2.7640752,26.7143119 2.88663324,27.3034194 L2.92099546,27.4573667 C2.93267339,27.5121744 2.94654032,27.5664459 2.96255235,27.6200533 L2.99487572,27.7151766 L3.19001543,27.7494514 C3.42538205,27.7865044 3.68262463,27.8149049 3.96146263,27.8344647 L4.24748871,27.8510705 C4.4832858,27.8616997 4.71929747,27.8668654 4.9559729,27.8665633 L5.44070065,27.8626579 C5.78770644,27.85745 6.18238581,27.8470324 6.62453275,27.8313977 L7.80077907,27.7824885 L9.46480942,27.6989864 C9.82063762,27.6829025 10.1361756,27.6708494 10.4115162,27.6628303 L11.0178746,27.6510675 L11.1111582,27.650564 C11.4281242,27.6500475 11.7450746,27.6551432 12.0627407,27.6658791 C13.4148205,27.7139564 14.2117013,27.8627123 14.5895263,28.2210099 L14.7439729,28.3754565 L14.7439729,28.5825633 C14.7439729,29.6757755 14.6491026,31.2349573 14.4596603,33.2648488 L14.3442623,34.4878331 L14.2762707,35.2687858 C14.1935252,36.2690142 14.1393297,37.1202789 14.1135977,37.8229306 L14.1008757,38.2031766 L16.0909575,38.2923088 C16.8354492,38.3228493 17.3470496,38.3395004 17.6246824,38.342276 L17.7009521,38.3427574 C18.0793543,38.3434335 18.4571692,38.3320517 18.832404,38.3086252 C19.3334287,38.27592 19.7733239,38.2200589 20.1516415,38.1418246 L20.3938757,38.0861766 L20.4036842,37.8579023 C20.4294314,37.3757278 20.4826393,36.7926322 20.5608156,36.1466304 L20.6019729,35.8185633 C20.6019729,35.62288 20.6165796,35.3747557 20.6455411,35.0717065 L20.6699499,34.8340823 C20.6836172,34.7093977 20.6982532,34.5848212 20.713031,34.4673476 C20.73407,34.2779965 20.7488939,34.0134334 20.7569805,33.676518 L20.7643724,32.9905793 C20.8321689,31.2956685 20.9476011,30.0055131 21.1133408,29.1117952 L21.1825531,28.7682484 L21.286126,28.6633184 C21.3645237,28.5838935 21.4507082,28.5125519 21.5423615,28.4510546 C21.6781726,28.3594418 21.8297403,28.2937081 21.9934974,28.2562509 C22.1083975,28.2309619 22.2314046,28.21314 22.3631264,28.2024432 L22.6046405,28.1910077 L22.6654054,28.1905699 C22.9825108,28.1889416 23.2981998,28.2277911 23.6063046,28.306408 L23.7618757,28.3511766 L23.9022429,28.3496656 L24.1073622,28.3397627 C24.2202288,28.3319311 24.322982,28.320702 24.4153771,28.3064003 L24.4518757,28.2991766 L24.7378757,21.8271766 L23.7467571,21.7895052 C23.557406,21.7684662 23.292843,21.7536423 22.9559276,21.7455557 L22.4899298,21.7374875 C22.4410756,21.7362017 22.400077,21.7344377 22.3721724,21.7317603 L21.8658516,21.8161471 L21.7076054,21.720636 C21.5207986,21.6078869 21.3703436,21.4438105 21.2836112,21.266229 C21.1149752,20.9557855 21.0226069,20.5271103 20.9916072,19.9660608 L20.9804049,19.6122168 L20.9806225,19.1480305 C20.9862521,17.547733 21.0284728,15.5662359 21.1072489,13.2029538 C21.1345063,12.3828737 21.164209,11.5628767 21.1962328,10.7464427 L21.3579729,5.74056333 L21.3606836,5.21186271 C21.3669939,4.63353259 21.3842701,4.19165418 21.4119729,3.90456333 L21.4196537,2.58075284 C21.4234993,2.285827 21.4287927,2.01787883 21.4355426,1.77681288 L21.4418757,1.54217661 Z M15.5293777,8.6966756 L15.6529914,8.69405559 L15.8278757,8.78217661 L15.8424075,8.76901266 L15.8418757,8.78817661 L15.9795797,8.85734973 L16.1095263,8.95100994 L16.2469889,9.08847257 L16.3383146,9.36244945 L16.3639729,9.52056333 L16.2001531,21.2638818 L16.1386013,21.3741936 C16.0327221,21.5639476 15.8643724,21.7111593 15.6995427,21.7742826 C15.2443059,21.9980561 14.4040349,22.1022836 13.1221947,22.1151856 L12.158999,22.1259916 L11.339651,22.1434269 C11.2223836,22.1461666 11.1076924,22.1475633 10.9949729,22.1475633 C10.3118219,22.1475633 9.70025427,22.0988761 9.15977173,22.0005421 C8.61962355,21.9026073 8.20272754,21.7596046 7.90590709,21.5594418 C7.82602389,21.5065414 7.75142934,21.4460594 7.68315961,21.3788357 L7.49251475,21.1911121 L7.5429293,20.9283499 C7.57809017,20.7450903 7.63289258,20.5661521 7.7045975,20.3988648 C7.81178663,20.1422234 7.96298928,19.8736697 8.15774608,19.5916384 L8.33761241,19.3433897 L8.78205595,18.7460747 C8.84288636,18.6620167 8.8951137,18.5883031 8.93835859,18.5255315 L9.05489427,18.3497419 L10.3954817,15.9375176 L10.7238454,15.318661 L11.2949095,14.274523 C11.4981253,13.9052015 11.7057869,13.5383438 11.9181311,13.1735462 C12.17734,12.7293809 12.4250858,12.3221044 12.6615237,11.9515269 C12.9634539,11.4785492 13.2538973,11.0765309 13.5329837,10.7461302 L13.7070651,10.5473565 L13.8318757,10.4151766 L13.9374873,10.2126647 L14.0879814,9.94280293 C14.4317162,9.35299399 14.7566573,8.97382908 15.0981272,8.80704303 C15.2314953,8.73762692 15.3790597,8.69986161 15.5293777,8.6966756 Z M14.8018757,11.4481766 L14.7077585,11.5900757 C14.5526816,11.8241966 14.3942817,12.0798078 14.2325968,12.3569884 L13.8158628,13.0957242 L12.9939721,14.5915628 L12.551858,15.3045007 C11.72014,16.6556196 10.771967,18.2490879 9.70750763,20.0846724 L9.49287572,20.4551766 L9.82062732,20.4852189 C10.4597846,20.5373606 11.1849328,20.5672526 11.995802,20.5747292 L12.4083788,20.5766086 C12.7404888,20.5768683 13.0723109,20.5716135 13.4031069,20.5608479 C13.7873336,20.5478798 14.1351949,20.5269683 14.446321,20.4982743 L14.6678757,20.4751766 L14.8018757,11.4481766 Z" id="4"></path>
    <path d="M25.0361604,1 L25.5990536,1.56289322 L25.5989564,1.76361328 L25.6108429,1.80711823 L25.6323415,1.92963772 C25.6714123,2.18589611 25.6944868,2.5838746 25.7031361,3.13256979 L25.7070534,3.66039207 C25.7062364,4.70236012 25.6790069,5.74414005 25.625421,6.78414342 L25.599368,7.2580261 C25.5592327,7.92259766 25.5137981,8.38138022 25.455664,8.6660588 L25.4369564,8.74461328 L25.4370536,9.762 L25.4013642,9.94751462 C25.1779476,10.5066871 24.468157,10.720647 23.2260852,10.7844221 C22.9681491,10.7968337 22.7099394,10.8026943 22.4441264,10.8019203 L19.4295503,10.7479998 L18.9838725,10.7499588 L18.5378189,10.7549542 C17.556638,10.7682314 16.3114925,10.8018031 14.7909355,10.8559654 L10.7119564,10.9036133 L10.7173932,10.995286 C10.7292441,11.1403408 10.7458651,11.2738237 10.7669232,11.3954548 L10.8009564,11.5686133 L10.9247061,11.5457409 C11.6703057,11.4221436 12.4237175,11.3479902 13.1833878,11.3232824 L13.7542896,11.3140227 C14.9714809,11.3024249 16.1856008,11.4382146 17.3616076,11.7164857 C20.0623904,12.3055765 22.3594828,14.0689931 23.6254938,16.5240005 C24.5812042,18.358639 25.2720318,20.3194866 25.6765895,22.3442425 C26.0281094,24.0353383 26.2310448,25.8505771 26.2858563,27.7899566 C26.2960738,28.1535956 26.3012397,28.5163007 26.3012397,28.8771048 C26.3023398,29.5150364 26.2801989,30.1523114 26.234689,30.7889149 C26.2013793,31.2388517 26.1556985,31.670573 26.0976284,32.0839163 L26.0162863,32.6049564 L25.996674,32.7165869 C25.9063375,33.2365453 25.7584309,33.7448388 25.5554511,34.2326456 C25.3362823,34.7575679 25.0380532,35.2458485 24.6777177,35.6725477 C22.194973,38.740298 18.5542687,40.6352515 14.6412289,40.9156459 L14.2617272,40.9377258 C13.7920525,40.9713214 13.3182897,40.9880044 12.8410536,40.9880044 C10.9104749,40.9880044 9.06094025,40.6627071 7.29846256,40.0133604 C6.24110578,39.6321246 5.24730249,39.0935792 4.34851161,38.4143189 C3.81357882,38.0056432 3.32126633,37.5440121 2.87923855,37.0366494 C1.79158592,35.7895946 1.16965511,34.2041839 1.1196382,32.5591721 C1.11252242,32.4121542 1.10899317,32.2649847 1.1090537,32.1183536 C1.10875423,31.6949134 1.11278692,31.2714812 1.12115947,30.8477099 L1.13652014,30.2747701 C1.18241136,28.913302 1.28472801,28.0825193 1.4491798,27.7615921 C1.521443,27.5005751 1.73572157,27.303282 2.09533565,27.2440001 C2.61670931,27.2442942 3.13807874,27.2409755 3.65909046,27.2340485 L4.57620287,27.216378 L5.21684403,27.1976191 L6.44643784,27.1499738 C6.76425885,27.1365224 7.05926412,27.1230763 7.33143353,27.1096374 L10.0125296,26.9623692 L10.5870536,27.5368932 L10.5869564,27.7396133 L10.6009123,27.7726247 C10.659156,27.927124 10.7185166,28.162347 10.7832884,28.4898103 L10.850023,28.8484468 C10.8864428,29.0633258 10.9474934,29.2732945 11.031989,29.4742513 C11.1251394,29.6958597 11.257421,29.8988903 11.4166779,30.067565 C11.5372899,30.1910036 11.684662,30.2850659 11.8557142,30.3454985 C12.0992096,30.4362753 12.409701,30.484 12.7945824,30.4840567 C13.2403359,30.4907695 13.6817297,30.3955383 14.079965,30.2080696 C14.4669004,30.0205157 14.8099052,29.7357196 15.1115035,29.3478677 L15.2124118,29.2123058 C15.6505081,28.5863338 15.94313,27.870344 16.0694354,27.1134003 C16.1415721,26.6982603 16.176917,26.2775622 16.1750693,25.8500399 C16.1788758,25.3694429 16.1272968,24.8900076 16.0222718,24.425208 C15.8509406,23.6949537 15.5366071,23.0866712 15.0774979,22.5909732 L14.9244354,22.4343551 C14.2591527,21.7944334 13.308444,21.4044145 12.0563216,21.2734196 C11.7253957,21.2396684 11.3929369,21.2231723 11.0590536,21.224 L10.7898031,21.2271759 C10.1446433,21.2409387 9.09822022,21.2994341 7.65697951,21.4027077 L6.45657631,21.4922729 L5.10285976,21.6005686 C4.81633718,21.6222955 4.52938204,21.6376035 4.24239754,21.646482 L3.70968848,21.6557332 L3.60822777,21.6559986 C3.38583838,21.6565209 3.16350095,21.6491214 2.94031801,21.6337213 C2.21466899,21.5817254 1.69015295,21.4375836 1.35266253,21.1645973 C1.31914854,21.1376387 1.28707286,21.1089394 1.25656788,21.0786179 L1.10905357,20.9319905 L1.09898083,15.9532849 C1.09450424,15.022496 1.08853563,14.1779536 1.08107526,13.4196569 C1.07494252,12.7612339 1.06629253,12.1028367 1.05506202,11.4389069 L1,1.96823932 L1.5368661,1.324 L1.77105357,1.324 C4.84888937,1.324 7.91519863,1.28948251 10.9699578,1.22044865 L15.4892167,1.10619823 L18.0428213,1.05408524 L19.1983583,1.03515059 L20.3539068,1.02102649 C21.5211608,1.00901064 22.7838561,1.00214536 24.1420173,1.00042907 L25.0361604,1 Z M24.1089564,2.54061328 L22.3673549,2.54647183 C20.1194933,2.55941552 17.8651406,2.59177487 15.6042767,2.64355067 L10.5983196,2.76974239 L7.58358306,2.82779124 C6.49639759,2.84388589 5.31290425,2.85461379 4.03306845,2.85997743 L2.54395639,2.86261328 L2.59497095,11.4809106 L2.61801019,13.1034727 C2.63125037,14.3055475 2.64025276,15.7483879 2.64502235,17.4321879 L2.64795639,20.0046133 L3.84816183,19.9856535 C4.45946433,19.9723698 5.16127263,19.9530452 5.953485,19.9276781 L8.24619814,19.8532207 L9.72973453,19.8145755 C10.0666731,19.8072864 10.3781481,19.8017768 10.6641494,19.7980477 L11.4873703,19.7920136 C12.0555126,19.7878282 12.6226966,19.8393581 13.1846207,19.9466117 C14.4448806,20.1973517 15.4458352,20.7547984 16.1699553,21.6210694 C16.8142649,22.4031276 17.2585983,23.3302212 17.4638969,24.3189657 C17.5991952,24.9486619 17.6653026,25.5912536 17.6610273,26.2268705 C17.669819,27.0838116 17.5089094,27.9340184 17.1858855,28.7326019 C16.9647475,29.2656269 16.6698419,29.7649514 16.3170759,30.2066189 C15.544717,31.2224712 14.3730064,31.8573701 13.107377,31.9491195 C12.9469399,31.9630734 12.7859717,31.9700401 12.6303886,31.9699715 C12.2614234,31.9739087 11.8942156,31.9186301 11.5380873,31.8047226 C11.0055177,31.6286294 10.5351406,31.3024677 10.1846622,30.8668843 C9.87227359,30.4815712 9.62514221,30.0476677 9.45470551,29.5867239 C9.35126418,29.3147115 9.26633899,29.0247061 9.19973873,28.7170259 L9.16295639,28.5286133 L2.90495639,28.7656133 L2.87513117,29.2547386 C2.86336591,29.4101803 2.84911027,29.5771858 2.83223317,29.7568513 L2.80493505,30.0359813 C2.70104844,30.6939299 2.64905357,31.3698631 2.64903386,32.06844 C2.64295733,32.7527125 2.73970308,33.4340162 2.93521377,34.0868397 C3.15998292,34.8221673 3.53600491,35.5023798 4.03848282,36.0830562 C4.83038708,36.9944556 5.81056551,37.7232319 6.91489546,38.2207038 C7.18644552,38.3455365 7.46329467,38.4585037 7.74522609,38.5594889 C9.29274926,39.1159018 10.9005047,39.394 12.5710536,39.394 C14.4247404,39.394 16.2338672,39.0968487 18.0026781,38.5014129 C18.7230025,38.2625497 19.4229144,37.966048 20.093633,37.6158294 C20.8359408,37.2239674 21.4873302,36.7794488 22.0483169,36.2829 L22.2217679,36.1247328 C22.7215819,35.6629988 23.1583933,35.1374354 23.5198977,34.5632515 C23.873076,33.9974214 24.1327583,33.3783713 24.2888599,32.7303135 C24.6024999,31.4234802 24.7610536,29.7058157 24.7610619,27.5791141 C24.7708263,25.887388 24.6079081,24.1990822 24.2746986,22.5397346 C23.8927133,20.6232336 23.2039096,18.7809467 22.235116,17.0843913 C21.0476656,15.009925 19.0030441,13.5673117 16.6381356,13.1417097 C15.6745023,12.9431268 14.6926187,12.846686 13.704952,12.854 C13.5716784,12.8539729 13.4384166,12.8565173 13.3043899,12.8616637 C13.1692468,12.866623 13.0453237,12.8745318 12.9325586,12.8853227 L12.585881,12.9289808 L12.0751116,13.0062903 C11.5029829,13.1207161 10.9301437,13.178 10.3570536,13.178 C9.76381682,13.178 9.42190217,12.7117527 9.2730065,11.9672667 C9.21172748,11.6647522 9.16582518,11.3593254 9.13542168,11.0516055 C9.11286486,10.820665 9.10139584,10.5887756 9.10105357,10.356 L9.10105357,10.012975 L9.63462902,9.3726845 L14.5518224,9.316297 L16.4774738,9.25614333 C17.6498059,9.22406304 18.5998669,9.2080347 19.3312555,9.20810409 L21.9678347,9.26200061 C22.3158282,9.26254424 22.6637344,9.25092585 23.0101457,9.22722005 C23.2468576,9.2106534 23.4722467,9.1881201 23.6862713,9.15967899 L23.8999564,9.12661328 L23.9041313,8.86218303 C23.911587,8.4394448 23.9253335,7.94198424 23.9453686,7.36966175 L24.0664929,4.29320694 C24.0826218,3.81774427 24.0945583,3.3865382 24.1023055,2.99967213 L24.1089564,2.54061328 Z" id="5"></path>
    <path d="M14.486,0 C16.6253703,0 18.4875357,0.47263081 20.0630063,1.42170951 C21.6350134,2.36870171 22.8421742,3.64239898 23.6775614,5.23723322 C24.4407627,6.70419763 24.8634452,8.32256088 24.9163649,9.97108992 L24.922,10.4358203 C24.922081,10.6613544 24.9186692,10.8868763 24.9117659,11.112299 L24.8952204,11.4988171 L24.8838683,11.6776212 C24.8727732,11.84225 24.8572598,12.0065514 24.8374836,12.1691953 C24.8187302,12.3264835 24.7873046,12.4820002 24.7426619,12.6371539 C24.6481999,12.9581498 24.4982634,13.2268433 24.2895534,13.4355534 L24.1748211,13.5502856 L24.0145816,13.5757863 C22.777393,13.7726737 21.0522137,13.8931292 18.8329707,13.9389006 L17.739377,13.9550808 L16.4116856,13.9598476 L15.876,13.317025 L15.876,13.136 C15.876,12.1440022 15.6471683,11.2695382 15.1904282,10.5028672 C14.8175976,9.8769273 14.3006373,9.54890152 13.5967518,9.4882119 C13.5155213,9.48132358 13.4340331,9.47791641 13.352,9.478 C11.5562679,9.478 10.612,11.2878469 10.612,15.188 L10.6158128,15.6928909 C10.6297977,16.6705068 10.6822776,17.9343361 10.7736574,19.4894942 L10.7989028,20.1886133 L10.9768778,20.1087577 C11.8637705,19.7243584 12.7844044,19.4214479 13.7280451,19.2038384 L14.201733,19.1021597 C15.0782278,18.9320412 15.9690015,18.8462629 16.8588625,18.8460098 C17.9498925,18.8391636 19.0350375,19.0063 20.0755543,19.3418128 C20.4124095,19.4520836 20.7428639,19.5810242 21.0654054,19.7280462 C22.3727726,20.3240518 23.451159,21.2387545 24.2946536,22.465658 C24.798667,23.202293 25.1482669,24.008315 25.3421348,24.8807207 C25.4693287,25.4541246 25.5786027,26.1237695 25.6705385,26.8912672 C25.7140457,27.2590858 25.7519063,27.6275503 25.7853762,28.0150312 L25.8399842,29.1160235 C25.8480209,30.1265305 25.7161377,31.1332861 25.447636,32.1092637 C25.136894,33.2239698 24.610409,34.2668565 23.8967565,35.1804226 C22.7725317,36.6074243 21.3151053,37.7365432 19.6571391,38.466529 C19.3726389,38.5952729 19.0837482,38.7140853 18.7911974,38.8226739 C16.6996404,39.6000668 14.3997508,39.988 11.8981868,39.9879825 C10.8738425,39.9965601 9.85183038,39.8889249 8.8474285,39.6661629 C7.43739962,39.3403395 6.21865477,38.7673527 5.19668329,37.9466571 C4.79425397,37.6230704 4.42317268,37.2623267 4.08761934,36.8683401 C2.47702267,34.9686359 1.36877317,32.6952124 0.865465889,30.2614632 C0.818548381,30.0461701 0.775661142,29.8300185 0.73680394,29.6129945 C0.297389435,27.1551363 0.0548486483,24.4038482 0.0085057044,21.3589841 L0.000598218068,20.5043196 L0,20.264 C0,18.561197 0.0543500441,16.8763456 0.162277547,15.2253426 L0.216141663,13.6100986 L0.253621529,12.3174263 C0.286596019,11.3705073 0.328501622,10.5600125 0.379405884,9.88553125 C0.442841132,9.04140279 0.575092968,8.35367498 0.782036145,7.81893086 L0.887902817,7.57161328 L0.928977705,7.38478803 C1.18267273,6.35677333 1.77971846,5.38976851 2.70920677,4.48513181 L2.94849842,4.26027276 C3.20121078,4.03157255 3.46429773,3.81460443 3.73624865,3.61056462 C5.30717537,2.4277492 6.91075111,1.55644215 8.55323567,0.996554942 C9.66155142,0.63578194 10.7976075,0.36658083 11.9507847,0.191538585 C12.6219173,0.0908061592 13.2982516,0.0296876917 13.9762753,0.00844864189 L14.486,0 Z M14.054,1.486 C12.20669,1.486 10.376079,1.8259706 8.55629393,2.50837703 C7.27288958,2.97947546 6.07901238,3.66554088 5.02769342,4.53560882 C4.67407152,4.83123346 4.33901702,5.14838427 4.02436773,5.48533038 C2.82111318,6.77332116 2.13884571,8.27262499 1.97102629,9.98118914 L1.8625936,11.7154756 C1.67055283,14.2704818 1.55200115,16.5614845 1.5068702,18.5883924 C1.49332011,19.1829346 1.48636292,19.7776088 1.48599643,20.3738885 C1.47872982,22.2978173 1.5933702,24.2202737 1.82897444,26.1276805 C2.07668643,28.0679816 2.45823082,29.8598952 2.97330177,31.5040603 C3.16915472,32.1317035 3.39044634,32.7511239 3.64001523,33.3694033 C4.1185093,34.6206249 4.90361599,35.7316189 5.91808587,36.596053 C7.40346179,37.8272938 9.40695123,38.448 11.948,38.448 C15.4586149,38.448 18.3773153,37.6758775 20.7126499,36.1399749 L20.8552197,36.0449643 C22.7320247,34.823218 23.9626938,32.8248424 24.2101782,30.5894959 C24.2711619,30.1207349 24.3011943,29.6482638 24.3007323,29.1990153 L24.2486182,28.1451014 C24.2109081,27.7780605 24.1660255,27.411792 24.1140579,27.046939 C24.0573394,26.651213 23.9942265,26.2803435 23.9246626,25.9338226 C23.8943649,25.7819546 23.8617608,25.6305557 23.8273205,25.4816433 C23.6982878,24.9338781 23.5217091,24.3984153 23.299241,23.880524 C23.2070191,23.6647751 23.1082461,23.4518856 23.0121691,23.2594624 C22.7904828,22.8574904 22.4917372,22.5031573 22.1283371,22.2129427 C21.8378079,21.9751818 21.4955439,21.7554833 21.1025322,21.5552782 C20.8748106,21.4402292 20.6419071,21.3357374 20.4033322,21.241648 C19.0563275,20.7063 17.7505983,20.44 16.484,20.44 C14.2714049,20.44 12.2742405,20.9909419 10.4820487,22.0938292 L10.3404263,22.1809814 L10.1748164,22.1659543 C10.0673156,22.149489 10.0673156,22.149489 9.98381697,22.1154091 C9.91206842,22.0833111 9.8241695,22.0302688 9.70387457,21.9488522 L9.49761253,21.8050321 L9.288,21.655489 L9.288,21.398 C9.288,20.8714219 9.26083927,20.2884282 9.20652625,19.6508118 L9.12600056,18.806749 L9.121178,18.4833404 L9.10905488,18.139953 C9.09848783,17.8918483 9.08294961,17.6054192 9.06243285,17.280875 L9.04611169,17.0303235 C9.02671016,16.7398621 9.01018849,16.4492156 8.99655795,16.1586143 L8.97532383,15.6092684 L8.9691188,15.3528988 C8.96596506,15.2082507 8.96425897,15.0635745 8.96400455,14.9201329 C8.96146739,14.3253819 8.99464136,13.7310149 9.06363404,13.1378266 C9.22809518,11.7811987 9.59666699,10.6819306 10.1779736,9.8442944 L10.2764635,9.70741217 C10.5243357,9.37099368 10.8087142,9.06307029 11.1277312,8.78640867 C11.8284405,8.18939522 12.6116252,7.884 13.4612518,7.88400157 C14.2162847,7.88589195 14.9462515,8.15511446 15.5158946,8.63906865 C15.7800619,8.85666525 16.0195795,9.10256499 16.2298467,9.37196626 C16.7629458,10.0535777 17.1245997,10.853222 17.2836168,11.6995884 C17.322755,11.8987542 17.3533841,12.0994046 17.375444,12.3009928 L17.3859028,12.4196133 L19.5089273,12.4200009 C20.194775,12.4212729 20.8803243,12.3957944 21.5638002,12.3436657 L22.2465193,12.2826573 C22.5449431,12.251767 22.8426911,12.2148019 23.1395784,12.1717868 L23.2589028,12.1526133 L23.2697457,12.1108512 C23.3497739,11.7521651 23.4085728,11.3892182 23.4458098,11.0243418 L23.475847,10.6589086 C23.4854053,10.4949073 23.490125,10.3306597 23.49,10.166 C23.49,8.52940492 23.0830581,7.05424048 22.2681708,5.73004871 C21.4523256,4.40430014 20.3234261,3.36876828 18.8731464,2.61803529 C17.4153998,1.86343704 15.8112924,1.486 14.054,1.486 Z M16.268,24.786 C17.8649984,24.786 18.9025914,25.5030494 19.2412267,26.8917053 C19.3243507,27.252365 19.3642117,27.6216435 19.3599642,27.9800209 C19.3651798,28.416132 19.2926596,28.8496847 19.1432364,29.26737 C18.9308151,29.8345332 18.5650114,30.3315357 18.0923475,30.6984344 C17.2833257,31.3456519 16.3450749,31.672 15.296,31.672 C14.3605121,31.672 13.5007391,31.385409 12.7314005,30.8185279 C11.9156784,30.2174696 11.5020006,29.3465676 11.5020006,28.2551962 C11.5031018,27.5702122 11.7688028,26.9121389 12.2350496,26.4275454 C12.4657993,26.1752591 12.7485489,25.9427845 13.0824732,25.7288643 C14.0624457,25.1016819 15.127872,24.786 16.268,24.786 Z M16.268,26.164 C15.5238074,26.164 14.8146885,26.436738 14.1244044,26.9985866 C13.954623,27.1351679 13.7951691,27.2841116 13.6496611,27.4416759 C13.326876,27.7960852 13.1680848,28.1215061 13.1513116,28.4182276 L13.1499603,28.4735599 C13.1487401,28.8670114 13.3020195,29.2452117 13.5855522,29.5359419 L13.6682938,29.6204764 C13.8695282,29.8105123 14.1142383,29.9483772 14.3873727,30.0238175 C14.6337714,30.0953346 14.9185015,30.132 15.2464607,30.1320199 C15.6091324,30.1352556 15.9699125,30.0794345 16.3110389,29.9679416 C16.5956253,29.8725142 16.8635125,29.7331094 17.1109605,29.5504339 C17.5084418,29.2658977 17.7615963,28.8217523 17.8049404,28.3238548 C17.8151687,28.2299574 17.8202021,28.1355161 17.8200239,28.04 L17.8199028,27.7466133 L17.6760762,27.473838 L17.4667567,27.0472511 C17.4105058,26.9279593 17.3499236,26.8200819 17.2817803,26.7170581 C17.1707395,26.5502433 17.054868,26.4293547 16.9375092,26.3512587 C16.781872,26.2485009 16.6028523,26.1866146 16.4109116,26.1707777 C16.363187,26.1662631 16.3154978,26.164 16.268,26.164 Z" id="6"></path>
    <path d="M16.1595141,0 C18.1989814,-0.00193454067 20.2373973,0.0580977064 22.2722892,0.180122359 C22.8568027,0.215596434 23.4409281,0.257079718 24.0245731,0.304565157 L25.11153,0.399726038 L25.5687664,0.971271542 L25.6239876,8.81268304 L25.5844836,9.01102407 C24.3909926,11.8320027 23.0619939,14.6346532 21.5975061,17.418988 C20.5924165,19.3295938 19.4217661,21.469162 18.0854568,23.8379222 C17.4494273,24.965081 16.8079548,26.0891598 16.1634114,27.2060027 L15.1573173,28.994957 L14.1570609,30.7870574 C12.8638888,33.1143677 11.7477544,35.1635545 10.8086524,36.9346036 L10.2198491,38.0534552 L9.57371032,39.3034731 L9.06221448,39.6103706 L8.92339898,39.6102037 C8.68839245,39.6099212 8.45339503,39.6131851 8.21993723,39.61995 C7.93482884,39.6290423 7.6695971,39.6432916 7.42487261,39.6626117 L6.6918251,39.7266192 L5.64984015,39.836021 C4.64587535,39.9373774 3.86661313,39.9882041 3.308,39.9882041 C1.12163581,39.9882041 0,39.6862252 0,38.7322041 L0.0465342576,38.521565 L0.640822996,37.2469285 L3.31056133,31.6100374 C4.24222527,29.6585054 5.29744923,27.4597533 6.47637933,25.0134776 L8.17745226,21.5038567 C9.80850803,18.1253215 11.2295107,15.1400479 12.4404462,12.548075 L13.3857067,10.5123842 L13.7629028,9.6887102 L13.3339729,9.68403224 C11.89397,9.66029922 10.3385639,9.59504009 8.66771313,9.4883015 L7.71169249,9.42361287 L5.29670502,9.31556547 C4.10864914,9.26786755 3.08051364,9.23605196 2.21239677,9.22011185 L1.62595129,9.21150233 L0.805598645,9.20794742 L0.246184372,8.53665029 L0.274111067,8.32021841 C0.415227621,7.22656511 0.486,6.00574158 0.486,4.65820408 L0.486691085,2.03992466 L0.540691085,1.01392466 L0.956902817,1.0247102 L0.65588936,0.774111878 L1.07581253,0.270204078 L1.31,0.270204078 C3.78675619,0.270204078 6.26351495,0.216361497 8.75113596,0.10832212 L13.0923859,0.0272670354 C13.9574946,0.014564411 14.7176512,0.00630777842 15.373737,0.00249703509 L16.1595141,0 Z M1.92210213,38.3675248 C2.27018029,38.4348388 2.62709659,38.4769389 2.99304024,38.4937818 L3.362,38.5022041 C3.77660603,38.5022041 4.40135933,38.4621182 5.23054143,38.3815579 C5.52545326,38.3528407 5.8201625,38.3220798 6.10798263,38.2900651 L6.71803857,38.2174628 C7.29954592,38.1520934 7.79554994,38.1084349 8.20733236,38.0865925 L8.44990282,38.0757102 L8.93053789,37.1324364 C9.87078144,35.3025305 11.0311194,33.1430672 12.4117475,30.6535859 L13.064603,29.4811596 C13.7129796,28.3217413 14.3659706,27.1649096 15.021479,26.0143815 L16.306967,23.7067645 C17.9503831,20.7480428 19.3115189,18.2617435 20.39026,16.2480934 C21.5413897,14.0993179 22.6202512,11.8845789 23.6268395,9.60384904 L24.0829028,8.5517102 L24.0329028,1.8777102 L23.5524819,1.83743005 C23.241667,1.81345331 22.9306459,1.79172747 22.6194065,1.77225245 L21.6850214,1.72057976 L20.5310661,1.67066372 C19.5432778,1.63426284 18.4900991,1.61085319 17.3715811,1.60044776 L15.998,1.59420408 C14.7135177,1.59420408 12.9710072,1.61595139 10.7710487,1.65945643 L6.54074879,1.74910903 C5.5643972,1.76814913 4.68312366,1.78274006 3.89685374,1.79288017 L2.05590282,1.8087102 L2.04068319,2.3484579 L2.02898372,3.14323931 L2.02670667,3.52267981 L2.026,3.90220408 C2.026,5.16257415 2.00259354,6.21434485 1.95538911,7.05956171 L1.91390282,7.6717102 L2.62665837,7.6843099 C3.48273731,7.70363616 4.51619205,7.74035413 5.72758817,7.79445681 L7.60816653,7.8853728 C9.70186964,8.02877712 11.64555,8.11478655 13.439043,8.14345414 L14.4469028,8.1527102 L15.418,6.21217009 L15.4179028,8.4947102 L15.7598525,8.9725651 L15.0364282,10.610414 C13.5811632,13.8662136 11.5618356,18.1735155 8.97712898,23.5351514 L7.15797454,27.2902825 L5.87010688,29.9002308 C4.8936875,31.8886354 3.97620066,33.7800709 3.11766794,35.5744883 L1.80390282,38.3407102 L1.92210213,38.3675248 Z" id="7"></path>
    <path d="M14.6759028,0 L15.1709563,0.000527390217 C16.5084524,0.021772796 17.8399822,0.201132384 19.1427891,0.536610066 C22.6186534,1.48635722 24.8511232,3.70074314 25.7910859,7.13878575 C26.1474186,8.51717049 26.3185475,9.93688074 26.2990263,11.3227399 L26.354,12.2179291 C26.354,13.8836992 25.9649422,15.4494194 25.187468,16.9095468 C24.5455163,18.1045512 23.7312133,19.1976018 22.7726655,20.1526767 L22.5159028,20.398 L22.6213163,20.4864003 C23.0646481,20.872585 23.4716626,21.2987852 23.8374925,21.7599802 L24.1040667,22.1123596 L24.314085,22.415694 C24.6231764,22.8869191 24.886781,23.3864551 25.1022677,23.9098253 C25.4714427,24.8190407 25.7279357,25.7700271 25.865823,26.7401645 C25.9775988,27.5108676 26.0324719,28.2887553 26.0299788,29.0613286 C26.0415627,30.3202574 25.8743365,31.574454 25.5328613,32.7879415 C25.0303455,34.5515807 24.0678308,36.1498484 22.7452973,37.4176298 C20.5564886,39.5309623 17.5152663,40.5827869 13.652416,40.5827869 C12.5884168,40.5877333 11.5271843,40.4912416 10.4805384,40.2937316 C9.11852701,40.028819 7.88632942,39.5809686 6.78600645,38.9495213 C4.88731563,37.859184 3.44307769,36.3866277 2.46232549,34.538287 C1.48756985,32.7012475 1,30.6947101 1,28.5259291 C1,26.8802542 1.29940824,25.2802914 1.89747222,23.7290629 C2.39815453,22.4304182 3.08310662,21.2790293 3.95144459,20.2773781 L4.16090282,20.043 L3.97050145,19.8245476 C3.55682478,19.3276793 3.19744523,18.7879223 2.89906282,18.2151206 L2.72740664,17.867553 C2.54262434,17.4787499 2.38044813,17.0796007 2.24261921,16.6748083 C1.84193539,15.5198395 1.59663417,14.316712 1.51306268,13.0955105 C1.49516489,12.8214315 1.48613929,12.5468452 1.486,12.2719291 C1.486,9.96472546 1.99794795,7.74007894 3.01993289,5.60320133 C4.05882101,3.43098071 5.51979607,1.91271251 7.40504035,1.06635656 C8.45677361,0.615613735 9.53823538,0.324089259 10.6493564,0.192262973 C11.0873077,0.141433889 11.5265696,0.102615393 11.9649713,0.0759559663 C12.3660321,0.0502121975 12.7928773,0.0312713664 13.2453378,0.0191157669 L13.9607302,0.00454275739 L14.6759028,0 Z M13.9211534,1.43192775 C12.8689632,1.42467598 11.8229866,1.515065 10.7959745,1.70120877 C9.65381365,1.9173624 8.64385065,2.26218126 7.76288062,2.73532583 C7.01326983,3.1342165 6.33403579,3.653164 5.75287109,4.27079028 C3.97327587,6.17016595 3.08,8.73833409 3.08,12.0019291 C3.08,13.5306306 3.31384971,14.9597122 3.78181802,16.2943157 C4.01739641,16.9792882 4.33512174,17.6331854 4.72707041,18.2402021 C5.03124278,18.7075913 5.38750012,19.1389329 5.78899719,19.5259389 L5.942,19.6734194 L5.942,20.4170359 L5.79555339,20.5634825 C4.72722022,21.6318156 3.91897597,22.8527804 3.36823835,24.2296244 C2.81599179,25.6102408 2.54,27.0591977 2.54,28.5799291 C2.54,30.8371265 3.01090239,32.7261451 3.94678284,34.2564365 L4.02763985,34.3861916 C5.01997634,35.9431333 6.3500321,37.1026691 8.02449979,37.8715635 C9.36314557,38.4786143 10.7957064,38.8523825 12.2633644,38.9769913 C12.7429142,39.0206804 13.223476,39.0423834 13.7077796,39.0419434 C14.8118531,39.0502896 15.9136231,38.9398853 16.9901649,38.7134762 C18.3873247,38.4078873 19.6037447,37.8909168 20.6432645,37.1633162 C21.0176572,36.9012354 21.3709569,36.6102455 21.6998097,36.2931251 C23.2700643,34.7779193 24.2478993,32.7519716 24.4583247,30.5703646 C24.5161727,30.0712435 24.5447801,29.5691664 24.544005,29.0636938 C24.5468718,28.4224187 24.5049544,27.7817261 24.4189008,27.1487631 C24.3268066,26.4958469 24.1843141,25.8999694 23.9916509,25.3597524 C23.89558,25.0883101 23.78234,24.8232536 23.6530565,24.5670582 C23.1733978,23.6211356 22.4640151,22.6286433 21.5239573,21.5921856 C21.2722053,21.3151382 21.0137372,21.0442688 20.7487833,20.7798189 L20.515188,20.5466679 L20.7945898,19.8481635 L20.897147,19.7658996 C21.5344454,19.2547056 22.1170558,18.6788473 22.6367629,18.0461935 C23.3066264,17.2365686 23.8154481,16.306289 24.1217837,15.3595014 L24.5068347,13.5167873 L24.5874725,13.1648838 C24.6254486,13.0058816 24.66014,12.8717486 24.6925805,12.759986 L24.7599028,12.55 L24.7599028,10.677 L24.6712549,10.3756866 C24.5873881,10.0745753 24.4881916,9.6780162 24.3728628,9.18380892 L24.3138503,8.92855774 C24.2535284,8.66764881 24.1995486,8.40531407 24.1517476,8.14060763 C24.0699753,7.68151506 24.0218877,7.27443978 24.0081299,6.91784244 L24.0059028,6.797 L23.9415734,6.60205608 C23.224859,4.57138095 21.6141864,2.98067657 19.5567278,2.28289432 L19.2972508,2.20035494 C18.3330387,1.86614596 17.2313934,1.64015094 15.9935779,1.52386163 C15.3045749,1.46100976 14.6130152,1.43033179 13.9211534,1.43192775 Z M13.5949028,23.381 L13.8592436,23.3870974 C14.2152509,23.4037717 14.5687979,23.4596162 14.9141842,23.5539934 C15.4750589,23.7089927 15.994341,23.9870397 16.4337551,24.3674702 C17.069375,24.9162538 17.4744184,25.6847439 17.5667005,26.5094993 C17.5935525,26.7129318 17.6066959,26.9180499 17.6060887,27.1219291 C17.6060887,27.2578896 17.5976219,27.3758043 17.5788869,27.4765003 L17.5519028,27.583 L17.552,27.8133169 L17.4399028,27.981 C17.4066281,28.5653722 17.159607,29.1080886 16.752307,29.5069045 L16.6253617,29.6221216 C16.5140363,29.7195886 16.3959482,29.8090492 16.271268,29.8902978 C15.732595,30.2400221 15.1218495,30.4634844 14.4889856,30.5434217 C14.2464404,30.5762114 14.0018933,30.5924243 13.758,30.591968 C13.2520462,30.591968 12.7771298,30.5271133 12.3357137,30.3968455 C11.8420714,30.2525469 11.3792717,30.0184519 10.9726879,29.7079416 C10.2872579,29.190343 9.85230376,28.4073386 9.77635138,27.5647231 C9.75712247,27.399481 9.74765593,27.2332486 9.74801637,27.0719749 C9.74511975,26.7140072 9.78474946,26.3569623 9.86479292,26.0139761 C10.0122065,25.3473121 10.3755879,24.7479633 10.90089,24.3070021 C11.5326122,23.7832952 12.3108,23.4677057 13.1211239,23.4041313 L13.358425,23.3874233 L13.5949028,23.381 Z M12.8719028,24.868 L12.7690251,24.9069761 C12.6565067,24.9539076 12.5478538,25.009903 12.4441147,25.0744799 C12.261714,25.1879521 12.1047673,25.3379406 11.9857874,25.5111269 C11.9004717,25.6378754 11.8230478,25.7697609 11.7527835,25.9083314 C11.6210661,26.1648338 11.4897698,26.4744796 11.3596752,26.8366123 L11.2899028,27.036 L11.2946465,27.1768416 C11.2997269,27.2475979 11.3076718,27.3182851 11.3184995,27.3888947 L11.3596489,27.6004822 C11.4363911,27.9393171 11.6229436,28.2432988 11.8879067,28.4631861 C12.2027254,28.7211563 12.5808103,28.8902325 12.9876561,28.9536419 C13.170202,28.9838595 13.3549654,28.9986755 13.5456062,28.9979421 C14.0470781,29.001559 14.5455555,28.9204044 15.0174623,28.7587772 C15.1456672,28.7140998 15.2715252,28.6630726 15.3945727,28.6058973 L15.5059028,28.55 L15.5670147,28.4227987 L15.658143,28.2072803 L15.744129,27.9797609 C15.795952,27.8346565 15.8557002,27.6944309 15.9233493,27.5591965 L16.0169028,27.384 C16.0239126,27.3125906 16.0363927,27.246343 16.0570043,27.183989 L16.0659028,27.161 L16.0659028,27.024 L16.0472892,26.9714247 C16.0386247,26.9412662 16.0317779,26.9104894 16.0265155,26.8789928 L16.0209028,26.836 L15.8883556,26.5988338 L15.6941693,26.2793668 C15.3682511,25.7672098 15.0655294,25.4209078 14.799845,25.2403923 C14.4800798,25.022952 13.8851713,24.8911797 13.0266649,24.8707276 L12.8719028,24.868 Z M13.7549661,9.50374071 C14.5818155,9.49877825 15.3732953,9.83877672 15.9309532,10.4338085 L16.0769189,10.5911183 C16.6968633,11.2937219 17.012,12.1130773 17.0119496,13.0208276 C17.0227682,13.7824743 16.7408385,14.5163869 16.2344133,15.0683294 L16.0907826,15.2142317 C16.0559234,15.2485509 16.0203771,15.2821653 15.9837597,15.3154226 C15.3164915,15.9201344 14.5310844,16.2279291 13.6562594,16.2278899 C13.1555298,16.234159 12.6598129,16.127618 12.1998752,15.9133254 C11.8245003,15.7323665 11.4865728,15.4823161 11.2054724,15.1780882 C10.6961295,14.6323637 10.3718891,13.9398904 10.279887,13.2066649 C10.248827,12.9861443 10.2334859,12.7636434 10.2350762,12.5086496 L10.3016123,11.51121 L10.3419028,11.47 L10.342,11.1239291 L10.5099028,11.123 L10.5241103,11.0920559 C10.5424399,11.0550371 10.5625056,11.0193149 10.5841537,10.9851616 L10.6536922,10.8876808 C10.8273752,10.6539816 11.083328,10.4461246 11.4207388,10.2537792 C11.5424347,10.1849087 11.6669605,10.1211633 11.7927695,10.0632738 C12.5910145,9.69335537 13.2392697,9.50374071 13.7549661,9.50374071 Z M14.028,11.2058435 C13.8760341,11.205412 13.7258156,11.2137069 13.578693,11.2304723 C13.3439627,11.2582182 13.1474796,11.3085435 12.990766,11.3780769 C12.8973794,11.4199985 12.8052609,11.4646896 12.7131188,11.5128269 C12.5065156,11.6199311 12.2601585,11.7599724 11.9759624,11.9320351 L11.8089028,12.034 L11.7739877,12.4844177 C11.7758898,12.7552704 11.8262644,13.023036 11.9230431,13.2769806 L12.0042957,13.4646799 C12.0941979,13.6531707 12.2016215,13.8327922 12.3307039,14.0088993 C12.597812,14.3879161 13.0180128,14.6303717 13.4907375,14.6730455 C13.5794158,14.6829929 13.6685819,14.6879619 13.7642244,14.6879678 C13.9993844,14.6908955 14.2324115,14.6430884 14.4411066,14.5506565 C14.6262718,14.4655098 14.7932908,14.3454731 14.9360059,14.1939764 C15.2617304,13.85409 15.4180046,13.4736074 15.4180046,13.0300805 C15.4164304,12.6642163 15.3262114,12.3041836 15.1528425,11.9765464 C15.1097,11.8930942 15.0626037,11.8117461 15.0114108,11.7323079 C14.7799841,11.3723108 14.4709044,11.2058435 14.028,11.2058435 Z" id="8"></path>
    <path d="M13.2162117,0.000581022257 L13.4055525,0 C14.0443937,-0.00054808367 14.6825546,0.00922381843 15.3204014,0.029377006 C16.6387815,0.0726469154 17.7531866,0.163535712 18.6680534,0.303237841 C19.6863328,0.464171248 20.6653523,0.814827078 21.5515648,1.33542182 C21.9217625,1.54980012 22.2781625,1.78716601 22.6304473,2.05536264 C23.264282,2.56805722 23.7798835,3.21162372 24.137457,3.93314072 C24.8227624,5.24892696 25.2426498,7.00733514 25.4063423,9.20742692 C25.5512389,10.9824108 25.6417397,12.8919767 25.6779228,14.9363196 L25.732,18.7551079 L25.7319578,21.553615 L25.7859934,25.7155359 C25.7933229,27.1403874 25.6807161,28.5633279 25.4489185,29.9719612 C25.1676179,31.625543 24.7102635,33.1321021 24.0763373,34.4900233 C23.8629473,34.9486794 23.6258447,35.3959255 23.3633388,35.8343267 C22.4491708,37.3263526 21.0579711,38.4659764 19.427131,39.063969 C18.4976062,39.4321528 17.4483386,39.6894418 16.2778027,39.8373972 C15.4327472,39.9409288 14.5812502,39.9913612 13.73,39.9886224 C11.2546049,39.9886224 8.89581131,39.535044 6.66007004,38.6296517 C5.88054425,38.3193307 5.13149987,37.9373355 4.41990865,37.4868818 C3.59003916,36.9541953 2.8877317,36.3501545 2.31482263,35.6746876 C2.09171977,35.4118721 1.88619465,35.1346273 1.70177381,34.8481277 C1.0763685,33.893595 0.654904766,32.9529077 0.440684074,32.0255738 L0.357281212,31.6021127 C0.300986324,31.2503133 0.256867487,30.8966732 0.225139217,30.5433101 C0.162735328,29.8708645 0.125460272,29.0986336 0.113110195,28.2267275 L0.108011166,27.5574494 C0.107132522,27.4259787 0.117929324,27.2946896 0.140843709,27.1618912 C0.196025392,26.8540355 0.322805638,26.5921955 0.524446609,26.3905545 L0.670638503,26.2443626 L0.877384904,26.2441083 C1.59754202,26.2432224 2.31744193,26.2200596 3.03627407,26.1746453 L3.75472027,26.1218149 C3.89629844,26.1100862 4.03781116,26.0975804 4.20223164,26.0826732 L5.26521355,26.0355402 L5.87886518,26.0116306 C6.36415266,25.9941462 6.78427213,25.9827639 7.13963004,25.9774951 L7.574,25.9741079 C8.56157163,25.9741079 9.23550527,26.0491498 9.62566928,26.2170643 C9.7516359,26.2668149 9.86719584,26.3396679 9.96639842,26.4318718 L10.0812345,26.5386063 L10.114568,26.6918004 C10.2807693,27.4556282 10.7815682,28.1042644 11.4910843,28.4649739 C11.6042146,28.5265671 11.7200548,28.5829743 11.8382432,28.6340292 L11.9369028,28.6736624 L12.8329028,28.6736624 L12.9916826,28.6161753 C13.1387738,28.5558849 13.2806073,28.4842694 13.4153241,28.4023888 L13.6118294,28.2720014 C14.033685,27.9602356 14.3335338,27.5110412 14.4613738,26.9951996 C14.556034,26.6344658 14.6292997,26.2684546 14.6810744,25.8970542 C14.7484847,25.4275068 14.7958158,24.9070259 14.8228951,24.3358786 L14.8399028,23.8456624 L14.7603642,23.8741546 C13.8398105,24.1704486 12.8824843,24.3371299 11.8896639,24.3741706 L11.462,24.3821079 C9.464607,24.3821079 7.57755746,23.8631693 5.8094938,22.828664 C4.04284327,21.7949855 2.63122851,20.3739599 1.58011055,18.5720434 C0.527201822,16.767057 0,14.7900502 0,12.6501079 C0,11.559616 0.0430589863,10.5841774 0.129425285,9.7239205 C0.154589894,9.469358 0.185098028,9.21535208 0.221025253,8.96139725 C0.372994383,7.89761334 0.696344218,6.88952268 1.19345835,5.93362736 C2.18537191,4.08578319 3.73744556,2.60383016 5.61507822,1.70096713 L5.9309912,1.55588846 C6.03459629,1.50821465 6.13886213,1.46199012 6.24599079,1.41628212 C8.29264593,0.554633461 10.4793483,0.0782481447 12.6924015,0.00961490572 L13.2162117,0.000581022257 Z M15.836962,1.53998837 C13.8012022,1.53998837 12.011272,1.63272339 10.4670008,1.81761463 C10.0064612,1.87234136 9.54747187,1.9394068 9.09107417,2.01864345 C7.3294064,2.32650772 5.78628191,3.07675609 4.45007288,4.27590948 C3.82065001,4.83506785 3.27600822,5.48290492 2.83459221,6.19691262 C2.59956631,6.58133905 2.3988045,6.98569029 2.23563046,7.40270752 C1.96701221,8.1006237 1.77897024,8.82693179 1.67498046,9.56877862 C1.58297045,10.2132205 1.53785754,10.8634909 1.5399931,11.518734 C1.53471484,12.52369 1.62590963,13.5268327 1.81237257,14.5146255 C2.00764576,15.5521403 2.3437247,16.5581194 2.81213567,17.5063873 C3.35351582,18.6130342 4.10129162,19.6060882 5.01294963,20.4300871 C5.4196932,20.7931368 5.85817253,21.1189822 6.32138771,21.4026526 C7.51387561,22.1262762 8.85273956,22.5748345 10.2448162,22.7161218 C10.684659,22.7646353 11.126858,22.7886678 11.57,22.7881079 C12.800332,22.7881079 13.9956897,22.5490364 15.1263932,22.0848943 L15.4196351,21.9382734 L16.0520908,22.1490919 L16.273016,22.3700172 L16.3643416,22.643994 L16.3899976,22.8005654 C16.3925753,23.6360974 16.3481777,24.4711135 16.2568222,25.3033901 C16.1805271,25.9768729 16.0717419,26.6177112 15.930184,27.2263905 L15.7794457,27.8167022 C15.6732335,28.2191327 15.5067273,28.6031711 15.281864,28.9616116 C14.7660987,29.7592114 13.9879571,30.2122141 12.9908349,30.3040027 C12.8595417,30.3160892 12.7277622,30.3221306 12.5931841,30.3221 C11.9460725,30.3184555 11.3100653,30.1536378 10.7471766,29.8450017 C10.5248328,29.7260754 10.3117557,29.5905821 10.1138878,29.4427275 C9.82197528,29.2292916 9.55813866,28.9799013 9.32912776,28.7010743 C9.08640843,28.4065191 8.89806445,28.0725732 8.77157667,27.7149398 L8.74490282,27.6296624 L8.51985837,27.6024009 C8.15360066,27.563156 7.78739849,27.5369963 7.42123007,27.5239171 L6.872,27.5141079 L6.45551996,27.5183711 C5.85428628,27.5297178 5.07057947,27.5636268 4.11921576,27.6190498 C3.32697045,27.7070771 2.5346442,27.7598979 1.74227979,27.7775052 L1.58590282,27.7786624 L1.58489735,27.8028267 C1.56022089,28.0794273 1.5454888,28.4193532 1.54125631,28.8216143 L1.5399812,29.0704433 C1.53194416,29.9973276 1.66991616,30.9196959 1.94783405,31.8005438 C2.22014412,32.6443239 2.6400677,33.4330693 3.18738602,34.1292157 C4.11499924,35.3037608 5.29250223,36.257024 6.63796693,36.921577 C6.96852241,37.0881143 7.30632766,37.239854 7.64884207,37.3757384 C9.09461296,37.9437768 10.615516,38.2978702 12.1659132,38.42704 C12.7388662,38.4775556 13.3146529,38.5025904 13.8957346,38.5021219 C14.8901563,38.5095497 15.8832724,38.4286315 16.8592849,38.2610412 C19.3820888,37.8062027 21.1240616,36.7183623 22.1269979,34.9973657 C23.5367262,32.5782023 24.2460433,29.4871695 24.2460433,25.7246863 L24.192,21.6141079 L24.18794,18.2453944 L24.1380769,14.9808785 C24.1022614,12.9393933 24.0127779,11.0602403 23.8692525,9.33747607 C23.8140281,8.55872355 23.6963395,7.78566511 23.5180668,7.02887435 C23.3268331,6.23979694 23.0694759,5.54066962 22.7453232,4.92765277 C22.4560675,4.37098858 22.0828623,3.86215746 21.6446091,3.42471817 C20.9877616,2.79018988 20.1933385,2.31580853 19.3160448,2.03616832 C18.6775718,1.82208465 17.9633944,1.67665102 17.1745491,1.60094556 C16.7301548,1.55948121 16.2837891,1.53915486 15.836962,1.53998837 Z M13.2989546,8.69407042 L13.5894034,8.70280599 C14.3610202,8.74733168 15.1129581,8.96119468 15.7878629,9.32692374 L16.1271634,9.52558735 C16.7764512,9.929615 17.2130467,10.4820613 17.4261733,11.1643628 L18.2551408,10.3338604 L17.5479028,11.7466624 L17.5642872,11.8877571 L17.5745677,12.0529034 L17.578,12.2181079 C17.578,12.4549028 17.5312671,12.6891935 17.4399896,12.9186066 L17.4159028,12.9716624 L17.416,13.2001419 L17.3039028,13.4246624 L17.3012308,13.5064152 C17.2516242,14.2594678 16.929739,14.8935847 16.3478555,15.3826871 L16.182723,15.5124637 C15.7992151,15.7894094 15.3669753,15.9916429 14.9134248,16.1073336 C14.5836411,16.1949789 14.2279821,16.2494127 13.8461415,16.2713154 C13.7182154,16.2785269 13.5894699,16.2821086 13.46,16.2821086 C12.5777373,16.2821086 11.8329283,16.1294987 11.2313078,15.8172554 C10.8881458,15.6417286 10.5817841,15.4020912 10.3255963,15.1075968 C9.89543801,14.603315 9.599274,13.9987781 9.46522823,13.3534747 C9.38075815,12.9616379 9.33943936,12.561731 9.34203357,12.1699015 C9.33721379,11.7539728 9.40775904,11.3406094 9.55281346,10.9429599 C9.75268701,10.418799 10.0909164,9.95862578 10.5276122,9.61450804 C11.1361373,9.12502029 11.8716656,8.81927439 12.6416972,8.73388019 C12.8596893,8.70694995 13.0792025,8.69366051 13.2989546,8.69407042 Z M13.2449028,10.0716624 L13.0269308,10.0829253 C12.8065403,10.1028213 12.5884519,10.1498877 12.3755527,10.2239675 C12.2019125,10.2824337 12.0243635,10.3582804 11.8419745,10.4523144 L11.5784175,10.5982992 C11.4308301,10.6841547 11.2946406,10.7882521 11.1691261,10.9119739 C10.9481592,11.1251181 10.8247594,11.4198789 10.8279916,11.735007 C10.8260688,12.066634 10.8559972,12.3976793 10.9168231,12.7207522 C10.9926558,13.1110848 11.1169769,13.4553588 11.2890327,13.755883 C11.3473367,13.8578303 11.4120906,13.9559508 11.4826518,14.0493187 C11.7774515,14.4387377 12.208419,14.7024852 12.6978367,14.7893785 C12.9122044,14.8312434 13.1302178,14.8515913 13.3555273,14.8501204 C13.7144972,14.8526528 14.0713551,14.795029 14.4084327,14.6806191 C14.5172897,14.6429347 14.6238574,14.5989362 14.7280922,14.5486071 C15.0615511,14.3880528 15.3066321,14.1777978 15.4737035,13.9132945 L15.5259028,13.8176624 L15.5442905,13.7422722 L15.5892617,13.5843745 L15.6425194,13.4269641 L15.7254615,13.2138002 L15.8759028,12.8666624 L15.8799873,12.8037015 C15.8852372,12.7202866 15.8954069,12.6447739 15.9146461,12.5752625 L15.9269028,12.5386624 L15.9239481,12.427008 C15.9144116,12.2820431 15.8939549,12.1382138 15.8628792,11.9971675 L15.808339,11.7878914 C15.6882832,11.399851 15.4625335,11.0529123 15.1534824,10.783402 C14.6693841,10.3546292 14.1115879,10.1214992 13.4634243,10.079161 L13.2449028,10.0716624 Z" id="9"></path>
    <path d="M13.5429955,25.144421 L13.6579989,25.144 C15.3315621,25.144 16.4436167,25.3349153 17.0342596,25.7629765 C17.202354,25.8785392 17.3417539,26.031059 17.4417715,26.2088425 L17.5269749,26.3602933 L17.4998866,26.5319417 C17.4416869,26.900732 17.3956843,27.2713441 17.3617906,27.6449401 C17.2803997,28.5080773 17.2266635,29.5735719 17.2008979,30.8400452 L17.1864702,31.8058427 L17.1821076,32.978998 L16.6173015,33.5438041 L10.0399989,33.488 L9.82969821,33.4416228 C9.61696089,33.3429972 9.44465466,33.174151 9.35527863,32.9892507 C9.10660167,32.5474431 9,31.8059858 9,30.7189337 L9.00204719,30.4844412 L9.00717236,30.2508293 C9.02070663,29.7372039 9.05469644,29.0728882 9.10974441,28.2482568 L9.14698962,27.785762 C9.18575625,27.2813153 9.20811854,26.9002593 9.21404577,26.6471513 L9.21604577,26.5011513 L9.26878527,26.2843932 L9.51580042,25.7903629 L9.69230352,25.7197617 C10.0940247,25.5590732 10.6586512,25.425094 11.3959458,25.3116651 C11.9124614,25.2332444 12.4326539,25.1823152 12.9538846,25.1590581 L13.5429955,25.144421 Z M13.9819017,26.6836133 L13.5787558,26.6914691 C13.308816,26.7005085 13.0389128,26.717669 12.7688813,26.7429815 C12.3152776,26.7838642 11.8311629,26.8463306 11.3171854,26.9303647 L10.7439017,27.0306133 L10.724978,27.4112443 L10.6429736,28.5767107 C10.5383127,29.3093367 10.4859032,30.0597242 10.4859032,30.8291306 C10.4854982,31.0167579 10.4920826,31.2040686 10.5055357,31.3887761 C10.5167792,31.535421 10.5326005,31.6709242 10.5527649,31.7951445 L10.5819017,31.9506133 L15.6419017,31.9966133 L15.6419996,30.1808735 C15.6408521,29.5240258 15.6650775,28.8674607 15.7146253,28.2124268 L15.7726118,27.5579495 L15.8379531,26.9936203 L15.8539017,26.8836133 L15.579786,26.8262267 C15.3453209,26.7822704 15.1088022,26.7487457 14.8707745,26.7257593 L14.5126694,26.6991968 L14.2473058,26.6878716 L13.9819017,26.6836133 Z M13.5429955,7.00042096 L13.6579989,7 C15.3315621,7 16.4436167,7.19091529 17.0342596,7.61897648 C17.202354,7.73453918 17.3417539,7.88705905 17.4417715,8.06484251 L17.5275436,8.21730427 L17.4995599,8.3899842 C17.3399876,9.37466205 17.2397853,10.8123191 17.2008979,12.6960452 L17.1864702,13.6618427 L17.1821076,14.834998 L16.6173015,15.3998041 L10.0399989,15.344 L9.82969821,15.2976228 C9.61696089,15.1989972 9.44465466,15.030151 9.35527863,14.8452507 C9.10660167,14.4034431 9,13.6619858 9,12.5749337 L9.00204719,12.3404412 L9.00717236,12.1068293 C9.02070663,11.5932039 9.05469644,10.9288882 9.10974441,10.1042568 L9.14698962,9.64176199 C9.18575625,9.13731526 9.20811854,8.75625929 9.21404577,8.50315133 L9.21604577,8.35715133 L9.26878527,8.1403932 L9.51580042,7.6463629 L9.69230352,7.57576165 C10.0940247,7.41507317 10.6586512,7.28109401 11.3959458,7.16766505 C11.9124614,7.08924441 12.4326539,7.03831525 12.9538846,7.01505815 L13.5429955,7.00042096 Z M14.1979017,8.59361328 L13.7589413,8.59976408 C12.8688285,8.6228232 11.9067452,8.71508482 10.8729783,8.87685058 L10.7469017,8.89761328 L10.6989565,9.67608957 L10.6429736,10.4327107 C10.5383127,11.1653367 10.4859032,11.9157242 10.4859032,12.6851306 C10.4854982,12.8727579 10.4920826,13.0600686 10.5055357,13.2447761 C10.5167792,13.391421 10.5326005,13.5269242 10.5527649,13.6511445 L10.5819017,13.8066133 L15.6429017,13.8526133 L15.6456426,13.4544078 C15.6590061,11.8467473 15.7091437,10.5081112 15.7963255,9.43743637 L15.821021,9.15207701 L15.8629017,8.73061328 L15.7814436,8.71353096 C15.4877778,8.65745087 15.1330453,8.62052947 14.718647,8.60420715 L14.1979017,8.59361328 Z" id="10"></path>
</svg>