<svg width="36px" height="41px" lxeftOffset="4" txopOffset="44" translatex="[0, 0, 27, 48, 70, 96, 112, 133, 162]" viewBox="0 0 36 41" version="1.1"
    xmlns="http://www.w3.org/2000/svg">
    <path d="M3.145,29.1611111 C1.715,26.3381482 1,23.1177778 1,19.5 C1,15.8822223 1.715,12.6618518 3.145,9.83888888 C4.575,7.01592593 6.54125,4.83703703 9.04375,3.30222222 C11.54625,1.76740741 14.365,1 17.5,1 C20.635,1 23.45375,1.76740741 25.95625,3.30222222 C28.45875,4.83703703 30.425,7.01592593 31.855,9.83888888 C33.285,12.6618518 34,15.8822223 34,19.5 C34,23.1177778 33.285,26.3381482 31.855,29.1611111 C30.425,31.9840741 28.45875,34.162963 25.95625,35.6977778 C23.45375,37.2325926 20.635,38 17.5,38 C14.365,38 11.54625,37.2325926 9.04375,35.6977778 C6.54125,34.162963 4.575,31.9840741 3.145,29.1611111 Z M23.0275,12.4288888 C24.4025,14.1144444 25.09,16.4714815 25.09,19.5 C25.09,22.5285185 24.4059375,24.8889815 23.0378125,26.5813889 C21.6696875,28.2737963 19.82375,29.12 17.5,29.12 C15.17625,29.12 13.3303125,28.2737963 11.9621875,26.5813889 C10.5940625,24.8889815 9.91,22.5285185 9.91,19.5 C9.91,16.4714815 10.5940625,14.1110185 11.9621875,12.4186111 C13.3303125,10.7262037 15.17625,9.88 17.5,9.88 C19.82375,9.88 21.66625,10.7296296 23.0275,12.4288888 Z M25.13125,10.3322222 C27.08375,12.607037 28.06,15.6629629 28.06,19.5 C28.06,23.3370371 27.0871875,26.392963 25.1415625,28.6677778 C23.1959375,30.9425926 20.64875,32.08 17.5,32.08 C14.35125,32.08 11.8040625,30.9425926 9.8584375,28.6677778 C7.9128125,26.392963 6.94,23.3370371 6.94,19.5 C6.94,15.6629629 7.9128125,12.607037 9.8584375,10.3322222 C11.8040625,8.05740741 14.35125,6.92 17.5,6.92 C20.64875,6.92 23.1925,8.05740741 25.13125,10.3322222 Z M29.276875,11.3394445 C30.445625,13.6964815 31.03,16.4166666 31.03,19.5 C31.03,22.5833334 30.4490625,25.3069445 29.2871875,27.6708333 C28.1253125,30.0347222 26.52,31.8538889 24.47125,33.1283333 C22.4225,34.4027777 20.09875,35.04 17.5,35.04 C14.90125,35.04 12.5775,34.4027777 10.52875,33.1283333 C8.48,31.8538889 6.8746875,30.0347222 5.7128125,27.6708333 C4.5509375,25.3069445 3.97,22.5833334 3.97,19.5 C3.97,16.4166666 4.5509375,13.6930555 5.7128125,11.3291667 C6.8746875,8.96527778 8.48,7.14611111 10.52875,5.87166667 C12.5775,4.59722222 14.90125,3.96 17.5,3.96 C20.09875,3.96 22.4225,4.59722222 24.47125,5.87166667 C26.52,7.14611111 28.121875,8.9687037 29.276875,11.3394445 Z M13.00375,13.4566666 C11.93125,14.8544445 11.395,16.8688889 11.395,19.5 C11.395,22.1311112 11.9346875,24.1455555 13.0140625,25.5433334 C14.0934375,26.9411111 15.58875,27.64 17.5,27.64 C19.41125,27.64 20.9065625,26.9411111 21.9859375,25.5433334 C23.0653125,24.1455555 23.605,22.1311112 23.605,19.5 C23.605,16.8688889 23.0653125,14.8544445 21.9859375,13.4566666 C20.9065625,12.0588889 19.41125,11.36 17.5,11.36 C15.58875,11.36 14.09,12.0588889 13.00375,13.4566666 Z M10.9,11.3805555 C9.25,13.3538889 8.425,16.0603704 8.425,19.5 C8.425,22.9396296 9.2534375,25.6495371 10.9103125,27.6297222 C12.5671875,29.6099074 14.76375,30.6 17.5,30.6 C20.23625,30.6 22.4328125,29.6099074 24.0896875,27.6297222 C25.7465625,25.6495371 26.575,22.9396296 26.575,19.5 C26.575,16.0603704 25.7465625,13.3504629 24.0896875,11.3702778 C22.4328125,9.39009259 20.23625,8.4 17.5,8.4 C14.76375,8.4 12.56375,9.39351852 10.9,11.3805555 Z M8.79625,9.28388889 C6.56875,11.8464815 5.455,15.2518519 5.455,19.5 C5.455,23.7481481 6.5721875,27.1535185 8.8065625,29.7161111 C11.0409375,32.2787037 13.93875,33.56 17.5,33.56 C21.06125,33.56 23.9590625,32.2787037 26.1934375,29.7161111 C28.4278125,27.1535185 29.545,23.7481481 29.545,19.5 C29.545,15.2518519 28.4278125,11.8464815 26.1934375,9.28388889 C23.9590625,6.72129629 21.06125,5.44 17.5,5.44 C13.93875,5.44 11.0375,6.72129629 8.79625,9.28388889 Z M3.619375,12.5522222 C2.863125,14.6762963 2.485,16.9922222 2.485,19.5 C2.485,22.0077778 2.863125,24.3271297 3.619375,26.4580556 C4.375625,28.5889815 5.4171875,30.3875926 6.7440625,31.8538889 C8.0709375,33.3201852 9.6590625,34.4644444 11.5084375,35.2866667 C13.3578125,36.1088888 15.355,36.52 17.5,36.52 C19.645,36.52 21.6421875,36.1088888 23.4915625,35.2866667 C25.3409375,34.4644444 26.9290625,33.3201852 28.2559375,31.8538889 C29.5828125,30.3875926 30.624375,28.5889815 31.380625,26.4580556 C32.136875,24.3271297 32.515,22.0077778 32.515,19.5 C32.515,16.9922222 32.136875,14.6728703 31.380625,12.5419444 C30.624375,10.4110185 29.5828125,8.6124074 28.2559375,7.14611111 C26.9290625,5.67981481 25.3409375,4.53555556 23.4915625,3.71333333 C21.6421875,2.89111111 19.645,2.48 17.5,2.48 C15.355,2.48 13.3578125,2.89111111 11.5084375,3.71333333 C9.6590625,4.53555556 8.0709375,5.67981481 6.7440625,7.14611111 C5.4171875,8.6124074 4.375625,10.4144445 3.619375,12.5522222 Z" id="0"></path>
    <path d="M9.75609756,9.83993902 L9.75609756,8.26219512 L25.6650152,8.26219512 L25.6650152,38.2393293 L24.0872713,38.2393293 L24.0872713,9.83993902 L22.5095274,9.83993902 L22.5095274,38.2393293 L20.9317835,38.2393293 L20.9317835,9.83993902 L19.3540396,9.83993902 L19.3540396,38.2393293 L17.7762957,38.2393293 L17.7762957,9.83993902 L16.1985518,9.83993902 L16.1985518,38.2393293 L14.6208079,38.2393293 L14.6208079,9.83993902 L9.75609756,9.83993902 Z M9.75609756,6.68445122 L9.75609756,5.10670732 L25.6650152,5.10670732 L25.6650152,6.68445122 L9.75609756,6.68445122 Z M9.75609756,3.52896341 L9.75609756,1.95121951 L25.6650152,1.95121951 L25.6650152,3.52896341 L9.75609756,3.52896341 Z" id="1"></path>
    <path d="M6.55064457,31.8333333 L6.55064457,30.2916667 L27.2209945,30.2916667 L27.2209945,31.8333333 L6.55064457,31.8333333 Z M6.55064457,34.9166667 L6.55064457,33.375 L27.2209945,33.375 L27.2209945,34.9166667 L6.55064457,34.9166667 Z M6.55064457,38 L6.55064457,36.4583333 L27.2209945,36.4583333 L27.2209945,38 L6.55064457,38 Z M8.9014733,29.4351852 L7.12246778,29.4351852 C8.11080418,28.0790895 9.08502149,26.7515432 10.0451197,25.4525463 C11.0052179,24.1535494 11.8064764,23.0722415 12.4488951,22.2086227 C13.0913137,21.3450038 13.7160835,20.4992284 14.3232044,19.6712963 C14.9303253,18.8433642 15.4209638,18.1795911 15.7951197,17.6799768 C16.1692756,17.1803627 16.5257827,16.6950232 16.8646409,16.2239584 C17.2034991,15.7528935 17.4576427,15.3853202 17.6270718,15.1212384 C17.7965009,14.8571567 17.9482811,14.6037809 18.0824125,14.3611111 C18.2165439,14.1184414 18.3047882,13.9221644 18.3471455,13.7722801 C18.3895027,13.6223959 18.4106814,13.4760803 18.4106814,13.3333333 C18.4106814,12.6766975 18.1424187,12.2555941 17.6058932,12.0700232 C17.0693677,11.8844521 16.1233886,11.7916667 14.7679558,11.7916667 C12.5653775,11.7916667 10.3627992,12.0842978 8.16022099,12.6695601 L7.84254144,11.1921296 C8.19551872,11.035108 9.08855127,10.8316937 10.5216391,10.5818865 C11.9547268,10.3320795 13.3348681,10.2071759 14.6620626,10.2071759 C15.4668509,10.2071759 16.1657459,10.2535687 16.7587477,10.3463542 C17.3517496,10.4391397 17.8918048,10.5961613 18.3789135,10.8174189 C18.8660221,11.0386767 19.2366482,11.3598573 19.4907919,11.7809606 C19.7449355,12.202064 19.8720074,12.7195216 19.8720074,13.3333333 C19.8720074,13.9471451 19.5613874,14.7322531 18.9401473,15.6886574 C18.3189073,16.6450617 16.72345,18.8576389 14.1537753,22.3263889 C12.0641498,25.138503 10.3133825,27.5081018 8.9014733,29.4351852 Z M12.3535911,29.4351852 L10.5745856,29.4351852 C15.8410068,22.2692901 18.7636587,18.2652392 19.3425414,17.4230324 C20.5285451,15.7100695 21.1921425,14.4895833 21.3333334,13.7615741 C21.3756906,13.5617284 21.3968693,13.3476081 21.3968693,13.1192129 C21.3968693,10.1643519 19.1801719,8.68692129 14.7467772,8.68692129 C13.3913444,8.68692129 12.0147329,8.80825617 10.6169429,9.05092593 C9.21915286,9.29359568 8.19551872,9.53626543 7.54604052,9.77893519 L7.24953959,8.30150463 C9.66390424,7.54494599 12.170043,7.16666667 14.7679558,7.16666667 C15.6715777,7.16666667 16.5081338,7.2273341 17.2776243,7.34866898 C18.0471148,7.47000385 18.7848374,7.67341821 19.4907919,7.95891204 C20.1967465,8.24440586 20.7968078,8.61197917 21.2909761,9.06163195 C21.7851443,9.51128473 22.1769491,10.0787037 22.4663904,10.7638889 C22.7558319,11.4490741 22.9005525,12.2341821 22.9005525,13.1192129 C22.9005525,14.0327932 22.4558011,15.1819059 21.5662984,16.566551 C20.6767956,17.951196 18.0153468,21.6768904 13.5819521,27.7436342 C13.0454266,28.4716435 12.635973,29.0354939 12.3535911,29.4351852 Z M15.8904236,29.4351852 L14.1114181,29.4351852 C18.9260283,22.783179 21.8486802,18.6399498 22.8793739,17.0054977 C23.9100675,15.3710456 24.4254144,14.0042438 24.4254144,12.9050925 C24.4254144,11.5632716 24.167741,10.4070216 23.6523941,9.4363426 C23.1370473,8.46566358 22.4169737,7.70910494 21.4921731,7.16666667 C20.5673726,6.62422839 19.550798,6.23167438 18.4424494,5.98900463 C17.3341007,5.74633488 16.10221,5.625 14.7467772,5.625 C12.1347453,5.625 9.52977287,6.02469135 6.93186004,6.82407407 L6.61418048,5.26099537 C9.3956415,4.43306327 12.0853284,4.01909722 14.6832413,4.01909722 C15.9539595,4.01909722 17.1329036,4.11188272 18.2200736,4.29745371 C19.3072437,4.48302469 20.3344076,4.79349923 21.3015654,5.22887732 C22.2687232,5.66425541 23.0876305,6.21739969 23.7582873,6.88831018 C24.4289441,7.55922068 24.9619398,8.40499615 25.3572744,9.42563658 C25.752609,10.446277 25.9502762,11.6060956 25.9502762,12.9050925 C25.9502762,13.8329475 25.7349602,14.7786459 25.3043278,15.7421875 C24.8736955,16.7057292 23.9841927,18.1724537 22.6358195,20.1423611 C21.2874463,22.1122685 19.038981,25.2098765 15.8904236,29.4351852 Z M19.5543278,29.4351852 L17.7753222,29.4351852 C20.7544506,25.4525463 22.9111418,22.4584298 24.245396,20.4528356 C25.5796501,18.4472415 26.451504,16.9269869 26.8609576,15.8920717 C27.2704113,14.8571567 27.4751381,13.7901235 27.4751381,12.6909722 C27.4751381,11.2920525 27.2668815,10.0251736 26.8503684,8.89033565 C26.4338551,7.75549768 25.8479128,6.79909336 25.0925415,6.02112268 C24.3371701,5.243152 23.4300185,4.59008488 22.3710866,4.06192129 C21.3121547,3.53375771 20.1508594,3.14834105 18.8872008,2.9056713 C17.6235421,2.66300155 16.2575199,2.54166667 14.7891345,2.54166667 C12.0782689,2.54166667 9.25445059,2.96990741 6.31767956,3.82638889 L6,2.30613426 C8.9791283,1.43537809 11.8947207,1 14.7467772,1 C16.8646409,1 18.7813076,1.23196373 20.4967772,1.6958912 C22.2122468,2.15981867 23.7088705,2.85570987 24.9866483,3.78356482 C26.2644261,4.71141976 27.2527625,5.93190586 27.9516575,7.44502315 C28.6505526,8.95814043 29,10.7067902 29,12.6909722 C29,13.9471451 28.798803,15.1319445 28.3964089,16.2453704 C27.9940148,17.3587962 27.1186311,18.9361496 25.7702579,20.9774306 C24.4218846,23.0187114 22.349908,25.837963 19.5543278,29.4351852 Z" id="2"></path>
    <path d="M15.2616331,29.8749305 C12.0026339,29.8749305 9.18612818,29.536965 6.81211589,28.8610339 L7.1071115,27.4458032 C9.04565408,28.0513248 11.7638279,28.3540856 15.2616331,28.3540856 C17.3406497,28.3540856 18.380158,27.8048916 18.380158,26.7065036 C18.380158,25.8334259 17.3757682,25.3968871 15.3669885,25.3968871 L10.7734855,25.3968871 L10.7734855,23.8760422 L15.3880597,23.8760422 C16.6804215,23.8760422 17.7550483,24.1013525 18.6119403,24.5519733 C19.4688323,25.002594 19.8972783,25.7207708 19.8972783,26.7065036 C19.8972783,27.7626459 19.4653205,28.5547526 18.6014048,29.0828238 C17.737489,29.6108949 16.6242318,29.8749305 15.2616331,29.8749305 Z M19.644425,14.8777098 L18.190518,14.5608672 C18.3169447,14.3496387 18.380158,13.9975912 18.380158,13.5047248 C18.380158,12.2655179 17.3406497,11.6459144 15.2616331,11.6459144 C11.7638279,11.6459144 9.04565408,11.9486752 7.1071115,12.5541968 L6.81211589,11.1389661 C9.18612818,10.463035 12.0026339,10.1250695 15.2616331,10.1250695 C16.6242318,10.1250695 17.737489,10.4067075 18.6014048,10.9699833 C19.4653205,11.5332592 19.8972783,12.378173 19.8972783,13.5047248 C19.8972783,14.1102464 19.8129939,14.5679081 19.644425,14.8777098 Z M6.51712028,9.70261255 L6.22212468,8.22401333 C8.84899034,7.46359088 11.8621597,7.08337965 15.2616331,7.08337965 C17.453029,7.08337965 19.2791922,7.65721696 20.7401229,8.8048916 C22.2010536,9.95256623 22.9315189,11.5191773 22.9315189,13.5047248 C22.9315189,14.307393 22.7769974,15.1030202 22.4679544,15.8916064 L21.0561897,15.3212896 C21.2949956,14.7861775 21.4143986,14.1806559 21.4143986,13.5047248 C21.4143986,11.9557161 20.831431,10.7517139 19.6654961,9.89271817 C18.4995611,9.03372243 17.0316067,8.60422456 15.2616331,8.60422456 C12.0026339,8.60422456 9.08779632,8.9703539 6.51712028,9.70261255 Z M25.0807726,17.32796 L23.8375768,16.5675375 C24.2449517,15.5958866 24.4486392,14.574949 24.4486392,13.5047248 C24.4486392,11.0967204 23.570676,9.17102093 21.8147498,7.72762645 C20.0588235,6.28423197 17.8744513,5.56253474 15.2616331,5.56253474 C12.0447761,5.56253474 8.9332748,5.97090976 5.92712906,6.78765981 L5.61106234,5.2668149 C8.51887621,4.45006485 11.7357331,4.04168982 15.2616331,4.04168982 C17.2282704,4.04168982 19.0193152,4.42190106 20.6347673,5.1823235 C22.2502195,5.94274597 23.5425812,7.05169538 24.5118525,8.50917175 C25.4811238,9.96664813 25.9657594,11.6318325 25.9657594,13.5047248 C25.9657594,14.8706689 25.6707638,16.1450806 25.0807726,17.32796 Z M27.335382,19.524736 L26.2396839,18.3841023 C27.0684811,16.8773392 27.4828797,15.2508801 27.4828797,13.5047248 C27.4828797,11.3501946 26.9315188,9.42801555 25.8287972,7.73818787 C24.7260755,6.04836019 23.2510975,4.75634612 21.403863,3.86214563 C19.5566286,2.96794516 17.5092186,2.52084491 15.2616331,2.52084491 C11.8200176,2.52084491 8.50482879,2.94330183 5.31606672,3.78821567 L5,2.26737076 C8.06233539,1.42245692 11.4828797,1 15.2616331,1 C17.143986,1 18.9244952,1.30276079 20.6031607,1.90828238 C22.2818261,2.51380396 23.7392449,3.35519733 24.9754171,4.43246247 C26.2115891,5.50972763 27.191396,6.83342597 27.9148376,8.40355752 C28.6382792,9.97368908 29,11.6740782 29,13.5047248 C29,15.7155828 28.4451274,17.7222531 27.335382,19.524736 Z M15.2616331,31.3957754 C17.0316067,31.3957754 18.4995611,30.9838799 19.6654961,30.1600889 C20.831431,29.336298 21.4143986,28.1851028 21.4143986,26.7065036 C21.4143986,25.3405596 20.8419666,24.2738558 19.6971027,23.5063924 C18.5522388,22.738929 17.1720808,22.3551973 15.5566286,22.3551973 L10.7734855,22.3551973 L10.7734855,20.8343524 L15.5776997,20.8343524 C17.6145742,20.8343524 19.3494293,21.365944 20.7822652,22.4291273 C22.2151009,23.4923105 22.9315189,24.9181026 22.9315189,26.7065036 C22.9315189,28.6357235 22.2010536,30.1530479 20.7401229,31.2584769 C19.2791922,32.3639058 17.453029,32.9166204 15.2616331,32.9166204 C11.8621597,32.9166204 8.84899034,32.5364091 6.22212468,31.7759866 L6.51712028,30.2973874 C9.08779632,31.029646 12.0026339,31.3957754 15.2616331,31.3957754 Z M15.2616331,34.4374653 C17.8744513,34.4374653 20.0588235,33.7368908 21.8147498,32.3357421 C23.570676,30.9345932 24.4486392,29.0581805 24.4486392,26.7065036 C24.4486392,24.4674819 23.5882353,22.6755605 21.8674276,21.3307392 C20.1466199,19.9859181 18.0781387,19.3135075 15.6619842,19.3135075 L10.7734855,19.3135075 L10.7734855,17.7926626 L15.7041264,17.7926626 C17.5583846,17.7926626 19.2721686,18.1834353 20.8454785,18.9649805 C22.4187884,19.7465258 23.665496,20.8237909 24.5856014,22.196776 C25.5057068,23.5697609 25.9657594,25.0730035 25.9657594,26.7065036 C25.9657594,28.5371502 25.4811238,30.1636094 24.5118525,31.585881 C23.5425812,33.0081527 22.2502195,34.0924588 20.6347673,34.8387993 C19.0193152,35.5851399 17.2282704,35.9583102 15.2616331,35.9583102 C11.7357331,35.9583102 8.51887621,35.5499351 5.61106234,34.7331851 L5.92712906,33.2123402 C8.9332748,34.0290902 12.0447761,34.4374653 15.2616331,34.4374653 Z M15.2616331,37.4791551 C17.5092186,37.4791551 19.5566286,37.0390958 21.403863,36.1589772 C23.2510975,35.2788586 24.7260755,34.0114878 25.8287972,32.3568649 C26.9315188,30.7022419 27.4828797,28.8187882 27.4828797,26.7065036 C27.4828797,25.1574949 27.1457419,23.7176209 26.4714662,22.3868816 C25.7971905,21.0561423 24.9086918,19.9507133 23.8059701,19.0705947 C22.7032485,18.1904761 21.4495171,17.5039837 20.0447762,17.0111172 C18.6400351,16.5182509 17.1931519,16.2718177 15.7041264,16.2718177 L10.7734855,16.2718177 L10.7734855,14.7509727 L15.7884109,14.7509727 C17.5162423,14.7509727 19.1773485,15.0396517 20.7717296,15.6170095 C22.3661106,16.1943672 23.7708516,16.9899944 24.9859526,18.003891 C26.2010536,19.0177877 27.1738367,20.2816379 27.9043021,21.7954419 C28.6347674,23.3092459 29,24.9462664 29,26.7065036 C29,29.1004262 28.3819139,31.2408745 27.1457419,33.1278487 C25.9095698,35.0148231 24.2484636,36.4652585 22.1624232,37.4791551 C20.0763828,38.4930517 17.7761194,39 15.2616331,39 C11.4828797,39 8.06233539,38.577543 5,37.7326292 L5.31606672,36.2117843 C8.50482879,37.0566981 11.8200176,37.4791551 15.2616331,37.4791551 Z" id="3"></path>
    <path d="M24.6217607,38.2393293 L23.0440168,38.2393293 L23.0440168,32.7391387 L24.6217607,32.7391387 L24.6217607,38.2393293 Z M21.6217607,38.2393293 L20.0440168,38.2393293 L20.0440168,32.7391387 L21.6217607,32.7391387 L21.6217607,38.2393293 Z M27.7772485,38.2393293 L26.1995046,38.2393293 L26.1995046,32.7391387 L27.7772485,32.7391387 L27.7772485,38.2393293 Z M24.6217607,23.2726753 L23.0440168,23.2726753 L23.0440168,16.9836128 L24.6217607,16.9836128 L24.6217607,23.2726753 Z M21.6217607,23.2726753 L20.0440168,23.2726753 L20.0440168,16.9836128 L21.6217607,16.9836128 L21.6217607,23.2726753 Z M27.7772485,23.2726753 L26.1995046,23.2726753 L26.1995046,16.9836128 L27.7772485,16.9836128 L27.7772485,23.2726753 Z M4.921875,25.617378 L4.921875,24.0396341 L30.1657775,24.0396341 L30.1657775,25.617378 L4.921875,25.617378 Z M4.921875,28.7728659 L4.921875,27.195122 L30.1657775,27.195122 L30.1657775,28.7728659 L4.921875,28.7728659 Z M4.921875,31.9283537 L4.921875,30.3506098 L30.1657775,30.3506098 L30.1657775,31.9283537 L4.921875,31.9283537 Z M14.717035,1.97313262 L16.5358232,1.95121951 L6.71875,23.2507621 L4.87804878,23.2507621 L14.717035,1.97313262 Z M18.3107851,1.97313262 L20.0638339,1.97313262 L10.2905869,23.2507621 L8.44988567,23.2507621 L18.3107851,1.97313262 Z M21.8387957,1.97313262 L23.6356707,1.97313262 L13.9500762,23.2507621 L12.109375,23.2507621 L21.8387957,1.97313262 Z" id="4"></path>
    <path d="M28.4775152,8.26219512 L28.4775152,9.83993902 L12.3713796,9.83993902 L12.3713796,25.1352897 L10.7936357,25.1352897 L10.7936357,9.83993902 L9.21589177,9.83993902 L9.21589177,25.1352897 L7.63814786,25.1352897 L7.63814786,9.83993902 L6.06040396,9.83993902 L6.06040396,25.1352897 L4.48266006,25.1352897 L4.48266006,8.26219512 L28.4775152,8.26219512 Z M28.4775152,5.10670732 L28.4775152,6.68445122 L4.48266006,6.68445122 L4.48266006,5.10670732 L28.4775152,5.10670732 Z M28.4775152,1.95121951 L28.4775152,3.52896341 L4.48266006,3.52896341 L4.48266006,1.95121951 L28.4775152,1.95121951 Z M16.4910442,28.7509528 C19.3835747,28.7509528 20.8298399,28.1081682 20.8298399,26.8225991 C20.8298399,26.0775534 20.4938389,25.53703 19.8218369,25.201029 C19.1498348,24.8650279 18.2952236,24.6970274 17.258003,24.6970274 C15.6510417,24.6970274 14.372777,24.8869411 13.4232089,25.2667683 L13.4232089,23.6890244 C14.6941692,23.3822409 15.9797383,23.2288491 17.2799162,23.2288491 C18.2148755,23.2288491 19.0512259,23.3384146 19.7889672,23.5575458 C20.5267086,23.7766769 21.14758,24.1638084 21.6515816,24.7189406 C22.1555831,25.2740727 22.4075838,25.9752922 22.4075838,26.8225991 C22.4075838,27.9912982 21.8561039,28.8678226 20.7531441,29.4521723 C19.6501842,30.0365219 18.2294843,30.3286967 16.4910442,30.3286967 C13.7884273,30.3286967 11.728595,29.8904344 10.3115472,29.01391 L11.5825076,28.0497333 C12.5320757,28.5172129 14.1682545,28.7509528 16.4910442,28.7509528 Z M16.4910442,31.9064406 C18.6531377,31.9064406 20.4427083,31.460874 21.8597561,30.5697409 C23.2768039,29.6786077 23.9853277,28.4295605 23.9853277,26.8225991 C23.9853277,25.1864202 23.3717607,23.9264164 22.1446265,23.0425876 C20.9174924,22.1587589 19.4274009,21.7168445 17.6743521,21.7168445 C16.3303481,21.7168445 14.9133003,21.884845 13.4232089,22.220846 L13.4232089,20.5554497 C15.2200838,20.3363186 16.644436,20.2267531 17.6962653,20.2267531 C19.8875762,20.2267531 21.7465383,20.8147548 23.2731517,21.9907583 C24.799765,23.166762 25.5630716,24.7773755 25.5630716,26.8225991 C25.5630716,28.8824314 24.701156,30.5076538 22.9773247,31.698266 C21.2534934,32.8888783 19.0913999,33.4841845 16.4910442,33.4841845 C12.7804243,33.4841845 9.90250254,32.6514862 7.85727897,30.98609 L9.10632622,30.0219131 C10.8447662,31.2782648 13.3063389,31.9064406 16.4910442,31.9064406 Z M16.4910442,35.0619284 C19.5150534,35.0619284 22.0460176,34.3132304 24.0839368,32.8158346 C26.1218559,31.3184387 27.1408155,29.3206936 27.1408155,26.8225991 C27.1408155,25.1279853 26.7062056,23.6525025 25.8369856,22.3961509 C24.9677655,21.1397993 23.8538491,20.2121443 22.4952363,19.613186 C21.1366235,19.0142276 19.6392276,18.7147485 18.0030488,18.7147485 C16.3814786,18.7147485 14.8548654,18.8389227 13.4232089,19.0872713 L13.4232089,17.4876143 C15.1178226,17.2977007 16.6590447,17.2027439 18.046875,17.2027439 C19.9898374,17.2027439 21.7757558,17.6117886 23.4046303,18.429878 C25.0335048,19.2479675 26.3263783,20.3947536 27.2832507,21.8702363 C28.2401232,23.345719 28.7185594,24.9965066 28.7185594,26.8225991 C28.7185594,28.7655615 28.1670795,30.493045 27.0641197,32.0050496 C25.9611598,33.5170541 24.4856771,34.6674924 22.6376715,35.4563643 C20.789666,36.2452363 18.7407901,36.6396723 16.4910442,36.6396723 C14.2412982,36.6396723 12.1522485,36.31828 10.2238948,35.6754954 C8.29554116,35.0327108 6.6812754,34.126969 5.38109756,32.9582699 L6.60823171,31.9721799 C7.7769309,32.9655741 9.21954395,33.7288809 10.9360709,34.2620998 C12.6525979,34.7953188 14.5042556,35.0619284 16.4910442,35.0619284 Z M16.4910442,38.2174162 C18.3755716,38.2174162 20.16149,37.9435022 21.8487995,37.3956745 C23.536109,36.8478468 25.0006351,36.0845401 26.242378,35.1057545 C27.484121,34.126969 28.4702108,32.921748 29.2006479,31.4900915 C29.9310849,30.0584349 30.2963033,28.5026042 30.2963033,26.8225991 C30.2963033,25.1572027 29.9603023,23.6086763 29.2883003,22.1770198 C28.6162982,20.7453633 27.7251652,19.5584032 26.6149009,18.6161395 C25.5046367,17.6738758 24.2446329,16.9397865 22.8348895,16.413872 C21.425146,15.8879573 19.9752287,15.625 18.4851372,15.625 C17.7254827,15.625 17.0900025,15.6432609 16.5786967,15.6797827 C16.0673907,15.7163046 15.4903456,15.782044 14.847561,15.8770008 C14.2047764,15.9719576 13.7299924,16.0340447 13.4232089,16.0632622 L13.4232089,14.4416921 C14.8548654,14.2371698 16.5713923,14.1349085 18.5727897,14.1349085 C20.3112297,14.1349085 21.9839303,14.4380399 23.5908918,15.0443026 C25.1978532,15.6505653 26.6149009,16.4905678 27.842035,17.5643102 C29.0691692,18.6380526 30.0479547,19.9784045 30.7783918,21.5853659 C31.5088288,23.1923272 31.8740472,24.9380716 31.8740472,26.8225991 C31.8740472,28.7217352 31.4686547,30.4857406 30.6578697,32.1146151 C29.8470846,33.7434896 28.747777,35.1167111 27.3599466,36.2342797 C25.9721164,37.3518483 24.3395897,38.2247205 22.4623666,38.8528964 C20.5851435,39.4810722 18.5947027,39.7951601 16.4910442,39.7951601 C13.7592099,39.7951601 11.213637,39.3678544 8.85432545,38.5132431 C6.49501397,37.6586319 4.51918191,36.4643674 2.92682927,34.9304497 L4.19778964,33.988186 C5.64405488,35.33219 7.4372777,36.3730627 9.57745808,37.1108041 C11.7176384,37.8485455 14.0221672,38.2174162 16.4910442,38.2174162 Z" id="5"></path>
    <path d="M10.7924016,16.2529183 C10.7924016,14.4704465 11.399593,13.1301649 12.6139756,12.2320734 C13.8283582,11.3339819 15.3921303,10.8849361 17.3052917,10.8849361 C19.8154681,10.8849361 21.7286295,11.2962757 23.0447761,12.118955 L21.8643148,13.0239022 C20.9823609,12.5851399 19.4626866,12.3657587 17.3052917,12.3657587 C15.7856174,12.3657587 14.5644505,12.6708357 13.6417911,13.2809895 C12.7191316,13.8911432 12.2578019,14.8817862 12.2578019,16.2529183 L12.2578019,25.1789883 C12.2578019,25.7822865 12.3561737,26.2998888 12.5529172,26.7317955 C12.7496608,27.1637021 13.0006784,27.5030572 13.3059702,27.7498611 C13.6112619,27.9966648 14.0183175,28.1851955 14.5271371,28.3154531 C15.0359566,28.4457106 15.5244234,28.5314063 15.9925374,28.5725403 C16.4606513,28.6136743 17.0339214,28.6342413 17.7123474,28.6342413 C20.3989145,28.6342413 21.7421981,28.0309431 21.7421981,26.8243469 C21.7421981,26.1250695 21.3928087,25.6177506 20.6940298,25.3023902 C19.9952511,24.9870299 19.1031208,24.8293497 18.0176391,24.8293497 C16.3351425,24.8293497 14.7883311,25.2132666 13.3772049,25.9811007 L13.3772049,24.500278 C14.8290366,23.8010006 16.3826323,23.4513618 18.0379919,23.4513618 C18.9742198,23.4513618 19.8154681,23.5541968 20.5617368,23.7598666 C21.3080054,23.9655364 21.9355495,24.3288864 22.444369,24.8499166 C22.9531886,25.3709468 23.2075984,26.0290902 23.2075984,26.8243469 C23.2075984,27.9212526 22.6953867,28.7439319 21.6709634,29.2923847 C20.6465401,29.8408375 19.3270014,30.1150639 17.7123474,30.1150639 C16.9118046,30.1150639 16.1858888,30.0705021 15.5345998,29.9813786 C14.8833108,29.892255 14.2557666,29.7345748 13.6519674,29.5083379 C13.0481683,29.2821011 12.5427409,28.9873077 12.1356852,28.6239577 C11.7286295,28.2606077 11.402985,27.7875672 11.1587517,27.204836 C10.9145184,26.6221049 10.7924016,25.9468224 10.7924016,25.1789883 L10.7924016,16.2529183 Z M7.86160108,16.2529183 C7.86160108,14.4567353 8.29240164,12.9176395 9.15400277,11.635631 C10.0156038,10.3536225 11.1451832,9.41439691 12.5427409,8.81795443 C13.9402986,8.22151195 15.5278155,7.92329071 17.3052917,7.92329071 C20.751696,7.92329071 23.4246947,8.70483608 25.3242877,10.2679266 L24.1641791,11.1728739 C22.5495251,9.99370019 20.2632293,9.40411339 17.3052917,9.40411339 C14.9850746,9.40411339 13.0753053,9.99712803 11.5759837,11.1831573 C10.0766621,12.3691866 9.32700135,14.0591069 9.32700135,16.2529183 L9.32700135,25.1789883 C9.32700135,26.3307393 9.54070561,27.3316658 9.96811403,28.1817677 C10.3955224,29.0318696 11.0027137,29.7002965 11.789688,30.1870484 C12.5766621,30.6738003 13.458616,31.0302946 14.4355495,31.2565314 C15.412483,31.4827682 16.504749,31.5958866 17.7123474,31.5958866 C19.7204885,31.5958866 21.3826323,31.1776913 22.6987789,30.3413007 C24.0149254,29.5049102 24.6729986,28.3325922 24.6729986,26.8243469 C24.6729986,25.7959978 24.3609227,24.9081897 23.7367707,24.1609228 C23.1126187,23.4136558 22.3222524,22.8720586 21.3656717,22.5361312 C20.4090909,22.2002039 19.3541384,22.0322402 18.2008141,22.0322402 C16.504749,22.0322402 14.8968792,22.3955902 13.3772049,23.1222901 L13.3772049,21.5591996 C14.9647218,20.9421901 16.5793759,20.6336854 18.2211669,20.6336854 C20.4192673,20.6336854 22.2883311,21.185566 23.8283582,22.2893274 C25.3683853,23.3930887 26.1383989,24.9047619 26.1383989,26.8243469 C26.1383989,28.7576431 25.3378562,30.2830276 23.7367707,31.4005003 C22.1356852,32.517973 20.1275441,33.0767093 17.7123474,33.0767093 C16.3283582,33.0767093 15.0529172,32.9224569 13.8860244,32.6139522 C12.7191316,32.3054475 11.6811398,31.8426904 10.7720489,31.2256809 C9.86295797,30.6086715 9.15061063,29.7859922 8.63500685,28.7576431 C8.11940297,27.729294 7.86160108,26.5364092 7.86160108,25.1789883 L7.86160108,16.2529183 Z M4.93080054,16.2529183 C4.93080054,14.4704465 5.25644505,12.8559385 5.90773405,11.4093941 C6.55902306,9.96284972 7.44776122,8.77682044 8.57394842,7.85130635 C9.70013572,6.92579217 11.009498,6.21280341 12.5020353,5.71234026 C13.9945726,5.21187702 15.5956581,4.96164536 17.3052917,4.96164536 C19.394844,4.96164536 21.3351425,5.26329444 23.1261872,5.86659259 C24.917232,6.46989075 26.4165536,7.31999264 27.624152,8.41689827 L26.4843962,9.34241246 C25.3989145,8.41004268 24.0590231,7.69362609 22.4647219,7.19316294 C20.8704207,6.6926997 19.1506106,6.44246803 17.3052917,6.44246803 C15.7991859,6.44246803 14.3880597,6.65842139 13.0719132,7.09032802 C11.7557667,7.52223464 10.5990502,8.14267191 9.60176394,8.95163982 C8.60447759,9.76060781 7.8208955,10.7923847 7.25101766,12.0469706 C6.68113982,13.3015564 6.39620081,14.703539 6.39620081,16.2529183 L6.39620081,25.1789883 C6.39620081,26.7283676 6.69131615,28.1097832 7.28154682,29.3232351 C7.8717775,30.5366871 8.68588876,31.5204743 9.72388061,32.274597 C10.7618725,33.0287197 11.9559024,33.5977395 13.3059702,33.9816565 C14.656038,34.3655735 16.1248305,34.557532 17.7123474,34.557532 C20.5210312,34.557532 22.8717775,33.8548268 24.7645862,32.4494164 C26.6573949,31.0440059 27.6037992,29.1689828 27.6037992,26.8243469 C27.6037992,25.6177506 27.3493894,24.5277006 26.8405699,23.5541968 C26.3317503,22.580693 25.6431479,21.7820085 24.7747626,21.1581434 C23.9063773,20.5342783 22.9192673,20.0543821 21.8134329,19.7184547 C20.7075984,19.3825273 19.5373135,19.2145636 18.3025781,19.2145636 C16.6200814,19.2145636 14.9782904,19.5367797 13.3772049,20.1812118 L13.3772049,18.6798222 C15.046133,18.0902353 16.7014926,17.7954419 18.3432836,17.7954419 C20.2971506,17.7954419 22.0915875,18.1793589 23.7265943,18.9471929 C25.3616011,19.7150269 26.660787,20.7913656 27.624152,22.176209 C28.587517,23.5610524 29.0691995,25.1104317 29.0691995,26.8243469 C29.0691995,28.6479526 28.5569878,30.2693163 27.5325645,31.688438 C26.5081411,33.1075598 25.1377205,34.1873263 23.4213025,34.9277376 C21.7048847,35.668149 19.8018996,36.0383546 17.7123474,36.0383546 C15.9348711,36.0383546 14.2829037,35.8052622 12.7564451,35.3390773 C11.2299865,34.8728923 9.87991858,34.1976098 8.70624151,33.3132296 C7.53256444,32.4288494 6.60990507,31.2908097 5.93826322,29.8991106 C5.26662146,28.5074115 4.93080054,26.9340375 4.93080054,25.1789883 L4.93080054,16.2529183 Z M2,16.2529183 C2,14.0865296 2.40366354,12.1018158 3.21099052,10.2987771 C4.0183175,8.4957384 5.11397563,6.99434878 6.49796473,5.79460814 C7.88195392,4.59486759 9.50339216,3.66249773 11.3622795,2.99749864 C13.2211669,2.33249955 15.202171,2 17.3052917,2 C19.8426051,2 22.20692,2.40105616 24.3982361,3.20316848 C26.5895522,4.0052807 28.4246947,5.12618121 29.9036635,6.56586999 L28.7232022,7.45025019 C27.3799186,6.18880862 25.7143826,5.21187702 23.7265943,4.5194553 C21.738806,3.82703358 19.5983718,3.48082268 17.3052917,3.48082268 C15.3921303,3.48082268 13.6010855,3.76533265 11.9321574,4.33435241 C10.2632294,4.90337226 8.79782901,5.71234026 7.53595658,6.76125631 C6.27408414,7.81017236 5.28019002,9.15045398 4.55427412,10.7821012 C3.82835822,12.4137484 3.46540027,14.2373542 3.46540027,16.2529183 L3.46540027,25.1789883 C3.46540027,26.7420789 3.70963369,28.1920511 4.19810045,29.528905 C4.68656721,30.8657588 5.36499324,32.0209376 6.23337856,32.9944414 C7.10176396,33.9679452 8.12957939,34.7974801 9.31682502,35.4830461 C10.5040706,36.1686122 11.8066486,36.6793589 13.2245591,37.0152863 C14.6424695,37.3512136 16.1383989,37.5191773 17.7123474,37.5191773 C19.4626866,37.5191773 21.1214383,37.2620901 22.6886025,36.7479155 C24.2557666,36.233741 25.6160109,35.5173244 26.7693351,34.5986659 C27.9226594,33.6800074 28.8385346,32.5488234 29.5169606,31.205114 C30.1953867,29.8614045 30.5345997,28.4011488 30.5345997,26.8243469 C30.5345997,25.5629053 30.307327,24.3700204 29.8527815,23.2456921 C29.3982361,22.1213637 28.7808684,21.1444321 28.0006784,20.3148972 C27.2204885,19.4853623 26.3147897,18.7655179 25.2835821,18.1553641 C24.2523745,17.5452103 23.1431479,17.0858811 21.9559023,16.7773763 C20.7686567,16.4688716 19.5644505,16.3146192 18.3432836,16.3146192 C16.5929444,16.3146192 14.9375848,16.623124 13.3772049,17.2401334 L13.3772049,15.7181768 C15.0054274,15.1834353 16.687924,14.9160645 18.4246947,14.9160645 C20.2021709,14.9160645 21.9084125,15.2005744 23.5434193,15.7695942 C25.1784261,16.3386141 26.6200814,17.1270151 27.8683854,18.1347971 C29.1166893,19.1425792 30.1173677,20.4005929 30.8704206,21.9088382 C31.6234735,23.4170836 32,25.0555865 32,26.8243469 C32,28.6068186 31.6234735,30.2624606 30.8704206,31.7912729 C30.1173677,33.3200852 29.0963365,34.6089494 27.807327,35.6578655 C26.5183175,36.7067815 25.0020353,37.526033 23.2584803,38.1156198 C21.5149254,38.7052066 19.6662144,39 17.7123474,39 C15.5278155,39 13.4891452,38.6914953 11.5963366,38.0744858 C9.70352786,37.4574764 8.04138403,36.5730962 6.60990507,35.4213452 C5.1784261,34.2695942 4.05223881,32.8127664 3.23134327,31.0508616 C2.41044782,29.2889568 2,27.3316658 2,25.1789883 L2,16.2529183 Z" id="6"></path>
    <path d="M29.3549924,1.95121951 L30.9984756,1.95121951 L22.0579268,38.2393293 L20.4144436,38.2393293 L29.3549924,1.95121951 Z M17.0398247,8.26219512 L16.6673019,9.83993902 L4.87804878,9.83993902 L4.87804878,8.26219512 L17.0398247,8.26219512 Z M17.7848704,5.10670732 L17.4123475,6.68445122 L4.87804878,6.68445122 L4.87804878,5.10670732 L17.7848704,5.10670732 Z M18.48609,1.95121951 L18.1793064,3.52896341 L4.87804878,3.52896341 L4.87804878,1.95121951 L18.48609,1.95121951 Z M19.6036585,1.95121951 L21.2252287,1.95121951 L12.2846799,38.2393293 L10.6631098,38.2393293 L19.6036585,1.95121951 Z M22.8467988,1.95121951 L24.490282,1.95121951 L15.5497333,38.2393293 L13.90625,38.2393293 L22.8467988,1.95121951 Z M26.1118521,1.95121951 L27.7334222,1.95121951 L18.7928735,38.2393293 L17.1713033,38.2393293 L26.1118521,1.95121951 Z" id="7"></path>
    <path d="M14.982906,15.32 L19.4247206,15.32 C21.0688144,15.32 22.6483673,15.6043518 24.1633794,16.1730555 C25.6783914,16.7417593 27.0167653,17.5262963 28.1785011,18.5266667 C29.3402367,19.527037 30.2675871,20.7672222 30.9605523,22.2472222 C31.6535175,23.7272222 32,25.3237037 32,27.0366667 C32,29.3662963 31.4191322,31.4492593 30.2573965,33.2855556 C29.0956607,35.1218519 27.5398861,36.5333333 25.5900724,37.52 C23.6402587,38.5066667 21.4832347,39 19.1190006,39 L15.2886259,39 C13.4678939,39 11.7490686,38.7087963 10.1321499,38.1263889 C8.51523121,37.5439815 7.10552268,36.7388889 5.90302433,35.7111111 C4.70052597,34.6833333 3.74939733,33.4123148 3.0496384,31.8980556 C2.34987947,30.3837963 2,28.7359259 2,26.9544444 C2,24.802963 2.5367083,22.8501852 3.61012492,21.0961111 L4.66995398,22.2061111 C3.86828841,23.6724074 3.46745562,25.2551852 3.46745562,26.9544444 C3.46745562,29.0511112 4.00076704,30.9113889 5.06738988,32.5352778 C6.13401271,34.1591666 7.56070568,35.395926 9.34746878,36.2455556 C11.1342319,37.0951852 13.1146176,37.52 15.2886259,37.52 L19.1190006,37.52 C21.2114837,37.52 23.1205348,37.0917593 24.8461539,36.2352778 C26.571773,35.3787963 27.9509096,34.145463 28.9835635,32.5352778 C30.0162174,30.9250926 30.5325444,29.0922222 30.5325444,27.0366667 C30.5325444,25.5292593 30.2132369,24.1246296 29.574622,22.8227778 C28.936007,21.5209259 28.0935788,20.4383333 27.0473373,19.575 C26.0010958,18.7116667 24.8087881,18.0333333 23.4704142,17.54 C22.1320403,17.0466666 20.7563007,16.8 19.3431953,16.8 L14.9625247,16.8 C12.1906641,16.8 10.8047337,15.7927778 10.8047337,13.7783333 C10.8047337,12.8738889 11.191979,12.1647222 11.9664694,11.6508334 C12.7409599,11.1369444 13.7124699,10.88 14.8809994,10.88 L18.7113741,10.88 C20.0293666,10.88 21.1061801,11.1540741 21.9418146,11.7022222 C22.7774491,12.2503703 23.1952663,13.0725926 23.1952663,14.1688889 C23.1952663,14.6485185 23.113741,15.0185185 22.9506904,15.2788889 L21.5851414,14.9911111 C21.6802543,14.8540741 21.7278106,14.58 21.7278106,14.1688889 C21.7278106,12.962963 20.7223318,12.36 18.7113741,12.36 L14.8809994,12.36 C14.133684,12.36 13.5120535,12.4833333 13.0161078,12.73 C12.5201621,12.9766666 12.2721894,13.3261111 12.2721894,13.7783333 C12.2721894,14.395 12.5099715,14.8061111 12.9855358,15.0116666 C13.4611002,15.2172222 14.1268902,15.32 14.982906,15.32 Z M19.0170941,25.68 L14.5752794,25.68 C12.9311857,25.68 11.3516327,25.3956482 9.83662065,24.8269445 C8.32160859,24.2582407 6.98323472,23.4702778 5.82149902,22.4630556 C4.65976331,21.4558333 3.73241289,20.1985185 3.03944773,18.6911111 C2.34648258,17.1837037 2,15.5461111 2,13.7783333 C2,11.5309259 2.58086785,9.50277778 3.74260356,7.69388889 C4.90433925,5.885 6.46351085,4.4837963 8.42011835,3.49027778 C10.3767258,2.49675926 12.5303528,2 14.8809994,2 L18.7113741,2 C20.5321061,2 22.2543283,2.29462963 23.8780407,2.88388889 C25.5017533,3.47314815 26.9114617,4.29194444 28.1071664,5.34027777 C29.3028709,6.38861111 30.2506027,7.67675926 30.9503617,9.20472222 C31.6501206,10.7326852 32,12.3874074 32,14.1688889 C32,16.3203704 31.4632917,18.2731481 30.3898751,20.0272222 L29.330046,18.9172223 C30.1317117,17.4509259 30.5325444,15.8681481 30.5325444,14.1688889 C30.5325444,12.0722222 29.999233,10.2016667 28.9326101,8.55722222 C27.8659873,6.91277778 26.4392944,5.65546297 24.6525313,4.78527778 C22.8657681,3.9150926 20.8853824,3.48 18.7113741,3.48 L14.8809994,3.48 C13.3184309,3.48 11.8407846,3.73351852 10.4480605,4.24055556 C9.05533641,4.7475926 7.84604427,5.44648148 6.8201841,6.33722222 C5.79432391,7.22796296 4.97907079,8.31740741 4.37442472,9.60555556 C3.76977865,10.8937037 3.46745562,12.2846296 3.46745562,13.7783333 C3.46745562,15.3405555 3.7867631,16.7897222 4.42537804,18.1258334 C5.06399299,19.4619444 5.90642122,20.5650926 6.95266273,21.4352778 C7.99890423,22.305463 9.19121193,22.9837963 10.5295858,23.4702778 C11.8679597,23.9567592 13.2436993,24.2 14.6568048,24.2 L19.0374754,24.2 C20.2195924,24.2 21.2080868,24.432963 22.0029586,24.8988889 C22.7978304,25.3648149 23.1952663,26.0774074 23.1952663,27.0366667 C23.1952663,28.0644445 22.8148148,28.8352778 22.0539119,29.3491666 C21.293009,29.8630556 20.3147053,30.12 19.1190006,30.12 L15.2886259,30.12 C13.9570458,30.12 12.8768354,29.8630556 12.0479948,29.3491666 C11.219154,28.8352778 10.8047337,28.037037 10.8047337,26.9544444 C10.8047337,26.3788889 10.8794653,25.9540741 11.0289283,25.68 L12.43524,25.9883334 C12.3265395,26.1801852 12.2721894,26.5022222 12.2721894,26.9544444 C12.2721894,27.5985185 12.5371466,28.0404629 13.0670612,28.2802778 C13.5969757,28.5200926 14.3374973,28.64 15.2886259,28.64 L19.1190006,28.64 C20.8582073,28.64 21.7278106,28.1055555 21.7278106,27.0366667 C21.7278106,26.1322222 20.8242385,25.68 19.0170941,25.68 Z M19.200526,22.72 L14.6568048,22.72 C11.9664694,22.72 9.67357003,21.8635185 7.77810651,20.1505555 C5.882643,18.4375926 4.93491125,16.3135185 4.93491125,13.7783333 C4.93491125,11.202037 5.89623055,9.08824074 7.81886917,7.43694445 C9.74150779,5.78564815 12.0955511,4.96 14.8809994,4.96 L18.7113741,4.96 C20.6136314,4.96 22.3460443,5.33 23.9086128,6.07 C25.4711813,6.81 26.721236,7.88916666 27.6587771,9.3075 C28.5963183,10.7258333 29.0650888,12.3462963 29.0650888,14.1688889 C29.0650888,15.4981482 28.7797502,16.7383333 28.209073,17.8894445 L27.0065746,17.1494444 C27.4006136,16.2038889 27.5976331,15.2103703 27.5976331,14.1688889 C27.5976331,11.8255555 26.7484111,9.95157407 25.0499671,8.54694444 C23.3515232,7.14231481 21.2386588,6.44 18.7113741,6.44 L14.8809994,6.44 C12.4895902,6.44 10.4786325,7.11833334 8.84812624,8.475 C7.21761999,9.83166667 6.40236687,11.5994444 6.40236687,13.7783333 C6.40236687,14.9431481 6.62995836,16.0017592 7.08514136,16.9541666 C7.54032435,17.906574 8.1517642,18.6911111 8.91946089,19.3077778 C9.68715758,19.9244444 10.5669515,20.4006482 11.5588429,20.7363889 C12.5507341,21.0721296 13.5969757,21.24 14.6975674,21.24 L19.2209073,21.24 C20.4573745,21.24 21.595332,21.4661111 22.6347798,21.9183333 C23.6742275,22.3705556 24.5166557,23.045463 25.1620645,23.9430556 C25.8074732,24.8406482 26.1301775,25.8718518 26.1301775,27.0366667 C26.1301775,28.9140741 25.4643875,30.3906482 24.1328074,31.4663889 C22.8012272,32.5421296 21.1299584,33.08 19.1190006,33.08 L15.2886259,33.08 C13.1553803,33.08 11.3856016,32.5421296 9.97928995,31.4663889 C8.57297831,30.3906482 7.86982249,28.8866666 7.86982249,26.9544444 C7.86982249,26.1733333 8.01249179,25.4196296 8.29783038,24.6933333 L9.66337936,25.2483333 C9.44597853,25.7416667 9.33727811,26.3103704 9.33727811,26.9544444 C9.33727811,28.4481482 9.89776464,29.5958333 11.0187376,30.3975 C12.1397107,31.1991666 13.5630068,31.6 15.2886259,31.6 L19.1190006,31.6 C20.7223318,31.6 22.0471182,31.1991666 23.0933596,30.3975 C24.1396011,29.5958333 24.6627219,28.4755556 24.6627219,27.0366667 C24.6627219,25.7074074 24.1294105,24.6556481 23.0627876,23.8813889 C21.9961648,23.1071296 20.7087443,22.72 19.200526,22.72 Z M19.3024327,19.76 L14.7790927,19.76 C12.8496603,19.76 11.2157572,19.2255555 9.87738331,18.1566667 C8.53900943,17.0877778 7.86982249,15.6283334 7.86982249,13.7783333 C7.86982249,12.0105556 8.54240632,10.5922222 9.88757397,9.52333333 C11.2327416,8.45444445 12.8972168,7.92 14.8809994,7.92 L18.7113741,7.92 C20.8310322,7.92 22.597414,8.47842592 24.0105194,9.59527778 C25.4236248,10.7121296 26.1301775,12.2366667 26.1301775,14.1688889 C26.1301775,14.95 25.9943021,15.6557408 25.722551,16.2861111 L24.357002,15.7311111 C24.5608153,15.32 24.6627219,14.7992593 24.6627219,14.1688889 C24.6627219,12.6614815 24.0988385,11.4898148 22.9710717,10.6538889 C21.8433049,9.81796296 20.4234056,9.4 18.7113741,9.4 L14.8809994,9.4 C13.3048433,9.4 11.9868508,9.79740741 10.9270217,10.5922222 C9.86719265,11.3870371 9.33727811,12.449074 9.33727811,13.7783333 C9.33727811,15.230926 9.86379576,16.3443519 10.9168311,17.1186111 C11.9698663,17.8928704 13.2640807,18.28 14.7994741,18.28 L19.3431953,18.28 C22.019943,18.28 24.3094455,19.1330555 26.2117029,20.8391666 C28.1139602,22.5452777 29.0650888,24.6111111 29.0650888,27.0366667 C29.0650888,28.8181482 28.6133027,30.4009259 27.7097305,31.785 C26.8061583,33.169074 25.6036599,34.2242592 24.1022354,34.9505555 C22.6008109,35.6768518 20.9397327,36.04 19.1190006,36.04 L15.2886259,36.04 C13.3863686,36.04 11.6539557,35.6802778 10.0913873,34.9608334 C8.52881877,34.2413889 7.27876397,33.1827778 6.34122289,31.785 C5.40368179,30.3872222 4.93491125,28.7770371 4.93491125,26.9544444 C4.93491125,25.6251852 5.22024983,24.385 5.79092703,23.2338889 L6.99342539,23.9738889 C6.59938638,24.9194444 6.40236687,25.912963 6.40236687,26.9544444 C6.40236687,28.5166667 6.80659654,29.8836111 7.61505589,31.0552778 C8.42351524,32.2269445 9.49353496,33.1039815 10.825115,33.6863889 C12.1566952,34.2687963 13.6445321,34.56 15.2886259,34.56 L19.1190006,34.56 C21.5239974,34.56 23.538352,33.8782408 25.1620645,32.5147222 C26.7857769,31.1512037 27.5976331,29.3251852 27.5976331,27.0366667 C27.5976331,25.5703703 27.206991,24.2753704 26.4257068,23.1516667 C25.6444225,22.027963 24.628753,21.1817593 23.3786983,20.6130555 C22.1286435,20.0443518 20.7698883,19.76 19.3024327,19.76 Z" id="8"></path>
    <path d="M23.2075984,24.7470817 C23.2075984,26.5295535 22.600407,27.8698351 21.3860244,28.7679266 C20.1716418,29.6660181 18.6078697,30.1150639 16.6947083,30.1150639 C14.1845319,30.1150639 12.2713705,29.7037243 10.9552239,28.881045 L12.1356852,27.9760978 C13.0176391,28.4148601 14.5373134,28.6342413 16.6947083,28.6342413 C18.2143826,28.6342413 19.4355495,28.3291643 20.3582089,27.7190105 C21.2808684,27.1088568 21.7421981,26.1182138 21.7421981,24.7470817 L21.7421981,15.8210117 C21.7421981,15.2177135 21.6438263,14.7001112 21.4470828,14.2682045 C21.2503392,13.8362979 20.9993216,13.4969428 20.6940298,13.2501389 C20.3887381,13.0033352 19.9816825,12.8148045 19.4728629,12.6845469 C18.9640434,12.5542894 18.4755766,12.4685937 18.0074626,12.4274597 C17.5393487,12.3863257 16.9660786,12.3657587 16.2876526,12.3657587 C13.6010855,12.3657587 12.2578019,12.9690569 12.2578019,14.1756531 C12.2578019,14.8749305 12.6071913,15.3822494 13.3059702,15.6976098 C14.0047489,16.0129701 14.8968792,16.1706503 15.9823609,16.1706503 C17.6648575,16.1706503 19.2116689,15.7867334 20.6227951,15.0188993 L20.6227951,16.499722 C19.1709634,17.1989994 17.6173677,17.5486382 15.9620081,17.5486382 C15.0257802,17.5486382 14.1845319,17.4458032 13.4382632,17.2401334 C12.6919946,17.0344636 12.0644505,16.6711136 11.555631,16.1500834 C11.0468114,15.6290532 10.7924016,14.9709098 10.7924016,14.1756531 C10.7924016,13.0787474 11.3046133,12.2560681 12.3290366,11.7076153 C13.3534599,11.1591625 14.6729986,10.8849361 16.2876526,10.8849361 C17.0881954,10.8849361 17.8141112,10.9294979 18.4654002,11.0186214 C19.1166892,11.107745 19.7442334,11.2654252 20.3480326,11.4916621 C20.9518317,11.7178989 21.4572591,12.0126923 21.8643148,12.3760423 C22.2713705,12.7393923 22.597015,13.2124328 22.8412483,13.795164 C23.0854816,14.3778951 23.2075984,15.0531776 23.2075984,15.8210117 L23.2075984,24.7470817 Z M26.1383989,24.7470817 C26.1383989,26.5432647 25.7075984,28.0823605 24.8459972,29.364369 C23.9843962,30.6463775 22.8548168,31.5856031 21.4572591,32.1820456 C20.0597014,32.778488 18.4721845,33.0767093 16.6947083,33.0767093 C13.248304,33.0767093 10.5753053,32.2951639 8.67571234,30.7320734 L9.83582086,29.8271261 C11.4504749,31.0062998 13.7367707,31.5958866 16.6947083,31.5958866 C19.0149254,31.5958866 20.9246947,31.002872 22.4240163,29.8168427 C23.9233379,28.6308134 24.6729986,26.9408931 24.6729986,24.7470817 L24.6729986,15.8210117 C24.6729986,14.6692607 24.4592944,13.6683342 24.031886,12.8182323 C23.6044776,11.9681304 22.9972863,11.2997035 22.210312,10.8129516 C21.4233379,10.3261997 20.541384,9.96970538 19.5644505,9.74346859 C18.587517,9.51723179 17.495251,9.40411339 16.2876526,9.40411339 C14.2795115,9.40411339 12.6173677,9.82230868 11.3012211,10.6586993 C9.98507464,11.4950898 9.32700135,12.6674078 9.32700135,14.1756531 C9.32700135,15.2040022 9.6390773,16.0918103 10.2632293,16.8390772 C10.8873813,17.5863442 11.6777476,18.1279414 12.6343283,18.4638688 C13.5909091,18.7997961 14.6458616,18.9677598 15.7991859,18.9677598 C17.495251,18.9677598 19.1031208,18.6044098 20.6227951,17.8777099 L20.6227951,19.4408004 C19.0352782,20.0578099 17.4206241,20.3663146 15.7788331,20.3663146 C13.5807327,20.3663146 11.7116689,19.814434 10.1716418,18.7106726 C8.63161465,17.6069113 7.86160108,16.0952381 7.86160108,14.1756531 C7.86160108,12.2423569 8.66214382,10.7169724 10.2632293,9.59949972 C11.8643148,8.48202704 13.8724559,7.92329071 16.2876526,7.92329071 C17.6716418,7.92329071 18.9470828,8.07754307 20.1139756,8.38604779 C21.2808684,8.69455253 22.3188602,9.15730961 23.2279511,9.77431906 C24.137042,10.3913285 24.8493894,11.2140078 25.3649932,12.2423569 C25.880597,13.270706 26.1383989,14.4635908 26.1383989,15.8210117 L26.1383989,24.7470817 Z M29.0691995,24.7470817 C29.0691995,26.5295535 28.743555,28.1440615 28.0922659,29.5906059 C27.4409769,31.0371503 26.5522388,32.2231796 25.4260516,33.1486936 C24.2998643,34.0742078 22.990502,34.7871966 21.4979647,35.2876597 C20.0054274,35.788123 18.4043419,36.0383546 16.6947083,36.0383546 C14.605156,36.0383546 12.6648575,35.7367056 10.8738128,35.1334074 C9.08276797,34.5301092 7.5834464,33.6800074 6.37584803,32.5831017 L7.51560379,31.6575875 C8.60108548,32.5899573 9.94097691,33.3063739 11.5352781,33.8068371 C13.1295793,34.3073003 14.8493894,34.557532 16.6947083,34.557532 C18.2008141,34.557532 19.6119403,34.3415786 20.9280868,33.909672 C22.2442333,33.4777654 23.4009498,32.8573281 24.3982361,32.0483602 C25.3955224,31.2393922 26.1791045,30.2076153 26.7489823,28.9530294 C27.3188602,27.6984436 27.6037992,26.296461 27.6037992,24.7470817 L27.6037992,15.8210117 C27.6037992,14.2716324 27.3086839,12.8902168 26.7184532,11.6767649 C26.1282225,10.4633129 25.3141112,9.47952565 24.2761194,8.72540299 C23.2381275,7.97128033 22.0440976,7.40226051 20.6940298,7.01834352 C19.343962,6.63442653 17.8751695,6.44246803 16.2876526,6.44246803 C13.4789688,6.44246803 11.1282225,7.14517324 9.23541383,8.55058365 C7.34260515,9.95599406 6.39620081,11.8310172 6.39620081,14.1756531 C6.39620081,15.3822494 6.65061058,16.4722994 7.15943012,17.4458032 C7.66824965,18.419307 8.3568521,19.2179915 9.22523744,19.8418566 C10.0936227,20.4657217 11.0807327,20.9456179 12.1865671,21.2815453 C13.2924016,21.6174727 14.4626865,21.7854364 15.6974219,21.7854364 C17.3799186,21.7854364 19.0217096,21.4632203 20.6227951,20.8187882 L20.6227951,22.3201778 C18.953867,22.9097647 17.2985074,23.2045581 15.6567164,23.2045581 C13.7028494,23.2045581 11.9084125,22.8206411 10.2734057,22.0528071 C8.63839891,21.2849731 7.33921302,20.2086344 6.37584803,18.823791 C5.41248304,17.4389476 4.93080054,15.8895683 4.93080054,14.1756531 C4.93080054,12.3520474 5.44301221,10.7306837 6.46743555,9.31156197 C7.49185889,7.89244024 8.86227951,6.81267371 10.5786975,6.07226236 C12.2951153,5.33185103 14.1981004,4.96164536 16.2876526,4.96164536 C18.0651289,4.96164536 19.7170963,5.19473781 21.2435549,5.66092274 C22.7700135,6.12710765 24.1200814,6.80239022 25.2937585,7.68677042 C26.4674356,8.57115063 27.3900949,9.70919028 28.0617368,11.1008894 C28.7333785,12.4925885 29.0691995,14.0659625 29.0691995,15.8210117 L29.0691995,24.7470817 Z M32,24.7470817 C32,26.9134704 31.5963365,28.8981842 30.7890095,30.7012229 C29.9816825,32.5042616 28.8860244,34.0056512 27.5020353,35.2053919 C26.1180461,36.4051324 24.4966078,37.3375023 22.6377205,38.0025014 C20.7788331,38.6675005 18.797829,39 16.6947083,39 C14.1573949,39 11.79308,38.5989438 9.60176394,37.7968315 C7.41044776,36.9947193 5.57530529,35.8738188 4.0963365,34.43413 L5.27679783,33.5497498 C6.62008141,34.8111914 8.28561736,35.788123 10.2734057,36.4805447 C12.261194,37.1729664 14.4016282,37.5191773 16.6947083,37.5191773 C18.6078697,37.5191773 20.3989145,37.2346674 22.0678426,36.6656476 C23.7367706,36.0966277 25.202171,35.2876597 26.4640434,34.2387437 C27.7259159,33.1898276 28.71981,31.849546 29.4457259,30.2178988 C30.1716418,28.5862516 30.5345997,26.7626458 30.5345997,24.7470817 L30.5345997,15.8210117 C30.5345997,14.2579211 30.2903663,12.8079489 29.8018995,11.471095 C29.3134328,10.1342412 28.6350068,8.97906243 27.7666214,8.00555864 C26.898236,7.03205484 25.8704206,6.20251992 24.683175,5.51695386 C23.4959294,4.83138781 22.1933514,4.3206411 20.7754409,3.98471373 C19.3575305,3.64878636 17.8616011,3.48082268 16.2876526,3.48082268 C14.5373134,3.48082268 12.8785617,3.73790995 11.3113975,4.25208449 C9.74423336,4.76625903 8.38398914,5.48267556 7.23066486,6.40133407 C6.07734057,7.31999258 5.1614654,8.45117658 4.48303935,9.79488604 C3.8046133,11.1385955 3.46540027,12.5988512 3.46540027,14.1756531 C3.46540027,15.4370947 3.692673,16.6299796 4.14721845,17.7543079 C4.60176391,18.8786363 5.21913161,19.8555679 5.99932157,20.6851028 C6.77951153,21.5146377 7.68521031,22.2344821 8.71641791,22.8446359 C9.7476255,23.4547897 10.8568521,23.9141189 12.0440977,24.2226237 C13.2313433,24.5311284 14.4355495,24.6853808 15.6567164,24.6853808 C17.4070556,24.6853808 19.0624152,24.376876 20.6227951,23.7598666 L20.6227951,25.2818232 C18.9945726,25.8165647 17.312076,26.0839355 15.5753053,26.0839355 C13.7978291,26.0839355 12.0915875,25.7994256 10.4565807,25.2304058 C8.82157394,24.6613859 7.37991859,23.8729849 6.13161465,22.8652029 C4.88331072,21.8574208 3.88263229,20.5994071 3.12957937,19.0911618 C2.37652645,17.5829164 2,15.9444135 2,14.1756531 C2,12.3931814 2.37652645,10.7375394 3.12957937,9.20872706 C3.88263229,7.67991476 4.9036635,6.39105058 6.19267299,5.34213451 C7.4816825,4.29321845 8.99796472,3.47396702 10.7415197,2.88438021 C12.4850746,2.2947934 14.3337856,2 16.2876526,2 C18.4721845,2 20.5108548,2.30850472 22.4036634,2.92551418 C24.2964721,3.54252362 25.958616,4.42690383 27.3900949,5.5786548 C28.8215739,6.73040577 29.9477612,8.18723364 30.7686567,9.9491384 C31.5895522,11.7110432 32,13.6683342 32,15.8210117 L32,24.7470817 Z" id="9"></path>
    <path d="M14.6341463,25.9070122 L14.6341463,24.3292683 L22.5228659,24.3292683 L22.5228659,25.9070122 L14.6341463,25.9070122 Z M14.6341463,29.0625 L14.6341463,27.4847561 L22.5228659,27.4847561 L22.5228659,29.0625 L14.6341463,29.0625 Z M14.6341463,32.2179878 L14.6341463,30.6402439 L22.5228659,30.6402439 L22.5228659,32.2179878 L14.6341463,32.2179878 Z M14.6341463,13.285061 L14.6341463,11.7073171 L22.5228659,11.7073171 L22.5228659,13.285061 L14.6341463,13.285061 Z M14.6341463,16.4405488 L14.6341463,14.8628049 L22.5228659,14.8628049 L22.5228659,16.4405488 L14.6341463,16.4405488 Z M14.6341463,19.5960366 L14.6341463,18.0182927 L22.5228659,18.0182927 L22.5228659,19.5960366 L14.6341463,19.5960366 Z" id="10"></path>
</svg>
