<svg xmlns="http://www.w3.org/2000/svg" xmlns:xlink="http://www.w3.org/1999/xlink" viewBox="0 0 144 144">
<rect id="background" fill="#5e8b8b" fill-rule="nonzero" x="0" y="0" width="144" height="144"/>
<path id="icon" fill="#f3f3f3" fill-rule="evenodd" d="M106,49l0,45c0,4.415 -3.585,8 -8,8l-53,0c-4.415,0 -8,-3.585 -8,-8l0,-45c0,-4.415 3.585,-8 8,-8l53,0c4.415,0 8,3.585 8,8Zm-4,6l-0,-6c-0,-2.208 -1.792,-4 -4,-4l-53,0c-2.208,0 -4,1.792 -4,4l0,6l61,0Zm-61,4l0,35c0,2.208 1.792,4 4,4l53,0c2.208,0 4,-1.792 4,-4l-0,-35l-61,0Zm55,-11c1.104,0 2,0.896 2,2c0,1.104 -0.896,2 -2,2c-1.104,0 -2,-0.896 -2,-2c0,-1.104 0.896,-2 2,-2Zm-7,0c1.104,0 2,0.896 2,2c0,1.104 -0.896,2 -2,2c-1.104,0 -2,-0.896 -2,-2c0,-1.104 0.896,-2 2,-2Zm-7,0c1.104,0 2,0.896 2,2c0,1.104 -0.896,2 -2,2c-1.104,0 -2,-0.896 -2,-2c0,-1.104 0.896,-2 2,-2Z"/>
</svg>