<svg xmlns="http://www.w3.org/2000/svg" xmlns:xlink="http://www.w3.org/1999/xlink" viewBox="0 0 144 144">

<g id="pauseRecording-pressed" fill="none" fill-rule="evenodd" stroke="none">
<rect id="background" fill="#5e8b8b" fill-rule="nonzero" x="0" y="0" width="144" height="144"/>
<path fill="#f3f3f3" fill-rule="nonzero" d="M94.828,94.416c-5.809,5.914 -13.893,9.584 -22.828,9.584c-17.661,0 -32,-14.339 -32,-32c0,-17.661 14.339,-32 32,-32c8.935,0 17.019,3.67 22.828,9.584c-1.172,0.69 -2.285,1.47 -3.329,2.329c-5.044,-4.897 -11.922,-7.913 -19.499,-7.913c-15.454,0 -28,12.546 -28,28c-0,15.454 12.546,28 28,28c7.577,0 14.455,-3.016 19.499,-7.913c1.044,0.859 2.157,1.639 3.329,2.329Zm-8.663,-8.303c-3.622,3.636 -8.633,5.887 -14.165,5.887c-11.038,0 -20,-8.962 -20,-20c-0,-11.038 8.962,-20 20,-20c5.532,-0 10.543,2.251 14.165,5.887c-0.763,1.178 -1.434,2.422 -2.002,3.722c-2.936,-3.432 -7.297,-5.609 -12.163,-5.609c-8.831,-0 -16,7.169 -16,16c-0,8.831 7.169,16 16,16c4.866,-0 9.227,-2.177 12.163,-5.609c0.568,1.3 1.239,2.544 2.002,3.722Zm21.835,-34.113c11.038,0 20,8.962 20,20c0,11.038 -8.962,20 -20,20c-11.038,0 -20,-8.962 -20,-20c-0,-11.038 8.962,-20 20,-20Zm-2,12l-6,0l0,16l6,0l0,-16Zm10,0l-6,0l0,16l6,0l0,-16Z"/></g></svg>