<svg xmlns="http://www.w3.org/2000/svg" width="20" height="20">
  <path fill="#D8D8D8" fill-rule="nonzero" d="M11 13.907a5.052 5.052 0 0 0 1.118 0L12.117 15H19a1 1 0 0 1 1 1v3a1 1 0 0 1-1 1h-7a1 1 0 0 1-1-1v-5.093ZM5.235 1a2.243 2.243 0 0 1 2.236 2.25v7.352c1.336.778 2.235 1.982 2.235 3.648 0 2.485-2.002 4.75-4.47 4.75-2.47 0-4.471-2.015-4.471-4.5 0-1.666.899-3.12 2.235-3.898V3.25C3 2.007 4 1 5.235 1ZM18 16h-1l-.001 1H16v1h.999L17 19h1l-.001-1H19v-1h-1.001L18 16Zm-3 1h-3v1h3v-1Zm1.168-6.096 2.446 1.421-.56.975-2.446-1.422c.22-.301.41-.627.56-.974ZM11.558 5.5c1.853 0 3.354 1.511 3.354 3.375s-1.501 3.375-3.353 3.375a3.322 3.322 0 0 1-1.873-.575 5.643 5.643 0 0 0-1.201-1.45c-.18-.414-.28-1.12-.28-1.6 0-1.864 1.502-3.125 3.354-3.125Zm0 1.125a2.243 2.243 0 0 0-2.234 2.25c0 1.243 1 2.25 2.235 2.25a2.243 2.243 0 0 0 2.235-2.25c0-1.243-1-2.25-2.235-2.25Zm6.497-2.175.559.975-2.446 1.42a5.065 5.065 0 0 0-.56-.973l2.447-1.422ZM5.235 2.125c-.617 0-1.117.504-1.117 1.125l-.001 3.125h2.236V3.25c0-.621-.5-1.125-1.118-1.125ZM12.118 1v2.843a5.052 5.052 0 0 0-1.118 0V1h1.118Z"/>
</svg>