<svg xmlns="http://www.w3.org/2000/svg" width="40" height="40" viewBox="0 0 40 40"><g id="actionimage_color_picker" fill="none" fill-rule="evenodd" stroke="none" stroke-width="1"><rect id="Rectangle" width="40" height="40" x="0" y="0" fill="#000" fill-opacity=".01"/><path id="Shape" stroke="#D8D8D8" stroke-width="1.5" d="M13.1396542,30.7487806 C14.2787148,31.4772105 15.54123,32.0295456 16.8887864,32.3675204 L17.2084023,39.0491514 C13.9629593,38.5778071 10.9799765,37.2965537 8.47094429,35.4171718 Z M26.8602835,30.7488212 L31.5283686,35.4176864 C29.0087444,37.3048275 26.0112118,38.5888015 22.7499291,39.0551565 L22.7495325,32.4526182 C24.2331136,32.1264559 25.6198941,31.5420442 26.8602835,30.7488212 Z M7.54738177,22.7495325 C7.87345938,24.2327283 8.45765231,25.6191737 9.25056082,26.859317 L4.58223647,31.5282657 C2.69513747,29.0086627 1.41119212,26.0111674 0.944843535,22.7499291 Z M39.0551565,22.7499291 C38.5888015,26.0112118 37.3048275,29.0087444 35.4176864,31.5283686 L30.7488212,26.8602835 C31.5420442,25.6198941 32.1264559,24.2331136 32.4526182,22.7495325 Z M35.4171722,8.47094391 C37.2243799,10.8836152 38.4785373,13.7345271 38.9912817,16.8356545 L32.4442748,17.2127901 C32.1165352,15.7433795 31.5353057,14.369553 30.7487811,13.1396537 Z M16.8357009,1.00871062 L17.2127943,7.5557243 C15.743416,7.88345611 14.3696174,8.46466681 13.1397387,9.25116463 L8.47187371,4.58213141 C10.8843597,2.77528886 13.7349539,1.52138427 16.8357009,1.00871062 Z"/><path id="Path" fill="#999" stroke="#D8D8D8" stroke-width="1.5" d="M4.34688918,8.79280052 L9.23212832,13.1695977 C8.44881091,14.4020243 7.87124498,15.778032 7.54764855,17.2492544 L0.944863083,17.2499331 C1.39157341,14.1261809 2.58839294,11.2444005 4.34688918,8.79280052 Z"/><path fill="#D8D8D8" stroke="#D8D8D8" d="M22.4999463,0.658702174 C26.0142111,1.10834614 29.2359259,2.49357768 31.9075045,4.55657807 L26.8928018,9.57061028 C25.580796,8.70182238 24.0953351,8.07397798 22.4995203,7.75004652 Z"/></g></svg>