<svg xmlns="http://www.w3.org/2000/svg" width="144" height="144" viewBox="0 0 144 144"><g id="battery" fill="none" fill-rule="evenodd" stroke="none" stroke-width="1"><rect id="background" width="144" height="144" x="0" y="0" fill="#4E4E61" fill-rule="nonzero" rx="24"/><g id="battery_charging" transform="translate(23 45)"><path id="notCharging_battery" fill="#D8D8D8" d="M85.75,6.11111111 C85.75,2.73777778 83.006,0 79.625,0 L6.125,0 C2.744,0 0,2.73777778 0,6.11111111 L0,48.8888889 C0,52.2622222 2.744,55 6.125,55 L79.625,55 C83.006,55 85.75,52.2622222 85.75,48.8888889 L85.75,6.11111111 Z M79.625,6.11111111 L6.125,6.11111111 L6.125,48.8888889 L79.625,48.8888889 L79.625,6.11111111 Z M91.875,18.3333333 L91.875,36.6666667 C95.256,36.6666667 98,33.9288889 98,30.5555556 L98,24.4444444 C98,21.0711111 95.256,18.3333333 91.875,18.3333333 Z"/><g id="notCharging" transform="translate(12.25 12.222)"><rect id="notCharging_0-20" width="12.25" height="30.556" x="0" y="0" fill="#F20D0D"/><rect id="notCharging_20-40" width="24.5" height="30.556" x="0" y="0" fill="#D8D8D8"/><rect id="notCharging_80-100" width="61.25" height="30.556" x="0" y="0" fill="#D8D8D8"/></g></g></g></svg>