<svg xmlns="http://www.w3.org/2000/svg" width="20" height="20" viewBox="0 0 20 20"><g id="actionimage_temperature" fill="none" fill-rule="evenodd" stroke="none" stroke-width="1"><path id="meter" fill="#D8D8D8" d="M10.4705882,1 C11.7051071,1 12.7058824,2.00735931 12.7058824,3.25 L12.7058824,10.6020199 C14.0421442,11.3800911 14.9411765,12.5843647 14.9411765,14.25 C14.9411765,16.7352814 12.9396259,19 10.4705882,19 C8.00155053,19 6,16.9852814 6,14.5 C6,12.8343647 6.89903223,11.3800911 8.23529412,10.6020199 L8.23529412,3.25 C8.23529412,2.00735931 9.23606938,1 10.4705882,1 Z M10.4705882,2.125 C9.85332881,2.125 9.35294118,2.62867966 9.35294118,3.25 L9.35294118,11.3170439 C8.05066735,11.7803599 7.11764706,13.0305038 7.11764706,14.5 C7.11764706,16.363961 8.61880996,17.875 10.4705882,17.875 C12.3223665,17.875 13.8235294,16.363961 13.8235294,14.5 C13.8235294,13.0305038 12.8905091,11.7803599 11.5882353,11.3170439 L11.5882353,3.25 C11.5882353,2.62867966 11.0878477,2.125 10.4705882,2.125 Z"/><path id="fill" fill="#D8D8D8" d="M12.1470588,10.875 C13.4493327,11.338316 14.3823529,12.5625 14.3823529,14.25 C14.3823529,16.5 12.7058824,18.1875 10.4705882,18.1875 C8.23529412,18.1875 6.55882353,16.5 6.55882353,14.25 C6.55882353,12.7805038 7.11764706,11.4375 8.79411765,10.875 L8.79411765,6.375 L12.1470588,6.375 L12.1470588,10.875 Z"/></g></svg>