<svg width="24" height="24" viewBox="0 0 24 24" fill="none" xmlns="http://www.w3.org/2000/svg">
<path d="M12.9894 13.148L12.9698 13.1689L12.9836 13.1445L10.8426 11.9307L10.8117 11.9131L10.7808 11.9308L9.70935 12.5429L9.67786 12.5609V12.5972V17.327V17.3635L9.70961 17.3814L10.7824 17.9877L10.8134 18.0052L10.8442 17.9876L13.8784 16.2532L13.9737 16.1987L13.8782 16.1445L12.8358 15.5539L12.8049 15.5364L12.774 15.554L10.8432 16.6575V13.2597L16.5796 16.5149C16.2638 17.4412 15.6753 18.239 14.8759 18.823C14.0511 19.4254 13.0741 19.7433 12.0489 19.7433C9.41131 19.7433 7.26639 17.6148 7.26639 15.0001C7.26639 12.3853 9.41131 10.2568 12.0489 10.2568C14.0682 10.2568 15.88 11.5276 16.5562 13.4177L16.5562 13.4178C16.6065 13.5579 16.6504 13.7019 16.687 13.8467L16.7072 13.9266L16.7787 13.8855L17.8542 13.2675L17.8976 13.2425L17.8827 13.1946C17.8365 13.047 17.7835 12.9002 17.7267 12.7574L17.7266 12.7572C17.2787 11.6424 16.5148 10.6918 15.5167 10.0078L15.5167 10.0078C14.495 9.30794 13.296 8.9375 12.049 8.9375C10.4164 8.9375 8.88191 9.56798 7.7278 10.7129L7.7278 10.7129C6.57368 11.858 5.9375 13.3811 5.9375 15.0001C5.9375 16.619 6.57368 18.1421 7.72791 19.2871L7.72792 19.2871C8.8826 20.432 10.4171 21.0625 12.049 21.0625C13.4942 21.0625 14.8961 20.5526 15.9967 19.6271C17.0799 18.7162 17.8117 17.4566 18.0615 16.0777L18.0694 16.0341L18.0309 16.0122L12.9996 13.1555L12.9894 13.148Z" fill="white" stroke="white" stroke-width="0.125"/>
<path d="M3.5 15.5V4.5H20.5V15.5H19.75C19.3358 15.5 19 15.8358 19 16.25C19 16.6642 19.3358 17 19.75 17H21C21.5523 17 22 16.5523 22 16V4C22 3.44772 21.5523 3 21 3H3C2.44772 3 2 3.44772 2 4V16C2 16.5523 2.44772 17 3 17H4.25C4.66421 17 5 16.6642 5 16.25C5 15.8358 4.66421 15.5 4.25 15.5H3.5Z" fill="white"/>
</svg>
