<svg xmlns="http://www.w3.org/2000/svg" xmlns:xlink="http://www.w3.org/1999/xlink" viewBox="0 0 144 144">
<rect id="background" fill="#5e8b8b" fill-rule="nonzero" x="0" y="0" width="144" height="144"/>
<path id="icon" fill="#f3f3f3" fill-rule="evenodd" d="M62.866,89l-16.866,-0c-2.208,-0 -4,-1.792 -4,-4l0,-41c0,-2.208 1.792,-4 4,-4l52,-0c2.208,-0 4,1.792 4,4l-0,41c-0,2.208 -1.792,4 -4,4l-17.021,-0l7.003,12.129c0.552,0.956 0.224,2.18 -0.732,2.732c-0.956,0.552 -2.18,0.224 -2.732,-0.732l-8.11,-14.047c-0.016,-0.027 -0.031,-0.054 -0.045,-0.082l-8.878,-0c-0.004,0.007 -0.008,0.014 -0.012,0.02l-8.146,14.109c-0.552,0.956 -1.776,1.284 -2.732,0.732c-0.956,-0.552 -1.284,-1.776 -0.732,-2.732l7.003,-12.129Zm35.134,-45l-52,-0l0,41l52,-0l-0,-41Zm-33,34c1.104,0 2,0.896 2,2c0,1.104 -0.896,2 -2,2c-1.104,0 -2,-0.896 -2,-2c0,-1.104 0.896,-2 2,-2Zm17,-16c0,5.519 -4.481,10 -10,10c-5.519,0 -10,-4.481 -10,-10c0,-5.519 4.481,-10 10,-10l0,10l10,0Zm-7,-13c5.519,0 10,4.481 10,10l-10,0l0,-10Zm4,29c1.104,0 2,0.896 2,2c0,1.104 -0.896,2 -2,2c-1.104,0 -2,-0.896 -2,-2c0,-1.104 0.896,-2 2,-2Zm-7,0c1.104,0 2,0.896 2,2c0,1.104 -0.896,2 -2,2c-1.104,0 -2,-0.896 -2,-2c0,-1.104 0.896,-2 2,-2Z"/>
</svg>