<svg xmlns="http://www.w3.org/2000/svg" width="20" height="20" viewBox="0 0 20 20"><g id="5" fill="none" fill-rule="evenodd" stroke="none" stroke-width="1"><circle id="Oval" cx="10" cy="10" r="10" fill="#BD10E0" fill-rule="nonzero"/><path id="Path" fill="#50E3C2" fill-rule="nonzero" d="M13.0210847,3.88888889 L13.0210847,5.80740741 L9.27927152,5.80740741 L9.27927152,7.84444444 C9.7473117,7.29629355 10.3497799,7.02222222 11.0866942,7.02222222 C11.9182124,7.02222222 12.5468208,7.2530841 12.9725382,7.71481481 C13.3982556,8.17654553 13.6111111,9.06419096 13.6111111,10.3777778 L13.6111111,12.0888889 C13.6111111,12.9382759 13.5700337,13.5617264 13.4878777,13.9592593 C13.4057218,14.3567921 13.2302093,14.7246897 12.9613352,15.062963 C12.692461,15.4012362 12.3177855,15.6604929 11.8372975,15.8407408 C11.3568094,16.0209885 10.7705232,16.1111111 10.0784212,16.1111111 C9.3016737,16.1111111 8.61705072,15.9765446 8.02453177,15.7074075 C7.43201282,15.4382703 7.01128087,15.0370397 6.76232334,14.5037037 C6.5133658,13.9703677 6.38888889,13.1456846 6.38888889,12.0296296 L6.38888889,11.3777778 L9.40623923,11.3777778 L9.40623923,12.1259259 C9.40623923,12.9012384 9.43362414,13.4518502 9.48839481,13.7777778 C9.54316547,14.1037053 9.73237036,14.2666667 10.0560152,14.2666667 C10.2053897,14.2666667 10.3261323,14.2197535 10.4182466,14.1259259 C10.5103609,14.0320983 10.5601516,13.9308647 10.5676204,13.8222222 C10.5750891,13.7135797 10.5838025,13.2419795 10.5937608,12.4074074 L10.5937608,10.0296296 C10.5937608,9.58024467 10.5464595,9.27407489 10.4518557,9.11111111 C10.3572518,8.94814733 10.2004109,8.86666667 9.98132828,8.86666667 C9.84191206,8.86666667 9.72490376,8.90864156 9.6302999,8.99259259 C9.53569604,9.07654362 9.47470234,9.16666618 9.44731703,9.26296297 C9.41993169,9.35925974 9.40623923,9.58271429 9.40623923,9.93333333 L6.41876364,9.93333333 L6.54573136,3.88888889 L13.0210847,3.88888889 Z"/></g></svg>