<svg xmlns="http://www.w3.org/2000/svg" width="20" height="20" viewBox="0 0 20 20"><g id="9" fill="none" fill-rule="evenodd" stroke="none" stroke-width="1"><circle id="Oval" cx="10" cy="10" r="8.889" fill="#F5A623" fill-rule="nonzero" stroke="#F5A623" stroke-width="2.222"/><path id="Shape" fill="#D0021B" fill-rule="nonzero" d="M10.9067112,16.9784885 L6.48980035,16.5641276 L8.56160482,13.2316081 C7.42137768,12.9436126 6.4501275,12.3264793 5.64785428,11.3802083 C4.84558105,10.4339374 4.44444444,9.42595305 4.44444444,8.35625543 C4.44444444,7.79201931 4.58550347,7.19251845 4.86762153,6.55775282 C5.14973958,5.9229872 5.53177445,5.33817998 6.01372613,4.80333116 C6.56620732,4.19795284 7.18480993,3.73216417 7.86953396,3.40596517 C8.55425799,3.07976617 9.2610225,2.91666667 9.98982747,2.91666667 C10.7186325,2.91666667 11.425397,3.07976617 12.110121,3.40596517 C12.794845,3.73216417 13.4134476,4.19795284 13.9659288,4.80333116 C14.4478805,5.33817998 14.828446,5.9229872 15.1076253,6.55775282 C15.3868047,7.19251845 15.5263943,7.79201931 15.5263943,8.35625543 C15.5263943,8.69127062 15.4632116,9.07771358 15.3368462,9.51558431 C15.2104809,9.95345504 15.0561976,10.3193269 14.8739963,10.6131999 L10.9067112,16.9784885 Z M9.57546658,10.1812066 C10.1220703,10.1812066 10.5525942,10.0166377 10.8670383,9.6875 C11.1814824,9.35836227 11.3387044,8.91461408 11.3387044,8.35625543 C11.3387044,7.79789677 11.180013,7.34827112 10.8626302,7.00737847 C10.5452474,6.66648582 10.1161929,6.4960395 9.57546658,6.4960395 C9.01710793,6.4960395 8.57335974,6.66648582 8.24422201,7.00737847 C7.91508427,7.34827112 7.75051541,7.79789677 7.75051541,8.35625543 C7.75051541,8.91461408 7.91361491,9.35836227 8.23981391,9.6875 C8.56601291,10.0166377 9.01123047,10.1812066 9.57546658,10.1812066 Z"/></g></svg>