<svg fill="none" version="1.1" viewBox="0 0 24 24" xmlns="http://www.w3.org/2000/svg">
 <g fill="#fff">
  <rect x="15.6" y="6.4" width="2.4" height="2.4"/>
  <rect x="2.4" y="11.2" width="2.4" height="2.4"/>
  <rect transform="scale(-1,1)" x="-21.6" y="11.2" width="2.4" height="2.4"/>
  <rect transform="scale(-1,1)" x="-24" y="13.6" width="2.4" height="2.4"/>
  <rect transform="scale(-1,1)" x="-2.4" y="13.6" width="2.4" height="2.4"/>
  <path d="m4.8 8.8h14.4v9.6h-14.4zm12 3h-3.6v3.6h3.6zm-9.6 0h3.6v3.6h-3.6z" clip-rule="evenodd" fill-rule="evenodd"/>
  <rect y="16" width="2.4" height="2.4"/>
  <rect transform="scale(-1,1)" x="-24" y="16" width="2.4" height="2.4"/>
  <rect x="15.6" y="18.4" width="2.4" height="2.4"/>
  <rect x="13.2" y="20.8" width="2.4" height="2.4"/>
  <rect x="6" y="6.4" width="2.4" height="2.4"/>
  <rect x="18" y="4" width="2.4" height="2.4"/>
  <rect x="6" y="18.4" width="2.4" height="2.4"/>
  <rect x="8.4" y="20.8" width="2.4" height="2.4"/>
  <rect x="3.6" y="4" width="2.4" height="2.4"/>
 </g>
</svg>
