<svg width="144" height="144" viewBox="0 0 144 144" fill="none" xmlns="http://www.w3.org/2000/svg">
<path d="M102.496 44.0226C96.8869 41.449 90.8723 39.5529 84.5836 38.467C84.4691 38.446 84.3547 38.4984 84.2957 38.6031C83.5222 39.9789 82.6654 41.7738 82.0653 43.1845C75.3015 42.1719 68.5723 42.1719 61.9472 43.1845C61.347 41.7424 60.4591 39.9789 59.6821 38.6031C59.6231 38.5019 59.5087 38.4495 59.3942 38.467C53.109 39.5495 47.0944 41.4455 41.4821 44.0226C41.4335 44.0435 41.3919 44.0785 41.3642 44.1238C29.9558 61.1678 26.8305 77.7929 28.3637 94.2118C28.3706 94.2922 28.4157 94.369 28.4781 94.4178C36.0051 99.9455 43.2963 103.301 50.452 105.526C50.5665 105.56 50.6879 105.519 50.7608 105.424C52.4535 103.113 53.9624 100.675 55.2561 98.1122C55.3324 97.9621 55.2596 97.784 55.1035 97.7247C52.7102 96.8168 50.4312 95.7098 48.239 94.4528C48.0656 94.3515 48.0517 94.1035 48.2112 93.9848C48.6726 93.6391 49.134 93.2794 49.5745 92.9163C49.6542 92.8499 49.7653 92.8359 49.859 92.8778C64.2607 99.4532 79.8523 99.4532 94.0842 92.8778C94.1779 92.8325 94.2889 92.8465 94.3721 92.9128C94.8127 93.2759 95.274 93.6391 95.7388 93.9848C95.8983 94.1035 95.8879 94.3515 95.7145 94.4528C93.5223 95.7342 91.2434 96.8168 88.8465 97.7212C88.6905 97.7806 88.6211 97.9621 88.6974 98.1122C90.0189 100.672 91.5278 103.109 93.1893 105.421C93.2587 105.519 93.3835 105.56 93.498 105.526C100.688 103.301 107.98 99.9455 115.507 94.4178C115.573 94.369 115.614 94.2956 115.621 94.2153C117.456 75.2332 112.548 58.7445 102.61 44.1273C102.586 44.0785 102.544 44.0435 102.496 44.0226ZM57.4068 84.2144C53.0708 84.2144 49.4982 80.2337 49.4982 75.345C49.4982 70.4563 53.0015 66.4756 57.4068 66.4756C61.8465 66.4756 65.3846 70.4912 65.3152 75.345C65.3152 80.2337 61.8118 84.2144 57.4068 84.2144ZM86.6474 84.2144C82.3116 84.2144 78.7389 80.2337 78.7389 75.345C78.7389 70.4563 82.2422 66.4756 86.6474 66.4756C91.0873 66.4756 94.6253 70.4912 94.556 75.345C94.556 80.2337 91.0873 84.2144 86.6474 84.2144Z" fill="#151515"/>
</svg>
