<svg width="144" height="144" viewBox="0 0 144 144" fill="none" xmlns="http://www.w3.org/2000/svg">
<path fill-rule="evenodd" clip-rule="evenodd" d="M32.8177 93.2304C30.824 89.9144 29.8447 85.5634 29.8447 80.6055C29.8447 71.5898 32.3193 62.1929 37.025 54.9364C41.2001 48.5008 47.2254 44.0002 54.136 44.0002C58.1381 44.0002 62.1167 45.1847 66.2713 48.577C68.4612 50.3642 70.7205 52.7084 73.15 55.784C75.1241 53.1174 77.2532 50.5955 79.544 48.5975C82.9333 45.6421 86.5894 44.0002 90.269 44.0002C96.4466 44.0002 102.331 47.5801 106.834 54.2943C111.763 61.6476 114.156 70.9096 114.156 80.4677C114.156 86.1498 113.036 90.3249 111.13 93.6233C109.806 95.9177 107.577 98.2105 104.184 99.3171C103.154 99.6529 102.018 99.8794 100.766 99.9637C100.408 99.9878 100.04 100 99.6629 100C95.9101 100 92.5854 99.1851 88.9088 95.7167C86.0824 93.0545 82.7781 88.3253 80.2361 84.074L72.6746 71.4432C72.459 71.0829 72.2444 70.7279 72.031 70.3783L68.7222 76.2398C63.3861 85.7012 62.0345 87.8562 59.3664 91.4126C54.69 97.64 50.6967 100 45.4397 100C39.2035 100 35.26 97.2999 32.8177 93.2304ZM40.5815 88.1171C39.6579 86.6218 38.9513 84.1502 38.9513 80.9309C38.9513 73.1261 41.1651 64.9988 44.7802 59.5424C47.1886 55.9049 50.0393 53.4539 53.3692 53.1819C53.5465 53.1674 53.7251 53.1591 53.9052 53.1571L53.9894 53.1567C58.4342 53.1567 61.2195 55.9362 63.3862 58.2377C64.4686 59.3879 65.9743 61.2847 67.7245 63.7772L64.1396 69.2853C63.3548 70.4905 62.4575 71.9075 61.4961 73.4255C59.1998 77.0514 56.5383 81.2539 54.1739 84.5255C49.9871 90.3161 47.8146 90.9054 45.4397 90.9054C43.5984 90.9054 41.7924 90.0756 40.5815 88.1171ZM81.7021 68.4585C80.1571 65.8851 78.6906 63.5704 77.2874 61.4884C77.5373 61.1012 77.7861 60.7231 78.034 60.3546C81.9716 54.4995 85.4753 51.2157 89.8292 51.2157C93.8548 51.2157 97.5138 53.8779 100.337 58.2348C104.316 64.3772 106.122 72.9736 106.122 80.7198C106.122 85.4762 105.134 89.7072 101.425 90.6907C100.895 90.8311 100.309 90.9054 99.6629 90.9054C97.6253 90.9053 96.0568 90.0961 93.8168 87.3812C92.0752 85.2673 89.0993 80.7843 83.8688 72.0706L81.7021 68.4585Z" fill="#151515"/>
</svg>
