<svg width="144" height="144" viewBox="0 0 144 144" fill="none" xmlns="http://www.w3.org/2000/svg">
<path d="M103.318 55.9326C103.366 56.627 103.366 57.3213 103.366 58.0221C103.366 79.3744 87.1107 104 57.3878 104V103.987C48.6076 104 40.0097 101.485 32.6182 96.7429C33.8949 96.8965 35.178 96.9732 36.4643 96.9764C43.7407 96.9828 50.809 94.5414 56.5335 90.0457C49.6187 89.9145 43.5551 85.406 41.4368 78.824C43.8591 79.2912 46.3549 79.1952 48.7323 78.5456C41.1936 77.0225 35.77 70.3989 35.77 62.7066C35.77 62.6362 35.77 62.569 35.77 62.5018C38.0162 63.7529 40.5313 64.4473 43.1039 64.5241C36.0036 59.7788 33.8149 50.333 38.1026 42.9479C46.3069 53.0432 58.4117 59.1804 71.4061 59.83C70.1038 54.2175 71.8829 48.3363 76.081 44.391C82.5894 38.2729 92.8256 38.5865 98.9436 45.0917C102.563 44.3782 106.031 43.0502 109.205 41.1688C107.999 44.9093 105.474 48.0867 102.102 50.1058C105.305 49.7282 108.434 48.8707 111.381 47.562C109.212 50.813 106.479 53.6448 103.318 55.9326Z" fill="#151515"/>
</svg>
