<svg width="144" height="144" viewBox="0 0 144 144" fill="none" xmlns="http://www.w3.org/2000/svg">
<path d="M103.054 55.2747C102.59 55.6348 94.3974 60.2512 94.3974 70.5163C94.3974 82.3894 104.822 86.5899 105.135 86.6939C105.087 86.9499 103.478 92.4464 99.638 98.047C96.2136 102.975 92.6373 107.896 87.1967 107.896C81.7562 107.896 80.356 104.736 74.0754 104.736C67.9548 104.736 65.7786 108 60.8021 108C55.8256 108 52.3532 103.44 48.3608 97.839C43.7364 91.2623 40 81.0453 40 71.3483C40 55.7948 50.113 47.546 60.066 47.546C65.3545 47.546 69.763 51.0183 73.0833 51.0183C76.2436 51.0183 81.1721 47.3379 87.1887 47.3379C89.4689 47.3379 97.6618 47.546 103.054 55.2747ZM84.3324 40.7533C86.8207 37.801 88.5809 33.7046 88.5809 29.6082C88.5809 29.0401 88.5328 28.464 88.4288 28C84.3804 28.152 79.564 30.6963 76.6597 34.0646C74.3794 36.6569 72.2512 40.7533 72.2512 44.9057C72.2512 45.5298 72.3552 46.1538 72.4032 46.3538C72.6593 46.4018 73.0753 46.4578 73.4913 46.4578C77.1237 46.4578 81.6922 44.0256 84.3324 40.7533Z" fill="#151515"/>
</svg>
