<svg width="144" height="144" viewBox="0 0 144 144" fill="none" xmlns="http://www.w3.org/2000/svg">
<path d="M57.0905 36.2518C53.2601 36.4325 50.6443 37.0438 48.3576 37.9424C45.9909 38.8647 43.9849 40.1024 41.9891 42.1054C39.9932 44.1085 38.7642 46.1159 37.8483 48.4862C36.962 50.7779 36.3615 53.3959 36.1923 57.2285C36.0231 61.0611 35.9857 62.293 36.0044 72.0693C36.0231 81.8456 36.0663 83.071 36.2521 86.9115C36.4349 90.7413 37.0441 93.3563 37.9426 95.6438C38.8664 98.0105 40.1027 100.016 42.1064 102.012C44.1102 104.009 46.1162 105.235 48.4922 106.152C50.7818 107.037 53.4005 107.641 57.2324 107.808C61.0643 107.976 62.2976 108.015 72.071 107.996C81.8444 107.978 83.0749 107.934 86.9147 107.752C90.7545 107.57 93.3559 106.957 95.6441 106.062C98.0108 105.136 100.017 103.902 102.013 101.898C104.008 99.8933 105.236 97.8845 106.151 95.5128C107.038 93.2231 107.641 90.6045 107.807 86.7755C107.975 82.9328 108.015 81.7059 107.996 71.9311C107.977 62.1562 107.933 60.9308 107.751 57.0917C107.569 53.2526 106.959 50.6455 106.061 48.3566C105.136 45.9899 103.901 43.9861 101.898 41.9881C99.895 39.9901 97.8848 38.7624 95.5138 37.8495C93.2227 36.9631 90.6055 36.3591 86.7736 36.1935C82.9417 36.0279 81.7083 35.9854 71.9313 36.0041C62.1544 36.0228 60.9303 36.0646 57.0905 36.2518ZM57.511 101.332C54.001 101.179 52.0951 100.596 50.825 100.108C49.1431 99.4599 47.945 98.6765 46.6792 97.4229C45.4134 96.1694 44.6358 94.967 43.9792 93.2887C43.486 92.0186 42.892 90.1149 42.7278 86.6048C42.5493 82.8111 42.5118 81.6721 42.4909 72.0607C42.4701 62.4493 42.5068 61.3117 42.6731 57.5165C42.8229 54.0093 43.4097 52.1013 43.8971 50.8319C44.5451 49.1478 45.3256 47.9519 46.582 46.6869C47.8384 45.4218 49.0372 44.6428 50.717 43.9861C51.9857 43.4907 53.8894 42.9018 57.398 42.7347C61.1946 42.5547 62.3322 42.5187 71.9421 42.4978C81.5521 42.477 82.6926 42.513 86.4906 42.68C89.9978 42.8327 91.9065 43.4137 93.1745 43.904C94.8571 44.552 96.0545 45.3304 97.3195 46.5889C98.5846 47.8475 99.3644 49.042 100.021 50.7254C100.517 51.9904 101.106 53.8934 101.272 57.4042C101.452 61.2008 101.493 62.3391 101.511 71.9483C101.528 81.5576 101.494 82.6988 101.328 86.4925C101.174 90.0025 100.593 91.9091 100.104 93.1807C99.4558 94.8619 98.6746 96.0607 97.4175 97.325C96.1603 98.5894 94.963 99.3684 93.2825 100.025C92.0152 100.52 90.1094 101.11 86.6037 101.277C82.8071 101.456 81.6695 101.493 72.0559 101.514C62.4424 101.535 61.3076 101.496 57.511 101.332ZM86.8593 52.7594C86.8607 53.6139 87.1155 54.4488 87.5914 55.1584C88.0674 55.8681 88.7431 56.4207 89.5331 56.7463C90.3231 57.0719 91.1919 57.1559 92.0297 56.9877C92.8675 56.8195 93.6365 56.4066 94.2396 55.8013C94.8427 55.196 95.2528 54.4254 95.4179 53.587C95.5831 52.7487 95.4959 51.8802 95.1673 51.0913C94.8388 50.3025 94.2838 49.6289 93.5724 49.1555C92.861 48.6822 92.0252 48.4304 91.1707 48.4322C90.0252 48.4344 88.9275 48.8916 88.119 49.7031C87.3105 50.5145 86.8574 51.6139 86.8593 52.7594ZM53.5157 72.0362C53.5359 82.2459 61.8275 90.5037 72.035 90.4842C82.2426 90.4648 90.5061 82.1739 90.4867 71.9642C90.4672 61.7545 82.1735 53.4945 71.9645 53.5147C61.7555 53.5349 53.4963 61.8279 53.5157 72.0362ZM60.0001 72.0232C59.9954 69.6498 60.6946 67.3282 62.0093 65.3522C63.324 63.3761 65.1952 61.8343 67.3862 60.9217C69.5771 60.0091 71.9895 59.7667 74.3183 60.2251C76.647 60.6835 78.7876 61.8222 80.4692 63.4972C82.1508 65.1721 83.2979 67.3081 83.7656 69.635C84.2332 71.9619 84.0003 74.3753 83.0964 76.5699C82.1925 78.7644 80.6581 80.6417 78.6872 81.9642C76.7164 83.2867 74.3977 83.9951 72.0242 83.9998C70.4483 84.0031 68.8871 83.696 67.4298 83.0958C65.9726 82.4957 64.6479 81.6144 63.5313 80.5022C62.4147 79.3901 61.5282 78.0688 60.9223 76.614C60.3164 75.1591 60.003 73.5992 60.0001 72.0232Z" fill="white"/>
</svg>
