<svg width="144" height="144" viewBox="0 0 144 144" fill="none" xmlns="http://www.w3.org/2000/svg">
<path fill-rule="evenodd" clip-rule="evenodd" d="M103.258 45.6726C106.702 46.5945 109.408 49.301 110.33 52.7451H110.324C111.996 58.9812 111.996 72 111.996 72C111.996 72 111.996 85.0188 110.324 91.2549C109.402 94.699 106.695 97.4055 103.251 98.3274C97.015 100 71.9981 100 71.9981 100C71.9981 100 46.9812 100 40.7451 98.3274C37.301 97.4055 34.5945 94.699 33.6726 91.2549C32 85.0188 32 72 32 72C32 72 32 58.9812 33.6726 52.7451C34.5945 49.301 37.301 46.5945 40.7451 45.6726C46.9812 44 71.9981 44 71.9981 44C71.9981 44 97.015 44 103.258 45.6726ZM84.7869 72.0001L63.9977 83.9983V60.002L84.7869 72.0001Z" fill="#151515"/>
</svg>
