<svg width="144" height="144" viewBox="0 0 144 144" fill="none" xmlns="http://www.w3.org/2000/svg">
<path fill-rule="evenodd" clip-rule="evenodd" d="M60.1609 110.161C63.954 111.31 67.8621 112 72 112C94.069 112 112 94.069 112 72C112 49.931 94.069 32 72 32C49.931 32 32 49.931 32 72C32 89.0115 42.6897 103.609 57.7471 109.356C57.4023 106.253 57.0575 101.08 57.7471 97.5172L62.3448 77.7471C62.3448 77.7471 61.1954 75.4483 61.1954 71.7701C61.1954 66.2529 64.6437 62.1149 68.5517 62.1149C72 62.1149 73.6092 64.6437 73.6092 67.8621C73.6092 71.3103 71.3103 76.2529 70.1609 80.9655C69.4713 84.8736 72.2299 88.3218 76.2529 88.3218C83.3793 88.3218 88.8966 80.7356 88.8966 69.931C88.8966 60.3908 82 53.8391 72.1149 53.8391C60.8506 53.8391 54.1839 62.2299 54.1839 71.0805C54.1839 74.5287 55.3333 77.977 57.1724 80.2759C57.5172 80.5057 57.5172 80.8506 57.4023 81.4253L56.2529 85.7931C56.2529 86.4828 55.7931 86.7127 55.1035 86.2529C50.046 83.954 47.0575 76.7126 47.0575 70.8506C47.0575 58.2069 56.023 46.7126 73.2644 46.7126C87.0575 46.7126 97.7471 56.5977 97.7471 69.7012C97.7471 83.4943 89.2414 94.5287 77.0575 94.5287C73.1494 94.5287 69.3563 92.4598 68.092 89.931L65.3333 99.4713C64.4138 102.92 61.8851 107.402 60.1609 110.161Z" fill="#151515"/>
</svg>
