<svg width="144" height="144" viewBox="0 0 144 144" fill="none" xmlns="http://www.w3.org/2000/svg">
<path d="M65.751 111.473V83.5232H55.5921V71.958H65.751V63.1435C65.751 53.114 71.7249 47.5789 80.86 47.5789C85.2363 47.5789 89.8152 48.3608 89.8152 48.3608V58.2047H84.7695C79.7969 58.2047 78.25 61.2929 78.25 64.4542V71.958H89.3427L87.5707 83.5232H78.25V111.473C97.3727 108.472 112 91.9232 112 71.958C112 49.8666 94.0914 31.958 72 31.958C49.9086 31.958 32 49.8666 32 71.958C32 91.9236 46.6278 108.473 65.751 111.473Z" fill="url(#paint0_linear_63_3345)"/>
<path d="M65.7509 111.515V83.5234H55.592V71.9582H65.7509V63.1437C65.7509 53.1142 71.7248 47.5791 80.8599 47.5791C85.2363 47.5791 89.8151 48.361 89.8151 48.361V58.2049H84.7694C79.7968 58.2049 78.2499 61.2931 78.2499 64.4544V71.9582H89.3426L87.5707 83.5234H78.2499V111.515C76.2135 111.834 74.1261 112 71.9999 112C69.8741 112 67.7871 111.834 65.7509 111.515Z" fill="white"/>
<defs>
<linearGradient id="paint0_linear_63_3345" x1="72.2" y1="107.275" x2="72.2" y2="30.1454" gradientUnits="userSpaceOnUse">
<stop stop-color="#0062E0"/>
<stop offset="1" stop-color="#19AFFF"/>
</linearGradient>
</defs>
</svg>
