<svg width="144" height="144" viewBox="0 0 144 144" fill="none" xmlns="http://www.w3.org/2000/svg">
<path fill-rule="evenodd" clip-rule="evenodd" d="M32.8177 93.2302C30.824 89.9141 29.8447 85.5631 29.8447 80.6052C29.8447 71.5895 32.3193 62.1927 37.025 54.9361C41.2001 48.5005 47.2254 44 54.136 44C58.1381 44 62.1167 45.1845 66.2713 48.5768C68.4612 50.364 70.7205 52.7082 73.15 55.7838C75.1241 53.1171 77.2532 50.5952 79.544 48.5973C82.9333 45.6419 86.5894 44 90.269 44C96.4466 44 102.331 47.5799 106.834 54.294C111.763 61.6473 114.156 70.9093 114.156 80.4674C114.156 86.1495 113.036 90.3246 111.13 93.623C109.806 95.9174 107.577 98.2103 104.184 99.3169C103.154 99.6526 102.018 99.8792 100.766 99.9634C100.408 99.9875 100.04 100 99.6629 100C95.9101 100 92.5854 99.1849 88.9088 95.7164C86.0824 93.0542 82.7781 88.325 80.2361 84.0737L72.6746 71.4429C72.459 71.0827 72.2444 70.7277 72.031 70.378L68.7222 76.2396C63.3861 85.7009 62.0345 87.8559 59.3664 91.4124C54.69 97.6398 50.6967 100 45.4397 100C39.2035 100 35.26 97.2997 32.8177 93.2302ZM40.5815 88.1169C39.6579 86.6216 38.9513 84.1499 38.9513 80.9307C38.9513 73.1259 41.1651 64.9985 44.7802 59.5422C47.1886 55.9047 50.0393 53.4536 53.3692 53.1817C53.5465 53.1672 53.7251 53.1589 53.9052 53.1569L53.9894 53.1564C58.4342 53.1564 61.2195 55.9359 63.3862 58.2375C64.4686 59.3876 65.9743 61.2844 67.7245 63.777L64.1396 69.285C63.3548 70.4903 62.4575 71.9072 61.4961 73.4252C59.1998 77.0511 56.5383 81.2536 54.1739 84.5252C49.9871 90.3158 47.8146 90.9051 45.4397 90.9051C43.5984 90.9051 41.7924 90.0754 40.5815 88.1169ZM81.7021 68.4582C80.1571 65.8848 78.6906 63.5702 77.2874 61.4882C77.5373 61.1009 77.7861 60.7229 78.034 60.3543C81.9716 54.4993 85.4753 51.2155 89.8292 51.2155C93.8548 51.2155 97.5138 53.8777 100.337 58.2346C104.316 64.377 106.122 72.9734 106.122 80.7196C106.122 85.4759 105.134 89.707 101.425 90.6904C100.895 90.8309 100.309 90.9051 99.6629 90.9051C97.6253 90.9051 96.0568 90.0958 93.8168 87.3809C92.0752 85.267 89.0993 80.7841 83.8688 72.0704L81.7021 68.4582Z" fill="white"/>
</svg>
