<svg xmlns="http://www.w3.org/2000/svg" xmlns:xlink="http://www.w3.org/1999/xlink" viewBox="0 0 144 144">
<rect id="background" fill="#263838" fill-rule="nonzero" x="0" y="0" width="144" height="144"/>
<path id="icon" fill="#999" fill-rule="evenodd" d="M112,50l0,35c0,3.863 -3.137,7 -7,7l-66,0c-3.863,0 -7,-3.137 -7,-7l0,-35c0,-3.863 3.137,-7 7,-7l66,-0c3.863,-0 7,3.137 7,7Zm-4,-0c0,-1.656 -1.344,-3 -3,-3l-66,-0c-1.656,-0 -3,1.344 -3,3l0,35c0,1.656 1.344,3 3,3l66,0c1.656,0 3,-1.344 3,-3l0,-35Zm-49.414,1.586c0.78,-0.781 2.048,-0.781 2.828,-0c0.781,0.78 0.781,2.048 0,2.828l-17.853,17.853c-0.781,0.781 -2.048,0.781 -2.828,0c-0.781,-0.78 -0.781,-2.047 -0,-2.828l17.853,-17.853Zm-12,-0c0.78,-0.781 2.048,-0.781 2.828,-0c0.781,0.78 0.781,2.048 0,2.828l-5.853,5.853c-0.781,0.781 -2.048,0.781 -2.828,0c-0.781,-0.78 -0.781,-2.047 -0,-2.828l5.853,-5.853Zm41.414,46.414c0,1.104 -0.896,2 -2,2l-28,0c-1.104,0 -2,-0.896 -2,-2c0,-1.104 0.896,-2 2,-2l28,0c1.104,0 2,0.896 2,2Z"/>
</svg>