<svg xmlns="http://www.w3.org/2000/svg" width="114" height="114" viewBox="0 0 114 114"><path fill="#FFF" d="M4.65 6.55 4.675 14.325C4.69166667 15.175 4.91666667 15.6 5.35 15.6 5.45 15.6 5.65833333 15.5583333 5.975 15.475 6.175 15.4416667 6.30833333 15.425 6.375 15.425 6.925 15.425 7.2 15.7083333 7.2 16.275 7.2 16.825 6.85833333 17.1 6.175 17.1 5.90833333 17.1 5.48333333 17.0666667 4.9 17 4.31666667 16.9333333 3.86666667 16.9 3.55 16.9 3.28333333 16.9 2.88333333 16.9333333 2.35 17 1.81666667 17.0666667 1.425 17.1 1.175 17.1L1.05 17.1C.35 17.1 0 16.8 0 16.2 0 15.6833333.283333333 15.425.85 15.425.883333333 15.425.941666667 15.425 1.025 15.425 1.125 15.4416667 1.2 15.45 1.25 15.45 1.66666667 15.5166667 1.90833333 15.55 1.975 15.55 2.275 15.55 2.4625 15.4208333 2.5375 15.1625 2.6125 14.9041667 2.65833333 14.2333333 2.675 13.15L2.7 11.4 2.775 7.525 2.75 3.075C2.73333333 2.575 2.70833333 2.24166667 2.675 2.075 2.55833333 1.69166667 2.325 1.5 1.975 1.5 1.925 1.5 1.70833333 1.53333333 1.325 1.6 1.14166667 1.63333333.991666667 1.65.875 1.65.308333333 1.65.025 1.38333333.025.85.025.3.358333333.025 1.025.025 1.20833333.025 1.36666667.0333333333 1.5.05L2.1.125C2.36666667.158333333 2.59166667.175 2.775.175 2.94166667.175 3.19166667.145833333 3.525.0875 3.85833333.0291666667 4.10833333 0 4.275 0 4.65833333 0 4.85.241666667 4.85.725 4.85.891666667 4.84166667 1.01666667 4.825 1.1 4.70833333 2.38333333 4.65 4.2 4.65 6.55ZM14.225 17.425C12.475 17.425 11.075 16.8208333 10.025 15.6125 8.975 14.4041667 8.45 12.7833333 8.45 10.75 8.45 8.71666667 8.97916667 7.09583333 10.0375 5.8875 11.0958333 4.67916667 12.5166667 4.075 14.3 4.075 16.1166667 4.075 17.55 4.66666667 18.6 5.85 19.65 7.03333333 20.175 8.64166667 20.175 10.675 20.175 12.7083333 19.6333333 14.3416667 18.55 15.575 17.4666667 16.8083333 16.025 17.425 14.225 17.425ZM14.35 5.725C13.1833333 5.725 12.2666667 6.13333333 11.6 6.95 10.9333333 7.76666667 10.5666667 8.925 10.5 10.425 10.5 10.425 10.5 10.5333333 10.5 10.75 10.5 12.3166667 10.8291667 13.5458333 11.4875 14.4375 12.1458333 15.3291667 13.0666667 15.775 14.25 15.775 15.4666667 15.775 16.4208333 15.3291667 17.1125 14.4375 17.8041667 13.5458333 18.15 12.3083333 18.15 10.725 18.15 7.39166667 16.8833333 5.725 14.35 5.725ZM32.875 17.325C31.5083333 17.325 30.6666667 16.7333333 30.35 15.55 29.5 16.8 28.1666667 17.425 26.35 17.425 25 17.425 23.9208333 17.0916667 23.1125 16.425 22.3041667 15.7583333 21.9 14.8666667 21.9 13.75 21.9 12.3666667 22.4916667 11.35 23.675 10.7 24.125 10.45 24.5125 10.2875 24.8375 10.2125 25.1625 10.1375 25.8166667 10.0416667 26.8 9.925 28.2 9.775 29.1125 9.56666667 29.5375 9.3 29.9625 9.03333333 30.175 8.54166667 30.175 7.825 30.175 7.14166667 29.9375 6.60416667 29.4625 6.2125 28.9875 5.82083333 28.325 5.625 27.475 5.625 26.725 5.625 26.025 5.83333333 25.375 6.25 25.125 6.41666667 25 6.59166667 25 6.775 25 6.84166667 25.075 6.925 25.225 7.025 25.4583333 7.19166667 25.575 7.475 25.575 7.875 25.575 8.20833333 25.4541667 8.48333333 25.2125 8.7 24.9708333 8.91666667 24.6666667 9.025 24.3 9.025 23.8666667 9.025 23.5041667 8.875 23.2125 8.575 22.9208333 8.275 22.775 7.90833333 22.775 7.475 22.775 6.54166667 23.2375 5.74166667 24.1625 5.075 25.0875 4.40833333 26.2083333 4.075 27.525 4.075 30.5583333 4.075 32.075 5.53333333 32.075 8.45L32.075 13.5C32.075 14.3 32.0916667 14.775 32.125 14.925 32.225 15.5083333 32.5083333 15.8 32.975 15.8 33.5583333 15.8 33.85 15.2666667 33.85 14.2L33.85 12.975C33.85 12.4416667 34.1083333 12.175 34.625 12.175 35.175 12.175 35.45 12.575 35.45 13.375L35.45 13.5 35.425 14.925C35.3916667 16.525 34.5416667 17.325 32.875 17.325ZM30.1 12.35 30.125 10.575C29.7583333 10.9083333 29.3708333 11.1416667 28.9625 11.275 28.5541667 11.4083333 27.825 11.525 26.775 11.625 24.875 11.8083333 23.925 12.5083333 23.925 13.725 23.925 14.3583333 24.1541667 14.8583333 24.6125 15.225 25.0708333 15.5916667 25.6916667 15.775 26.475 15.775 27.5916667 15.775 28.4708333 15.4708333 29.1125 14.8625 29.7541667 14.2541667 30.0833333 13.4166667 30.1 12.35ZM41.825 4.075C43.475 4.075 44.7083333 4.71666667 45.525 6L45.525 3.475C45.525 2.80833333 45.5083333 2.4 45.475 2.25 45.3916667 1.73333333 45.1583333 1.475 44.775 1.475 44.6416667 1.475 44.4541667 1.5 44.2125 1.55 43.9708333 1.6 43.7833333 1.625 43.65 1.625 43.0333333 1.625 42.725 1.35833333 42.725.825 42.725.275 43.1416667 0 43.975 0 44.1083333 0 44.35.0166666667 44.7.05 45.2333333.1 45.5083333.125 45.525.125 45.675.125 45.8916667.108333333 46.175.075 46.4583333.0416666667 46.675.025 46.825.025 47.2916667.025 47.525.358333333 47.525 1.025L47.525 1.3C47.5083333 1.35 47.4916667 1.79166667 47.475 2.625 47.475 2.725 47.45 3.36666667 47.4 4.55 47.3666667 5.38333333 47.35 6.01666667 47.35 6.45L47.35 8.9 47.4 13.075C47.4166667 14.175 47.4666667 14.8583333 47.55 15.125 47.6333333 15.3916667 47.8333333 15.525 48.15 15.525 48.3666667 15.525 48.5333333 15.5083333 48.65 15.475 48.9166667 15.4416667 49.1 15.425 49.2 15.425 49.8166667 15.425 50.125 15.7 50.125 16.25 50.125 16.8166667 49.75 17.1 49 17.1 48.8333333 17.1 48.5791667 17.0791667 48.2375 17.0375 47.8958333 16.9958333 47.6416667 16.975 47.475 16.975 47.425 16.975 47.2333333 16.9916667 46.9 17.025 46.7 17.075 46.525 17.1 46.375 17.1 45.925 17.1 45.7 16.8 45.7 16.2L45.7 16.075 45.725 15.65C44.8416667 16.8333333 43.5583333 17.425 41.875 17.425 40.175 17.425 38.8083333 16.8083333 37.775 15.575 36.7416667 14.3416667 36.225 12.725 36.225 10.725 36.225 8.70833333 36.7333333 7.09583333 37.75 5.8875 38.7666667 4.67916667 40.125 4.075 41.825 4.075ZM45.375 12.9C45.4416667 12.35 45.475 11.6416667 45.475 10.775 45.475 9.65833333 45.4333333 8.9 45.35 8.5 45.2 7.66666667 44.8416667 7.01666667 44.275 6.55 43.6083333 6 42.8416667 5.725 41.975 5.725 40.8083333 5.725 39.8958333 6.16666667 39.2375 7.05 38.5791667 7.93333333 38.25 9.14166667 38.25 10.675 38.25 12.2583333 38.5916667 13.5041667 39.275 14.4125 39.9583333 15.3208333 40.8916667 15.775 42.075 15.775 42.975 15.775 43.725 15.5125 44.325 14.9875 44.925 14.4625 45.275 13.7666667 45.375 12.9ZM55.275 9.75 55.275 13C55.275 13.8333333 55.2833333 14.325 55.3 14.475 55.3833333 15.225 55.6083333 15.6 55.975 15.6 56.0583333 15.6 56.2666667 15.5583333 56.6 15.475 56.6833333 15.4416667 56.8083333 15.425 56.975 15.425 57.6083333 15.425 57.925 15.7 57.925 16.25 57.925 16.4833333 57.8208333 16.6833333 57.6125 16.85 57.4041667 17.0166667 57.1416667 17.1 56.825 17.1 56.5583333 17.1 56.1541667 17.0625 55.6125 16.9875 55.0708333 16.9125 54.6666667 16.875 54.4 16.875 53.9666667 16.875 53.4833333 16.9083333 52.95 16.975 52.3 17.0583333 51.8666667 17.1 51.65 17.1 50.9833333 17.1 50.65 16.8166667 50.65 16.25 50.65 15.7 50.9333333 15.425 51.5 15.425 51.6333333 15.425 51.8291667 15.45 52.0875 15.5 52.3458333 15.55 52.5416667 15.575 52.675 15.575 53.075 15.575 53.3166667 15.0416667 53.4 13.975 53.4 13.9083333 53.4 13.1833333 53.4 11.8L53.4 9.75C53.4 8.36666667 53.4 7.64166667 53.4 7.575 53.3166667 6.525 53.0666667 6 52.65 6 52.5166667 6 52.3291667 6.02916667 52.0875 6.0875 51.8458333 6.14583333 51.6666667 6.175 51.55 6.175 50.95 6.175 50.65 5.90833333 50.65 5.375 50.65 4.80833333 51.0166667 4.525 51.75 4.525 52.0666667 4.525 52.2916667 4.53333333 52.425 4.55 52.9583333 4.61666667 53.3 4.65 53.45 4.65 53.5833333 4.65 53.7875 4.62916667 54.0625 4.5875 54.3375 4.54583333 54.5416667 4.525 54.675 4.525 55.1583333 4.525 55.4 4.85 55.4 5.5 55.4 5.56666667 55.3916667 5.66666667 55.375 5.8 55.3583333 5.93333333 55.35 6.03333333 55.35 6.1 55.3333333 6.23333333 55.3166667 6.75 55.3 7.65 55.2833333 8.33333333 55.275 9.03333333 55.275 9.75ZM53.975 3.2C53.5916667 3.2 53.2625 3.0625 52.9875 2.7875 52.7125 2.5125 52.575 2.18333333 52.575 1.8 52.575 1.41666667 52.7125 1.09166667 52.9875.825 53.2625.558333333 53.5916667.425 53.975.425 54.3583333.425 54.6875.558333333 54.9625.825 55.2375 1.09166667 55.375 1.41666667 55.375 1.8 55.375 2.18333333 55.2375 2.5125 54.9625 2.7875 54.6875 3.0625 54.3583333 3.2 53.975 3.2ZM62.8 5.275 62.8 5.975C63.8 4.70833333 65.1333333 4.075 66.8 4.075 67.7 4.075 68.55 4.30416667 69.35 4.7625 70.15 5.22083333 70.6916667 5.79166667 70.975 6.475 71.2083333 7.04166667 71.325 7.78333333 71.325 8.7L71.325 13.45C71.325 14.1666667 71.3333333 14.5916667 71.35 14.725 71.4333333 15.2916667 71.6583333 15.575 72.025 15.575 72.175 15.575 72.3708333 15.5541667 72.6125 15.5125 72.8541667 15.4708333 73.025 15.45 73.125 15.45 73.3416667 15.45 73.5291667 15.525 73.6875 15.675 73.8458333 15.825 73.925 16.0083333 73.925 16.225 73.925 16.475 73.825 16.6833333 73.625 16.85 73.425 17.0166667 73.1833333 17.1 72.9 17.1 72.6666667 17.1 72.2833333 17.0666667 71.75 17 71.2166667 16.9333333 70.7166667 16.9 70.25 16.9 69.8166667 16.9 69.4583333 16.9166667 69.175 16.95 68.3416667 17.05 67.9 17.1 67.85 17.1 67.1833333 17.1 66.85 16.8083333 66.85 16.225 66.85 15.7083333 67.1333333 15.45 67.7 15.45 67.8333333 15.45 67.9833333 15.4666667 68.15 15.5 68.4666667 15.5666667 68.6666667 15.6 68.75 15.6 69.15 15.6 69.3666667 15.1416667 69.4 14.225L69.45 12.95 69.475 11.425 69.475 9.525C69.475 8.64166667 69.4333333 8.03333333 69.35 7.7 69.2 7.06666667 68.875 6.575 68.375 6.225 67.825 5.84166667 67.2 5.65 66.5 5.65 65.1666667 5.65 64.2083333 6.125 63.625 7.075 63.225 7.725 63.025 8.83333333 63.025 10.4L63.025 13.725C63.025 14.4583333 63.075 14.9583333 63.175 15.225 63.275 15.4916667 63.4583333 15.625 63.725 15.625 63.8583333 15.625 64.0416667 15.5916667 64.275 15.525 64.5083333 15.4583333 64.7 15.425 64.85 15.425 65.3666667 15.425 65.625 15.7083333 65.625 16.275 65.625 16.825 65.2916667 17.1 64.625 17.1 64.4916667 17.1 64.0583333 17.05 63.325 16.95 62.9583333 16.9 62.55 16.875 62.1 16.875 61.75 16.875 61.2833333 16.9083333 60.7 16.975 59.9666667 17.0583333 59.55 17.1 59.45 17.1 58.75 17.1 58.4 16.8166667 58.4 16.25 58.4 15.7166667 58.6666667 15.45 59.2 15.45 59.2833333 15.45 59.4375 15.475 59.6625 15.525 59.8875 15.575 60.1083333 15.6 60.325 15.6 60.825 15.6 61.0833333 15.1166667 61.1 14.15L61.15 11.375 61.15 8.35 61.1 7.475C61.0666667 6.90833333 60.9958333 6.52083333 60.8875 6.3125 60.7791667 6.10416667 60.5916667 6 60.325 6 60.2083333 6 60.0375 6.02083333 59.8125 6.0625 59.5875 6.10416667 59.4166667 6.125 59.3 6.125 58.7 6.125 58.4 5.85833333 58.4 5.325 58.4 4.775 58.775 4.5 59.525 4.5 59.625 4.5 59.7083333 4.50833333 59.775 4.525L60.7 4.625C60.9666667 4.625 61.2 4.60833333 61.4 4.575 61.8333333 4.54166667 62.0583333 4.525 62.075 4.525 62.5583333 4.525 62.8 4.775 62.8 5.275ZM80.825 4.075C81.2583333 4.075 81.75 4.14166667 82.3 4.275 82.3833333 2.64166667 83.3333333 1.825 85.15 1.825 85.9166667 1.825 86.5583333 2.025 87.075 2.425 87.5916667 2.825 87.85 3.33333333 87.85 3.95 87.85 4.35 87.7208333 4.69166667 87.4625 4.975 87.2041667 5.25833333 86.9 5.4 86.55 5.4 86.2833333 5.4 86.05 5.30833333 85.85 5.125 85.65 4.94166667 85.55 4.725 85.55 4.475 85.55 4.20833333 85.7333333 3.93333333 86.1 3.65 85.8333333 3.31666667 85.4916667 3.15 85.075 3.15 84.1916667 3.15 83.7416667 3.7 83.725 4.8 84.9916667 5.65 85.625 6.79166667 85.625 8.225 85.625 9.375 85.1916667 10.3333333 84.325 11.1 83.4583333 11.8666667 82.375 12.25 81.075 12.25 80.1583333 12.25 79.2083333 12.0333333 78.225 11.6 77.9583333 11.4833333 77.7333333 11.425 77.55 11.425 77.3166667 11.425 77.1083333 11.5291667 76.925 11.7375 76.7416667 11.9458333 76.65 12.1916667 76.65 12.475 76.65 13.3416667 77.525 13.775 79.275 13.775L79.425 13.775C79.5583333 13.775 79.7083333 13.7666667 79.875 13.75 80.0416667 13.75 80.1416667 13.75 80.175 13.75 81.7583333 13.75 83.0416667 13.9 84.025 14.2 84.9416667 14.4833333 85.6666667 14.925 86.2 15.525 86.7333333 16.125 87 16.8 87 17.55 87 18.7666667 86.4375 19.7291667 85.3125 20.4375 84.1875 21.1458333 82.6666667 21.5 80.75 21.5 78.8333333 21.5 77.3291667 21.1666667 76.2375 20.5 75.1458333 19.8333333 74.6 18.9166667 74.6 17.75 74.6 16.4 75.3583333 15.4416667 76.875 14.875 75.525 14.3416667 74.85 13.5416667 74.85 12.475 74.85 11.3083333 75.525 10.5083333 76.875 10.075 76.4416667 9.49166667 76.225 8.80833333 76.225 8.025 76.225 6.89166667 76.6625 5.95 77.5375 5.2 78.4125 4.45 79.5083333 4.075 80.825 4.075ZM80.9 5.725C80.1666667 5.725 79.5416667 5.94166667 79.025 6.375 78.5083333 6.80833333 78.225 7.35 78.175 8 78.175 8 78.175 8.05 78.175 8.15 78.175 8.88333333 78.425 9.475 78.925 9.925 79.425 10.375 80.075 10.6 80.875 10.6 81.7083333 10.6 82.3875 10.375 82.9125 9.925 83.4375 9.475 83.7 8.9 83.7 8.2 83.7 7.48333333 83.4333333 6.89166667 82.9 6.425 82.3666667 5.95833333 81.7 5.725 80.9 5.725ZM80.925 15.425C79.5916667 15.425 78.5416667 15.625 77.775 16.025 77.0083333 16.425 76.625 16.9666667 76.625 17.65 76.625 18.3333333 77 18.8708333 77.75 19.2625 78.5 19.6541667 79.5083333 19.85 80.775 19.85 82.1083333 19.85 83.1625 19.65 83.9375 19.25 84.7125 18.85 85.1 18.3166667 85.1 17.65 85.1 16.95 84.7333333 16.4041667 84 16.0125 83.2666667 15.6208333 82.2416667 15.425 80.925 15.425ZM90.975 17.425C90.5416667 17.425 90.175 17.2708333 89.875 16.9625 89.575 16.6541667 89.425 16.2833333 89.425 15.85 89.425 15.4166667 89.575 15.0458333 89.875 14.7375 90.175 14.4291667 90.5416667 14.275 90.975 14.275 91.4083333 14.275 91.775 14.4291667 92.075 14.7375 92.375 15.0458333 92.525 15.4166667 92.525 15.85 92.525 16.2833333 92.375 16.6541667 92.075 16.9625 91.775 17.2708333 91.4083333 17.425 90.975 17.425ZM97.8 17.425C97.3666667 17.425 97 17.2708333 96.7 16.9625 96.4 16.6541667 96.25 16.2833333 96.25 15.85 96.25 15.4166667 96.4 15.0458333 96.7 14.7375 97 14.4291667 97.3666667 14.275 97.8 14.275 98.2333333 14.275 98.6 14.4291667 98.9 14.7375 99.2 15.0458333 99.35 15.4166667 99.35 15.85 99.35 16.2833333 99.2 16.6541667 98.9 16.9625 98.6 17.2708333 98.2333333 17.425 97.8 17.425ZM104.625 17.425C104.191667 17.425 103.825 17.2708333 103.525 16.9625 103.225 16.6541667 103.075 16.2833333 103.075 15.85 103.075 15.4166667 103.225 15.0458333 103.525 14.7375 103.825 14.4291667 104.191667 14.275 104.625 14.275 105.058333 14.275 105.425 14.4291667 105.725 14.7375 106.025 15.0458333 106.175 15.4166667 106.175 15.85 106.175 16.2833333 106.025 16.6541667 105.725 16.9625 105.425 17.2708333 105.058333 17.425 104.625 17.425Z" transform="translate(3.587 49)"/></svg>