<svg xmlns="http://www.w3.org/2000/svg" width="144" height="144" viewBox="0 0 144 144"><g id="scene" fill="none" fill-rule="evenodd" stroke="none" stroke-width="1"><g id="Group" fill-rule="nonzero"><rect id="Rectangle" width="144" height="144" x="0" y="0" fill="#000"/><g id="wheel" transform="matrix(-1 0 0 1 139 5)"><path id="Path" fill="gray" stroke="#000" stroke-width="3" d="M67,67 L0,67 C0,29.9969218 29.9969218,0 67,0 L67,67 Z"/><path fill="#696969" stroke="#000" stroke-width="3" d="M67,67 L67,134 C29.9969218,134 0,104.003078 0,67 L67,67 Z"/><path fill="#565656" stroke="#000" stroke-width="3" d="M67,67 L134,67 C134,104.003078 104.003078,134 67,134 L67,67 Z"/><path fill="#CACACA" stroke="#000" stroke-width="3" d="M67,67 L67,0 C104.003078,0 134,29.9969218 134,67 L67,67 Z"/><circle id="Oval" cx="67" cy="67" r="43.2" fill="#000"/></g></g><g id="onOff" fill="#FFF" fill-rule="nonzero" transform="translate(54 53)"><path d="M19.5000002,1.5 C19.5000002,0.67157 18.8284002,0 18.0000002,0 C17.1716002,0 16.5000002,0.67157 16.5000002,1.5 L16.5000002,20 C16.5000002,20.8284 17.1716002,21.5 18.0000002,21.5 C18.8284002,21.5 19.5000002,20.8284 19.5000002,20 L19.5000002,1.5 Z"/><path d="M30.7279002,7.2721 C30.1421002,6.6863 29.1924002,6.6863 28.6066002,7.2721 C28.0208002,7.8579 28.0208002,8.8076 28.6066002,9.3934 C30.7044002,11.4912 32.1330002,14.1639 32.7118002,17.0736 C33.2906002,19.9834 32.9935002,22.9994 31.8582002,25.7402 C30.7229002,28.4811 28.8003002,30.8238 26.3336002,32.472 C23.8668002,34.1203 20.9667002,35 18,35 C15.0333002,35 12.1332002,34.1203 9.66650017,32.472 C7.19970017,30.8238 5.27710017,28.4811 4.14180017,25.7403 C3.00650017,22.9994 2.70945017,19.9834 3.28823017,17.0736 C3.86701017,14.1639 5.29560017,11.4912 7.39340017,9.3934 C7.97920017,8.8076 7.97920017,7.8579 7.39340017,7.2721 C6.80760017,6.6863 5.85790017,6.6863 5.27210017,7.2721 C2.75474017,9.7894 1.04041017,12.9967 0.345870171,16.4884 C-0.348659829,19.98 0.007800171,23.5992 1.37018017,26.8883 C2.73255017,30.1774 5.03970017,32.9886 7.99970017,34.9665 C10.9598002,36.9443 14.4399002,38 18,38 C21.5601002,38 25.0402002,36.9443 28.0003002,34.9665 C30.9604002,32.9886 33.2675002,30.1774 34.6298002,26.8883 C35.9922002,23.5992 36.3487002,19.98 35.6541002,16.4884 C34.9596002,12.9967 33.2453002,9.7894 30.7279002,7.2721 Z"/></g></g></svg>