<svg xmlns="http://www.w3.org/2000/svg" width="40" height="40"><g fill="none" fill-rule="evenodd"><path fill="#222" d="M0 0h40v40H0z"/><path fill="#FFF" fill-rule="nonzero" d="M20 0h-.049C8.924.029 0 8.971 0 20s8.923 19.971 19.952 20H20c11.048 0 20-8.952 20-20S31.048 0 20 0Zm.798 11.971a29.65 29.65 0 0 0 6.173-.817c.596 2.356.971 5.077 1.029 8.058h-7.202v-7.24Zm0-1.606V1.731c2.154.596 4.346 3.47 5.73 7.884-1.845.443-3.759.693-5.73.75Zm-1.596-8.653v8.663a27.803 27.803 0 0 1-5.779-.77c1.404-4.442 3.606-7.336 5.779-7.893Zm0 10.26v7.23h-7.25c.058-2.98.433-5.702 1.029-8.058 2 .481 4.086.77 6.22.827Zm-8.865 7.23H1.625A18.281 18.281 0 0 1 5.788 8.337a29.076 29.076 0 0 0 5.654 2.384c-.654 2.548-1.038 5.423-1.105 8.48Zm0 1.596c.057 3.048.442 5.933 1.096 8.48a29.943 29.943 0 0 0-5.654 2.385 18.343 18.343 0 0 1-4.164-10.865h8.722Zm1.615 0h7.25v7.221a29.48 29.48 0 0 0-6.221.837c-.596-2.356-.971-5.077-1.03-8.058Zm7.25 8.827v8.673c-2.173-.567-4.375-3.452-5.779-7.894a27.177 27.177 0 0 1 5.779-.779Zm1.596 8.644v-8.654c1.971.058 3.885.318 5.74.76-1.394 4.423-3.576 7.298-5.74 7.894Zm0-10.25V20.8H28c-.058 2.97-.433 5.691-1.029 8.047-1.99-.48-4.048-.77-6.173-.827Zm8.808-7.22h8.769c-.173 4.114-1.712 7.874-4.163 10.864a29.568 29.568 0 0 0-5.702-2.403c.653-2.548 1.038-5.414 1.096-8.462Zm0-1.597c-.058-3.048-.443-5.923-1.087-8.471 2-.606 3.904-1.414 5.693-2.394a18.285 18.285 0 0 1 4.163 10.875h-8.77v-.01Zm3.51-12.096a27.81 27.81 0 0 1-5.03 2.077c-.932-3.01-2.25-5.462-3.798-7.077a18.493 18.493 0 0 1 8.827 5ZM15.653 2.125c-1.548 1.606-2.856 4.058-3.779 7.048a27.317 27.317 0 0 1-4.98-2.067 18.283 18.283 0 0 1 8.759-4.981Zm-8.77 30.76a27.602 27.602 0 0 1 4.981-2.068c.933 3 2.24 5.443 3.789 7.058a18.296 18.296 0 0 1-8.77-4.99Zm17.404 5.01c1.558-1.616 2.866-4.068 3.808-7.087a27.81 27.81 0 0 1 5.029 2.077 18.461 18.461 0 0 1-8.837 5.01Z"/><rect width="37" height="14" x="1.5" y="13" fill="#222" rx="7"/><path fill="#FFF" fill-rule="nonzero" d="M7.851 23.805h1.503v-7.61H7.856L6 17.561v1.434l1.762-1.297h.09v6.107Zm3.46 0h5.18v-1.282h-3.165v-.12l1.329-1.314c1.309-1.281 1.732-1.999 1.732-2.864v-.015c0-1.313-1.035-2.21-2.514-2.21-1.572 0-2.647 1.002-2.647 2.463l.005.02h1.388v-.026c0-.722.483-1.218 1.185-1.218.687 0 1.105.454 1.105 1.102v.016c0 .533-.274.918-1.284 1.957l-2.315 2.42v1.07ZM18.91 19c.512 0 .875-.396.875-.913 0-.522-.363-.917-.876-.917-.508 0-.876.395-.876.917 0 .517.368.913.876.913Zm0 3.818c.512 0 .875-.396.875-.913 0-.522-.363-.917-.876-.917-.508 0-.876.395-.876.917 0 .517.368.913.876.913ZM24.17 24c1.776 0 2.851-1.54 2.851-3.997v-.01c0-2.464-1.075-3.993-2.851-3.993-1.772 0-2.852 1.53-2.852 3.992v.01c0 2.458 1.08 3.998 2.852 3.998Zm0-1.26c-.846 0-1.33-1.018-1.33-2.737v-.01c0-1.725.484-2.733 1.33-2.733.85 0 1.333 1.008 1.333 2.732v.01c0 1.72-.482 2.738-1.333 2.738ZM31.148 24C32.925 24 34 22.46 34 20.003v-.01C34 17.528 32.925 16 31.148 16c-1.772 0-2.852 1.53-2.852 3.992v.01c0 2.458 1.08 3.998 2.852 3.998Zm0-1.26c-.846 0-1.329-1.018-1.329-2.737v-.01c0-1.725.483-2.733 1.33-2.733.85 0 1.333 1.008 1.333 2.732v.01c0 1.72-.483 2.738-1.334 2.738Z"/></g></svg>
