<svg width="144" height="144" viewBox="0 0 144 144" fill="none" xmlns="http://www.w3.org/2000/svg">
<path d="M55 52C53.3431 52 52 53.3431 52 55C52 56.6569 53.3431 58 55 58L89 58C90.6569 58 92 56.6569 92 55C92 53.3431 90.6569 52 89 52L55 52Z" fill="white"/>
<path d="M52 71C52 69.3431 53.3431 68 55 68L89 68C90.6569 68 92 69.3431 92 71C92 72.6569 90.6569 74 89 74L55 74C53.3431 74 52 72.6569 52 71Z" fill="white"/>
<path d="M55 84C53.3431 84 52 85.3431 52 87C52 88.6569 53.3431 90 55 90H73C74.6569 90 76 88.6569 76 87C76 85.3431 74.6569 84 73 84H55Z" fill="white"/>
<path fill-rule="evenodd" clip-rule="evenodd" d="M36 44C36 39.5817 39.5817 36 44 36H100C104.418 36 108 39.5817 108 44V100C108 104.418 104.418 108 100 108H44C39.5817 108 36 104.418 36 100V44ZM44 42H100C101.105 42 102 42.8954 102 44V100C102 101.105 101.105 102 100 102H44C42.8954 102 42 101.105 42 100V44C42 42.8954 42.8954 42 44 42Z" fill="white"/>
</svg>
