<svg width="144" height="144" viewBox="0 0 144 144" fill="none" xmlns="http://www.w3.org/2000/svg">
<path fill-rule="evenodd" clip-rule="evenodd" d="M44 36C39.5817 36 36 39.5817 36 44V100C36 104.418 39.5817 108 44 108H100C104.418 108 108 104.418 108 100V44C108 39.5817 104.418 36 100 36H44ZM55 52C53.3431 52 52 53.3431 52 55C52 56.6569 53.3431 58 55 58L89 58C90.6569 58 92 56.6569 92 55C92 53.3431 90.6569 52 89 52L55 52ZM52 71C52 69.3431 53.3431 68 55 68L89 68C90.6569 68 92 69.3431 92 71C92 72.6569 90.6569 74 89 74L55 74C53.3431 74 52 72.6569 52 71ZM55 84C53.3431 84 52 85.3431 52 87C52 88.6569 53.3431 90 55 90H73C74.6569 90 76 88.6569 76 87C76 85.3431 74.6569 84 73 84H55Z" fill="white"/>
</svg>
