<svg width="144" height="144" viewBox="0 0 144 144" fill="none" xmlns="http://www.w3.org/2000/svg">
<path d="M69 46.4602C67.6218 45.5954 66.1704 44.8455 64.6601 44.2199C61.1219 42.7543 57.3297 42 53.5 42C49.6702 42 45.878 42.7543 42.3398 44.2199C38.8016 45.6855 35.5867 47.8336 32.8787 50.5416C32.3161 51.1042 32 51.8673 32 52.6629L32 99C32 100.213 32.7309 101.307 33.852 101.772C34.973 102.236 36.2633 101.979 37.1213 101.121C39.2722 98.9705 41.8257 97.2643 44.6359 96.1002C47.4462 94.9362 50.4582 94.3371 53.5 94.3371C56.5418 94.3371 59.5538 94.9362 62.3641 96.1002C64.8008 97.1096 67.0444 98.5265 69 100.287V46.4602Z" fill="white"/>
<path d="M75 100.287C76.9556 98.5265 79.1992 97.1096 81.6359 96.1002C84.4462 94.9362 87.4582 94.3371 90.5 94.3371C93.5418 94.3371 96.5538 94.9362 99.3641 96.1002C102.174 97.2643 104.728 98.9704 106.879 101.121C107.737 101.979 109.027 102.236 110.148 101.772C111.269 101.307 112 100.213 112 99L112 52.6629C112 51.8673 111.684 51.1042 111.121 50.5416C108.413 47.8336 105.198 45.6855 101.66 44.2199C98.1219 42.7543 94.3297 42 90.5 42C86.6702 42 82.878 42.7543 79.3398 44.2199C77.8295 44.8455 76.3782 45.5954 75 46.4602V100.287Z" fill="white"/>
</svg>
