<svg width="144" height="144" viewBox="0 0 144 144" fill="none" xmlns="http://www.w3.org/2000/svg">
<path fill-rule="evenodd" clip-rule="evenodd" d="M53.5 42C49.6702 42 45.878 42.7543 42.3398 44.2199C38.8016 45.6855 35.5867 47.8336 32.8787 50.5416C32.3161 51.1042 32 51.8673 32 52.6629L32 99C32 100.213 32.7309 101.307 33.852 101.772C34.973 102.236 36.2633 101.979 37.1213 101.121C39.2722 98.9705 41.8257 97.2643 44.6359 96.1002C47.4462 94.9362 50.4582 94.3371 53.5 94.3371C56.5418 94.3371 59.5538 94.9362 62.3641 96.1002C65.1687 97.262 67.7176 98.9637 69.8658 101.109C69.9163 101.16 69.9688 101.209 70.023 101.257C70.4846 101.662 71.0408 101.901 71.6143 101.975C71.8177 102.002 72.0223 102.007 72.2247 101.992C72.8771 101.943 73.5165 101.682 74.0307 101.208C74.0614 101.18 74.0916 101.151 74.1213 101.121C76.2722 98.9705 78.8257 97.2643 81.6359 96.1002C84.4462 94.9362 87.4582 94.3371 90.5 94.3371C93.5418 94.3371 96.5538 94.9362 99.3641 96.1002C102.174 97.2643 104.728 98.9704 106.879 101.121C107.737 101.979 109.027 102.236 110.148 101.772C111.269 101.307 112 100.213 112 99L112 52.6629C112 51.8673 111.684 51.1042 111.121 50.5416C108.413 47.8336 105.198 45.6855 101.66 44.2199C98.1219 42.7543 94.3297 42 90.5 42C86.6702 42 82.878 42.7543 79.3398 44.2199C76.6854 45.3194 74.213 46.803 72 48.6191C69.787 46.803 67.3146 45.3194 64.6601 44.2199C61.1219 42.7543 57.3297 42 53.5 42ZM69 53.9504C67.0444 52.1894 64.8008 50.7725 62.364 49.7632C59.5538 48.5991 56.5418 48 53.5 48C50.4582 48 47.4462 48.5991 44.6359 49.7632C42.1992 50.7725 39.9555 52.1894 38 53.9504L38 92.7972C39.3782 91.9325 40.8296 91.1825 42.3398 90.557C45.878 89.0914 49.6703 88.3371 53.5 88.3371C57.3297 88.3371 61.122 89.0914 64.6602 90.557C66.1704 91.1825 67.6218 91.9325 69 92.7972L69 53.9504ZM81.6359 49.7632C84.4462 48.5991 87.4582 48 90.5 48C93.5418 48 96.5538 48.5991 99.364 49.7632C101.801 50.7725 104.044 52.1894 106 53.9504L106 92.7972C104.622 91.9325 103.17 91.1825 101.66 90.557C98.1219 89.0914 94.3297 88.3371 90.5 88.3371C86.6703 88.3371 82.878 89.0914 79.3398 90.557C77.8296 91.1825 76.3782 91.9325 75 92.7972L75 53.9504C76.9555 52.1894 79.1992 50.7725 81.6359 49.7632Z" fill="white"/>
</svg>
