<svg width="144" height="144" viewBox="0 0 144 144" fill="none" xmlns="http://www.w3.org/2000/svg">
<path fill-rule="evenodd" clip-rule="evenodd" d="M56 44V52H40C35.5817 52 32 55.5817 32 60V72C32 76.0578 33.5105 79.7628 36 82.5833V100C36 104.418 39.5817 108 44 108H100C104.418 108 108 104.418 108 100V82.5833C110.489 79.7628 112 76.0578 112 72V60C112 55.5817 108.418 52 104 52H88V44C88 39.5817 84.4183 36 80 36H64C59.5817 36 56 39.5817 56 44ZM80 42H64C62.8954 42 62 42.8954 62 44V52H82V44C82 42.8954 81.1046 42 80 42ZM104 58C105.105 58 106 58.8954 106 60V72C106 77.5229 101.523 82 96 82H75V79C75 77.3431 73.6569 76 72 76C70.3431 76 69 77.3431 69 79V82H48C42.4772 82 38 77.5229 38 72V60C38 58.8954 38.8954 58 40 58H104ZM69 88H48C45.8782 88 43.8529 87.587 42 86.837V100C42 101.105 42.8954 102 44 102H100C101.105 102 102 101.105 102 100V86.837C100.147 87.587 98.1218 88 96 88H75V91C75 92.6569 73.6569 94 72 94C70.3431 94 69 92.6569 69 91V88Z" fill="white"/>
</svg>
