<svg width="144" height="144" viewBox="0 0 144 144" fill="none" xmlns="http://www.w3.org/2000/svg">
<path d="M43.5648 96.2042L50.2422 89.5268C51.4208 88.5086 53.2036 88.5589 54.3224 89.6778C55.494 90.8494 55.494 92.7489 54.3224 93.9204L47.9585 100.284C46.7869 101.456 44.8874 101.456 43.7158 100.284C42.597 99.1655 42.5466 97.3828 43.5648 96.2042Z" fill="white"/>
<path d="M55.9006 83.8684L60.2124 79.5566C62.7022 83.4323 67.0512 86 72 86C79.732 86 86 79.732 86 72C86 67.0512 83.4323 62.7022 79.5566 60.2124L83.8684 55.9006C88.801 59.5429 92 65.3978 92 72C92 83.0457 83.0457 92 72 92C65.3978 92 59.5429 88.801 55.9006 83.8684Z" fill="white"/>
<path d="M78.2784 53.0053C76.3039 52.353 74.1932 52 72 52C60.9543 52 52 60.9543 52 72C52 74.1932 52.353 76.3039 53.0053 78.2784L58.0533 73.2304C58.018 72.825 58 72.4146 58 72C58 64.268 64.268 58 72 58C72.4146 58 72.825 58.018 73.2304 58.0533L78.2784 53.0053Z" fill="white"/>
<path d="M89.5235 50.2455L96.2075 43.5615C97.3861 42.5465 99.1664 42.5978 100.284 43.7156C101.456 44.8872 101.456 46.7867 100.284 47.9582L93.9202 54.3222C92.7486 55.4938 90.8491 55.4938 89.6776 54.3222C88.5598 53.2044 88.5085 51.4241 89.5235 50.2455Z" fill="white"/>
<path d="M72 32C73.6569 32 75 33.3431 75 35V44C75 45.6569 73.6569 47 72 47C70.3431 47 69 45.6569 69 44V35C69 33.3431 70.3431 32 72 32Z" fill="white"/>
<path d="M112 72C112 73.6569 110.657 75 109 75H100C98.3431 75 97 73.6569 97 72C97 70.3431 98.3431 69 100 69H109C110.657 69 112 70.3431 112 72Z" fill="white"/>
<path d="M100.284 100.284C99.1128 101.456 97.2133 101.456 96.0418 100.284L89.6778 93.9204C88.5062 92.7489 88.5062 90.8494 89.6778 89.6778C90.8494 88.5062 92.7489 88.5062 93.9204 89.6778L100.284 96.0418C101.456 97.2133 101.456 99.1128 100.284 100.284Z" fill="white"/>
<path d="M72 112C70.3431 112 69 110.657 69 109V100C69 98.3431 70.3431 97 72 97C73.6569 97 75 98.3431 75 100V109C75 110.657 73.6569 112 72 112Z" fill="white"/>
<path d="M32 72C32 70.3431 33.3431 69 35 69H44C45.6569 69 47 70.3431 47 72C47 73.6569 45.6569 75 44 75H35C33.3431 75 32 73.6569 32 72Z" fill="white"/>
<path d="M43.7156 43.7156C44.8872 42.544 46.7867 42.544 47.9582 43.7156L54.3222 50.0796C55.4938 51.2511 55.4938 53.1506 54.3222 54.3222C53.1506 55.4938 51.2511 55.4938 50.0796 54.3222L43.7156 47.9582C42.544 46.7867 42.544 44.8872 43.7156 43.7156Z" fill="white"/>
<path d="M32.8787 106.879C31.7071 108.05 31.7071 109.95 32.8787 111.121C34.0503 112.293 35.9497 112.293 37.1213 111.121L111.121 37.1213C112.293 35.9497 112.293 34.0503 111.121 32.8787C109.95 31.7071 108.05 31.7071 106.879 32.8787L32.8787 106.879Z" fill="#FF7073"/>
</svg>
