<svg width="144" height="144" viewBox="0 0 144 144" fill="none" xmlns="http://www.w3.org/2000/svg">
<path d="M72 32C73.6569 32 75 33.3431 75 35V44C75 45.6569 73.6569 47 72 47C70.3431 47 69 45.6569 69 44V35C69 33.3431 70.3431 32 72 32Z" fill="white"/>
<path d="M100.284 43.7156C101.456 44.8872 101.456 46.7867 100.284 47.9582L93.9202 54.3222C92.7486 55.4938 90.8491 55.4938 89.6776 54.3222C88.506 53.1506 88.506 51.2511 89.6776 50.0796L96.0415 43.7156C97.2131 42.544 99.1126 42.544 100.284 43.7156Z" fill="white"/>
<path d="M109 75C110.657 75 112 73.6569 112 72C112 70.3431 110.657 69 109 69H100C98.3431 69 97 70.3431 97 72C97 73.6569 98.3431 75 100 75H109Z" fill="white"/>
<path d="M100.284 100.284C99.1128 101.456 97.2133 101.456 96.0418 100.284L89.6778 93.9204C88.5062 92.7489 88.5062 90.8494 89.6778 89.6778C90.8494 88.5062 92.7489 88.5062 93.9204 89.6778L100.284 96.0418C101.456 97.2133 101.456 99.1128 100.284 100.284Z" fill="white"/>
<path d="M69 109C69 110.657 70.3431 112 72 112C73.6569 112 75 110.657 75 109V100C75 98.3431 73.6569 97 72 97C70.3431 97 69 98.3431 69 100V109Z" fill="white"/>
<path d="M43.7158 100.284C42.5443 99.1128 42.5443 97.2133 43.7158 96.0418L50.0798 89.6778C51.2514 88.5062 53.1509 88.5062 54.3224 89.6778C55.494 90.8494 55.494 92.7489 54.3224 93.9204L47.9585 100.284C46.7869 101.456 44.8874 101.456 43.7158 100.284Z" fill="white"/>
<path d="M35 69C33.3431 69 32 70.3431 32 72C32 73.6569 33.3431 75 35 75H44C45.6569 75 47 73.6569 47 72C47 70.3431 45.6569 69 44 69H35Z" fill="white"/>
<path d="M43.7156 43.7156C44.8872 42.544 46.7867 42.544 47.9582 43.7156L54.3222 50.0796C55.4938 51.2511 55.4938 53.1506 54.3222 54.3222C53.1506 55.4938 51.2511 55.4938 50.0796 54.3222L43.7156 47.9582C42.544 46.7867 42.544 44.8872 43.7156 43.7156Z" fill="white"/>
<path fill-rule="evenodd" clip-rule="evenodd" d="M92 72C92 83.0457 83.0457 92 72 92C60.9543 92 52 83.0457 52 72C52 60.9543 60.9543 52 72 52C83.0457 52 92 60.9543 92 72ZM86 72C86 79.732 79.732 86 72 86C64.268 86 58 79.732 58 72C58 64.268 64.268 58 72 58C79.732 58 86 64.268 86 72Z" fill="white"/>
</svg>
