<svg width="144" height="144" viewBox="0 0 144 144" fill="none" xmlns="http://www.w3.org/2000/svg">
<path d="M61 32.0029C62.6569 32.0029 64 33.3461 64 35.0029V41.3659C66.5022 40.4815 69.1949 40.0002 72 40.0002C74.8051 40.0002 77.4978 40.4815 80 41.3659V35.0029C80 33.3461 81.3431 32.0029 83 32.0029C84.6569 32.0029 86 33.3461 86 35.0029V44.5044C89.3647 46.9249 92.0773 50.1948 93.8238 54.0002L105.007 54.0002C106.664 54.0002 108.007 55.3434 108.007 57.0002C108.007 58.6571 106.664 60.0002 105.007 60.0002L38.9878 60.0002C37.3309 60.0002 35.9878 58.6571 35.9878 57.0002C35.9878 55.3434 37.3309 54.0002 38.9878 54.0002H50.1487L50.1761 54.0004C51.9227 50.1949 54.6353 46.9249 58 44.5044V35.0029C58 33.3461 59.3431 32.0029 61 32.0029Z" fill="white"/>
<path d="M35.9878 73.0002C35.9878 71.3434 37.3309 70.0002 38.9878 70.0002H47.9878L48 70.0003V66.0002H69V107.815C59.8745 106.677 52.34 100.415 49.3656 92.0002H39.0645C37.4076 92.0002 36.0645 90.6571 36.0645 89.0002C36.0645 87.3434 37.4076 86.0002 39.0645 86.0002H48.0821C48.0277 85.3408 48 84.6738 48 84.0002V76.0002L47.9878 76.0002H38.9878C37.3309 76.0002 35.9878 74.6571 35.9878 73.0002Z" fill="white"/>
<path d="M75 66.0002L96 66.0002V70.0002H105C106.657 70.0002 108 71.3434 108 73.0002C108 74.6571 106.657 76.0002 105 76.0002H96V84.0002C96 84.6738 95.9723 85.3408 95.9179 86.0002H105C106.657 86.0002 108 87.3434 108 89.0002C108 90.6571 106.657 92.0002 105 92.0002H94.6344C91.66 100.415 84.1255 106.677 75 107.815V66.0002Z" fill="white"/>
</svg>
