<svg width="144" height="144" viewBox="0 0 144 144" fill="none" xmlns="http://www.w3.org/2000/svg">
<path fill-rule="evenodd" clip-rule="evenodd" d="M55 32C56.6569 32 58 33.3431 58 35V40H86V35C86 33.3431 87.3431 32 89 32C90.6569 32 92 33.3431 92 35V40H100C104.418 40 108 43.5817 108 48V100C108 104.418 104.418 108 100 108H44C39.5817 108 36 104.418 36 100V48C36 43.5817 39.5817 40 44 40H52V35C52 33.3431 53.3431 32 55 32ZM86 46V50C86 51.6569 87.3431 53 89 53C90.6569 53 92 51.6569 92 50V46H100C101.105 46 102 46.8954 102 48V58L42 58V48C42 46.8954 42.8954 46 44 46H52V50C52 51.6569 53.3431 53 55 53C56.6569 53 58 51.6569 58 50V46H86ZM42 64V100C42 101.105 42.8954 102 44 102H100C101.105 102 102 101.105 102 100V64L42 64Z" fill="white"/>
</svg>
