<svg width="144" height="144" viewBox="0 0 144 144" fill="none" xmlns="http://www.w3.org/2000/svg">
<path fill-rule="evenodd" clip-rule="evenodd" d="M72 56C83.0457 56 92 64.9543 92 76C92 87.0457 83.0457 96 72 96C60.9543 96 52 87.0457 52 76C52 64.9543 60.9543 56 72 56ZM72 62C79.732 62 86 68.268 86 76C86 83.732 79.732 90 72 90C64.268 90 58 83.732 58 76C58 68.268 64.268 62 72 62Z" fill="white"/>
<path fill-rule="evenodd" clip-rule="evenodd" d="M85.1875 37.7812L92 48H104C108.418 48 112 51.5817 112 56V100C112 104.418 108.418 108 104 108H40C35.5817 108 32 104.418 32 100V56C32 51.5817 35.5817 48 40 48H52L58.8125 37.7812C59.5544 36.6684 60.8033 36 62.1407 36H81.8593C83.1967 36 84.4456 36.6684 85.1875 37.7812ZM52 54C54.0061 54 55.8795 52.9974 56.9923 51.3282L63.2111 42H80.7889L87.0077 51.3282C88.1205 52.9974 89.9939 54 92 54H104C105.105 54 106 54.8954 106 56V100C106 101.105 105.105 102 104 102H40C38.8954 102 38 101.105 38 100V56C38 54.8954 38.8954 54 40 54H52Z" fill="white"/>
</svg>
