<svg width="144" height="144" viewBox="0 0 144 144" fill="none" xmlns="http://www.w3.org/2000/svg">
<path d="M72 62C79.732 62 86 68.268 86 76C86 83.732 79.732 90 72 90C64.268 90 58 83.732 58 76C58 68.268 64.268 62 72 62Z" fill="white"/>
<path fill-rule="evenodd" clip-rule="evenodd" d="M58.8125 37.7812L52 48H40C35.5817 48 32 51.5817 32 56V100C32 104.418 35.5817 108 40 108H104C108.418 108 112 104.418 112 100V56C112 51.5817 108.418 48 104 48H92L85.1875 37.7812C84.4456 36.6684 83.1967 36 81.8593 36H62.1407C60.8033 36 59.5544 36.6684 58.8125 37.7812ZM72 56C83.0457 56 92 64.9543 92 76C92 87.0457 83.0457 96 72 96C60.9543 96 52 87.0457 52 76C52 64.9543 60.9543 56 72 56Z" fill="white"/>
</svg>
