<svg width="144" height="144" viewBox="0 0 144 144" fill="none" xmlns="http://www.w3.org/2000/svg">
<path d="M34.2288 105.54C35.6846 107.056 37.7321 108 40 108H104C108.418 108 112 104.418 112 100V56C112 51.5817 108.418 48 104 48H92L91.9076 47.8614L81.4175 58.3515C87.7153 61.7191 92 68.3592 92 76C92 87.0457 83.0457 96 72 96C64.3592 96 57.7191 91.7153 54.3515 85.4175L34.2288 105.54Z" fill="white"/>
<path d="M52.2314 79.0523L32 99.2837V56C32 51.5817 35.5817 48 40 48H52L58.8125 37.7812C59.5544 36.6684 60.8033 36 62.1407 36H81.8593C83.1967 36 84.4456 36.6684 85.1875 37.7812L88.5135 42.7702L75.0523 56.2314C74.0571 56.079 73.0378 56 72 56C60.9543 56 52 64.9543 52 76C52 77.0378 52.079 78.0571 52.2314 79.0523Z" fill="white"/>
<path d="M58.8781 80.8909C60.8619 86.211 65.9884 90 72 90C79.732 90 86 83.732 86 76C86 69.9884 82.211 64.8619 76.8909 62.8781L58.8781 80.8909Z" fill="white"/>
<path d="M32.8787 106.879C31.7071 108.05 31.7071 109.95 32.8787 111.121C34.0503 112.293 35.9497 112.293 37.1213 111.121L111.121 37.1213C112.293 35.9497 112.293 34.0503 111.121 32.8787C109.95 31.7071 108.05 31.7071 106.879 32.8787L32.8787 106.879Z" fill="#FF7073"/>
</svg>
