<svg width="144" height="144" viewBox="0 0 144 144" fill="none" xmlns="http://www.w3.org/2000/svg">
<path fill-rule="evenodd" clip-rule="evenodd" d="M32.8787 111.121C31.7071 109.95 31.7071 108.05 32.8787 106.879L106.879 32.8787C108.05 31.7071 109.95 31.7071 111.121 32.8787C112.293 34.0503 112.293 35.9497 111.121 37.1213L100.243 48H104C108.418 48 112 51.5817 112 56V100C112 104.418 108.418 108 104 108H40.2426L37.1213 111.121C35.9497 112.293 34.0503 112.293 32.8787 111.121ZM46.2426 102H104C105.105 102 106 101.105 106 100V56C106 54.8954 105.105 54 104 54H94.2426L86.2629 61.9797C89.8112 65.589 92 70.5389 92 76C92 87.0457 83.0457 96 72 96C66.5389 96 61.589 93.8112 57.9797 90.2629L46.2426 102ZM62.2226 86.0201C64.7458 88.4826 68.1957 90 72 90C79.732 90 86 83.732 86 76C86 72.1957 84.4826 68.7458 82.0201 66.2226L62.2226 86.0201Z" fill="white"/>
<path d="M32 99.2837L38 93.2837V56C38 54.8954 38.8954 54 40 54H52C54.0061 54 55.8795 52.9974 56.9923 51.3282L63.2111 42H80.7889L84.1868 47.0969L88.5135 42.7702L85.1875 37.7812C84.4456 36.6684 83.1967 36 81.8593 36H62.1407C60.8033 36 59.5544 36.6684 58.8125 37.7812L52 48H40C35.5817 48 32 51.5817 32 56V99.2837Z" fill="white"/>
<path d="M52.2314 79.0523L58.333 72.9507C59.5068 67.6667 63.6667 63.5068 68.9507 62.333L75.0523 56.2314C74.0571 56.079 73.0378 56 72 56C60.9543 56 52 64.9543 52 76C52 77.0378 52.079 78.0571 52.2314 79.0523Z" fill="white"/>
</svg>
