<svg width="144" height="144" viewBox="0 0 144 144" fill="none" xmlns="http://www.w3.org/2000/svg">
<path d="M34.2288 105.54C35.6846 107.056 37.7321 108 40 108H104C108.418 108 112 104.418 112 100V56C112 51.5817 108.418 48 104 48H92L91.9076 47.8614L87.6434 52.1256C88.7662 53.3115 90.3375 54 92 54H104C105.105 54 106 54.8954 106 56V100C106 101.105 105.105 102 104 102H40C39.3889 102 38.8418 101.726 38.475 101.294L34.2288 105.54Z" fill="white"/>
<path d="M38 93.2837L32 99.2837V56C32 51.5817 35.5817 48 40 48H52L58.8125 37.7812C59.5544 36.6684 60.8033 36 62.1407 36H81.8593C83.1967 36 84.4456 36.6684 85.1875 37.7812L88.5135 42.7702L84.1868 47.0969L80.7889 42H63.2111L56.9923 51.3282C55.8795 52.9974 54.0061 54 52 54H40C38.8954 54 38 54.8954 38 56V93.2837Z" fill="white"/>
<path d="M54.3515 85.4175C57.7191 91.7153 64.3592 96 72 96C83.0457 96 92 87.0457 92 76C92 68.3592 87.7153 61.7191 81.4175 58.3515L76.8909 62.8781C82.211 64.8619 86 69.9884 86 76C86 83.732 79.732 90 72 90C65.9884 90 60.8619 86.211 58.8781 80.8909L54.3515 85.4175Z" fill="white"/>
<path d="M58.333 72.9507L52.2314 79.0523C52.079 78.0571 52 77.0378 52 76C52 64.9543 60.9543 56 72 56C73.0378 56 74.0571 56.079 75.0523 56.2314L68.9507 62.333C63.6667 63.5068 59.5068 67.6667 58.333 72.9507Z" fill="white"/>
<path d="M32.8787 106.879C31.7071 108.05 31.7071 109.95 32.8787 111.121C34.0503 112.293 35.9497 112.293 37.1213 111.121L111.121 37.1213C112.293 35.9497 112.293 34.0503 111.121 32.8787C109.95 31.7071 108.05 31.7071 106.879 32.8787L32.8787 106.879Z" fill="#FF7073"/>
</svg>
