<svg width="144" height="144" viewBox="0 0 144 144" fill="none" xmlns="http://www.w3.org/2000/svg">
<path fill-rule="evenodd" clip-rule="evenodd" d="M92.1568 69.3746L91.9826 65.1561C91.5427 54.5042 82.763 46 72 46C61.237 46 52.4573 54.5042 52.0174 65.1561L51.8432 69.3746L47.8136 70.635C42.1202 72.4158 38 77.7346 38 84C38 91.732 44.268 98 52 98H92C99.732 98 106 91.732 106 84C106 77.7346 101.88 72.4158 96.1864 70.635L92.1568 69.3746ZM46.0225 64.9086C37.8967 67.4501 32 75.0364 32 84C32 95.0457 40.9543 104 52 104H92C103.046 104 112 95.0457 112 84C112 75.0364 106.103 67.4501 97.9775 64.9086C97.4054 51.0553 85.9938 40 72 40C58.0062 40 46.5946 51.0553 46.0225 64.9086Z" fill="white"/>
</svg>
