<svg width="144" height="144" viewBox="0 0 144 144" fill="none" xmlns="http://www.w3.org/2000/svg">
<path fill-rule="evenodd" clip-rule="evenodd" d="M64 42H100C101.105 42 102 42.8954 102 44V80C102 81.1046 101.105 82 100 82H64C62.8954 82 62 81.1046 62 80V44C62 42.8954 62.8954 42 64 42ZM100 36C104.418 36 108 39.5817 108 44V80C108 84.4183 104.418 88 100 88H64C59.5817 88 56 84.4183 56 80V44C56 39.5817 59.5817 36 64 36H100Z" fill="white"/>
<path fill-rule="evenodd" clip-rule="evenodd" d="M50 59C50 57.3431 48.6569 56 47 56H44C39.5817 56 36 59.5817 36 64V100C36 104.418 39.5817 108 44 108H80C84.4183 108 88 104.418 88 100V97C88 95.3431 86.6569 94 85 94C83.3431 94 82 95.3431 82 97V100C82 101.105 81.1046 102 80 102H44C42.8954 102 42 101.105 42 100V64C42 62.8954 42.8954 62 44 62H47C48.6569 62 50 60.6569 50 59Z" fill="white"/>
</svg>
