<svg width="144" height="144" viewBox="0 0 144 144" fill="none" xmlns="http://www.w3.org/2000/svg">
<path fill-rule="evenodd" clip-rule="evenodd" d="M108 52C108 49.903 107.072 47.8221 105.26 45.8771C103.451 43.9359 100.799 42.172 97.4558 40.6863C94.1129 39.2006 90.1443 38.022 85.7766 37.2179C81.4089 36.4139 76.7276 36 72 36C67.2724 36 62.5911 36.4139 58.2234 37.2179C53.8557 38.022 49.8871 39.2006 46.5442 40.6863C43.2012 42.172 40.5495 43.9359 38.7403 45.8771C36.9276 47.8221 36 49.903 36 52V92C36 96.2293 39.7705 100.303 46.5442 103.314C53.2954 106.314 62.4522 108 72 108C81.5478 108 90.7046 106.314 97.4558 103.314C104.229 100.303 108 96.2293 108 92V52ZM72 42C67.6135 42 63.2969 42.3847 59.3097 43.1188C55.3118 43.8548 51.8114 44.9112 48.981 46.1692C46.1147 47.4431 44.2221 48.7956 43.1296 49.9678C42.0757 51.0987 42 51.7831 42 52C42 52.2169 42.0757 52.9013 43.1296 54.0322C44.2221 55.2044 46.1147 56.5569 48.981 57.8308C51.8114 59.0888 55.3118 60.1452 59.3097 60.8812C63.2969 61.6153 67.6135 62 72 62C76.3865 62 80.7031 61.6153 84.6903 60.8812C88.6882 60.1452 92.1886 59.0888 95.019 57.8308C97.8853 56.5569 99.7779 55.2044 100.87 54.0322C101.924 52.9013 102 52.2169 102 52C102 51.7831 101.924 51.0987 100.87 49.9678C99.7779 48.7956 97.8853 47.4431 95.019 46.1692C92.1886 44.9112 88.6882 43.8548 84.6903 43.1188C80.7031 42.3847 76.3865 42 72 42ZM102 60.8443C100.677 61.7305 99.156 62.5581 97.4558 63.3137C94.1129 64.7994 90.1443 65.978 85.7766 66.7821C81.4089 67.5861 76.7276 68 72 68C67.2724 68 62.5911 67.5861 58.2234 66.7821C53.8557 65.978 49.8871 64.7994 46.5442 63.3137C44.844 62.5581 43.3227 61.7305 42 60.8443V72C42 72.4569 42.7077 75.0427 48.981 77.8308C54.7759 80.4064 63.0564 82 72 82C80.9436 82 89.2241 80.4064 95.019 77.8308C101.292 75.0427 102 72.4569 102 72V60.8443ZM102 80.8446C100.685 81.7257 99.1661 82.5536 97.4558 83.3137C90.7046 86.3143 81.5478 88 72 88C62.4522 88 53.2954 86.3143 46.5442 83.3137C44.8339 82.5536 43.315 81.7257 42 80.8446V92C42 92.4569 42.7077 95.0427 48.981 97.8308C54.7759 100.406 63.0564 102 72 102C80.9436 102 89.2241 100.406 95.019 97.8308C101.292 95.0427 102 92.4569 102 92V80.8446Z" fill="white"/>
</svg>
