<svg width="144" height="144" viewBox="0 0 144 144" fill="none" xmlns="http://www.w3.org/2000/svg">
<path d="M99.8927 68.7966C92.4463 72.1061 82.5797 74 72 74C61.4203 74 51.5537 72.1061 44.1073 68.7966C41.0918 67.4563 38.2984 65.8063 36 63.8105V72C36 74.0991 36.9294 76.1798 38.7403 78.1229C40.5495 80.0641 43.2012 81.828 46.5442 83.3137C49.8871 84.7994 53.8557 85.978 58.2234 86.7821C62.5911 87.5862 67.2724 88 72 88C76.7276 88 81.4089 87.5862 85.7766 86.7821C90.1443 85.978 94.1129 84.7994 97.4558 83.3137C100.799 81.828 103.451 80.0641 105.26 78.1229C107.071 76.1798 108 74.0991 108 72V63.8105C105.702 65.8063 102.908 67.4563 99.8927 68.7966Z" fill="white"/>
<path d="M108 83.8031C105.717 85.7899 102.934 87.4447 99.8927 88.7966C96.0373 90.5101 91.6005 91.8108 86.8629 92.6829C82.1147 93.557 77.0687 94 72 94C66.9313 94 61.8853 93.557 57.1371 92.6829C52.3995 91.8108 47.9627 90.5101 44.1073 88.7966C41.0656 87.4447 38.2829 85.7899 36 83.8031V92C36 96.2293 39.7705 100.303 46.5442 103.314C53.2954 106.314 62.4522 108 72 108C81.5478 108 90.7046 106.314 97.4558 103.314C104.229 100.303 108 96.2293 108 92V83.8031Z" fill="white"/>
<path d="M72 36C52.1177 36 36 43.1634 36 52C36 60.8366 52.1177 68 72 68C91.8823 68 108 60.8366 108 52C108 43.1634 91.8823 36 72 36Z" fill="white"/>
</svg>
