<svg width="144" height="144" viewBox="0 0 144 144" fill="none" xmlns="http://www.w3.org/2000/svg">
<path fill-rule="evenodd" clip-rule="evenodd" d="M108 67.9999H76V35.9999C76 33.7908 77.7963 31.977 79.9918 32.2219C83.349 32.5965 86.6435 33.4425 89.7766 34.7403C94.1443 36.5494 98.113 39.2012 101.456 42.5441C104.799 45.887 107.451 49.8556 109.26 54.2233C110.557 57.3565 111.403 60.6509 111.778 64.0081C112.023 66.2036 110.209 67.9999 108 67.9999ZM103.716 56.5194C104.451 58.2928 105.012 60.1282 105.394 61.9999H82V38.6061C83.8717 38.9881 85.7071 39.549 87.4805 40.2835C91.1203 41.7912 94.4275 44.001 97.2132 46.7867C99.999 49.5725 102.209 52.8797 103.716 56.5194Z" fill="white"/>
<path fill-rule="evenodd" clip-rule="evenodd" d="M68 43.9999C68 41.7908 66.2037 39.977 64.0082 40.2219C58.3003 40.8587 52.807 42.8548 47.9995 46.067C42.0793 50.0228 37.4651 55.6452 34.7404 62.2233C32.0156 68.8015 31.3027 76.0399 32.6917 83.0232C34.0808 90.0065 37.5095 96.4211 42.5442 101.456C47.5789 106.49 53.9934 109.919 60.9768 111.308C67.9601 112.697 75.1985 111.984 81.7766 109.26C88.3548 106.535 93.9772 101.921 97.9329 96.0005C101.145 91.193 103.141 85.6996 103.778 79.9918C104.023 77.7963 102.209 75.9999 100 75.9999L68 75.9999L68 43.9999ZM62 81.9999L97.3939 81.9999C96.6198 85.792 95.1154 89.4175 92.9441 92.667C89.6477 97.6005 84.9623 101.446 79.4805 103.716C73.9987 105.987 67.9667 106.581 62.1473 105.423C56.3279 104.266 50.9824 101.409 46.7868 97.2131C42.5912 93.0176 39.734 87.6721 38.5765 81.8526C37.4189 76.0332 38.013 70.0012 40.2836 64.5194C42.5543 59.0376 46.3994 54.3523 51.3329 51.0558C54.5824 48.8846 58.208 47.3801 62 46.606L62 81.9999Z" fill="white"/>
</svg>
