<svg width="144" height="144" viewBox="0 0 144 144" fill="none" xmlns="http://www.w3.org/2000/svg">
<path d="M108 68.0004C110.209 68.0004 112.023 66.2041 111.778 64.0086C111.403 60.6514 110.557 57.357 109.26 54.2238C107.451 49.8561 104.799 45.8875 101.456 42.5446C98.1129 39.2017 94.1443 36.5499 89.7766 34.7408C86.6435 33.443 83.349 32.597 79.9918 32.2224C77.7963 31.9775 76 33.7913 76 36.0004V68.0004H108Z" fill="white"/>
<path d="M68 44.0004C68 41.7913 66.2037 39.9774 64.0082 40.2224C58.3003 40.8592 52.807 42.8553 47.9995 46.0675C42.0793 50.0232 37.4651 55.6457 34.7404 62.2238C32.0156 68.8019 31.3027 76.0404 32.6917 83.0237C34.0808 90.007 37.5095 96.4216 42.5442 101.456C47.5789 106.491 53.9934 109.92 60.9768 111.309C67.9601 112.698 75.1985 111.985 81.7766 109.26C88.3548 106.535 93.9772 101.921 97.9329 96.001C101.145 91.1935 103.141 85.7001 103.778 79.9923C104.023 77.7967 102.209 76.0004 100 76.0004L68 76.0004V44.0004Z" fill="white"/>
</svg>
