<svg width="144" height="144" viewBox="0 0 144 144" fill="none" xmlns="http://www.w3.org/2000/svg">
<path d="M72 30C73.6569 30 75 31.3431 75 33V40.1544C83.6417 41.0085 91.4902 45.4239 93.8285 53.8179C94.2731 55.414 93.3397 57.0683 91.7436 57.5129C90.1475 57.9575 88.4932 57.0241 88.0486 55.428C86.4536 49.7024 80.2991 46 71.8423 46C68.1334 46 63.8311 47.1513 60.5339 49.2112C57.2251 51.2784 55.4104 53.9119 55.4104 56.801C55.4104 58.9617 55.9111 60.4956 56.6548 61.6563C57.4109 62.8363 58.5452 63.827 60.1062 64.6865C63.3668 66.4818 67.8513 67.3973 73.0009 68.4376L73.0945 68.4566C77.9402 69.4355 83.4187 70.5422 87.6449 72.9618C89.8394 74.2182 91.8187 75.8891 93.2362 78.1812C94.6627 80.4877 95.4032 83.2347 95.4032 86.4487C95.4032 93.1129 90.9214 97.5612 86.2514 100.176C82.6081 102.215 78.4403 103.399 75 103.822V111C75 112.657 73.6569 114 72 114C70.3432 114 69 112.657 69 111V103.89C65.3551 103.635 61.5528 102.882 58.1661 101.11C53.5903 98.7158 50.0078 94.5782 48.5179 88.0363C48.15 86.4208 49.1614 84.8129 50.7769 84.445C52.3924 84.0771 54.0002 85.0884 54.3681 86.7039C55.4697 91.5407 57.9361 94.2181 60.9479 95.794C64.1119 97.4496 68.1054 98 72.2869 98C75.0389 98 79.562 97.0443 83.3204 94.9402C87.0813 92.8348 89.4032 90.0074 89.4032 86.4487C89.4032 84.1885 88.894 82.5671 88.1333 81.337C87.3637 80.0926 86.2186 79.0589 84.6638 78.1688C81.4185 76.3108 76.9422 75.3551 71.8127 74.3188L71.346 74.2246C66.6131 73.27 61.315 72.2014 57.2123 69.9425C55.0241 68.7376 53.0339 67.1265 51.6029 64.8934C50.1595 62.6408 49.4104 59.9502 49.4104 56.801C49.4104 51.0672 53.069 46.8002 57.3548 44.1226C60.8177 41.9592 65.0052 40.6055 69 40.1613V33C69 31.3431 70.3432 30 72 30Z" fill="white"/>
</svg>
