<svg width="144" height="144" viewBox="0 0 144 144" fill="none" xmlns="http://www.w3.org/2000/svg">
<path d="M72 36C73.6569 36 75 37.3431 75 39V84.7574L90.8787 68.8787C92.0503 67.7071 93.9497 67.7071 95.1213 68.8787C96.2929 70.0503 96.2929 71.9497 95.1213 73.1213L74.1213 94.1213C72.9497 95.2929 71.0503 95.2929 69.8787 94.1213L48.8787 73.1213C47.7071 71.9497 47.7071 70.0503 48.8787 68.8787C50.0503 67.7071 51.9497 67.7071 53.1213 68.8787L69 84.7574V39C69 37.3431 70.3431 36 72 36Z" fill="white"/>
<path d="M39 102C37.3431 102 36 103.343 36 105C36 106.657 37.3431 108 39 108H105C106.657 108 108 106.657 108 105C108 103.343 106.657 102 105 102H39Z" fill="white"/>
</svg>
