<svg width="144" height="144" viewBox="0 0 144 144" fill="none" xmlns="http://www.w3.org/2000/svg">
<path d="M82.0003 72C82.0003 77.5229 77.5232 82 72.0003 82C66.4775 82 62.0003 77.5229 62.0003 72C62.0003 66.4772 66.4775 62 72.0003 62C77.5232 62 82.0003 66.4772 82.0003 72Z" fill="white"/>
<path fill-rule="evenodd" clip-rule="evenodd" d="M72.0003 44C51.3106 44 37.9982 60.9465 33.1066 68.4719C31.6989 70.6375 31.6988 73.3625 33.1066 75.5281C37.9982 83.0535 51.3106 100 72.0003 100C92.69 100 106.002 83.0535 110.894 75.5281C112.302 73.3625 112.302 70.6375 110.894 68.4719C106.002 60.9465 92.69 44 72.0003 44ZM88.0003 72C88.0003 80.8366 80.8369 88 72.0003 88C63.1638 88 56.0003 80.8366 56.0003 72C56.0003 63.1634 63.1638 56 72.0003 56C80.8369 56 88.0003 63.1634 88.0003 72Z" fill="white"/>
</svg>
