<svg width="144" height="144" viewBox="0 0 144 144" fill="none" xmlns="http://www.w3.org/2000/svg">
<path fill-rule="evenodd" clip-rule="evenodd" d="M88.0003 72C88.0003 80.8366 80.8369 88 72.0003 88C63.1638 88 56.0003 80.8366 56.0003 72C56.0003 63.1634 63.1638 56 72.0003 56C80.8369 56 88.0003 63.1634 88.0003 72ZM82.0003 72C82.0003 77.5229 77.5232 82 72.0003 82C66.4775 82 62.0003 77.5229 62.0003 72C62.0003 66.4772 66.4775 62 72.0003 62C77.5232 62 82.0003 66.4772 82.0003 72Z" fill="white"/>
<path fill-rule="evenodd" clip-rule="evenodd" d="M33.1066 68.4719C37.9982 60.9465 51.3106 44 72.0003 44C92.69 44 106.002 60.9465 110.894 68.4719C112.302 70.6375 112.302 73.3625 110.894 75.5281C106.002 83.0535 92.69 100 72.0003 100C51.3106 100 37.9982 83.0535 33.1066 75.5281C31.6988 73.3625 31.6989 70.6375 33.1066 68.4719ZM38.1372 71.7419C42.9155 64.3909 54.6608 50 72.0003 50C89.3399 50 101.085 64.3909 105.863 71.7419C105.934 71.8506 105.95 71.9372 105.95 72C105.95 72.0628 105.934 72.1494 105.863 72.2581C101.085 79.6091 89.3399 94 72.0003 94C54.6608 94 42.9155 79.6091 38.1372 72.2581C38.0665 72.1494 38.0508 72.0628 38.0508 72C38.0508 71.9372 38.0665 71.8506 38.1372 71.7419Z" fill="white"/>
</svg>
