<svg width="144" height="144" viewBox="0 0 144 144" fill="none" xmlns="http://www.w3.org/2000/svg">
<path d="M72 82C77.5229 82 82 77.5228 82 72C82 66.4771 77.5229 62 72 62C66.4772 62 62 66.4771 62 72C62 77.5228 66.4772 82 72 82Z" fill="white"/>
<path fill-rule="evenodd" clip-rule="evenodd" d="M33.9395 96.7653C35.1151 98.8923 37.4147 100 39.845 100L104.155 100C106.585 100 108.885 98.8924 110.061 96.7656C112.431 92.4793 116 84.0337 116 72.0353V71.9647C116 59.9663 112.431 51.5207 110.061 47.2344C108.885 45.1076 106.585 44 104.155 44H39.845C37.4147 44 35.1151 45.1077 33.9395 47.2347C31.5691 51.5233 28 59.9771 28 72C28 84.0229 31.5691 92.4767 33.9395 96.7653ZM72 88C80.8366 88 88 80.8366 88 72C88 63.1634 80.8366 56 72 56C63.1634 56 56 63.1634 56 72C56 80.8366 63.1634 88 72 88ZM37 75H45C46.6569 75 48 73.6569 48 72C48 70.3431 46.6569 69 45 69H37C35.3431 69 34 70.3431 34 72C34 73.6569 35.3431 75 37 75Z" fill="white"/>
</svg>
