<svg width="144" height="144" viewBox="0 0 144 144" fill="none" xmlns="http://www.w3.org/2000/svg">
<path fill-rule="evenodd" clip-rule="evenodd" d="M72 88C80.8366 88 88 80.8366 88 72C88 63.1634 80.8366 56 72 56C63.1634 56 56 63.1634 56 72C56 80.8366 63.1634 88 72 88ZM72 82C77.5229 82 82 77.5228 82 72C82 66.4771 77.5229 62 72 62C66.4772 62 62 66.4771 62 72C62 77.5228 66.4772 82 72 82Z" fill="white"/>
<path fill-rule="evenodd" clip-rule="evenodd" d="M39.845 100C37.4147 100 35.1151 98.8923 33.9395 96.7653C31.5691 92.4767 28 84.0229 28 72C28 59.9771 31.5691 51.5233 33.9395 47.2347C35.1151 45.1077 37.4147 44 39.845 44H104.155C106.585 44 108.885 45.1076 110.061 47.2344C112.431 51.5207 116 59.9663 116 71.9647V72.0353C116 84.0337 112.431 92.4793 110.061 96.7656C108.885 98.8924 106.585 100 104.155 100L39.845 100ZM104.155 94C104.473 94 104.68 93.9259 104.772 93.877C104.795 93.8649 104.809 93.8553 104.817 93.8494C106.808 90.2455 110 82.7976 110 72.0353V71.9647C110 61.2024 106.808 53.7545 104.817 50.1506C104.809 50.1447 104.795 50.1351 104.772 50.123C104.68 50.0741 104.473 50 104.155 50L39.845 50C39.5273 50 39.3205 50.0741 39.2283 50.1229C39.2055 50.1349 39.1916 50.1439 39.1839 50.1496C37.3837 53.4101 34.5991 59.8218 34.0836 69L45 69C46.6569 69 48 70.3431 48 72C48 73.6568 46.6569 75 45 75L34.0836 75C34.5991 84.1782 37.3837 90.5899 39.1839 93.8504C39.1916 93.8561 39.2055 93.8651 39.2283 93.8771C39.3205 93.9259 39.5273 94 39.845 94L104.155 94ZM39.1757 50.1566L39.1801 50.1524L39.1757 50.1566Z" fill="white"/>
</svg>
