<svg width="144" height="144" viewBox="0 0 144 144" fill="none" xmlns="http://www.w3.org/2000/svg">
<path fill-rule="evenodd" clip-rule="evenodd" d="M38.5511 48.6112C34.2833 49.7548 31.7507 54.1414 32.8942 58.4092L35.9999 69.9999L35.9999 100.001C35.9999 104.419 39.5816 108.001 43.9999 108.001H99.9999C104.418 108.001 108 104.419 108 100.001V72.0006C108 67.5823 104.418 64.0006 99.9999 64.0006H58.3911L97.8193 53.4359C102.087 52.2923 104.62 47.9056 103.476 43.6379L102.441 39.7742C101.297 35.5065 96.9106 32.9738 92.6429 34.1174L38.5511 48.6112ZM94.1958 39.9129L91.5957 40.6096L86.4909 50.2597L96.2664 47.6403C97.3333 47.3544 97.9665 46.2578 97.6806 45.1908L96.6453 41.3271C96.3594 40.2602 95.2628 39.627 94.1958 39.9129ZM74.2091 45.2683L83.6869 42.7288L78.582 52.3788L69.1042 54.9184L74.2091 45.2683ZM66.3002 47.3875L61.1953 57.0376L51.7175 59.5771L56.8224 49.9271L66.3002 47.3875ZM48.9136 52.0463L43.8087 61.6963L40.2427 62.6518L38.6898 56.8563C38.4039 55.7893 39.037 54.6927 40.104 54.4068L48.9136 52.0463Z" fill="white"/>
</svg>
