<svg width="144" height="144" viewBox="0 0 144 144" fill="none" xmlns="http://www.w3.org/2000/svg">
<path fill-rule="evenodd" clip-rule="evenodd" d="M38.5511 48.6107C34.2833 49.7543 31.7507 54.141 32.8942 58.4087L35.9999 69.9994L35.9999 100C35.9999 104.418 39.5816 108 43.9999 108H99.9999C104.418 108 108 104.418 108 100V72.0001C108 67.5819 104.418 64.0001 99.9999 64.0001H58.3911L97.8193 53.4354C102.087 52.2918 104.62 47.9051 103.476 43.6374L102.441 39.7737C101.297 35.506 96.9106 32.9733 92.6429 34.1169L38.5511 48.6107ZM94.1958 39.9124L91.5958 40.6091L86.4909 50.2592L96.2664 47.6398C97.3333 47.3539 97.9665 46.2573 97.6806 45.1903L96.6453 41.3266C96.3594 40.2597 95.2628 39.6265 94.1958 39.9124ZM74.2091 45.2678L83.6869 42.7283L78.582 52.3783L69.1042 54.9179L74.2091 45.2678ZM66.3002 47.387L61.1953 57.0371L51.7175 59.5767L56.8224 49.9266L66.3002 47.387ZM48.9136 52.0458L43.8087 61.6958L40.2427 62.6513L38.6898 56.8558C38.4039 55.7888 39.037 54.6922 40.104 54.4063L48.9136 52.0458ZM41.9999 70.0001H99.9999C101.104 70.0001 102 70.8956 102 72.0001V100C102 101.105 101.104 102 99.9999 102H43.9999C42.8954 102 41.9999 101.105 41.9999 100V70.0001Z" fill="white"/>
</svg>
