<svg width="144" height="144" viewBox="0 0 144 144" fill="none" xmlns="http://www.w3.org/2000/svg">
<path fill-rule="evenodd" clip-rule="evenodd" d="M112 72C112 49.9086 94.0914 32 72 32C49.9086 32 32 49.9086 32 72C32 94.0914 49.9086 112 72 112C94.0914 112 112 94.0914 112 72ZM72 106C72.549 106 73.4939 105.691 74.7525 104.175C75.9962 102.678 77.2506 100.332 78.362 97.1685C80.3507 91.5082 81.7028 83.7497 81.9567 75H62.0433C62.2972 83.7497 63.6493 91.5082 65.638 97.1685C66.7494 100.332 68.0038 102.678 69.2475 104.175C70.5061 105.691 71.451 106 72 106ZM62.0433 69C62.2972 60.2503 63.6493 52.4918 65.638 46.8315C66.7494 43.6681 68.0038 41.3218 69.2475 39.8246C70.5061 38.3094 71.451 38 72 38C72.549 38 73.4939 38.3094 74.7525 39.8246C75.9962 41.3218 77.2506 43.6681 78.362 46.8315C80.3507 52.4918 81.7028 60.2503 81.9567 69H62.0433ZM87.959 75C87.7043 84.2912 86.2744 92.7489 84.0228 99.1574C83.3249 101.144 82.5302 102.985 81.6364 104.615C94.7981 100.732 104.637 89.0997 105.869 75H87.959ZM105.869 69H87.959C87.7043 59.7088 86.2744 51.2511 84.0228 44.8426C83.3249 42.8562 82.5302 41.0154 81.6364 39.3849C94.7981 43.2675 104.637 54.9003 105.869 69ZM56.041 69H38.1305C39.3632 54.9003 49.2019 43.2675 62.3636 39.3849C61.4698 41.0154 60.6751 42.8562 59.9772 44.8426C57.7256 51.2511 56.2957 59.7088 56.041 69ZM38.1305 75H56.041C56.2957 84.2912 57.7256 92.7489 59.9772 99.1574C60.6751 101.144 61.4698 102.985 62.3636 104.615C49.2019 100.732 39.3632 89.0997 38.1305 75Z" fill="white"/>
</svg>
