<svg width="144" height="144" viewBox="0 0 144 144" fill="none" xmlns="http://www.w3.org/2000/svg">
<path fill-rule="evenodd" clip-rule="evenodd" d="M72 55.7686L67.0943 48.8023C64.1885 44.6758 59.4064 42 54 42C45.1634 42 38 49.1634 38 58C38 68.0367 43.4996 77.2128 50.931 84.9547C58.2956 92.627 66.8919 98.1839 71.5335 100.892C71.8402 101.071 72.1598 101.071 72.4665 100.892C77.1081 98.1839 85.7045 92.627 93.069 84.9547C100.5 77.2128 106 68.0367 106 58C106 49.1634 98.8366 42 90 42C84.5936 42 79.8115 44.6758 76.9057 48.8023L72 55.7686ZM67.833 40.8921C64.054 37.8327 59.241 36 54 36C41.8497 36 32 45.8497 32 58C32 82.5422 58.7698 100.392 68.51 106.074C70.685 107.343 73.315 107.343 75.49 106.074C85.2302 100.392 112 82.5422 112 58C112 45.8497 102.15 36 90 36C84.759 36 79.946 37.8327 76.167 40.8921C74.581 42.1761 73.177 43.6763 72 45.3477C70.823 43.6763 69.419 42.1761 67.833 40.8921Z" fill="white"/>
</svg>
