<svg width="144" height="144" viewBox="0 0 144 144" fill="none" xmlns="http://www.w3.org/2000/svg">
<path d="M48 53C48 51.3431 49.3431 50 51 50H69C70.6569 50 72 51.3431 72 53C72 54.6569 70.6569 56 69 56H51C49.3431 56 48 54.6569 48 53Z" fill="white"/>
<path fill-rule="evenodd" clip-rule="evenodd" d="M36 44C36 39.5817 39.5817 36 44 36H100C104.418 36 108 39.5817 108 44V60C108 64.4183 104.418 68 100 68H44C39.5817 68 36 64.4183 36 60V44ZM44 42H100C101.105 42 102 42.8954 102 44V60C102 61.1046 101.105 62 100 62H44C42.8954 62 42 61.1046 42 60V44C42 42.8954 42.8954 42 44 42Z" fill="white"/>
<path d="M87 90C85.3431 90 84 91.3431 84 93C84 94.6569 85.3431 96 87 96H93C94.6569 96 96 94.6569 96 93C96 91.3431 94.6569 90 93 90H87Z" fill="white"/>
<path fill-rule="evenodd" clip-rule="evenodd" d="M72 84C72 79.5817 75.5817 76 80 76H100C104.418 76 108 79.5817 108 84V100C108 104.418 104.418 108 100 108H80C75.5817 108 72 104.418 72 100V84ZM80 82H100C101.105 82 102 82.8954 102 84V100C102 101.105 101.105 102 100 102H80C78.8954 102 78 101.105 78 100V84C78 82.8954 78.8954 82 80 82Z" fill="white"/>
<path d="M39 88C37.3431 88 36 89.3431 36 91C36 92.6569 37.3431 94 39 94H47V102C47 103.657 48.3431 105 50 105C51.6569 105 53 103.657 53 102V94H61C62.6569 94 64 92.6569 64 91C64 89.3431 62.6569 88 61 88H53V80C53 78.3431 51.6569 77 50 77C48.3431 77 47 78.3431 47 80V88H39Z" fill="white"/>
</svg>
