<svg width="144" height="144" viewBox="0 0 144 144" fill="none" xmlns="http://www.w3.org/2000/svg">
<path fill-rule="evenodd" clip-rule="evenodd" d="M92.0001 61.9999C92.0001 56.477 87.523 51.9999 82.0001 51.9999C76.4773 51.9999 72.0001 56.477 72.0001 61.9999C72.0001 67.5227 76.4773 71.9999 82.0001 71.9999C87.523 71.9999 92.0001 67.5227 92.0001 61.9999ZM86.0001 61.9999C86.0001 59.7907 84.2093 57.9999 82.0001 57.9999C79.791 57.9999 78.0001 59.7907 78.0001 61.9999C78.0001 64.209 79.791 65.9999 82.0001 65.9999C84.2093 65.9999 86.0001 64.209 86.0001 61.9999Z" fill="white"/>
<path fill-rule="evenodd" clip-rule="evenodd" d="M56.0001 62C56.0001 47.6406 67.6407 36 82.0001 36C96.3595 36 108 47.6406 108 62C108 76.3594 96.3595 88 82.0001 88C79.3517 88 76.7916 87.6031 74.3784 86.8642L70.1212 91.1214C69.5586 91.684 68.7955 92 67.9998 92L62.9999 91.9999V96.9999C62.9999 97.7956 62.6838 98.5586 62.1212 99.1213C61.5586 99.6839 60.7955 99.9999 59.9998 99.9999L54.9999 99.9998L55 105C55 105.795 54.684 106.558 54.1213 107.121C53.5587 107.684 52.7957 108 52 108L44 108C39.5817 108 36 104.418 36 99.9997L36 94.0708C36 91.949 36.8429 89.9142 38.3432 88.4139L57.1358 69.6214C56.3969 67.2083 56.0001 64.6482 56.0001 62ZM82.0001 42C70.9544 42 62.0001 50.9543 62.0001 62C62.0001 64.5874 62.4899 67.0533 63.3791 69.3149C63.8159 70.4258 63.5526 71.6899 62.7085 72.534L42.5858 92.6565C42.2107 93.0316 42 93.5403 42 94.0708L42 99.9997C42 101.104 42.8954 102 44 102L49 102L48.9999 96.9999C48.9999 96.2042 49.3159 95.4411 49.8786 94.8785C50.4412 94.3159 51.2043 93.9998 51.9999 93.9998L56.9999 93.9999L56.9999 88.9998C56.9999 88.2041 57.316 87.4411 57.8786 86.8785C58.4412 86.3158 59.2043 85.9998 60 85.9998L66.7573 86L71.4659 81.2914C72.31 80.4474 73.5741 80.1841 74.685 80.6209C76.9467 81.5101 79.4126 82 82.0001 82C93.0458 82 102 73.0457 102 62C102 50.9543 93.0458 42 82.0001 42Z" fill="white"/>
</svg>
