<svg width="144" height="144" viewBox="0 0 144 144" fill="none" xmlns="http://www.w3.org/2000/svg">
<path fill-rule="evenodd" clip-rule="evenodd" d="M36 48C36 43.5817 39.5817 40 44 40H100C104.418 40 108 43.5817 108 48V84C108 88.4183 104.418 92 100 92H44C39.5817 92 36 88.4183 36 84V48ZM44 46H100C101.105 46 102 46.8954 102 48V84C102 85.1046 101.105 86 100 86H44C42.8954 86 42 85.1046 42 84V48C42 46.8954 42.8954 46 44 46Z" fill="white"/>
<path d="M35 98C33.3431 98 32 99.3431 32 101C32 102.657 33.3431 104 35 104H109C110.657 104 112 102.657 112 101C112 99.3431 110.657 98 109 98H35Z" fill="white"/>
</svg>
