<svg width="144" height="144" viewBox="0 0 144 144" fill="none" xmlns="http://www.w3.org/2000/svg">
<path d="M75 87.1973C76.7934 86.1599 78 84.2208 78 82C78 78.6863 75.3137 76 72 76C68.6863 76 66 78.6863 66 82C66 84.2208 67.2066 86.1599 69 87.1973V93C69 94.6569 70.3431 96 72 96C73.6569 96 75 94.6569 75 93V87.1973Z" fill="white"/>
<path fill-rule="evenodd" clip-rule="evenodd" d="M72 29C61.5066 29 53 37.5066 53 48V60H48C43.5817 60 40 63.5817 40 68V104C40 108.418 43.5817 112 48 112H96C100.418 112 104 108.418 104 104V68C104 63.5817 100.418 60 96 60H91V48C91 37.5066 82.4934 29 72 29ZM85 60V48C85 40.8203 79.1797 35 72 35C64.8203 35 59 40.8203 59 48V60H85ZM46 68C46 66.8954 46.8954 66 48 66H96C97.1046 66 98 66.8954 98 68V104C98 105.105 97.1046 106 96 106H48C46.8954 106 46 105.105 46 104V68Z" fill="white"/>
</svg>
