<svg width="144" height="144" viewBox="0 0 144 144" fill="none" xmlns="http://www.w3.org/2000/svg">
<path d="M49.1213 52.8787C47.9497 51.7071 46.0503 51.7071 44.8787 52.8787C43.7071 54.0503 43.7071 55.9497 44.8787 57.1213L69.8787 82.1213C71.0503 83.2929 72.9497 83.2929 74.1213 82.1213L99.1213 57.1213C100.293 55.9497 100.293 54.0503 99.1213 52.8787C97.9498 51.7071 96.0502 51.7071 94.8787 52.8787L72 75.7574L49.1213 52.8787Z" fill="white"/>
<path fill-rule="evenodd" clip-rule="evenodd" d="M32 48C32 43.5817 35.5817 40 40 40H104C108.418 40 112 43.5817 112 48V96C112 100.418 108.418 104 104 104H40C35.5817 104 32 100.418 32 96V48ZM40 46H104C105.105 46 106 46.8954 106 48V96C106 97.1046 105.105 98 104 98H40C38.8954 98 38 97.1046 38 96V48C38 46.8954 38.8954 46 40 46Z" fill="white"/>
</svg>
