<svg width="144" height="144" viewBox="0 0 144 144" fill="none" xmlns="http://www.w3.org/2000/svg">
<path d="M32.8787 111.121C31.7071 109.95 31.7071 108.05 32.8787 106.879L106.879 32.8787C108.05 31.7071 109.95 31.7071 111.121 32.8787C112.293 34.0503 112.293 35.9497 111.121 37.1213L84 64.2426V72C84 78.6274 78.6274 84 72 84C69.7746 84 67.6906 83.3942 65.9041 82.3385L61.5714 86.6713C64.5976 88.8224 68.2381 90 72 90C76.7739 90 81.3523 88.1036 84.7279 84.7279C88.1036 81.3523 90 76.7739 90 72C90 70.3431 91.3431 69 93 69C94.6569 69 96 70.3432 96 72C96 78.3652 93.4714 84.4697 88.9706 88.9706C85.1827 92.7584 80.259 95.1494 75 95.8119V106H81C82.6569 106 84 107.343 84 109C84 110.657 82.6569 112 81 112H63C61.3431 112 60 110.657 60 109C60 107.343 61.3431 106 63 106H69V95.8119C64.7309 95.2741 60.6828 93.5973 57.2838 90.9588L37.1213 111.121C35.9497 112.293 34.0503 112.293 32.8787 111.121Z" fill="white"/>
<path d="M49.9074 81.3763L54.6158 76.668C54.2104 75.1585 54 73.5901 54 72C54 70.3431 52.6569 69 51 69C49.3431 69 48 70.3431 48 72C48 75.2533 48.6605 78.4385 49.9074 81.3763Z" fill="white"/>
<path d="M60 44V71.2837L84 47.2837V44C84 37.3726 78.6274 32 72 32C65.3726 32 60 37.3726 60 44Z" fill="white"/>
</svg>
