<svg width="144" height="144" viewBox="0 0 144 144" fill="none" xmlns="http://www.w3.org/2000/svg">
<path d="M53.0462 86.7228C53.6566 87.5085 54.3184 88.2595 55.0294 88.9706C58.8173 92.7584 63.741 95.1494 69 95.8119V106H63C61.3431 106 60 107.343 60 109C60 110.657 61.3431 112 63 112H81C82.6569 112 84 110.657 84 109C84 107.343 82.6569 106 81 106H75V95.8119C80.259 95.1494 85.1827 92.7584 88.9706 88.9706C93.4714 84.4697 96 78.3652 96 72C96 70.3432 94.6569 69 93 69C91.3431 69 90 70.3431 90 72C90 76.7739 88.1036 81.3523 84.7279 84.7279C81.3523 88.1036 76.7739 90 72 90C67.2261 90 62.6477 88.1036 59.2721 84.7279C58.5585 84.0143 57.911 83.247 57.3336 82.4354L53.0462 86.7228Z" fill="white"/>
<path d="M54.6158 76.668L49.9074 81.3763C48.6605 78.4385 48 75.2533 48 72C48 70.3431 49.3431 69 51 69C52.6569 69 54 70.3431 54 72C54 73.5901 54.2104 75.1585 54.6158 76.668Z" fill="white"/>
<path d="M61.6658 78.1032C63.7549 81.633 67.601 84 72 84C78.6274 84 84 78.6274 84 72V55.769L61.6658 78.1032Z" fill="white"/>
<path d="M84 47.2837L60 71.2837V44C60 37.3726 65.3726 32 72 32C78.6274 32 84 37.3726 84 44V47.2837Z" fill="white"/>
<path d="M32.8787 106.879C31.7071 108.05 31.7071 109.95 32.8787 111.121C34.0503 112.293 35.9497 112.293 37.1213 111.121L111.121 37.1213C112.293 35.9497 112.293 34.0503 111.121 32.8787C109.95 31.7071 108.05 31.7071 106.879 32.8787L32.8787 106.879Z" fill="#FF7073"/>
</svg>
