<svg width="144" height="144" viewBox="0 0 144 144" fill="none" xmlns="http://www.w3.org/2000/svg">
<path d="M72 32C65.3726 32 60 37.3726 60 44V72C60 78.6274 65.3726 84 72 84C78.6274 84 84 78.6274 84 72V44C84 37.3726 78.6274 32 72 32Z" fill="white"/>
<path d="M54 72C54 70.3431 52.6569 69 51 69C49.3431 69 48 70.3431 48 72C48 78.3652 50.5286 84.4697 55.0294 88.9706C58.8173 92.7584 63.741 95.1494 69 95.8119V106H63C61.3431 106 60 107.343 60 109C60 110.657 61.3431 112 63 112H81C82.6569 112 84 110.657 84 109C84 107.343 82.6569 106 81 106H75V95.8119C80.259 95.1494 85.1827 92.7584 88.9706 88.9706C93.4714 84.4697 96 78.3652 96 72C96 70.3432 94.6569 69 93 69C91.3431 69 90 70.3431 90 72C90 76.7739 88.1036 81.3523 84.7279 84.7279C81.3523 88.1036 76.7739 90 72 90C67.2261 90 62.6477 88.1036 59.2721 84.7279C55.8964 81.3523 54 76.7739 54 72Z" fill="white"/>
</svg>
