<svg width="144" height="144" viewBox="0 0 144 144" fill="none" xmlns="http://www.w3.org/2000/svg">
<path fill-rule="evenodd" clip-rule="evenodd" d="M53.4347 68.279L64.0802 64.0805L68.2788 53.4349C69.6105 50.0584 74.3892 50.0584 75.7209 53.4349L79.9194 64.0805L90.565 68.279C93.9415 69.6107 93.9415 74.3894 90.565 75.7211L79.9194 79.9197L75.7209 90.5652C74.3892 93.9418 69.6105 93.9418 68.2788 90.5652L64.0802 79.9197L53.4347 75.7211C50.0581 74.3894 50.0581 69.6107 53.4347 68.279ZM75.2939 68.706L83.6462 72.0001L75.2939 75.2942L71.9998 83.6464L68.7057 75.2942L60.3535 72.0001L68.7057 68.706L71.9998 60.3537L75.2939 68.706Z" fill="white"/>
<path fill-rule="evenodd" clip-rule="evenodd" d="M66.3593 34.3268C69.4798 31.2244 74.5199 31.2244 77.6403 34.3268L82.3672 39.0265C83.8605 40.5112 85.8789 41.3472 87.9846 41.3533L94.6502 41.3726C99.0505 41.3853 102.614 44.9492 102.627 49.3494L102.646 56.015C102.652 58.1208 103.488 60.1392 104.973 61.6324L109.673 66.3593C112.775 69.4798 112.775 74.5199 109.673 77.6403L104.973 82.3672C103.488 83.8605 102.652 85.8789 102.646 87.9846L102.627 94.6502C102.614 99.0505 99.0505 102.614 94.6502 102.627L87.9846 102.646C85.8789 102.652 83.8605 103.488 82.3672 104.973L77.6403 109.673C74.5199 112.775 69.4797 112.775 66.3593 109.673L61.6324 104.973C60.1392 103.488 58.1208 102.652 56.015 102.646L49.3494 102.627C44.9492 102.614 41.3853 99.0505 41.3726 94.6502L41.3533 87.9846C41.3472 85.8789 40.5112 83.8605 39.0265 82.3672L34.3268 77.6403C31.2244 74.5199 31.2244 69.4797 34.3268 66.3593L39.0265 61.6324C40.5112 60.1392 41.3472 58.1208 41.3533 56.015L41.3726 49.3494C41.3853 44.9492 44.9492 41.3853 49.3494 41.3726L56.015 41.3533C58.1208 41.3472 60.1392 40.5112 61.6324 39.0265L66.3593 34.3268ZM73.41 38.5817L78.1369 43.2814C80.7501 45.8796 84.2823 47.3427 87.9673 47.3533L94.6329 47.3725C95.733 47.3757 96.6239 48.2667 96.6271 49.3668L96.6464 56.0324C96.657 59.7174 98.1201 63.2496 100.718 65.8628L105.418 70.5897C106.194 71.3698 106.194 72.6298 105.418 73.41L100.718 78.1369C98.1201 80.7501 96.657 84.2823 96.6464 87.9673L96.6271 94.6329C96.6239 95.733 95.733 96.6239 94.6329 96.6271L87.9673 96.6464C84.2823 96.657 80.7501 98.1201 78.1369 100.718L73.41 105.418C72.6298 106.194 71.3698 106.194 70.5897 105.418L65.8628 100.718C63.2496 98.1201 59.7174 96.657 56.0324 96.6464L49.3668 96.6271C48.2667 96.6239 47.3757 95.733 47.3725 94.6329L47.3533 87.9673C47.3427 84.2823 45.8796 80.7501 43.2814 78.1369L38.5817 73.41C37.8061 72.6298 37.8061 71.3698 38.5817 70.5897L43.2814 65.8628C45.8796 63.2496 47.3427 59.7174 47.3533 56.0324L47.3725 49.3668C47.3757 48.2667 48.2667 47.3757 49.3668 47.3725L56.0324 47.3533C59.7174 47.3427 63.2496 45.8796 65.8628 43.2814L70.5897 38.5817C71.3698 37.8061 72.6298 37.8061 73.41 38.5817Z" fill="white"/>
</svg>
