<svg width="144" height="144" viewBox="0 0 144 144" fill="none" xmlns="http://www.w3.org/2000/svg">
<path fill-rule="evenodd" clip-rule="evenodd" d="M48.252 36C49.1401 32.5495 52.2723 30 56 30H68C71.7277 30 74.8599 32.5495 75.748 36H81C84.866 36 88 39.134 88 43C88 46.866 88 50 88 50H64C56.268 50 50 56.268 50 64C50 72 50 80 50 88C50 88 45.0918 88 43 88C39.134 88 36 84.866 36 81V44C36 39.5817 39.5817 36 44 36H48.252ZM56 36H68C69.1046 36 70 36.8954 70 38V40C70 41.1046 69.1046 42 68 42H56C54.8954 42 54 41.1046 54 40V38C54 36.8954 54.8954 36 56 36Z" fill="white"/>
<path d="M56 64C56 59.5817 59.5817 56 64 56H100C104.418 56 108 59.5817 108 64V100C108 104.418 104.418 108 100 108H64C59.5817 108 56 104.418 56 100V64Z" fill="white"/>
</svg>
