<svg width="144" height="144" viewBox="0 0 144 144" fill="none" xmlns="http://www.w3.org/2000/svg">
<path fill-rule="evenodd" clip-rule="evenodd" d="M68.8787 32.8787C70.0503 31.7071 71.9497 31.7071 73.1213 32.8787L111.121 70.8787C112.293 72.0503 112.293 73.9497 111.121 75.1213C109.95 76.2929 108.05 76.2929 106.879 75.1213L102 70.2426L74.2426 98L79.1213 102.879C80.2929 104.05 80.2929 105.95 79.1213 107.121C77.9497 108.293 76.0503 108.293 74.8787 107.121L58 90.2426L41.1213 107.121C39.9497 108.293 38.0503 108.293 36.8787 107.121C35.7071 105.95 35.7071 104.05 36.8787 102.879L53.7574 86L36.8787 69.1213C35.7071 67.9497 35.7071 66.0503 36.8787 64.8787C38.0503 63.7071 39.9497 63.7071 41.1213 64.8787L46 69.7574L73.7574 42L68.8787 37.1213C67.7071 35.9497 67.7071 34.0503 68.8787 32.8787Z" fill="white"/>
</svg>
