<svg width="144" height="144" viewBox="0 0 144 144" fill="none" xmlns="http://www.w3.org/2000/svg">
<path d="M75 35C75 33.3431 73.6569 32 72 32C70.3432 32 69 33.3431 69 35V72C69 73.6569 70.3432 75 72 75C73.6569 75 75 73.6569 75 72V35Z" fill="white"/>
<path d="M97.4559 46.5442C96.2843 45.3726 94.3848 45.3726 93.2132 46.5442C92.0416 47.7157 92.0416 49.6152 93.2132 50.7868C97.4088 54.9824 100.266 60.3279 101.424 66.1473C102.581 71.9667 101.987 77.9987 99.7164 83.4805C97.4458 88.9623 93.6006 93.6476 88.6671 96.9441C83.7337 100.241 77.9335 102 72 102C66.0666 102 60.2664 100.241 55.3329 96.9441C50.3994 93.6476 46.5543 88.9623 44.2836 83.4805C42.013 77.9987 41.4189 71.9667 42.5765 66.1473C43.734 60.3279 46.5912 54.9824 50.7868 50.7868C51.9584 49.6152 51.9584 47.7157 50.7868 46.5442C49.6152 45.3726 47.7157 45.3726 46.5442 46.5442C41.5095 51.5788 38.0808 57.9934 36.6917 64.9768C35.3027 71.9601 36.0156 79.1985 38.7404 85.7766C41.4651 92.3547 46.0793 97.9772 51.9995 101.933C57.9197 105.889 64.8799 108 72 108C79.1201 108 86.0804 105.889 92.0005 101.933C97.9207 97.9772 102.535 92.3547 105.26 85.7766C107.984 79.1985 108.697 71.9601 107.308 64.9767C105.919 57.9934 102.491 51.5788 97.4559 46.5442Z" fill="white"/>
</svg>
