<svg width="144" height="144" viewBox="0 0 144 144" fill="none" xmlns="http://www.w3.org/2000/svg">
<path fill-rule="evenodd" clip-rule="evenodd" d="M32.8787 111.121C31.7071 109.95 31.7071 108.05 32.8787 106.879L106.879 32.8787C108.05 31.7071 109.95 31.7071 111.121 32.8787C112.293 34.0503 112.293 35.9497 111.121 37.1213L99.4886 48.754C103.417 53.3992 106.115 58.9781 107.308 64.9767C108.697 71.9601 107.984 79.1985 105.26 85.7766C102.535 92.3547 97.9207 97.9772 92.0005 101.933C86.0804 105.889 79.1201 108 72 108C64.8799 108 57.9197 105.889 51.9995 101.933C50.8687 101.177 49.7855 100.361 48.754 99.4886L37.1213 111.121C35.9497 112.293 34.0503 112.293 32.8787 111.121ZM53.0144 95.2282C53.7571 95.8352 54.5306 96.408 55.3329 96.9441C60.2664 100.241 66.0666 102 72 102C77.9335 102 83.7337 100.241 88.6671 96.9441C93.6006 93.6476 97.4458 88.9623 99.7164 83.4805C101.987 77.9987 102.581 71.9667 101.424 66.1473C100.462 61.3136 98.3279 56.8068 95.2282 53.0144L53.0144 95.2282Z" fill="white"/>
<path d="M40.9928 90.2909L45.4039 85.8798C44.9965 85.0991 44.6225 84.2987 44.2836 83.4805C42.013 77.9987 41.4189 71.9667 42.5765 66.1473C43.734 60.3279 46.5912 54.9824 50.7868 50.7868C51.9584 49.6152 51.9584 47.7157 50.7868 46.5442C49.6152 45.3726 47.7157 45.3726 46.5442 46.5442C41.5095 51.5788 38.0808 57.9934 36.6917 64.9768C35.3027 71.9601 36.0156 79.1985 38.7404 85.7766C39.3873 87.3384 40.1407 88.8463 40.9928 90.2909Z" fill="white"/>
<path d="M69 35V62.2837L75 56.2837V35C75 33.3431 73.6569 32 72 32C70.3432 32 69 33.3431 69 35Z" fill="white"/>
</svg>
