<svg width="144" height="144" viewBox="0 0 144 144" fill="none" xmlns="http://www.w3.org/2000/svg">
<path fill-rule="evenodd" clip-rule="evenodd" d="M48 56C48 51.5817 51.5817 48 56 48H88C92.4183 48 96 51.5817 96 56V88C96 92.4183 92.4183 96 88 96H56C51.5817 96 48 92.4183 48 88V56ZM56 54H62V62H54V56C54 54.8954 54.8954 54 56 54ZM54 68V76H62V68H54ZM68 68V76H76V68L68 68ZM82 68V76H90V68H82ZM90 62H82V54H88C89.1046 54 90 54.8954 90 56V62ZM76 62L68 62V54H76V62ZM54 82H62V90H56C54.8954 90 54 89.1046 54 88V82ZM76 82H68V90H76V82ZM82 90V82H90V88C90 89.1046 89.1046 90 88 90H82Z" fill="white"/>
<path fill-rule="evenodd" clip-rule="evenodd" d="M36 44C36 39.5817 39.5817 36 44 36H100C104.418 36 108 39.5817 108 44V100C108 104.418 104.418 108 100 108H44C39.5817 108 36 104.418 36 100V44ZM44 42H100C101.105 42 102 42.8954 102 44V100C102 101.105 101.105 102 100 102H44C42.8954 102 42 101.105 42 100V44C42 42.8954 42.8954 42 44 42Z" fill="white"/>
</svg>
