<svg width="144" height="144" viewBox="0 0 144 144" fill="none" xmlns="http://www.w3.org/2000/svg">
<path d="M51 48C49.3431 48 48 49.3431 48 51C48 52.6569 49.3431 54 51 54C56.1216 54 61.193 55.0088 65.9247 56.9687C70.6563 58.9286 74.9557 61.8013 78.5772 65.4228C82.1986 69.0443 85.0714 73.3436 87.0313 78.0753C88.9912 82.807 90 87.8784 90 93C90 94.6569 91.3431 96 93 96C94.6569 96 96 94.6569 96 93C96 87.0905 94.836 81.2389 92.5746 75.7792C90.3131 70.3196 86.9984 65.3588 82.8198 61.1802C78.6412 57.0016 73.6804 53.6869 68.2208 51.4254C62.7611 49.164 56.9095 48 51 48Z" fill="white"/>
<path d="M51 66C49.3431 66 48 67.3431 48 69C48 70.6569 49.3431 72 51 72C53.7578 72 56.4885 72.5432 59.0364 73.5985C61.5842 74.6539 63.8992 76.2007 65.8492 78.1508C67.7993 80.1008 69.3461 82.4158 70.4015 84.9636C71.4568 87.5115 72 90.2422 72 93C72 94.6569 73.3431 96 75 96C76.6569 96 78 94.6569 78 93C78 89.4543 77.3016 85.9433 75.9447 82.6675C74.5879 79.3918 72.5991 76.4153 70.0919 73.9081C67.5847 71.4009 64.6082 69.4121 61.3325 68.0553C58.0567 66.6984 54.5457 66 51 66Z" fill="white"/>
<path d="M60 90C60 93.3137 57.3137 96 54 96C50.6863 96 48 93.3137 48 90C48 86.6863 50.6863 84 54 84C57.3137 84 60 86.6863 60 90Z" fill="white"/>
<path fill-rule="evenodd" clip-rule="evenodd" d="M36 44C36 39.5817 39.5817 36 44 36H100C104.418 36 108 39.5817 108 44V100C108 104.418 104.418 108 100 108H44C39.5817 108 36 104.418 36 100V44ZM44 42H100C101.105 42 102 42.8954 102 44V100C102 101.105 101.105 102 100 102H44C42.8954 102 42 101.105 42 100V44C42 42.8954 42.8954 42 44 42Z" fill="white"/>
</svg>
