<svg width="144" height="144" viewBox="0 0 144 144" fill="none" xmlns="http://www.w3.org/2000/svg">
<path fill-rule="evenodd" clip-rule="evenodd" d="M88 71.9995C88 80.8361 80.8366 87.9995 72 87.9995C63.1635 87.9995 56 80.8361 56 71.9995C56 63.163 63.1635 55.9995 72 55.9995C80.8366 55.9995 88 63.163 88 71.9995ZM82 71.9995C82 77.5224 77.5229 81.9995 72 81.9995C66.4772 81.9995 62 77.5224 62 71.9995C62 66.4767 66.4772 61.9995 72 61.9995C77.5229 61.9995 82 66.4767 82 71.9995Z" fill="white"/>
<path fill-rule="evenodd" clip-rule="evenodd" d="M64.4619 37.3283C66.9842 30.2356 77.0148 30.2356 79.5371 37.3283L79.7201 37.843C81.3085 42.3096 86.4107 44.423 90.6922 42.3878L91.1855 42.1533C97.9843 38.9215 105.077 46.0142 101.845 52.813L101.611 53.3064C99.5756 57.5879 101.689 62.69 106.156 64.2784L106.67 64.4614C113.763 66.9837 113.763 77.0143 106.67 79.5366L106.156 79.7196C101.689 81.308 99.5756 86.4102 101.611 90.6917L101.845 91.185C105.077 97.9839 97.9843 105.077 91.1855 101.845L90.6922 101.61C86.4107 99.5751 81.3085 101.688 79.7201 106.155L79.5371 106.67C77.0148 113.762 66.9842 113.762 64.4619 106.67L64.2789 106.155C62.6905 101.688 57.5884 99.5751 53.3068 101.61L52.8135 101.845C46.0147 105.077 38.922 97.9839 42.1538 91.185L42.3883 90.6917C44.4235 86.4102 42.3101 81.308 37.8435 79.7196L37.3288 79.5366C30.2361 77.0143 30.2361 66.9837 37.3288 64.4614L37.8435 64.2784C42.3101 62.69 44.4235 57.5879 42.3883 53.3064L42.1538 52.813C38.922 46.0142 46.0147 38.9215 52.8135 42.1533L53.3068 42.3878C57.5884 44.423 62.6905 42.3096 64.2789 37.843L64.4619 37.3283ZM73.8839 39.3387L74.0669 39.8533C76.8466 47.6699 85.7754 51.3683 93.2681 47.8067L93.7614 47.5722C95.4611 46.7643 97.2343 48.5374 96.4263 50.2371L96.1918 50.7305C92.6302 58.2231 96.3287 67.1519 104.145 69.9316L104.66 70.1146C106.433 70.7452 106.433 73.2529 104.66 73.8834L104.145 74.0664C96.3287 76.8461 92.6302 85.7749 96.1918 93.2676L96.4263 93.7609C97.2343 95.4606 95.4611 97.2338 93.7614 96.4258L93.2681 96.1913C85.7754 92.6297 76.8466 96.3282 74.0669 104.145L73.8839 104.659C73.2533 106.433 70.7457 106.433 70.1151 104.659L69.9321 104.145C67.1524 96.3282 58.2236 92.6297 50.731 96.1913L50.2376 96.4258C48.5379 97.2338 46.7647 95.4606 47.5727 93.7609L47.8072 93.2676C51.3688 85.7749 47.6704 76.8461 39.8538 74.0664L39.3392 73.8834C37.566 73.2529 37.566 70.7452 39.3392 70.1146L39.8538 69.9316C47.6704 67.1519 51.3688 58.2231 47.8072 50.7305L47.5727 50.2371C46.7647 48.5374 48.5379 46.7643 50.2376 47.5722L50.731 47.8067C58.2236 51.3683 67.1524 47.6699 69.9321 39.8533L70.1151 39.3387C70.7457 37.5655 73.2533 37.5655 73.8839 39.3387Z" fill="white"/>
</svg>
