<svg width="144" height="144" viewBox="0 0 144 144" fill="none" xmlns="http://www.w3.org/2000/svg">
<path d="M55.996 51C53.7891 51 52 52.7931 52 55C52 57.2069 53.7891 59 55.996 59C58.2029 59 59.992 57.2069 59.992 55C59.992 52.7931 58.2029 51 55.996 51Z" fill="white"/>
<path d="M69 52C67.3431 52 66 53.3431 66 55C66 56.6569 67.3431 58 69 58H89C90.6569 58 92 56.6569 92 55C92 53.3431 90.6569 52 89 52H69Z" fill="white"/>
<path d="M55.996 67C53.7891 67 52 68.7931 52 71C52 73.2069 53.7891 75 55.996 75C58.2029 75 59.992 73.2069 59.992 71C59.992 68.7931 58.2029 67 55.996 67Z" fill="white"/>
<path d="M69 68C67.3431 68 66 69.3431 66 71C66 72.6569 67.3431 74 69 74H89C90.6569 74 92 72.6569 92 71C92 69.3431 90.6569 68 89 68H69Z" fill="white"/>
<path d="M55.996 83C53.7891 83 52 84.7931 52 87C52 89.2069 53.7891 91 55.996 91C58.2029 91 59.992 89.2069 59.992 87C59.992 84.7931 58.2029 83 55.996 83Z" fill="white"/>
<path d="M69 84C67.3431 84 66 85.3431 66 87C66 88.6569 67.3431 90 69 90H89C90.6569 90 92 88.6569 92 87C92 85.3431 90.6569 84 89 84H69Z" fill="white"/>
<path fill-rule="evenodd" clip-rule="evenodd" d="M36 44C36 39.5817 39.5817 36 44 36H100C104.418 36 108 39.5817 108 44V100C108 104.418 104.418 108 100 108H44C39.5817 108 36 104.418 36 100V44ZM44 42H100C101.105 42 102 42.8954 102 44V100C102 101.105 101.105 102 100 102H44C42.8954 102 42 101.105 42 100V44C42 42.8954 42.8954 42 44 42Z" fill="white"/>
</svg>
