<svg width="144" height="144" viewBox="0 0 144 144" fill="none" xmlns="http://www.w3.org/2000/svg">
<path fill-rule="evenodd" clip-rule="evenodd" d="M40.1149 49.7146L68.115 34.1591C70.5311 32.8168 73.4691 32.8168 75.8852 34.1591L103.885 49.7146C106.425 51.1256 108.034 53.8159 107.859 56.716C105.876 89.5277 83.4972 105.493 75.1308 110.346C73.1728 111.481 70.8274 111.481 68.8694 110.346C60.503 105.493 38.1242 89.5277 36.1409 56.716C35.9657 53.8159 37.5752 51.1256 40.1149 49.7146ZM43.0288 54.9596L71.0288 39.404C71.6329 39.0684 72.3673 39.0684 72.9714 39.404L100.971 54.9596C101.669 55.3471 101.894 55.9539 101.87 56.354C100.065 86.2169 79.7642 100.722 72.1203 105.156C72.0494 105.197 72.0112 105.198 72.0001 105.198C71.989 105.198 71.9507 105.197 71.8799 105.156C64.236 100.722 43.935 86.2169 42.13 56.354C42.1058 55.9539 42.3312 55.3471 43.0288 54.9596Z" fill="white"/>
</svg>
