<svg width="144" height="144" viewBox="0 0 144 144" fill="none" xmlns="http://www.w3.org/2000/svg">
<path fill-rule="evenodd" clip-rule="evenodd" d="M44 36C39.5817 36 36 39.5817 36 44V100C36 104.418 39.5817 108 44 108H100C104.418 108 108 104.418 108 100V44C108 39.5817 104.418 36 100 36H44ZM52 56C54.2091 56 56 54.2091 56 52C56 49.7909 54.2091 48 52 48C49.7909 48 48 49.7909 48 52C48 54.2091 49.7909 56 52 56ZM56 64C56 66.2091 54.2091 68 52 68C49.7909 68 48 66.2091 48 64C48 61.7909 49.7909 60 52 60C54.2091 60 56 61.7909 56 64ZM52 96C54.2091 96 56 94.2091 56 92C56 89.7909 54.2091 88 52 88C49.7909 88 48 89.7909 48 92C48 94.2091 49.7909 96 52 96ZM69.333 52C69.333 54.2091 67.5421 56 65.333 56C63.1239 56 61.333 54.2091 61.333 52C61.333 49.7909 63.1239 48 65.333 48C67.5421 48 69.333 49.7909 69.333 52ZM65.333 68C67.5421 68 69.333 66.2091 69.333 64C69.333 61.7909 67.5421 60 65.333 60C63.1239 60 61.333 61.7909 61.333 64C61.333 66.2091 63.1239 68 65.333 68ZM69.333 92C69.333 94.2091 67.5421 96 65.333 96C63.1239 96 61.333 94.2091 61.333 92C61.333 89.7909 63.1239 88 65.333 88C67.5421 88 69.333 89.7909 69.333 92ZM78.666 56C80.8752 56 82.666 54.2091 82.666 52C82.666 49.7909 80.8752 48 78.666 48C76.4569 48 74.666 49.7909 74.666 52C74.666 54.2091 76.4569 56 78.666 56ZM82.666 64C82.666 66.2091 80.8752 68 78.666 68C76.4569 68 74.666 66.2091 74.666 64C74.666 61.7909 76.4569 60 78.666 60C80.8752 60 82.666 61.7909 82.666 64ZM78.666 96C80.8752 96 82.666 94.2091 82.666 92C82.666 89.7909 80.8752 88 78.666 88C76.4569 88 74.666 89.7909 74.666 92C74.666 94.2091 76.4569 96 78.666 96ZM96 52C96 54.2091 94.2091 56 92 56C89.7909 56 88 54.2091 88 52C88 49.7909 89.7909 48 92 48C94.2091 48 96 49.7909 96 52ZM92 68C94.2091 68 96 66.2091 96 64C96 61.7909 94.2091 60 92 60C89.7909 60 88 61.7909 88 64C88 66.2091 89.7909 68 92 68ZM96 92C96 94.2091 94.2091 96 92 96C89.7909 96 88 94.2091 88 92C88 89.7909 89.7909 88 92 88C94.2091 88 96 89.7909 96 92ZM51 75C49.3431 75 48 76.3431 48 78C48 79.6569 49.3431 81 51 81L93 81C94.6569 81 96 79.6569 96 78C96 76.3432 94.6569 75 93 75L51 75Z" fill="white"/>
</svg>
