<svg width="144" height="144" viewBox="0 0 144 144" fill="none" xmlns="http://www.w3.org/2000/svg">
<path d="M59 63C59 65.7614 56.7614 68 54 68C51.2386 68 49 65.7614 49 63C49 60.2386 51.2386 58 54 58C56.7614 58 59 60.2386 59 63Z" fill="white"/>
<path d="M54 86C56.7614 86 59 83.7614 59 81C59 78.2386 56.7614 76 54 76C51.2386 76 49 78.2386 49 81C49 83.7614 51.2386 86 54 86Z" fill="white"/>
<path d="M77 63C77 65.7614 74.7614 68 72 68C69.2386 68 67 65.7614 67 63C67 60.2386 69.2386 58 72 58C74.7614 58 77 60.2386 77 63Z" fill="white"/>
<path d="M72 86C74.7614 86 77 83.7614 77 81C77 78.2386 74.7614 76 72 76C69.2386 76 67 78.2386 67 81C67 83.7614 69.2386 86 72 86Z" fill="white"/>
<path d="M95 63C95 65.7614 92.7614 68 90 68C87.2386 68 85 65.7614 85 63C85 60.2386 87.2386 58 90 58C92.7614 58 95 60.2386 95 63Z" fill="white"/>
<path d="M90 86C92.7614 86 95 83.7614 95 81C95 78.2386 92.7614 76 90 76C87.2386 76 85 78.2386 85 81C85 83.7614 87.2386 86 90 86Z" fill="white"/>
<path fill-rule="evenodd" clip-rule="evenodd" d="M40 40C35.5817 40 32 43.5817 32 48V96C32 100.418 35.5817 104 40 104H104C108.418 104 112 100.418 112 96V48C112 43.5817 108.418 40 104 40H40ZM104 46H40C38.8954 46 38 46.8954 38 48V96C38 97.1046 38.8954 98 40 98H104C105.105 98 106 97.1046 106 96V48C106 46.8954 105.105 46 104 46Z" fill="white"/>
</svg>
