<svg width="144" height="144" viewBox="0 0 144 144" fill="none" xmlns="http://www.w3.org/2000/svg">
<path fill-rule="evenodd" clip-rule="evenodd" d="M32 48C32 43.5817 35.5817 40 40 40H104C108.418 40 112 43.5817 112 48V96C112 100.418 108.418 104 104 104H40C35.5817 104 32 100.418 32 96V48ZM59 63C59 65.7614 56.7614 68 54 68C51.2386 68 49 65.7614 49 63C49 60.2386 51.2386 58 54 58C56.7614 58 59 60.2386 59 63ZM54 86C56.7614 86 59 83.7614 59 81C59 78.2386 56.7614 76 54 76C51.2386 76 49 78.2386 49 81C49 83.7614 51.2386 86 54 86ZM77 63C77 65.7614 74.7614 68 72 68C69.2386 68 67 65.7614 67 63C67 60.2386 69.2386 58 72 58C74.7614 58 77 60.2386 77 63ZM72 86C74.7614 86 77 83.7614 77 81C77 78.2386 74.7614 76 72 76C69.2386 76 67 78.2386 67 81C67 83.7614 69.2386 86 72 86ZM95 63C95 65.7614 92.7614 68 90 68C87.2386 68 85 65.7614 85 63C85 60.2386 87.2386 58 90 58C92.7614 58 95 60.2386 95 63ZM90 86C92.7614 86 95 83.7614 95 81C95 78.2386 92.7614 76 90 76C87.2386 76 85 78.2386 85 81C85 83.7614 87.2386 86 90 86Z" fill="white"/>
</svg>
