<svg width="144" height="144" viewBox="0 0 144 144" fill="none" xmlns="http://www.w3.org/2000/svg">
<path d="M45.3853 60.0985C43.9504 59.2701 43.4588 57.4353 44.2872 56.0005C46.9515 51.3857 50.7262 47.5093 55.2684 44.7231C59.8107 41.9369 64.9769 40.3292 70.2981 40.0458C75.6192 39.7624 80.927 40.8123 85.7395 43.1002C88.7841 44.5476 91.5695 46.4615 94.0001 48.7626V40C94.0001 38.3431 95.3432 37 97.0001 37C98.6569 37 100 38.3431 100 40V57C100 58.6569 98.6569 60 97.0001 60L80.0001 60C78.3432 60 77.0001 58.6569 77.0001 57C77.0001 55.3431 78.3432 54 80.0001 54L90.7612 54C88.588 51.735 86.0157 49.875 83.1633 48.519C79.2532 46.66 74.9406 45.807 70.6172 46.0373C66.2937 46.2675 62.0962 47.5738 58.4056 49.8376C54.715 52.1014 51.6481 55.2509 49.4833 59.0005C48.6549 60.4353 46.8201 60.927 45.3853 60.0985Z" fill="white"/>
<path d="M98.6148 83.9014C100.05 84.7299 100.541 86.5646 99.7129 87.9995C97.0486 92.6143 93.2739 96.4907 88.7317 99.2769C84.1894 102.063 79.0232 103.671 73.702 103.954C68.3809 104.238 63.0732 103.188 58.2606 100.9C55.216 99.4524 52.4306 97.5385 50.0001 95.2374L50.0001 104C50.0001 105.657 48.6569 107 47.0001 107C45.3432 107 44.0001 105.657 44.0001 104V87C44.0001 85.3431 45.3432 84 47.0001 84L64.0001 84C65.6569 84 67.0001 85.3431 67.0001 87C67.0001 88.6569 65.6569 90 64.0001 90L53.2389 90C55.4121 92.265 57.9844 94.125 60.8368 95.481C64.747 97.3399 69.0595 98.193 73.3829 97.9627C77.7064 97.7325 81.9039 96.4262 85.5945 94.1624C89.2851 91.8986 92.352 88.7491 94.5168 84.9995C95.3452 83.5646 97.18 83.073 98.6148 83.9014Z" fill="white"/>
</svg>
