<svg width="144" height="144" viewBox="0 0 144 144" fill="none" xmlns="http://www.w3.org/2000/svg">
<path d="M59.9997 33C59.9997 31.3431 61.3428 30 62.9997 30H80.9997C82.6565 30 83.9997 31.3431 83.9997 33C83.9997 34.6569 82.6566 36 80.9997 36L62.9997 36C61.3428 36 59.9997 34.6569 59.9997 33Z" fill="white"/>
<path fill-rule="evenodd" clip-rule="evenodd" d="M104 76C104 93.6731 89.6728 108 71.9997 108C54.3266 108 39.9997 93.6731 39.9997 76C39.9997 58.3269 54.3266 44 71.9997 44C89.6728 44 104 58.3269 104 76ZM81.8784 61.8787L69.8784 73.8787C68.7068 75.0503 68.7068 76.9497 69.8784 78.1213C71.0499 79.2929 72.9494 79.2929 74.121 78.1213L86.121 66.1213C87.2926 64.9497 87.2926 63.0503 86.121 61.8787C84.9494 60.7071 83.0499 60.7071 81.8784 61.8787Z" fill="white"/>
<path d="M35.9373 51.2512C34.7657 50.0796 34.7657 48.1801 35.9373 47.0086L43.0083 39.9375C44.1799 38.7659 46.0794 38.7659 47.251 39.9375C48.4226 41.1091 48.4226 43.0086 47.251 44.1801L40.1799 51.2512C39.0083 52.4228 37.1088 52.4228 35.9373 51.2512Z" fill="white"/>
<path d="M96.7484 39.9375C97.92 38.7659 99.8195 38.7659 100.991 39.9375L108.062 47.0086C109.234 48.1802 109.234 50.0797 108.062 51.2512C106.891 52.4228 104.991 52.4228 103.82 51.2512L96.7484 44.1802C95.5769 43.0086 95.5769 41.1091 96.7484 39.9375Z" fill="white"/>
</svg>
