<svg width="144" height="144" viewBox="0 0 144 144" fill="none" xmlns="http://www.w3.org/2000/svg">
<path d="M58.6868 42.6863C61.6873 39.6857 65.757 38 70.0005 38C74.2439 38 78.3136 39.6857 81.3142 42.6863C84.3148 45.6869 86.0005 49.7565 86.0005 54C86.0005 55.6569 87.3436 57 89.0005 57C90.6573 57 92.0005 55.6569 92.0005 54C92.0005 48.1652 89.6826 42.5695 85.5568 38.4437C81.431 34.3179 75.8352 32 70.0005 32C64.1657 32 58.5699 34.3178 54.4441 38.4436C50.3183 42.5694 48.0005 48.1652 48.0005 54C48.0005 55.6569 49.3436 57 51.0005 57C52.6573 57 54.0005 55.6569 54.0005 54C54.0005 49.7565 55.6862 45.6869 58.6868 42.6863Z" fill="white"/>
<path fill-rule="evenodd" clip-rule="evenodd" d="M60.0005 54V80L53.2247 76.6121C50.0511 75.0253 46.2392 75.4678 43.5133 77.7393C39.4789 81.1013 39.2022 87.2017 42.9157 90.9152L61.6573 109.657C63.1576 111.157 65.1924 112 67.3142 112H89.6643C93.3768 112 96.6014 109.446 97.4517 105.832L102.327 85.1115C103.275 81.0839 100.995 76.9982 97.0696 75.6897L80.0005 70V54C80.0005 48.4772 75.5233 44 70.0005 44C64.4776 44 60.0005 48.4772 60.0005 54ZM74.0005 74.3246L95.1723 81.3818C96.1536 81.7089 96.7236 82.7304 96.4867 83.7373L91.6112 104.458C91.3986 105.362 90.5924 106 89.6643 106H67.3142C66.7837 106 66.275 105.789 65.9 105.414L47.1583 86.6726C45.9397 85.4539 46.0305 83.4519 47.3544 82.3486C48.249 81.6031 49.5 81.458 50.5415 81.9787L66.0005 89.7082V54C66.0005 51.7909 67.7913 50 70.0005 50C72.2096 50 74.0005 51.7909 74.0005 54V74.3246Z" fill="white"/>
</svg>
