<svg width="144" height="144" viewBox="0 0 144 144" fill="none" xmlns="http://www.w3.org/2000/svg">
<path fill-rule="evenodd" clip-rule="evenodd" d="M72 29C63.7157 29 57 35.7157 57 44L39 44C37.3431 44 36 45.3431 36 47C36 48.6569 37.3431 50 39 50H44.3529L47.557 104.47C47.8058 108.698 51.3074 112 55.5432 112H88.4568C92.6926 112 96.1942 108.698 96.443 104.47L99.6471 50H105C106.657 50 108 48.6569 108 47C108 45.3431 106.657 44 105 44L87 44C87 35.7157 80.2843 29 72 29ZM81 44C81 39.0294 76.9706 35 72 35C67.0294 35 63 39.0294 63 44H81ZM65 56C66.6569 56 68 57.3431 68 59V97C68 98.6569 66.6569 100 65 100C63.3431 100 62 98.6569 62 97L62 59C62 57.3431 63.3431 56 65 56ZM82 59C82 57.3431 80.6569 56 79 56C77.3431 56 76 57.3431 76 59V97C76 98.6569 77.3431 100 79 100C80.6569 100 82 98.6569 82 97V59Z" fill="white"/>
</svg>
