<svg width="144" height="144" viewBox="0 0 144 144" fill="none" xmlns="http://www.w3.org/2000/svg">
<path fill-rule="evenodd" clip-rule="evenodd" d="M42.6762 56.8183C42.2355 58.4674 42 60.2034 42 62C42 73.0457 50.9543 82 62 82C63.4553 82 64.8678 81.8456 66.2243 81.5543C69.3616 80.8808 73.0825 81.5677 75.789 84.2742L92.929 101.414C93.7101 102.195 94.9764 102.195 95.7574 101.414L101.414 95.7574C102.195 94.9763 102.195 93.71 101.414 92.9289L84.2742 75.7889C81.5677 73.0824 80.8808 69.3615 81.5543 66.2243C81.8456 64.8678 82 63.4553 82 62C82 50.9543 73.0457 42 62 42C60.2035 42 58.4675 42.2355 56.8184 42.6762L69.0717 54.9295C72.977 58.8348 72.977 65.1664 69.0717 69.0716C65.1665 72.9769 58.8348 72.9769 54.9296 69.0716L42.6762 56.8183ZM38.5997 50.6538C36.9342 54.0824 36 57.9321 36 62C36 76.3594 47.6406 88 62 88C63.8813 88 65.7159 87.8002 67.4838 87.4206C68.9423 87.1075 70.4915 87.462 71.5464 88.5169L88.6864 105.657C91.8106 108.781 96.8759 108.781 100 105.657L105.657 100C108.781 96.8758 108.781 91.8105 105.657 88.6863L88.5169 71.5462C87.4621 70.4914 87.1075 68.9422 87.4207 67.4837C87.8002 65.7158 88 63.8813 88 62C88 47.6406 76.3594 36 62 36C57.9322 36 54.0826 36.9342 50.6539 38.5997C48.4474 39.6716 48.2268 42.5699 49.9615 44.3045L64.8291 59.1721C66.3912 60.7342 66.3912 63.2669 64.8291 64.829C63.267 66.3911 60.7343 66.3911 59.1722 64.829L44.3046 49.9613C42.5699 48.2267 39.6716 48.4472 38.5997 50.6538Z" fill="white"/>
</svg>
