<svg xmlns="http://www.w3.org/2000/svg" width="20" height="20" viewBox="0 0 20 20"><g id="3"><rect id="background" width="20" height="20" fill="#444444"/><path fill="#FFF" fill-rule="nonzero" d="M9.95076497,17.1758355 C13.3022732,17.1758355 15.6378852,15.4478624 15.6378852,12.9698351 C15.6378852,11.2038845 14.4321018,9.9601237 12.5427246,9.76074219 L12.5427246,9.58034939 C14.0808105,9.29551866 15.1346842,8.05175781 15.1346842,6.47569444 C15.1346842,4.26350911 13.0459256,2.73491753 10.0077311,2.73491753 C6.82712131,2.73491753 4.77634006,4.44390191 4.72886827,7.12131076 L7.89048937,7.12131076 C7.9284668,6.04844835 8.7354872,5.33637153 9.93177626,5.33637153 C11.147054,5.33637153 11.8971083,5.95350477 11.8971083,6.95041233 C11.8971083,7.94731988 11.1280653,8.60243056 9.96025933,8.60243056 L8.27975803,8.60243056 L8.27975803,11.004503 L9.96025933,11.004503 C11.2894694,11.004503 12.0964898,11.6501194 12.0964898,12.7039931 C12.0964898,13.7293837 11.2419976,14.4319661 10.0077311,14.4319661 C8.68801541,14.4319661 7.84301758,13.7863498 7.79554579,12.7419705 L4.47252062,12.7419705 C4.59594727,15.4288737 6.75116645,17.1758355 9.95076497,17.1758355 Z"/></g></svg>
