<svg viewBox="0 0 20 20" xmlns="http://www.w3.org/2000/svg">
  <path d="M11.6086 7.0133l-.0216-.0161-3.5683-2.023-1.7853 1.0207v7.883l1.7884 1.0107 5.0574-2.8904-1.7373-.9855-3.3734 1.9287V6.9197l9.7862 5.554-.0062.0352c-.5289 1.586-1.5294 2.951-2.894 3.9473-1.3926 1.0161-3.0433 1.5537-4.773 1.5537-4.4527 0-8.075-3.593-8.075-8.0095 0-4.4166 3.6223-8.0103 8.075-8.0103 3.4098 0 6.4685 2.145 7.6105 5.3376.085.237.1593.4801.2212.724l1.7922-1.03a10.11 10.11 0 0 0-.2575-.7208c-.7383-1.8375-1.9986-3.4059-3.6455-4.5347C14.1168.6112 12.1382 0 10.0816 0c-2.693 0-5.2244 1.04-7.1288 2.9288C1.0484 4.8177 0 7.3293 0 10.0004c0 2.6703 1.0484 5.182 2.9528 7.0708C4.8572 18.9601 7.3886 20 10.0816 20c2.3837 0 4.697-.8413 6.5125-2.3682 1.786-1.5023 2.9938-3.5806 3.4059-5.8545l-8.3914-4.764z" fill="#d8d8d8" fill-rule="nonzero"/>
</svg>