<svg xmlns="http://www.w3.org/2000/svg" xmlns:xlink="http://www.w3.org/1999/xlink" viewBox="0 0 144 144">

<g id="filter-pressed" fill="none" fill-rule="evenodd" stroke="none">
<rect id="background" fill="#5e8b8b" fill-rule="nonzero" x="0" y="0" width="144" height="144"/>
<path fill="#f3f3f3" d="M72.728,53.615l-43.113,43.113l9.657,9.657l43.113,-43.113l-9.657,-9.657Zm22.272,10.385l2.971,8.029l8.029,2.971l-8.029,2.971l-2.971,8.029l-2.971,-8.029l-8.029,-2.971l8.029,-2.971l2.971,-8.029Zm-16.834,-0.702l-5.464,-5.464l-10.868,10.868l5.464,5.464l10.868,-10.868Zm-21.166,-27.298l2.971,8.029l8.029,2.971l-8.029,2.971l-2.971,8.029l-2.971,-8.029l-8.029,-2.971l8.029,-2.971l2.971,-8.029Zm34,-4l2.971,8.029l8.029,2.971l-8.029,2.971l-2.971,8.029l-2.971,-8.029l-8.029,-2.971l8.029,-2.971l2.971,-8.029Z"/></g></svg>