<svg xmlns="http://www.w3.org/2000/svg" xmlns:xlink="http://www.w3.org/1999/xlink" viewBox="0 0 144 144">
<rect id="background" fill="#5e8b8b" fill-rule="nonzero" x="0" y="0" width="144" height="144"/>
<path id="icon" fill="#f3f3f3" fill-rule="evenodd" d="M48,90.98c0.1,0.013 0.202,0.02 0.305,0.02l3.39,-0c0.103,-0 0.205,-0.007 0.305,-0.02l0,7.02c0,1.104 -0.896,2 -2,2c-1.104,0 -2,-0.896 -2,-2l0,-7.02Zm4,-17.96c-0.1,-0.013 -0.202,-0.02 -0.305,-0.02l-3.39,-0c-0.103,-0 -0.205,0.007 -0.305,0.02l0,-27.02c0,-1.104 0.896,-2 2,-2c1.104,-0 2,0.896 2,2l0,27.02Zm2,5.285l0,7.39c0,1.272 -1.033,2.305 -2.305,2.305l-3.39,-0c-1.272,-0 -2.305,-1.033 -2.305,-2.305l0,-7.39c0,-1.272 1.033,-2.305 2.305,-2.305l3.39,-0c1.272,-0 2.305,1.033 2.305,2.305Zm-18,-7.325c0.1,0.013 0.202,0.02 0.305,0.02l3.39,-0c0.103,-0 0.205,-0.007 0.305,-0.02l0,27.02c0,1.104 -0.896,2 -2,2c-1.104,0 -2,-0.896 -2,-2l0,-27.02Zm4,-17.96c-0.1,-0.013 -0.202,-0.02 -0.305,-0.02l-3.39,-0c-0.103,-0 -0.205,0.007 -0.305,0.02l0,-7.02c0,-1.104 0.896,-2 2,-2c1.104,-0 2,0.896 2,2l0,7.02Zm2,5.285l0,7.39c0,1.272 -1.033,2.305 -2.305,2.305l-3.39,-0c-1.272,-0 -2.305,-1.033 -2.305,-2.305l0,-7.39c0,-1.272 1.033,-2.305 2.305,-2.305l3.39,-0c1.272,-0 2.305,1.033 2.305,2.305Zm66.712,-10.298c-0.556,-1.263 0.018,-2.74 1.281,-3.295c1.263,-0.556 2.74,0.018 3.295,1.281l10.18,23.136c0.038,0.085 0.07,0.173 0.098,0.262c0,0 0.882,2.875 -0.13,5.544c-0.015,0.039 -0.031,0.078 -0.047,0.117c-4.857,11.089 -10.102,22.959 -10.102,22.959c-0.558,1.262 -2.035,1.833 -3.298,1.276c-1.262,-0.558 -1.833,-2.035 -1.276,-3.298c0,0 5.221,-11.813 10.069,-22.884c0.311,-0.881 0.123,-1.802 0.042,-2.116l-10.112,-22.982Zm-8.707,12.031c-0.555,-1.263 0.019,-2.74 1.282,-3.295c1.263,-0.556 2.739,0.018 3.295,1.281l4.886,11.105c0.038,0.085 0.07,0.173 0.098,0.262c0,0 0.882,2.875 -0.13,5.544c-0.015,0.039 -0.031,0.078 -0.047,0.117c-1.635,3.732 -3.313,7.552 -4.821,10.979c-0.556,1.263 -2.032,1.837 -3.295,1.282c-1.263,-0.556 -1.838,-2.033 -1.282,-3.296c1.498,-3.403 3.164,-7.195 4.791,-10.912c0.311,-0.881 0.123,-1.802 0.042,-2.116l-4.819,-10.951Zm-27.123,-2.084l17.733,-12.585c0.61,-0.433 1.411,-0.489 2.076,-0.146c0.664,0.343 1.082,1.029 1.082,1.777l-0,50c-0,0.748 -0.418,1.434 -1.082,1.777c-0.665,0.343 -1.466,0.287 -2.076,-0.146l-17.733,-12.585c-0.529,-0.375 -0.843,-0.983 -0.843,-1.631l0,-24.83c0,-0.648 0.314,-1.256 0.843,-1.631Zm-10.655,7.173l5.682,-4.032l0,21.81l-5.682,-4.032l0,-13.746Z"/>
</svg>