<svg xmlns="http://www.w3.org/2000/svg" xmlns:xlink="http://www.w3.org/1999/xlink" viewBox="0 0 144 144">
<rect id="background" fill="#5e8b8b" fill-rule="nonzero" x="0" y="0" width="144" height="144"/>
<path id="icon" fill="#f3f3f3" fill-rule="evenodd" d="M104,50l0,44c0,5.519 -4.481,10 -10,10l-44,0c-5.519,0 -10,-4.481 -10,-10l0,-44c0,-5.519 4.481,-10 10,-10l44,0c5.519,0 10,4.481 10,10Zm-4,0c0,-3.311 -2.689,-6 -6,-6l-44,0c-3.311,0 -6,2.689 -6,6l0,44c0,3.311 2.689,6 6,6l44,0c3.311,0 6,-2.689 6,-6l0,-44Zm-20,0c0,1.104 -0.896,2 -2,2c-1.104,0 -2,-0.896 -2,-2c0,-1.104 0.896,-2 2,-2c1.104,0 2,0.896 2,2Zm16,0c0,1.104 -0.896,2 -2,2l-10,0c-1.104,0 -2,-0.896 -2,-2c0,-1.104 0.896,-2 2,-2l10,0c1.104,0 2,0.896 2,2Zm-11.932,23.691l-19,12c-0.616,0.389 -1.395,0.412 -2.033,0.061c-0.639,-0.352 -1.035,-1.023 -1.035,-1.752l-0,-24c-0,-0.729 0.396,-1.4 1.035,-1.752c0.638,-0.351 1.417,-0.328 2.033,0.061l19,12c0.58,0.366 0.932,1.005 0.932,1.691c-0,0.686 -0.352,1.325 -0.932,1.691Zm-4.813,-1.691l-13.255,-8.371l0,16.742l13.255,-8.371Z"/>
</svg>