<svg xmlns="http://www.w3.org/2000/svg" xmlns:xlink="http://www.w3.org/1999/xlink" viewBox="0 0 144 144">
<rect id="background" fill="#263838" fill-rule="nonzero" x="0" y="0" width="144" height="144"/>
<path id="icon" fill="#999" fill-rule="evenodd" d="M59,85c0,3.311 2.689,6 6,6l18,-0c3.311,-0 6,-2.689 6,-6l0,-13.5c0,-0.828 0.672,-1.5 1.5,-1.5c0.828,0 1.5,0.672 1.5,1.5l0,7c0,0.653 -0.418,1.208 -1,1.415l0,5.085c0,4.415 -3.585,8 -8,8l-6,-0l0,8l13,0c1.104,0 2,0.896 2,2l0,2l-36,0l0,-2c0,-1.104 0.896,-2 2,-2l13,0l0,-8l-6,-0c-4.415,-0 -8,-3.585 -8,-8l0,-5.085c-0.582,-0.207 -1,-0.762 -1,-1.415l-0,-7c-0,-0.828 0.672,-1.5 1.5,-1.5c0.828,0 1.5,0.672 1.5,1.5l0,13.5Zm28,-42l0,41c0,2.76 -2.24,5 -5,5l-16,0c-2.76,0 -5,-2.24 -5,-5l0,-41c0,-2.76 2.24,-5 5,-5l16,0c2.76,0 5,2.24 5,5Zm-3,27l0,-27c0,-1.104 -0.896,-2 -2,-2l-16,0c-1.104,0 -2,0.896 -2,2l0,27l20,0Z"/>
</svg>