<svg xmlns="http://www.w3.org/2000/svg" xmlns:xlink="http://www.w3.org/1999/xlink" viewBox="0 0 144 144">
<rect id="background" fill="#263838" fill-rule="nonzero" x="0" y="0" width="144" height="144"/>
<path id="icon" fill="#999" fill-rule="evenodd" d="M60.362,73.659c-0.879,-0.502 -1.253,-1.599 -0.835,-2.544c-0,-0 3.035,-6.87 5.859,-13.32c0.112,-0.337 0.054,-0.685 0.015,-0.847l-5.876,-13.354c-0.444,-1.011 0.015,-2.192 1.025,-2.637c1.011,-0.444 2.192,0.015 2.637,1.026l5.931,13.481c0.03,0.068 0.057,0.138 0.079,0.21c-0,-0 0.567,1.858 -0.086,3.584c-0.012,0.032 -0.025,0.063 -0.039,0.094c-1.013,2.313 -2.055,4.684 -2.975,6.776c-0.431,0.201 -0.869,0.434 -1.313,0.702c-0.453,0.272 -0.871,0.599 -1.244,0.972c-1.73,1.73 -2.742,3.324 -3.102,5.35c-0.029,0.162 -0.055,0.331 -0.076,0.507Zm-8.716,-23.055c-0.444,-1.01 0.015,-2.191 1.025,-2.636c1.011,-0.445 2.192,0.015 2.636,1.025l2.848,6.471c0.03,0.068 0.056,0.138 0.078,0.21c0,-0 0.568,1.858 -0.086,3.584c-0.012,0.032 -0.025,0.063 -0.038,0.094c-0.953,2.175 -1.931,4.401 -2.81,6.398c-0.444,1.011 -1.626,1.47 -2.636,1.025c-1.01,-0.444 -1.47,-1.625 -1.025,-2.636c0.87,-1.977 1.838,-4.179 2.785,-6.344c0.111,-0.337 0.053,-0.685 0.015,-0.847l-2.792,-6.344Zm37.582,5.619c0.565,-0.161 1.162,-0.248 1.778,-0.248c2.333,0 4.38,1.237 5.521,3.09c0.787,-0.342 1.659,-0.532 2.58,-0.532c2.771,-0 5.141,1.734 6.082,4.175c0.665,-0.23 1.38,-0.355 2.123,-0.355c1.538,-0 2.998,0.697 4.151,1.877c1.439,1.472 2.352,3.706 2.352,5.626l0,14.029c0,0.183 -0.008,0.365 -0.023,0.538c0.018,0.341 0.028,0.684 0.028,1.029c-0,0.011 -0,0.022 -0.001,0.033c0,10.622 -8.623,19.246 -19.245,19.246c-3.266,-0 -11.851,-1.822 -16.152,-6.123c-2.815,-2.815 -3.208,-4.039 -4.402,-5.739c-2.665,-3.795 -4.432,-6.973 -8.243,-13.881c-1.34,-2.425 -1.505,-3.956 -1.309,-5.058c0.221,-1.241 0.933,-2.162 1.992,-3.222c0.144,-0.144 0.305,-0.269 0.479,-0.374c3.712,-2.235 6.716,-0.648 8.88,1.499c0.064,0.064 0.129,0.13 0.194,0.198l0,-25.746c0,-3.647 2.961,-6.608 6.608,-6.608c3.647,0 6.607,2.961 6.607,6.608l0,9.938Zm20.592,29.229c-0,-0.33 -0.011,-0.657 -0.032,-0.983c-0.005,-0.092 -0.003,-0.185 0.008,-0.277c0.013,-0.101 0.019,-0.203 0.019,-0.307l0,-14.029c0,-0.969 -0.486,-2.087 -1.212,-2.83c-0.369,-0.377 -0.799,-0.673 -1.291,-0.673c-1.382,-0 -2.503,1.121 -2.503,2.503l-0,3.261c-0,0.543 -0.294,1.044 -0.767,1.309c-0.474,0.265 -1.054,0.254 -1.517,-0.03c-0.057,-0.035 -0.114,-0.069 -0.17,-0.103c-0.455,-0.27 -0.733,-0.76 -0.733,-1.289l0,-6.956c0,-1.388 -1.127,-2.515 -2.515,-2.515c-1.382,-0 -2.459,1.133 -2.459,2.515l0,5.57c0,0.829 -0.671,1.5 -1.5,1.5c-0.011,0 -0.088,-0.001 -0.088,-0.001c-0.014,0 -0.027,0 -0.041,-0l-0.013,-0.001l-0.023,-0c-0.006,-0 -0.012,-0 -0.018,-0.001c-0.82,-0.009 -1.482,-0.677 -1.482,-1.5l-0,-8.163c-0,-1.367 -1.11,-2.477 -2.477,-2.477c-1.367,0 -2.477,1.11 -2.477,2.477l0,7.096c0,0.565 -0.318,1.083 -0.823,1.338c-0.092,0.047 -0.183,0.094 -0.273,0.142c-0.465,0.247 -1.026,0.233 -1.477,-0.038c-0.452,-0.272 -0.728,-0.76 -0.728,-1.286l0,-23.419c0,-1.439 -1.168,-2.608 -2.607,-2.608c-1.439,0 -2.608,1.169 -2.608,2.608l0,33.974c0,0.676 -0.452,1.268 -1.104,1.446c-0.652,0.179 -1.342,-0.101 -1.687,-0.682c-1.787,-3.021 -2.924,-5.064 -4.221,-6.351c-0.959,-0.952 -2.238,-1.878 -3.868,-0.987c-0.339,0.312 -0.655,0.546 -0.727,0.946c-0.096,0.543 0.212,1.228 0.873,2.423c3.709,6.725 5.421,9.822 8.015,13.516c1.08,1.538 1.41,2.664 3.957,5.21c3.539,3.539 10.636,4.951 13.323,4.951c8.414,-0 15.246,-6.831 15.246,-15.246c-0.001,-0.011 -0,-0.022 -0,-0.033Zm-14.832,-13.342c0.006,0.001 0.012,0.001 0.018,0.002l0,-0.02l-0.018,0.018Zm-60.4,-24.158l10.192,-7.379c0.457,-0.33 1.06,-0.377 1.562,-0.121c0.502,0.256 0.818,0.773 0.818,1.336l0,31.135c0,0.564 -0.316,1.08 -0.818,1.336c-0.502,0.256 -1.105,0.21 -1.562,-0.121l-10.118,-7.325c-0.388,-0.281 -0.619,-0.73 -0.621,-1.208l-0.074,-16.432c-0.002,-0.483 0.229,-0.938 0.621,-1.221Zm-8.612,6.343l4.016,-2.851l-0,11.823l-4.016,-2.851l-0,-6.121Z"/>
</svg>