<svg xmlns="http://www.w3.org/2000/svg" width="20" height="20" viewBox="0 0 20 20"><g id="2" fill="none" fill-rule="evenodd" stroke="none" stroke-width="1"><path id="Oval" fill="#3F0" fill-rule="nonzero" d="M10,0 C4.4771525,0 0,4.4771525 0,10 C0,15.5228475 4.4771525,20 10,20 C15.5228475,20 20,15.5228475 20,10 C20,4.4771525 15.5228475,0 10,0 Z"/><path fill="#969696" fill-rule="nonzero" d="M15.1977539,16.8055556 L15.1977539,14.0901693 L9.42518446,14.0901693 L9.42518446,13.9097765 L11.6848416,11.8305122 C14.1153971,9.66579861 15.0078668,8.31759983 15.0078668,6.7985026 C15.0078668,4.37744141 12.9570855,2.73491753 9.89040799,2.73491753 C6.70979818,2.73491753 4.58306207,4.57682292 4.58306207,7.30170356 L4.58306207,7.3586697 L7.77316623,7.3586697 L7.77316623,7.2922092 C7.77316623,6.16238064 8.58968099,5.3648546 9.76698134,5.3648546 C10.8968099,5.3648546 11.6373698,6.03895399 11.6373698,7.0453559 C11.6373698,7.8523763 11.1246745,8.54546441 9.11187066,10.4063585 L4.78244358,14.4794379 L4.78244358,16.8055556 L15.1977539,16.8055556 Z"/></g></svg>