<svg fill="none" version="1.1" viewBox="0 0 24 24" xmlns="http://www.w3.org/2000/svg">
 <g fill="#fff">
  <circle transform="matrix(.7071 .70711 -.7071 .70711 0 0)" cx="16.971" cy="-.00013591" r="2.5448"/>
  <path d="m14.416 16.446c-0.36385-0.36385-0.3473-0.95744 0.02291-1.3148 0.11672-0.11265 0.23321-0.2271 0.34933-0.34322 2.3873-2.3874 4.0549-4.9203 4.8636-7.0229 0.40524-1.0536 0.56371-1.9183 0.54787-2.558-0.0156-0.62694-0.18942-0.92395-0.33602-1.0705-0.1466-0.1466-0.44363-0.32051-1.0706-0.33603-0.63977-0.015847-1.5043 0.1426-2.558 0.54785-0.96127 0.36973-2.0125 0.91897-3.0985 1.6344-0.36877 0.24289-0.85954 0.20335-1.1717-0.10887-0.39324-0.39316-0.3425-1.0463 0.12092-1.3536 3.7971-2.5187 7.4074-3.299 9.0502-1.6562 2.2425 2.2425-0.02987 8.1507-5.0754 13.196-0.1376 0.13772-0.27592 0.27328-0.41483 0.4068-0.34526 0.33194-0.89109 0.31755-1.2297-0.02111zm-2.3803 1.6801c-0.31226-0.31227-0.80304-0.35186-1.1717-0.10893-1.0862 0.71547-2.1372 1.2647-3.0985 1.6344-1.0536 0.40524-1.9182 0.56372-2.558 0.54776-0.62693-0.015475-0.92394-0.18942-1.0705-0.33602-0.1466-0.1466-0.32051-0.44351-0.33603-1.0704-0.015835-0.63978 0.14261-1.5044 0.54785-2.558 0.8087-2.1026 2.4762-4.6355 4.8636-7.0228 0.1161-0.1161 0.23254-0.23049 0.34925-0.34317 0.37021-0.35738 0.38676-0.95099 0.022913-1.3148-0.33867-0.33867-0.88453-0.35307-1.2298-0.021126-0.13883 0.13349-0.27713 0.26907-0.41477 0.40672-5.0455 5.0456-7.3178 10.954-5.0754 13.196 1.6428 1.6428 5.253 0.86255 9.0501-1.6561 0.4633-0.30735 0.51404-0.96044 0.12092-1.3536z" clip-rule="evenodd" fill-rule="evenodd"/>
  <path d="m19.651 16.235c-0.0763-0.19842-0.16015-0.40056-0.25168-0.60606-0.16003-0.3599-0.09393-0.78397 0.1845-1.0625 0.43283-0.43284 1.162-0.32643 1.4147 0.23105 1.2355 2.7251 1.3799 5.0952 0.13676 6.3385-2.2425 2.2425-8.1506-0.02987-13.196-5.0755-0.13761-0.1376-0.27317-0.2758-0.40662-0.4146-0.33195-0.34538-0.31754-0.89122 0.021126-1.2299 0.36384-0.36386 0.95744-0.3473 1.3148 0.02291 0.11265 0.11673 0.22701 0.23309 0.34307 0.34922 2.3874 2.3873 4.9201 4.0548 7.0227 4.8636 1.0536 0.40524 1.9183 0.5636 2.558 0.54776 0.62693-0.01547 0.92396-0.18942 1.0706-0.33602 0.1466-0.1466 0.32054-0.44351 0.33602-1.0704 0.01583-0.63978-0.14264-1.5044-0.54787-2.558zm-15.236-6.8012c0.2785-0.2785 0.34461-0.70268 0.18449-1.0625-0.091448-0.20551-0.17537-0.40769-0.25166-0.60603-0.40525-1.0536-0.5637-1.9183-0.54785-2.558 0.015523-0.62694 0.18943-0.92395 0.33603-1.0705 0.1466-0.1466 0.44359-0.32051 1.0705-0.33603 0.63973-0.015847 1.5043 0.1426 2.558 0.54785 2.1026 0.80871 4.6354 2.4763 7.0227 4.8636 0.11612 0.11605 0.23045 0.23247 0.3431 0.34915 0.35737 0.37022 0.95095 0.38678 1.3148 0.022913 0.33866-0.33867 0.35305-0.88455 0.02111-1.2298-0.1334-0.1388-0.26896-0.27705-0.40656-0.41466-5.0456-5.0456-10.954-7.3179-13.196-5.0755-1.2433 1.2433-1.0988 3.6133 0.13673 6.3385 0.25275 0.55748 0.98183 0.66389 1.4147 0.23103z" clip-rule="evenodd" fill-rule="evenodd"/>
 </g>
</svg>
