<svg width="24" height="24" viewBox="0 0 24 24" fill="none" xmlns="http://www.w3.org/2000/svg">
<rect x="5" y="9" width="13" height="6" rx="0.5" fill="white"/>
<path fill-rule="evenodd" clip-rule="evenodd" d="M5 7.5H18C18.8284 7.5 19.5 8.17157 19.5 9V15C19.5 15.8284 18.8284 16.5 18 16.5H5C4.17157 16.5 3.5 15.8284 3.5 15V9C3.5 8.17157 4.17157 7.5 5 7.5ZM2 9C2 7.34315 3.34315 6 5 6H18C19.6569 6 21 7.34315 21 9C21.5523 9 22 9.44772 22 10V14C22 14.5523 21.5523 15 21 15C21 16.6569 19.6569 18 18 18H5C3.34315 18 2 16.6569 2 15V9Z" fill="white"/>
</svg>
