<svg xmlns="http://www.w3.org/2000/svg" width="40" height="40" viewBox="0 0 40 40">
  <path fill="#EFEFEF" fill-rule="evenodd" d="M11.0791221,9.85568321 C12.3658906,5.9518944 15.2304329,4 19.672749,4 C25.575041,4 28.575041,7 28.575041,11.9238095 C28.575041,16 26.9682858,17.3006803 23.9936176,19.2163265 C21.1492267,21.044898 20.575041,22.5836735 20.575041,25 L20.575041,25 C20.575041,25.5522847 20.1273257,26 19.575041,26 L18.6011687,26 C17.969832,26 17.4580325,25.4882005 17.4580325,24.8568638 L17.4580325,24 C17.4363196,21.1047619 18.6956682,19.5646259 21.7571881,17.6054422 C24.4930144,15.8204082 25.575041,14.3183673 25.575041,11.9238095 C25.575041,8.83265306 24.0782564,7 19.672749,7 C17.248768,7 15.6679055,8.11796731 14.9301616,10.3539019 L14.9301626,10.3539023 C14.6210126,11.290866 13.7456669,11.9238095 12.7590186,11.9238095 L12.575041,11.9238095 C11.7051699,11.9238095 11,11.2186397 11,10.3487686 C11,10.1812475 11.0267252,10.0147991 11.079168,9.85569834 Z M19.1624957,36 C17.7294439,36 16.575041,34.914966 16.575041,33.5 C16.575041,32.0632653 17.7294439,31 19.1624957,31 C20.5738347,31 21.7571881,32.0632653 21.7571881,33.5 C21.7571881,34.914966 20.5738347,36 19.1624957,36 Z"/>
</svg>
