<svg xmlns="http://www.w3.org/2000/svg" viewBox="0 0 40 40"><g fill="#EFEFEF" fill-rule="evenodd"><path d="M8 14.2l1-1.7-5-2.8-.9 1.6zM36 30.3l.9-1.6-4.9-2.9-1 1.7zM6.7 20.9v-1.8H1v1.8zM39 20.9v-1.8h-5.7v1.8zM9 27.5l-1-1.7-4.9 2.9.9 1.6zM36.9 11.3L36 9.7l-5 2.8 1 1.7z"/><g><g transform="translate(17.429 9)"><rect width="3" height="4" x="1" rx="1.5"/><circle cx="2.5" cy="18.5" r="2.5"/></g><path fill-rule="nonzero" d="M28.6451 25.3163c-1.3622-.656-2.222-2.0083-2.2165-3.4863v-4.08c0-3.4518-2.8782-6.25-6.4286-6.25-3.5504 0-6.4286 2.7982-6.4286 6.25v4.08c.0055 1.478-.8543 2.8302-2.2165 3.4863-.2665.1298-.4062.4206-.3376.7026.0686.282.3275.481.6256.4811H28.357c.298 0 .557-.1992.6256-.4811.0686-.282-.0711-.5728-.3376-.7027z"/></g></g></svg>