<svg xmlns="http://www.w3.org/2000/svg" width="144" height="144" viewBox="0 0 144 144">
  <g id="btn_slobs_toggle_mixer_audio_inactive" fill="none" fill-rule="evenodd">
    <rect id="SLOBS_Background_inactive" width="144" height="144" fill="#375650" fill-rule="nonzero" rx="22"/>
    <path fill="#00D8A2" d="M59,68 L62.9996461,66 L62.9996461,78 L59,76 L59,68 Z M67,64 L87,52 L87,92 L67,80 L67,64 Z M99,52 L103.000236,52 L111,72.0977517 L103.000236,92 L99,92 L107.000118,72.0977517 L99,52 Z M93,62 L97,62 L101,72 L97,82 L93,82 L97,72 L93,62 Z M39,52 L35,52 L35,48 L39,48 L39,52 Z M39,72 L39,96 L35,96 L35,72 L39,72 Z M41,56 L41,68 L33,68 L33,56 L41,56 Z M51,72 L47,72 L47,48 L51,48 L51,72 Z M51,92 L51,96 L47,96 L47,92 L51,92 Z M53,76 L53,88 L45,88 L45,76 L53,76 Z"/>
  </g>
</svg>
