<svg xmlns="http://www.w3.org/2000/svg" width="144" height="144" viewBox="0 0 144 144">
  <g id="btn_system_multi_action" fill="none" fill-rule="evenodd">
    <path id="btn_multi_action" fill="#EFEFEF" d="M64,46 L110.002502,46 C111.10569,46 112,46.8947304 112,47.9963074 L112,104.003693 C112,105.106223 111.101562,106 110.002502,106 L33.9974983,106 C32.8943104,106 32,105.10527 32,104.003693 L32,84 L36,84 L36,101.007664 C36,101.550457 36.4434236,102 36.9904144,102 L107.009586,102 C107.558884,102 108,101.555716 108,101.007664 L108,85 L112,82 L111.932832,76.0503761 L96,88 L96,80 L88,80 L88,72 L96,72 L96,64 L111.931685,75.9487636 L111.869062,70.4017969 L108,67.3780942 L108,50.9923358 C108,50.449543 107.556576,50 107.009586,50 L36.9904144,50 C36.4411162,50 36,50.4442839 36,50.9923358 L36,68 L32,68 L32,47.9963074 C32,46.8937773 32.8984375,46 33.9974983,46 L36,46 L40,38 L60,38 L64,46 Z M62,66 L82,66 L82,86 L62,86 L62,66 Z M40,72 L40,64 L56,76 L40,88 L40,80 L32,80 L32,72 L40,72 Z"/>
  </g>
</svg>
