<svg xmlns="http://www.w3.org/2000/svg" width="144" height="144" viewBox="0 0 144 144">
    <rect width="144" height="144" fill="#102052" fill-rule="nonzero" rx="22"/>
    <path fill="#EFEFEF" fill-rule="nonzero" d="M74.4400288,121.328075 L74.4100288,121.306075 L69.6650288,118.616075 L67.2900288,119.973075 L67.2900288,130.458075 L69.6690288,131.802075 L76.3950288,127.958075 L74.0850288,126.647075 L69.5980288,129.212075 L69.5980288,121.203075 L82.6140288,128.590075 L82.6050288,128.637075 C81.9020289,130.74622 80.5560116,132.582176 78.7560288,133.887075 C76.9145028,135.235098 74.690209,135.959009 72.4080288,135.953075 C66.4860288,135.953075 61.6680288,131.175075 61.6680288,125.301075 C61.6680288,119.426075 66.4860288,114.647075 72.4080288,114.647075 C76.9430288,114.647075 81.0120288,117.500075 82.5300288,121.746075 C82.6440288,122.061075 82.7420288,122.384075 82.8250288,122.709075 L85.2080288,121.339075 C84.3099076,118.493192 82.4817905,116.031521 80.0170288,114.349075 C77.7772213,112.813339 75.1237587,111.99418 72.4080288,112 C68.8562053,111.988159 65.4455023,113.389498 62.9280288,115.895075 C60.4083011,118.375434 58.992641,121.765378 59,125.301075 C58.9929149,128.835934 60.4081643,132.225036 62.9270288,134.705075 C65.4447474,137.210899 68.8558592,138.612257 72.4080288,138.600154 C75.5780288,138.600154 78.6560288,137.481075 81.0700288,135.450075 C83.439645,133.460613 85.0415652,130.707291 85.6000288,127.664075 L74.4400288,121.328075 L74.4400288,121.328075 Z"/>
    <path fill="#EFEFEF" fill-rule="nonzero" stroke="#10204B" stroke-width=".883" d="M14,32.6449318 L27.5335821,32.6449318 L27.5335821,38.7907528 L21.9910772,38.7907528 L21.9910772,44.6141079 L26.9261843,44.6141079 L26.9261843,50.4564315 L21.9910772,50.4564315 L21.9910772,63.3550682 L14,63.3550682 L14,32.6449318 Z M47.7295587,50.6271488 C47.7295587,53.7127204 47.6567983,55.8972471 47.5112751,57.1807943 C47.365752,58.4643415 46.9102082,59.6372205 46.1446301,60.6994665 C45.379052,61.7617125 44.344588,62.5773534 43.041207,63.1464138 C41.7378261,63.7154741 40.2193468,64 38.4857236,64 C36.8406796,64 35.3633258,63.7312811 34.0536178,63.1938352 C32.7439097,62.6563893 31.6904647,61.8502326 30.8932511,60.7753408 C30.0960375,59.7004491 29.6215128,58.5307315 29.4696626,57.2661529 C29.3178123,56.0015744 29.2418884,53.7885951 29.2418884,50.6271488 L29.2418884,45.3728512 C29.2418884,42.2872796 29.3146489,40.1027529 29.460172,38.8192057 C29.6056951,37.5356585 30.0612389,36.3627795 30.826817,35.3005335 C31.5923951,34.2382875 32.6268592,33.4226466 33.9302401,32.8535862 C35.2336211,32.2845259 36.7521004,32 38.4857236,32 C40.1307675,32 41.6081213,32.2687189 42.9178293,32.8061648 C44.2275374,33.3436107 45.2809824,34.1497674 46.078196,35.2246592 C46.8754096,36.2995509 47.3499343,37.4692685 47.5017846,38.7338471 C47.6536348,39.9984256 47.7295587,42.2114049 47.7295587,45.3728512 L47.7295587,50.6271488 Z M39.7384815,40.5358625 C39.7384815,39.1068887 39.659394,38.1932444 39.5012167,37.7949022 C39.3430394,37.39656 39.0171991,37.1973918 38.5236859,37.1973918 C38.1060978,37.1973918 37.7865845,37.3586232 37.5651363,37.6810907 C37.3436881,38.0035582 37.2329656,38.9551393 37.2329656,40.5358625 L37.2329656,54.8761114 C37.2329656,56.6591672 37.3057261,57.759334 37.4512492,58.1766449 C37.5967723,58.5939559 37.9352666,58.8026082 38.4667424,58.8026082 C39.0108723,58.8026082 39.3588571,58.5623419 39.5107073,58.081802 C39.6625575,57.6012622 39.7384815,56.4568358 39.7384815,54.6484884 L39.7384815,40.5358625 Z M58.7006814,32.6449318 L58.7006814,57.2092472 L63.5598637,57.2092472 L63.5598637,63.3550682 L50.7096042,63.3550682 L50.7096042,32.6449318 L58.7006814,32.6449318 Z M73.4870214,32.6449318 L73.4870214,57.2092472 L78.3462038,57.2092472 L78.3462038,63.3550682 L65.4959442,63.3550682 L65.4959442,32.6449318 L73.4870214,32.6449318 Z M97.9537638,50.6271488 C97.9537638,53.7127204 97.8810033,55.8972471 97.7354802,57.1807943 C97.5899571,58.4643415 97.1344133,59.6372205 96.3688352,60.6994665 C95.603257,61.7617125 94.568793,62.5773534 93.2654121,63.1464138 C91.9620311,63.7154741 90.4435518,64 88.7099286,64 C87.0648847,64 85.5875309,63.7312811 84.2778228,63.1938352 C82.9681148,62.6563893 81.9146698,61.8502326 81.1174562,60.7753408 C80.3202426,59.7004491 79.8457178,58.5307315 79.6938676,57.2661529 C79.5420174,56.0015744 79.4660934,53.7885951 79.4660934,50.6271488 L79.4660934,45.3728512 C79.4660934,42.2872796 79.5388539,40.1027529 79.684377,38.8192057 C79.8299001,37.5356585 80.2854439,36.3627795 81.0510221,35.3005335 C81.8166002,34.2382875 82.8510642,33.4226466 84.1544452,32.8535862 C85.4578261,32.2845259 86.9763054,32 88.7099286,32 C90.3549725,32 91.8323264,32.2687189 93.1420344,32.8061648 C94.4517424,33.3436107 95.5051874,34.1497674 96.302401,35.2246592 C97.0996146,36.2995509 97.5741394,37.4692685 97.7259896,38.7338471 C97.8778398,39.9984256 97.9537638,42.2114049 97.9537638,45.3728512 L97.9537638,50.6271488 Z M89.9626866,40.5358625 C89.9626866,39.1068887 89.8835991,38.1932444 89.7254218,37.7949022 C89.5672445,37.39656 89.2414042,37.1973918 88.747891,37.1973918 C88.3303029,37.1973918 88.0107896,37.3586232 87.7893413,37.6810907 C87.5678931,38.0035582 87.4571707,38.9551393 87.4571707,40.5358625 L87.4571707,54.8761114 C87.4571707,56.6591672 87.5299311,57.759334 87.6754543,58.1766449 C87.8209774,58.5939559 88.1594717,58.8026082 88.6909474,58.8026082 C89.2350773,58.8026082 89.5830622,58.5623419 89.7349124,58.081802 C89.8867626,57.6012622 89.9626866,56.4568358 89.9626866,54.6484884 L89.9626866,40.5358625 Z M131,32.6449318 L127.450519,63.3550682 L117.466418,63.3550682 C116.555317,58.6381902 115.751788,53.2764576 115.055808,47.2697095 C114.739453,49.836804 113.999195,55.1985366 112.83501,63.3550682 L102.907852,63.3550682 L99.33939,32.6449318 L107.102693,32.6449318 L107.918884,43.3621814 L108.754056,53.7000593 C109.045102,48.350892 109.779034,41.3325864 110.955873,32.6449318 L119.26963,32.6449318 C119.383518,33.5427826 119.67456,36.9191567 120.142764,42.7741553 L121.015899,54.439834 C121.458795,47.016758 122.199054,39.7518632 123.236697,32.6449318 L131,32.6449318 Z"/>
    <path fill="#EFEFEF" fill-rule="nonzero" stroke="#102052" stroke-width="2" d="M67.5478516,89.8068337 L65.5463863,104.688477 L56.9246935,104.688477 L54.703125,89.3811529 L54.703125,104.688477 L43,104.688477 L43,60 L59.2191545,60 L59.356874,60.8377934 C59.7803574,63.413984 60.2299041,66.4462205 60.7050796,69.9309104 L61.1930841,73.3974254 L62.8943445,60 L79.2509766,60 L79.2509766,104.688477 L67.5478516,104.688477 L67.5478516,89.8068337 Z M94.8076172,70.5429688 L94.8076172,76.6376953 L101.742188,76.6376953 L101.742188,86.7587891 L94.8076172,86.7587891 L94.8076172,94.1455078 L102.955078,94.1455078 L102.955078,104.688477 L81.7070312,104.688477 L81.7070312,60 L102.216797,60 L102.216797,70.5429688 L94.8076172,70.5429688 Z"/>
</svg>
