<svg xmlns="http://www.w3.org/2000/svg" width="144" height="144" viewBox="0 0 144 144">
  <path id="btn_twitch_game_title" fill="#EFEFEF" fill-rule="evenodd" d="M104.822027,94.8220267 L116,106 L110,112 L98.8220267,100.822027 C95.702493,102.833049 91.9875245,104 88,104 C76.954305,104 68,95.045695 68,84 C68,72.954305 76.954305,64 88,64 C99.045695,64 108,72.954305 108,84 C108,87.9875245 106.833049,91.702493 104.822027,94.8220267 Z M88,60 C86.6371512,60 85.3008339,60.1135952 84,60.3318338 L84,56 L56,56 L56,92 L65.3656457,92 C65.8595033,93.3972518 66.4790772,94.7351177 67.2107766,96.0000067 L52,96 L52,52 L88,52 L88,60 Z M80,48 L76,48 L76,44 L44,44 L44,80 L48,80 L48,84 L40,84 L40,40 L80,40 L80,48 Z M88,96 C94.627417,96 100,90.627417 100,84 C100,77.372583 94.627417,72 88,72 C81.372583,72 76,77.372583 76,84 C76,90.627417 81.372583,96 88,96 Z"/>
</svg>
