<svg xmlns="http://www.w3.org/2000/svg" width="144" height="144" viewBox="0 0 144 144">
  <path id="btn_twitch_play_ad" fill="#EFEFEF" fill-rule="evenodd" d="M112,42 L112,102 L82,102 L74,94 L74,102 L50,102 L44.418457,98.418457 L32,86 L32,58 L40,50 L74,50 L74,56 L80,50 L92,50 L92,42 L112,42 Z M81.9366903,90 L108,90 L108,46 L96,46 L96,54 L82,54 L74,62 L74.3529412,82 L81.9366903,90 Z M70,90 L70,54 L44,54 L36,62 L36,82 L44,90 L70,90 Z M98,66 L98,78 L86,78 L86,66 L98,66 Z M48,66 L60,66 L60,78 L48,78 L48,66 Z"/>
</svg>
