<svg xmlns="http://www.w3.org/2000/svg" width="144" height="144" viewBox="0 0 144 144">
  <g id="btn_twitter_post_message_attachment" fill="#EFEFEF" fill-rule="evenodd" transform="translate(43 43)">
    <path d="M47.9914846,44 L25.1111111,44 L8,58 L8.0085154,44 C3.58553448,44 1.66533454e-15,40.4314134 0,36.019894 L0,7.98010603 C-1.66533454e-15,3.57281517 3.57805502,0 8.0085154,0 L47.9914846,0 C52.4144655,0 56,3.56858656 56,7.98010603 L56,36.019894 C56,40.4271848 52.421945,44 47.9914846,44 Z M8,20 L8,24 L40,24 L40,20 L8,20 Z M8,28 L8,32 L48,32 L48,28 L8,28 Z M8,12 L8,16 L48,16 L48,12 L8,12 Z"/>
    <path id="paperclip" fill-rule="nonzero" d="M76,88 C73,88 69,86 69,81.8674564 C69,70.6224855 69,63.6666667 69,61 C69,57 72.5,56 74.5,56 C76.5,56 80,57 80,61 C80,65 80,75.5 80,78 C80,80.5 78.00564,82 76,82 C73.99436,82 72,80.5 72,78 C72,76.3333333 72,71.6666667 72,64 C72,63.4389851 72.42592,63 73,63 C73.57408,63 74,63.4389851 74,64 C74,71.6666667 74,76.1666667 74,77.5 C74,79.5 75,80 76,80 C77,80 78,79.5 78,77.5 C78,75.5 78,63 78,61 C78,59 76,58 74.5,58 C73,58 71,59 71,61 C71,62.3333333 71,69.1666667 71,81.5 C71,84 73,86 76,86 C79,86 81,84 81,81.5 C81,79 81,64.5 81,64 C81,63.5 81.42592,63 82,63 C82.57408,63 83,63.5 83,64 C83,64.5 83,78 83,82 C83,86 79,88 76,88 Z"/>
  </g>
</svg>
