<svg xmlns="http://www.w3.org/2000/svg" width="144" height="144" viewBox="0 0 144 144">
  <path id="btn_custom_trigger_hotkey2" fill="#EFEFEF" fill-rule="evenodd" d="M40,58 L40,44.9959374 C40,43.3413269 41.336731,42 43.0010118,42 L100.998988,42 C102.656401,42 104,43.3373097 104,44.9959374 L104,58 L108,58 L112,62 L112,74 L108,78 L104,78 L104,97.9934444 C104,100.206204 102.204624,102 99.9965134,102 L44.0034866,102 C41.792422,102 40,100.204319 40,97.9934444 L40,78 L36,78 L32,74 L32,62 L36,58 L40,58 Z M44,58 L44,78 L44,95.9934007 C44,97.0974426 44.8923277,98 45.9930696,98 L98.0069304,98 C99.0976918,98 100,97.1016149 100,95.9934007 L100,78 L100,58 L100,48.0065993 C100,46.9025574 99.1076723,46 98.0069304,46 L45.9930696,46 C44.9023082,46 44,46.8983851 44,48.0065993 L44,58 Z M56,56 L64,60.6188022 L64,69.8564065 L56,74.4752086 L48,69.8564065 L48,60.6188022 L56,56 Z M72,78 L88,82 L88,86 L72,90 L56,86 L56,82 L72,78 Z M88,55 L96,59.6188022 L96,68.8564065 L88,73.4752086 L80,68.8564065 L80,59.6188022 L88,55 Z"/>
</svg>
