<svg xmlns="http://www.w3.org/2000/svg" width="144" height="144" viewBox="0 0 144 144">
  <g id="btn_system_launch" fill="none" fill-rule="evenodd">
    <path id="btn_launch" fill="#EFEFEF" d="M54.6707475,78 L39,78 L55,64 C55,64 57.4458263,64.7665802 59.3675348,65.4194236 C60.4720755,63.2569463 61.6908998,61.3587516 63,60 C70.9483505,51.7501857 82.69922,42.8055677 105,40 C105,66 91,81 79,86 C80,89 81,92 81,92 L65,104 L65,90 C65,90 62.1018399,89.9802226 61,90 L57,96 L57,92 L55,90 L51,90 L53,86 C53.0313683,84.8681869 53.6268178,81.759872 54.6707475,78 Z M53,92 L55,94 L49,104 L41,98 L53,92 Z M89,60 C91.2055385,60 93,58.2055385 93,56 C93,53.7944615 91.2055385,52 89,52 C86.7944615,52 85,53.7944615 85,56 C85,58.2055385 86.7944615,60 89,60 Z M81,68 C83.2055385,68 85,66.2055385 85,64 C85,61.7944615 83.2055385,60 81,60 C78.7944615,60 77,61.7944615 77,64 C77,66.2055385 78.7944615,68 81,68 Z"/>
  </g>
</svg>
