<svg xmlns="http://www.w3.org/2000/svg" width="144" height="144" viewBox="0 0 144 144">
  <path id="btn_twitch_post_message" fill="#EFEFEF" fill-rule="evenodd" d="M91.9914846,88 L69.1111111,88 L52,102 L52.0085154,88 C47.5855345,88 44,84.4314134 44,80.019894 L44,51.980106 C44,47.5728152 47.578055,44 52.0085154,44 L91.9914846,44 C96.4144655,44 100,47.5685866 100,51.980106 L100,80.019894 C100,84.4271848 96.421945,88 91.9914846,88 Z M52,64 L52,68 L84,68 L84,64 L52,64 Z M52,72 L52,76 L92,76 L92,72 L52,72 Z M52,56 L52,60 L92,60 L92,56 L52,56 Z"/>
</svg>
