<svg xmlns="http://www.w3.org/2000/svg" width="144" height="144" viewBox="0 0 144 144">
  <path id="btn_custom_toggle_hotkey" fill="#EFEFEF" fill-rule="evenodd" d="M23,52.0049233 C23,50.8976348 23.8984375,50 24.9974983,50 L101.002502,50 C102.10569,50 103,50.8988551 103,52.0049233 L103,91.9950767 C103,93.1023652 102.101562,94 101.002502,94 L24.9974983,94 C23.8943104,94 23,93.1011449 23,91.9950767 L23,52.0049233 Z M27,55.0004194 L27,88.9995806 C27,89.544827 27.4434236,90 27.9904144,90 L98.0095856,90 C98.5588838,90 99,89.552097 99,88.9995806 L99,55.0004194 C99,54.455173 98.5565764,54 98.0095856,54 L27.9904144,54 C27.4411162,54 27,54.447903 27,55.0004194 Z M67,58 L95,58 L95,86 L67,86 L67,58 Z M75,66 L75,78 L79,78 L79,66 L75,66 Z M83,66 L83,78 L87,78 L87,66 L83,66 Z"/>
</svg>
