<svg xmlns="http://www.w3.org/2000/svg" width="144" height="144" viewBox="0 0 144 144">
  <path id="btn_obs_toggle_source" fill="#EFEFEF" fill-rule="evenodd" d="M62.8797164,43.0018928 L79.2217529,41.0724992 L82.6032091,52.6257898 L66.2515537,54.5223187 L62.8797164,43.0018928 Z M47.9587266,44.7635131 L51.3217814,56.2539321 L36.6674623,57.9535973 L34,46.4115254 L47.9587266,44.7635131 Z M94.1427427,39.3108789 L105.245936,38 L109.308766,49.5283749 L97.5329814,50.8941764 L94.1427427,39.3108789 Z M68.2451068,62 L83.6816936,62 L78.5457447,74 L93.9823315,74 L99.1182803,62 L108.545745,62 L108.545745,101.997181 C108.545745,104.207877 106.80244,106 104.581657,106 L40.547237,106 C38.3372738,106 36.5457447,104.218723 36.5457447,101.997181 L36.5457447,62 L52.80852,62 L47.6725711,74 L63.1091579,74 L68.2451068,62 Z"/>
</svg>
