<svg xmlns="http://www.w3.org/2000/svg" width="144" height="144" viewBox="0 0 144 144">
  <g id="btn_streamlabs_skip" fill="none" fill-rule="evenodd" transform="translate(40 40)">
    <path fill="#375650" d="M45.8593381,30.0583121 L48.5134506,26.8952641 L53.8492582,39.2049821 L40.7999992,36.0877974 L43.4189197,32.9666896 C40.0223045,29.6555632 35.8826646,28 31,28 C24.8031872,28 19.1365205,31.3333333 14,38 L12,34 C18.1968128,27.3333333 24.5301462,24 31,24 C36.0358211,24 40.9889338,26.0194374 45.8593381,30.0583121 Z M4,0 L60,0 C62.209139,-4.05812251e-16 64,1.790861 64,4 L64,60 C64,62.209139 62.209139,64 60,64 L4,64 C1.790861,64 2.705415e-16,62.209139 0,60 L0,4 C-2.705415e-16,1.790861 1.790861,4.05812251e-16 4,0 Z M4,4 L4,60 L60,60 L60,4 L4,4 Z M9.39130435,52 L54.6086957,52 C55.3770918,52 56,52.6229082 56,53.3913043 L56,54.6086957 C56,55.3770918 55.3770918,56 54.6086957,56 L9.39130435,56 C8.62290817,56 8,55.3770918 8,54.6086957 L8,53.3913043 C8,52.6229082 8.62290817,52 9.39130435,52 Z M9.39130435,8 L34.6086957,8 C35.3770918,8 36,8.62290817 36,9.39130435 L36,10.6086957 C36,11.3770918 35.3770918,12 34.6086957,12 L9.39130435,12 C8.62290817,12 8,11.3770918 8,10.6086957 L8,9.39130435 C8,8.62290817 8.62290817,8 9.39130435,8 Z M45.3913043,8 L54.6086957,8 C55.3770918,8 56,8.62290817 56,9.39130435 L56,10.6086957 C56,11.3770918 55.3770918,12 54.6086957,12 L45.3913043,12 C44.6229082,12 44,11.3770918 44,10.6086957 L44,9.39130435 C44,8.62290817 44.6229082,8 45.3913043,8 Z"/>
    <rect id="spot2" width="28" height="4" x="8" y="8" fill="#F8E700" rx="1.391"/>
    <rect id="spot1" width="12" height="4" x="44" y="8" fill="#A6E2FF" rx="1.391"/>
  </g>
</svg>
