<svg xmlns="http://www.w3.org/2000/svg" width="144" height="144" viewBox="0 0 144 144">
  <g fill="none" fill-rule="evenodd">
    <rect width="144" height="144" fill="#0A1423" fill-rule="nonzero" rx="22"/>
    <path fill="#3D6EE0" d="M35,36 L109,36 C110.656854,36 112,37.3431457 112,39 L112,101 C112,102.656854 110.656854,104 109,104 L35,104 C33.3431457,104 32,102.656854 32,101 L32,39 C32,37.3431457 33.3431457,36 35,36 Z M38,40 C36.8954305,40 36,40.8954305 36,42 L36,98 C36,99.1045695 36.8954305,100 38,100 L106,100 C107.104569,100 108,99.1045695 108,98 L108,42 C108,40.8954305 107.104569,40 106,40 L38,40 Z M59.75,56 L84.25,56 C85.2164983,56 86,56.7835017 86,57.75 L86,82.25 C86,83.2164983 85.2164983,84 84.25,84 L59.75,84 C58.7835017,84 58,83.2164983 58,82.25 L58,57.75 C58,56.7835017 58.7835017,56 59.75,56 Z"/>
    <rect width="8" height="4" x="84" y="44" fill="#0865D1" fill-rule="nonzero" rx="1"/>
    <rect width="8" height="4" x="96" y="44" fill="#7ED321" fill-rule="nonzero" rx="1"/>
    <rect width="24" height="4" x="40" y="44" fill="#21D330" fill-rule="nonzero"/>
  </g>
</svg>
