<svg xmlns="http://www.w3.org/2000/svg" width="144" height="144" viewBox="0 0 144 144">
  <g fill="none">
    <rect width="144" height="144" fill="#0A1423" rx="22"/>
    <path fill="#3D6EE0" d="M35,36 L109,36 C110.656854,36 112,37.3431457 112,39 L112,101 C112,102.656854 110.656854,104 109,104 L35,104 C33.3431457,104 32,102.656854 32,101 L32,39 C32,37.3431457 33.3431457,36 35,36 Z M38,40 C36.8954305,40 36,40.8954305 36,42 L36,98 C36,99.1045695 36.8954305,100 38,100 L106,100 C107.104569,100 108,99.1045695 108,98 L108,42 C108,40.8954305 107.104569,40 106,40 L38,40 Z M61.4961389,54.8549365 L86.4805745,69.1317569 C86.9600919,69.4057668 87.1266887,70.0166215 86.8526787,70.4961389 C86.7640894,70.6511702 86.6356058,70.7796538 86.4805745,70.8682431 L61.4961389,85.1450635 C61.0166215,85.4190734 60.4057668,85.2524767 60.1317569,84.7729593 C60.0454153,84.6218616 60,84.4508473 60,84.2768203 L60,55.7231797 C60,55.1708949 60.4477153,54.7231797 61,54.7231797 C61.1740269,54.7231797 61.3450412,54.768595 61.4961389,54.8549365 Z"/>
    <rect width="8" height="4" x="84" y="44" fill="#0865D1" rx="1"/>
    <rect width="8" height="4" x="96" y="44" fill="#7ED321" rx="1"/>
    <rect width="24" height="4" x="40" y="44" fill="#21D330"/>
  </g>
</svg>
