<svg width="48px" height="48px" viewBox="0 0 48 48" xmlns="http://www.w3.org/2000/svg">
  <g id="btn_system_custom_folder" fill="none" fill-rule="evenodd">
    <path id="btn_custom_folder_new" fill="#EFEFEF"  d="M32.5,31 L32.5,21 C32.5,20.72386 32.2761,20.5 32,20.5 L24.4142,20.5 C23.7512,20.5 23.1153,20.23661 22.6464,19.76777 L20.52513,17.64645 C20.43136,17.55268 20.30418,17.5 20.17157,17.5 L16,17.5 C15.72386,17.5 15.5,17.72386 15.5,18 L15.5,31 C15.5,31.2762 15.72386,31.5 16,31.5 L32,31.5 C32.2761,31.5 32.5,31.2762 32.5,31 Z M16,16 C14.89543,16 14,16.89543 14,18 L14,31 C14,32.1046 14.89543,33 16,33 L32,33 C33.1046,33 34,32.1046 34,31 L34,21 C34,19.89543 33.1046,19 32,19 L24.4142,19 C24.149,19 23.8946,18.89464 23.7071,18.70711 L21.58579,16.58579 C21.21071,16.21071 20.70201,16 20.17157,16 L16,16 Z"></path>
    </g>
</svg>