<svg xmlns="http://www.w3.org/2000/svg" xmlns:xlink="http://www.w3.org/1999/xlink" width="144" height="144" viewBox="0 0 144 144">
  <defs>
    <path id="path-1" d="M36,48 L40,40 L60,40 L64,48 L110.002502,48 C111.10569,48 112,48.9023082 112,49.9930696 L112,102.00693 C112,103.107672 111.101562,104 110.002502,104 L33.9974983,104 C32.8943104,104 32,103.097692 32,102.00693 L32,49.9930696 C32,48.8923277 32.8984375,48 33.9974983,48 L36,48 Z M36,53.0025482 L36,98.9974518 C36,99.5554693 36.4434236,100 36.9904144,100 L107.009586,100 C107.558884,100 108,99.5511439 108,98.9974518 L108,53.0025482 C108,52.4445307 107.556576,52 107.009586,52 L36.9904144,52 C36.4411162,52 36,52.4488561 36,53.0025482 Z"/>
  </defs>
  <g id="btn_xsplit_folder" fill="none" fill-rule="evenodd">
    <mask id="mask-2" fill="#fff">
      <use xlink:href="#path-1"/>
    </mask>
    <use fill="#EFEFEF" xlink:href="#path-1"/>
  </g>
</svg>
