<svg xmlns="http://www.w3.org/2000/svg" width="144" height="144" viewBox="0 0 144 144">
  <path id="btn_streamlabs_show_media_sharing" fill="#375650" fill-rule="evenodd" d="M44,40 L100,40 C102.209139,40 104,41.790861 104,44 L104,100 C104,102.209139 102.209139,104 100,104 L44,104 C41.790861,104 40,102.209139 40,100 L40,44 C40,41.790861 41.790861,40 44,40 Z M44,44 L44,100 L100,100 L100,44 L44,44 Z M88,65.3333333 L96,57.3333333 L96,86.6666667 L88,78.6666667 L88,84 C88,86.209139 86.209139,88 84,88 L52,88 C49.790861,88 48,86.209139 48,84 L48,60 C48,57.790861 49.790861,56 52,56 L84,56 C86.209139,56 88,57.790861 88,60 L88,65.3333333 Z M68,80 C73.1546577,80 77.8213243,77.3333333 82,72 C77.8213243,66.6666667 73.1546577,64 68,64 C62.8453423,64 58.1786757,66.6666667 54,72 C58.1786757,77.3333333 62.8453423,80 68,80 Z M68,76 C65.790861,76 64,74.209139 64,72 C64,69.790861 65.790861,68 68,68 C70.209139,68 72,69.790861 72,72 C72,74.209139 70.209139,76 68,76 Z"/>
</svg>
