<svg xmlns="http://www.w3.org/2000/svg" width="144" height="144" viewBox="0 0 144 144">
  <path id="btn_keybrightness_min" fill="#EFEFEF" fill-rule="evenodd" d="M72,88 C63.163444,88 56,80.836556 56,72 C56,63.163444 63.163444,56 72,56 C80.836556,56 88,63.163444 88,72 C88,80.836556 80.836556,88 72,88 Z M72,84 C78.627417,84 84,78.627417 84,72 C84,65.372583 78.627417,60 72,60 C65.372583,60 60,65.372583 60,72 C60,78.627417 65.372583,84 72,84 Z M91.4131442,63.101217 C90.8693021,61.873046 90.2163371,60.7039688 89.466547,59.6062833 L98.7128129,54.2679492 L100.712813,57.7320508 L91.4131442,63.101217 Z M74,50.1656028 C73.11105,50.056288 72.2056919,50 71.2871871,50 C70.8551022,50 70.4259267,50.0124564 70,50.0370296 L70,40 L74,40 L74,50.1656028 Z M53.5211237,59.0218147 C52.7355745,60.0953383 52.044974,61.2427206 51.4616845,62.4515991 L43.2871871,57.7320508 L45.2871871,54.2679492 L53.5211237,59.0218147 Z M51.4616845,81.5484009 C52.044974,82.7572794 52.7355745,83.9046617 53.5211237,84.9781853 L45.2871871,89.7320508 L43.2871871,86.2679492 L51.4616845,81.5484009 Z M70,93.9629704 C70.4259267,93.9875436 70.8551022,94 71.2871871,94 C72.2056919,94 73.11105,93.943712 74,93.8343972 L74,104 L70,104 L70,93.9629704 Z M89.466547,84.3937167 C90.2163371,83.2960312 90.8693021,82.126954 91.4131442,80.898783 L100.712813,86.2679492 L98.7128129,89.7320508 L89.466547,84.3937167 Z"/>
</svg>
