<svg xmlns="http://www.w3.org/2000/svg" width="144" height="144" viewBox="0 0 144 144">
  <g fill="none">
    <rect width="144" height="144" fill="#0A1423" rx="22"/>
    <path fill="#3D6EE0" d="M54.4811011,54.1217659 L90.4811011,54.1217659 L90.4811011,62.1217659 L86.4811011,62.1217659 L86.4811011,58.1217659 L58.4811011,58.1217659 L58.4811011,86.1217659 L62.4811011,86.1217659 L62.4811011,90.1217659 L54.4811011,90.1217659 L54.4811011,54.1217659 Z M44.4811011,44.1217659 L80.4811011,44.1217659 L80.4811011,52.1217659 L76.4811011,52.1217659 L76.4811011,48.1217659 L48.4811011,48.1217659 L48.4811011,76.1217659 L52.4811011,76.1217659 L52.4811011,80.1217659 L44.4811011,80.1217659 L44.4811011,44.1217659 Z M64.4811011,64.1217659 L100.481101,64.1217659 L100.481101,100.121766 L64.4811011,100.121766 L64.4811011,64.1217659 Z M68.4811011,68.1217659 L68.4811011,96.1217659 L96.4811011,96.1217659 L96.4811011,68.1217659 L68.4811011,68.1217659 Z" transform="rotate(-45 72.481 72.122)"/>
  </g>
</svg>
