<svg xmlns="http://www.w3.org/2000/svg" width="144" height="144" viewBox="0 0 144 144">
  <path id="btn_egc_select_scene" fill="#EFEFEF" fill-rule="evenodd" d="M40,104 L40,56 L104,56 L104,104 L40,104 Z M44,100 L100,100 L100,60 L44,60.1831264 L44,100 Z M92.000782,72 L96.000782,80 L84,80 L88.000782,72 L92.000782,72 Z M96.000782,88 L96.000782,96 L48,96 L48.000782,88 L96.000782,88 Z M48,64 L64,64 L64,72 L48,72 L48,64 Z M90,72 C87.790861,72 86,70.209139 86,68 C86,65.790861 87.790861,64 90,64 C92.209139,64 94,65.790861 94,68 C94,70.209139 92.209139,72 90,72 Z M48.0125125,52 L48.0125125,48 L96,48 L96,52 L48.0125125,52 Z M60,44 L60,40 L82,40 L82,44 L60,44 Z"/>
</svg>
