<svg xmlns="http://www.w3.org/2000/svg" width="144" height="144" viewBox="0 0 144 144">
  <g fill="none">
    <rect width="144" height="144" fill="#0A1423" rx="22"/>
    <path fill="#3D6EE0" d="M53.6707475,74 L38,74 L54,60 C54,60 56.4458263,60.7665802 58.3675348,61.4194236 C59.4720755,59.2569463 60.6908998,57.3587516 62,56 C69.9483505,47.7501857 81.69922,38.8055677 104,36 C104,62 90,77 78,82 C79,85 80,88 80,88 L64,100 L64,86 C64,86 61.1018399,85.9802226 60,86 L56,92 L56,88 L54,86 L50,86 L52,82 C52.0313683,80.8681869 52.6268178,77.759872 53.6707475,74 Z M52,88 L54,90 L48,100 L40,94 L52,88 Z M88,56 C90.2055385,56 92,54.2055385 92,52 C92,49.7944615 90.2055385,48 88,48 C85.7944615,48 84,49.7944615 84,52 C84,54.2055385 85.7944615,56 88,56 Z M80,64 C82.2055385,64 84,62.2055385 84,60 C84,57.7944615 82.2055385,56 80,56 C77.7944615,56 76,57.7944615 76,60 C76,62.2055385 77.7944615,64 80,64 Z"/>
  </g>
</svg>
