<svg xmlns="http://www.w3.org/2000/svg" width="144" height="144" viewBox="0 0 144 144">
  <g fill="none">
    <rect width="144" height="144" fill="#0A1423" rx="22"/>
    <path fill="#3D6EE0" d="M94,46 L94,38 L38,38 L38,94 L46,94 L46,46 L94,46 Z M98,46 L110,46 L110,110 L46,110 L46,98 L34,98 L34,34 L98,34 L98,46 Z M50,50 L50,106 L106,106 L106,50 L50,50 Z M62,62 L70,62 L70,70 L62,70 L62,62 Z M74,62 L82,62 L82,70 L74,70 L74,62 Z M86,62 L94,62 L94,70 L86,70 L86,62 Z M86,74 L94,74 L94,82 L86,82 L86,74 Z M74,74 L82,74 L82,82 L74,82 L74,74 Z M62,74 L70,74 L70,82 L62,82 L62,74 Z M62,86 L70,86 L70,94 L62,94 L62,86 Z M74,86 L82,86 L82,94 L74,94 L74,86 Z M86,86 L94,86 L94,94 L86,94 L86,86 Z"/>
  </g>
</svg>
