<svg xmlns="http://www.w3.org/2000/svg" xmlns:xlink="http://www.w3.org/1999/xlink" width="144" height="144"><defs><path id="a" d="M40 72C22.327 72 8 57.673 8 40 8 22.327 22.327 8 40 8c17.673 0 32 14.327 32 32 0 17.673-14.327 32-32 32zm0-2c16.569 0 30-13.431 30-30 0-16.569-13.431-30-30-30-16.569 0-30 13.431-30 30 0 16.569 13.431 30 30 30zm-8-41.776a1.306 1.306 0 0 1 2.008-1.1l18.461 11.775a1.306 1.306 0 0 1 0 2.202L34.008 52.877a1.306 1.306 0 0 1-2.008-1.1V28.223z"/></defs><g fill="none" fill-rule="evenodd"><rect width="144" height="144" fill="#1ED760" rx="22"/><use fill="#191414" xlink:href="#a" transform="translate(32 32)"/></g></svg>