<svg xmlns="http://www.w3.org/2000/svg" width="144" height="144" viewBox="0 0 144 144">
  <path id="btn_egc_toggle_microphone_inactive" fill="#1652FF" fill-rule="evenodd" d="M64.3262246,91.1834434 L72.0005663,95.4988987 L80,91.0066079 L80,104.508811 L72.0005663,109 L64,104.508811 L64,91.509668 L64.3262246,91.1834434 Z M88,67.509668 L88,67.6559817 L87.6515371,67.8581309 L88,67.509668 Z M79.9997169,75.5099511 L79.9997169,76.9793932 L88,72.2970807 L88,81.6353749 L72.0005663,91 L67.2751694,88.2344986 L79.9997169,75.5099511 Z M56.0561623,76.8260887 L56,72.2970807 L58.9017919,73.9804591 L56.0561623,76.8260887 Z M61.8389791,71.0432719 L56,67.6559817 L56,62.967945 L64.0002831,67.6090441 L64.0002831,62.9187178 L56,58.2776188 L56,53.6101889 L64.0002831,58.2524327 L64.0002831,53.6388094 L56,48.9977104 L56,44.3382942 L72.0005663,35 L88,44.3382942 L88,44.882251 L61.8389791,71.0432719 Z M100.225397,39 L105.882251,44.6568542 L43.6568542,106.882251 L38,101.225397 L100.225397,39 Z"/>
</svg>
