<svg xmlns="http://www.w3.org/2000/svg" width="144" height="144" viewBox="0 0 144 144">
  <path id="btn_custom_open_website" fill="#EFEFEF" fill-rule="evenodd" d="M79.7790074,66.2491859 C77.3683644,66.0891838 74.7701986,66 72,66 C69.2298014,66 66.6316356,66.0891838 64.2209926,66.2491859 C64.0750866,68.2299195 64,70.1744033 64,72 C64,73.8255967 64.0750866,75.7700805 64.2209926,77.7508141 C66.6316356,77.9108162 69.2298014,78 72,78 C74.7701986,78 77.3683644,77.9108162 79.7790074,77.7508141 C79.9249134,75.7700805 80,73.8255967 80,72 C80,70.1744033 79.9249134,68.2299195 79.7790074,66.2491859 Z M79.3943478,62.2664929 C78.2768767,52.9266112 75.6655553,44 72,44 C68.3344447,44 65.7231233,52.9266112 64.6056522,62.2664929 C66.9790927,62.0921481 69.4547934,62 72,62 C74.5452066,62 77.0209073,62.0921481 79.3943478,62.2664929 Z M79.3943478,81.7335071 C77.0209073,81.9078519 74.5452066,82 72,82 C69.4547934,82 66.9790927,81.9078519 64.6056522,81.7335071 C65.7231233,91.0733888 68.3344447,100 72,100 C75.6655553,100 78.2768767,91.0733888 79.3943478,81.7335071 Z M65.9758168,99.3524146 C63.3918406,95.0013268 61.5605115,88.1662455 60.6519345,81.3570004 C53.8386046,80.5536791 48.1379662,79.0462836 44.4641421,77.1125423 C46.5007336,88.1841861 55.03404,96.960225 65.9758168,99.3524146 Z M78.0241832,99.3524146 C88.96596,96.960225 97.4992664,88.1841861 99.5358579,77.1125423 C95.8620338,79.0462836 90.1613954,80.5536791 83.3480655,81.3570004 C82.4394885,88.1662455 80.6081594,95.0013268 78.0241832,99.3524146 Z M65.9758168,44.6475854 C55.03404,47.039775 46.5007336,55.8158139 44.4641421,66.8874577 C48.1379662,64.9537164 53.8386046,63.4463209 60.6519345,62.6429996 C61.5605115,55.8337545 63.3918406,48.9986732 65.9758168,44.6475854 Z M78.0241832,44.6475854 C80.6081594,48.9986732 82.4394885,55.8337545 83.3480655,62.6429996 C90.1613954,63.4463209 95.8620338,64.9537164 99.5358579,66.8874577 C97.4992664,55.8158139 88.96596,47.039775 78.0241832,44.6475854 Z M83.7722209,66.5945021 C83.9228644,68.4537028 84,70.2733777 84,72 C84,73.7266223 83.9228644,75.5462972 83.7722209,77.4054979 C94.0551075,76.2975054 100,73.8606074 100,72 C100,70.1393926 94.0551075,67.7024946 83.7722209,66.5945021 Z M60.2277791,77.4054979 C60.0771356,75.5462972 60,73.7266223 60,72 C60,70.2733777 60.0771356,68.4537028 60.2277791,66.5945021 C49.9448925,67.7024946 44,70.1393926 44,72 C44,73.8606074 49.9448925,76.2975054 60.2277791,77.4054979 Z M72,40 C89.6761905,40 104,54.3238095 104,72 C104,89.6761905 89.6761905,104 72,104 C54.3238095,104 40,89.6761905 40,72 C40,54.3238095 54.3238095,40 72,40 Z"/>
</svg>
