<svg xmlns="http://www.w3.org/2000/svg" width="144" height="144" viewBox="0 0 144 144">
  <path id="btn_media_volume_up" fill="#EFEFEF" fill-rule="evenodd" d="M44,64 L62,54 L62,90 L44,80 L44,64 Z M34,68 L40,65 L40,79 L34,76 L34,68 Z M69.9997641,53.3333333 L71.9997641,52 L81.9997641,72.0716846 L71.9997641,92 L69.9997641,90.6666667 L79.3330974,72.0716846 L69.9997641,53.3333333 Z M66.3330974,62.6666667 L68.3330974,61.3333333 L73.6664307,72 L68.3330974,82.6666667 L66.3330974,81.3333333 L70.9997641,72 L66.3330974,62.6666667 Z M102,62 L102,70 L110,70 L110,74 L102,74 L102,82 L98,82 L98,74 L90,74 L90,70 L98,70 L98,62 L102,62 Z"/>
</svg>
