<svg xmlns="http://www.w3.org/2000/svg" width="144" height="144" viewBox="0 0 144 144">
  <g id="btn_xsplit_toggle_media_source_inactive" fill="none" fill-rule="evenodd">
    <rect id="XSPLIT_Background_inactive" width="144" height="144" fill="#004D73" rx="22"/>
    <path fill="#EFEFEF" d="M68,106 L80,96 L84,100 L96,90 L108,102 L108,78 L68,78 L68,106 Z M112,110 L64,110 L64,74 L112,74 L112,110 Z M80,70 L80,72 L62,72 L62,74 L32,74 L32,62 L36,62 L36,46 L32,46 L32,34 L80,34 L80,38 L76,38 L76,42 L80,42 L80,46 L76,46 L76,62 L80,62 L80,66 L76,66 L76,70 L80,70 Z M72,62 L72,46 L40.1904762,46 L40.1904762,62 L72,62 Z M76,82 C78.21,82 80,83.79 80,86 C80,88.21 78.21,90 76,90 C73.79,90 72,88.21 72,86 C72,83.79 73.79,82 76,82 Z M68,38 L68,42 L72,42 L72,38 L68,38 Z M60,38 L60,42 L64,42 L64,38 L60,38 Z M52,38 L52,42 L56,42 L56,38 L52,38 Z M44,38 L44,42 L48,42 L48,38 L44,38 Z M36,38 L36,42 L40,42 L40,38 L36,38 Z M68,70 L72,70 L72,66 L68,66 L68,70 Z M60,70 L64,70 L64,66 L60,66 L60,70 Z M52,70 L56,70 L56,66 L52,66 L52,70 Z M44,70 L48,70 L48,66 L44,66 L44,70 Z M36,70 L40,70 L40,66 L36,66 L36,70 Z"/>
  </g>
</svg>
