<svg xmlns="http://www.w3.org/2000/svg" width="144" height="144" viewBox="0 0 144 144">
  <g id="btn_twitch_create_clip_inactive" fill="none" fill-rule="evenodd">
    <rect id="TWITCH_Background_inactive" width="144" height="144" fill="#362759" rx="22"/>
    <path fill="#EFEFEF" d="M102,76 L96,76 L96,72 L102,72 L102,66 L106,66 L106,72 L112,72 L112,76 L106,76 L106,82 L102,82 L102,76 Z M88,84 L88,60.0137345 L40,60.0961414 L40,84 L88,84 Z M92,84 L96,84 L96,100 L32,100 L32,84 L36,84 L36,60.1030086 L32,60.1098758 L32,44 L96,44 L96,60 L92,60.0068672 L92,84 Z M36,88 L36,96 L44,96 L44,88 L36,88 Z M52,88 L52,96 L60,96 L60,88 L52,88 Z M68,88 L68,96 L76,96 L76,88 L68,88 Z M84,88 L84,96 L92,96 L92,88 L84,88 Z M36,48 L36,56 L44,56 L44,48 L36,48 Z M52,48 L52,56 L60,56 L60,48 L52,48 Z M68,48 L68,56 L76,56 L76,48 L68,48 Z M84,48 L84,56 L92,56 L92,48 L84,48 Z"/>
  </g>
</svg>
