<svg xmlns="http://www.w3.org/2000/svg" width="144" height="144" viewBox="0 0 144 144">
  <path id="btn_streamlabs_profile" fill="#375650" fill-rule="evenodd" d="M44,40 L100,40 C102.209139,40 104,41.790861 104,44 L104,100 C104,102.209139 102.209139,104 100,104 L44,104 C41.790861,104 40,102.209139 40,100 L40,44 C40,41.790861 41.790861,40 44,40 Z M44,44 L44,100 L100,100 L100,44 L44,44 Z M66,56 L90,56 L90,62 L66,62 L66,56 Z M56,56 L62,56 L62,62 L56,62 L56,56 Z M66,80 L90,80 L90,86 L66,86 L66,80 Z M56,80 L62,80 L62,86 L56,86 L56,80 Z M66,68 L90,68 L90,74 L66,74 L66,68 Z M56,68 L62,68 L62,74 L56,74 L56,68 Z"/>
</svg>
