<svg xmlns="http://www.w3.org/2000/svg" width="144" height="144" viewBox="0 0 144 144">
  <path id="btn_streamlabs_credits" fill="#375650" fill-rule="evenodd" d="M60,56 L60,60 L50,60 C48.8954305,60 48,59.1045695 48,58 C48,56.8954305 48.8954305,56 50,56 L60,56 Z M69.2727273,56 L74,56 C75.1045695,56 76,56.8954305 76,58 C76,58.731364 75.6074337,59.3710393 75.0215199,59.719807 L69.2727273,56 Z M60,80 L60,84 L50,84 C48.8954305,84 48,83.1045695 48,82 C48,80.8954305 48.8954305,80 50,80 L60,80 Z M63.0909091,52 L63.0865026,51.9971487 C62.4025829,51.5546125 61.5495917,51.5827531 60.9081912,52 L50,52 C48.8954305,52 48,51.1045695 48,50 C48,48.8954305 48.8954305,48 50,48 L94,48 C95.1045695,48 96,48.8954305 96,50 C96,51.1045695 95.1045695,52 94,52 L63.0909091,52 Z M60,64 L60,68 L50,68 C48.8954305,68 48,67.1045695 48,66 C48,64.8954305 48.8954305,64 50,64 L60,64 Z M44,40 L100,40 C102.209139,40 104,41.790861 104,44 L104,100 C104,102.209139 102.209139,104 100,104 L44,104 C41.790861,104 40,102.209139 40,100 L40,44 C40,41.790861 41.790861,40 44,40 Z M44,44 L44,100 L100,100 L100,44 L44,44 Z M50,72 L58,72 C59.1045695,72 60,72.8954305 60,74 C60,75.1045695 59.1045695,76 58,76 L50,76 C48.8954305,76 48,75.1045695 48,74 C48,72.8954305 48.8954305,72 50,72 Z M50,88 L58,88 C59.1045695,88 60,88.8954305 60,90 C60,91.1045695 59.1045695,92 58,92 L50,92 C48.8954305,92 48,91.1045695 48,90 C48,88.8954305 48.8954305,88 50,88 Z M64,58 L86,72 L64,86 L64,58 Z"/>
</svg>
