<svg xmlns="http://www.w3.org/2000/svg" width="144" height="144" viewBox="0 0 144 144">
  <g id="btn_mixer_toggle_slowchat" fill="none" fill-rule="evenodd">
    <rect id="MIXER_Background" width="144" height="144" fill="#2FBAEB" rx="22"/>
    <path fill="#EFEFEF" d="M86.5221642,93 L65.5873961,93 L62.2000362,93 L58.1417777,93 L36,93 C34.8549326,93 32,93 32,90 C32,81.5158861 34.8955352,73.2197483 40.0551387,66.478826 L43.5670607,70.8687285 C39.9660332,75.9206509 38,81.4641485 38,86.1356799 C38,88.0244237 39.0170325,88.0244237 39.959403,88.0244237 C41.0900593,88.0244237 42.4509249,88.024389 43.9999992,88.0243262 L44,88 L58.3221795,88 C58.5206708,87.090843 58.8075013,86.2147065 59.1732243,85.3810373 L36.5016031,58.4509454 C36.146076,58.0286387 36.1713624,57.3727935 36.571596,56.9725599 L37.9725599,55.571596 C38.366743,55.1774129 39.0325157,55.1357868 39.4695657,55.4866172 L67.2842086,77.8140935 C68.7577039,77.287059 70.3453288,77 72,77 C78.7022372,77 84.30448,81.709636 85.6778205,88 L102,88 L102,88.0204469 C102.733718,88.0204299 103.41576,88.0204209 104.040597,88.0204209 C104.982967,88.0204209 106,88.0244237 106,86.1356799 C106,74 92.732151,55.9798239 72,55.9798239 C64.0797615,55.9798239 57.248897,58.6097698 51.8309816,62.5368633 L47.4959638,59.068849 C54.0426819,54.1070517 62.3897564,51.0445998 72,51.0445998 C95.9092658,51.0445998 112,70 112,90 C112,93 109.421061,93 108,93 L86.5221642,93 Z M71.2844774,81.0252045 L79.973388,88 L81.5421977,88 C80.2679341,83.942893 76.4776418,81 72,81 C71.7594135,81 71.5208115,81.0084961 71.2844774,81.0252045 Z"/>
  </g>
</svg>
