<svg xmlns="http://www.w3.org/2000/svg" width="144" height="144" viewBox="0 0 144 144">
  <path id="btn_keybrightness_medium" fill="#EFEFEF" fill-rule="evenodd" d="M71.7128129,60 C71.7128129,67.1483184 71.7128129,77.5170248 71.7128129,84 C78.3402299,84 83.7128129,78.627417 83.7128129,72 C83.7128129,65.372583 78.3402299,60 71.7128129,60 Z M71.7128129,88 C62.8762569,88 55.7128129,80.836556 55.7128129,72 C55.7128129,63.163444 62.8762569,56 71.7128129,56 C80.5493689,56 87.7128129,63.163444 87.7128129,72 C87.7128129,80.836556 80.5493689,88 71.7128129,88 Z M91.1259572,63.101217 C90.5821151,61.873046 89.9291501,60.7039688 89.1793599,59.6062833 L98.4256258,54.2679492 L100.425626,57.7320508 L91.1259572,63.101217 Z M73.7128129,50.1656028 C72.8238629,50.056288 71.9185048,50 71,50 C70.5679151,50 70.1387396,50.0124564 69.7128129,50.0370296 L69.7128129,40 L73.7128129,40 L73.7128129,50.1656028 Z M53.2339366,59.0218147 C52.4483875,60.0953383 51.7577869,61.2427206 51.1744974,62.4515991 L43,57.7320508 L45,54.2679492 L53.2339366,59.0218147 Z M51.1744974,81.5484009 C51.7577869,82.7572794 52.4483875,83.9046617 53.2339366,84.9781853 L45,89.7320508 L43,86.2679492 L51.1744974,81.5484009 Z M69.7128129,93.9629704 C70.1387396,93.9875436 70.5679151,94 71,94 C71.9185048,94 72.8238629,93.943712 73.7128129,93.8343972 L73.7128129,104 L69.7128129,104 L69.7128129,93.9629704 Z M89.1793599,84.3937167 C89.9291501,83.2960312 90.5821151,82.126954 91.1259572,80.898783 L100.425626,86.2679492 L98.4256258,89.7320508 L89.1793599,84.3937167 Z"/>
</svg>
