<svg xmlns="http://www.w3.org/2000/svg" width="144" height="144" viewBox="0 0 144 144">
  <path id="btn_egc_toggle_streaming" fill="#EFEFEF" fill-rule="evenodd" d="M80.716353,82.7012395 L72,73.8816099 L63.2836174,82.7011858 L57.3812,72 L63.2890936,61.2888857 L72.0016037,70 L80.712047,61.2909536 L86.6188,72 L80.716353,82.7012395 Z M34,72 L50.8888889,40 L93.1111111,40 L110,72 L93.1111111,104 L50.8888889,104 L34,72 Z M42,72 L56,96 L88,96 L102,72 L88,48 L56,48 L42,72 Z M60,86 L56,90 L46,72 L56,54 L60,58 L52,72 L60,86 Z M84,86 L92,72 L84,58 L88,54 L98,72 L88,90 L84,86 Z"/>
</svg>
