<svg xmlns="http://www.w3.org/2000/svg" width="144" height="144" viewBox="0 0 144 144">
  <path id="btn_twitter_change_display_name" fill="#EFEFEF" d="M104,67.3431458 L108,63.3431458 L112,63.3431458 L112.000912,95.3431458 L32,95.3431458 L32,63.3431458 L86,63.3431458 L82.1078805,67.3436789 L36,67.3431458 L36.0001303,91.3430696 L108.000782,91.3430696 L108,67.3431458 L104,67.3431458 Z M50.3398438,68.9349426 C56.4208984,68.9349426 60.5849609,72.768927 60.5849609,78.3675598 C60.5849609,82.4046692 58.6679688,84.9310364 55.5957031,84.9310364 C54.0087891,84.9310364 52.8535156,84.1693176 52.5742188,82.9505676 L52.3457031,82.9505676 C51.8125,84.2327942 50.7714844,84.8929504 49.2988281,84.8929504 C46.6582031,84.8929504 44.90625,82.7601379 44.90625,79.5355286 C44.90625,76.4505676 46.6328125,74.3558411 49.171875,74.3558411 C50.5302734,74.3558411 51.6347656,75.0159973 52.1425781,76.1458801 L52.3710938,76.1458801 L52.3710938,74.6351379 L54.9355469,74.6351379 L54.9355469,81.3636536 C54.9355469,82.2650208 55.3798828,82.7855286 56.1542969,82.7855286 C57.4365234,82.7855286 58.2617188,81.1605286 58.2617188,78.5833801 C58.2617188,73.987677 55.0878906,70.9915833 50.2636719,70.9915833 C45.3505859,70.9915833 41.9355469,74.5208801 41.9355469,79.5863098 C41.9355469,84.7406067 45.3505859,87.9906067 50.7460938,87.9906067 C52.1044922,87.9906067 53.4882812,87.8255676 54.1992188,87.5716614 L54.1992188,89.6409973 C53.2089844,89.9329895 51.9013672,90.0980286 50.5556641,90.0980286 C43.9414062,90.0980286 39.6123047,85.8958801 39.6123047,79.5228333 C39.6123047,73.2513489 43.9921875,68.9349426 50.3398438,68.9349426 Z M104.526912,50.1715729 C106.089009,48.6094757 108.621669,48.6094757 110.183766,50.1715729 C111.745863,51.73367 111.745863,54.26633 110.183766,55.8284271 L107.355339,58.6568542 L101.698485,53 L104.526912,50.1715729 Z M98.8700577,55.8284271 L104.526912,61.4852814 L84.7279221,81.2842712 L74.8284271,85.5269119 L79.0710678,75.627417 L98.8700577,55.8284271 Z M49.9335938,76.7171692 C48.5878906,76.7171692 47.7880859,77.7962708 47.7880859,79.6117004 C47.7880859,81.4144348 48.5878906,82.5062317 49.9208984,82.5062317 C51.2792969,82.5062317 52.1298828,81.4017395 52.1298828,79.6117004 C52.1298828,77.8216614 51.2792969,76.7171692 49.9335938,76.7171692 Z"/>
</svg>
