<svg xmlns="http://www.w3.org/2000/svg" xmlns:xlink="http://www.w3.org/1999/xlink" width="144" height="144" viewBox="0 0 144 144">
  <defs>
    <linearGradient id="bulb_color-b" x1="50%" x2="50%" y1="0%" y2="100%">
      <stop offset="0%" stop-color="#ED1C24"/>
      <stop offset="5.373%" stop-color="#EF4423"/>
      <stop offset="13.14%" stop-color="#F26522"/>
      <stop offset="17.32%" stop-color="#F37021"/>
      <stop offset="18.57%" stop-color="#F47521"/>
      <stop offset="26.78%" stop-color="#F8941F"/>
      <stop offset="33.16%" stop-color="#FAA81C"/>
      <stop offset="36.88%" stop-color="#FCAF1A"/>
      <stop offset="40.89%" stop-color="#EFB320"/>
      <stop offset="48.55%" stop-color="#D2BB2B"/>
      <stop offset="58.98%" stop-color="#9CC33C"/>
      <stop offset="61.17%" stop-color="#8DC63F"/>
      <stop offset="68.12%" stop-color="#71BA64"/>
      <stop offset="77.52%" stop-color="#43AF8D"/>
      <stop offset="81.98%" stop-color="#26AB9A"/>
      <stop offset="85.55%" stop-color="#1DA29F"/>
      <stop offset="92.65%" stop-color="#008AA7"/>
      <stop offset="100%" stop-color="#006EAB"/>
    </linearGradient>
    <path id="bulb_color-a" d="M55.5043125,115.85424 L95.5907604,121.580875 L95.5907604,128.775878 L55.5043125,123.049243 L55.5043125,115.85424 Z M55.1872939,108.570892 C54.8431184,104.014351 54.2554417,98.8695233 53.6093172,97.1325482 C51.9511947,92.6806407 49.1876605,89.1281037 46.2115463,85.7104761 C43.2354278,82.2928486 40.0042184,79.0101301 37.4957799,75.1877827 C34.8597905,71.2305344 32.6914794,66.8235925 31.1609055,62.23678 C29.6303316,57.6499676 28.7800139,52.8383067 28.7800139,47.9816798 C28.7800139,41.3262994 30.0980073,35.0306731 32.4363842,29.2746713 C34.8172763,23.5636355 38.2610662,18.3922285 42.4701445,14.0302563 C46.7217374,9.71325513 51.7386146,6.20569049 57.3507198,3.77737637 C60.4118638,2.42831367 63.6855921,1.43900069 67.0443505,0.80943789 C67.7246045,0.674531575 73.3792232,0 75.5475364,0 C82.0099599,0 88.1747645,1.34906315 93.7443573,3.77737682 C99.3564587,6.20569049 104.37334,9.71325558 108.624933,14.0302568 C112.834009,18.392229 116.277797,23.5636359 118.658686,29.2746717 C120.997067,35.0306731 122.315059,41.3262994 122.315059,47.9816798 C122.315059,52.8383067 121.464737,57.649964 119.934169,62.2367809 C118.403593,66.8235934 116.23528,71.2305353 113.599296,75.1877836 C111.090856,79.010131 107.859644,82.292849 104.883526,85.710477 C101.907416,89.1281046 99.143874,92.6806416 97.4857553,97.1325491 C96.5499616,99.6482411 95.7367699,109.312328 95.6083765,113.98443 L55.1872939,108.570892 Z M55.5497466,130.250737 L93.8034426,135.715551 C93.3393064,136.393871 92.7630698,137.054512 92.0511569,137.680342 C88.4422623,141.437979 82.4125481,143.900069 75.5835115,143.900069 C65.2721594,143.900069 56.7831681,138.286793 55.6984717,131.076021 C55.63196,130.796928 55.582223,130.521424 55.5497464,130.250737 Z"/>
  </defs>
  <g fill="none" fill-rule="evenodd" transform="translate(-3.6)">
    <use fill="url(#bulb_color-b)" fill-rule="nonzero" xlink:href="#bulb_color-a"/>
  </g>
</svg>
