<svg xmlns="http://www.w3.org/2000/svg" xmlns:xlink="http://www.w3.org/1999/xlink" width="144" height="144" viewBox="0 0 144 144">
  <defs>
    <path id="bulb_group-a" d="M49.0568434,102.543211 L84.2299143,107.567935 L84.2299143,113.881051 L49.0568434,108.856326 L49.0568434,102.543211 Z M48.7786817,96.1525797 C48.4766916,92.1545321 47.9610462,87.6403034 47.3941168,86.1162286 C45.9392296,82.2099893 43.5144205,79.0928851 40.9030872,76.0941545 C38.2917502,73.095424 35.4565886,70.2150667 33.2556082,66.8612226 C30.9427109,63.3890124 29.0401686,59.5222273 27.6971964,55.4976183 C26.3542243,51.4730093 25.6081296,47.2511115 25.6081296,42.989759 C25.6081296,37.1501254 26.7645771,31.6261512 28.8163403,26.5756597 C30.9054076,21.5646229 33.9270937,17.0270729 37.6202673,13.1997456 C41.3507445,9.41187718 45.7527054,6.33423309 50.6769375,4.20355629 C53.3628785,3.01984757 56.2353474,2.15179422 59.1824244,1.59939663 C59.7793,1.48102572 64.7408347,0.889171165 66.6433789,0.889171165 C72.3137061,0.889171165 77.7228935,2.07288028 82.6098239,4.20355668 C87.5340527,6.33423309 91.9360169,9.41187758 95.6664941,13.199746 C99.3596658,17.0270733 102.38135,21.5646233 104.470415,26.5756601 C106.522182,31.6261512 107.678628,37.1501254 107.678628,42.989759 C107.678628,47.2511115 106.93253,51.4730061 105.589563,55.4976191 C104.246589,59.5222281 102.344045,63.3890132 100.031152,66.8612234 C97.8301702,70.2150675 94.9950067,73.0954244 92.3836701,76.0941553 C89.7723401,79.0928858 87.3475244,82.2099901 85.8926405,86.1162293 C85.0715466,88.3235742 84.3580275,96.8031382 84.2453712,100.902583 L48.7786817,96.1525797 Z M49.0967087,115.175137 L82.6616672,119.970131 C82.2544199,120.565309 81.7488124,121.144976 81.1241583,121.694098 C77.9576042,124.991163 72.6669493,127.151477 66.6749444,127.151477 C57.62745,127.151477 50.1789503,122.226217 49.2272047,115.899266 C49.1688453,115.654382 49.1252045,115.412645 49.0967086,115.175137 Z"/>
    <path id="bulb_group-b" d="M51.356383,107.349924 L88.1781915,112.610182 L88.1781915,119.219225 L51.356383,113.958967 L51.356383,107.349924 Z M51.0651824,100.659732 C50.7490365,96.4742758 50.2092202,91.7484427 49.6157161,90.1529268 C48.092631,86.0635825 45.554159,82.800364 42.8204195,79.661068 C40.086676,76.521772 37.1186162,73.5063979 34.8144648,69.9953424 C32.3931504,66.3603723 30.4014265,62.3123317 28.9955025,58.0990691 C27.5895785,53.8858066 26.8085106,49.4660073 26.8085106,45.004904 C26.8085106,38.8915376 28.0191667,33.108627 30.1671063,27.8213938 C32.3540986,22.5754646 35.5174263,17.8252169 39.3837173,13.8184836 C43.2890606,9.85305892 47.8973634,6.63115027 53.052419,4.40059799 C55.8642634,3.16140293 58.8713794,2.25265957 61.9566006,1.67436835 C62.5814547,1.5504488 67.7755614,0.930851064 69.7672872,0.930851064 C75.703411,0.930851064 81.3661542,2.17004654 86.4821594,4.4005984 C91.6372114,6.63115027 96.2455177,9.85305934 100.150861,13.818484 C104.01715,17.8252173 107.180476,22.575465 109.367466,27.8213942 C111.515409,33.108627 112.726064,38.8915376 112.726064,45.004904 C112.726064,49.4660073 111.944992,53.8858033 110.539074,58.09907 C109.133148,62.3123325 107.141422,66.3603732 104.720113,69.9953433 C102.415959,73.5063988 99.4478977,76.5217724 96.7141546,79.6610688 C93.9804186,82.8003649 91.4419396,86.0635833 89.918858,90.1529276 C89.0592754,92.4637417 88.31231,101.340785 88.194373,105.632391 L51.0651824,100.659732 Z M51.3981169,120.573971 L86.5364328,125.593731 C86.1100959,126.216808 85.580788,126.823647 84.9268532,127.398509 C81.6118669,130.850124 76.0732125,133.111702 69.8003324,133.111702 C60.3287367,133.111702 52.5310886,127.955571 51.5347299,121.332044 C51.4736349,121.075681 51.4279485,120.822613 51.3981168,120.573971 Z"/>
  </defs>
  <g fill="none" fill-rule="evenodd">
    <g transform="translate(30 3)">
      <use fill="#FFF" fill-rule="nonzero" stroke="#D8D8D8" stroke-width="1.778" xlink:href="#bulb_group-a"/>
    </g>
    <g transform="translate(-13 9)">
      <use fill="#FFF" fill-rule="nonzero" stroke="#D8D8D8" stroke-width="1.862" xlink:href="#bulb_group-b"/>
    </g>
  </g>
</svg>
