<?xml version="1.0" encoding="UTF-8"?>
<svg width="144px" height="144px" viewBox="0 0 144 144" version="1.1" xmlns="http://www.w3.org/2000/svg" xmlns:xlink="http://www.w3.org/1999/xlink">
    <title>category</title>
    <g id="category" stroke="none" stroke-width="1" fill="none" fill-rule="evenodd">
        <polygon id="background" fill="#1551FF" fill-rule="nonzero" opacity="0" points="0 0 144 0 144 144 0 144"></polygon>
        <path d="M10.728,18 L20.5714286,27.8434286 L20.5714286,126 L10.2857143,126 L10.2857143,28.2857143 L0,28.2857143 L0,18 L10.728,18 Z M77.1428571,115.714286 L66.8571429,115.714286 L66.8571429,120.857143 L77.1428571,120.857143 L77.1428571,115.714286 Z M97.7142857,115.714286 L82.2857143,115.714286 L82.2857143,120.857143 L97.7142857,120.857143 L97.7142857,115.714286 Z M118.285714,115.714286 L102.857143,115.714286 L102.857143,120.857143 L118.285714,120.857143 L118.285714,115.714286 Z M46.2857143,115.714286 L25.7142857,115.714286 L25.7142857,120.857143 L46.2857143,120.857143 L46.2857143,115.714286 Z M144,38.5714286 L133.714286,28.2857143 L25.7142857,28.2857143 L25.7142857,110.571429 L133.714286,110.571429 L144,100.285714 L144,38.5714286 Z M36,100.285714 L133.714286,100.285714 L133.714286,79.1382857 L123.084,95.0811429 L117.941143,95.0811429 L129.733714,77.3897143 L133.714286,76.788 L133.714286,38.5714286 L36,38.5714286 L36,60.084 L46.9542857,43.6525714 L52.0971429,43.6525714 L40.248,61.4262857 L36,62.0691429 L36,100.285714 Z M83.9982857,84.2811429 L76.7982857,95.0811429 L71.6554286,95.0811429 L78.2794286,85.14 L83.9982857,84.2811429 Z M118.301143,79.1125714 L107.655429,95.0811429 L102.512571,95.0811429 L112.582286,79.9714286 L118.301143,79.1125714 Z M101.149714,81.6942857 L92.2268571,95.0811429 L87.084,95.0811429 L95.4308571,82.5582857 L101.149714,81.6942857 Z M57.3994286,58.8445714 L51.6857143,59.7034286 L62.3828571,43.6525714 L67.5257143,43.6525714 L57.3994286,58.8445714 Z M74.5508571,56.2577143 L68.8371429,57.1217143 L77.8114286,43.6525714 L82.9542857,43.6525714 L74.5508571,56.2577143 Z M91.7022857,53.676 L85.9885714,54.5348571 L93.24,43.6525714 L98.3828571,43.6525714 L91.7022857,53.676 Z" id="Category-Icon" fill="#FFFFFF"></path>
    </g>
</svg>