<svg xmlns="http://www.w3.org/2000/svg" width="40" height="40" viewBox="0 0 40 40">
  <path fill="#EFEFEF" fill-rule="evenodd" d="M4,12 L0,12 L0,8 L4,8 L4,6.42424242 C4,5.0853703 5.0853703,4 6.42424242,4 L8,4 L8,0 L12,0 L12,4 L18,4 L18,0 L22,0 L22,4 L28,4 L28,0 L32,0 L32,4 L33.5757576,4 C34.9146297,4 36,5.0853703 36,6.42424242 L36,8 L40,8 L40,12 L36,12 L36,18 L40,18 L40,22 L36,22 L36,28 L40,28 L40,32 L36,32 L36,33.5757576 C36,34.9146297 34.9146297,36 33.5757576,36 L32,36 L32,40 L28,40 L28,36 L22,36 L22,40 L18,40 L18,36 L12,36 L12,40 L8,40 L8,36 L6.42424242,36 C5.0853703,36 4,34.9146297 4,33.5757576 L4,32 L0,32 L0,28 L4,28 L4,22 L0,22 L0,18 L4,18 L4,12 Z M20,32 C26.627417,32 32,26.627417 32,20 C32,13.372583 26.627417,8 20,8 C13.372583,8 8,13.372583 8,20 C8,26.627417 13.372583,32 20,32 Z"/>
</svg>
