<svg xmlns="http://www.w3.org/2000/svg" xmlns:xlink="http://www.w3.org/1999/xlink" width="40" height="40" viewBox="0 0 40 40">
  <defs>
    <path id="play_white-a" d="M32,2 L34,2 C35.6568542,2 37,3.34314575 37,5 L37,6 L39,6 L39,8 L37,8 L37,12 L39,12 L39,14 L37,14 L37,18 L39,18 L39,20 L37,20 L37,24 L39,24 L39,26 L37,26 L37,30 L39,30 L39,32 L37,32 L37,33 C37,34.6568542 35.6568542,36 34,36 L32,36 L32,38 L30,38 L30,36 L26,36 L26,38 L24,38 L24,36 L20,36 L20,38 L18,38 L18,36 L14,36 L14,38 L12,38 L12,36 L8,36 L8,38 L6,38 L6,36 L5,36 C3.34314575,36 2,34.6568542 2,33 L2,32 L0,32 L0,30 L2,30 L2,26 L0,26 L0,24 L2,24 L2,20 L0,20 L0,18 L2,18 L2,14 L0,14 L0,12 L2,12 L2,8 L0,8 L0,6 L2,6 L2,5 C2,3.34314575 3.34314575,2 5,2 L6,2 L6,0 L8,0 L8,2 L12,2 L12,0 L14,0 L14,2 L18,2 L18,0 L20,0 L20,2 L24,2 L24,0 L26,0 L26,2 L30,2 L30,0 L32,0 L32,2 Z M6,4 C4.8954305,4 4,4.8954305 4,6 L4,32 C4,33.1045695 4.8954305,34 6,34 L33,34 C34.1045695,34 35,33.1045695 35,32 L35,6 C35,4.8954305 34.1045695,4 33,4 L6,4 Z"/>
  </defs>
  <g fill="none" fill-rule="evenodd">
    <use fill="#3D6EE0" xlink:href="#play_white-a"/>
  </g>
</svg>
