<svg xmlns="http://www.w3.org/2000/svg" xmlns:xlink="http://www.w3.org/1999/xlink" viewBox="0 0 40 40"><defs><path id="a" d="M20 38c-8.8366 0-16-7.1634-16-16S11.1634 6 20 6s16 7.1634 16 16-7.1634 16-16 16zm0-3c7.1797 0 13-5.8203 13-13S27.1797 9 20 9 7 14.8203 7 22s5.8203 13 13 13zm5-35v4H15V0h10zm-5.6 13.6V10h1.2v3.6h-1.2zm0 20.4v-3.6h1.2V34h-1.2zm-4.1196-18.9746l-1.8-3.1177 1.0392-.6 1.8 3.1177-1.0392.6zm10.2 17.6669l-1.8-3.1177 1.0392-.6 1.8 3.1177-1.0392.6zm-13.055-14.3727l-3.1177-1.8.6-1.0392 3.1177 1.8-.6 1.0392zm17.6669 10.2l-3.1177-1.8.6-1.0392 3.1177 1.8-.6 1.0392zM11.6 22.6H8v-1.2h3.6v1.2zm20.4 0h-3.6v-1.2H32v1.2zm-18.9746 4.1196l-3.1177 1.8-.6-1.0392 3.1177-1.8.6 1.0392zm17.6669-10.2l-3.1177 1.8-.6-1.0392 3.1177-1.8.6 1.0392zm-14.3727 13.055l-1.8 3.1177-1.0392-.6 1.8-3.1177 1.0392.6zm10.2-17.6669l-1.8 3.1177-1.0392-.6 1.8-3.1177 1.0392.6z"/></defs><g fill="none" fill-rule="evenodd"><mask id="b" fill="#fff"><use xlink:href="#a"/></mask><use fill="#EFEFEF" xlink:href="#a"/><g fill="#EFEFEF" mask="url(#b)"><path d="M0 0h40v40H0z"/></g></g></svg>