<?xml version="1.0" encoding="UTF-8"?>
<svg width="144px" height="144px" viewBox="0 0 144 144" version="1.1" xmlns="http://www.w3.org/2000/svg" xmlns:xlink="http://www.w3.org/1999/xlink">
    <title>epoccam_fill</title>
    <g id="epoccam_fill" stroke="none" stroke-width="1" fill="none" fill-rule="evenodd">
        <polygon id="background" fill="#1551FF" fill-rule="nonzero" points="0 0 144 0 144 144 0 144"></polygon>
        <path d="M110.378524,35.0769256 C114.640973,35.0769256 118.626295,36.5361809 121.796408,39.0312073 C124.96653,41.5262348 127.321441,45.0570334 128.323091,49.200121 C130.160491,56.800081 131.07695,64.4002153 131.07695,72.0000042 C131.07695,79.5997847 130.160483,87.199919 128.323091,94.7998675 C127.321448,98.9429583 124.966545,102.473765 121.796424,104.968793 C118.626311,107.463827 114.640982,108.923083 110.378533,108.923083 L110.378533,108.923083 L33.6215301,108.923083 C29.359081,108.923083 25.3737642,107.463827 22.203648,104.9688 C19.0335318,102.473774 16.6786143,98.942975 15.6769659,94.7998904 C13.8395708,87.1999273 12.9231068,79.599792 12.9231068,72.0000042 C12.9231068,64.4002237 13.8395697,56.8000883 15.6769607,49.2001409 C16.6786028,45.057049 19.0335183,41.5262421 22.2036344,39.0312157 C25.3737517,36.5361809 29.3590696,35.0769256 33.6215197,35.0769256 L33.6215197,35.0769256 L110.378524,35.0769256 Z" id="body-frame" fill="#FFFFFF"></path>
        <path d="M33.6214518,103.384619 C27.654023,103.384619 22.4625631,99.2987092 21.0602557,93.4983892 C19.3277447,86.3322584 18.4614897,79.1661308 18.4614897,72.0000042 C18.4614897,64.8338807 19.3277437,57.6677583 21.0602525,50.5016348 C22.4625506,44.7013075 27.6540136,40.6153889 33.6214435,40.6153889 L110.378453,40.6153889 C116.345884,40.6153889 121.537346,44.7012991 122.939647,50.5016233 C124.672159,57.6677499 125.538415,64.8338776 125.538415,72.0000042 C125.538415,79.1661277 124.672168,86.3322501 122.939655,93.4983736 C121.537362,99.2987009 116.345891,103.384619 110.378461,103.384619 L33.6214518,103.384619 Z" id="body-fill" fill="#EAE8E8"></path>
        <path d="M94.1539064,71.9999958 C94.1539064,84.2352271 84.2352908,94.1538428 72.0000595,94.1538428 C59.7648282,94.1538428 49.8462125,84.2352271 49.8462125,71.9999958 C49.8462125,59.7647656 59.7648282,49.8461489 72.0000595,49.8461489 C84.2352908,49.8461489 94.1539064,59.7647656 94.1539064,71.9999958 Z" id="lens-frame" fill="#1551FF"></path>
        <path d="M83.0769537,71.9999979 C83.0769537,78.1176136 78.1176459,83.0769214 72.0000303,83.0769214 C65.8824146,83.0769214 60.9231068,78.1176136 60.9231068,71.9999979 C60.9231068,65.8823823 65.8824146,60.9230744 72.0000303,60.9230744 C78.1176459,60.9230744 83.0769537,65.8823823 83.0769537,71.9999979 Z" id="lens" fill="#FFFFFF"></path>
        <path d="M22.1537875,71.5384654 C22.1537875,70.7737638 22.7737012,70.1538511 23.5384028,70.1538511 L30.4614783,70.1538511 C31.2261809,70.1538511 31.8460957,70.7737638 31.8460957,71.5384654 L31.8460957,74.307697 C31.8460957,75.0723997 31.2261819,75.6923123 30.4614803,75.6923123 L23.5384038,75.6923123 C22.7737023,75.6923123 22.1537875,75.0723986 22.1537875,74.307697 L22.1537875,71.5384654 Z" id="light" fill="#1551FF"></path>
    </g>
</svg>