
<svg width="144px" height="144px" viewBox="0 0 144 144" xmlns="http://www.w3.org/2000/svg" >
    <g id="hotkey" stroke="none" stroke-width="1" fill="none" fill-rule="evenodd">
            <path d="M54,57.75 C54,56.5074 55.0074,55.5 56.25,55.5 L69.75,55.5 C70.9926,55.5 72,56.5074 72,57.75 C72,58.9926 70.9926,60 69.75,60 L56.25,60 C55.0074,60 54,58.9926 54,57.75 Z" id="Path" fill="#FFFFFF" fill-rule="nonzero"></path>
            <path d="M45,51 C45,47.6863 47.6863,45 51,45 L93,45 C96.3137,45 99,47.6863 99,51 L99,63 C99,66.3137 96.3137,69 93,69 L51,69 C47.6863,69 45,66.3137 45,63 L45,51 Z M51,49.5 L93,49.5 C93.8284,49.5 94.5,50.1716 94.5,51 L94.5,63 C94.5,63.8284 93.8284,64.5 93,64.5 L51,64.5 C50.1716,64.5 49.5,63.8284 49.5,63 L49.5,51 C49.5,50.1716 50.1716,49.5 51,49.5 Z" id="Shape" fill="#FFFFFF"></path>
            <path d="M83.25,85.5 C82.0074,85.5 81,86.5074 81,87.75 C81,88.9926 82.0074,90 83.25,90 L87.75,90 C88.9926,90 90,88.9926 90,87.75 C90,86.5074 88.9926,85.5 87.75,85.5 L83.25,85.5 Z" id="Path" fill="#FFFFFF" fill-rule="nonzero"></path>
            <path d="M72,81 C72,77.6863 74.6863,75 78,75 L93,75 C96.3137,75 99,77.6863 99,81 L99,93 C99,96.3137 96.3137,99 93,99 L78,99 C74.6863,99 72,96.3137 72,93 L72,81 Z M78,79.5 L93,79.5 C93.8284,79.5 94.5,80.1716 94.5,81 L94.5,93 C94.5,93.8284 93.8284,94.5 93,94.5 L78,94.5 C77.1716,94.5 76.5,93.8284 76.5,93 L76.5,81 C76.5,80.1716 77.1716,79.5 78,79.5 Z" id="Shape" fill="#FFFFFF"></path>
            <path d="M47.25,84 C46.0074,84 45,85.0074 45,86.25 C45,87.4926 46.0074,88.5 47.25,88.5 L53.25,88.5 L53.25,94.5 C53.25,95.7426 54.2574,96.75 55.5,96.75 C56.7426,96.75 57.75,95.7426 57.75,94.5 L57.75,88.5 L63.75,88.5 C64.9926,88.5 66,87.4926 66,86.25 C66,85.0074 64.9926,84 63.75,84 L57.75,84 L57.75,78 C57.75,76.7574 56.7426,75.75 55.5,75.75 C54.2574,75.75 53.25,76.7574 53.25,78 L53.25,84 L47.25,84 Z" id="Path" fill="#FFFFFF" fill-rule="nonzero"></path>
    </g>
</svg>