<svg xmlns="http://www.w3.org/2000/svg" width="72" height="72" viewBox="0 0 72 72">
  <g fill="#D8D8D8" fill-rule="evenodd" transform="translate(16 16)">
    <path d="M19.9422328 22.5120685C19.2661571 21.360422 18.3989463 20.332603 17.3836689 19.4712991 17.0017141 18.6046714 16.7898305 17.6475506 16.7898305 16.6413793 16.7898305 12.7334886 19.9860621 9.56551724 23.9288136 9.56551724 27.871565 9.56551724 31.0677966 12.7334886 31.0677966 16.6413793 31.0677966 20.54927 27.871565 23.7172414 23.9288136 23.7172414 22.4523974 23.7172414 21.0806604 23.2730194 19.9422328 22.5120685zM32.5508947 22.9370767C33.0205223 22.306289 33.4213726 21.6221224 33.7424737 20.8954518L38.9496571 23.875239 37.7598266 25.9178644 32.5508947 22.9370767zM33.7424737 12.3873068C33.4213726 11.6606362 33.0205223 10.9764696 32.5508947 10.3456819L37.7598266 7.36489418 38.9496571 9.40751961 33.7424737 12.3873068zM25.1186441 6.09236428C24.7279824 6.04956066 24.3309871 6.02758621 23.9288136 6.02758621 23.52664 6.02758621 23.1296447 6.04956066 22.7389831 6.09236428L22.7389831.131034483 25.1186441.131034483 25.1186441 6.09236428zM22.7389831 27.1903943C23.1296447 27.233198 23.52664 27.2551724 23.9288136 27.2551724 24.3309871 27.2551724 24.7279824 27.233198 25.1186441 27.1903943L25.1186441 33.1517241 22.7389831 33.1517241 22.7389831 27.1903943zM23.9288136 21.3586207C26.5573145 21.3586207 28.6881356 19.2466398 28.6881356 16.6413793 28.6881356 14.0361188 26.5573145 11.9241379 23.9288136 11.9241379 21.3003126 11.9241379 19.1694915 14.0361188 19.1694915 16.6413793 19.1694915 19.2466398 21.3003126 21.3586207 23.9288136 21.3586207zM13.220339 21.3586207C15.9931018 22.3299866 17.979661 24.8965517 17.979661 28.4344828 17.979661 33.1517241 14.4101695 36.6896552 9.65084746 36.6896552 4.89152542 36.6896552 1.3220339 33.1517241 1.3220339 28.4344828 1.3220339 25.353608 2.51186441 22.537931 6.08135593 21.3586207L6.08135593 11.9241379 13.220339 11.9241379 13.220339 21.3586207z"/>
    <path d="M19.1694915,28.4344828 C19.1694915,33.6450037 14.9078494,37.8689655 9.65084746,37.8689655 C4.3938455,37.8689655 0.13220339,33.6450037 0.13220339,28.4344828 C0.13220339,24.9423922 2.04639619,21.8934323 4.89152542,20.2621658 L4.89152542,4.84827586 C4.89152542,2.24301539 7.02234648,0.131034483 9.65084746,0.131034483 C12.2793484,0.131034483 14.4101695,2.24301539 14.4101695,4.84827586 L14.4101695,20.2621658 C17.2552987,21.8934323 19.1694915,24.9423922 19.1694915,28.4344828 Z M16.7898305,28.4344828 C16.7898305,25.353608 14.8032713,22.7326166 12.0305085,21.7612507 L12.0305085,4.84827586 C12.0305085,3.54564562 10.9650979,2.48965517 9.65084746,2.48965517 C8.33659697,2.48965517 7.27118644,3.54564562 7.27118644,4.84827586 L7.27118644,21.7612507 C4.49842357,22.7326166 2.51186441,25.353608 2.51186441,28.4344828 C2.51186441,32.3423735 5.70809599,35.5103448 9.65084746,35.5103448 C13.5935989,35.5103448 16.7898305,32.3423735 16.7898305,28.4344828 Z"/>
  </g>
</svg>
