<svg xmlns="http://www.w3.org/2000/svg" width="72" height="72" viewBox="0 0 72 72">
  <path fill="#333" d="M26.1629146,23.1275899 L28.7375832,25.7022585 C25.5085303,27.9836936 23.4,31.74561 23.4,36 C23.4,42.9587878 29.0412122,48.6 36,48.6 C42.9587878,48.6 48.6,42.9587878 48.6,36 C48.6,32.0351229 46.768678,28.4979739 43.9057534,26.1882725 L46.462676,23.6313499 C49.9721017,26.6029659 52.2,31.0413062 52.2,36 C52.2,44.9470129 44.9470129,52.2 36,52.2 C27.0529871,52.2 19.8,44.9470129 19.8,36 C19.8,30.7527062 22.2947759,26.0880985 26.1629146,23.1275899 Z M34.2,19.8 L37.8,19.8 L37.8,36 L34.2,36 L34.2,19.8 Z"/>
</svg>
