<svg xmlns="http://www.w3.org/2000/svg" width="72" height="72" viewBox="0 0 72 72">
  <g fill="#D8D8D8" transform="translate(18 18)">
    <path d="M8.16291463,5.12758993 L10.7375832,7.70225848 C7.50853026,9.98369364 5.4,13.74561 5.4,18 C5.4,24.9587878 11.0412122,30.6 18,30.6 C24.9587878,30.6 30.6,24.9587878 30.6,18 C30.6,14.0351229 28.768678,10.4979739 25.9057534,8.18827246 L28.462676,5.63134991 C31.9721017,8.60296591 34.2,13.0413062 34.2,18 C34.2,26.9470129 26.9470129,34.2 18,34.2 C9.05298705,34.2 1.8,26.9470129 1.8,18 C1.8,12.7527062 4.29477588,8.08809848 8.16291463,5.12758993 Z"/>
    <rect width="3.6" height="16.2" x="16.2" y="1.8"/>
  </g>
</svg>
