<svg xmlns="http://www.w3.org/2000/svg" xmlns:xlink="http://www.w3.org/1999/xlink" width="144" height="144" viewBox="0 0 144 144">
  <defs>
    <path id="lamp-a" d="M55.5428571,115.934694 L95.6571429,121.665306 L95.6571429,128.865306 L55.5428571,123.134694 L55.5428571,115.934694 Z M55.2256184,108.646288 C54.8812039,104.086583 54.2931191,98.9381827 53.6465459,97.2000013 C51.9872719,92.7450022 49.2218186,89.1899982 46.2436376,85.7699973 C43.2654524,82.3499964 40.0319991,79.0649982 37.5218186,75.2399964 C34.8839987,71.28 32.7141818,66.8699977 31.182545,62.28 C29.6509082,57.6900023 28.8,52.875 28.8,48.0150004 C28.8,41.3549982 30.1189087,35.055 32.4589095,29.2950009 C34.841455,23.5799991 38.2876364,18.4050009 42.4996376,14.0399996 C46.7541831,9.72000045 51.7745442,6.21 57.3905467,3.77999955 C60.4538165,2.43 63.7298182,1.44 67.0909091,0.81 C67.7716355,0.675 73.430181,0 75.6,0 C82.0669112,0 88.235997,1.35 93.8094575,3.78 C99.4254562,6.21 104.445821,9.7200009 108.700367,14.04 C112.912366,18.4050013 116.358545,23.5799995 118.741088,29.2950013 C121.081093,35.055 122.4,41.3549982 122.4,48.0150004 C122.4,52.875 121.549088,57.6899987 120.017457,62.2800009 C118.485818,66.8699986 116.315999,71.2800009 113.678185,75.2399973 C111.168002,79.0649991 107.934547,82.3499968 104.956362,85.7699982 C101.978185,89.1899991 99.2127239,92.7450031 97.5534537,97.2000022 C96.6170102,99.7174413 95.8032538,109.388239 95.6747712,114.063585 L55.2256184,108.646288 Z M55.5883228,130.341189 L93.8685839,135.809798 C93.4041254,136.488589 92.8274886,137.149689 92.1150813,137.775953 C88.5036806,141.536199 82.469779,144 75.636,144 C65.3174873,144 56.8226009,138.382826 55.7371512,131.167046 C55.6705933,130.88776 55.6208218,130.612064 55.5883226,130.341189 Z"/>
  </defs>
  <g fill="none" fill-rule="evenodd">
    <use fill="#FFF" fill-rule="nonzero" xlink:href="#lamp-a"/>
  </g>
</svg>
