<svg xmlns="http://www.w3.org/2000/svg" width="62" height="62" viewBox="0 0 62 62">
  <path fill="#FFF" d="M59.625,39.375 C55.8269299,51.8184096 44.0612509,60.75 30.375,60.75 C13.5993507,60.75 0,47.1506493 0,30.375 C0,13.5993507 13.5993507,0 30.375,0 C43.8317026,0 55.2445979,8.75057937 59.2338025,20.8718547 L54.1814435,23.5830322 C51.2294373,13.2162343 41.6887325,5.625 30.375,5.625 C16.7059524,5.625 5.625,16.7059524 5.625,30.375 C5.625,44.0440476 16.7059524,55.125 30.375,55.125 C42.0514535,55.125 51.8393694,47.0392094 54.4448941,36.1614818 L49.4015625,33.0328125 L30.4171875,46.125 L23.625,42.75 L23.625,38.25 L17.4375,38.25 C15.5625,38.25 14.625,37.5 14.625,36 C14.625,34.5 15.5625,33.75 17.4375,33.75 L23.625,33.75 L23.625,26.971875 L17.4375,26.971875 C15.5625,26.990625 14.625,26.25 14.625,24.75 C14.625,23.25 15.5625,22.5 17.4375,22.5 L23.625,22.5 L23.625,18 L30.4171875,14.625 C47.6390625,25.875 58.5,32.25 60.75,33.75 C60.75,35.25 60.375,37.125 59.625,39.375 Z" transform="translate(.75 .5)"/>
</svg>
