<svg xmlns="http://www.w3.org/2000/svg" width="288" height="288" viewBox="0 0 288 288">
  <g fill="none" fill-rule="evenodd">
    <rect width="288" height="288" fill="#D8D8D8" opacity="0"/>
    <path fill="#CCC" fill-rule="nonzero" d="M34.3626433 208.321986C40.5035845 208.321986 43.5549094 211.035937 43.1361002 217.245985L36.9951589 217.245985C36.9951589 215.024409 36.6194271 212.762783 34.0706733 212.762783 32.0220975 212.762783 30.8111403 213.872393 30.8111403 215.929059 30.8111403 221.564277 43.511832 221.069547 43.511832 230.405821 43.511832 238.09535 37.7873069 239 32.9841623 239 25.170377 239 23.7105274 234.474392 24.0431817 229.333905L30.3516466 229.333905C30.3516466 232.175073 30.4784861 234.556847 33.943834 234.556847 36.0761717 234.556847 37.1196051 233.199872 37.1196051 231.187967 37.1196051 225.840164 24.4189134 225.510344 24.4189134 216.6688 24.4189134 212.020687 26.6756974 208.321986 34.3626433 208.321986zM231.30593 208.321515C237.738841 208.321515 240.32828 211.817612 240.079387 218.190214L233.895368 218.190214C233.895368 214.241792 233.184589 212.762312 231.30593 212.762312 227.831634 212.762312 227.316372 215.911911 227.295611 223.170517L227.294933 223.660522C227.294933 231.267595 227.754428 234.556376 231.30593 234.556376 234.230415 234.556376 234.105969 230.857675 234.187339 228.513594L240.412041 228.513594C240.412041 236.450488 237.195586 238.999529 231.30593 238.999529 221.368522 238.999529 220.923564 232.094978 220.90364 224.702626L220.902983 222.958317C220.911977 215.365913 221.213251 208.321515 231.30593 208.321515zM123.686534 208.815068L131.87605 238.505976 125.232538 238.505976 123.562088 231.926058 114.953762 231.926058 113.242626 238.505976 107.017923 238.505976 115.37257 208.815068 123.686534 208.815068zM78.3254164 208.810356C82.628383 208.810356 85.7802223 211.526663 85.7802223 216.584695 85.7802223 220.368207 84.4065276 223.207019 80.3117691 223.864304L80.4433949 223.946759C81.8218758 224.109313 85.5672277 224.53808 85.9166343 229.786937 85.923814 229.909442 86.6250205 238.505976 86.6250205 238.505976L80.5822003 238.505976C80.4266425 236.373923 79.9671489 231.080304 79.8953531 230.331141 79.6560333 227.902249 78.9476473 226.208385 75.2621253 226.208385L73.6323588 226.208385 73.6323588 238.505976 67.3238939 238.505976 67.3238939 208.810356 78.3254164 208.810356zM189.177063 208.813183C197.447949 208.813183 198.993953 214.243441 198.993953 223.494905 198.993953 228.060562 199.704732 238.504091 188.925777 238.504091L178.649394 238.504091 178.649394 208.813183 189.177063 208.813183zM64.8811476 208.764434L64.8811476 213.78494 57.9385763 213.78494 57.9385763 238.444488 51.5868622 238.444488 51.5868622 213.78494 44.6442909 213.78494 44.6442909 208.764434 64.8811476 208.764434zM105.354861 208.764434L105.354861 213.341955 95.1625754 213.341955 95.1625754 220.725053 104.468575 220.725053 104.468575 225.302574 95.1625754 225.302574 95.1625754 234.014629 105.650289 234.014629 105.650289 238.444488 88.8108613 238.444488 88.8108613 208.764434 105.354861 208.764434zM144.056003 208.764434L148.78286 228.994123 153.805145 208.764434 163.702002 208.764434 163.702002 238.444488 157.498003 238.444488 157.498003 215.556884 151.589431 238.444488 145.68086 238.444488 140.067717 215.556884 140.067717 238.444488 133.863717 238.444488 133.863717 208.764434 144.056003 208.764434zM218.356287 208.764434L218.356287 213.341955 208.311716 213.341955 208.311716 220.725053 217.617715 220.725053 217.617715 225.302574 208.311716 225.302574 208.311716 234.014629 218.79943 234.014629 218.79943 238.444488 201.960001 238.444488 201.960001 208.764434 218.356287 208.764434zM249.524 208.764434L249.524 221.463363 249.671715 221.463363 257.057429 208.764434 264 208.764434 255.432572 222.201672 264 238.444488 256.909714 238.444488 249.671715 223.235306 249.524 223.235306 249.524 238.444488 243.172286 238.444488 243.172286 208.764434 249.524 208.764434zM188.217391 213.378841L184.957859 213.378841 184.957859 233.94079 188.006791 233.94079C191.850263 233.94079 192.601727 231.104334 192.601727 223.659815L192.601367 222.950379C192.593439 217.780282 192.411103 213.378841 188.217391 213.378841zM119.175359 214.530385L119.089205 214.530385 116.207796 227.360401 122.224291 227.360401 119.175359 214.530385zM76.4300051 213.376014L73.6323588 213.376014 73.6323588 221.642728 76.4300051 221.642728C78.9380746 221.642728 79.6488538 219.176142 79.6488538 217.28203 79.6488538 214.445574 78.4378966 213.376014 76.4300051 213.376014zM144.63151 69C155.307262 69 165.577655 72.1727872 174.326955 78.1680413 182.875583 84.0279443 189.417491 92.1689101 193.250326 101.707176 193.739966 102.929317 194.189471 104.187285 194.586802 105.449234L185.283647 110.795599C184.962572 109.529669 184.577282 108.26772 184.135803 107.037618 178.207952 90.4650797 162.330782 79.3304677 144.63151 79.3304677 121.518107 79.3304677 102.71514 97.9850231 102.71514 120.911098 102.71514 143.837172 121.518107 162.487747 144.63151 162.487747 153.609576 162.487747 162.178272 159.697127 169.406477 154.422418 176.4902 149.251213 181.683591 142.165189 184.428784 133.932662L184.460892 133.74954 133.662778 104.919773 133.662778 136.177897 151.173418 126.165902 160.191619 131.281374 133.939705 146.285433 124.656618 141.038591 124.656618 100.118792 133.923652 94.820198 152.445679 105.321845 152.558055 105.405444 196.115923 130.134872C193.976759 141.938277 187.707765 152.72655 178.436718 160.525157 169.01316 168.451154 157.004947 172.818215 144.63151 172.818215 130.652698 172.818215 117.512694 167.420097 107.627591 157.61511 97.7424871 147.810123 92.300262 134.772635 92.300262 120.911098 92.300262 107.04558 97.7424871 94.0080919 107.627591 84.2031045 117.512694 74.3981172 130.652698 69 144.63151 69z"/>
  </g>
</svg>
