<svg xmlns="http://www.w3.org/2000/svg" width="144" height="144" viewBox="0 0 144 144">
  <path fill="#FFF" d="M46.3125,83.0625 L17,72.4375 L46.4375,61.4375 L33,32.625 L61.0625,46.1875 L72.1875,16 L83.3125,46.1875 L111.375,32.625 L97.9375,61.4375 L127.375,72.4375 L98.0625,83.0625 L111.25,111.5 L83.0625,98.1875 L72.1875,127.625 L61.3125,98.1875 L33.125,111.5 L46.3125,83.0625 Z M72.1875,44.6875 C68.3958144,44.6875 64.8541831,45.3958262 61.5625,46.8125 C58.2708169,48.2291738 55.3750125,50.1874875 52.875,52.6875 C50.3749875,55.1875125 48.4062572,58.0937334 46.96875,61.40625 C45.5312428,64.7187666 44.8125,68.2708144 44.8125,72.0625 C44.8125,75.8541856 45.5312428,79.3958169 46.96875,82.6875 C48.4062572,85.9791831 50.3749875,88.8749875 52.875,91.375 C55.3750125,93.8750125 58.2708169,95.8437428 61.5625,97.28125 C64.8541831,98.7187572 68.3958144,99.4375 72.1875,99.4375 C75.9791856,99.4375 79.5312334,98.7187572 82.84375,97.28125 C86.1562666,95.8437428 89.0624875,93.8750125 91.5625,91.375 C94.0625125,88.8749875 96.0208262,85.9791831 97.4375,82.6875 C98.8541738,79.3958169 99.5625,75.8541856 99.5625,72.0625 C99.5625,68.2708144 98.8541738,64.7187666 97.4375,61.40625 C96.0208262,58.0937334 94.0625125,55.1875125 91.5625,52.6875 C89.0624875,50.1874875 86.1562666,48.2291738 82.84375,46.8125 C79.5312334,45.3958262 75.9791856,44.6875 72.1875,44.6875 Z M72,51 C74.8991971,51 77.6266902,51.5443329 80.1825613,52.633015 C82.7384324,53.7216971 84.9700177,55.221 86.8773842,57.1309686 C88.7847507,59.0409372 90.2820109,61.275567 91.3692098,63.834925 C92.4564087,66.3942829 93,69.1254971 93,72.0286494 C93,75.0082004 92.4564087,77.7489643 91.3692098,80.2510232 C90.2820109,82.7530821 88.7847507,84.9590628 86.8773842,86.8690314 C84.9700177,88.779 82.7384324,90.2783029 80.1825613,91.366985 C77.6266902,92.4556671 74.8991971,93 72,93 C69.1008029,93 66.3828465,92.4556671 63.846049,91.366985 C61.3092516,90.2783029 59.087203,88.779 57.1798365,86.8690314 C55.27247,84.9590628 53.7656731,82.7530821 52.6594005,80.2510232 C51.553128,77.7489643 51,75.0082004 51,72.0286494 C51,69.1254971 51.553128,66.3942829 52.6594005,63.834925 C53.7656731,61.275567 55.27247,59.0409372 57.1798365,57.1309686 C59.087203,55.221 61.3092516,53.7216971 63.846049,52.633015 C66.3828465,51.5443329 69.1008029,51 72,51 Z"/>
</svg>
