<?xml version="1.0" encoding="UTF-8"?>
<svg width="144px" height="144px" viewBox="0 0 144 144" version="1.1" xmlns="http://www.w3.org/2000/svg" xmlns:xlink="http://www.w3.org/1999/xlink">
    <title>System</title>
    <g id="System" stroke="none" stroke-width="1" fill="none" fill-rule="evenodd">
        <rect id="background" fill="#1817B8" fill-rule="nonzero" x="0" y="0" width="144" height="144"></rect>
        <path d="M114,33 C116.761424,33 119,35.2385763 119,38 L119,86 C119,88.7614235 116.761424,91 114,91 L74,91 C73.4477155,91 73,91.4477155 73,92 L73,106 C73,106.552284 73.4477155,107 74,107 L94,107 C94.5522845,107 95,107.447716 95,108 L95,110 C95,110.552284 94.5522845,111 94,111 L50,111 C49.4477152,111 49,110.552284 49,110 L49,108 C49,107.447716 49.4477152,107 50,107 L68,107 C68.5522845,107 69,106.552284 69,106 L69,92 C69,91.4477155 68.5522845,91 68,91 L30,91 C27.2385763,91 25,88.7614235 25,86 L25,38 C25,35.2385763 27.2385763,33 30,33 L114,33 Z M71,78 C68.2385765,78 66,80.2385765 66,83 C66,85.7614235 68.2385765,88 71,88 C73.7614235,88 76,85.7614235 76,83 C76,80.2385765 73.7614235,78 71,78 Z" id="icon" fill="#FFFFFF" fill-rule="nonzero" opacity="0.5"></path>
        <path d="M114,31 C117.548677,31 120.480598,33.640649 120.937988,37.0641734 C124.235029,37.5027931 126.807183,40.241647 126.989643,43.6159296 L127,44 L127,92 C127,95.737127 124.071445,98.790253 120.384071,98.9896425 L120,99 L81,99 L81,105 L94,105 C95.46193,105 96.6796235,106.045702 96.9459055,107.42993 L96.986267,107.71108 L97,108 L97,110 C97,110.351161 96.9396655,110.68823 96.828797,111.001406 L100,111 C101.46193,111 102.679624,112.045702 102.945905,113.42993 L102.986267,113.71108 L103,114 L103,116 C103,117.559392 101.810224,118.840897 100.28892,118.986267 L100,119 L56,119 C54.440608,119 53.1591025,117.810224 53.013733,116.28892 L53,116 L53,114 C53,113.649583 53.0600795,113.313198 53.170499,113.000585 L50,113 C48.4406077,113 47.1591027,111.810224 47.0137332,110.28892 L47,110 L47,108 C47,106.440608 48.1897762,105.159103 49.71108,105.013733 L50,105 L67,105 L67,99 L36,99 C32.451323,99 29.5194027,96.359351 29.0620126,92.9358265 C25.89178,92.514077 23.3917474,89.9656315 23.0419212,86.770496 L23.0103578,86.3840705 L23,86 L23,38 C23,34.2628732 25.9285552,31.2097471 29.6159296,31.0103578 L30,31 L114,31 Z M114,33 L30,33 C27.3490332,33 25.1799227,35.0630719 25.0106354,37.6712486 L25,38 L25,86 C25,88.650967 27.0630719,90.8200775 29.6712486,90.9893645 L30,91 L68,91 C68.49092,91 68.8992165,91.3537505 68.9838885,91.8202485 L69,92 L69,106 C69,106.49092 68.6462495,106.899216 68.1797515,106.983889 L68,107 L50,107 C49.5090802,107 49.1007832,107.353751 49.0161114,107.820249 L49,108 L49,110 C49,110.49092 49.3537503,110.899216 49.8202487,110.983889 L50,111 L94,111 C94.49092,111 94.8992165,110.646249 94.9838885,110.179751 L95,110 L95,108 C95,107.50908 94.6462495,107.100784 94.1797515,107.016111 L94,107 L74,107 C73.50908,107 73.1007835,106.646249 73.0161115,106.179751 L73,106 L73,92 C73,91.50908 73.3537505,91.1007835 73.8202485,91.0161115 L74,91 L114,91 C116.650967,91 118.820077,88.936928 118.989364,86.3287515 L119,86 L119,38 C119,37.8702502 118.995058,37.7416548 118.985351,37.6143916 L118.962153,37.3817387 L118.900175,37.0009516 L118.835105,36.7216989 C118.299999,34.6922846 116.521091,33.1678258 114.363038,33.0129781 L114,33 Z M71,78 C73.7614235,78 76,80.2385765 76,83 C76,85.7614235 73.7614235,88 71,88 C68.2385765,88 66,85.7614235 66,83 C66,80.2385765 68.2385765,78 71,78 Z" id="shadow" fill="#000000" fill-rule="nonzero"></path>
        <path d="M43.8253913,47.2928932 C44.172524,47.6400259 44.2110943,48.1788747 43.9411022,48.568611 L43.8253913,48.7071068 L34.7071068,57.8253915 C34.3165825,58.2159155 33.6834175,58.2159155 33.2928932,57.8253915 C32.9457605,57.4782585 32.9071902,56.93941 33.1771823,56.5496735 L33.2928932,56.4111775 L42.4111777,47.2928932 C42.801702,46.9023689 43.434867,46.9023689 43.8253913,47.2928932 Z M42.8952863,41.0420068 C43.2424191,41.3891396 43.2809893,41.9279883 43.0109973,42.3177246 L42.8952863,42.4562204 L33.7770018,51.574505 C33.3864776,51.965029 32.7533126,51.965029 32.3627883,51.574505 C32.0156556,51.227372 31.9770853,50.6885235 32.2470774,50.298787 L32.3627883,50.1602915 L41.4810728,41.0420068 C41.8715971,40.6514825 42.504762,40.6514825 42.8952863,41.0420068 Z M51.582751,39.5355336 C51.9298835,39.8826663 51.968454,40.4215151 51.698462,40.8112514 L51.582751,40.9497472 L46.7071068,45.8253913 C46.3165825,46.2159156 45.6834175,46.2159156 45.2928932,45.8253913 C44.9457605,45.4782586 44.9071902,44.9394098 45.1771823,44.5496735 L45.2928932,44.4111777 L50.1685375,39.5355336 C50.5590615,39.1450093 51.1922265,39.1450093 51.582751,39.5355336 Z" id="highlight" fill="#FCFBFF" fill-rule="nonzero"></path>
    </g>
</svg>