<svg width="144px" height="144px" viewBox="0 0 144 144" xmlns="http://www.w3.org/2000/svg">
    <g id="toggleHotKey_off" stroke="none" stroke-width="1" fill="none" fill-rule="evenodd">
            <rect id="Rectangle" stroke="#FFFFFF" stroke-width="4.5" transform="translate(71.75, 71.75) rotate(-180) translate(-71.75, -71.75)" x="44" y="53" width="55.5" height="37.5" rx="6.75"></rect>
            <path d="M74.75,83.75 C76.4069,83.75 77.75,82.4069 77.75,80.75 L77.75,62.75 C77.75,61.0931 76.4069,59.75 74.75,59.75 L53.75,59.75 C52.0931,59.75 50.75,61.0931 50.75,62.75 L50.75,80.75 C50.75,82.4069 52.0931,83.75 53.75,83.75 L74.75,83.75 Z M62.1499,64.55 C62.1499,63.5559 62.9558,62.75 63.95,62.75 L64.55,62.75 C65.5441,62.75 66.35,63.5559 66.35,64.55 L66.35,67.2501 L62.1499,67.2501 L62.1499,64.55 Z M62.1499,76.2502 L59.7499,76.2502 C58.7558,76.2502 57.9499,75.4443 57.9499,74.4501 L57.9499,69.0501 C57.9499,68.056 58.7558,67.2501 59.7499,67.2501 L62.1499,67.2501 L62.1499,76.2502 Z M66.35,76.2502 L66.35,78.9502 C66.35,79.9443 65.5441,80.7502 64.55,80.7502 L63.95,80.7502 C62.9558,80.7502 62.1499,79.9443 62.1499,78.9502 L62.1499,76.2502 L66.35,76.2502 Z M66.35,76.2502 L68.75,76.2502 C69.7441,76.2502 70.55,75.4443 70.55,74.4501 L70.55,69.0501 C70.55,68.0559 69.7441,67.2501 68.75,67.2501 L66.35,67.2501 L66.35,76.2502 Z" id="Shape" fill="#FFFFFF"></path>
    </g>
</svg>