<svg width="144px" height="144px" viewBox="0 0 144 144" xmlns="http://www.w3.org/2000/svg">
    <g id="Page-1" stroke="none" stroke-width="1" fill="none" fill-rule="evenodd">
            <rect id="Rectangle" stroke="#FFFFFF" stroke-width="4.5" transform="translate(71.75, 71.75) rotate(-180) translate(-71.75, -71.75)" x="44" y="53" width="55.5" height="37.5" rx="6.75"></rect>
            <path d="M89.75,83.75 C91.4069,83.75 92.75,82.4069 92.75,80.75 L92.75,62.75 C92.75,61.0931 91.4069,59.75 89.75,59.75 L68.75,59.75 C67.0931,59.75 65.75,61.0931 65.75,62.75 L65.75,80.75 C65.75,82.4069 67.0931,83.75 68.75,83.75 L89.75,83.75 Z M80,62.75 C78.7574,62.75 77.75,63.7574 77.75,65 L77.75,78.5 C77.75,79.7426 78.7574,80.75 80,80.75 C81.2426,80.75 82.25,79.7426 82.25,78.5 L82.25,65 C82.25,63.7574 81.2426,62.75 80,62.75 Z" id="Shape" fill="#3BB455"></path>
    </g>
</svg>