<?xml version="1.0" encoding="UTF-8"?>
<svg width="144px" height="144px" viewBox="0 0 144 144" version="1.1" xmlns="http://www.w3.org/2000/svg" xmlns:xlink="http://www.w3.org/1999/xlink">
    <title>videocapture</title>
    <g id="videocapture" stroke="none" stroke-width="1" fill="none" fill-rule="evenodd">
        <path d="M128,71.436174 L120.148065,75.9260963 L120.148065,66.9462518 L128,71.436174 Z M89.8710039,66.9462518 L98.9792485,66.9462518 L98.9792485,75.9884563 L89.8710039,75.9884563 L89.8710039,66.9462518 Z M104.946719,66.9462518 L114.054964,66.9462518 L114.054964,75.9884563 L104.946719,75.9884563 L104.946719,66.9462518 Z M38.5507572,51.9798444 C32.0179473,51.9798444 31.8295008,77.1109368 25.3595064,91.0172237 L16,91.0172237 C24.8569826,75.8013762 20.58553,43 38.5507572,43 C57.7722939,43 53.8149187,91.0172237 62.6719013,91.0172237 C64.6819966,91.0172237 65.9383062,88.6475425 66.9433539,85.0306608 C70.3982053,72.1844944 74.9209198,67.0086119 83.9663489,67.0086119 L83.9663489,75.9884563 C77.8732473,75.1777759 76.0515984,85.2177409 75.8003365,86.2778614 C73.6017947,94.8835456 70.3982053,99.8099881 62.7975322,99.9970682 C43.2619181,100.433588 47.6590017,51.9798444 38.5507572,51.9798444 Z" id="videocapture-logo" fill="#FFFFFF" fill-rule="nonzero"></path>
    </g>
</svg>