<?xml version="1.0" encoding="UTF-8"?>
<svg width="288px" height="288px" viewBox="0 0 288 288" version="1.1" xmlns="http://www.w3.org/2000/svg" xmlns:xlink="http://www.w3.org/1999/xlink">
    <title>wave_stream_overlay_only</title>
    <g id="wave_stream_overlay_only" stroke="none" stroke-width="1" fill="none" fill-rule="evenodd" opacity="0.3">
        <path d="M264.752309,-10.1310623 C317.082564,42.1991928 317.082564,127.0433 264.752309,179.373555 C262.260392,181.865472 258.220196,181.865472 255.728279,179.373555 C253.236362,176.881638 253.236362,172.841443 255.728279,170.349526 C303.074701,123.003104 303.074701,46.2393884 255.728279,-1.10703292 C253.236362,-3.59894983 253.236362,-7.63914541 255.728279,-10.1310623 C258.220196,-12.6229792 262.260392,-12.6229792 264.752309,-10.1310623 Z M84.2717207,-10.1310623 C86.7636376,-7.63914541 86.7636376,-3.59894983 84.2717207,-1.10703292 C36.9252994,46.2393884 36.9252994,123.003104 84.2717207,170.349526 C86.7636376,172.841443 86.7636376,176.881638 84.2717207,179.373555 C81.7798038,181.865472 77.7396082,181.865472 75.2476913,179.373555 C22.9174362,127.0433 22.9174362,42.1991928 75.2476913,-10.1310623 C77.7396082,-12.6229792 81.7798038,-12.6229792 84.2717207,-10.1310623 Z M231.39697,27.2242767 C264.20101,60.0283172 264.20101,113.214175 231.39697,146.018216 C228.873582,148.541604 224.782362,148.541604 222.258974,146.018216 C219.735587,143.494828 219.735587,139.403608 222.258974,136.880221 C250.016239,109.122956 250.016239,64.1195371 222.258974,36.3622721 C219.735587,33.8388843 219.735587,29.7476645 222.258974,27.2242767 C224.782362,24.700889 228.873582,24.700889 231.39697,27.2242767 Z M121.741026,27.2242767 C124.264413,29.7476645 124.264413,33.8388843 121.741026,36.3622721 C93.9837607,64.1195371 93.9837607,109.122956 121.741026,136.880221 C124.264413,139.403608 124.264413,143.494828 121.741026,146.018216 C119.217638,148.541604 115.126418,148.541604 112.60303,146.018216 C79.7989899,113.214175 79.7989899,60.0283172 112.60303,27.2242767 C115.126418,24.700889 119.217638,24.700889 121.741026,27.2242767 Z M174,62.6212464 C188.359403,62.6212464 200,74.2618429 200,88.6212464 C200,102.98065 188.359403,114.621246 174,114.621246 C159.640597,114.621246 148,102.98065 148,88.6212464 C148,74.2618429 159.640597,62.6212464 174,62.6212464 Z" id="stream-overlay" fill="#000000" fill-rule="nonzero"></path>
    </g>
</svg>