<svg xmlns="http://www.w3.org/2000/svg" viewBox="0 0 144 144">
    <path fill="#FFF" fill-rule="nonzero" d="M16.3677639,82 L20.0107832,66.6426593 L23.3068483,82 L28.1352946,82 L32.7613507,61 L28.4822488,61 L25.8511791,75.7465374 L22.6996784,61 L17.5531909,61 L14.2282128,75.7465374 L11.4814921,61 L7,61 L11.6260561,82 L16.3677639,82 Z M36.2866533,82 L37.4720803,77.3462604 L43.4281278,77.3462604 L44.5846418,82 L49.1817852,82 L43.5148664,61 L37.7612087,61 L31.9786386,82 L36.2866533,82 Z M42.5318292,74.1759003 L38.3105531,74.1759003 L40.3633653,65.0429363 L42.5318292,74.1759003 Z M58.2872683,82 L63.8096227,61 L59.5016081,61 L55.8296757,76.2700831 L52.5625237,61 L48.0232058,61 L53.1696936,82 L58.2872683,82 Z M76.9339924,82 L76.9339924,78.7132964 L69.6768666,78.7132964 L69.6768666,72.634349 L76.1533454,72.634349 L76.1533454,69.4058172 L69.6768666,69.4058172 L69.6768666,64.2285319 L76.7026895,64.2285319 L76.7026895,61 L65.3110261,61 L65.3110261,82 L76.9339924,82 Z M97.4476606,82 L97.4476606,78.5096953 L90.9711817,78.5096953 L90.9711817,61 L86.5475154,61 L86.5475154,82 L97.4476606,82 Z M102.82132,82 L102.82132,61 L98.4554799,61 L98.4554799,82 L102.82132,82 Z M109.669536,82 L109.669536,66.6426593 L115.394281,82 L121.119025,82 L121.119025,61 L117.071226,61 L117.071226,75.5429363 L111.491046,61 L105.621737,61 L105.621737,82 L109.669536,82 Z M128.053979,82 L128.053979,71.3836565 L133.084815,82 L138,82 L132.159604,70.4238227 L138,61 L133.200466,61 L128.053979,69.8421052 L128.053979,61 L123.659225,61 L123.659225,82 L128.053979,82 Z" />
</svg>
