<?xml version="1.0" encoding="UTF-8"?>
<svg width="144px" height="144px" viewBox="0 0 144 144" version="1.1" xmlns="http://www.w3.org/2000/svg" xmlns:xlink="http://www.w3.org/1999/xlink">
    <title>action_icon</title>
    <g id="action_icon" stroke="none" stroke-width="1" fill="none" fill-rule="evenodd">
        <polygon id="background" fill="#1551FF" fill-rule="nonzero" opacity="0" points="0 0 144 0 144 144 0 144"></polygon>
        <path d="M83.3684211,15 L144,15 L144,128.684211 L0,128.684211 L0,83.2105263 L7.57894737,83.2105263 L7.57894737,121.105263 L68.2105263,121.105263 L68.2105263,83.2105263 L75.7894737,83.2105263 L75.7894737,121.105263 L136.421053,121.105263 L136.421053,75.6315789 L83.3684211,75.6315789 L83.3684211,68.0526316 L136.421053,68.0526316 L136.421053,22.5789474 L83.3684211,22.5789474 L83.3684211,15 Z M0,15 L75.7894737,15 L75.7894737,75.6315789 L0,75.6315789 L0,15 Z M56.8421053,68.0526316 L68.2105263,68.0526316 L68.2105263,22.5789474 L7.57894737,22.5789474 L7.57894737,33.9473684 L18.9473684,22.5789474 L26.5263158,22.5789474 L7.57894737,41.5263158 L7.57894737,49.1052632 L34.1052632,22.5789474 L41.6842105,22.5789474 L7.57894737,56.6842105 L7.57894737,64.2631579 L49.2631579,22.5789474 L56.8421053,22.5789474 L11.3684211,68.0526316 L18.9473684,68.0526316 L64.4210526,22.5789474 L68.2105263,22.5789474 L68.2105263,26.3684211 L26.5263158,68.0526316 L34.1052632,68.0526316 L68.2105263,33.9473684 L68.2105263,41.5263158 L41.6842105,68.0526316 L49.2631579,68.0526316 L68.2105263,49.1052632 L68.2105263,56.6842105 L56.8421053,68.0526316 Z" id="CLP-Action-Icon" fill="#FFFFFF"></path>
    </g>
</svg>