<svg xmlns="http://www.w3.org/2000/svg" width="144" height="144" viewBox="0 0 144 144">
  <path id="btn_mixer_clear_chat" fill="#EFEFEF" fill-rule="evenodd" d="M91.9914846,87 C96.421945,87 100,83.4271848 100,79.019894 L100,50.980106 C100,46.5685866 96.4144655,43 91.9914846,43 L52.0085154,43 C47.578055,43 44,46.5728152 44,50.980106 L44,79.019894 C44,83.4314134 47.5855345,87 52.0085154,87 L52,101 L69.1111111,87 L91.9914846,87 Z M60,57 L86,57 L86,78.9829396 C86,81.2015008 83.8723108,83 81.2915962,83 L64.7084039,83 C62.1080242,83 60,81.1960992 60,78.9829396 L60,57 Z M64,57 L64,77.008845 C64,78.110326 65.148441,79 66.5651148,79 L79.4348853,79 C80.8523421,79 82,78.1085296 82,77.008845 L82,57 L64,57 Z M68,61 L72,61 L72,75 L68,75 L68,61 Z M74,61 L78,61 L78,75 L74,75 L74,61 Z M56,53 L90,53 L90,57 L56,57 L56,53 Z M82,53 L77.7682238,53 C77.4010382,51.2548851 78.4521474,51 76,51 L70,51 C67.5478526,51 68.5989619,51.2548851 68.2317762,53 L64,53 C64,53 64,47 68,47 L78,47 C82,47 82,53 82,53 Z"/>
</svg>
