<svg xmlns="http://www.w3.org/2000/svg" xmlns:xlink="http://www.w3.org/1999/xlink" width="144" height="144"><defs><path id="a" d="M40 72C22.327 72 8 57.673 8 40 8 22.327 22.327 8 40 8c17.673 0 32 14.327 32 32 0 17.673-14.327 32-32 32zm0-2c16.569 0 30-13.431 30-30 0-16.569-13.431-30-30-30-16.569 0-30 13.431-30 30 0 16.569 13.431 30 30 30zM30 36v2H17a1 1 0 1 1 0-2h13zm21.444 0H63a1 1 0 1 1 0 2h-8.408l-3.148-2zM30 42v2H17a1 1 0 1 1 0-2h13zm24.591 0H63a1 1 0 1 1 0 2H51.444l3.147-2zm-24.59 12a2 2 0 0 0 3.072 1.674L35.707 54h23.789c-.5.695-1.037 1.363-1.607 2H22.11a24.115 24.115 0 0 1-1.607-2H30zm5.706-28l-2.634-1.674A2 2 0 0 0 30 26h-9.496c.5-.695 1.037-1.363 1.607-2H57.89c.57.637 1.107 1.305 1.607 2H35.707zm6.294 24l3.148-2h17.485c-.24.681-.511 1.349-.81 2H42zM30 50H18.176a23.841 23.841 0 0 1-.81-2H30v2zm0-20v2H17.366c.24-.681.511-1.349.81-2H30zm12.002 0h19.822c.299.651.57 1.319.81 2H45.15l-3.147-2zM30.393 18h19.214a23.948 23.948 0 0 1 3.664 2H26.73a23.948 23.948 0 0 1 3.664-2zm22.878 42a23.949 23.949 0 0 1-3.664 2H30.393a23.949 23.949 0 0 1-3.664-2H53.27zM32 28.224a1.306 1.306 0 0 1 2.008-1.1l18.461 11.775a1.306 1.306 0 0 1 0 2.202L34.008 52.877a1.306 1.306 0 0 1-2.008-1.1V28.223z"/></defs><g fill="none" fill-rule="evenodd"><rect width="144" height="144" fill="#1ED760" rx="22"/><use fill="#191414" xlink:href="#a" transform="translate(32 32)"/></g></svg>