<svg xmlns="http://www.w3.org/2000/svg" xmlns:xlink="http://www.w3.org/1999/xlink" width="144" height="144"><defs><path id="a" d="M40 72C22.327 72 8 57.673 8 40 8 22.327 22.327 8 40 8c17.673 0 32 14.327 32 32 0 17.673-14.327 32-32 32zm0-2c16.569 0 30-13.431 30-30 0-16.569-13.431-30-30-30-16.569 0-30 13.431-30 30 0 16.569 13.431 30 30 30zm5-42h2a1 1 0 0 1 1 1v22a1 1 0 0 1-1 1h-2a1 1 0 0 1-1-1V29a1 1 0 0 1 1-1zm-12 0h2a1 1 0 0 1 1 1v22a1 1 0 0 1-1 1h-2a1 1 0 0 1-1-1V29a1 1 0 0 1 1-1z"/></defs><g fill="none" fill-rule="evenodd"><rect width="144" height="144" fill="#1ED760" rx="22"/><use fill="#191414" xlink:href="#a" transform="translate(32 32)"/></g></svg>