<svg xmlns="http://www.w3.org/2000/svg" width="144" height="144" viewBox="0 0 144 144">
  <path id="btn_custom_toggle_hotkey_off" fill="#EFEFEF" fill-rule="evenodd" d="M32,52.0049233 C32,50.8976348 32.8984375,50 33.9974983,50 L110.002502,50 C111.10569,50 112,50.8988551 112,52.0049233 L112,91.9950767 C112,93.1023652 111.101562,94 110.002502,94 L33.9974983,94 C32.8943104,94 32,93.1011449 32,91.9950767 L32,52.0049233 Z M36,55.0004194 L36,88.9995806 C36,89.544827 36.4434236,90 36.9904144,90 L107.009586,90 C107.558884,90 108,89.552097 108,88.9995806 L108,55.0004194 C108,54.455173 107.556576,54 107.009586,54 L36.9904144,54 C36.4411162,54 36,54.447903 36,55.0004194 Z M40,58 L68,58 L68,86 L40,86 L40,58 Z M52,66 L52,78 L56,78 L56,66 L52,66 Z"/>
</svg>
