<svg xmlns="http://www.w3.org/2000/svg" width="144" height="144" viewBox="0 0 144 144">
  <path id="btn_streamlabs_hide_media_sharing" fill="#375650" fill-rule="evenodd" d="M94.5,40 L90.5,44 L44,44 L44,90.5 L40,94.5 L40,44 C40,41.790861 41.790861,40 44,40 L94.5,40 Z M104,48.5 L104,100 C104,102.209139 102.209139,104 100,104 L48.5,104 L52.5,100 L100,100 L100,52.5 L104,48.5 Z M66.5,86 L73.6480816,78.8519184 C76.6203483,77.5968934 79.4043212,75.3129206 82,72 C81.7776371,71.7161935 81.5538924,71.4399382 81.3287659,71.1712341 L86,66.5 L86,66.5107422 L94,58.5107422 L94,85 L86,77 L86,82 C86,84.209139 84.209139,86 82,86 L66.5,86 Z M50.5223156,83.9776844 C50.1899041,83.3944085 50,82.7193815 50,82 L50,62 C50,59.790861 51.790861,58 54,58 L76.5,58 L70.3153815,64.1846185 C69.5548492,64.0615395 68.7830553,64 68,64 C62.8453423,64 58.1786757,66.6666667 54,72 C55.3436582,73.7149397 56.7377722,75.154159 58.1823422,76.3176578 L50.5223156,83.9776844 Z M64.5868379,69.913162 C64.9177129,69.3731481 65.3731481,68.9177129 65.913162,68.5868379 L64.5868294,69.9131706 Z M90.3847763,50.7867966 L93.2132034,53.6152237 L53.6152237,93.2132034 L50.7867966,90.3847763 L90.3847763,50.7867966 Z"/>
</svg>
