<svg xmlns="http://www.w3.org/2000/svg" xmlns:xlink="http://www.w3.org/1999/xlink" width="144" height="144" viewBox="0 0 144 144">
  <defs>
    <path id="path-1" d="M72,104 C54.326888,104 40,89.673112 40,72 C40,54.326888 54.326888,40 72,40 C89.673112,40 104,54.326888 104,72 C104,89.673112 89.673112,104 72,104 Z M72,100 C87.463973,100 100,87.463973 100,72 C100,56.536027 87.463973,44 72,44 C56.536027,44 44,56.536027 44,72 C44,87.463973 56.536027,100 72,100 Z M72,92 C60.954305,92 52,83.045695 52,72 C52,60.954305 60.954305,52 72,52 C83.045695,52 92,60.954305 92,72 C92,83.045695 83.045695,92 72,92 Z M72,88 C80.836556,88 88,80.836556 88,72 C88,63.163444 80.836556,56 72,56 C63.163444,56 56,63.163444 56,72 C56,80.836556 63.163444,88 72,88 Z"/>
  </defs>
  <g id="btn_xsplit_toggle_recording_inactive" fill="none" fill-rule="evenodd">
    <rect id="XSPLIT_Background_inactive" width="144" height="144" fill="#004D73" fill-rule="nonzero" rx="22"/>
    <mask id="mask-2" fill="#fff">
      <use xlink:href="#path-1"/>
    </mask>
    <use fill="#EFEFEF" xlink:href="#path-1"/>
  </g>
</svg>
