<svg xmlns="http://www.w3.org/2000/svg" width="144" height="144" viewBox="0 0 144 144">
  <g id="btn_mixer_toggle_slowchat_inactive" fill="none" fill-rule="evenodd">
    <rect id="MIXER_Background_inactive" width="144" height="144" fill="#012F6A" rx="22"/>
    <path fill="#EFEFEF" d="M86.5221642,92.9554002 L65.5873961,92.9554002 L62.2000362,92.9554002 L58.1417777,92.9554002 L36,92.9554002 C34.8549326,92.9554002 32,92.9554002 32,89.9554002 C32,81.4712862 34.8955352,73.1751485 40.0551387,66.4342262 L43.5670607,70.8241287 C39.9660332,75.8760511 38,81.4195487 38,86.0910801 C38,87.9798239 39.0170325,87.9798239 39.959403,87.9798239 C41.0900595,87.9798239 42.4509253,87.9797892 44,87.9797264 L44,87.9554002 L58.3221795,87.9554002 C58.5206708,87.0462432 58.8075013,86.1701067 59.1732243,85.3364375 L36.5016031,58.4063456 C36.146076,57.9840389 36.1713624,57.3281937 36.571596,56.9279601 L37.9725599,55.5269962 C38.366743,55.1328131 39.0325157,55.091187 39.4695657,55.4420174 L67.2842086,77.7694937 C68.7577039,77.2424592 70.3453288,76.9554002 72,76.9554002 C78.7022372,76.9554002 84.30448,81.6650362 85.6778205,87.9554002 L102,87.9554002 L102,87.9758471 C102.733718,87.9758301 103.41576,87.9758211 104.040597,87.9758211 C104.982967,87.9758211 106,87.9798239 106,86.0910801 C106,73.9554002 92.732151,55.9352241 72,55.9352241 C64.0797615,55.9352241 57.248897,58.56517 51.8309816,62.4922634 L47.4959638,59.0242492 C54.0426819,54.0624519 62.3897564,51 72,51 C95.9092658,51 112,69.9554002 112,89.9554002 C112,92.9554002 109.421061,92.9554002 108,92.9554002 L86.5221642,92.9554002 Z M71.2844774,80.9806047 L79.973388,87.9554002 L81.5421977,87.9554002 C80.2679341,83.8982932 76.4776418,80.9554002 72,80.9554002 C71.7594135,80.9554002 71.5208115,80.9638963 71.2844774,80.9806047 Z" transform="matrix(-1 0 0 1 144 0)"/>
  </g>
</svg>
