<svg xmlns="http://www.w3.org/2000/svg" width="144" height="144" viewBox="0 0 144 144">
  <g id="btn_twitch_spinwheel" fill="none" fill-rule="evenodd">
    <rect id="TWITCH_Background" width="144" height="144" fill="#8560DB" fill-rule="nonzero" rx="22"/>
    <g id="btn_streamlabs_spinwheel" transform="translate(40 40)">
      <circle id="back" cx="32" cy="32" r="32" fill="#212D33"/>
      <path id="Mask" fill="#EFEFEF" d="M32,68 C12.117749,68 -4,51.882251 -4,32 C-4,12.117749 12.117749,-4 32,-4 C51.882251,-4 68,12.117749 68,32 C68,51.882251 51.882251,68 32,68 Z M32,64 C49.673112,64 64,49.673112 64,32 C64,14.326888 49.673112,0 32,0 C14.326888,0 0,14.326888 0,32 C0,49.673112 14.326888,64 32,64 Z M10.872458,13.7008851 L29.1715729,32 L10.8006694,50.3709035 C1.7092435,39.8576495 1.73317302,24.1869894 10.872458,13.7008851 Z M13.7063363,10.8779092 C24.191991,1.81034996 39.808009,1.81034996 50.2936637,10.8779092 L32,29.1715729 L13.7063363,10.8779092 Z M53.1993306,50.3709035 L34.8284271,32 L53.127542,13.7008851 C62.266827,24.1869894 62.2907565,39.8576495 53.1993306,50.3709035 Z M50.3763547,53.2047818 C39.8627224,62.3680591 24.1372776,62.3680591 13.6236453,53.2047818 L32,34.8284271 L50.3763547,53.2047818 Z"/>
      <g id="face" transform="translate(6 18)">
        <path id="Rectangle" fill="#EFEFEF" d="M0,0 L52,0 L52,25.0526316 C52,26.6804182 50.6804182,28 49.0526316,28 L29.5131089,28 C29.0799601,28 28.6979186,27.7163305 28.5726415,27.301694 L26.4772318,20.366401 C26.4249212,20.1932657 26.2421612,20.095318 26.069026,20.1476286 C25.9640799,20.1793367 25.8819617,20.261455 25.8502536,20.366401 L23.7548438,27.301694 C23.6295667,27.7163305 23.2475252,28 22.8143765,28 L2.94736842,28 C1.31958179,28 -6.88832051e-16,26.6804182 -8.8817842e-16,25.0526316 L0,0 Z"/>
        <path id="Combined-Shape" fill="#212D33" d="M2,2 L50,2 L50,23.4736842 C50,24.8689299 48.8689299,26 47.4736842,26 L29.0112362,26 C28.6399658,26 28.3125017,25.7568547 28.2051213,25.401452 L26.4090558,19.4569151 C26.3642182,19.3085135 26.2075668,19.2245583 26.0591651,19.2693959 C25.9692114,19.2965743 25.8988243,19.3669614 25.8716459,19.4569151 L24.0755804,25.401452 C23.9682001,25.7568547 23.6407359,26 23.2694656,26 L4.52631579,26 C3.13107011,26 2,24.8689299 2,23.4736842 L2,2 Z M6,6 L6,20.1447718 C6,21.1693861 6.83061395,22 7.85522818,22 L21.8359819,22 C22.059809,22 22.2595136,21.8594071 22.334996,21.6486917 L25.3821978,13.1421875 C25.4624112,12.9182653 25.6386614,12.7420151 25.8625836,12.6618017 C26.2759804,12.5137146 26.731153,12.7287906 26.8792401,13.1421875 L29.9264419,21.6486917 C30.0019244,21.8594071 30.2016289,22 30.425456,22 L44.1447718,22 C45.1693861,22 46,21.1693861 46,20.1447718 L46,6 L6,6 Z"/>
        <path fill="#000" d="M34.8325359 8L37.1674641 8C38.7318305 8 40 9.26816951 40 10.8325359L40 17.1674641C40 18.7318305 38.7318305 20 37.1674641 20L34.8325359 20C33.2681695 20 32 18.7318305 32 17.1674641L32 10.8325359C32 9.26816951 33.2681695 8 34.8325359 8zM35.5 13C36.3284271 13 37 12.3284271 37 11.5 37 10.6715729 36.3284271 10 35.5 10 34.6715729 10 34 10.6715729 34 11.5 34 12.3284271 34.6715729 13 35.5 13zM14.8325359 8L17.1674641 8C18.7318305 8 20 9.26816951 20 10.8325359L20 17.1674641C20 18.7318305 18.7318305 20 17.1674641 20L14.8325359 20C13.2681695 20 12 18.7318305 12 17.1674641L12 10.8325359C12 9.26816951 13.2681695 8 14.8325359 8zM15.5 13C16.3284271 13 17 12.3284271 17 11.5 17 10.6715729 16.3284271 10 15.5 10 14.6715729 10 14 10.6715729 14 11.5 14 12.3284271 14.6715729 13 15.5 13z"/>
      </g>
    </g>
  </g>
</svg>
