<svg xmlns="http://www.w3.org/2000/svg" width="144" height="144" viewBox="0 0 144 144">
  <path id="btn_twitch_toggle_emotechat" fill="#EFEFEF" fill-rule="evenodd" d="M72,96 C70,96 66,96 64,97.2972973 C62,98.5945946 53.5426338,108 53.5426338,108 C53.5426338,108 57.6442707,94.9090909 53.5426338,92.7272727 C43.5255527,87.4143284 36,77.6984581 36,66.5454545 C36,49.0909091 54.4319721,36 72,36 C89.5680279,36 108,49.0909091 108,66.5454545 C108,84 89.5680279,96 72,96 Z M72,92 C86.3594035,92 98,80.3594035 98,66 C98,51.6405965 86.3594035,40 72,40 C57.6405965,40 46,51.6405965 46,66 C46,80.3594035 57.6405965,92 72,92 Z M72,90 C58.745166,90 48,79.254834 48,66 C48,52.745166 58.745166,42 72,42 C85.254834,42 96,52.745166 96,66 C96,79.254834 85.254834,90 72,90 Z M62.4,66 C65.0509668,66 67.2,63.8509668 67.2,61.2 C67.2,58.5490332 65.0509668,56.4 62.4,56.4 C59.7490332,56.4 57.6,58.5490332 57.6,61.2 C57.6,63.8509668 59.7490332,66 62.4,66 Z M81.6,66 C84.2509668,66 86.4,63.8509668 86.4,61.2 C86.4,58.5490332 84.2509668,56.4 81.6,56.4 C78.9490332,56.4 76.8,58.5490332 76.8,61.2 C76.8,63.8509668 78.9490332,66 81.6,66 Z M58.4193874,70.8 C60.3962022,76.3929234 65.7301496,80.4 72,80.4 C78.2698504,80.4 83.6037978,76.3929234 85.5806126,70.8 L80.3156909,70.8 C78.6558057,73.6694466 75.5533553,75.6 72,75.6 C68.4466447,75.6 65.3441943,73.6694466 63.6843091,70.8 L58.4193874,70.8 Z"/>
</svg>
