<svg xmlns="http://www.w3.org/2000/svg" width="144" height="144" viewBox="0 0 144 144">
  <g id="btn_streamlabs_unpause" fill="none" fill-rule="evenodd">
    <g id="btn_streamlabs_pause" transform="translate(40 40)">
      <path fill="#375650" d="M4,0 L60,0 C62.209139,-4.05812251e-16 64,1.790861 64,4 L64,60 C64,62.209139 62.209139,64 60,64 L4,64 C1.790861,64 2.705415e-16,62.209139 0,60 L0,4 C-2.705415e-16,1.790861 1.790861,4.05812251e-16 4,0 Z M4,4 L4,60 L60,60 L60,4 L4,4 Z M9.39130435,52 L54.6086957,52 C55.3770918,52 56,52.6229082 56,53.3913043 L56,54.6086957 C56,55.3770918 55.3770918,56 54.6086957,56 L9.39130435,56 C8.62290817,56 8,55.3770918 8,54.6086957 L8,53.3913043 C8,52.6229082 8.62290817,52 9.39130435,52 Z M34,20 L42,20 L42,44 L34,44 L34,20 Z M22,20 L30,20 L30,44 L22,44 L22,20 Z"/>
      <rect id="spot2" width="12" height="4" x="44" y="8" fill="#00E260" rx="1.391"/>
      <rect id="spot1" width="28" height="4" x="8" y="8" fill="#00E4BB" rx="1.391"/>
    </g>
  </g>
</svg>
