<svg xmlns="http://www.w3.org/2000/svg" width="144" height="144" viewBox="0 0 144 144">
  <path id="btn_egc_toggle_microphone" fill="#EFEFEF" fill-rule="evenodd" d="M64,91 L72.0005663,95.4988987 L80,91.0066079 L80,104.508811 L72.0005663,109 L64,104.508811 L64,91 Z M88,49.0480824 L79.9997169,53.6891815 L79.9997169,58.2524327 L88,53.6101889 L88,58.2776188 L79.9997169,62.9187178 L79.9997169,67.6090441 L88,62.967945 L88,67.6559817 L79.9997169,72.2970807 L79.9997169,76.9793932 L88,72.2970807 L88,81.6353749 L72.0005663,91 L56.1166519,81.7040641 L56,72.2970807 L64.0002831,76.9381797 L64.0002831,72.2970807 L56,67.6559817 L56,62.967945 L64.0002831,67.6090441 L64.0002831,62.9187178 L56,58.2776188 L56,53.6101889 L64.0002831,58.2524327 L64.0002831,53.6388094 L56,48.9977104 L56,44.3382942 L72.0005663,35 L88,44.3382942 L88,49.0480824 Z"/>
</svg>
