<svg xmlns="http://www.w3.org/2000/svg" width="144" height="144" viewBox="0 0 144 144">
  <path id="btn_twitch_show_viewers" fill="#EFEFEF" fill-rule="evenodd" d="M48,101 L48,94.1323808 C48,93.4298551 48.3685977,92.7788414 48.9710085,92.4173949 L68,81 L56.5125708,72.7946935 C54.9357941,71.6684244 54,69.8499992 54,67.9122926 L54,49 C54,45.6862915 56.6862915,43 60,43 L84,43 C87.3137085,43 90,45.6862915 90,49 L90,67.9122926 C90,69.8499992 89.0642059,71.6684244 87.4874292,72.7946935 L76,81 L95.0289915,92.4173949 C95.6314023,92.7788414 96,93.4298551 96,94.1323808 L96,101 L48,101 Z"/>
</svg>
