<svg xmlns="http://www.w3.org/2000/svg" xmlns:xlink="http://www.w3.org/1999/xlink" width="144" height="144" viewBox="0 0 144 144">
  <defs>
    <path id="cc_keylight_cold-b" d="M127.508403,32.9933806 C122.310924,28.3161354 114.727941,27.8260176 108.098739,27.5228628 C100.601891,27.1806253 93.0976891,27.10246 85.5955882,27.0496456 C78.0913866,26.9968311 70.5882353,26.992606 63.0840336,27.0802779 C55.7741597,27.1658373 48.4485294,27.1510492 41.1428571,27.4277968 C37.4821429,27.5661706 33.8203782,27.8260176 30.1932773,28.3626121 C27.0882353,28.8220976 23.9369748,29.4305197 21.072479,30.7677809 C15.2058824,33.5088493 12,39.5127928 10.7405462,45.6572227 C10.0147059,49.1968452 9.96638655,52.7713253 10.0535714,56.3690437 C10.1439076,60.094573 10.1796218,63.8211586 10.2216387,67.5477442 C10.3067227,74.9945777 10.2478992,82.4572555 10.4695378,89.9009201 C10.6428571,95.7337449 11.3939076,101.647904 14.5042017,106.710694 C17.7552521,112.003756 22.9569328,114.590606 28.9390756,115.538097 C36.0892857,116.670438 43.4705882,116.634524 50.6911765,116.768673 C54.789916,116.844726 58.887605,116.845782 62.9863445,116.873245 C69.1911765,116.913384 75.3991597,117.019013 81.6029412,116.944017 C89.0157563,116.855288 96.4327731,116.827825 103.844538,116.649312 C110.49895,116.488756 117.997899,116.410591 124.003151,113.137153 C128.714286,110.56826 131.689076,105.817074 133.20063,100.76379 C135.097689,94.4165532 134.613445,87.7070091 134.689076,81.1664711 C134.77521,73.6963992 134.893908,66.2263274 134.945378,58.7562556 C134.993697,51.8185531 135.067227,44.080184 131.397059,37.9199099 C130.357143,36.1728088 129.028361,34.3602178 127.508403,32.9933806 Z"/>
    <filter id="cc_keylight_cold-a" width="116%" height="122.2%" x="-8%" y="-8.9%" filterUnits="objectBoundingBox">
      <feOffset dy="2" in="SourceAlpha" result="shadowOffsetOuter1"/>
      <feGaussianBlur in="shadowOffsetOuter1" result="shadowBlurOuter1" stdDeviation="3"/>
      <feColorMatrix in="shadowBlurOuter1" values="0 0 0 0 0   0 0 0 0 0   0 0 0 0 0  0 0 0 1 0"/>
    </filter>
    <linearGradient id="cc_keylight_cold-c" x1="50%" x2="100%" y1="72.767%" y2="26.168%">
      <stop offset="0%" stop-color="#94D0EC"/>
      <stop offset="100%" stop-color="#DBF4FF"/>
    </linearGradient>
  </defs>
  <g fill="none" fill-rule="evenodd">
    <g fill-rule="nonzero">
      <use fill="#000" filter="url(#cc_keylight_cold-a)" xlink:href="#cc_keylight_cold-b"/>
      <use fill="#000" xlink:href="#cc_keylight_cold-b"/>
    </g>
    <path fill="url(#cc_keylight_cold-c)" d="M128.878953,64.6126736 C128.836858,70.5285 128.796868,76.4453842 128.732673,82.3601528 C128.671635,88.0781857 129.091533,94.1780553 127.37195,99.7035831 C126.579511,102.248457 125.304031,104.594479 123.341349,106.420103 C121.328154,108.293325 118.738256,109.116231 116.093634,109.605955 C110.523407,110.637232 104.783746,110.693291 99.1388002,110.828679 C87.6710561,111.104744 76.2201501,110.972529 64.7566155,111.079359 C58.9148749,111.133302 53.0184107,110.959836 47.1798272,110.753581 C41.4864717,110.552614 35.8110065,110.564249 30.1607984,109.703265 C27.5887908,109.310851 24.9715311,108.712182 22.7994265,107.204931 C20.6399504,105.7072 19.0824335,103.459546 18.138452,101.021502 C16.0315948,95.5837648 16.4451786,89.5537047 16.3304696,83.8335564 C16.2126035,77.9790778 16.1789274,72.1224837 16.0884231,66.268005 C16.0431709,63.3032166 16.046328,60.3384282 16.0105472,57.3736398 C15.9758188,54.5273161 15.9284619,51.6757037 16.297846,48.8473612 C16.9629477,43.7565561 19.1108477,38.4277642 24.0412305,36.1779943 C26.5743001,35.0219067 29.4209779,34.6643974 32.1582085,34.3449661 C34.8943868,34.0265924 37.6410888,33.8594727 40.3920004,33.7589893 C52.1281004,33.3316706 63.8757766,33.16032 75.6202956,33.1296461 C81.5125503,33.1137803 87.4037526,33.1730126 93.2960072,33.2438798 C99.1524811,33.3136893 105.115245,33.3094584 110.946462,33.8795694 C116.353571,34.4084292 122.055346,35.0102718 125.476621,39.7752991 C128.764244,44.3541678 128.917891,50.2604747 128.911577,55.6791729 C128.90842,58.6566539 128.898948,61.6341349 128.878953,64.6126736 Z"/>
  </g>
</svg>
