<svg xmlns="http://www.w3.org/2000/svg" xmlns:xlink="http://www.w3.org/1999/xlink" width="144" height="144" viewBox="0 0 144 144">
  <defs>
    <path id="cc_keylight-b" d="M127.508403,32.9933806 C122.310924,28.3161354 114.727941,27.8260176 108.098739,27.5228628 C100.601891,27.1806253 93.0976891,27.10246 85.5955882,27.0496456 C78.0913866,26.9968311 70.5882353,26.992606 63.0840336,27.0802779 C55.7741597,27.1658373 48.4485294,27.1510492 41.1428571,27.4277968 C37.4821429,27.5661706 33.8203782,27.8260176 30.1932773,28.3626121 C27.0882353,28.8220976 23.9369748,29.4305197 21.072479,30.7677809 C15.2058824,33.5088493 12,39.5127928 10.7405462,45.6572227 C10.0147059,49.1968452 9.96638655,52.7713253 10.0535714,56.3690437 C10.1439076,60.094573 10.1796218,63.8211586 10.2216387,67.5477442 C10.3067227,74.9945777 10.2478992,82.4572555 10.4695378,89.9009201 C10.6428571,95.7337449 11.3939076,101.647904 14.5042017,106.710694 C17.7552521,112.003756 22.9569328,114.590606 28.9390756,115.538097 C36.0892857,116.670438 43.4705882,116.634524 50.6911765,116.768673 C54.789916,116.844726 58.887605,116.845782 62.9863445,116.873245 C69.1911765,116.913384 75.3991597,117.019013 81.6029412,116.944017 C89.0157563,116.855288 96.4327731,116.827825 103.844538,116.649312 C110.49895,116.488756 117.997899,116.410591 124.003151,113.137153 C128.714286,110.56826 131.689076,105.817074 133.20063,100.76379 C135.097689,94.4165532 134.613445,87.7070091 134.689076,81.1664711 C134.77521,73.6963992 134.893908,66.2263274 134.945378,58.7562556 C134.993697,51.8185531 135.067227,44.080184 131.397059,37.9199099 C130.357143,36.1728088 129.028361,34.3602178 127.508403,32.9933806 Z"/>
    <filter id="cc_keylight-a" width="116%" height="122.2%" x="-8%" y="-8.9%" filterUnits="objectBoundingBox">
      <feOffset dy="2" in="SourceAlpha" result="shadowOffsetOuter1"/>
      <feGaussianBlur in="shadowOffsetOuter1" result="shadowBlurOuter1" stdDeviation="3"/>
      <feColorMatrix in="shadowBlurOuter1" values="0 0 0 0 0   0 0 0 0 0   0 0 0 0 0  0 0 0 1 0"/>
    </filter>
    <linearGradient id="cc_keylight-c" x1="2.284%" x2="98.969%" y1="50%" y2="50%">
      <stop offset="0%" stop-color="#EBEBEB"/>
      <stop offset="51.288%" stop-color="#FFF"/>
      <stop offset="100%" stop-color="#E8E8E8"/>
    </linearGradient>
  </defs>
  <g fill="none" fill-rule="evenodd">
    <g fill-rule="nonzero">
      <use fill="#000" filter="url(#cc_keylight-a)" xlink:href="#cc_keylight-b"/>
      <use fill="#000" xlink:href="#cc_keylight-b"/>
    </g>
    <path fill="url(#cc_keylight-c)" stroke="#FAFAFA" stroke-opacity=".799" stroke-width="2" d="M127.878977,64.6057594 C127.897848,61.7946733 127.908197,58.8662493 127.911578,55.6780076 C127.920533,47.9923569 127.259106,43.972451 124.664316,40.3585318 C122.044808,36.7101772 118.730103,35.6456455 110.849157,34.874824 C107.952994,34.5916697 104.895962,34.4347967 101.167742,34.3507296 C99.5383612,34.3139889 98.2445307,34.2965917 95.2956692,34.2658095 C94.3031811,34.2554493 93.8437323,34.2504798 93.2839809,34.2438075 C85.6959095,34.1525444 80.7199158,34.1159182 75.6229074,34.1296427 C62.8882881,34.1629025 51.4065222,34.3586063 40.4285033,34.7583229 C37.3704392,34.8700257 34.7581892,35.0491867 32.2741207,35.3382255 C28.3670893,35.7941712 26.4525648,36.176693 24.4563614,37.087756 C20.4162178,38.9313032 18.0360183,43.2623087 17.2894252,48.9768623 C17.035793,50.9189025 16.9671982,52.8478348 16.9926437,55.7833182 C16.9958341,56.1513782 16.999207,56.4469031 17.0073851,57.1101512 C17.0089339,57.2357561 17.0089339,57.2357561 17.0104744,57.3615721 C17.0237979,58.465551 17.0305726,59.3479537 17.0429037,61.332384 C17.0582004,63.7940717 17.0674684,64.8874847 17.0883036,66.2525478 C17.1187245,68.2203904 17.1384398,69.7946226 17.1793147,73.3350168 C17.189152,74.1870868 17.1935454,74.5657589 17.1991164,75.0390096 C17.2432558,78.7885708 17.2792069,81.2772423 17.3302686,83.813507 C17.3469864,84.6471649 17.3523428,85.3179589 17.3583669,86.8263937 C17.3642794,88.3068714 17.3693791,88.9628368 17.3850549,89.7820587 C17.474528,94.4579445 17.9121146,97.6694062 19.0709915,100.660434 C20.0017362,103.064291 21.4865205,105.077374 23.3695274,106.383357 C25.1104053,107.591374 27.2003384,108.240013 30.3114404,108.714677 C34.0447487,109.283562 37.0584952,109.461502 43.8638554,109.65218 C45.543297,109.699236 46.2830734,109.721304 47.2151315,109.754204 C54.7492726,110.020358 59.7117091,110.125902 64.7472968,110.079402 C68.2784157,110.046495 71.1013679,110.036488 77.4511117,110.026206 C78.4701195,110.024556 78.9229351,110.0238 79.4889886,110.022771 C88.3428149,110.006675 93.5305239,109.963398 99.1148232,109.828967 C99.4711732,109.82042 99.769608,109.813507 100.391361,109.799285 C102.812729,109.743895 103.865831,109.715945 105.197737,109.665735 C109.463822,109.504914 112.772038,109.203924 115.911552,108.622672 C118.909064,108.0676 121.03283,107.202181 122.660271,105.687893 C124.378719,104.089447 125.617966,101.97287 126.41712,99.4064331 C127.298372,96.5747093 127.655381,93.4963988 127.72289,89.3160423 C127.739789,88.2696138 127.740261,87.4253458 127.731477,85.5458643 C127.723952,83.9359879 127.723322,83.2307849 127.732732,82.3493002 C127.770778,78.8438274 127.801771,75.2474754 127.836613,70.5213631 C127.845817,69.2728064 127.852953,68.2759738 127.868902,66.0254038 C127.873933,65.3155516 127.873934,65.3154845 127.878977,64.6057594 Z"/>
  </g>
</svg>
