<svg xmlns="http://www.w3.org/2000/svg" width="144" height="144" viewBox="0 0 144 144">
  <defs>
    <linearGradient id="cc_kl_fill_warm-a" x1="50%" x2="100%" y1="73.832%" y2="26.168%">
      <stop offset="0%" stop-color="#FFC56C"/>
      <stop offset="100%" stop-color="#FFF1DB"/>
    </linearGradient>
  </defs>
  <g fill="none" fill-rule="evenodd">
    <path fill="url(#cc_kl_fill_warm-a)" d="M128.878953,64.6126736 C128.836858,70.5285 128.796868,76.4453842 128.732673,82.3601528 C128.671635,88.0781857 129.091533,94.1780553 127.37195,99.7035831 C126.579511,102.248457 125.304031,104.594479 123.341349,106.420103 C121.328154,108.293325 118.738256,109.116231 116.093634,109.605955 C110.523407,110.637232 104.783746,110.693291 99.1388002,110.828679 C87.6710561,111.104744 76.2201501,110.972529 64.7566155,111.079359 C58.9148749,111.133302 53.0184107,110.959836 47.1798272,110.753581 C41.4864717,110.552614 35.8110065,110.564249 30.1607984,109.703265 C27.5887908,109.310851 24.9715311,108.712182 22.7994265,107.204931 C20.6399504,105.7072 19.0824335,103.459546 18.138452,101.021502 C16.0315948,95.5837648 16.4451786,89.5537047 16.3304696,83.8335564 C16.2126035,77.9790778 16.1789274,72.1224837 16.0884231,66.268005 C16.0431709,63.3032166 16.046328,60.3384282 16.0105472,57.3736398 C15.9758188,54.5273161 15.9284619,51.6757037 16.297846,48.8473612 C16.9629477,43.7565561 19.1108477,38.4277642 24.0412305,36.1779943 C26.5743001,35.0219067 29.4209779,34.6643974 32.1582085,34.3449661 C34.8943868,34.0265924 37.6410888,33.8594727 40.3920004,33.7589893 C52.1281004,33.3316706 63.8757766,33.16032 75.6202956,33.1296461 C81.5125503,33.1137803 87.4037526,33.1730126 93.2960072,33.2438798 C99.1524811,33.3136893 105.115245,33.3094584 110.946462,33.8795694 C116.353571,34.4084292 122.055346,35.0102718 125.476621,39.7752991 C128.764244,44.3541678 128.917891,50.2604747 128.911577,55.6791729 C128.90842,58.6566539 128.898948,61.6341349 128.878953,64.6126736 Z"/>
  </g>
</svg>
