<svg xmlns="http://www.w3.org/2000/svg" width="31" height="31" viewBox="0 0 31 31">
  <path fill="#CCC" d="M15.6052445,0.1025641 C18.7681606,0.1025641 21.810981,1.04290219 24.4031454,2.81975182 C26.9358564,4.55648665 28.8740343,6.9692738 30.0095926,9.7961873 C30.1546587,10.1584004 30.2878341,10.531232 30.4055516,10.9052435 L27.6492961,12.4897781 C27.5541708,12.1145867 27.4400205,11.7405752 27.3092232,11.3760025 C25.5529724,6.4642993 20.8490265,3.16426715 15.6052445,3.16426715 C8.7574121,3.16426715 3.18663693,8.6930303 3.18663693,15.4877694 C3.18663693,22.2825085 8.7574121,27.8100918 15.6052445,27.8100918 C18.2651856,27.8100918 20.803842,26.9830191 22.9453502,25.4197217 C25.0440521,23.8871004 26.5827038,21.7869727 27.396025,19.3470491 L27.4055376,19.2927761 L12.3555265,10.7483239 L12.3555265,20.0124828 L17.5434224,17.0451675 L20.2152542,18.5612709 L12.4375721,23.0081144 L9.6872619,21.453076 L9.6872619,9.3254284 L12.4328158,7.755052 L17.9203564,10.8674884 L17.9536502,10.8922652 L30.8585859,18.221475 C30.2248136,21.7197214 28.3674921,24.9171069 25.6207492,27.2284272 C22.8288217,29.5775027 19.2711356,30.8717949 15.6052445,30.8717949 C11.4637268,30.8717949 7.5707241,29.2719223 4.64205397,26.3659591 C1.71338389,23.4599958 0.1010101,19.5959968 0.1010101,15.4877694 C0.1010101,11.3783622 1.71338389,7.5143632 4.64205397,4.60839992 C7.5707241,1.70243668 11.4637268,0.1025641 15.6052445,0.1025641 Z"/>
</svg>
