<svg xmlns="http://www.w3.org/2000/svg" width="144" height="144" viewBox="0 0 144 144">
  <g fill="none" fill-rule="evenodd">
    <path fill="#EFEFEE" fill-rule="nonzero" d="M72.2,115.4 C48.3412988,115.4 29,96.0587012 29,72.2 C29,48.3412988 48.3412988,29 72.2,29 C96.0587012,29 115.4,48.3412988 115.4,72.2 C115.4,96.0587012 96.0587012,115.4 72.2,115.4 Z M72.2,108.2 C92.082251,108.2 108.2,92.082251 108.2,72.2 C108.2,52.317749 92.082251,36.2 72.2,36.2 C52.317749,36.2 36.2,52.317749 36.2,72.2 C36.2,92.082251 52.317749,108.2 72.2,108.2 Z"/>
    <path fill="#EFEFEF" fill-rule="nonzero" d="M72.2,115.4 C48.3412988,115.4 29,96.0587012 29,72.2 C29,48.3412988 48.3412988,29 72.2,29 L72.2,115.4 Z"/>
  </g>
</svg>
