<svg xmlns="http://www.w3.org/2000/svg" width="144" height="144" viewBox="0 0 144 144">
  <g fill="none" fill-rule="evenodd">
    <path fill="rgba(255,0,0,0)" stroke="#D8D8D9" stroke-width="8" d="M50.4,119.4 C34.4941992,119.4 21.6,106.505801 21.6,90.6 C21.6,74.6941992 34.4941992,61.8 50.4,61.8 C66.3058008,61.8 79.2,74.6941992 79.2,90.6 C79.2,106.505801 66.3058008,119.4 50.4,119.4 Z" opacity=".8"/>
    <path fill="rgba(0,0,0,0)" stroke="#D8D8D9" stroke-width="8" d="M93.6,119.4 C77.6941992,119.4 64.8,106.505801 64.8,90.6 C64.8,74.6941992 77.6941992,61.8 93.6,61.8 C109.505801,61.8 122.4,74.6941992 122.4,90.6 C122.4,106.505801 109.505801,119.4 93.6,119.4 Z" opacity=".8"/>
    <path fill="rgba(0,0,0,0)" stroke="#D8D8D8" stroke-width="8" d="M72,83.4 C56.0941992,83.4 43.2,70.5058008 43.2,54.6 C43.2,38.6941992 56.0941992,25.8 72,25.8 C87.9058008,25.8 100.8,38.6941992 100.8,54.6 C100.8,70.5058008 87.9058008,83.4 72,83.4 Z" opacity="1"/>
  </g>
</svg>
