<?xml version="1.0" encoding="UTF-8"?>
<svg width="144px" height="144px" viewBox="0 0 144 144" version="1.1" xmlns="http://www.w3.org/2000/svg" xmlns:xlink="http://www.w3.org/1999/xlink">
    <title>wave_stream_overlay</title>
    <g id="wave_stream_overlay" stroke="none" stroke-width="1" fill="none" fill-rule="evenodd">
        <rect id="background" fill="#1551FF" fill-rule="nonzero" opacity="0" x="0" y="0" width="144" height="144"></rect>
        <path d="M132.376155,-5.06553115 C158.541282,21.0995964 158.541282,63.52165 132.376155,89.6867775 C131.130196,90.932736 129.110098,90.932736 127.86414,89.6867775 C126.618181,88.440819 126.618181,86.4207215 127.86414,85.174763 C151.537351,61.501552 151.537351,23.1196942 127.86414,-0.55351646 C126.618181,-1.79947491 126.618181,-3.8195727 127.86414,-5.06553115 C129.110098,-6.3114896 131.130196,-6.3114896 132.376155,-5.06553115 Z M42.1358604,-5.06553115 C43.3818188,-3.8195727 43.3818188,-1.79947491 42.1358604,-0.55351646 C18.4626497,23.1196942 18.4626497,61.501552 42.1358604,85.174763 C43.3818188,86.4207215 43.3818188,88.440819 42.1358604,89.6867775 C40.8899019,90.932736 38.8698041,90.932736 37.6238457,89.6867775 C11.4587181,63.52165 11.4587181,21.0995964 37.6238457,-5.06553115 C38.8698041,-6.3114896 40.8899019,-6.3114896 42.1358604,-5.06553115 Z M115.698485,13.6121384 C132.100505,30.0141586 132.100505,56.6070875 115.698485,73.009108 C114.436791,74.270802 112.391181,74.270802 111.129487,73.009108 C109.867794,71.747414 109.867794,69.701804 111.129487,68.4401105 C125.00812,54.561478 125.00812,32.0597686 111.129487,18.1811361 C109.867794,16.9194422 109.867794,14.8738323 111.129487,13.6121384 C112.391181,12.3504445 114.436791,12.3504445 115.698485,13.6121384 Z M60.870513,13.6121384 C62.1322065,14.8738323 62.1322065,16.9194422 60.870513,18.1811361 C46.9918804,32.0597686 46.9918804,54.561478 60.870513,68.4401105 C62.1322065,69.701804 62.1322065,71.747414 60.870513,73.009108 C59.608819,74.270802 57.563209,74.270802 56.301515,73.009108 C39.899495,56.6070875 39.899495,30.0141586 56.301515,13.6121384 C57.563209,12.3504445 59.608819,12.3504445 60.870513,13.6121384 Z M87,31.3106232 C94.1797015,31.3106232 100,37.1309215 100,44.3106232 C100,51.490325 94.1797015,57.3106232 87,57.3106232 C79.8202985,57.3106232 74,51.490325 74,44.3106232 C74,37.1309215 79.8202985,31.3106232 87,31.3106232 Z" id="stream-overlay" fill="#000000" fill-rule="nonzero" opacity="0.3"></path>
    </g>
</svg>