<?xml version="1.0" encoding="UTF-8"?>
<svg width="144px" height="144px" viewBox="0 0 144 144" version="1.1" xmlns="http://www.w3.org/2000/svg" xmlns:xlink="http://www.w3.org/1999/xlink">
    <title>wave_microphone</title>
    <g id="wave_microphone" stroke="none" stroke-width="1" fill="none" fill-rule="evenodd">
        <polygon id="background" fill="#1551FF" fill-rule="nonzero" points="0 0 144 0 144 144 0 144"></polygon>
        <path d="M84.0482309,24.9999962 C85.8024825,25.1645515 87.2348023,25.849018 88.252298,26.8385882 C89.3356295,27.8921874 89.9593587,29.2971389 89.9981026,30.8478686 L89.9981026,30.8478686 L90.0000014,95.0482561 C89.835442,96.8024962 89.1509774,98.2348071 88.1614119,99.2522979 C87.1078337,100.335608 85.7029174,100.959334 84.1522244,100.9981 L84.1522244,100.9981 L75.1252473,100.999974 L75.0000335,112.874961 L89.0783574,113.000018 C89.9991208,113.137118 90.691595,113.504158 91.1682795,113.980843 C91.715595,114.528158 92,115.230483 92,116 C92,116.80137 91.6857559,117.529324 91.1738547,118.067457 C90.6534342,118.614546 89.9285826,118.965067 89.1219795,118.997551 L89.1219795,118.997551 L54.921801,119.000006 C54.0009587,118.862924 53.3084324,118.495869 52.8317205,118.019157 C52.284405,117.471842 52,116.769517 52,116 C52,115.19863 52.3142441,114.470676 52.8261453,113.932543 C53.3465538,113.385467 54.0713838,113.034949 54.8779646,113.002451 L54.8779646,113.002451 L68.8747675,113.000022 L68.9999665,101.125039 L59.9515455,100.999983 C58.1973958,100.83539 56.7651545,100.15094 55.7477021,99.1614119 C54.6643705,98.1078127 54.0406413,96.7028612 54.0018974,95.1521315 L54.0018974,95.1521315 L53.9999986,30.9517439 C54.164558,29.1975037 54.8490226,27.7651927 55.8385881,26.7477019 C56.8921815,25.6643762 58.2971233,25.0406479 59.8478429,25.0018978 L59.8478429,25.0018978 Z M50.1088142,70.9998297 C50.7075518,71.1231052 51.1156378,71.3507445 51.3954563,71.6087282 C51.7837441,71.9667172 51.968435,72.4039792 51.9967524,72.8849106 L51.9967524,72.8849106 L52.0000439,81.109428 C51.8767392,81.7078308 51.6491674,82.1157335 51.3912718,82.3954563 C51.0334477,82.7835653 50.5964235,82.9682648 50.1157538,82.9967132 L50.1157538,82.9967132 L47.8911858,83.0001703 C47.2924481,82.8768948 46.8843621,82.6492555 46.6045437,82.3912718 C46.2162559,82.0332828 46.0315651,81.5960208 46.0032477,81.1150893 L46.0032477,81.1150893 L45.9999561,72.8905721 C46.1232607,72.2921695 46.3508325,71.8842667 46.608728,71.6045438 C46.9665523,71.2164347 47.4035766,71.0317352 47.8842461,71.0032868 L47.8842461,71.0032868 Z M96.1088142,70.9998297 C96.7075518,71.1231052 97.1156378,71.3507445 97.3954563,71.6087282 C97.7837441,71.9667172 97.968435,72.4039792 97.9967524,72.8849106 L97.9967524,72.8849106 L98.0000439,81.109428 C97.8767392,81.7078308 97.6491674,82.1157335 97.3912718,82.3954563 C97.0334477,82.7835653 96.5964235,82.9682648 96.1157538,82.9967132 L96.1157538,82.9967132 L93.8911858,83.0001703 C93.2924482,82.8768948 92.8843622,82.6492555 92.6045437,82.3912718 C92.2162559,82.0332828 92.031565,81.5960208 92.0032476,81.1150894 L92.0032476,81.1150894 L91.9999561,72.890572 C92.1232608,72.2921692 92.3508326,71.8842665 92.6087282,71.6045437 C92.9665523,71.2164347 93.4035765,71.0317352 93.8842462,71.0032868 L93.8842462,71.0032868 Z" id="wave-body" stroke="#000000" stroke-width="2" fill="#FFFFFF" fill-rule="nonzero"></path>
        <path d="M72,87 C74.2091,87 76,88.7909 76,91 C76,93.2091 74.2091,95 72,95 C69.7909,95 68,93.2091 68,91 C68,88.7909 69.7909,87 72,87 Z M58,86 C58.491,86 58.8992,86.3538 58.9839,86.8202 L59,87 L59,93.7347 C59,94.9858 60.0142,96 61.2653,96 C61.8176,96 62.2653,96.4477 62.2653,97 C62.2653,97.5523 61.8176,98 61.2653,98 C59.0121,98 57.1669,96.2528 57.0107,94.0393 L57,93.7347 L57,87 C57,86.4477 57.4477,86 58,86 Z M89,76.5 L89,78.5 L55,78.5 L55,76.5 L89,76.5 Z" id="body-overlays" fill="#000000" fill-rule="nonzero"></path>
        <g id="dots" transform="translate(56.000000, 26.700000)" fill="#000000" fill-rule="nonzero">
            <circle id="dot" cx="26.25" cy="1.25" r="1.25"></circle>
            <circle id="dot" cx="21.25" cy="1.25" r="1.25"></circle>
            <circle id="dot" cx="16.25" cy="1.25" r="1.25"></circle>
            <circle id="dot" cx="11.25" cy="1.25" r="1.25"></circle>
            <circle id="dot" cx="6.25" cy="1.25" r="1.25"></circle>
            <circle id="dot" cx="31.25" cy="6.25" r="1.25"></circle>
            <circle id="dot" cx="26.25" cy="6.25" r="1.25"></circle>
            <circle id="dot" cx="21.25" cy="6.25" r="1.25"></circle>
            <circle id="dot" cx="11.25" cy="6.25" r="1.25"></circle>
            <circle id="dot" cx="6.25" cy="6.25" r="1.25"></circle>
            <circle id="dot" cx="1.25" cy="6.25" r="1.25"></circle>
            <circle id="dot" cx="31.25" cy="11.25" r="1.25"></circle>
            <circle id="dot" cx="26.25" cy="11.25" r="1.25"></circle>
            <circle id="dot" cx="6.25" cy="11.25" r="1.25"></circle>
            <circle id="dot" cx="1.25" cy="11.25" r="1.25"></circle>
            <circle id="dot" cx="31.25" cy="16.25" r="1.25"></circle>
            <circle id="dot" cx="26.25" cy="16.25" r="1.25"></circle>
            <circle id="dot" cx="21.25" cy="16.25" r="1.25"></circle>
            <circle id="dot" cx="16.25" cy="16.25" r="1.25"></circle>
            <circle id="dot" cx="11.25" cy="16.25" r="1.25"></circle>
            <circle id="dot" cx="11.25" cy="11.25" r="1.25"></circle>
            <circle id="dot" cx="21.25" cy="11.25" r="1.25"></circle>
            <circle id="dot" cx="6.25" cy="16.25" r="1.25"></circle>
            <circle id="dot" cx="1.25" cy="16.25" r="1.25"></circle>
            <circle id="dot" cx="31.25" cy="21.25" r="1.25"></circle>
            <circle id="dot" cx="26.25" cy="21.25" r="1.25"></circle>
            <circle id="dot" cx="21.25" cy="21.25" r="1.25"></circle>
            <circle id="dot" cx="16.25" cy="21.25" r="1.25"></circle>
            <circle id="dot" cx="11.25" cy="21.25" r="1.25"></circle>
            <circle id="dot" cx="6.25" cy="21.25" r="1.25"></circle>
            <circle id="dot" cx="1.25" cy="21.25" r="1.25"></circle>
            <circle id="dot" cx="31.25" cy="26.25" r="1.25"></circle>
            <circle id="dot" cx="26.25" cy="26.25" r="1.25"></circle>
            <circle id="dot" cx="21.25" cy="26.25" r="1.25"></circle>
            <circle id="dot" cx="16.25" cy="26.25" r="1.25"></circle>
            <circle id="dot" cx="11.25" cy="26.25" r="1.25"></circle>
            <circle id="dot" cx="6.25" cy="26.25" r="1.25"></circle>
            <circle id="dot" cx="1.25" cy="26.25" r="1.25"></circle>
            <circle id="dot" cx="31.25" cy="31.25" r="1.25"></circle>
            <circle id="dot" cx="26.25" cy="31.25" r="1.25"></circle>
            <circle id="dot" cx="21.25" cy="31.25" r="1.25"></circle>
            <circle id="dot" cx="16.25" cy="31.25" r="1.25"></circle>
            <circle id="dot" cx="11.25" cy="31.25" r="1.25"></circle>
            <circle id="dot" cx="6.25" cy="31.25" r="1.25"></circle>
            <circle id="dot" cx="1.25" cy="31.25" r="1.25"></circle>
            <circle id="dot" cx="31.25" cy="36.25" r="1.25"></circle>
            <circle id="dot" cx="26.25" cy="36.25" r="1.25"></circle>
            <circle id="dot" cx="21.25" cy="36.25" r="1.25"></circle>
            <circle id="dot" cx="16.25" cy="36.25" r="1.25"></circle>
            <circle id="dot" cx="11.25" cy="36.25" r="1.25"></circle>
            <circle id="dot" cx="6.25" cy="36.25" r="1.25"></circle>
            <circle id="dot" cx="1.25" cy="36.25" r="1.25"></circle>
            <circle id="dot" cx="31.25" cy="41.25" r="1.25"></circle>
            <circle id="dot" cx="26.25" cy="41.25" r="1.25"></circle>
            <circle id="dot" cx="21.25" cy="41.25" r="1.25"></circle>
            <circle id="dot" cx="16.25" cy="41.25" r="1.25"></circle>
            <circle id="dot" cx="11.25" cy="41.25" r="1.25"></circle>
            <circle id="dot" cx="6.25" cy="41.25" r="1.25"></circle>
            <circle id="dot" cx="1.25" cy="41.25" r="1.25"></circle>
            <circle id="dot" cx="31.25" cy="46.25" r="1.25"></circle>
            <circle id="dot" cx="26.25" cy="46.25" r="1.25"></circle>
            <circle id="dot" cx="21.25" cy="46.25" r="1.25"></circle>
            <circle id="dot" cx="16.25" cy="46.25" r="1.25"></circle>
            <circle id="dot" cx="11.25" cy="46.25" r="1.25"></circle>
            <circle id="dot" cx="6.25" cy="46.25" r="1.25"></circle>
            <circle id="dot" cx="1.25" cy="46.25" r="1.25"></circle>
            <circle id="dot" cx="28.75" cy="4.05" r="1.25"></circle>
            <circle id="dot" cx="23.75" cy="4.05" r="1.25"></circle>
            <circle id="dot" cx="18.75" cy="4.05" r="1.25"></circle>
            <circle id="dot" cx="13.75" cy="4.05" r="1.25"></circle>
            <circle id="dot" cx="8.75" cy="4.05" r="1.25"></circle>
            <circle id="dot" cx="3.75" cy="4.05" r="1.25"></circle>
            <circle id="dot" cx="28.75" cy="9.05" r="1.25"></circle>
            <circle id="dot" cx="23.75" cy="9.05" r="1.25"></circle>
            <circle id="dot" cx="8.75" cy="9.05" r="1.25"></circle>
            <circle id="dot" cx="3.75" cy="9.05" r="1.25"></circle>
            <circle id="dot" cx="28.75" cy="14.05" r="1.25"></circle>
            <circle id="dot" cx="23.75" cy="14.05" r="1.25"></circle>
            <circle id="dot" cx="8.75" cy="14.05" r="1.25"></circle>
            <circle id="dot" cx="3.75" cy="14.05" r="1.25"></circle>
            <circle id="dot" cx="28.75" cy="19.05" r="1.25"></circle>
            <circle id="dot" cx="23.75" cy="19.05" r="1.25"></circle>
            <circle id="dot" cx="18.75" cy="19.05" r="1.25"></circle>
            <circle id="dot" cx="13.75" cy="19.05" r="1.25"></circle>
            <circle id="dot" cx="8.75" cy="19.05" r="1.25"></circle>
            <circle id="dot" cx="3.75" cy="19.05" r="1.25"></circle>
            <circle id="dot" cx="28.75" cy="24.05" r="1.25"></circle>
            <circle id="dot" cx="23.75" cy="24.05" r="1.25"></circle>
            <circle id="dot" cx="18.75" cy="24.05" r="1.25"></circle>
            <circle id="dot" cx="13.75" cy="24.05" r="1.25"></circle>
            <circle id="dot" cx="8.75" cy="24.05" r="1.25"></circle>
            <circle id="dot" cx="3.75" cy="24.05" r="1.25"></circle>
            <circle id="dot" cx="28.75" cy="29.05" r="1.25"></circle>
            <circle id="dot" cx="23.75" cy="29.05" r="1.25"></circle>
            <circle id="dot" cx="18.75" cy="29.05" r="1.25"></circle>
            <circle id="dot" cx="13.75" cy="29.05" r="1.25"></circle>
            <circle id="dot" cx="8.75" cy="29.05" r="1.25"></circle>
            <circle id="dot" cx="3.75" cy="29.05" r="1.25"></circle>
            <circle id="dot" cx="28.75" cy="34.05" r="1.25"></circle>
            <circle id="dot" cx="23.75" cy="34.05" r="1.25"></circle>
            <circle id="dot" cx="18.75" cy="34.05" r="1.25"></circle>
            <circle id="dot" cx="13.75" cy="34.05" r="1.25"></circle>
            <circle id="dot" cx="8.75" cy="34.05" r="1.25"></circle>
            <circle id="dot" cx="3.75" cy="34.05" r="1.25"></circle>
            <circle id="dot" cx="28.75" cy="39.05" r="1.25"></circle>
            <circle id="dot" cx="23.75" cy="39.05" r="1.25"></circle>
            <circle id="dot" cx="18.75" cy="39.05" r="1.25"></circle>
            <circle id="dot" cx="13.75" cy="39.05" r="1.25"></circle>
            <circle id="dot" cx="8.75" cy="39.05" r="1.25"></circle>
            <circle id="dot" cx="3.75" cy="39.05" r="1.25"></circle>
            <circle id="dot" cx="28.75" cy="44.05" r="1.25"></circle>
            <circle id="dot" cx="23.75" cy="44.05" r="1.25"></circle>
            <circle id="dot" cx="18.75" cy="44.05" r="1.25"></circle>
            <circle id="dot" cx="13.75" cy="44.05" r="1.25"></circle>
            <circle id="dot" cx="8.75" cy="44.05" r="1.25"></circle>
            <circle id="dot" cx="3.75" cy="44.05" r="1.25"></circle>
            <circle id="dot" cx="28.75" cy="49.05" r="1.25"></circle>
            <circle id="dot" cx="23.75" cy="49.05" r="1.25"></circle>
            <circle id="dot" cx="18.75" cy="49.05" r="1.25"></circle>
            <circle id="dot" cx="13.75" cy="49.05" r="1.25"></circle>
            <circle id="dot" cx="8.75" cy="49.05" r="1.25"></circle>
            <circle id="dot" cx="3.75" cy="49.05" r="1.25"></circle>
        </g>
        <circle id="white-placeholder" fill="#FFFFFF" fill-rule="nonzero" cx="72" cy="37" r="5"></circle>
        <path d="M72.0336135,32.95 C72.8730993,32.95 73.667185,33.1975494 74.3475535,33.6698399 C75.0140451,34.1256589 75.5407221,34.7662389 75.8335888,35.5212084 L75.8335888,35.5212084 L75.1508155,36.2986006 C74.8937927,35.4971172 74.4647546,34.8803918 73.9287117,34.4635445 C73.3898254,34.0444861 72.7430373,33.8277778 72.0560224,33.8277778 C71.1762906,33.8277778 70.3842333,34.1810388 69.8110183,34.7494771 C69.2343289,35.3213607 68.8791317,36.1110343 68.8791317,36.9777778 C68.8791317,37.8389582 69.2353774,38.6185681 69.8083322,39.1867482 C70.3853408,39.7589484 71.1821327,40.1168041 72.0560224,40.1277777 C72.7401427,40.1277777 73.3800514,39.908762 73.9309451,39.5154355 C74.4496198,39.1296711 74.841325,38.5969611 75.0436618,37.978922 L75.0436618,37.978922 L71.2544818,35.8193798 L71.2544818,38.0466466 L72.5489619,37.2978259 L73.344085,37.7556629 L71.2272205,38.9685479 L70.4598039,38.5404733 L70.4598039,35.3261933 L71.227228,34.8981146 L72.6863336,35.734633 L76.0557824,37.7080597 C75.8795494,38.6443262 75.4002045,39.4899707 74.665139,40.1050138 C73.9392009,40.7124198 72.986438,41.05 72.0336135,41.05 C70.944696,41.05 69.9237983,40.6226277 69.152468,39.8577252 C68.3809786,39.0926649 67.95,38.0800456 67.95,37 C67.95,35.9199544 68.3809786,34.9073351 69.152468,34.1422748 C69.9237983,33.3773723 70.944696,32.95 72.0336135,32.95 Z" id="elgato-gaming-logo" stroke="#000000" stroke-width="0.1" fill="#000000"></path>
    </g>
</svg>