<?xml version="1.0" encoding="UTF-8"?>
<svg width="144px" height="144px" viewBox="0 0 144 144" version="1.1" xmlns="http://www.w3.org/2000/svg" xmlns:xlink="http://www.w3.org/1999/xlink">
    <title>wave_local_overlay</title>
    <g id="wave_local_overlay" stroke="none" stroke-width="1" fill="none" fill-rule="evenodd">
        <rect id="background" fill="#1551FF" fill-rule="nonzero" opacity="0" x="0" y="0" width="144" height="144"></rect>
        <path d="M20.5,109.6 C23.4271091,109.6 25.8,111.972891 25.8,114.9 L25.8,146.7 C25.8,149.627109 23.4271091,152 20.5,152 L9.9,152 C6.97289085,152 4.6,149.627109 4.6,146.7 L4.6,114.9 C4.6,111.972891 6.97289085,109.6 9.9,109.6 L20.5,109.6 Z M84.1,109.6 C87.027109,109.6 89.4,111.972891 89.4,114.9 L89.4,146.7 C89.4,149.627109 87.027109,152 84.1,152 L73.5,152 C70.572891,152 68.2,149.627109 68.2,146.7 L68.2,114.9 C68.2,111.972891 70.572891,109.6 73.5,109.6 L84.1,109.6 Z M47,46 C75.7749715,46 99.194038,68.931355 99.9796385,97.5165045 L100,99 L100,128.15 C100,129.613554 98.8135545,130.8 97.35,130.8 C96.0490625,130.8 94.9670755,129.862561 94.742695,128.626341 L94.7,128.15 L94.7,99 C94.7,72.6560175 73.3439825,51.3 47,51.3 C21.1264457,51.3 0.0643054585,71.9001125 -0.67966334,97.59358 L-0.7,99 L-0.7,128.15 C-0.7,129.613554 -1.88644541,130.8 -3.35,130.8 C-4.65093741,130.8 -5.73292435,129.862561 -5.95730495,128.626341 L-6,128.15 L-6,99 C-6,69.7289085 17.7289082,46 47,46 Z" id="local-overlay" fill="#000000" fill-rule="nonzero" opacity="0.3"></path>
    </g>
</svg>