<svg xmlns="http://www.w3.org/2000/svg" width="36" height="36" viewBox="0 0 36 36">
  <path fill="#969696" d="M4,10 L4,5 C4,4.44771525 4.44771525,4 5,4 L14.5,4 C14.8147573,4 15.1111456,4.14819416 15.3,4.4 L16.5,6 L31,6 C31.5522847,6 32,6.44771525 32,7 L32,10 L33,10 C33.574085,10 34.0303049,10.482269 33.9984604,11.05547 L32.9984604,29.05547 C32.9690205,29.5853866 32.5307337,30 32,30 L4,30 C3.46926629,30 3.03097946,29.5853866 3.00153965,29.05547 L2.00153965,11.05547 C1.96969514,10.482269 2.42591505,10 3,10 L4,10 Z M6,10 L30,10 L30,8 L16,8 C15.6852427,8 15.3888544,7.85180584 15.2,7.6 L14,6 L6,6 L6,10 Z M31.9429024,12 L4.05709758,12 L4.94598647,28 L31.0540135,28 L31.9429024,12 Z"/>
</svg>
