<svg xmlns="http://www.w3.org/2000/svg" width="10" height="7" viewBox="0 0 10 7">
  <g fill="none" fill-rule="evenodd">
    <rect width="8" height="5" x="1" y="1" fill="#131415" fill-rule="nonzero"/>
    <path fill="#D8D8D8" fill-rule="nonzero" d="M9,0 C9.55228475,-1.01453063e-16 10,0.44771525 10,1 L10,6 C10,6.55228475 9.55228475,7 9,7 L1,7 C0.44771525,7 6.76353751e-17,6.55228475 0,6 L0,1 C-6.76353751e-17,0.44771525 0.44771525,1.01453063e-16 1,0 L9,0 Z M4,1 L2.5,1 L2.33922894,1.00294384 C1.3544429,1.04050627 1,1.44271552 1,2.5061116 L1,2.5061116 L1,4.4938884 L1.00600787,4.64735768 C1.08562556,5.63875456 1.94680369,6 3.0048815,6 L3.0048815,6 L4,6 L4,3 L3,3 L3,5 L2.89034233,5.00050118 C2.38652646,5.00427109 2,5.01536651 2,4.5 L2,4.5 L2,2.5 L1.99943417,2.39674624 C1.99507493,1.95113859 1.97955949,2 2.494926,2 L2.494926,2 L4,2 L4,1 Z M6,1 L5,1 L5,6 L6,6 L6,1 Z M9,1 L7,1 L7,6 L8,6 L8,4 L9,4 L9,3 L8,3 L8,2 L9,2 L9,1 Z"/>
  </g>
</svg>
