<svg xmlns="http://www.w3.org/2000/svg" width="15" height="15" viewBox="0 0 15 15">
  <path fill="#D8D8D8" fill-rule="evenodd" d="M7.5,0 C11.6421356,0 15,3.35786438 15,7.5 C15,11.6421356 11.6421356,15 7.5,15 C3.35786438,15 0,11.6421356 0,7.5 C0,3.35786438 3.35786438,0 7.5,0 Z M7.5,1 C3.91014913,1 1,3.91014913 1,7.5 C1,11.0898509 3.91014913,14 7.5,14 C11.0898509,14 14,11.0898509 14,7.5 C14,3.91014913 11.0898509,1 7.5,1 Z M9,5 L9,10 L8,10 L8,5 L9,5 Z M12,5 L12,6 L11,6 L11,7 L12,7 L12,8 L11,8 L11,10 L10,10 L10,5 L12,5 Z M7,5 L7,6 L4.9998075,6 C4.48707041,6 4.06448043,6.38259237 4.00672644,6.88248593 L4,6.9998075 L4,8.0001925 C4,8.51292959 4.38259237,8.93551957 4.88248593,8.99327356 L4.9998075,9 L6,9 L6,8 L5,8 L5,7 L7,7 L7,10 L5.0048815,10 C3.94439897,10 3.08171213,9.18170755 3.00547714,8.14378499 L3,7.9940809 L3,7.0059191 C3,5.937435 3.81786914,5.0810769 4.85525484,5.00543378 L5.0048815,5 L7,5 Z"/>
</svg>
