<svg width="17px" height="17px" viewBox="0 0 17 17" version="1.1">
    <path d="M8.5,17 C3.80557963,17 0,13.1944203 0,8.5 C0,3.80557963 3.80557963,0 8.5,0 C13.1944203,0 17,3.80557963 17,8.5 C17,13.1944203 13.1944203,17 8.5,17 Z" id="Path" fill="#2D2D2D"></path>
    <path d="M8.5,16 C4.35786438,16 1,12.6421356 1,8.5 C1,4.35786438 4.35786438,1 8.5,1 C12.6421356,1 16,4.35786438 16,8.5 C16,12.6421356 12.6421356,16 8.5,16 Z M8.5,15 C12.0898509,15 15,12.0898509 15,8.5 C15,4.91014913 12.0898509,2 8.5,2 C4.91014913,2 2,4.91014913 2,8.5 C2,12.0898509 4.91014913,15 8.5,15 Z M8,7 L9,7 L9,12 L8,12 L8,7 Z M8,5 L9,5 L9,6 L8,6 L8,5 Z" id="Shape" fill="#969696"></path>
</svg>
