<svg xmlns="http://www.w3.org/2000/svg" width="18" height="18" viewBox="0 0 18 18">
  <g fill="none" fill-rule="evenodd">
    <path fill="#FFF" fill-rule="nonzero" d="M10.7809875,4.18347862 L9.91744682,5.04701927 C9.62203519,5.01636461 9.31619521,5 9,5 C4.4073,5 2,8.45142857 2,9 C2,9.27277255 2.59831527,10.2677373 3.7674506,11.1970155 L3.03863902,11.9258271 C1.79098085,10.976714 1,9.8720249 1,9 C1,7.06895385 4.87450128,4 9,4 C9.6027701,4 10.200203,4.06553562 10.7809875,4.18347862 Z M14.7229215,5.89839886 C16.107381,6.88436345 17,8.07328419 17,9 C17,10.9299113 13.1245206,14 9,14 C8.27926053,14 7.56615577,13.9062818 6.88002059,13.7412998 L7.71457491,12.9067454 C8.12197939,12.9669283 8.55052375,13 9,13 C13.592,13 16,9.54714286 16,9 C16,8.70882035 15.3215589,7.59977623 13.9981756,6.62314472 L14.7229215,5.89839886 Z M8.64243404,11.9788863 L9.77806144,10.8432589 C10.2572978,10.6408983 10.641054,10.2571348 10.843364,9.7779563 L11.978841,8.6424793 C11.9928128,8.75994183 12,8.87948217 12,9.00069638 C12,10.6573816 10.6574418,12 9.0003375,12 C8.87922581,12 8.75979071,11.9928283 8.64243404,11.9788863 Z M6.00021691,8.96424918 C6.01960232,7.3363517 7.33591273,6.01941143 8.96425347,6.00021262 L6.00021691,8.96424918 Z"/>
    <rect width="2" height="19" fill="#FFF" transform="rotate(45 5.5 18.657)"/>
  </g>
</svg>
