<svg xmlns="http://www.w3.org/2000/svg" width="28" height="28" viewBox="0 0 28 28">
  <path fill="none" stroke="#FFF" stroke-width="1.5" d="M18.94675,4.05505502 L17.6171957,2.75 L13.5582352,2.75 L2.07159584,14.0249787 L13.5465376,25.25 L17.6048976,25.25 L18.8433598,24.0343585 L8.74056645,14.0955627 L18.94675,4.05505502 Z M24.5002377,9.50621036 L21.0313012,6.10119481 L12.9485432,14.0527462 L20.9714825,21.94545 L24.5893847,18.3942138 C23.1847223,18.6279379 21.690501,18.2110285 20.605343,17.1434857 C18.8180093,15.3851656 18.8180093,12.5292014 20.605343,10.7708813 C21.6675742,9.72589318 23.121766,9.30433622 24.5002377,9.50621036 Z M26.9923057,17.0867728 L26.4740271,17.6136033 L25.9961523,17.1434857 L26.5221251,16.6088339 L26.9923057,17.0867728 Z M26.9554789,10.8650286 L26.5221251,11.3055331 L25.9961523,10.7708813 L26.4365978,10.3375855 L26.9554789,10.8650286 Z"/>
</svg>
