<svg xmlns="http://www.w3.org/2000/svg" width="28" height="28" viewBox="0 0 28 28">
  <path fill="#FFF" d="M13.5934575,26 L17.801854,26 L18.9458418,24.8704081 L8.06605901,14.1035263 L19.0571851,3.22645656 L17.8150982,2 L13.6045966,2 L1.42325371,14.0280532 L13.5934575,26 Z M9.48770659,14.1035263 L20.3682915,24.871202 L18.2123634,27 L13.1822958,27 L0,14.0280532 L13.1940873,1 L18.2256075,1 L20.4796349,3.22566272 L9.48770659,14.1035263 Z M21.5723233,5.70994428 L13.1375975,14.0571418 L21.5079032,22.3405876 L24.8836073,19.0073634 C23.4803225,19.0890492 22.0495181,18.5989353 20.9764694,17.5370219 C18.9778741,15.5591662 18.9778741,12.3480647 20.9764694,10.370209 C22.0278579,9.32973095 23.4227049,8.83820122 24.7985982,8.89561983 L21.5723233,5.70994428 Z M27.9596914,10.6115904 L27.4853655,11.0809941 C25.8822246,9.49448921 23.2830196,9.49448921 21.6798786,11.0809941 C20.0767377,12.6674991 20.0767377,15.2397318 21.6798786,16.8262367 C23.2830196,18.4127417 25.8822246,18.4127417 27.4853655,16.8262367 L28,17.3355308 L21.5071185,23.746706 L11.71595,14.0571418 L21.5715386,4.30382591 L27.9596914,10.6115904 Z"/>
</svg>
