<svg xmlns="http://www.w3.org/2000/svg" width="28" height="28" viewBox="0 0 28 28">
  <path fill="#FFF" fill-rule="evenodd" d="M16.9114803,26 L12.2407033,26 L5.37932325,19.25 L5.37932325,19.3060954 L0,14.0258952 L5.37932325,8.74569503 L5.37932325,8.75 L7.34166974,6.81950807 L12.2516525,2 L16.9237784,2 L19.0168038,4.05445789 L8.81001326,14.0955627 L18.9134136,24.0349557 L16.9114803,26 Z M25.9678206,11.1908067 L25.5891533,11.57709 C24.3093223,10.271518 22.2343062,10.271518 20.9544752,11.57709 C19.6746442,12.8826619 19.6746442,14.9994123 20.9544752,16.3049843 C22.2343062,17.6105562 24.3093223,17.6105562 25.5891533,16.3049843 L26,16.7240942 L20.8165561,22 L13,14.0262313 L20.8679844,6 L25.9678206,11.1908067 L25.9678206,11.1908067 Z"/>
</svg>
