<svg xmlns="http://www.w3.org/2000/svg" width="782" height="782" viewBox="0 0 782 782">
  <path fill="#FFF" fill-rule="evenodd" d="M461.412681,671.033804 L354.334592,671.033804 L197.036683,513.384338 L197.036683,514.694473 L73.7150911,391.372882 L197.036683,268.05129 L197.036683,268.151835 L242.023697,223.064276 L354.585604,110.502369 L461.694617,110.502369 L509.67746,158.485212 L275.685637,393 L507.307227,625.139258 L461.412681,671.033804 Z M668.909947,317.717698 L658.812685,327.837527 C624.685654,293.634224 569.354805,293.634224 535.227775,327.837527 C501.100744,362.040831 501.100744,417.495342 535.227775,451.698646 C569.354805,485.901949 624.685654,485.901949 658.812685,451.698646 L669.768019,462.678465 L531.550125,600.89636 L323.119601,392 L532.921474,181.729226 L668.909947,317.717698 Z"/>
</svg>
