<svg xmlns="http://www.w3.org/2000/svg" width="28" height="28" viewBox="0 0 28 28">
  <path fill="none" stroke="#999" stroke-width="1.069" d="M10.691777,7.92132353 C9.16219203,7.92132353 7.92132353,9.15956526 7.92132353,10.6869708 C7.92132353,12.2127715 9.16219203,13.4536765 10.691777,13.4536765 C12.2218924,13.4536765 13.4536765,12.2127544 13.4536765,10.6869708 C13.4536594,9.15956526 12.2218753,7.92132353 10.691777,7.92132353 Z M16.7977153,12.6688006 L16.4148149,13.5911828 C16.3583714,13.7271516 16.3643359,13.8810241 16.4311353,14.0122157 L17.2849119,15.6889997 C17.3837532,15.8831203 17.3463907,16.1188055 17.1923575,16.2728387 L16.3232894,17.1419068 C16.1731419,17.2920543 15.9448726,17.331727 15.7528693,17.2410444 L14.0132539,16.4194288 C13.8854523,16.3590684 13.7381509,16.3552693 13.6074078,16.4089615 L12.685995,16.7873578 C12.5494497,16.8434328 12.444432,16.9566616 12.3987754,17.0970343 L11.8155697,18.8901201 C11.7481937,19.09727 11.5551225,19.2375 11.3372909,19.2375 L10.1094395,19.2375 C9.89704355,19.2375 9.70754323,19.1040737 9.63593995,18.9041113 L8.98789708,17.094358 C8.93996319,16.9604957 8.83760807,16.8531775 8.70616366,16.7989636 L7.78392742,16.4185896 C7.64856562,16.3627601 7.49559407,16.3686925 7.36496265,16.4348378 L5.68377332,17.2861082 C5.48983804,17.3843072 5.25476169,17.3467966 5.10101795,17.1931189 L4.23188975,16.324364 C4.08176494,16.1743038 4.04201192,15.9461476 4.13253913,15.7541571 L4.95326587,14.0135554 C5.01360591,13.8855859 5.01725495,13.7381198 4.96331807,13.6073225 L4.58355025,12.6863833 C4.5274395,12.5503144 4.41454063,12.4456529 4.2746184,12.3999919 L2.48441349,11.8157922 C2.27750127,11.7482702 2.1375,11.5553162 2.1375,11.3376654 L2.1375,10.1105626 C2.1375,9.8982055 2.27087819,9.70873108 2.47078901,9.63709877 L4.282581,8.98789508 C4.41635803,8.93995993 4.52361299,8.83766869 4.57782865,8.70631142 L4.95748368,7.78645821 C5.01339075,7.65100288 5.00744019,7.49790054 4.94118827,7.36719311 L4.0891552,5.68622977 C3.99082275,5.49223114 4.02833322,5.25700495 4.18212648,5.10321168 L5.04959417,4.235744 C5.19959092,4.08574724 5.42757323,4.04598868 5.61948826,4.13635837 L7.36190004,4.95683195 C7.48996267,5.01713458 7.63750815,5.02068005 7.76831941,4.96659808 L8.68876097,4.58605523 C8.82475304,4.52983132 8.92929926,4.41686868 8.97484647,4.27693863 L9.55819601,2.4847729 C9.6256055,2.27767754 9.81864979,2.1375 10.0364399,2.1375 L11.2637011,2.1375 C11.4761292,2.1375 11.6656509,2.27096596 11.7372302,2.4709711 L12.3860722,4.28394912 C12.4339153,4.41763123 12.5360349,4.52486257 12.6672228,4.57917295 L13.5859792,4.95952824 C13.7215312,5.01564531 13.8748288,5.00977761 14.0056945,4.943463 L15.6895112,4.0902095 C15.8834305,3.99194329 16.1185367,4.02939483 16.272326,4.1830497 L17.1405858,5.05055115 C17.2908129,5.20064699 17.3305773,5.42892537 17.2399497,5.62097634 L16.419299,7.36003637 C16.3590179,7.48777946 16.3552335,7.63498369 16.4088712,7.76565543 L16.7873742,8.68776061 C16.8434376,8.82434196 16.9566819,8.9293914 17.0970821,8.97505694 L18.8901201,9.55824709 C19.09727,9.62562309 19.2375,9.81869423 19.2375,10.0365258 L19.2375,11.2631108 C19.2375,11.475248 19.1043938,11.6645758 18.9047755,11.7363721 L17.0920065,12.3883665 C16.9588191,12.4362696 16.8519816,12.5380766 16.7977153,12.6688006 Z" transform="translate(3.313 3.313)"/>
</svg>
