<svg xmlns="http://www.w3.org/2000/svg" width="62" height="16" viewBox="0 0 62 16"><g id="loading" fill="none" fill-rule="evenodd" stroke="none" stroke-width="1"><g id="Loading..." fill="#FFF" fill-rule="nonzero" transform="translate(.92 .448)"><polygon id="Path" points="6 11.6 6 9.6 2.4 9.6 2.4 0 0 0 0 11.6"/><path id="Shape" d="M10.08,10.272 C9.248,10.272 9.04,9.744 9.04,7.28 C9.04,5.6 9.12,4.752 10.08,4.752 C11.04,4.752 11.12,5.6 11.12,7.28 C11.12,9.744 10.912,10.272 10.08,10.272 Z M10.08,11.712 C12.992,11.712 13.376,9.936 13.376,7.408 C13.376,5.2 13.056,3.312 10.08,3.312 C7.104,3.312 6.784,5.2 6.784,7.408 C6.784,9.936 7.168,11.712 10.08,11.712 Z"/><path d="M18.896 7.648C18.896 8.528 19.104 10.32 17.776 10.32 17.04 10.32 16.944 9.616 16.944 9.04 16.944 7.6 17.776 7.696 18.896 7.648ZM21.104 6.016C21.104 4.544 20.736 3.312 17.872 3.312 17.008 3.312 16.272 3.456 15.76 3.84 15.232 4.208 14.928 4.832 14.928 5.808L17.136 5.808C17.136 5.168 17.2 4.576 17.984 4.576 18.8 4.576 18.896 5.072 18.896 5.76L18.896 6.384C16.8 6.352 14.736 6.464 14.736 9.136 14.736 10.544 15.312 11.712 16.88 11.712 17.856 11.712 18.512 11.312 18.992 10.48L19.024 10.48 19.12 11.552 21.216 11.552C21.168 11.056 21.104 10.544 21.104 10.048L21.104 6.016ZM25.984 10.32C25.168 10.32 25.0239839 9.472 25.0239839 7.44 25.0239839 5.824 25.008 4.704 25.984 4.704 26.912 4.704 26.8960178 5.824 26.8960178 7.44 26.8960178 9.472 26.752 10.32 25.984 10.32ZM29.152 11.552 29.152 0 26.896 0 26.896 4.24 26.864 4.24C26.4 3.552 25.84 3.312 25.024 3.312 22.752 3.312 22.816 5.824 22.816 7.456 22.816 9.12 22.736 11.712 25.072 11.712 25.936 11.712 26.56 11.44 26.976 10.656L27.008 10.656 27.008 11.552 29.152 11.552ZM33.424 3.472 31.168 3.472 31.168 11.552 33.424 11.552 33.424 3.472ZM31.168 0 31.168 1.776 33.424 1.776 33.424 0 31.168 0ZM37.68 3.472 35.424 3.472 35.424 11.552 37.68 11.552 37.68 5.984C37.68 5.264 37.808 4.704 38.528 4.704 39.248 4.704 39.376 5.264 39.376 5.984L39.376 11.552 41.632 11.552 41.632 5.072C41.632 3.952 40.688 3.312 39.616 3.312 38.768 3.312 38.16 3.568 37.712 4.288L37.68 4.288 37.68 3.472ZM45.44 7.76C45.44 5.296 45.584 4.704 46.432 4.704 47.264 4.704 47.344 5.712 47.344 7.488 47.344 9.2 47.232 10.048 46.416 10.048 45.328 10.048 45.44 8.512 45.44 7.76ZM47.456 3.472 47.456 4.416 47.424 4.416C47.104 3.664 46.416 3.312 45.616 3.312 43.264 3.312 43.232 5.568 43.232 7.344 43.232 9.168 43.12 11.44 45.6 11.44 46.336 11.44 46.976 11.12 47.312 10.496L47.344 10.496 47.344 12.048C47.344 12.864 47.072 13.392 46.512 13.392 46.16 13.392 45.904 13.28 45.76 13.072 45.616 12.88 45.568 12.592 45.568 12.256L43.36 12.256C43.408 14.224 44.848 14.656 46.528 14.656 49.632 14.656 49.6000066 12.448 49.6000066 11.888L49.6000066 3.472 47.456 3.472Z"/><polygon points="51.3 9.4 51.3 11.6 53.3 11.6 53.3 9.4"/><polygon points="54.9 9.4 54.9 11.6 56.8 11.6 56.8 9.4"/><polygon points="58.4 9.4 58.4 11.6 60.4 11.6 60.4 9.4"/></g></g></svg>