<svg xmlns="http://www.w3.org/2000/svg" width="19" height="14" viewBox="0 0 19 14">
  <path fill="#4C0" d="M192,22 C192.552285,22 193,22.4477153 193,23 L193,35 C193,35.5522847 192.552285,36 192,36 L175,36 C174.447715,36 174,35.5522847 174,35 L174,23 C174,22.4477153 174.447715,22 175,22 L192,22 Z M191,24 L176,24 L176,34 L191,34 L191,24 Z M180,30 L180,33 L177,33 L177,30 L180,30 Z M185,30 L185,33 L182,33 L182,30 L185,30 Z M190,30 L190,33 L187,33 L187,30 L190,30 Z M180,25 L180,28 L177,28 L177,25 L180,25 Z M185,25 L185,28 L182,28 L182,25 L185,25 Z M190,25 L190,28 L187,28 L187,25 L190,25 Z" transform="translate(-174 -22)"/>
</svg>
