<svg xmlns="http://www.w3.org/2000/svg" width="10" height="7" viewBox="0 0 10 7">
  <path fill="#D8D8D8" d="M9,0 C9.55228475,-1.01453063e-16 10,0.44771525 10,1 L10,6 C10,6.55228475 9.55228475,7 9,7 L1,7 C0.44771525,7 6.76353751e-17,6.55228475 0,6 L0,1 C-6.76353751e-17,0.44771525 0.44771525,1.01453063e-16 1,0 L9,0 Z M2.1195,0.974 C1.9095,0.974 1.72866667,1.01016667 1.577,1.0825 C1.42533333,1.15483333 1.3005,1.25166667 1.2025,1.373 C1.09983333,1.49433333 1.02283333,1.639 0.9715,1.807 C0.920166667,1.975 0.8945,2.15233333 0.8945,2.339 C0.8945,2.65166667 0.947,2.91183333 1.052,3.1195 C1.1395,3.29255556 1.29748611,3.43725463 1.52595833,3.55359722 L1.6715,3.62 L2.1825,3.83 C2.27116667,3.86733333 2.34233333,3.90233333 2.396,3.935 C2.44966667,3.96766667 2.49283333,4.00966667 2.5255,4.061 C2.5535,4.11233333 2.57216667,4.18 2.5815,4.264 C2.59083333,4.348 2.5955,4.45533333 2.5955,4.586 C2.5955,4.698 2.592,4.7995 2.585,4.8905 C2.578,4.9815 2.55583333,5.05966667 2.5185,5.125 C2.48116667,5.19033333 2.42866667,5.2405 2.361,5.2755 C2.29333333,5.3105 2.19883333,5.328 2.0775,5.328 C1.8955,5.328 1.766,5.2755 1.689,5.1705 C1.63125,5.09175 1.59515625,5.00578125 1.58071875,4.91259375 L1.5735,4.817 L1.5735,4.593 L0.8595,4.593 L0.8595,4.859 C0.8595,5.027 0.891,5.18216667 0.954,5.3245 C1.017,5.46683333 1.10216667,5.59166667 1.2095,5.699 C1.31683333,5.80633333 1.44516667,5.89033333 1.5945,5.951 C1.74383333,6.01166667 1.90483333,6.042 2.0775,6.042 C2.30616667,6.042 2.49983333,6.00466667 2.6585,5.93 C2.81716667,5.85533333 2.9455,5.75266667 3.0435,5.622 C3.13683333,5.496 3.2045,5.34316667 3.2465,5.1635 C3.2885,4.98383333 3.3095,4.789 3.3095,4.579 C3.3095,4.397 3.30016667,4.23483333 3.2815,4.0925 C3.26283333,3.95016667 3.22783333,3.823 3.1765,3.711 C3.1205,3.60366667 3.0435,3.50916667 2.9455,3.4275 C2.872,3.36625 2.7814375,3.31090625 2.6738125,3.26146875 L2.5605,3.214 L2.0145,2.997 C1.92116667,2.95966667 1.84766667,2.92233333 1.794,2.885 C1.74033333,2.84766667 1.6995,2.80333333 1.6715,2.752 C1.6435,2.70066667 1.626,2.64233333 1.619,2.577 C1.612,2.51166667 1.6085,2.43 1.6085,2.332 C1.6085,2.248 1.6155,2.1675 1.6295,2.0905 C1.6435,2.0135 1.66916667,1.94466667 1.7065,1.884 C1.74383333,1.828 1.79283333,1.78133333 1.8535,1.744 C1.91416667,1.70666667 1.9935,1.688 2.0915,1.688 C2.2735,1.688 2.403,1.7475 2.48,1.8665 C2.53775,1.95575 2.57384375,2.05746875 2.58828125,2.17165625 L2.5955,2.29 L2.5955,2.451 L3.3095,2.451 L3.3095,2.101 C3.3095,1.81166667 3.20216667,1.555 2.9875,1.331 C2.88016667,1.22366667 2.753,1.13733333 2.606,1.072 C2.459,1.00666667 2.29683333,0.974 2.1195,0.974 Z M7.8455,0.974 C7.70083333,0.974 7.55733333,0.999666667 7.415,1.051 C7.27266667,1.10233333 7.1455,1.177 7.0335,1.275 C6.91683333,1.37766667 6.8235,1.506 6.7535,1.66 C6.701,1.7755 6.6681875,1.904125 6.6550625,2.045875 L6.6485,2.192 L6.6485,4.824 C6.6485,5.034 6.6835,5.21366667 6.7535,5.363 C6.8235,5.51233333 6.91683333,5.636 7.0335,5.734 C7.1455,5.83666667 7.27266667,5.91366667 7.415,5.965 C7.55733333,6.01633333 7.70083333,6.042 7.8455,6.042 C7.99016667,6.042 8.13366667,6.01633333 8.276,5.965 C8.41833333,5.91366667 8.54783333,5.83666667 8.6645,5.734 C8.7765,5.636 8.8675,5.51233333 8.9375,5.363 C8.99,5.251 9.0228125,5.1219375 9.0359375,4.9758125 L9.0425,4.824 L9.0425,3.256 L7.7615,3.256 L7.7615,3.886 L8.3285,3.886 L8.3285,4.824 C8.3285,4.99666667 8.28066667,5.12383333 8.185,5.2055 C8.08933333,5.28716667 7.97616667,5.328 7.8455,5.328 C7.71483333,5.328 7.60166667,5.28716667 7.506,5.2055 C7.42946667,5.14016667 7.38354667,5.04571333 7.36824,4.92214 L7.3625,4.824 L7.3625,2.192 C7.3625,2.01933333 7.41033333,1.89216667 7.506,1.8105 C7.60166667,1.72883333 7.71483333,1.688 7.8455,1.688 C7.97616667,1.688 8.08933333,1.72883333 8.185,1.8105 C8.26153333,1.87583333 8.30745333,1.97028667 8.32276,2.09386 L8.3285,2.192 L8.3285,2.444 L9.0425,2.444 L9.0425,2.192 C9.0425,1.99133333 9.0075,1.814 8.9375,1.66 C8.8675,1.506 8.7765,1.37766667 8.6645,1.275 C8.54783333,1.177 8.41833333,1.10233333 8.276,1.051 C8.13366667,0.999666667 7.99016667,0.974 7.8455,0.974 Z M4.3525,1.016 L3.5965,1.016 L4.6115,6 L5.2415,6 L6.2635,1.016 L5.5075,1.016 L4.9335,4.495 L4.9195,4.495 L4.3525,1.016 Z"/>
</svg>
