<svg xmlns="http://www.w3.org/2000/svg" width="15" height="15" viewBox="0 0 15 15">
  <g fill="none" fill-rule="evenodd">
    <path fill="#8E8E93" d="M0,0 L15,0 L15,15 L0,15 L0,0 Z M1,1 L1,14 L14,14 L14,1 L1,1 Z" opacity=".18"/>
    <path fill="#EFEFEF" fill-rule="nonzero" d="M2,4.75 L2.34375,4.75 C2.34375,3.65446875 3.59916853,3.03125 4.75,3.03125 C5.4375,3.03125 6.12550007,3.08593751 7,3 L7,10.9375 C6.93125,11.708875 4.75,13 4.75,13 L10.25,13 C10.25,13 8.06875,11.714375 8,10.9375 L8,3 C9.03125,3 9.90625,2.96696875 10.25,3.03125 C11.28125,3.03125 12.65625,3.65446875 12.65625,4.75 L13,4.75 L13,2 L2,2 L2,4.75 Z"/>
  </g>
</svg>
