<svg xmlns="http://www.w3.org/2000/svg" width="15" height="15" viewBox="0 0 15 15">
  <g fill="none" fill-rule="evenodd" transform="matrix(-1 0 0 1 15 0)">
    <path fill="#8E8E93" d="M0,0 L15,0 L15,15 L0,15 L0,0 Z M1,1 L1,14 L14,14 L14,1 L1,1 Z" opacity=".18"/>
    <path fill="#D8D8D8" d="M7.5,13.5 C4.1862915,13.5 1.5,10.8137085 1.5,7.5 C1.5,4.1862915 4.1862915,1.5 7.5,1.5 C10.8137085,1.5 13.5,4.1862915 13.5,7.5 C13.5,10.8137085 10.8137085,13.5 7.5,13.5 Z M7.5,12 C9.98528137,12 12,9.98528137 12,7.5 C12,5.01471863 9.98528137,3 7.5,3 C5.01471863,3 3,5.01471863 3,7.5 C3,9.98528137 5.01471863,12 7.5,12 Z"/>
  </g>
</svg>
