<svg xmlns="http://www.w3.org/2000/svg" width="18" height="18" viewBox="0 0 18 18">
  <g fill="none" fill-rule="evenodd">
    <path fill="#D8D8D8" d="M5,4 L5,3 C5,2.44771525 5.44771525,2 6,2 L12,2 C12.5522847,2 13,2.44771525 13,3 L13,4 L16,4 L16,5 L2,5 L2,4 L5,4 Z M6,3 L6,4 L12,4 L12,3 L6,3 Z"/>
    <polygon fill="#D8D8D8" points="8 8 7 8 7 15 8 15"/>
    <polygon fill="#D8D8D8" points="11 8 10 8 10 15 11 15"/>
    <path fill="#D8D8D8" d="M5,6 L5,17 L13,17 L13,6 L14,6 L14,17 C14,17.5522847 13.5522847,18 13,18 L5,18 C4.44771525,18 4,17.5522847 4,17 L4,6 L5,6 Z"/>
  </g>
</svg>
