<svg xmlns="http://www.w3.org/2000/svg" xmlns:xlink="http://www.w3.org/1999/xlink" viewBox="0 0 144 144">
<rect id="background" fill="#5e8b8b" fill-rule="nonzero" x="0" y="0" width="144" height="144"/>
<path id="icon" fill="#f3f3f3" fill-rule="evenodd" d="M72,104c-17.661,0 -32,-14.339 -32,-32c0,-17.661 14.339,-32 32,-32c17.661,0 32,14.339 32,32c0,17.661 -14.339,32 -32,32Zm-8.936,-58.541c-4.922,1.658 -9.233,4.648 -12.505,8.541l8.214,0c1.146,-3.362 2.604,-6.264 4.291,-8.541Zm-15.313,12.541c-2.071,3.576 -3.373,7.652 -3.681,12l11.961,0c0.132,-4.282 0.686,-8.336 1.58,-12l-9.86,-0Zm-3.681,16c0.308,4.348 1.61,8.424 3.681,12l9.86,0c-0.894,-3.664 -1.448,-7.718 -1.58,-12l-11.961,0Zm6.489,16c3.272,3.893 7.583,6.883 12.505,8.541c-1.687,-2.277 -3.145,-5.179 -4.291,-8.541l-8.214,0Zm30.377,8.541c4.922,-1.658 9.233,-4.648 12.505,-8.541l-8.214,-0c-1.146,3.362 -2.604,6.264 -4.291,8.541Zm15.313,-12.541c2.071,-3.576 3.373,-7.652 3.681,-12l-11.961,-0c-0.132,4.282 -0.686,8.336 -1.58,12l9.86,0Zm3.681,-16c-0.308,-4.348 -1.61,-8.424 -3.681,-12l-9.86,0c0.894,3.664 1.448,7.718 1.58,12l11.961,-0Zm-6.489,-16c-3.272,-3.893 -7.583,-6.883 -12.505,-8.541c1.687,2.277 3.145,5.179 4.291,8.541l8.214,0Zm-21.441,-10c-2.37,0 -4.365,1.825 -6.142,4.431c-1.08,1.584 -2.037,3.46 -2.848,5.569l17.98,0c-0.811,-2.109 -1.768,-3.985 -2.848,-5.569c-1.777,-2.606 -3.772,-4.431 -6.142,-4.431Zm-11.968,26l23.936,0c-0.14,-4.321 -0.73,-8.391 -1.69,-12l-20.556,0c-0.96,3.609 -1.55,7.679 -1.69,12Zm1.69,16l20.556,0c0.96,-3.609 1.55,-7.679 1.69,-12l-23.936,0c0.14,4.321 0.73,8.391 1.69,12Zm10.278,14c2.37,0 4.365,-1.825 6.142,-4.431c1.08,-1.584 2.037,-3.46 2.848,-5.569l-17.98,0c0.811,2.109 1.768,3.985 2.848,5.569c1.777,2.606 3.772,4.431 6.142,4.431Z"/>
</svg>