<svg xmlns="http://www.w3.org/2000/svg" xmlns:xlink="http://www.w3.org/1999/xlink" viewBox="0 0 144 144">

<g id="replayBuffer-pressed" fill="none" fill-rule="evenodd" stroke="none">
<rect id="background" fill="#5e8b8b" fill-rule="nonzero" x="0" y="0" width="144" height="144"/>
<path fill="#f3f3f3" fill-rule="nonzero" d="M88,72l-24,14l0,-28l24,14Z"/>
<path fill="#f3f3f3" fill-rule="nonzero" d="M81.383,96.253l3.03,5.247c-3.817,1.61 -8.012,2.5 -12.413,2.5c-1.476,0 -2.93,-0.1 -4.354,-0.294l1.568,-5.854c0.915,0.098 1.845,0.148 2.786,0.148c3.308,0 6.472,-0.619 9.383,-1.747Zm-24.718,-3.261c1.494,1.094 3.11,2.033 4.821,2.791l-1.568,5.854c-2.719,-1.111 -5.252,-2.585 -7.536,-4.362l4.283,-4.283Zm47.087,-16.992c-1.093,8.75 -5.725,16.406 -12.416,21.492l-3.029,-5.247c4.928,-3.975 8.376,-9.711 9.387,-16.245l6.058,0Zm-63.504,-8c1.971,-15.776 15.445,-28 31.752,-28c16.307,0 29.781,12.224 31.752,28l-6.058,0c-1.927,-12.454 -12.705,-22 -25.694,-22c-12.989,0 -23.767,9.546 -25.694,22l7.694,-0l-11,14l-11,-14l8.248,-0Z"/></g></svg>