<svg xmlns="http://www.w3.org/2000/svg" xmlns:xlink="http://www.w3.org/1999/xlink" viewBox="0 0 144 144">
<rect id="background" fill="#263838" fill-rule="nonzero" x="0" y="0" width="144" height="144"/>
<path id="icon" fill="#999" fill-rule="evenodd" d="M57.522,60l13.02,-13.869c0.561,-0.598 1.431,-0.793 2.194,-0.491c0.763,0.302 1.264,1.04 1.264,1.86l-0,49c0,0.82 -0.501,1.558 -1.264,1.86c-0.763,0.302 -1.633,0.107 -2.194,-0.491l-13.02,-13.869l-8.522,-0c-2.76,-0 -5,-2.24 -5,-5l-0,-14c-0,-2.76 2.24,-5 5,-5l8.522,-0Zm0.478,5c-0,-0.552 -0.448,-1 -1,-1l-8,-0c-0.552,-0 -1,0.448 -1,1l-0,14c-0,0.552 0.448,1 1,1l8,0c0.552,0 1,-0.448 1,-1l-0,-14Zm27.761,-14.401c-0.908,-0.627 -1.135,-1.874 -0.507,-2.782c0.628,-0.908 1.874,-1.135 2.782,-0.508c7.831,5.415 12.964,14.459 12.964,24.691c0,10.389 -5.292,19.552 -13.325,24.937c-0.917,0.614 -2.161,0.369 -2.775,-0.548c-0.615,-0.917 -0.369,-2.16 0.548,-2.775c6.963,-4.667 11.552,-12.609 11.552,-21.614c0,-8.869 -4.451,-16.707 -11.239,-21.401Zm-6.658,9.986c-0.899,-0.64 -1.109,-1.889 -0.469,-2.789c0.64,-0.899 1.89,-1.109 2.789,-0.469c4.585,3.263 7.577,8.622 7.577,14.673c0,6.051 -2.992,11.41 -7.577,14.673c-0.899,0.64 -2.149,0.43 -2.789,-0.469c-0.64,-0.9 -0.43,-2.149 0.469,-2.789c3.568,-2.539 5.897,-6.707 5.897,-11.415c0,-4.708 -2.329,-8.876 -5.897,-11.415Z"/>
</svg>