<svg width="144" height="144" viewBox="0 0 144 144" fill="none" xmlns="http://www.w3.org/2000/svg">
<path fill-rule="evenodd" clip-rule="evenodd" d="M40 59C40 66.2569 45.1533 72.3101 52 73.6999L52 109C52 110.657 53.3431 112 55 112C56.6569 112 58 110.657 58 109L58 73.6999C64.8467 72.3101 70 66.2569 70 59C70 51.7431 64.8467 45.6899 58 44.3001L58 35C58 33.3431 56.6569 32 55 32C53.3431 32 52 33.3431 52 35L52 44.3001C45.1533 45.6899 40 51.7431 40 59ZM46 59C46 54.0294 50.0294 50 55 50C59.9706 50 64 54.0294 64 59C64 63.9706 59.9706 68 55 68C50.0294 68 46 63.9706 46 59Z" fill="white"/>
<path fill-rule="evenodd" clip-rule="evenodd" d="M74 85C74 77.7431 79.1533 71.6899 86 70.3001V35C86 33.3431 87.3431 32 89 32C90.6569 32 92 33.3431 92 35V70.3001C98.8467 71.6899 104 77.7431 104 85C104 92.2569 98.8467 98.3101 92 99.6999L92 109C92 110.657 90.6569 112 89 112C87.3431 112 86 110.657 86 109L86 99.6999C79.1533 98.3101 74 92.2569 74 85ZM80 85C80 89.9706 84.0294 94 89 94C93.9706 94 98 89.9706 98 85C98 80.0294 93.9706 76 89 76C84.0294 76 80 80.0294 80 85Z" fill="white"/>
</svg>
