<svg width="144" height="144" viewBox="0 0 144 144" fill="none" xmlns="http://www.w3.org/2000/svg">
<path d="M85 40C77.7431 40 71.6899 45.1533 70.3001 52L35 52C33.3431 52 32 53.3431 32 55C32 56.6568 33.3431 58 35 58L70.3001 58C71.6899 64.8467 77.7431 70 85 70C92.2569 70 98.3101 64.8467 99.6999 58L109 58C110.657 58 112 56.6569 112 55C112 53.3431 110.657 52 109 52L99.6999 52C98.3101 45.1533 92.2569 40 85 40Z" fill="white"/>
<path d="M59 74C66.2569 74 72.3101 79.1533 73.6999 86L109 86C110.657 86 112 87.3431 112 89C112 90.6569 110.657 92 109 92L73.6999 92C72.3101 98.8467 66.2569 104 59 104C51.7431 104 45.6899 98.8467 44.3001 92L35 92C33.3431 92 32 90.6568 32 89C32 87.3431 33.3431 86 35 86L44.3001 86C45.6899 79.1533 51.7431 74 59 74Z" fill="white"/>
</svg>
