<svg width="144" height="144" viewBox="0 0 144 144" fill="none" xmlns="http://www.w3.org/2000/svg">
<path fill-rule="evenodd" clip-rule="evenodd" d="M69.7795 33.2596C70.8618 32.7776 72.1263 32.9776 73.0069 33.7702L93.0069 51.7702C93.6391 52.3391 94 53.1496 94 54.0001C94 54.8505 93.6391 55.661 93.0069 56.2299L75.4846 72.0001L93.0069 87.7702C93.6391 88.3391 94 89.1496 94 90.0001C94 90.8505 93.6391 91.661 93.0069 92.2299L73.0069 110.23C72.1263 111.022 70.8618 111.223 69.7795 110.741C68.6973 110.259 68 109.185 68 108V78.7361L53.0069 92.2299C51.7754 93.3383 49.8785 93.2385 48.7701 92.007C47.6618 90.7754 47.7616 88.8786 48.9931 87.7702L66.5155 72.0001L48.9931 56.2299C47.7616 55.1216 47.6618 53.2247 48.7701 51.9932C49.8785 50.7616 51.7754 50.6618 53.0069 51.7702L68 65.264V36.0001C68 34.8153 68.6973 33.7416 69.7795 33.2596ZM74 78.7361L86.5155 90.0001L74 101.264V78.7361ZM74 65.264V42.7361L86.5155 54.0001L74 65.264Z" fill="white"/>
</svg>
