<svg width="144" height="144" viewBox="0 0 144 144" fill="none" xmlns="http://www.w3.org/2000/svg">
<path fill-rule="evenodd" clip-rule="evenodd" d="M56 52V44C56 39.5817 59.5817 36 64 36H80C84.4183 36 88 39.5817 88 44V52H104C108.418 52 112 55.5817 112 60V68C112 72.6612 110.007 76.8569 106.826 79.7812C103.977 82.4007 100.175 84 96 84H75V81C75 79.3431 73.6569 78 72 78C70.3431 78 69 79.3431 69 81V84H48C43.8246 84 40.0228 82.4007 37.1738 79.7812C33.9932 76.8569 32 72.6612 32 68V60C32 55.5817 35.5817 52 40 52H56ZM64 42H80C81.1046 42 82 42.8954 82 44V52H62V44C62 42.8954 62.8954 42 64 42Z" fill="white"/>
<path d="M36 86.4421V100C36 104.418 39.5817 108 44 108H100C104.418 108 108 104.418 108 100V86.4421C104.549 88.6923 100.427 90 96 90H75V93C75 94.6569 73.6569 96 72 96C70.3431 96 69 94.6569 69 93V90H48C43.5728 90 39.4511 88.6923 36 86.4421Z" fill="white"/>
</svg>
