<svg width="144" height="144" viewBox="0 0 144 144" fill="none" xmlns="http://www.w3.org/2000/svg">
<path fill-rule="evenodd" clip-rule="evenodd" d="M32.8787 111.121C31.7071 109.95 31.7071 108.05 32.8787 106.879L106.879 32.8787C108.05 31.7071 109.95 31.7071 111.121 32.8787C112.293 34.0503 112.293 35.9497 111.121 37.1213L88.1044 60.1383C90.5528 63.4569 92 67.5594 92 72C92 83.0457 83.0457 92 72 92C67.5594 92 63.4569 90.5528 60.1383 88.1044L54.3452 93.8975C54.3376 93.9052 54.3301 93.9128 54.3224 93.9204L47.9585 100.284C47.9508 100.292 47.9431 100.3 47.9353 100.307L37.1213 111.121C35.9497 112.293 34.0503 112.293 32.8787 111.121ZM64.4505 83.7921C66.6288 85.1896 69.2198 86 72 86C79.732 86 86 79.732 86 72C86 69.2198 85.1896 66.6288 83.7921 64.4505L64.4505 83.7921Z" fill="white"/>
<path d="M72 32C73.6569 32 75 33.3431 75 35V44C75 45.6569 73.6569 47 72 47C70.3431 47 69 45.6569 69 44V35C69 33.3431 70.3431 32 72 32Z" fill="white"/>
<path d="M78.2784 53.0053C76.3039 52.353 74.1932 52 72 52C60.9543 52 52 60.9543 52 72C52 74.1932 52.353 76.3039 53.0053 78.2784L58.0533 73.2304C58.018 72.825 58 72.4146 58 72C58 64.268 64.268 58 72 58C72.4146 58 72.825 58.018 73.2304 58.0533L78.2784 53.0053Z" fill="white"/>
<path d="M100 75H109C110.657 75 112 73.6569 112 72C112 70.3431 110.657 69 109 69H100C98.3431 69 97 70.3431 97 72C97 73.6569 98.3431 75 100 75Z" fill="white"/>
<path d="M100.284 100.284C99.1128 101.456 97.2133 101.456 96.0418 100.284L89.6778 93.9204C88.5062 92.7489 88.5062 90.8494 89.6778 89.6778C90.8494 88.5062 92.7489 88.5062 93.9204 89.6778L100.284 96.0418C101.456 97.2133 101.456 99.1128 100.284 100.284Z" fill="white"/>
<path d="M69 109C69 110.657 70.3431 112 72 112C73.6569 112 75 110.657 75 109V100C75 98.3431 73.6569 97 72 97C70.3431 97 69 98.3431 69 100V109Z" fill="white"/>
<path d="M32 72C32 70.3431 33.3431 69 35 69H44C45.6569 69 47 70.3431 47 72C47 73.6569 45.6569 75 44 75H35C33.3431 75 32 73.6569 32 72Z" fill="white"/>
<path d="M47.9582 43.7156C46.7867 42.544 44.8872 42.544 43.7156 43.7156C42.544 44.8872 42.544 46.7867 43.7156 47.9582L50.0796 54.3222C51.2511 55.4938 53.1506 55.4938 54.3222 54.3222C55.4938 53.1506 55.4938 51.2511 54.3222 50.0796L47.9582 43.7156Z" fill="white"/>
</svg>
