<svg width="144" height="144" viewBox="0 0 144 144" fill="none" xmlns="http://www.w3.org/2000/svg">
<path fill-rule="evenodd" clip-rule="evenodd" d="M64 35.0029C64 33.3461 62.6569 32.0029 61 32.0029C59.3431 32.0029 58 33.3461 58 35.0029V44.5044C54.6353 46.9249 51.9227 50.1949 50.1761 54.0004L50.1487 54.0002H38.9878C37.3309 54.0002 35.9878 55.3434 35.9878 57.0002C35.9878 58.6571 37.3309 60.0002 38.9878 60.0002H48.3318C48.1136 61.3011 48 62.6374 48 64.0002V70.0003L47.9878 70.0002H38.9878C37.3309 70.0002 35.9878 71.3434 35.9878 73.0002C35.9878 74.6571 37.3309 76.0002 38.9878 76.0002H47.9878L48 76.0002V84.0002C48 84.6738 48.0277 85.3408 48.0821 86.0002H39.0645C37.4076 86.0002 36.0645 87.3434 36.0645 89.0002C36.0645 90.6571 37.4076 92.0002 39.0645 92.0002H49.3656C52.6603 101.322 61.5502 108 72 108C82.4497 108 91.3397 101.322 94.6344 92.0002H105C106.657 92.0002 108 90.6571 108 89.0002C108 87.3434 106.657 86.0002 105 86.0002H95.9179C95.9723 85.3408 96 84.6738 96 84.0002V76.0002H105C106.657 76.0002 108 74.6571 108 73.0002C108 71.3434 106.657 70.0002 105 70.0002H96V64.0002C96 62.6374 95.8864 61.3011 95.6682 60.0002L105.007 60.0002C106.664 60.0002 108.007 58.6571 108.007 57.0002C108.007 55.3434 106.664 54.0002 105.007 54.0002L93.8238 54.0002C92.0773 50.1948 89.3647 46.9249 86 44.5044V35.0029C86 33.3461 84.6569 32.0029 83 32.0029C81.3431 32.0029 80 33.3461 80 35.0029V41.3659C77.4978 40.4815 74.8051 40.0002 72 40.0002C69.1949 40.0002 66.5022 40.4815 64 41.3659V35.0029ZM54 84.0002V66.0002H69.764C69.2889 66.531 69 67.2319 69 68.0003V101.751C60.4869 100.323 54 92.9192 54 84.0002ZM90 84.0002C90 92.9192 83.5131 100.323 75 101.751V68.0003C75 67.2319 74.7111 66.531 74.236 66.0002H90V84.0002ZM72 46.0002C80.5663 46.0002 87.735 51.9843 89.554 60.0002L54.446 60.0002C56.2649 51.9843 63.4336 46.0002 72 46.0002Z" fill="white"/>
</svg>
