<svg width="144" height="144" viewBox="0 0 144 144" fill="none" xmlns="http://www.w3.org/2000/svg">
<path fill-rule="evenodd" clip-rule="evenodd" d="M58 35C58 33.3431 56.6569 32 55 32C53.3431 32 52 33.3431 52 35V40H44C39.5817 40 36 43.5817 36 48V100C36 104.418 39.5817 108 44 108H100C104.418 108 108 104.418 108 100V48C108 43.5817 104.418 40 100 40H92V35C92 33.3431 90.6569 32 89 32C87.3431 32 86 33.3431 86 35V40H58V35ZM42 100V64L102 64V100C102 101.105 101.105 102 100 102H44C42.8954 102 42 101.105 42 100Z" fill="white"/>
</svg>
