<svg width="144" height="144" viewBox="0 0 144 144" fill="none" xmlns="http://www.w3.org/2000/svg">
<path fill-rule="evenodd" clip-rule="evenodd" d="M32.8787 111.121C31.7071 109.95 31.7071 108.05 32.8787 106.879L106.879 32.8787C108.05 31.7071 109.95 31.7071 111.121 32.8787C112.293 34.0503 112.293 35.9497 111.121 37.1213L100.243 48H104C108.418 48 112 51.5817 112 56V100C112 104.418 108.418 108 104 108H40.2426L37.1213 111.121C35.9497 112.293 34.0503 112.293 32.8787 111.121ZM57.9797 90.2629C61.589 93.8112 66.5389 96 72 96C83.0457 96 92 87.0457 92 76C92 70.5389 89.8112 65.589 86.2629 61.9797L82.0201 66.2226C84.4826 68.7458 86 72.1957 86 76C86 83.732 79.732 90 72 90C68.1957 90 64.7458 88.4826 62.2226 86.0201L57.9797 90.2629Z" fill="white"/>
<path d="M52.2314 79.0523L32 99.2837V56C32 51.5817 35.5817 48 40 48H52L58.8125 37.7812C59.5544 36.6684 60.8033 36 62.1407 36H81.8593C83.1967 36 84.4456 36.6684 85.1875 37.7812L88.5135 42.7702L75.0523 56.2314C74.0571 56.079 73.0378 56 72 56C60.9543 56 52 64.9543 52 76C52 77.0378 52.079 78.0571 52.2314 79.0523Z" fill="white"/>
</svg>
