<svg width="144" height="144" viewBox="0 0 144 144" fill="none" xmlns="http://www.w3.org/2000/svg">
<path fill-rule="evenodd" clip-rule="evenodd" d="M28 43C28 41.3431 29.3431 40 31 40H36.3038C39.1557 40 41.7224 41.7301 42.7924 44.3737L44.2602 48H105C105.987 48 106.911 48.4858 107.471 49.2992C108.031 50.1125 108.155 51.1492 107.802 52.0714L96.7686 80.9285C95.1402 85.1872 91.0534 88 86.494 88H61.3924C56.9109 88 52.8774 85.2812 51.196 81.1271L37.2308 46.6248C37.0779 46.2472 36.7112 46 36.3038 46H31C29.3431 46 28 44.6569 28 43ZM46.6888 54L56.7577 78.876C57.5219 80.7642 59.3553 82 61.3924 82H86.494C88.5665 82 90.4241 80.7215 91.1642 78.7857L100.641 54H46.6888Z" fill="white"/>
<path d="M58 92C61.3137 92 64 94.6863 64 98C64 101.314 61.3137 104 58 104C54.6863 104 52 101.314 52 98C52 94.6863 54.6863 92 58 92Z" fill="white"/>
<path d="M96 98C96 94.6863 93.3137 92 90 92C86.6863 92 84 94.6863 84 98C84 101.314 86.6863 104 90 104C93.3137 104 96 101.314 96 98Z" fill="white"/>
</svg>
