<svg width="144" height="144" viewBox="0 0 144 144" fill="none" xmlns="http://www.w3.org/2000/svg">
<path fill-rule="evenodd" clip-rule="evenodd" d="M91.9281 37.3779C92.7565 35.9431 94.5913 35.4514 96.0262 36.2799C97.4611 37.1083 97.9527 38.9431 97.1242 40.3779L75.464 77.8946L81.3265 88.0488C82.4995 85.5451 84.4241 83.3628 87.0001 81.8756C93.6962 78.0096 102.258 80.3038 106.124 86.9999C109.99 93.696 107.696 102.258 101 106.124C94.304 109.99 85.7417 107.696 81.8757 101L71.9999 83.8946L62.1522 100.951C62.1429 100.968 62.1336 100.984 62.1243 101C58.2583 107.696 49.696 109.99 42.9999 106.124C36.3038 102.258 34.0095 93.696 37.8755 86.9999C41.7415 80.3038 50.3038 78.0096 56.9999 81.8756C59.5758 83.3628 61.5004 85.545 62.6734 88.0486L68.5358 77.8946L46.8757 40.3782C46.0473 38.9433 46.5389 37.1085 47.9738 36.2801C49.4087 35.4517 51.2434 35.9433 52.0719 37.3782L71.9999 71.8946L91.9281 37.3779ZM56.9488 97.9638C59.129 94.1428 57.8142 89.2739 53.9999 87.0717C50.1736 84.8626 45.2808 86.1736 43.0717 89.9999C40.8626 93.8263 42.1736 98.719 45.9999 100.928C49.82 103.134 54.703 101.831 56.9173 98.0187L56.9281 97.9997L56.9488 97.9638ZM87.0719 97.9999C89.281 101.826 94.1737 103.137 98.0001 100.928C101.826 98.719 103.137 93.8263 100.928 89.9999C98.7191 86.1736 93.8264 84.8626 90.0001 87.0717C86.1737 89.2809 84.8627 94.1736 87.0719 97.9999Z" fill="white"/>
</svg>
