<svg width="144" height="144" viewBox="0 0 144 144" fill="none" xmlns="http://www.w3.org/2000/svg">
<path fill-rule="evenodd" clip-rule="evenodd" d="M36 48C36 43.5817 39.5817 40 44 40H100C104.418 40 108 43.5817 108 48V84C108 88.4183 104.418 92 100 92H44C39.5817 92 36 88.4183 36 84V48ZM44 46H100C101.105 46 102 46.8954 102 48V84C102 85.1046 101.105 86 100 86H44C42.8954 86 42 85.1046 42 84V48C42 46.8954 42.8954 46 44 46Z" fill="white"/>
<path d="M63 98C61.3431 98 60 99.3431 60 101C60 102.657 61.3431 104 63 104H81C82.6569 104 84 102.657 84 101C84 99.3431 82.6569 98 81 98H63Z" fill="white"/>
</svg>
