<svg width="144" height="144" viewBox="0 0 144 144" fill="none" xmlns="http://www.w3.org/2000/svg">
<path d="M55.2283 60C56.0898 56.294 57.4239 53.0487 59.2918 50.3901C62.8435 45.3349 68.6074 42 78 42C83.3959 42 87.5508 43.1069 90.7494 44.9295C93.9364 46.7455 96.3405 49.366 98.1033 52.6647C98.8842 54.126 100.702 54.6776 102.163 53.8967C103.624 53.1158 104.176 51.2981 103.395 49.8368C101.164 45.6624 98.004 42.1576 93.7199 39.7164C89.4473 37.2819 84.2243 36 78 36C66.9581 36 59.222 40.0524 54.3823 46.9408C51.7478 50.6906 50.0631 55.1525 49.0903 60H41C39.3431 60 38 61.3431 38 63C38 64.6569 39.3431 66 41 66H48.2477C48.078 67.9684 48 69.9746 48 72C48 74.0254 48.078 76.0316 48.2477 78H41C39.3431 78 38 79.3431 38 81C38 82.6569 39.3431 84 41 84H49.0903C50.0631 88.8475 51.7478 93.3094 54.3823 97.0592C59.222 103.948 66.9581 108 78 108C84.2243 108 89.4473 106.718 93.7199 104.284C98.004 101.842 101.164 98.3376 103.395 94.1632C104.176 92.7019 103.624 90.8842 102.163 90.1033C100.702 89.3224 98.8842 89.874 98.1033 91.3353C96.3405 94.634 93.9364 97.2545 90.7494 99.0705C87.5508 100.893 83.3959 102 78 102C68.6074 102 62.8435 98.6651 59.2918 93.6099C57.4239 90.9514 56.0898 87.706 55.2283 84H81C82.6569 84 84 82.6569 84 81C84 79.3431 82.6569 78 81 78H54.2722C54.0887 76.0809 54 74.0767 54 72C54 69.9233 54.0887 67.9191 54.2722 66H81C82.6569 66 84 64.6569 84 63C84 61.3431 82.6569 60 81 60H55.2283Z" fill="white"/>
</svg>
