<svg width="144" height="144" viewBox="0 0 144 144" fill="none" xmlns="http://www.w3.org/2000/svg">
<path fill-rule="evenodd" clip-rule="evenodd" d="M63.9862 68.8489C65.2671 69.9875 66 71.6195 66 73.3333V92.253C66 92.8466 66.2637 93.4095 66.7196 93.7894L78 103.19V73.3333C78 71.6195 78.7329 69.9875 80.0138 68.8488L101.329 49.9022C101.756 49.5227 102 48.9787 102 48.4074V44C102 42.8954 101.105 42 100 42H44C42.8954 42 42 42.8954 42 44V48.4074C42 48.9787 42.2443 49.5227 42.6713 49.9022L63.9862 68.8489ZM84 73.3333L105.315 54.3866C107.023 52.8685 108 50.6925 108 48.4074V44C108 39.5817 104.418 36 100 36H44C39.5817 36 36 39.5817 36 44V48.4074C36 50.6925 36.9772 52.8685 38.6851 54.3866L60 73.3333V92.253C60 94.6272 61.0546 96.8788 62.8785 98.3988L77.4393 110.533C80.0446 112.704 84 110.851 84 107.46V73.3333Z" fill="white"/>
</svg>
