<svg width="144" height="144" viewBox="0 0 144 144" fill="none" xmlns="http://www.w3.org/2000/svg">
<path d="M81.9682 75H62.0318C62.2542 85.4497 63.6276 94.7513 65.6792 101.537C66.808 105.271 68.0919 108.074 69.3804 109.876C70.7112 111.738 71.634 111.996 71.9914 112L71.9995 112C72.3507 112 73.278 111.753 74.6196 109.876C75.9081 108.074 77.192 105.271 78.3208 101.537C80.3724 94.7513 81.7458 85.4497 81.9682 75Z" fill="white"/>
<path d="M62.0318 69H81.9682C81.7458 58.5503 80.3724 49.2487 78.3208 42.4626C77.192 38.7292 75.9081 35.9264 74.6196 34.1237C73.278 32.2468 72.3511 32 72 32C71.6489 32 70.722 32.2469 69.3804 34.1237C68.0919 35.9265 66.808 38.7292 65.6792 42.4626C63.6276 49.2487 62.2542 58.5503 62.0318 69Z" fill="white"/>
<path d="M87.9695 75C87.7469 85.9071 86.3181 95.8181 84.064 103.274C83.1856 106.179 82.1559 108.8 80.9709 110.99C97.7991 107.134 110.579 92.6631 111.889 75L87.9695 75Z" fill="white"/>
<path d="M111.889 69L87.9695 69C87.7469 58.093 86.3181 48.1819 84.064 40.7262C83.1856 37.8207 82.1559 35.2003 80.9709 33.01C97.7991 36.8662 110.579 51.3369 111.889 69Z" fill="white"/>
<path d="M56.0305 69L32.1104 69C33.42 51.3365 46.2005 36.8656 63.0292 33.0098C61.8441 35.2001 60.8144 37.8206 59.936 40.7263C57.6819 48.182 56.2531 58.093 56.0305 69Z" fill="white"/>
<path d="M56.0305 75L32.1104 75C33.42 92.6635 46.2005 107.134 63.0292 110.99C61.8441 108.8 60.8144 106.179 59.936 103.274C57.6819 95.8181 56.2531 85.9071 56.0305 75Z" fill="white"/>
</svg>
