<svg width="144" height="144" viewBox="0 0 144 144" fill="none" xmlns="http://www.w3.org/2000/svg">
<path fill-rule="evenodd" clip-rule="evenodd" d="M56.0001 62C56.0001 47.6406 67.6407 36 82.0001 36C96.3595 36 108 47.6406 108 62C108 76.3594 96.3595 88 82.0001 88C79.3517 88 76.7916 87.6031 74.3784 86.8642L70.1212 91.1214C69.5586 91.684 68.7955 92 67.9998 92L62.9999 91.9999L62.9999 96.9999C62.9999 97.7956 62.6838 98.5586 62.1212 99.1213C61.5586 99.6839 60.7955 99.9999 59.9998 99.9999L54.9999 99.9998L55 105C55 105.795 54.684 106.558 54.1213 107.121C53.5587 107.684 52.7957 108 52 108L44 108C39.5817 108 36 104.418 36 99.9997L36 94.0708C36 91.949 36.8429 89.9142 38.3432 88.4139L57.1358 69.6214C56.3969 67.2083 56.0001 64.6482 56.0001 62ZM81.9999 52C87.5228 52 91.9999 56.4772 91.9999 62C91.9999 67.5229 87.5228 72 81.9999 72C76.4771 72 71.9999 67.5229 71.9999 62C71.9999 56.4772 76.4771 52 81.9999 52Z" fill="white"/>
</svg>
