<svg width="144" height="144" viewBox="0 0 144 144" fill="none" xmlns="http://www.w3.org/2000/svg">
<path fill-rule="evenodd" clip-rule="evenodd" d="M67.0251 35.9896C69.669 34.8944 72.6004 34.7023 75.3646 35.443C78.1288 36.1836 80.5714 37.8157 82.3136 40.0861C84.0557 42.3565 85 45.1383 85 48V60H48C43.5817 60 40 63.5817 40 68V104C40 108.418 43.5817 112 48 112H96C100.418 112 104 108.418 104 104V68C104 63.5817 100.418 60 96 60H91V48C91 43.8175 89.6199 39.7518 87.0737 36.4335C84.5275 33.1153 80.9576 30.7299 76.9175 29.6474C72.8775 28.5649 68.5931 28.8457 64.729 30.4463C60.8648 32.0469 57.6368 34.8778 55.5455 38.5C54.7171 39.9349 55.2087 41.7697 56.6436 42.5981C58.0784 43.4265 59.9132 42.9349 60.7416 41.5C62.1725 39.0217 64.3812 37.0847 67.0251 35.9896ZM78 82C78 84.2208 76.7934 86.1599 75 87.1973V93C75 94.6569 73.6569 96 72 96C70.3431 96 69 94.6569 69 93V87.1973C67.2066 86.1599 66 84.2208 66 82C66 78.6863 68.6863 76 72 76C75.3137 76 78 78.6863 78 82Z" fill="white"/>
</svg>
