<svg width="144" height="144" viewBox="0 0 144 144" fill="none" xmlns="http://www.w3.org/2000/svg">
<path fill-rule="evenodd" clip-rule="evenodd" d="M40 40C35.5817 40 32 43.5817 32 48V96C32 100.418 35.5817 104 40 104H104C108.418 104 112 100.418 112 96V48C112 43.5817 108.418 40 104 40H40ZM49.1213 52.8787C47.9497 51.7071 46.0503 51.7071 44.8787 52.8787C43.7071 54.0503 43.7071 55.9497 44.8787 57.1213L69.8787 82.1213C71.0503 83.2929 72.9497 83.2929 74.1213 82.1213L99.1213 57.1213C100.293 55.9497 100.293 54.0503 99.1213 52.8787C97.9498 51.7071 96.0502 51.7071 94.8787 52.8787L72 75.7574L49.1213 52.8787Z" fill="white"/>
</svg>
