<svg width="144" height="144" viewBox="0 0 144 144" fill="none" xmlns="http://www.w3.org/2000/svg">
<path d="M77 100C78.6569 100 80 98.6569 80 97C80 95.3431 78.6569 94 77 94H67C65.3431 94 64 95.3431 64 97C64 98.6569 65.3431 100 67 100H77Z" fill="white"/>
<path fill-rule="evenodd" clip-rule="evenodd" d="M56 112C51.5817 112 48 108.418 48 104V40C48 35.5817 51.5817 32 56 32H88C92.4183 32 96 35.5817 96 40L96 104C96 108.418 92.4183 112 88 112H56ZM54 104L54 40C54 38.8954 54.8954 38 56 38L88 38C89.1046 38 90 38.8954 90 40L90 104C90 105.105 89.1046 106 88 106H56C54.8954 106 54 105.105 54 104Z" fill="white"/>
</svg>
