<svg width="144" height="144" viewBox="0 0 144 144" fill="none" xmlns="http://www.w3.org/2000/svg">
<path fill-rule="evenodd" clip-rule="evenodd" d="M84 60C84 66.6274 78.6274 72 72 72C65.3726 72 60 66.6274 60 60C60 53.3726 65.3726 48 72 48C78.6274 48 84 53.3726 84 60ZM78 60C78 63.3137 75.3137 66 72 66C68.6863 66 66 63.3137 66 60C66 56.6863 68.6863 54 72 54C75.3137 54 78 56.6863 78 60Z" fill="white"/>
<path d="M55 60C55 62.2091 53.2091 64 51 64C48.7909 64 47 62.2091 47 60C47 57.7909 48.7909 56 51 56C53.2091 56 55 57.7909 55 60Z" fill="white"/>
<path d="M93 56C90.7909 56 89 57.7909 89 60C89 62.2091 90.7909 64 93 64C95.2091 64 97 62.2091 97 60C97 57.7909 95.2091 56 93 56Z" fill="white"/>
<path fill-rule="evenodd" clip-rule="evenodd" d="M36 44C36 39.5817 39.5817 36 44 36H100C104.418 36 108 39.5817 108 44V76C108 80.4183 104.418 84 100 84H44C39.5817 84 36 80.4183 36 76V44ZM44 42H100C101.105 42 102 42.8954 102 44V76C102 77.1046 101.105 78 100 78H44C42.8954 78 42 77.1046 42 76V44C42 42.8954 42.8954 42 44 42Z" fill="white"/>
<path d="M36 105C36 103.343 37.3431 102 39 102H105C106.657 102 108 103.343 108 105C108 106.657 106.657 108 105 108H39C37.3431 108 36 106.657 36 105Z" fill="white"/>
<path d="M39 90C37.3431 90 36 91.3431 36 93C36 94.6569 37.3431 96 39 96H105C106.657 96 108 94.6569 108 93C108 91.3431 106.657 90 105 90H39Z" fill="white"/>
</svg>
