<svg width="144" height="144" viewBox="0 0 144 144" fill="none" xmlns="http://www.w3.org/2000/svg">
<path fill-rule="evenodd" clip-rule="evenodd" d="M44 36C39.5817 36 36 39.5817 36 44V76C36 80.4183 39.5817 84 44 84H100C104.418 84 108 80.4183 108 76V44C108 39.5817 104.418 36 100 36H44ZM84 60C84 66.6274 78.6274 72 72 72C65.3726 72 60 66.6274 60 60C60 53.3726 65.3726 48 72 48C78.6274 48 84 53.3726 84 60ZM55 60C55 62.2091 53.2091 64 51 64C48.7909 64 47 62.2091 47 60C47 57.7909 48.7909 56 51 56C53.2091 56 55 57.7909 55 60ZM93 56C90.7909 56 89 57.7909 89 60C89 62.2091 90.7909 64 93 64C95.2091 64 97 62.2091 97 60C97 57.7909 95.2091 56 93 56Z" fill="white"/>
<path d="M36 105C36 103.343 37.3431 102 39 102H105C106.657 102 108 103.343 108 105C108 106.657 106.657 108 105 108H39C37.3431 108 36 106.657 36 105Z" fill="white"/>
<path d="M39 90C37.3431 90 36 91.3431 36 93C36 94.6569 37.3431 96 39 96H105C106.657 96 108 94.6569 108 93C108 91.3431 106.657 90 105 90H39Z" fill="white"/>
</svg>
