<svg width="144" height="144" viewBox="0 0 144 144" fill="none" xmlns="http://www.w3.org/2000/svg">
<path d="M60.138 44.1263L100.071 32.1464C100.23 32.0947 100.395 32.0559 100.564 32.0312C101.369 31.912 102.166 32.129 102.791 32.5928C103.139 32.851 103.432 33.1857 103.644 33.5816C103.806 33.8825 103.918 34.2142 103.969 34.5656C103.994 34.7344 104.004 34.9028 104 35.0694V85.9998C104 93.7318 97.732 99.9998 90 99.9998C82.268 99.9998 76 93.7318 76 85.9998C76 78.2678 82.268 71.9998 90 71.9998C92.9745 71.9998 95.7323 72.9274 98 74.5092V39.0319L64 49.2319V97.9995C64 105.731 57.732 112 50 112C42.268 112 36 105.732 36 97.9998C36 90.2678 42.268 83.9998 50 83.9998C52.9745 83.9998 55.7323 84.9274 58 86.5092V46.9998C58 45.675 58.869 44.507 60.138 44.1263Z" fill="white"/>
</svg>
