<svg width="144" height="144" viewBox="0 0 144 144" fill="none" xmlns="http://www.w3.org/2000/svg">
<path fill-rule="evenodd" clip-rule="evenodd" d="M77.6403 34.3268C74.5199 31.2244 69.4798 31.2244 66.3593 34.3268L61.6324 39.0265C60.1392 40.5112 58.1208 41.3472 56.015 41.3533L49.3494 41.3726C44.9492 41.3853 41.3853 44.9492 41.3726 49.3494L41.3533 56.015C41.3472 58.1208 40.5112 60.1392 39.0265 61.6324L34.3268 66.3593C31.2244 69.4797 31.2244 74.5199 34.3268 77.6403L39.0265 82.3672C40.5112 83.8605 41.3472 85.8789 41.3533 87.9846L41.3726 94.6502C41.3853 99.0505 44.9492 102.614 49.3494 102.627L56.015 102.646C58.1208 102.652 60.1392 103.488 61.6324 104.973L66.3593 109.673C69.4797 112.775 74.5199 112.775 77.6403 109.673L82.3672 104.973C83.8605 103.488 85.8789 102.652 87.9846 102.646L94.6502 102.627C99.0505 102.614 102.614 99.0505 102.627 94.6502L102.646 87.9846C102.652 85.8789 103.488 83.8605 104.973 82.3672L109.673 77.6403C112.775 74.5199 112.775 69.4798 109.673 66.3593L104.973 61.6324C103.488 60.1392 102.652 58.1208 102.646 56.015L102.627 49.3494C102.614 44.9492 99.0505 41.3853 94.6502 41.3726L87.9846 41.3533C85.8789 41.3472 83.8605 40.5112 82.3672 39.0265L77.6403 34.3268ZM75.7209 53.4349C74.3892 50.0584 69.6105 50.0584 68.2788 53.4349L64.0802 64.0805L53.4347 68.279C50.0581 69.6107 50.0581 74.3894 53.4347 75.7211L64.0802 79.9197L68.2788 90.5652C69.6105 93.9418 74.3892 93.9418 75.7209 90.5652L79.9194 79.9197L90.565 75.7211C93.9415 74.3894 93.9415 69.6107 90.565 68.279L79.9194 64.0805L75.7209 53.4349Z" fill="white"/>
</svg>
