<svg width="144" height="144" viewBox="0 0 144 144" fill="none" xmlns="http://www.w3.org/2000/svg">
<path fill-rule="evenodd" clip-rule="evenodd" d="M48.252 36C49.1401 32.5495 52.2723 30 56 30H68C71.7277 30 74.8599 32.5495 75.748 36H80C84.4183 36 88 39.5817 88 44V47C88 48.6569 86.6569 50 85 50C83.3431 50 82 48.6569 82 47V44C82 42.8954 81.1046 42 80 42H75.748C74.8599 45.4505 71.7277 48 68 48H56C52.2723 48 49.1401 45.4505 48.252 42H44C42.8954 42 42 42.8954 42 44V80C42 81.1046 42.8954 82 44 82H47C48.6569 82 50 83.3431 50 85C50 86.6569 48.6569 88 47 88H44C39.5817 88 36 84.4183 36 80V44C36 39.5817 39.5817 36 44 36H48.252ZM56 36H68C69.1046 36 70 36.8954 70 38V40C70 41.1046 69.1046 42 68 42H56C54.8954 42 54 41.1046 54 40V38C54 36.8954 54.8954 36 56 36Z" fill="white"/>
<path fill-rule="evenodd" clip-rule="evenodd" d="M64 56C59.5817 56 56 59.5817 56 64V100C56 104.418 59.5817 108 64 108H100C104.418 108 108 104.418 108 100V64C108 59.5817 104.418 56 100 56H64ZM64 62C62.8954 62 62 62.8954 62 64V100C62 101.105 62.8954 102 64 102H100C101.105 102 102 101.105 102 100V64C102 62.8954 101.105 62 100 62H64Z" fill="white"/>
</svg>
