<svg width="144" height="144" viewBox="0 0 144 144" fill="none" xmlns="http://www.w3.org/2000/svg">
<path d="M108 83.4651V100C108 104.418 104.407 108.046 100.016 107.556C93.3018 106.807 86.7128 105.115 80.4465 102.519C71.7111 98.9011 63.774 93.5975 57.0882 86.9117C50.4024 80.2259 45.0989 72.2887 41.4805 63.5532C38.885 57.2869 37.193 50.698 36.4439 43.9836C35.9539 39.5926 39.5816 36 43.9999 36H60.5349C62.6191 36 64.4847 37.2929 65.2165 39.2444L68.8694 48.9854C69.5579 50.8213 69.1097 52.8901 67.7233 54.2766L61.9144 60.0855C64.3481 64.7423 67.4838 69.023 71.2303 72.7696C74.9768 76.5161 79.2575 79.6519 83.9142 82.0856L89.7232 76.2767C91.1096 74.8903 93.1784 74.4421 95.0143 75.1306L104.755 78.7835C106.707 79.5153 108 81.3809 108 83.4651Z" fill="white"/>
<path d="M84 36C82.3431 36 81 37.3431 81 39C81 40.6569 82.3431 42 84 42C86.3638 42 88.7044 42.4656 90.8883 43.3702C93.0722 44.2748 95.0565 45.6006 96.7279 47.2721C98.3994 48.9435 99.7252 50.9278 100.63 53.1117C101.534 55.2956 102 57.6362 102 60C102 61.6569 103.343 63 105 63C106.657 63 108 61.6569 108 60C108 56.8483 107.379 53.7274 106.173 50.8156C104.967 47.9038 103.199 45.258 100.971 43.0294C98.742 40.8008 96.0962 39.033 93.1844 37.8269C90.2726 36.6208 87.1517 36 84 36Z" fill="white"/>
<path d="M81 51C81 49.3431 82.3431 48 84 48C85.5759 48 87.1363 48.3104 88.5922 48.9134C90.0481 49.5165 91.371 50.4004 92.4853 51.5147C93.5996 52.629 94.4835 53.9519 95.0866 55.4078C95.6896 56.8637 96 58.4241 96 60C96 61.6569 94.6569 63 93 63C91.3431 63 90 61.6569 90 60C90 59.2121 89.8448 58.4319 89.5433 57.7039C89.2417 56.9759 88.7998 56.3145 88.2426 55.7574C87.6855 55.2002 87.0241 54.7583 86.2961 54.4567C85.5681 54.1552 84.7879 54 84 54C82.3431 54 81 52.6569 81 51Z" fill="white"/>
</svg>
