<svg width="144" height="144" viewBox="0 0 144 144" fill="none" xmlns="http://www.w3.org/2000/svg">
<path fill-rule="evenodd" clip-rule="evenodd" d="M88.1569 86.3283C86.3027 88.1825 83.4591 88.6178 81.1351 87.4032C75.9411 84.6886 71.1665 81.191 66.9877 77.0122C62.8087 72.8333 59.3113 68.0585 56.5968 62.8646C55.3822 60.5406 55.8175 57.6971 57.6717 55.8429L63.0253 50.4893L59.8419 42H43.9999C43.4232 42 42.9675 42.2335 42.6965 42.514C42.4534 42.7656 42.3736 43.02 42.4069 43.3183C43.0936 49.4731 44.6445 55.513 47.0238 61.2571C50.3406 69.2646 55.2022 76.5404 61.3308 82.6691C67.4595 88.7978 74.7352 93.6594 82.7426 96.9762C88.4867 99.3554 94.5266 100.906 100.681 101.593C100.98 101.626 101.234 101.547 101.486 101.304C101.766 101.032 102 100.577 102 100V84.1581L93.5105 80.9747L88.1569 86.3283ZM83.9142 82.0856L89.7232 76.2767C91.1096 74.8903 93.1784 74.4421 95.0143 75.1306L104.755 78.7835C106.707 79.5153 108 81.3809 108 83.4651V100C108 104.418 104.407 108.046 100.016 107.556C93.3018 106.807 86.7128 105.115 80.4465 102.519C71.7111 98.9011 63.774 93.5975 57.0882 86.9117C50.4024 80.2259 45.0989 72.2887 41.4805 63.5532C38.885 57.2869 37.193 50.698 36.4439 43.9836C35.9539 39.5926 39.5816 36 43.9999 36H60.5349C62.6191 36 64.4847 37.2929 65.2165 39.2444L68.8694 48.9854C69.5579 50.8213 69.1097 52.8901 67.7233 54.2766L61.9144 60.0855C64.3481 64.7423 67.4838 69.023 71.2303 72.7696C74.9768 76.5161 79.2575 79.6519 83.9142 82.0856Z" fill="white"/>
</svg>
