<svg width="144" height="144" viewBox="0 0 144 144" fill="none" xmlns="http://www.w3.org/2000/svg">
<path d="M108 100V83.4651C108 81.3809 106.707 79.5153 104.755 78.7835L95.0143 75.1306C93.1784 74.4421 91.1096 74.8903 89.7232 76.2767L83.9142 82.0856C79.2575 79.6519 74.9768 76.5161 71.2303 72.7696C67.4838 69.023 64.3481 64.7423 61.9144 60.0855L67.7233 54.2766C69.1097 52.8901 69.5579 50.8213 68.8694 48.9854L65.2165 39.2444C64.4847 37.2929 62.6191 36 60.5349 36L43.9999 36C39.5816 36 35.9539 39.5926 36.4439 43.9836C37.193 50.698 38.885 57.2869 41.4805 63.5532C45.0989 72.2887 50.4024 80.2259 57.0882 86.9117C63.774 93.5975 71.7111 98.9011 80.4465 102.519C86.7128 105.115 93.3018 106.807 100.016 107.556C104.407 108.046 108 104.418 108 100Z" fill="white"/>
</svg>
