<svg width="144" height="144" viewBox="0 0 144 144" fill="none" xmlns="http://www.w3.org/2000/svg">
<path fill-rule="evenodd" clip-rule="evenodd" d="M83.9142 82.0856L89.7232 76.2767C91.1096 74.8903 93.1784 74.4421 95.0143 75.1306L104.755 78.7835C106.707 79.5153 108 81.3809 108 83.4651V100C108 104.418 104.407 108.046 100.016 107.556C93.3018 106.807 86.7128 105.115 80.4465 102.519C71.7111 98.9011 63.774 93.5975 57.0882 86.9117C50.4024 80.2259 45.0989 72.2887 41.4805 63.5532C38.885 57.2869 37.193 50.698 36.4439 43.9836C35.9539 39.5926 39.5816 36 43.9999 36H60.5349C62.6191 36 64.4847 37.2929 65.2165 39.2444L68.8694 48.9854C69.5579 50.8213 69.1097 52.8901 67.7233 54.2766L61.9144 60.0855C64.3481 64.7423 67.4838 69.023 71.2303 72.7696C74.9768 76.5161 79.2575 79.6519 83.9142 82.0856ZM88.1569 86.3283C86.3027 88.1825 83.4591 88.6178 81.1351 87.4032C75.9411 84.6886 71.1665 81.191 66.9877 77.0122C62.8087 72.8333 59.3113 68.0585 56.5968 62.8646C55.3822 60.5406 55.8175 57.6971 57.6717 55.8429L63.0253 50.4893L59.8419 42H43.9999C43.4232 42 42.9675 42.2335 42.6965 42.514C42.4534 42.7656 42.3736 43.02 42.4069 43.3183C43.0936 49.4731 44.6445 55.513 47.0238 61.2571C50.3406 69.2646 55.2022 76.5404 61.3308 82.6691C67.4595 88.7978 74.7352 93.6594 82.7426 96.9762C88.4867 99.3554 94.5266 100.906 100.681 101.593C100.98 101.626 101.234 101.547 101.486 101.304C101.766 101.032 102 100.577 102 100V84.1581L93.5105 80.9747L88.1569 86.3283Z" fill="white"/>
<path d="M80.9998 39C80.9998 37.3431 82.3429 36 83.9998 36C87.1515 36 90.2723 36.6208 93.1842 37.8269C96.096 39.033 98.7417 40.8008 100.97 43.0294C103.199 45.258 104.967 47.9038 106.173 50.8156C107.379 53.7274 108 56.8483 108 60C108 61.6569 106.657 63 105 63C103.343 63 102 61.6569 102 60C102 57.6362 101.534 55.2956 100.63 53.1117C99.725 50.9278 98.3991 48.9435 96.7277 47.2721C95.0562 45.6006 93.0719 44.2748 90.8881 43.3702C88.7042 42.4656 86.3635 42 83.9998 42C82.3429 42 80.9998 40.6569 80.9998 39Z" fill="white"/>
<path d="M83.9998 48C82.3429 48 80.9998 49.3431 80.9998 51C80.9998 52.6569 82.3429 54 83.9998 54C84.7877 54 85.5679 54.1552 86.2959 54.4567C87.0238 54.7583 87.6852 55.2002 88.2424 55.7574C88.7995 56.3145 89.2415 56.9759 89.543 57.7039C89.8446 58.4319 89.9998 59.2121 89.9998 60C89.9998 61.6569 91.3429 63 92.9998 63C94.6566 63 95.9998 61.6569 95.9998 60C95.9998 58.4241 95.6894 56.8637 95.0863 55.4078C94.4833 53.9519 93.5993 52.629 92.485 51.5147C91.3707 50.4004 90.0479 49.5165 88.592 48.9134C87.136 48.3104 85.5756 48 83.9998 48Z" fill="white"/>
</svg>
