<svg width="144" height="144" viewBox="0 0 144 144" fill="none" xmlns="http://www.w3.org/2000/svg">
<path d="M44.5167 95.2523C46.6754 97.8038 49.1904 100.056 51.9995 101.933C57.9197 105.889 64.8799 108 72 108C79.1201 108 86.0804 105.889 92.0005 101.933C97.9207 97.9772 102.535 92.3547 105.26 85.7766C107.984 79.1985 108.697 71.9601 107.308 64.9767C105.919 57.9934 102.491 51.5788 97.4559 46.5442C96.3375 45.4258 94.5559 45.375 93.3773 46.3917L93.0607 46.7083C92.0441 47.8869 92.0949 49.6685 93.2132 50.7868C97.4088 54.9824 100.266 60.3279 101.424 66.1473C102.581 71.9667 101.987 77.9987 99.7164 83.4805C97.4458 88.9623 93.6006 93.6476 88.6671 96.9441C83.7337 100.241 77.9335 102 72 102C66.0666 102 60.2664 100.241 55.3329 96.9441C52.8517 95.2862 50.6458 93.2771 48.7771 90.9919L44.5167 95.2523Z" fill="white"/>
<path d="M45.4039 85.8798L40.9928 90.2909C40.1407 88.8463 39.3873 87.3384 38.7404 85.7766C36.0156 79.1985 35.3027 71.9601 36.6917 64.9768C38.0808 57.9934 41.5095 51.5788 46.5442 46.5442C47.7157 45.3726 49.6152 45.3726 50.7868 46.5442C51.9584 47.7157 51.9584 49.6152 50.7868 50.7868C46.5912 54.9824 43.734 60.3279 42.5765 66.1473C41.4189 71.9667 42.013 77.9987 44.2836 83.4805C44.6225 84.2987 44.9965 85.0991 45.4039 85.8798Z" fill="white"/>
<path d="M69 70.769V72C69 73.6569 70.3432 75 72 75C73.6569 75 75 73.6569 75 72V64.769L69 70.769Z" fill="white"/>
<path d="M75 56.2837L69 62.2837V35C69 33.3431 70.3432 32 72 32C73.6569 32 75 33.3431 75 35V56.2837Z" fill="white"/>
<path d="M32.8787 106.879C31.7071 108.05 31.7071 109.95 32.8787 111.121C34.0503 112.293 35.9497 112.293 37.1213 111.121L111.121 37.1213C112.293 35.9497 112.293 34.0503 111.121 32.8787C109.95 31.7071 108.05 31.7071 106.879 32.8787L32.8787 106.879Z" fill="#FF7073"/>
</svg>
