<svg width="144" height="144" viewBox="0 0 144 144" fill="none" xmlns="http://www.w3.org/2000/svg">
<path fill-rule="evenodd" clip-rule="evenodd" d="M28 43C28 41.3431 29.3431 40 31 40H113C114.657 40 116 41.3431 116 43C116 44.6569 114.657 46 113 46H108V84C108 88.4183 104.418 92 100 92H75V95.7574L86.1213 106.879C87.2929 108.05 87.2929 109.95 86.1213 111.121C84.9497 112.293 83.0503 112.293 81.8787 111.121L72 101.243L62.1213 111.121C60.9497 112.293 59.0503 112.293 57.8787 111.121C56.7071 109.95 56.7071 108.05 57.8787 106.879L69 95.7574V92H44C39.5817 92 36 88.4183 36 84V46H31C29.3431 46 28 44.6569 28 43ZM83 66C84.6569 66 86.0321 67.3582 85.6798 68.9771C85.3086 70.6825 84.62 72.3122 83.6406 73.778C82.1022 76.0803 79.9157 77.8747 77.3576 78.9343C74.7994 79.9939 71.9845 80.2712 69.2687 79.731C66.553 79.1908 64.0584 77.8574 62.1005 75.8995C60.1426 73.9416 58.8092 71.447 58.269 68.7313C57.7288 66.0155 58.0061 63.2006 59.0657 60.6424C60.1253 58.0843 61.9197 55.8978 64.222 54.3594C65.6878 53.38 67.3175 52.6914 69.0229 52.3202C70.6418 51.9679 72 53.3431 72 55V66H83Z" fill="white"/>
</svg>
