<svg width="144" height="144" viewBox="0 0 144 144" fill="none" xmlns="http://www.w3.org/2000/svg">
<path fill-rule="evenodd" clip-rule="evenodd" d="M72 50C68.8355 50 65.7421 50.9384 63.1109 52.6965C60.4797 54.4546 58.4289 56.9534 57.2179 59.8771C56.0069 62.8007 55.6901 66.0177 56.3074 69.1214C56.9248 72.2251 58.4487 75.0761 60.6863 77.3137C62.9239 79.5513 65.7749 81.0752 68.8786 81.6926C71.9823 82.3099 75.1993 81.9931 78.1229 80.7821C81.0466 79.5711 83.5454 77.5203 85.3035 74.8891C87.0616 72.2579 88 69.1645 88 66C88 64.3431 86.6569 63 85 63H75V53C75 51.3431 73.6569 50 72 50ZM66.4443 57.6853C67.2381 57.1549 68.0991 56.7439 69 56.4606V69H81.5394C81.2561 69.9009 80.8451 70.7619 80.3147 71.5557C79.2159 73.2002 77.6541 74.4819 75.8268 75.2388C73.9996 75.9957 71.9889 76.1937 70.0491 75.8079C68.1093 75.422 66.3275 74.4696 64.9289 73.0711C63.5304 71.6725 62.578 69.8907 62.1921 67.9509C61.8063 66.0111 62.0043 64.0004 62.7612 62.1732C63.5181 60.3459 64.7998 58.7841 66.4443 57.6853Z" fill="white"/>
<path fill-rule="evenodd" clip-rule="evenodd" d="M28 43C28 41.3431 29.3431 40 31 40H113C114.657 40 116 41.3431 116 43C116 44.6569 114.657 46 113 46H108V84C108 88.4183 104.418 92 100 92H75V95.7574L86.1213 106.879C87.2929 108.05 87.2929 109.95 86.1213 111.121C84.9497 112.293 83.0503 112.293 81.8787 111.121L72 101.243L62.1213 111.121C60.9497 112.293 59.0503 112.293 57.8787 111.121C56.7071 109.95 56.7071 108.05 57.8787 106.879L69 95.7574V92H44C39.5817 92 36 88.4183 36 84V46H31C29.3431 46 28 44.6569 28 43ZM42 46H102V84C102 85.1046 101.105 86 100 86H44C42.8954 86 42 85.1046 42 84V46Z" fill="white"/>
</svg>
