<svg width="144" height="144" viewBox="0 0 144 144" fill="none" xmlns="http://www.w3.org/2000/svg">
<path d="M94 40C94 38.3431 95.3431 37 97 37C98.6568 37 100 38.3431 100 40V57C100 58.6569 98.6568 60 97 60H80C78.3431 60 77 58.6569 77 57C77 55.3431 78.3431 54 80 54H90.7617C87.7471 50.8578 83.9767 48.5083 79.7851 47.1929C74.4317 45.5129 68.6784 45.6097 63.3846 47.4689C58.0907 49.3282 53.5403 52.85 50.413 57.5085C47.2858 62.1671 45.7494 67.7122 46.0333 73.3159C46.3173 78.9196 48.4064 84.281 51.9886 88.5995C55.5708 92.918 60.4539 95.9618 65.9086 97.2764C71.3633 98.5909 77.0969 98.1056 82.253 95.893C87.4092 93.6804 91.7113 89.8591 94.5167 85C95.3451 83.5651 97.1799 83.0735 98.6147 83.9019C100.05 84.7304 100.541 86.5651 99.7128 88C96.26 93.9805 90.9652 98.6835 84.6191 101.407C78.2731 104.13 71.2164 104.727 64.5029 103.109C57.7894 101.491 51.7795 97.7452 47.3706 92.4302C42.9617 87.1151 40.3905 80.5164 40.041 73.6196C39.6915 66.7227 41.5825 59.8979 45.4314 54.1644C49.2804 48.4308 54.8809 44.0962 61.3964 41.8079C67.9119 39.5196 74.9928 39.4004 81.5817 41.4682C86.2465 42.9321 90.4874 45.4366 94 48.762V40Z" fill="white"/>
</svg>
