<svg width="144" height="144" viewBox="0 0 144 144" fill="none" xmlns="http://www.w3.org/2000/svg">
<path fill-rule="evenodd" clip-rule="evenodd" d="M44 36C39.5817 36 36 39.5817 36 44V100C36 104.418 39.5817 108 44 108H100C104.418 108 108 104.418 108 100V44C108 39.5817 104.418 36 100 36H44ZM54 96C57.3137 96 60 93.3137 60 90C60 86.6863 57.3137 84 54 84C50.6863 84 48 86.6863 48 90C48 93.3137 50.6863 96 54 96ZM48 51C48 49.3431 49.3431 48 51 48C56.9095 48 62.7611 49.164 68.2208 51.4254C73.6804 53.6869 78.6412 57.0016 82.8198 61.1802C86.9984 65.3588 90.3131 70.3196 92.5746 75.7792C94.836 81.2389 96 87.0905 96 93C96 94.6569 94.6569 96 93 96C91.3431 96 90 94.6569 90 93C90 87.8784 88.9912 82.807 87.0313 78.0753C85.0714 73.3436 82.1986 69.0443 78.5772 65.4228C74.9557 61.8013 70.6563 58.9286 65.9247 56.9687C61.193 55.0088 56.1216 54 51 54C49.3431 54 48 52.6569 48 51ZM51 66C49.3431 66 48 67.3431 48 69C48 70.6569 49.3431 72 51 72C53.7578 72 56.4885 72.5432 59.0364 73.5985C61.5842 74.6539 63.8992 76.2007 65.8492 78.1508C67.7993 80.1008 69.3461 82.4158 70.4015 84.9636C71.4568 87.5115 72 90.2422 72 93C72 94.6569 73.3431 96 75 96C76.6569 96 78 94.6569 78 93C78 89.4543 77.3016 85.9433 75.9447 82.6675C74.5879 79.3918 72.5991 76.4153 70.0919 73.9081C67.5847 71.4009 64.6082 69.4121 61.3325 68.0553C58.0567 66.6984 54.5457 66 51 66Z" fill="white"/>
</svg>
