<svg width="144" height="144" viewBox="0 0 144 144" fill="none" xmlns="http://www.w3.org/2000/svg">
<path fill-rule="evenodd" clip-rule="evenodd" d="M79.5371 37.3293C77.0148 30.2366 66.9842 30.2366 64.4619 37.3293L64.2789 37.844C62.6905 42.3106 57.5884 44.424 53.3068 42.3887L52.8135 42.1542C46.0147 38.9224 38.922 46.0152 42.1538 52.814L42.3883 53.3073C44.4235 57.5888 42.3101 62.691 37.8435 64.2794L37.3288 64.4624C30.2361 66.9847 30.2361 77.0153 37.3288 79.5376L37.8435 79.7206C42.3101 81.309 44.4235 86.4112 42.3883 90.6927L42.1538 91.186C38.922 97.9848 46.0147 105.078 52.8135 101.846L53.3068 101.611C57.5884 99.576 62.6905 101.689 64.2789 106.156L64.4619 106.671C66.9842 113.763 77.0148 113.763 79.5371 106.671L79.7201 106.156C81.3085 101.689 86.4107 99.576 90.6922 101.611L91.1855 101.846C97.9843 105.078 105.077 97.9848 101.845 91.186L101.611 90.6927C99.5756 86.4112 101.689 81.309 106.156 79.7206L106.67 79.5376C113.763 77.0153 113.763 66.9847 106.67 64.4624L106.156 64.2794C101.689 62.691 99.5756 57.5888 101.611 53.3073L101.845 52.814C105.077 46.0152 97.9843 38.9224 91.1855 42.1542L90.6922 42.3887C86.4107 44.424 81.3085 42.3106 79.7201 37.844L79.5371 37.3293ZM72 88.0005C80.8366 88.0005 88 80.837 88 72.0005C88 63.1639 80.8366 56.0005 72 56.0005C63.1634 56.0005 56 63.1639 56 72.0005C56 80.837 63.1634 88.0005 72 88.0005Z" fill="white"/>
</svg>
