<svg width="144" height="144" viewBox="0 0 144 144" fill="none" xmlns="http://www.w3.org/2000/svg">
<path d="M32.8787 111.121C31.7071 109.95 31.7071 108.05 32.8787 106.879L106.879 32.8787C108.05 31.7071 109.95 31.7071 111.121 32.8787C112.293 34.0503 112.293 35.9497 111.121 37.1213L100.442 47.801L103.885 49.7142C106.425 51.1251 108.034 53.8154 107.859 56.7155C105.876 89.5272 83.4972 105.492 75.1308 110.345C73.1728 111.481 70.8274 111.481 68.8694 110.345C65.0604 108.136 58.3471 103.623 51.9763 96.2663L37.1213 111.121C35.9497 112.293 34.0503 112.293 32.8787 111.121Z" fill="white"/>
<path d="M44.9021 86.3816L89.5394 41.7443L75.8852 34.1586C73.4691 32.8163 70.5311 32.8163 68.115 34.1586L40.1149 49.7142C37.5752 51.1251 35.9657 53.8154 36.1409 56.7155C36.8708 68.7905 40.3628 78.5839 44.9021 86.3816Z" fill="white"/>
</svg>
