<svg width="144" height="144" viewBox="0 0 144 144" fill="none" xmlns="http://www.w3.org/2000/svg">
<path d="M48.2383 91.5312C55.5594 101.736 64.3022 107.697 68.8694 110.346C70.8274 111.481 73.1728 111.481 75.1308 110.346C83.4972 105.493 105.876 89.5277 107.859 56.716C108.034 53.8159 106.425 51.1256 103.885 49.7146L94.9943 44.7752L48.2383 91.5312Z" fill="white"/>
<path d="M89.5394 41.7448L44.9021 86.3821C40.3628 78.5844 36.8708 68.791 36.1409 56.716C35.9657 53.8159 37.5752 51.1256 40.1149 49.7146L68.115 34.1591C70.5311 32.8168 73.4691 32.8168 75.8852 34.1591L89.5394 41.7448Z" fill="white"/>
<path d="M32.8787 106.879C31.7071 108.05 31.7071 109.95 32.8787 111.121C34.0503 112.293 35.9497 112.293 37.1213 111.121L111.121 37.1213C112.293 35.9497 112.293 34.0503 111.121 32.8787C109.95 31.7071 108.05 31.7071 106.879 32.8787L32.8787 106.879Z" fill="#FF7073"/>
</svg>
