<svg width="144" height="144" viewBox="0 0 144 144" fill="none" xmlns="http://www.w3.org/2000/svg">
<path d="M52 56C54.2091 56 56 54.2091 56 52C56 49.7909 54.2091 48 52 48C49.7909 48 48 49.7909 48 52C48 54.2091 49.7909 56 52 56Z" fill="white"/>
<path d="M56 64C56 66.2091 54.2091 68 52 68C49.7909 68 48 66.2091 48 64C48 61.7909 49.7909 60 52 60C54.2091 60 56 61.7909 56 64Z" fill="white"/>
<path d="M52 96C54.2091 96 56 94.2091 56 92C56 89.7909 54.2091 88 52 88C49.7909 88 48 89.7909 48 92C48 94.2091 49.7909 96 52 96Z" fill="white"/>
<path d="M69.3333 52C69.3333 54.2091 67.5424 56 65.3333 56C63.1241 56 61.3333 54.2091 61.3333 52C61.3333 49.7909 63.1241 48 65.3333 48C67.5424 48 69.3333 49.7909 69.3333 52Z" fill="white"/>
<path d="M65.3333 68C67.5424 68 69.3333 66.2091 69.3333 64C69.3333 61.7909 67.5424 60 65.3333 60C63.1241 60 61.3333 61.7909 61.3333 64C61.3333 66.2091 63.1241 68 65.3333 68Z" fill="white"/>
<path d="M69.3333 92C69.3333 94.2091 67.5424 96 65.3333 96C63.1241 96 61.3333 94.2091 61.3333 92C61.3333 89.7909 63.1241 88 65.3333 88C67.5424 88 69.3333 89.7909 69.3333 92Z" fill="white"/>
<path d="M78.6665 56C80.8756 56 82.6665 54.2091 82.6665 52C82.6665 49.7909 80.8756 48 78.6665 48C76.4574 48 74.6665 49.7909 74.6665 52C74.6665 54.2091 76.4574 56 78.6665 56Z" fill="white"/>
<path d="M82.6665 64C82.6665 66.2091 80.8756 68 78.6665 68C76.4574 68 74.6665 66.2091 74.6665 64C74.6665 61.7909 76.4574 60 78.6665 60C80.8756 60 82.6665 61.7909 82.6665 64Z" fill="white"/>
<path d="M78.6665 96C80.8756 96 82.6665 94.2091 82.6665 92C82.6665 89.7909 80.8756 88 78.6665 88C76.4574 88 74.6665 89.7909 74.6665 92C74.6665 94.2091 76.4574 96 78.6665 96Z" fill="white"/>
<path d="M95.9998 52C95.9998 54.2091 94.2089 56 91.9998 56C89.7906 56 87.9998 54.2091 87.9998 52C87.9998 49.7909 89.7906 48 91.9998 48C94.2089 48 95.9998 49.7909 95.9998 52Z" fill="white"/>
<path d="M91.9998 68C94.2089 68 95.9998 66.2091 95.9998 64C95.9998 61.7909 94.2089 60 91.9998 60C89.7906 60 87.9998 61.7909 87.9998 64C87.9998 66.2091 89.7906 68 91.9998 68Z" fill="white"/>
<path d="M95.9998 92C95.9998 94.2091 94.2089 96 91.9998 96C89.7906 96 87.9998 94.2091 87.9998 92C87.9998 89.7909 89.7906 88 91.9998 88C94.2089 88 95.9998 89.7909 95.9998 92Z" fill="white"/>
<path d="M51 75C49.3431 75 48 76.3431 48 78C48 79.6569 49.3431 81 51 81L93 81C94.6569 81 96 79.6569 96 78C96 76.3432 94.6569 75 93 75L51 75Z" fill="white"/>
<path fill-rule="evenodd" clip-rule="evenodd" d="M36 44C36 39.5817 39.5817 36 44 36H100C104.418 36 108 39.5817 108 44V100C108 104.418 104.418 108 100 108H44C39.5817 108 36 104.418 36 100V44ZM44 42H100C101.105 42 102 42.8954 102 44V100C102 101.105 101.105 102 100 102H44C42.8954 102 42 101.105 42 100V44C42 42.8954 42.8954 42 44 42Z" fill="white"/>
</svg>
