<svg width="144" height="144" viewBox="0 0 144 144" fill="none" xmlns="http://www.w3.org/2000/svg">
<path fill-rule="evenodd" clip-rule="evenodd" d="M40 40C35.5817 40 32 43.5817 32 48V96C32 100.418 35.5817 104 40 104H104C108.418 104 112 100.418 112 96V48C112 43.5817 108.418 40 104 40H40ZM46.9561 51.8691C44.7469 51.8691 42.9561 53.66 42.9561 55.8691C42.9561 58.0783 44.7469 59.8691 46.9561 59.8691C49.1652 59.8691 50.9561 58.0783 50.9561 55.8691C50.9561 53.66 49.1652 51.8691 46.9561 51.8691ZM59.478 51.8691C57.2689 51.8691 55.478 53.66 55.478 55.8691C55.478 58.0783 57.2689 59.8691 59.478 59.8691C61.6872 59.8691 63.478 58.0783 63.478 55.8691C63.478 53.66 61.6872 51.8691 59.478 51.8691ZM68 55.8691C68 53.66 69.7909 51.8691 72 51.8691C74.2091 51.8691 76 53.66 76 55.8691C76 58.0783 74.2091 59.8691 72 59.8691C69.7909 59.8691 68 58.0783 68 55.8691ZM84.522 51.8691C82.3128 51.8691 80.522 53.66 80.522 55.8691C80.522 58.0783 82.3128 59.8691 84.522 59.8691C86.7311 59.8691 88.522 58.0783 88.522 55.8691C88.522 53.66 86.7311 51.8691 84.522 51.8691ZM93.0441 55.8691C93.0441 53.66 94.8349 51.8691 97.0441 51.8691C99.2532 51.8691 101.044 53.66 101.044 55.8691C101.044 58.0783 99.2532 59.8691 97.0441 59.8691C94.8349 59.8691 93.0441 58.0783 93.0441 55.8691ZM59.478 67.9995C57.2689 67.9995 55.478 69.7904 55.478 71.9995C55.478 74.2087 57.2689 75.9995 59.478 75.9995C61.6872 75.9995 63.478 74.2087 63.478 71.9995C63.478 69.7904 61.6872 67.9995 59.478 67.9995ZM68 71.9995C68 69.7904 69.7909 67.9995 72 67.9995C74.2091 67.9995 76 69.7904 76 71.9995C76 74.2087 74.2091 75.9995 72 75.9995C69.7909 75.9995 68 74.2087 68 71.9995ZM84.522 67.9995C82.3128 67.9995 80.522 69.7904 80.522 71.9995C80.522 74.2087 82.3128 75.9995 84.522 75.9995C86.7311 75.9995 88.522 74.2087 88.522 71.9995C88.522 69.7904 86.7311 67.9995 84.522 67.9995ZM93.0441 71.9995C93.0441 69.7904 94.8349 67.9995 97.0441 67.9995C99.2532 67.9995 101.044 69.7904 101.044 71.9995C101.044 74.2087 99.2532 75.9995 97.0441 75.9995C94.8349 75.9995 93.0441 74.2087 93.0441 71.9995ZM46.9561 84.1299C44.7469 84.1299 42.9561 85.9207 42.9561 88.1299C42.9561 90.339 44.7469 92.1299 46.9561 92.1299C49.1652 92.1299 50.9561 90.339 50.9561 88.1299C50.9561 85.9207 49.1652 84.1299 46.9561 84.1299ZM55.4303 88.1299C55.4303 85.9207 57.2212 84.1299 59.4303 84.1299C61.6394 84.1299 63.4303 85.9207 63.4303 88.1299C63.4303 90.339 61.6394 92.1299 59.4303 92.1299C57.2212 92.1299 55.4303 90.339 55.4303 88.1299ZM71.9045 84.1299C69.6954 84.1299 67.9045 85.9207 67.9045 88.1299C67.9045 90.339 69.6954 92.1299 71.9045 92.1299C74.1137 92.1299 75.9045 90.339 75.9045 88.1299C75.9045 85.9207 74.1137 84.1299 71.9045 84.1299ZM80.3788 88.1299C80.3788 85.9207 82.1696 84.1299 84.3788 84.1299C86.5879 84.1299 88.3788 85.9207 88.3788 88.1299C88.3788 90.339 86.5879 92.1299 84.3788 92.1299C82.1696 92.1299 80.3788 90.339 80.3788 88.1299ZM97.0441 84.1299C94.8349 84.1299 93.0441 85.9207 93.0441 88.1299C93.0441 90.339 94.8349 92.1299 97.0441 92.1299C99.2532 92.1299 101.044 90.339 101.044 88.1299C101.044 85.9207 99.2532 84.1299 97.0441 84.1299ZM42.9561 71.9995C42.9561 69.7904 44.7469 67.9995 46.9561 67.9995C49.1652 67.9995 50.9561 69.7904 50.9561 71.9995C50.9561 74.2087 49.1652 75.9995 46.9561 75.9995C44.7469 75.9995 42.9561 74.2087 42.9561 71.9995Z" fill="white"/>
</svg>
