<svg width="144" height="144" viewBox="0 0 144 144" fill="none" xmlns="http://www.w3.org/2000/svg">
<path fill-rule="evenodd" clip-rule="evenodd" d="M90 76L82.022 101.529C80.8191 105.379 77.254 108 73.2209 108C68.1283 108 64 103.872 64 98.7791L64 84L42.474 84C37.199 84 33.368 78.9842 34.7559 73.8951L40.7845 51.7901C42.683 44.8291 49.0055 40 56.2207 40L100 40C104.418 40 108 43.5817 108 48L108 68C108 72.4183 104.418 76 100 76L90 76ZM70 78L42.474 78C41.1553 78 40.1975 76.746 40.5445 75.4738L46.5731 53.3688C47.7596 49.0182 51.7112 46 56.2207 46L84 46L84 75.0843L76.2952 99.7398C75.875 101.084 74.6297 102 73.2209 102C71.442 102 70 100.558 70 98.7791L70 78ZM90 70L100 70C101.105 70 102 69.1046 102 68L102 48C102 46.8954 101.105 46 100 46L90 46L90 70Z" fill="white"/>
</svg>
