<svg width="144" height="144" viewBox="0 0 144 144" fill="none" xmlns="http://www.w3.org/2000/svg">
<path fill-rule="evenodd" clip-rule="evenodd" d="M54 68L61.978 42.4705C63.1809 38.621 66.746 36 70.7791 36C75.8717 36 80 40.1283 80 45.2209V60H101.526C106.801 60 110.632 65.0158 109.244 70.1049L103.215 92.2099C101.317 99.1709 94.9945 104 87.7793 104H44C39.5817 104 36 100.418 36 96V76C36 71.5817 39.5817 68 44 68H54ZM74 66H101.526C102.845 66 103.803 67.254 103.456 68.5262L97.4269 90.6312C96.2404 94.9818 92.2888 98 87.7793 98H60V68.9157L67.7048 44.2602C68.125 42.9155 69.3703 42 70.7791 42C72.558 42 74 43.442 74 45.2209V66ZM54 74H44C42.8954 74 42 74.8954 42 76V96C42 97.1046 42.8954 98 44 98H54V74Z" fill="white"/>
</svg>
