<svg width="144" height="144" viewBox="0 0 144 144" fill="none" xmlns="http://www.w3.org/2000/svg">
<path d="M63.0002 30C61.3433 30 60.0002 31.3431 60.0002 33C60.0002 34.6569 61.3433 36 63.0002 36L81.0002 36C82.657 36 84.0002 34.6569 84.0002 33C84.0002 31.3431 82.657 30 81.0002 30L63.0002 30Z" fill="white"/>
<path d="M69.8789 78.1213C68.7073 76.9498 68.7073 75.0503 69.8789 73.8787L81.8789 61.8787C83.0504 60.7071 84.9499 60.7071 86.1215 61.8787C87.2931 63.0503 87.2931 64.9498 86.1215 66.1213L74.1215 78.1213C72.9499 79.2929 71.0504 79.2929 69.8789 78.1213Z" fill="white"/>
<path fill-rule="evenodd" clip-rule="evenodd" d="M72.0002 108C89.6733 108 104 93.6731 104 76C104 58.3269 89.6733 44 72.0002 44C54.3271 44 40.0002 58.3269 40.0002 76C40.0002 93.6731 54.3271 108 72.0002 108ZM98.0002 76C98.0002 61.6406 86.3596 50 72.0002 50C57.6408 50 46.0002 61.6406 46.0002 76C46.0002 90.3594 57.6408 102 72.0002 102C86.3596 102 98.0002 90.3594 98.0002 76Z" fill="white"/>
<path d="M35.9378 51.2512C34.7662 50.0796 34.7662 48.1801 35.9378 47.0086L43.0088 39.9375C44.1804 38.7659 46.0799 38.7659 47.2515 39.9375C48.423 41.1091 48.423 43.0086 47.2515 44.1801L40.1804 51.2512C39.0088 52.4228 37.1093 52.4228 35.9378 51.2512Z" fill="white"/>
<path d="M100.992 39.9375C99.82 38.7659 97.9205 38.7659 96.7489 39.9375C95.5773 41.1091 95.5773 43.0086 96.7489 44.1802L103.82 51.2512C104.992 52.4228 106.891 52.4228 108.063 51.2512C109.234 50.0797 109.234 48.1802 108.063 47.0086L100.992 39.9375Z" fill="white"/>
</svg>
