<svg width="144" height="144" viewBox="0 0 144 144" fill="none" xmlns="http://www.w3.org/2000/svg">
<path d="M58.6862 42.6863C61.6868 39.6857 65.7565 38 69.9999 38C74.2434 38 78.313 39.6857 81.3136 42.6863C84.3142 45.6869 85.9999 49.7565 85.9999 54C85.9999 55.6569 87.3431 57 88.9999 57C90.6568 57 91.9999 55.6569 91.9999 54C91.9999 48.1652 89.6821 42.5695 85.5563 38.4437C81.4305 34.3179 75.8347 32 69.9999 32C64.1652 32 58.5694 34.3178 54.4436 38.4436C50.3178 42.5694 47.9999 48.1652 47.9999 54C47.9999 55.6569 49.3431 57 50.9999 57C52.6568 57 53.9999 55.6569 53.9999 54C53.9999 49.7565 55.6856 45.6869 58.6862 42.6863Z" fill="white"/>
<path d="M75.9999 50V68.6562L96.6759 75.5444C100.762 76.9058 103.037 81.2583 101.823 85.3907L95.6884 106.256C94.6874 109.662 91.5625 112 88.0132 112H67.5818C65.3029 112 63.1321 111.028 61.6143 109.328L42.2633 87.655C40.3653 85.5293 40.23 82.3599 41.9398 80.0801C43.7031 77.7291 46.9126 77.0067 49.5131 78.3754L63.9999 86V50C63.9999 46.6863 66.6862 44 69.9999 44C73.3136 44 75.9999 46.6863 75.9999 50Z" fill="white"/>
</svg>
