<svg width="144" height="144" viewBox="0 0 144 144" fill="none" xmlns="http://www.w3.org/2000/svg">
<path d="M68 59C68 57.3431 66.6569 56 65 56C63.3431 56 62 57.3431 62 59L62 97C62 98.6569 63.3431 100 65 100C66.6569 100 68 98.6569 68 97V59Z" fill="white"/>
<path d="M79 56C80.6569 56 82 57.3431 82 59V97C82 98.6569 80.6569 100 79 100C77.3431 100 76 98.6569 76 97V59C76 57.3431 77.3431 56 79 56Z" fill="white"/>
<path fill-rule="evenodd" clip-rule="evenodd" d="M72 29C63.7157 29 57 35.7157 57 44L39 44C37.3431 44 36 45.3431 36 47C36 48.6569 37.3431 50 39 50H44.3529L47.557 104.47C47.8058 108.698 51.3074 112 55.5432 112H88.4568C92.6926 112 96.1942 108.698 96.443 104.47L99.6471 50H105C106.657 50 108 48.6569 108 47C108 45.3431 106.657 44 105 44L87 44C87 35.7157 80.2843 29 72 29ZM81 44C81 39.0294 76.9706 35 72 35C67.0294 35 63 39.0294 63 44H81ZM53.5467 104.117L50.3633 50H93.6367L90.4533 104.117C90.3911 105.175 89.5157 106 88.4568 106H55.5432C54.4843 106 53.6089 105.175 53.5467 104.117Z" fill="white"/>
</svg>
