<svg width="144" height="144" viewBox="0 0 144 144" fill="none" xmlns="http://www.w3.org/2000/svg">
<path d="M52.8 59C52.8 57.3431 51.4569 56 49.8 56C48.1431 56 46.8 57.3431 46.8 59V85C46.8 86.6569 48.1431 88 49.8 88C51.4569 88 52.8 86.6569 52.8 85V59Z" fill="white"/>
<path d="M79.3996 40C81.0565 40 82.3996 41.3431 82.3996 43V101C82.3996 102.657 81.0565 104 79.3996 104C77.7428 104 76.3996 102.657 76.3996 101V43C76.3996 41.3431 77.7428 40 79.3996 40Z" fill="white"/>
<path d="M64.5998 64C66.2567 64 67.5998 65.3431 67.5998 67V77C67.5998 78.6569 66.2567 80 64.5998 80C62.9429 80 61.5998 78.6569 61.5998 77V67C61.5998 65.3431 62.9429 64 64.5998 64Z" fill="white"/>
<path d="M91.1994 85C91.1994 86.6569 92.5426 88 94.1994 88C95.8563 88 97.1994 86.6569 97.1994 85V59C97.1994 57.3431 95.8563 56 94.1994 56C92.5426 56 91.1994 57.3431 91.1994 59V85Z" fill="white"/>
<path d="M109 80C107.343 80 106 78.6569 106 77V67C106 65.3431 107.343 64 109 64C110.657 64 112 65.3431 112 67V77C112 78.6569 110.657 80 109 80Z" fill="white"/>
<path d="M35 64C36.6569 64 38 65.3431 38 67V77C38 78.6569 36.6569 80 35 80C33.3431 80 32 78.6569 32 77V67C32 65.3431 33.3431 64 35 64Z" fill="white"/>
</svg>
