<svg width="144" height="144" viewBox="0 0 144 144" fill="none" xmlns="http://www.w3.org/2000/svg">
<path d="M53.6311 49.6538C59.4548 47.2416 65.6965 46 71.9999 46C78.3034 46 84.5451 47.2416 90.3688 49.6538C96.1924 52.066 101.484 55.6017 105.941 60.0589C107.113 61.2304 109.012 61.2304 110.184 60.0589C111.355 58.8873 111.355 56.9878 110.184 55.8162C105.169 50.8019 99.2164 46.8243 92.6649 44.1105C86.1133 41.3967 79.0913 40 71.9999 40C64.9086 40 57.8866 41.3968 51.335 44.1105C44.7835 46.8243 38.8305 50.8019 33.8162 55.8162C32.6446 56.9878 32.6446 58.8873 33.8162 60.0589C34.9878 61.2305 36.8872 61.2305 38.0588 60.0589C42.516 55.6017 47.8075 52.066 53.6311 49.6538Z" fill="white"/>
<path d="M72 62C67.7976 62 63.6365 62.8277 59.7541 64.4359C55.8717 66.044 52.344 68.4011 49.3725 71.3726C48.201 72.5442 46.3015 72.5442 45.1299 71.3726C43.9583 70.201 43.9583 68.3015 45.1299 67.13C48.6585 63.6013 52.8476 60.8023 57.458 58.8926C62.0683 56.9829 67.0097 56 72 56C76.9902 56 81.9315 56.9829 86.5419 58.8926C91.1523 60.8023 95.3414 63.6013 98.87 67.1299C100.042 68.3015 100.042 70.201 98.87 71.3726C97.6984 72.5442 95.7989 72.5442 94.6274 71.3726C91.6559 68.4011 88.1282 66.044 84.2458 64.4359C80.3634 62.8277 76.2023 62 72 62Z" fill="white"/>
<path d="M65.877 79.2179C67.8182 78.4139 69.8988 78 72 78C74.1011 78 76.1817 78.4139 78.1229 79.2179C80.0641 80.022 81.8279 81.2006 83.3137 82.6863C84.4852 83.8579 86.3847 83.8579 87.5563 82.6863C88.7279 81.5147 88.7279 79.6152 87.5563 78.4436C85.5134 76.4008 83.0882 74.7803 80.419 73.6746C77.7498 72.569 74.889 72 72 72C69.1109 72 66.2501 72.569 63.5809 73.6747C60.9118 74.7803 58.4865 76.4008 56.4436 78.4437C55.272 79.6152 55.272 81.5147 56.4436 82.6863C57.6152 83.8579 59.5147 83.8579 60.6862 82.6863C62.172 81.2006 63.9358 80.022 65.877 79.2179Z" fill="white"/>
<path d="M72 100C75.3137 100 78 97.3137 78 94C78 90.6863 75.3137 88 72 88C68.6862 88 66 90.6863 66 94C66 97.3137 68.6862 100 72 100Z" fill="white"/>
</svg>
