<svg width="144" height="144" viewBox="0 0 144 144" fill="none" xmlns="http://www.w3.org/2000/svg">
<path d="M36 62C36 57.9321 36.9342 54.0824 38.5997 50.6538C39.6716 48.4472 42.5699 48.2267 44.3046 49.9613L59.1722 64.829C60.7343 66.3911 63.267 66.3911 64.8291 64.829C66.3912 63.2669 66.3912 60.7342 64.8291 59.1721L49.9615 44.3045C48.2268 42.5699 48.4474 39.6716 50.6539 38.5997C54.0826 36.9342 57.9322 36 62 36C76.3594 36 88 47.6406 88 62C88 63.8813 87.8002 65.7158 87.4207 67.4837C87.1075 68.9422 87.4621 70.4914 88.5169 71.5462L105.657 88.6863C108.781 91.8105 108.781 96.8758 105.657 100L100 105.657C96.8759 108.781 91.8106 108.781 88.6864 105.657L71.5464 88.5169C70.4915 87.462 68.9423 87.1075 67.4838 87.4206C65.7159 87.8002 63.8813 88 62 88C47.6406 88 36 76.3594 36 62Z" fill="white"/>
</svg>
