<svg xmlns="http://www.w3.org/2000/svg" xmlns:xlink="http://www.w3.org/1999/xlink" viewBox="0 0 144 144">
<rect id="background" fill="#263838" fill-rule="nonzero" x="0" y="0" width="144" height="144"/>
<path id="icon" fill="#999" fill-rule="evenodd" d="M84.5,49.75l15,0c4.139,0 7.5,3.361 7.5,7.5l-0,35c-0,4.139 -3.361,7.5 -7.5,7.5l-55,0c-4.139,0 -7.5,-3.361 -7.5,-7.5l-0,-35c-0,-4.139 3.361,-7.5 7.5,-7.5l15,-0c-0,-4.139 3.361,-7.5 7.5,-7.5l10,0c4.139,0 7.5,3.361 7.5,7.5Zm12.5,5c-1.38,-0 -2.5,1.12 -2.5,2.5c-0,1.38 1.12,2.5 2.5,2.5c1.38,0 2.5,-1.12 2.5,-2.5c0,-1.38 -1.12,-2.5 -2.5,-2.5Zm-40.625,35.704c8.625,8.625 22.63,8.625 31.255,-0c8.624,-8.625 8.624,-22.63 -0,-31.254c-8.625,-8.625 -22.63,-8.625 -31.255,-0c-8.624,8.624 -8.624,22.629 0,31.254Zm31.676,-26.302c-1.395,2.416 -4.216,7.302 -5.009,8.676l-9.953,-17.239c4.565,0.256 9.056,2.126 12.541,5.611c0.919,0.919 1.726,1.909 2.421,2.952Zm-17.269,-8.555c1.433,2.483 5.006,8.671 5.006,8.671l-9.261,-0c-0.016,-0.001 -0.031,-0.001 -0.047,-0.001l-10.602,-0c0.711,-1.085 1.544,-2.114 2.497,-3.067c3.45,-3.45 7.888,-5.318 12.407,-5.603Zm2.436,38.459c-1.397,-2.419 -4.211,-7.293 -5.004,-8.666l19.911,0c-0.711,1.084 -1.543,2.111 -2.495,3.064c-3.452,3.451 -7.891,5.319 -12.412,5.602Zm-17.263,-8.553c1.431,-2.481 5.007,-8.674 5.007,-8.674l4.654,8.061l5.297,9.174c-4.564,-0.257 -9.054,-2.127 -12.538,-5.61c-0.919,-0.919 -1.726,-1.909 -2.42,-2.951Zm-1.223,-19.236l10.016,0.001l-9.955,17.241c-2.724,-5.402 -2.745,-11.824 -0.061,-17.242Zm34.54,17.121c-2.862,-0 -10.018,-0 -10.018,-0l4.654,-8.06l5.303,-9.185c2.725,5.403 2.746,11.826 0.061,17.245Z"/>
</svg>