<svg width="21" height="21" viewBox="0 0 21 21" fill="none" xmlns="http://www.w3.org/2000/svg">
<path fill-rule="evenodd" clip-rule="evenodd" d="M10 0C10.4142 0 10.75 0.335786 10.75 0.75V3C10.75 3.41421 10.4142 3.75 10 3.75C9.58579 3.75 9.25 3.41421 9.25 3V0.75C9.25 0.335786 9.58579 0 10 0ZM17.071 2.9289C17.3639 3.22179 17.3639 3.69667 17.071 3.98956L15.4801 5.58055C15.1872 5.87344 14.7123 5.87344 14.4194 5.58055C14.1265 5.28766 14.1265 4.81278 14.4194 4.51989L16.0104 2.9289C16.3033 2.63601 16.7781 2.63601 17.071 2.9289ZM18.3332 9.25C18.8528 9.63002 19.3138 10.0853 19.7003 10.5998C19.8823 10.463 20 10.2452 20 10C20 9.58579 19.6642 9.25 19.25 9.25H18.3332ZM14.5842 8.00053C13.8128 6.23434 12.0505 5 10 5C7.23858 5 5 7.23858 5 10C5 12.0505 6.23434 13.8128 8.00053 14.5842C8.00018 14.5562 8 14.5281 8 14.5C8 13.9795 8.06118 13.4733 8.17674 12.9882C7.17112 12.3733 6.5 11.265 6.5 10C6.5 8.067 8.067 6.5 10 6.5C11.265 6.5 12.3733 7.17112 12.9882 8.17674C13.4733 8.06118 13.9795 8 14.5 8C14.5281 8 14.5562 8.00018 14.5842 8.00053ZM9.25 18.3332V19.25C9.25 19.6642 9.58579 20 10 20C10.2452 20 10.463 19.8823 10.5998 19.7003C10.0853 19.3138 9.63002 18.8528 9.25 18.3332ZM2.92896 17.0711C2.63607 16.7782 2.63607 16.3033 2.92896 16.0104L4.51995 14.4195C4.81284 14.1266 5.28772 14.1266 5.58061 14.4195C5.8735 14.7123 5.8735 15.1872 5.58061 15.4801L3.98962 17.0711C3.69673 17.364 3.22185 17.364 2.92896 17.0711ZM0 10C0 9.58579 0.335786 9.25 0.75 9.25H3C3.41421 9.25 3.75 9.58579 3.75 10C3.75 10.4142 3.41421 10.75 3 10.75H0.75C0.335786 10.75 0 10.4142 0 10ZM2.9289 2.9289C3.22179 2.63601 3.69667 2.63601 3.98956 2.9289L5.58055 4.51989C5.87344 4.81278 5.87344 5.28766 5.58055 5.58055C5.28766 5.87344 4.81278 5.87344 4.51989 5.58055L2.9289 3.98956C2.63601 3.69667 2.63601 3.22179 2.9289 2.9289Z" fill="white"/>
<path fill-rule="evenodd" clip-rule="evenodd" d="M14.5 20C17.5376 20 20 17.5376 20 14.5C20 11.4624 17.5376 9 14.5 9C11.4624 9 9 11.4624 9 14.5C9 17.5376 11.4624 20 14.5 20ZM13 11.75C12.5858 11.75 12.25 12.0858 12.25 12.5C12.25 12.9142 12.5858 13.25 13 13.25H14.6893L11.9697 15.9697C11.6768 16.2626 11.6768 16.7374 11.9697 17.0303C12.2626 17.3232 12.7374 17.3232 13.0303 17.0303L15.75 14.3107V16C15.75 16.4142 16.0858 16.75 16.5 16.75C16.9142 16.75 17.25 16.4142 17.25 16V12.5C17.25 12.0858 16.9142 11.75 16.5 11.75H13Z" fill="white"/>
</svg>
