<svg xmlns="http://www.w3.org/2000/svg" width="24" height="24">
    <g fill="#FFF" fill-rule="evenodd">
        <path fill-rule="nonzero" d="M18 12.5H3l7.5 7.5zM19.5 14l1.538 3.692a1.667 1.667 0 1 1-3.077 0L19.5 14Z"/>
        <path d="M4.53 3.53a.75.75 0 0 0 0 1.061l2.682 2.682-4.505 4.505a1 1 0 0 0 0 1.414l7.071 7.072a1 1 0 0 0 1.414 0l7.072-7.072a1 1 0 0 0 0-1.414l-7.072-7.07a1 1 0 0 0-1.414 0L8.273 6.211 5.591 3.53a.75.75 0 0 0-1.06 0H4.53Zm3.743 4.804.854.853a.75.75 0 1 0 1.06-1.06l-.853-.854 1.151-1.152 6.364 6.364-6.364 6.364-6.364-6.364 4.152-4.151Z"/>
    </g>
</svg>