<svg width="21" height="21" viewBox="0 0 21 21" fill="none" xmlns="http://www.w3.org/2000/svg">
<path fill-rule="evenodd" clip-rule="evenodd" d="M3 3.5C3 2.11929 4.11929 1 5.5 1C6.88071 1 8 2.11929 8 3.5V10.7578C8.28335 10.9474 8.54397 11.1684 8.77688 11.4158C8.49538 11.9371 8.28302 12.5012 8.15207 13.0958C7.91885 12.6562 7.57906 12.281 7.16561 12.0043L6.5 11.5587V3.5C6.5 2.94772 6.05228 2.5 5.5 2.5C4.94772 2.5 4.5 2.94772 4.5 3.5V11.5587L3.83439 12.0043C3.02662 12.545 2.5 13.4613 2.5 14.5C2.5 16.1569 3.84315 17.5 5.5 17.5C6.64969 17.5 7.64833 16.8533 8.15198 15.9038C8.28292 16.4986 8.49531 17.0628 8.77688 17.5842C7.9562 18.4558 6.79165 19 5.5 19C3.01472 19 1 16.9853 1 14.5C1 12.9398 1.79401 11.565 3 10.7578V3.5ZM15.9951 8.17278C15.9984 8.1156 16 8.05799 16 8C16 6.34315 14.6569 5 13 5C11.3431 5 10 6.34315 10 8C10 8.53376 10.1394 9.03496 10.3838 9.46918C10.7713 9.15174 11.1961 8.8782 11.6507 8.65613C11.5542 8.45794 11.5 8.2353 11.5 8C11.5 7.17157 12.1716 6.5 13 6.5C13.8284 6.5 14.5 7.17157 14.5 8C15.0145 8 15.5151 8.05978 15.9951 8.17278ZM17 8C17 7.58579 17.3358 7.25 17.75 7.25H19.25C19.6642 7.25 20 7.58579 20 8C20 8.41421 19.6642 8.75 19.25 8.75H17.75C17.3358 8.75 17 8.41421 17 8ZM15.8284 5.17144C15.5355 4.87855 15.5355 4.40368 15.8284 4.11078L16.8891 3.05012C17.182 2.75723 17.6569 2.75723 17.9498 3.05012C18.2426 3.34302 18.2426 3.81789 17.9498 4.11078L16.8891 5.17144C16.5962 5.46434 16.1213 5.46434 15.8284 5.17144ZM13 4C12.5858 4 12.25 3.66421 12.25 3.25V1.75C12.25 1.33579 12.5858 1 13 1C13.4142 1 13.75 1.33579 13.75 1.75V3.25C13.75 3.66421 13.4142 4 13 4Z" fill="white"/>
<path fill-rule="evenodd" clip-rule="evenodd" d="M14.5 20C17.5376 20 20 17.5376 20 14.5C20 11.4624 17.5376 9 14.5 9C11.4624 9 9 11.4624 9 14.5C9 17.5376 11.4624 20 14.5 20ZM13 11.75C12.5858 11.75 12.25 12.0858 12.25 12.5C12.25 12.9142 12.5858 13.25 13 13.25H14.6893L11.9697 15.9697C11.6768 16.2626 11.6768 16.7374 11.9697 17.0303C12.2626 17.3232 12.7374 17.3232 13.0303 17.0303L15.75 14.3107V16C15.75 16.4142 16.0858 16.75 16.5 16.75C16.9142 16.75 17.25 16.4142 17.25 16V12.5C17.25 12.0858 16.9142 11.75 16.5 11.75H13Z" fill="white"/>
</svg>
