<svg xmlns="http://www.w3.org/2000/svg" width="40" height="40" viewBox="0 0 40 40"><g id="actionimage" fill="none" fill-rule="evenodd" stroke="none" stroke-width="1"><rect id="Rectangle" width="40" height="40" x="0" y="0" opacity=".4"/><path id="Shape" fill="#D8D8D8" d="M11,2 C12.1045695,2 13,2.8954305 13,4 L13.0020401,20.2904862 C15.8924807,21.1516879 18,23.8297252 18,27 C18,30.1706393 15.8919961,32.8489278 13.0010432,33.7098107 L13,36 C13,37.1045695 12.1045695,38 11,38 C9.8954305,38 9,37.1045695 9,36 L8.99895676,33.7098107 C6.1080039,32.8489278 4,30.1706393 4,27 C4,23.8297252 6.10751933,21.1516879 8.99795991,20.2904862 L9,4 C9,2.8954305 9.8954305,2 11,2 Z M11.2609549,23.008376 L11,23 L10.7059787,23.0106418 C10.6424022,23.01525 10.5785799,23.0214239 10.5152139,23.0290793 L10.7059787,23.0106418 L10.5686386,23.0229883 L10.3017242,23.0607394 L10.2115934,23.0776791 C10.130333,23.0939228 10.0499615,23.1126285 9.97055987,23.1337153 L10.1722246,23.0857558 L10.0439087,23.1149827 L9.8016172,23.1826134 L9.72823014,23.2064144 C9.64017638,23.2359213 9.553489,23.2684079 9.46828779,23.3037547 L9.6875269,23.2202998 L9.55779395,23.2678886 L9.43020576,23.319786 L9.25662718,23.3988946 L9.18185666,23.4361328 C7.88668087,24.0982025 7,25.4455535 7,27 C7,28.584332 7.92110298,29.9535289 9.25700876,30.6012905 L9.42999494,30.6801239 C9.51434597,30.7161559 9.60018696,30.7493726 9.68739982,30.779656 L9.46846284,30.6963179 L9.59731707,30.7471533 L9.80168457,30.8174078 L9.917461,30.8517884 C9.99906459,30.8746759 10.0817234,30.8950398 10.1653478,30.9127908 L9.97014357,30.8661742 L10.090124,30.8960595 L10.2980613,30.9386139 L10.4322989,30.9600235 L10.5687803,30.9770269 L10.7400483,30.9916885 L11,31 L11.2940213,30.9893582 C11.3576196,30.9847481 11.4214458,30.9785735 11.4848156,30.9709171 L11.2940213,30.9893582 L11.4313614,30.9770117 L11.6375861,30.9494628 L11.7884539,30.9223115 C11.8697189,30.9060658 11.950095,30.8873578 12.0295011,30.8662686 L11.8348105,30.9127572 L11.9595667,30.8841633 L12.0828059,30.8517135 L12.1983828,30.8173866 L12.271844,30.7935607 C12.3599024,30.7640504 12.4465943,30.7315599 12.5317997,30.696209 L12.3124731,30.7797002 L12.4432275,30.7317162 L12.5718022,30.6793557 L12.7337523,30.6057556 L12.8300841,30.557738 C14.1187658,29.8935063 15,28.5496648 15,27 C15,25.4120817 14.0747223,24.0402736 12.7339131,23.3943218 L12.5719981,23.3207281 C12.4870309,23.2843781 12.4005501,23.2508853 12.3126765,23.2203705 L12.5315372,23.3036821 L12.4026829,23.2528467 L12.1983856,23.1826142 L12.0298564,23.1338258 L11.909876,23.1039405 L11.6984095,23.060763 L11.4312459,23.0229759 L11.2609549,23.008376 Z"/><path fill="#D8D8D8" d="M29,38 C30.1045695,38 31,37.1045695 31,36 L31.0020401,19.7095138 C33.8924807,18.8483121 36,16.1702748 36,13 C36,9.82936074 33.8919961,7.15107217 31.0010432,6.29018925 L31,4 C31,2.8954305 30.1045695,2 29,2 C27.8954305,2 27,2.8954305 27,4 L26.9989568,6.29018925 C24.1080039,7.15107217 22,9.82936074 22,13 C22,16.1702748 24.1075193,18.8483121 26.9979599,19.7095138 L27,36 C27,37.1045695 27.8954305,38 29,38 Z M29.2609549,16.991624 L29,17 L28.7059787,16.9893582 C28.6424022,16.98475 28.5785799,16.9785761 28.5152139,16.9709207 L28.7059787,16.9893582 L28.5686386,16.9770117 L28.3017242,16.9392606 L28.2115934,16.9223209 C28.130333,16.9060772 28.0499615,16.8873715 27.9705599,16.8662847 L28.1722246,16.9142442 L28.0439087,16.8850173 L27.8016172,16.8173866 L27.7282301,16.7935856 C27.6401764,16.7640787 27.553489,16.7315921 27.4682878,16.6962453 L27.6875269,16.7797002 L27.5577939,16.7321114 L27.4302058,16.680214 L27.2566272,16.6011054 L27.1818567,16.5638672 C25.8866809,15.9017975 25,14.5544465 25,13 C25,11.415668 25.921103,10.0464711 27.2570088,9.39870953 L27.4299949,9.3198761 C27.514346,9.28384409 27.600187,9.25062735 27.6873998,9.22034397 L27.4684628,9.30368212 L27.5973171,9.25284674 L27.8016846,9.18259223 L27.917461,9.14821162 C27.9990646,9.12532413 28.0817234,9.10496015 28.1653478,9.08720916 L27.9701436,9.13382585 L28.090124,9.10394046 L28.2980613,9.06138607 L28.4322989,9.03997653 L28.5687803,9.02297306 L28.7400483,9.00831152 L29,9 L29.2940213,9.01064176 C29.3576196,9.01525188 29.4214458,9.0214265 29.4848156,9.02908286 L29.2940213,9.01064176 L29.4313614,9.02298826 L29.6375861,9.05053722 L29.7884539,9.07768855 C29.8697189,9.09393416 29.950095,9.11264216 30.0295011,9.13373145 L29.8348105,9.08724276 L29.9595667,9.11583672 L30.0828059,9.14828648 L30.1983828,9.18261336 L30.271844,9.20643928 C30.3599024,9.23594959 30.4465943,9.26844011 30.5317997,9.30379105 L30.3124731,9.22029985 L30.4432275,9.26828378 L30.5718022,9.32064428 L30.7337523,9.39424437 L30.8300841,9.44226205 C32.1187658,10.1064937 33,11.4503352 33,13 C33,14.5879183 32.0747223,15.9597264 30.7339131,16.6056782 L30.5719981,16.6792719 C30.4870309,16.7156219 30.4005501,16.7491147 30.3126765,16.7796295 L30.5315372,16.6963179 L30.4026829,16.7471533 L30.1983856,16.8173858 L30.0298564,16.8661742 L29.909876,16.8960595 L29.6984095,16.939237 L29.4312459,16.9770241 L29.2609549,16.991624 Z"/></g></svg>