<svg xmlns="http://www.w3.org/2000/svg" width="20" height="20">
  <path fill="#D8D8D8" d="M10.627 16.823V20H9.373v-3.137a7.026 7.026 0 0 0 1.254-.04Zm5.455-4.035 2.892 1.67-.627 1.085-2.878-1.662c.236-.343.442-.709.613-1.093ZM4.214 14.064l-2.56 1.479-.628-1.086 2.54-1.466c.183.378.4.737.648 1.073ZM10 5c2.77 0 5.015 2.239 5.015 5S12.77 15 10 15c-2.77 0-5.015-2.239-5.015-5S7.23 5 10 5Zm8.347-.543.627 1.086-2.892 1.669a6.857 6.857 0 0 0-.613-1.093l2.878-1.662Zm-16.694 0 2.56 1.48a6.869 6.869 0 0 0-.647 1.07l-2.54-1.464.627-1.086ZM10.627 0v3.177a6.986 6.986 0 0 0-1.255-.04L9.373 0h1.254Z" fill-rule="evenodd"/>
</svg>