<svg xmlns="http://www.w3.org/2000/svg" width="20" height="20">
  <path fill="#D8D8D8" d="M10.78 16.201V20H9.22v-3.799a6.24 6.24 0 0 0 1.56 0Zm4.954-3.789 3.316 1.913-.78 1.35-3.309-1.911c.311-.414.572-.867.773-1.352ZM5.04 13.764l-3.31 1.91-.779-1.349 3.316-1.913c.201.485.462.938.773 1.352ZM10 6.25c2.06 0 3.728 1.679 3.728 3.75 0 2.071-1.669 3.75-3.728 3.75-2.06 0-3.728-1.679-3.728-3.75 0-2.071 1.669-3.75 3.728-3.75ZM1.73 4.325l3.309 1.911c-.311.414-.572.867-.773 1.352L.95 5.675l.78-1.35Zm16.54 0 .78 1.35-3.316 1.913a6.252 6.252 0 0 0-.773-1.352l3.31-1.91ZM10.78 0v3.799a6.24 6.24 0 0 0-1.56 0V0h1.56Z" fill-rule="evenodd"/>
</svg>