<svg xmlns="http://www.w3.org/2000/svg" width="20" height="20" viewBox="0 0 20 20"><g id="actionimage_brightness_stepper" fill="none" fill-rule="evenodd" stroke="none" stroke-width="1"><path id="Combined-Shape" fill="#D8D8D8" fill-rule="nonzero" d="M19,15 C19.5522847,15 20,15.4477152 20,16 L20,19 C20,19.5522847 19.5522847,20 19,20 L12,20 C11.4477152,20 11,19.5522847 11,19 L11,16 C11,15.4477152 11.4477152,15 12,15 L19,15 Z M18,16 L17,16 L16.999,17 L16,17 L16,18 L16.999,18 L17,19 L18,19 L17.999,18 L19,18 L19,17 L17.999,17 L18,16 Z M15,17 L12,17 L12,18 L15,18 L15,17 Z M10.6236605,14.961014 L10.6231413,18 L9.3765572,18 L9.37611374,14.961014 C9.58043004,14.9867473 9.78860089,15 9.99984926,15 C10.2111237,15 10.4193199,14.9867441 10.6236605,14.961014 Z M14.5877492,11.9287177 L17.2396985,13.4602132 L16.6164065,14.5397868 L13.9687876,13.0112402 C14.217544,12.6800852 14.4262769,12.3168181 14.5877492,11.9287177 Z M5.41194934,11.9287177 C5.57342163,12.3168181 5.78215449,12.6800852 6.03091095,13.0112402 L3.38329207,14.5397868 L2.76,13.4602132 L5.41194934,11.9287177 Z M9.99984926,7 C11.6471737,7 12.982594,8.34314575 12.982594,10 C12.982594,11.6568543 11.6471737,13 9.99984926,13 C8.35252482,13 7.0171045,11.6568543 7.0171045,10 C7.0171045,8.34314575 8.35252482,7 9.99984926,7 Z M16.6164065,5.46021323 L17.2396985,6.53978677 L14.5877492,8.07128227 C14.4262769,7.68318194 14.217544,7.31991485 13.9687876,6.98875984 L16.6164065,5.46021323 Z M3.38329207,5.46021323 L6.03091095,6.98875984 C5.78236845,7.31963002 5.57378072,7.68255707 5.41236609,8.07028091 L2.76,6.53978677 L3.38329207,5.46021323 Z M10.6231413,2 L10.6236605,5.03898596 C10.4193199,5.01325593 10.2111237,5 9.99984926,5 C9.78860089,5 9.58043004,5.01325265 9.37611374,5.03898596 L9.3765572,2 L10.6231413,2 Z"/></g></svg>