<svg xmlns="http://www.w3.org/2000/svg" width="200" height="100" viewBox="0 0 200 100"><g id="scene_wide" fill="none" fill-rule="evenodd" stroke="none" stroke-width="1"><rect id="Rectangle" width="200" height="100" x="0" y="0" fill="#000" fill-rule="nonzero"/><g id="wheel" fill-rule="nonzero" transform="matrix(-1 0 0 1 146.528 3.472)"><path id="Path" fill="gray" stroke="#000" stroke-width="2.083" d="M46.5277778,46.5277778 L0,46.5277778 C0,20.8311957 20.8311957,0 46.5277778,0 L46.5277778,46.5277778 Z"/><path fill="#696969" stroke="#000" stroke-width="2.083" d="M46.5277778,46.5277778 L46.5277778,93.0555556 C20.8311957,93.0555556 0,72.2243599 0,46.5277778 L46.5277778,46.5277778 Z"/><path fill="#565656" stroke="#000" stroke-width="2.083" d="M46.5277778,46.5277778 L93.0555556,46.5277778 C93.0555556,72.2243599 72.2243599,93.0555556 46.5277778,93.0555556 L46.5277778,46.5277778 Z"/><path fill="#CACACA" stroke="#000" stroke-width="2.083" d="M46.5277778,46.5277778 L46.5277778,0 C72.2243599,0 93.0555556,20.8311957 93.0555556,46.5277778 L46.5277778,46.5277778 Z"/><circle id="Oval" cx="46.528" cy="46.528" r="30" fill="#000"/></g><g id="onOff" fill="#FFF" fill-rule="nonzero" transform="translate(87.5 36.806)"><path d="M13.5416668,1.04166667 C13.5416668,0.466368056 13.0752779,0 12.5000001,0 C11.9247223,0 11.4583335,0.466368056 11.4583335,1.04166667 L11.4583335,13.8888889 C11.4583335,14.4641667 11.9247223,14.9305556 12.5000001,14.9305556 C13.0752779,14.9305556 13.5416668,14.4641667 13.5416668,13.8888889 L13.5416668,1.04166667 Z"/><path d="M21.3388196,5.05006944 C20.932014,4.64326389 20.2725001,4.64326389 19.8656946,5.05006944 C19.458889,5.456875 19.458889,6.11638889 19.8656946,6.52319444 C21.3225001,7.98 22.3145835,9.83604167 22.7165279,11.8566667 C23.1184723,13.8773611 22.9121529,15.9718056 22.1237501,17.8751389 C21.3353473,19.7785417 20.0002085,21.4054167 18.2872223,22.55 C16.5741668,23.6946528 14.5602085,24.3055556 12.5,24.3055556 C10.4397918,24.3055556 8.42583345,23.6946528 6.71284734,22.55 C4.99979179,21.4054167 3.6646529,19.7785417 2.87625012,17.8752083 C2.08784734,15.9718056 1.88156262,13.8773611 2.28349317,11.8566667 C2.68542373,9.83604167 3.67750012,7.98 5.13430567,6.52319444 C5.54111123,6.11638889 5.54111123,5.456875 5.13430567,5.05006944 C4.72750012,4.64326389 4.06798623,4.64326389 3.66118067,5.05006944 C1.91301401,6.79819444 0.722507063,9.02548611 0.240187619,11.4502778 C-0.242124881,13.875 0.00541678541,16.3883333 0.951514008,18.6724306 C1.89760429,20.9565278 3.49979179,22.90875 5.55534734,24.2822917 C7.61097234,25.6557639 10.0277085,26.3888889 12.5,26.3888889 C14.9722918,26.3888889 17.3890279,25.6557639 19.4446529,24.2822917 C21.5002779,22.90875 23.1024307,20.9565278 24.0484723,18.6724306 C24.9945835,16.3883333 25.2421529,13.875 24.7597918,11.4502778 C24.2775001,9.02548611 23.087014,6.79819444 21.3388196,5.05006944 Z"/></g></g></svg>