<svg xmlns="http://www.w3.org/2000/svg" xmlns:xlink="http://www.w3.org/1999/xlink" viewBox="0 0 144 144">
<rect id="background" fill="#263838" fill-rule="nonzero" x="0" y="0" width="144" height="144"/>
<path id="icon" fill="#999" fill-rule="evenodd" d="M91,69l0,-14c0,-1.104 0.896,-2 2,-2l2,-0c1.104,-0 2,0.896 2,2l0,14l14,0c1.104,0 2,0.896 2,2l0,2c0,1.104 -0.896,2 -2,2l-14,0l-0,14c-0,1.104 -0.896,2 -2,2l-2,-0c-1.104,-0 -2,-0.896 -2,-2l0,-14l-14,0c-1.104,0 -2,-0.896 -2,-2l0,-2c0,-1.104 0.896,-2 2,-2l14,0Zm-50.118,-11.046l17.733,-12.585c0.61,-0.433 1.411,-0.489 2.076,-0.146c0.664,0.343 1.082,1.029 1.082,1.777l-0,50c-0,0.748 -0.418,1.434 -1.082,1.777c-0.665,0.343 -1.466,0.287 -2.076,-0.146l-17.733,-12.585c-0.529,-0.375 -0.843,-0.983 -0.843,-1.631l0,-24.83c0,-0.648 0.314,-1.256 0.843,-1.631Zm-10.655,7.173l5.682,-4.032l0,21.81l-5.682,-4.032l0,-13.746Z"/>
</svg>