<svg xmlns="http://www.w3.org/2000/svg" xmlns:xlink="http://www.w3.org/1999/xlink" viewBox="0 0 144 144">

<g id="mediaSource" fill="none" fill-rule="evenodd" stroke="none">
<rect id="background" fill="#263838" fill-rule="nonzero" x="0" y="0" width="144" height="144"/>
<path fill="#999" d="M112,48c0,-4.415 -3.585,-8 -8,-8l-64,0c-4.415,0 -8,3.585 -8,8l0,48c0,4.415 3.585,8 8,8l64,0c4.415,0 8,-3.585 8,-8l0,-48Zm-4,0c0,-2.208 -1.792,-4 -4,-4l-64,0c-2.208,0 -4,1.792 -4,4l0,48c0,2.208 1.792,4 4,4l64,0c2.208,0 4,-1.792 4,-4l0,-48Zm-62,43c0,-0.552 -0.448,-1 -1,-1l-2,0c-0.552,0 -1,0.448 -1,1l0,2c0,0.552 0.448,1 1,1l2,0c0.552,0 1,-0.448 1,-1l0,-2Zm56,0c0,-0.552 -0.448,-1 -1,-1l-2,0c-0.552,0 -1,0.448 -1,1l0,2c0,0.552 0.448,1 1,1l2,0c0.552,0 1,-0.448 1,-1l0,-2Zm-56,-8c0,-0.552 -0.448,-1 -1,-1l-2,0c-0.552,0 -1,0.448 -1,1l0,2c0,0.552 0.448,1 1,1l2,0c0.552,0 1,-0.448 1,-1l0,-2Zm56,0c0,-0.552 -0.448,-1 -1,-1l-2,0c-0.552,0 -1,0.448 -1,1l0,2c0,0.552 0.448,1 1,1l2,0c0.552,0 1,-0.448 1,-1l0,-2Zm-56,-8c0,-0.552 -0.448,-1 -1,-1l-2,0c-0.552,0 -1,0.448 -1,1l0,2c0,0.552 0.448,1 1,1l2,0c0.552,0 1,-0.448 1,-1l0,-2Zm56,0c0,-0.552 -0.448,-1 -1,-1l-2,0c-0.552,0 -1,0.448 -1,1l0,2c0,0.552 0.448,1 1,1l2,0c0.552,0 1,-0.448 1,-1l0,-2Zm-56,-8c0,-0.552 -0.448,-1 -1,-1l-2,0c-0.552,0 -1,0.448 -1,1l0,2c0,0.552 0.448,1 1,1l2,0c0.552,0 1,-0.448 1,-1l0,-2Zm56,0c0,-0.552 -0.448,-1 -1,-1l-2,0c-0.552,0 -1,0.448 -1,1l0,2c0,0.552 0.448,1 1,1l2,0c0.552,0 1,-0.448 1,-1l0,-2Zm-56,-8c0,-0.552 -0.448,-1 -1,-1l-2,0c-0.552,0 -1,0.448 -1,1l0,2c0,0.552 0.448,1 1,1l2,0c0.552,0 1,-0.448 1,-1l0,-2Zm56,0c0,-0.552 -0.448,-1 -1,-1l-2,0c-0.552,0 -1,0.448 -1,1l0,2c0,0.552 0.448,1 1,1l2,0c0.552,0 1,-0.448 1,-1l0,-2Zm-56,-8c0,-0.552 -0.448,-1 -1,-1l-2,0c-0.552,0 -1,0.448 -1,1l0,2c0,0.552 0.448,1 1,1l2,0c0.552,0 1,-0.448 1,-1l0,-2Zm56,0c0,-0.552 -0.448,-1 -1,-1l-2,0c-0.552,0 -1,0.448 -1,1l0,2c0,0.552 0.448,1 1,1l2,0c0.552,0 1,-0.448 1,-1l0,-2Z"/>
<path fill="#999" fill-rule="nonzero" id="play" d="M86,72l-24,14l0,-28l24,14Z"/></g></svg>