
<svg width="26px" height="31px" topOffset="32" viewBox="0 0 26 31" version="1.1" xmlns="http://www.w3.org/2000/svg" xmlns:xlink="http://www.w3.org/1999/xlink">
    <path d="M1,16.5 C1,14.1844071 1.22084806,12.0714286 1.66254417,10.1610644 C2.10424028,8.25070028 2.81095406,6.61531279 3.78268551,5.25490196 C4.75441696,3.89449113 6.04269729,2.8452381 7.6475265,2.10714286 C9.25235571,1.36904762 11.2031802,1 13.5,1 C15.7968198,1 17.7402827,1.36904762 19.3303887,2.10714286 C20.9204947,2.8452381 22.208775,3.89449113 23.1952297,5.25490196 C24.1816843,6.61531279 24.8957597,8.25070028 25.3374558,10.1610644 C25.7791519,12.0714286 26,14.1844071 26,16.5 C26,18.8445378 25.7791519,20.9719888 25.3374558,22.8823529 C24.8957597,24.7927171 24.1816843,26.4281046 23.1952297,27.7885154 C22.208775,29.1489262 20.9204947,30.190943 19.3303887,30.9145658 C17.7402827,31.6381886 15.7968198,32 13.5,32 C11.2031802,32 9.25235571,31.6381886 7.6475265,30.9145658 C6.04269729,30.190943 4.75441696,29.1489262 3.78268551,27.7885154 C2.81095406,26.4281046 2.10424028,24.7927171 1.66254417,22.8823529 C1.22084806,20.9719888 1,18.8445378 1,16.5 Z M18.1819788,16.5 C18.1819788,15.3132586 18.1378092,14.1771709 18.04947,13.0917367 C17.9611307,12.0063025 17.7623675,11.0438842 17.4531802,10.2044818 C17.1439929,9.36507937 16.680212,8.69934641 16.0618375,8.20728291 C15.4434629,7.71521942 14.5895171,7.46918768 13.5,7.46918768 C12.4104829,7.46918768 11.5565371,7.71521942 10.9381625,8.20728291 C10.319788,8.69934641 9.85600707,9.36507937 9.54681979,10.2044818 C9.23763251,11.0438842 9.03886926,12.0063025 8.95053004,13.0917367 C8.86219081,14.1771709 8.8180212,15.3132586 8.8180212,16.5 C8.8180212,17.7446312 8.86219081,18.9096639 8.95053004,19.995098 C9.03886926,21.0805322 9.23763251,22.0357143 9.54681979,22.8606443 C9.85600707,23.6855742 10.319788,24.3368347 10.9381625,24.8144258 C11.5565371,25.2920168 12.4104829,25.5308123 13.5,25.5308123 C14.5895171,25.5308123 15.4434629,25.2920168 16.0618375,24.8144258 C16.680212,24.3368347 17.1439929,23.6855742 17.4531802,22.8606443 C17.7623675,22.0357143 17.9611307,21.0805322 18.04947,19.995098 C18.1378092,18.9096639 18.1819788,17.7446312 18.1819788,16.5 Z" id="0"></path>
    <polygon id="1" points="10.379562 7.46571429 6 7.46571429 6 1 18 1 18 32 10.379562 32"></polygon>
    <path d="M2.08695652,26.4314003 L10.0434783,18.8019802 C11.4927536,17.4281 12.6304348,16.2953795 13.4565217,15.403819 C14.2826087,14.5122584 14.8768116,13.7010844 15.2391304,12.970297 C15.6014493,12.2395097 15.7826087,11.4648751 15.7826087,10.6463932 C15.7826087,9.6525224 15.5217391,8.88519566 15,8.34441301 C14.4782609,7.80363036 13.6956522,7.53323904 12.6521739,7.53323904 C12.0144928,7.53323904 11.4492754,7.70132013 10.9565217,8.03748232 C10.4637681,8.37364451 10.0724638,8.87057992 9.7826087,9.52828854 C9.49275362,10.1859972 9.33333333,11.0117869 9.30434783,12.0056577 L2,12.0056577 C2.05797101,9.43328619 2.5942029,7.34323432 3.60869565,5.73550212 C4.62318841,4.12776992 5.95652174,2.93658652 7.60869565,2.16195191 C9.26086957,1.3873173 11.0724638,1 13.0434783,1 C15.4782609,1 17.4637681,1.42385667 19,2.27157001 C20.5362319,3.11928336 21.6666667,4.2446959 22.3913043,5.64780764 C23.115942,7.05091938 23.4782609,8.58557284 23.4782609,10.251768 C23.4782609,11.5671853 23.2826087,12.7729844 22.8913043,13.8691655 C22.5,14.9653465 21.826087,16.1053748 20.8695652,17.2892504 C19.9130435,18.4731259 18.5652174,19.8689298 16.826087,21.476662 L12.3478261,25.5983027 L24,25.5983027 L24,32 L2.08695652,32 L2.08695652,26.4314003 Z" id="2"></path>
    <path d="M2.34577603,10.5084034 C2.43222004,8.39542484 2.92206942,6.63702148 3.81532417,5.23319328 C4.70857891,3.82936508 5.94760969,2.77287582 7.5324165,2.06372549 C9.11722331,1.35457516 10.9901768,1 13.151277,1 C15.3700065,1 17.2429601,1.37628385 18.7701375,2.12885154 C20.297315,2.88141923 21.4571054,3.89449113 22.2495088,5.16806723 C23.0419122,6.44164332 23.4381139,7.88888889 23.4381139,9.50980392 C23.4381139,10.8412698 23.1931893,11.9411765 22.7033399,12.8095238 C22.2134905,13.6778711 21.6011788,14.3580766 20.8664047,14.8501401 C20.1316306,15.3422035 19.4184676,15.7040149 18.7269155,15.9355742 L18.7269155,16.1092437 C19.7642436,16.4565826 20.6791094,16.9197012 21.4715128,17.4985994 C22.2639162,18.0774977 22.8834316,18.8155929 23.3300589,19.7128852 C23.7766863,20.6101774 24,21.7245565 24,23.0560224 C24,24.821662 23.589391,26.377451 22.7681729,27.7233894 C21.9469548,29.0693277 20.7583497,30.1185808 19.2023576,30.8711485 C17.6463654,31.6237162 15.7734119,32 13.5834971,32 C11.3647675,32 9.39096267,31.681606 7.66208251,31.0448179 C5.93320236,30.4080299 4.57170923,29.3515406 3.57760314,27.8753501 C2.58349705,26.3991597 2.05762934,24.4164332 2,21.9271709 L9.39096267,21.9271709 C9.39096267,23.2586368 9.7151277,24.1921102 10.3634578,24.727591 C11.0117878,25.2630719 11.9842829,25.5308123 13.280943,25.5308123 C14.0013098,25.5308123 14.6064178,25.4077965 15.0962672,25.1617647 C15.5861166,24.915733 15.9607073,24.5611578 16.2200393,24.0980392 C16.4793713,23.6349206 16.6090373,23.0704949 16.6090373,22.4047619 C16.6090373,21.1601307 16.1912246,20.3134921 15.3555992,19.8648459 C14.5199738,19.4161998 13.1800917,19.1918768 11.3359528,19.1918768 L9.95284872,19.1918768 L9.95284872,13.547619 L11.3359528,13.547619 C12.1139489,13.547619 12.8559267,13.482493 13.5618861,13.3522409 C14.2678454,13.2219888 14.8513425,12.9470121 15.3123772,12.5273109 C15.7734119,12.1076097 16.0039293,11.4635854 16.0039293,10.5952381 C16.0039293,9.55322129 15.7373936,8.77170868 15.2043222,8.25070028 C14.6712508,7.72969188 13.9292731,7.46918768 12.978389,7.46918768 C12.2003929,7.46918768 11.5880812,7.606676 11.1414538,7.88165266 C10.6948265,8.15662932 10.3634578,8.52567694 10.1473477,8.98879552 C9.93123772,9.4519141 9.80877538,9.95845005 9.77996071,10.5084034 L2.34577603,10.5084034 Z" id="3"></path>
    <path d="M14.6497462,26.0657143 L0,26.0657143 L0,19.9985714 L13.8138748,1 L22.3045685,1 L22.3045685,19.6 L26,19.6 L26,26.0657143 L22.3045685,26.0657143 L22.3045685,32 L14.6497462,32 L14.6497462,26.0657143 Z M15.2216582,19.6 L15.2216582,9.63571429 L8.05076142,19.6 L15.2216582,19.6 Z" id="4"></path>
    <path d="M22.0613027,1 L22.0613027,7.40169731 L9.62835249,7.40169731 L9.62835249,12.970297 C10.1902937,12.3272041 10.857599,11.8302687 11.6302682,11.4794908 C12.4029374,11.1287129 13.3933589,10.9533239 14.6015326,10.9533239 C16.2311622,10.9533239 17.6360153,11.2456388 18.816092,11.8302687 C19.9961686,12.4148986 20.9725415,13.1895332 21.7452107,14.1541726 C22.5178799,15.1188119 23.0868455,16.2076851 23.4521073,17.4207921 C23.8173691,18.6338991 24,19.854314 24,21.0820368 C24,23.3620934 23.5574713,25.3206035 22.6724138,26.9575672 C21.7873563,28.5945309 20.5440613,29.8441773 18.9425287,30.7065064 C17.3409962,31.5688355 15.4303959,32 13.210728,32 C10.8786718,32 8.8908046,31.5834512 7.24712644,30.7503536 C5.60344828,29.917256 4.33908046,28.7845356 3.45402299,27.3521924 C2.56896552,25.9198491 2.08429119,24.2828854 2,22.4413013 L9.20689655,22.4413013 C9.34738186,23.2013201 9.71966794,23.8955681 10.3237548,24.5240453 C10.9278416,25.1525224 11.8058748,25.466761 12.9578544,25.466761 C13.8007663,25.466761 14.4821201,25.2986799 15.0019157,24.9625177 C15.5217114,24.6263555 15.908046,24.1221122 16.1609195,23.4497878 C16.4137931,22.7774635 16.5402299,21.9735974 16.5402299,21.0381895 C16.5402299,19.6935408 16.2241379,18.69967 15.591954,18.0565771 C14.9597701,17.4134842 14.0536398,17.0919378 12.8735632,17.0919378 C11.9744572,17.0919378 11.2298851,17.3477133 10.6398467,17.8592645 C10.0498084,18.3708157 9.67049808,18.9481377 9.50191571,19.5912306 L2.29501916,19.5912306 L2.29501916,1 L22.0613027,1 Z" id="5"></path>
    <path d="M13.5425926,32 C11.3277778,32 9.35432099,31.5322961 7.62222222,30.5968883 C5.89012346,29.6614804 4.52006173,28.3679868 3.51203704,26.7164074 C2.50401235,25.0648279 2,23.1720886 2,21.0381895 C2,19.4889203 2.30524691,17.8958039 2.91574074,16.2588402 C3.52623457,14.6218765 4.4845679,12.8972183 5.79074074,11.0848656 L13.0740741,1 L21.2518519,1 L12.562963,12.7510608 L6.68518519,19.8981612 C7.08271605,17.1211693 8.07654321,14.9872702 9.66666667,13.4964639 C11.2567901,12.0056577 13.1734568,11.2602546 15.4166667,11.2602546 C17.1487654,11.2602546 18.7388889,11.6475719 20.187037,12.4222065 C21.6351852,13.1968411 22.7993827,14.3222537 23.6796296,15.7984441 C24.5598765,17.2746346 25,19.0796794 25,21.2135785 C25,23.4059406 24.4746914,25.3132956 23.4240741,26.9356436 C22.3734568,28.5579915 20.9820988,29.8076379 19.25,30.6845827 C17.5179012,31.5615276 15.6154321,32 13.5425926,32 Z M9.4962963,21.2574257 C9.4962963,22.1051391 9.6595679,22.8505422 9.98611111,23.4936351 C10.3126543,24.136728 10.7811728,24.6336634 11.3916667,24.9844413 C12.0021605,25.3352192 12.7191358,25.5106082 13.5425926,25.5106082 C14.3660494,25.5106082 15.0759259,25.3352192 15.6722222,24.9844413 C16.2685185,24.6336634 16.7228395,24.136728 17.0351852,23.4936351 C17.3475309,22.8505422 17.5037037,22.1051391 17.5037037,21.2574257 C17.5037037,20.4097124 17.3475309,19.6716172 17.0351852,19.04314 C16.7228395,18.4146629 16.2685185,17.9250354 15.6722222,17.5742574 C15.0759259,17.2234795 14.3660494,17.0480905 13.5425926,17.0480905 C12.7191358,17.0480905 12.0021605,17.2234795 11.3916667,17.5742574 C10.7811728,17.9250354 10.3126543,18.4146629 9.98611111,19.04314 C9.6595679,19.6716172 9.4962963,20.4097124 9.4962963,21.2574257 Z" id="6"></path>
    <polygon id="7" points="23 1 23 6.75714286 12.173913 32 4.34782609 32 15.2608696 7.46571429 2 7.46571429 2 1"></polygon>
    <path d="M6.67652495,15.3711485 C5.48613678,14.7633053 4.52957486,13.9311391 3.80683919,12.8746499 C3.08410351,11.8181606 2.72273567,10.5084034 2.72273567,8.94537815 C2.72273567,7.49813259 3.10536044,6.17390289 3.87060998,4.97268908 C4.63585952,3.77147526 5.8120764,2.80905696 7.39926063,2.08543417 C8.98644486,1.36181139 11.012939,1 13.4787431,1 C15.9162046,1 17.9356131,1.36904762 19.5369686,2.10714286 C21.1383241,2.8452381 22.3287123,3.81489262 23.1081331,5.01610644 C23.8875539,6.21732026 24.2772643,7.5270775 24.2772643,8.94537815 C24.2772643,10.4794585 23.9017252,11.7819795 23.150647,12.8529412 C22.3995687,13.9239029 21.4571781,14.7633053 20.323475,15.3711485 C21.797289,16.0658263 22.9451633,17.0354809 23.767098,18.280112 C24.5890327,19.5247432 25,21.0009337 25,22.7086835 C25,24.7058824 24.482748,26.3991597 23.448244,27.7885154 C22.41374,29.1778711 21.0249538,30.2271242 19.2818854,30.9362745 C17.538817,31.6454248 15.6044362,32 13.4787431,32 C11.3530499,32 9.42575478,31.6454248 7.69685767,30.9362745 C5.96796057,30.2271242 4.58626001,29.1778711 3.55175601,27.7885154 C2.517252,26.3991597 2,24.7058824 2,22.7086835 C2,21.0009337 2.4038817,19.5247432 3.2116451,18.280112 C4.0194085,17.0354809 5.17436845,16.0658263 6.67652495,15.3711485 Z M16.8798521,10.0742297 C16.8798521,8.97432306 16.5680838,8.17110177 15.9445471,7.66456583 C15.3210105,7.15802988 14.4990758,6.9047619 13.4787431,6.9047619 C12.4584104,6.9047619 11.6435613,7.15802988 11.0341959,7.66456583 C10.4248306,8.17110177 10.1201479,8.97432306 10.1201479,10.0742297 C10.1201479,11.1451914 10.4319162,11.9773576 11.0554529,12.5707283 C11.6789895,13.164099 12.4867529,13.4607843 13.4787431,13.4607843 C14.4707332,13.4607843 15.2855823,13.164099 15.9232902,12.5707283 C16.5609982,11.9773576 16.8798521,11.1451914 16.8798521,10.0742297 Z M13.4787431,18.4971989 C12.6568084,18.4971989 11.948244,18.6491597 11.3530499,18.9530812 C10.7578558,19.2570028 10.3043746,19.6911765 9.99260628,20.2556022 C9.68083795,20.820028 9.52495379,21.5074697 9.52495379,22.3179272 C9.52495379,23.4178338 9.84380776,24.3223623 10.4815157,25.0315126 C11.1192237,25.7406629 12.1182994,26.0952381 13.4787431,26.0952381 C14.8391867,26.0952381 15.8453481,25.7334267 16.4972274,25.0098039 C17.1491066,24.2861811 17.4750462,23.3888889 17.4750462,22.3179272 C17.4750462,21.5074697 17.319162,20.820028 17.0073937,20.2556022 C16.6956254,19.6911765 16.2421442,19.2570028 15.6469501,18.9530812 C15.051756,18.6491597 14.3290203,18.4971989 13.4787431,18.4971989 Z" id="8"></path>
    <path d="M13.4574074,1 C15.6722222,1 17.645679,1.46770391 19.3777778,2.40311174 C21.1098765,3.33851957 22.4799383,4.62470533 23.487963,6.26166902 C24.4959877,7.89863272 25,9.79867987 25,11.9618105 C25,13.5110797 24.6947531,15.1041961 24.0842593,16.7411598 C23.4737654,18.3781235 22.5154321,20.1027817 21.2092593,21.9151344 L13.9259259,32 L5.74814815,32 L14.437037,20.2489392 L20.3148148,13.1018388 C19.917284,15.8788307 18.9234568,18.0127298 17.3333333,19.5035361 C15.7432099,20.9943423 13.8265432,21.7397454 11.5833333,21.7397454 C9.85123457,21.7397454 8.26111111,21.3524281 6.81296296,20.5777935 C5.36481481,19.8031589 4.20061728,18.6704385 3.32037037,17.1796322 C2.44012346,15.688826 2,13.8910891 2,11.7864215 C2,9.59405941 2.52530864,7.68670438 3.57592593,6.06435644 C4.62654321,4.44200849 6.01790123,3.19236209 7.75,2.31541726 C9.48209877,1.43847242 11.3845679,1 13.4574074,1 Z M17.5037037,11.7425743 C17.5037037,10.8656294 17.3404321,10.1129184 17.0138889,9.4844413 C16.6873457,8.85596417 16.2188272,8.36633663 15.6083333,8.0155587 C14.9978395,7.66478076 14.2808642,7.4893918 13.4574074,7.4893918 C12.6339506,7.4893918 11.9240741,7.66478076 11.3277778,8.0155587 C10.7314815,8.36633663 10.2771605,8.85596417 9.96481481,9.4844413 C9.65246914,10.1129184 9.4962963,10.8656294 9.4962963,11.7425743 C9.4962963,12.5902876 9.65246914,13.3283828 9.96481481,13.95686 C10.2771605,14.5853371 10.7314815,15.0749646 11.3277778,15.4257426 C11.9240741,15.7765205 12.6339506,15.9519095 13.4574074,15.9519095 C14.2808642,15.9519095 14.9978395,15.7765205 15.6083333,15.4257426 C16.2188272,15.0749646 16.6873457,14.5853371 17.0138889,13.95686 C17.3404321,13.3283828 17.5037037,12.5902876 17.5037037,11.7425743 Z" id="9"></path>
    <path d="M12.5,29 C11.1442308,29 10.0552885,28.5994398 9.23317308,27.7983193 C8.41105769,26.9971989 8,26.0285714 8,24.892437 C8,23.7271709 8.41105769,22.7439776 9.23317308,21.9428571 C10.0552885,21.1417367 11.1442308,20.7411765 12.5,20.7411765 C13.8557692,20.7411765 14.9447115,21.1417367 15.7668269,21.9428571 C16.5889423,22.7439776 17,23.7271709 17,24.892437 C17,26.0285714 16.5889423,26.9971989 15.7668269,27.7983193 C14.9447115,28.5994398 13.8557692,29 12.5,29 Z M12.5,11.2588235 C11.1442308,11.2588235 10.0552885,10.8582633 9.23317308,10.0571429 C8.41105769,9.25602241 8,8.28739496 8,7.1512605 C8,5.9859944 8.41105769,5.00280112 9.23317308,4.20168067 C10.0552885,3.40056022 11.1442308,3 12.5,3 C13.8557692,3 14.9447115,3.40056022 15.7668269,4.20168067 C16.5889423,5.00280112 17,5.9859944 17,7.1512605 C17,8.28739496 16.5889423,9.25602241 15.7668269,10.0571429 C14.9447115,10.8582633 13.8557692,11.2588235 12.5,11.2588235 Z" id="10"></path>
</svg>