<svg xmlns="http://www.w3.org/2000/svg" width="20" height="50" translatex="[0, 0, 22, 44, 56, 78, 98, 110, 132, 156]" viewBox="0 0 20 50">
    <g id="aldrich" fill="none" fill-rule="evenodd" stroke="none" stroke-width="1">
        <path id="0" fill-rule="nonzero" d="M20,33.4260809 C20,33.914226 19.9053535,34.3762204 19.7160604,34.8120642 C19.5267673,35.2479079 19.2664892,35.6285448 18.9352263,35.9539749 C18.6039634,36.2794049 18.216504,36.5350999 17.7728483,36.72106 C17.3291925,36.90702 16.8589175,37 16.3620231,37 L3.63797693,37 C3.14108252,37 2.67080745,36.90702 2.22715173,36.72106 C1.78349601,36.5350999 1.39603667,36.2794049 1.06477374,35.9539749 C0.733510795,35.6285448 0.473232772,35.2479079 0.283939663,34.8120642 C0.0946465545,34.3762204 0,33.914226 0,33.4260809 L0,15.5739191 C0,15.0857741 0.0946465545,14.6237796 0.283939663,14.1879358 C0.473232772,13.7520921 0.733510795,13.3743608 1.06477374,13.054742 C1.39603667,12.7351232 1.78349601,12.4794282 2.22715173,12.2876569 C2.67080745,12.0958856 3.14108252,12 3.63797693,12 L16.3620231,12 C16.8589175,12 17.3291925,12.0958856 17.7728483,12.2876569 C18.216504,12.4794282 18.6039634,12.7351232 18.9352263,13.054742 C19.2664892,13.3743608 19.5267673,13.7520921 19.7160604,14.1879358 C19.9053535,14.6237796 20,15.0857741 20,15.5739191 L20,33.4260809 Z M3.63797693,15.5739191 L3.63797693,33.4260809 L16.3620231,33.4260809 L16.3620231,15.5739191 L3.63797693,15.5739191 Z"/>
        <polygon id="1" fill-rule="nonzero" points="12.7 12 12.7 37 9.4 37 9.4 15.6 5.5 15.6 5.5 12"/>
        <path id="2" fill-rule="nonzero" d="M3.60703813,15.5739191 L3.60703813,18.7991632 L0,18.7991632 L0,15.5739191 C0,15.0857741 0.0938416418,14.6237796 0.281524926,14.1879358 C0.469208211,13.7520921 0.727272727,13.3743608 1.05571847,13.054742 C1.38416423,12.7351232 1.76832845,12.4794282 2.20821115,12.2876569 C2.64809385,12.0958856 3.1143695,12 3.60703813,12 L15.026393,12 C15.5190615,12 15.9853373,12.0958856 16.4252199,12.2876569 C16.8651026,12.4794282 17.2463343,12.7351232 17.568915,13.054742 C17.8914956,13.3743608 18.1495601,13.7520921 18.3431085,14.1879358 C18.5366569,14.6237796 18.6334311,15.0857741 18.6334311,15.5739191 L18.6334311,20.1415621 C18.6334311,20.6297071 18.5865103,21.0655509 18.4926686,21.4490935 C18.398827,21.832636 18.2492668,22.1784054 18.0439883,22.4864017 C17.8387096,22.7943979 17.5777126,23.0704323 17.2609971,23.3145049 C16.9442815,23.5585774 16.5571847,23.7910274 16.0997067,24.0118549 L3.60703813,29.8172943 L3.60703813,33.4260809 L15.483871,33.4260809 L15.483871,30.2182705 L19.0909091,30.2182705 L19.0909091,37 L0,37 L0,30.4274756 C0,29.9393305 0.0498533725,29.5034868 0.149560117,29.1199442 C0.249266862,28.7364017 0.398826979,28.3935379 0.598240469,28.0913529 C0.797653959,27.7891679 1.05865103,27.5131334 1.38123167,27.2632496 C1.70381232,27.0133659 2.08211144,26.7838215 2.51612904,26.5746164 L15.026393,20.7517434 L15.026393,15.5739191 L3.60703813,15.5739191 Z"/>
        <path id="3" fill-rule="nonzero" d="M0,29.4337518 L3.57969724,29.4337518 L3.57969724,30.7587169 C3.57969724,31.7001395 3.79341051,32.3916783 4.22083705,32.8333333 C4.64826358,33.2749884 5.34876818,33.4958159 6.32235085,33.4958159 L13.6776492,33.4958159 C14.6512318,33.4958159 15.3517365,33.2749884 15.779163,32.8333333 C16.2065895,32.3916783 16.4203027,31.7001395 16.4203027,30.7587169 L16.4203027,28.8235704 C16.4203027,27.8705254 16.2065895,27.1789865 15.779163,26.748954 C15.3517365,26.3189214 14.6512318,26.1039052 13.6776492,26.1039052 L6.12644702,26.1039052 L6.12644702,22.6171548 L13.5707925,22.6171548 C14.4612645,22.5822873 15.099436,22.3469317 15.4853072,21.9110879 C15.8711784,21.4752441 16.064114,20.8040446 16.064114,19.8974895 L16.064114,18.2587169 C16.064114,17.3056718 15.8474325,16.6083217 15.4140695,16.1666667 C14.9807065,15.7250116 14.2831701,15.5041841 13.3214604,15.5041841 L6.67853963,15.5041841 C5.71682992,15.5041841 5.0222618,15.7250116 4.59483526,16.1666667 C4.16740873,16.6083217 3.95369545,17.3056718 3.95369545,18.2587169 L3.95369545,19.583682 L0.373998219,19.583682 L0.373998219,18.0843794 C0.373998219,14.0281265 2.43989315,12 6.57168299,12 L13.428317,12 C15.5298308,12 17.0881567,12.4997675 18.1032947,13.4993027 C19.1184327,14.4988377 19.6260018,16.0271967 19.6260018,18.0843794 L19.6260018,18.5376569 C19.6260018,19.9439795 19.3737014,21.103324 18.8691006,22.0156904 C18.3644998,22.9280567 17.6313446,23.6050674 16.6696349,24.0467224 C17.7500742,24.36053 18.5752449,24.9881451 19.1451469,25.9295677 C19.715049,26.8709903 20,28.1204091 20,29.6778243 L20,30.9330544 C20,34.9776848 17.9341051,37 13.8023152,37 L6.21549421,37 C2.0718314,37 0,34.9776848 0,30.9330544 L0,29.4337518 Z"/>
        <path id="4" fill-rule="nonzero" d="M0,28.3877266 L12.392638,12 L16.6170026,12 L16.6170026,28.3877266 L20,28.3877266 L20,31.8221757 L16.6170026,31.8221757 L16.6170026,37 L13.0236635,37 L13.0236635,31.8221757 L0,31.8221757 L0,28.3877266 Z M13.0236635,28.3877266 L13.0236635,16.3235704 L3.90885188,28.3877266 L13.0236635,28.3877266 Z"/>
        <path id="5" fill-rule="nonzero" d="M20,30.9330544 C19.9647118,32.9669921 19.4471517,34.4866341 18.4473198,35.4919804 C17.4474878,36.4973268 15.9183331,37 13.8598555,37 L7.06687952,37 C2.96168711,37 0.909090909,34.9776848 0.909090909,30.9330544 L0.909090909,29.4337518 L4.45555369,29.4337518 L4.45555369,30.7587169 C4.45555369,31.7001395 4.66728281,32.3916783 5.09074105,32.8333333 C5.51419929,33.2749884 6.2082003,33.4958159 7.17274407,33.4958159 L13.7363468,33.4958159 C14.7008906,33.4958159 15.3948916,33.2749884 15.8183498,32.8333333 C16.2418081,32.3916783 16.4535372,31.7001395 16.4535372,30.7587169 L16.4535372,27.3940028 C16.4535372,26.4525802 16.2418081,25.763947 15.8183498,25.3281032 C15.3948916,24.8922594 14.7008906,24.6743375 13.7363468,24.6743375 L1.63249874,24.6743375 L1.63249874,12 L19.3471685,12 L19.3471685,15.5739191 L5.24953789,15.5739191 L5.24953789,21.1875871 L13.8598555,21.1875871 C15.9300958,21.1875871 17.4710133,21.6844491 18.482608,22.6781729 C19.4942026,23.6718968 20,25.1973501 20,27.2545328 L20,30.9330544 Z"/>
        <path id="6" fill-rule="nonzero" d="M0.909090909,15.5739191 C0.909090909,15.0857741 1.00014226,14.6237796 1.18224498,14.1879358 C1.3643477,13.7520921 1.61473894,13.3743608 1.93341869,13.054742 C2.25209845,12.7351232 2.62483995,12.4794282 3.05164319,12.2876569 C3.47844644,12.0958856 3.93085787,12 4.40887751,12 L15.5911225,12 C16.0691421,12 16.5215535,12.0958856 16.9483568,12.2876569 C17.3751601,12.4794282 17.7479015,12.7351232 18.0665813,13.054742 C18.3852611,13.3743608 18.6356523,13.7520921 18.817755,14.1879358 C18.9998577,14.6237796 19.0909091,15.0857741 19.0909091,15.5739191 L19.0909091,18.7991632 L15.5911225,18.7991632 L15.5911225,15.5739191 L4.40887751,15.5739191 L4.40887751,22.7217573 L15.5911225,22.7217573 C16.0691421,22.7217573 16.5215535,22.8147373 16.9483568,23.0006973 C17.3751601,23.1866574 17.7479015,23.4423524 18.0665813,23.7677824 C18.3852611,24.0932125 18.6356523,24.4738494 18.817755,24.9096931 C18.9998577,25.345537 19.0909091,25.8075313 19.0909091,26.2956764 L19.0909091,33.4260809 C19.0909091,33.914226 18.9998577,34.3762204 18.817755,34.8120642 C18.6356523,35.2479079 18.3852611,35.6285448 18.0665813,35.9539749 C17.7479015,36.2794049 17.3751601,36.5350999 16.9483568,36.72106 C16.5215535,36.90702 16.0691421,37 15.5911225,37 L4.40887751,37 C3.93085787,37 3.47844644,36.90702 3.05164319,36.72106 C2.62483995,36.5350999 2.25209845,36.2794049 1.93341869,35.9539749 C1.61473894,35.6285448 1.3643477,35.2479079 1.18224498,34.8120642 C1.00014226,34.3762204 0.909090909,33.914226 0.909090909,33.4260809 L0.909090909,15.5739191 Z M4.40887751,26.2956764 L4.40887751,33.4260809 L15.5911225,33.4260809 L15.5911225,26.2956764 L4.40887751,26.2956764 Z"/>
        <polygon id="7" fill-rule="nonzero" points="2.7 37 13.8 15.6 0 15.6 0 12 19.1 12 19.1 13.1 6.8 37"/>
        <path id="8" fill-rule="nonzero" d="M13.5707925,22.6171548 C14.4612645,22.5822873 15.0964678,22.3469317 15.4764025,21.9110879 C15.8563372,21.4752441 16.0463045,20.8040446 16.0463045,19.8974895 L16.0463045,18.2587169 C16.0463045,17.3056718 15.8325913,16.6083217 15.4051647,16.1666667 C14.9777382,15.7250116 14.2831701,15.5041841 13.3214604,15.5041841 L6.67853963,15.5041841 C5.71682992,15.5041841 5.0222618,15.7250116 4.59483526,16.1666667 C4.16740873,16.6083217 3.95369545,17.3056718 3.95369545,18.2587169 L3.95369545,19.8974895 C3.95369545,20.8040446 4.14663105,21.4752441 4.53250223,21.9110879 C4.91837341,22.3469317 5.55060849,22.5822873 6.42920748,22.6171548 L13.5707925,22.6171548 Z M13.6776492,33.4958159 C14.6512318,33.4958159 15.3517365,33.2749884 15.779163,32.8333333 C16.2065895,32.3916783 16.4203027,31.7001395 16.4203027,30.7587169 L16.4203027,28.8235704 C16.4203027,27.8705254 16.2065895,27.1789865 15.779163,26.748954 C15.3517365,26.3189214 14.6512318,26.1039052 13.6776492,26.1039052 L6.32235085,26.1039052 C5.34876818,26.1039052 4.64826358,26.3189214 4.22083705,26.748954 C3.79341051,27.1789865 3.57969724,27.8705254 3.57969724,28.8235704 L3.57969724,30.7587169 C3.57969724,31.7001395 3.79341051,32.3916783 4.22083705,32.8333333 C4.64826358,33.2749884 5.34876818,33.4958159 6.32235085,33.4958159 L13.6776492,33.4958159 Z M6.21549421,37 C2.0718314,37 0,34.9776848 0,30.9330544 L0,29.6778243 C0,28.1204091 0.284951024,26.8709903 0.854853072,25.9295677 C1.42475512,24.9881451 2.24992579,24.36053 3.33036509,24.0467224 C2.36865539,23.6050674 1.63550015,22.9280567 1.13089937,22.0156904 C0.626298605,21.103324 0.373998219,19.9439795 0.373998219,18.5376569 L0.373998219,18.0843794 C0.373998219,14.0281265 2.43989315,12 6.57168299,12 L13.428317,12 C17.5601068,12 19.6260018,14.0281265 19.6260018,18.0843794 L19.6260018,18.5376569 C19.6260018,19.9439795 19.3737014,21.103324 18.8691006,22.0156904 C18.3644998,22.9280567 17.6313446,23.6050674 16.6696349,24.0467224 C17.7500742,24.36053 18.5752449,24.9881451 19.1451469,25.9295677 C19.715049,26.8709903 20,28.1204091 20,29.6778243 L20,30.9330544 C20,34.9776848 17.9341051,37 13.8023152,37 L6.21549421,37 Z"/>
        <path id="9" fill-rule="nonzero" d="M19.0909091,33.4260809 C19.0909091,33.914226 18.9998577,34.3762204 18.817755,34.8120642 C18.6356523,35.2479079 18.3852611,35.6285448 18.0665813,35.9539749 C17.7479015,36.2794049 17.3751601,36.5350999 16.9483568,36.72106 C16.5215535,36.90702 16.0691421,37 15.5911225,37 L4.40887751,37 C3.93085787,37 3.47844644,36.90702 3.05164319,36.72106 C2.62483995,36.5350999 2.25209845,36.2794049 1.93341869,35.9539749 C1.61473894,35.6285448 1.3643477,35.2479079 1.18224498,34.8120642 C1.00014226,34.3762204 0.909090909,33.914226 0.909090909,33.4260809 L0.909090909,30.2182705 L4.40887751,30.2182705 L4.40887751,33.4260809 L15.5911225,33.4260809 L15.5911225,26.2956764 L4.40887751,26.2956764 C3.93085787,26.2956764 3.47844644,26.1997908 3.05164319,26.0080196 C2.62483995,25.8162482 2.25209845,25.5605532 1.93341869,25.2409345 C1.61473894,24.9213156 1.3643477,24.5435844 1.18224498,24.1077406 C1.00014226,23.6718968 0.909090909,23.2099024 0.909090909,22.7217573 L0.909090909,15.5739191 C0.909090909,15.0857741 1.00014226,14.6237796 1.18224498,14.1879358 C1.3643477,13.7520921 1.61473894,13.3743608 1.93341869,13.054742 C2.25209845,12.7351232 2.62483995,12.4794282 3.05164319,12.2876569 C3.47844644,12.0958856 3.93085787,12 4.40887751,12 L15.5911225,12 C16.0691421,12 16.5215535,12.0958856 16.9483568,12.2876569 C17.3751601,12.4794282 17.7479015,12.7351232 18.0665813,13.054742 C18.3852611,13.3743608 18.6356523,13.7520921 18.817755,14.1879358 C18.9998577,14.6237796 19.0909091,15.0857741 19.0909091,15.5739191 L19.0909091,33.4260809 Z M15.5911225,22.7217573 L15.5911225,15.5739191 L4.40887751,15.5739191 L4.40887751,22.7217573 L15.5911225,22.7217573 Z"/>
        <path id="10" fill-rule="nonzero" d="M3,29.843729 L8.45454545,29.843729 L8.45454545,34.8571429 L3,34.8571429 L3,29.843729 Z M3,17 L8.45454545,17 L8.45454545,22.0134138 L3,22.0134138 L3,17 Z"/>
    </g>
</svg>