<svg xmlns="http://www.w3.org/2000/svg"  translatex="[0, 0, 22, 44, 56, 78, 98, 110, 132, 156]" width="22" height="50">
  <path id="0" d="M9.99 10c3.276 0 5.76 1.282 7.452 3.846 1.692 2.564 2.537 6.181 2.537 10.85 0 4.697-.845 8.334-2.537 10.911-1.692 2.578-4.176 3.867-7.452 3.867-3.277 0-5.761-1.29-7.453-3.867C.846 33.03 0 29.393 0 24.697c0-4.67.846-8.287 2.537-10.85C4.23 11.281 6.713 10 9.99 10Zm0 4.656c-1.332 0-2.311.776-2.937 2.328-.626 1.552-.94 4.123-.94 7.712 0 3.698.314 6.316.94 7.855.626 1.538 1.605 2.307 2.937 2.307 1.358 0 2.337-.769 2.937-2.307.599-1.539.899-4.157.899-7.855 0-3.643-.313-6.228-.94-7.753-.625-1.525-1.591-2.287-2.896-2.287Zm-.04 7.53c.746 0 1.372.257 1.878.77.506.512.759 1.133.759 1.862 0 .756-.253 1.39-.76 1.903-.505.512-1.131.769-1.877.769s-1.366-.257-1.858-.77c-.493-.512-.74-1.146-.74-1.902 0-.729.247-1.35.74-1.863.492-.512 1.112-.769 1.858-.769Z"/>
  <path id="1" d="M20.7 34.2v4.9h-18v-4.9h6.7V17.3l-5.7 3.6L1 16.5l9-5.5h5.5v23.2z"/>
  <path id="2" d="M10.43 10c2.025 0 3.756.364 5.195 1.093 1.438.729 2.524 1.707 3.256 2.935a7.72 7.72 0 0 1 1.1 4.029c0 1.538-.347 3.023-1.04 4.453-.692 1.43-1.831 3.03-3.416 4.798-1.585 1.768-3.83 3.96-6.733 6.579H20.62l-.68 4.898H1.56v-4.534c3.276-3.212 5.727-5.715 7.352-7.51s2.804-3.32 3.536-4.575c.733-1.255 1.099-2.436 1.099-3.543 0-1.16-.32-2.064-.959-2.712-.64-.648-1.558-.972-2.757-.972-1.04 0-1.945.223-2.717.668-.773.446-1.532 1.168-2.278 2.166L1 14.818c1.092-1.539 2.404-2.726 3.936-3.563C6.468 10.418 8.299 10 10.43 10Z"/>
  <path id="3" d="M10.15 10c1.917 0 3.59.324 5.014.972 1.425.647 2.518 1.518 3.277 2.611a6.212 6.212 0 0 1 1.139 3.623c0 1.728-.5 3.145-1.499 4.251-.999 1.107-2.39 1.93-4.175 2.47 4.368.594 6.553 2.915 6.553 6.964a7.721 7.721 0 0 1-1.299 4.352c-.866 1.309-2.111 2.341-3.736 3.097-1.625.756-3.516 1.134-5.674 1.134-2.025 0-3.863-.365-5.514-1.093A11.904 11.904 0 0 1 0 35.263l3.556-3.36c1.519 1.781 3.437 2.672 5.754 2.672 1.412 0 2.544-.364 3.397-1.093.852-.729 1.279-1.741 1.279-3.037 0-2.807-1.559-4.21-4.676-4.21H6.793l.72-4.373H9.27c1.28 0 2.298-.317 3.057-.951.76-.634 1.14-1.545 1.14-2.733 0-1.052-.374-1.882-1.12-2.49-.746-.607-1.718-.91-2.917-.91-1.998 0-3.836.809-5.514 2.428l-3.237-3.4C3.263 11.269 6.42 10 10.15 10Z"/>
  <path id="4" d="M20.3 32.9h-2.8v5.9h-6v-5.9H0v-4.2L7.7 10l5.3 2-6.5 16.1h5l.7-6.8h5.3v6.8h2.8z"/>
  <path id="5" d="M18.301 15.575H8.191v6.073a9.382 9.382 0 0 1 4.076-.931c1.439 0 2.75.37 3.936 1.113 1.186.742 2.125 1.802 2.817 3.178.693 1.377 1.04 2.983 1.04 4.818 0 1.89-.454 3.59-1.36 5.101-.905 1.512-2.184 2.692-3.835 3.543-1.652.85-3.543 1.275-5.675 1.275-1.944 0-3.696-.371-5.254-1.113A11.133 11.133 0 0 1 0 35.534l3.636-3.36c.666.864 1.432 1.525 2.298 1.984a5.843 5.843 0 0 0 2.777.688c1.465 0 2.637-.452 3.516-1.356.88-.904 1.319-2.085 1.319-3.543 0-3.212-1.252-4.817-3.756-4.817-1.146 0-2.264.31-3.357.93H2.158V11H19.02l-.719 4.575Z"/>
  <path id="6" d="M12.387 19.96c1.465 0 2.784.364 3.956 1.093 1.172.728 2.098 1.801 2.777 3.218.68 1.417 1.02 3.084 1.02 5 0 1.89-.407 3.61-1.22 5.162a9.283 9.283 0 0 1-3.436 3.684c-1.479.905-3.203 1.357-5.175 1.357-3.463 0-6.047-1.249-7.752-3.745C.852 33.232 0 30.027 0 26.113c0-3.158.486-5.951 1.458-8.38.973-2.43 2.365-4.325 4.176-5.688C7.446 10.682 9.577 10 12.028 10c2.264 0 4.262.607 5.993 1.822l-2.397 3.887c-1.066-.756-2.238-1.134-3.517-1.134-1.545 0-2.817.695-3.816 2.085-.999 1.39-1.565 3.34-1.698 5.85a8.11 8.11 0 0 1 2.737-1.903c1.026-.432 2.045-.647 3.057-.647ZM10.39 34.899c1.146 0 2.005-.486 2.578-1.458.572-.971.859-2.24.859-3.805 0-1.863-.26-3.206-.78-4.029-.519-.823-1.285-1.235-2.297-1.235-.746 0-1.479.19-2.198.567a6.756 6.756 0 0 0-1.958 1.58c.027 2.887.326 5.006.9 6.355.572 1.35 1.538 2.025 2.896 2.025Z"/>
  <path id="7" d="m2.8 37.8 10.3-22H1V11h18.5v4.3L8.8 39.7z"/>
  <path id="8" d="M19.46 17.45c0 1.295-.34 2.415-1.02 3.36-.678.944-1.764 1.849-3.256 2.712 3.57 1.836 5.355 4.386 5.355 7.652 0 1.485-.4 2.861-1.199 4.13-.8 1.268-1.978 2.28-3.536 3.036-1.559.756-3.443 1.134-5.655 1.134-2.157 0-4.002-.371-5.534-1.114-1.532-.742-2.684-1.727-3.456-2.955C.386 34.177 0 32.82 0 31.336c0-1.565.446-2.949 1.339-4.15.892-1.2 2.137-2.152 3.736-2.854-1.465-.945-2.498-1.896-3.097-2.854-.6-.958-.9-2.193-.9-3.705 0-1.565.4-2.935 1.2-4.109.799-1.174 1.898-2.078 3.296-2.713C6.973 10.317 8.551 10 10.31 10c1.785 0 3.37.304 4.755.91 1.386.608 2.465 1.472 3.237 2.592.773 1.12 1.159 2.436 1.159 3.947Zm-12.387.323c0 .972.32 1.782.959 2.43.639.647 1.665 1.241 3.076 1.78.88-.647 1.492-1.295 1.839-1.943.346-.647.52-1.39.52-2.226 0-1.053-.267-1.89-.8-2.51-.533-.621-1.319-.932-2.358-.932-1.039 0-1.838.29-2.397.87-.56.581-.84 1.425-.84 2.531Zm7.152 13.36c0-.917-.18-1.666-.54-2.246-.359-.58-.898-1.08-1.618-1.498-.719-.419-1.758-.87-3.116-1.357-1.758 1.134-2.638 2.767-2.638 4.9 0 1.214.34 2.179 1.02 2.894.679.715 1.671 1.073 2.976 1.073 1.306 0 2.285-.358 2.937-1.073.653-.715.98-1.613.98-2.692Z"/>
  <path id="9" d="M10.07 10c3.303 0 5.827 1.012 7.572 3.036 1.745 2.025 2.617 4.75 2.617 8.179 0 3.59-.6 6.626-1.798 9.109-1.199 2.483-3.03 4.507-5.494 6.073-2.465 1.565-5.655 2.766-9.57 3.603l-1.32-4.494c3.304-.837 5.875-1.95 7.713-3.34s3.063-3.178 3.676-5.364c-.852.755-1.731 1.329-2.637 1.72-.906.392-1.905.587-2.997.587a7.27 7.27 0 0 1-3.956-1.133c-1.199-.756-2.144-1.815-2.837-3.178C.346 23.435 0 21.876 0 20.12c0-1.997.44-3.758 1.319-5.283a9.366 9.366 0 0 1 3.596-3.563C6.433 10.425 8.152 10 10.07 10Zm-3.717 9.919c0 1.62.313 2.807.94 3.563.625.756 1.458 1.133 2.497 1.133 1.358 0 2.677-.54 3.956-1.619.026-2.024-.06-3.63-.26-4.818-.2-1.187-.566-2.085-1.099-2.692-.533-.607-1.318-.911-2.357-.911-1.173 0-2.078.438-2.718 1.316-.639.877-.959 2.22-.959 4.028Z"/>
  <path id="10" d="M2 18.251c0-1.16.406-2.16 1.219-2.996C4.03 14.418 5.024 14 6.196 14s2.157.418 2.957 1.255c.799.837 1.198 1.835 1.198 2.996 0 1.16-.4 2.153-1.198 2.976-.8.823-1.785 1.235-2.957 1.235s-2.165-.412-2.977-1.235C2.406 20.404 2 19.412 2 18.25Zm0 13.968c0-1.134.406-2.112 1.219-2.936.812-.823 1.805-1.234 2.977-1.234s2.157.411 2.957 1.234c.799.824 1.198 1.802 1.198 2.936 0 1.187-.4 2.2-1.198 3.036-.8.837-1.785 1.255-2.957 1.255s-2.165-.418-2.977-1.255C2.406 34.418 2 33.406 2 32.22Z"/>

  <path id="11" d="M0 18.251c0-1.16.406-2.16 1.219-2.996C2.03 14.418 3.024 14 4.196 14s2.157.418 2.957 1.255c.799.837 1.198 1.835 1.198 2.996 0 1.16-.4 2.153-1.198 2.976-.8.823-1.785 1.235-2.957 1.235s-2.165-.412-2.977-1.235C.406 20.404 0 19.412 0 18.25Zm0 13.968c0-1.134.406-2.112 1.219-2.936.812-.823 1.805-1.234 2.977-1.234s2.157.411 2.957 1.234c.799.824 1.198 1.802 1.198 2.936 0 1.187-.4 2.2-1.198 3.036-.8.837-1.785 1.255-2.957 1.255s-2.165-.418-2.977-1.255C.406 34.418 0 33.406 0 32.22Z"/>
</svg>