
<svg width="29px" height="36px"  translatex="[0, 0, 22, 40, 56, 78, 94, 112, 134, 156]" viewBox="0 0 29 36" version="1.1" xmlns="http://www.w3.org/2000/svg" xmlns:xlink="http://www.w3.org/1999/xlink">
    <path d="M14.9163763,12 C15.6383251,12.0027785 16.3527517,12.1468189 17.0193763,12.424 C17.1194431,12.4648542 17.2184739,12.508201 17.3163763,12.554 C18.107043,12.9233333 18.8717096,13.4156667 19.6103763,14.031 C20.3483763,14.6463333 21.0337096,15.3493333 21.6663763,16.14 C22.299043,16.9313333 22.8527096,17.7576667 23.3273763,18.619 C23.6726297,19.2415615 23.9701503,19.8894208 24.2173763,20.557 C24.2959512,20.7702942 24.3686453,20.985709 24.4353763,21.203 C24.5579075,21.5990148 24.6547752,22.0025186 24.7253763,22.411 C24.7936735,22.8043583 24.8287971,23.2027598 24.8303763,23.602 C24.8303763,24.938 24.637043,26.2916667 24.2503763,27.663 C23.8637096,29.0336667 23.2837096,30.2903333 22.5103763,31.433 C21.7490935,32.5636774 20.7616434,33.524228 19.6103763,34.254 C18.6864539,34.835784 17.6405715,35.1961617 16.5543763,35.307 C16.2206682,35.3441096 15.8851412,35.3624718 15.5493763,35.3620089 C13.932043,35.3620089 12.4203763,35.0543333 11.0143763,34.439 C9.63236058,33.8406753 8.37877936,32.9812999 7.32237631,31.908 C6.2620134,30.8268785 5.4283608,29.5447807 4.87037631,28.137 C4.28698228,26.6781504 3.99154632,25.1201502 4.00018407,23.549 C4.00494606,22.8823669 4.09775236,22.2192726 4.27637631,21.577 C4.42504298,21.0243333 4.63504298,20.4566667 4.90637631,19.874 L4.97637631,19.726 C5.62637631,18.3726667 6.47004298,17.1246667 7.50737631,15.982 C8.54470965,14.8393333 9.71370965,13.89 11.0143763,13.134 C11.6094768,12.7833289 12.2438584,12.5040667 12.9043763,12.302 C13.5566902,12.1035916 14.2345582,12.001844 14.9163763,12 Z M13.5453763,15.5339874 C12.6354456,15.5328543 11.7423005,15.7789531 10.9613763,16.246 C10.1442929,16.7276487 9.42072348,17.352642 8.82537631,18.091 C8.21203568,18.8437733 7.70620454,19.678075 7.32237631,20.57 C7.10707669,21.0649972 6.93022038,21.5758412 6.79337631,22.098 C6.70051497,22.4537971 6.63070334,22.8152143 6.58437631,23.18 C6.54468164,23.5245799 6.52464918,23.8711414 6.52431846,24.218 C6.52120519,25.0470608 6.64842574,25.8714635 6.90137631,26.661 C7.25270965,27.7503333 7.80637631,28.717 8.56237631,29.561 C9.31837631,30.405 10.2237096,31.073 11.2783763,31.565 C12.3167606,32.0453038 13.4463024,32.2966541 14.5903763,32.302 C14.6287072,32.3025738 14.6670413,32.3030127 14.7053763,32.3030127 C14.8811265,32.3032795 15.0568537,32.2989447 15.2323763,32.29 C15.3983763,32.2813333 15.5543763,32.2683333 15.7003763,32.251 C15.7645363,32.2431766 15.8285471,32.2341751 15.8923763,32.224 C16.2342323,32.1691038 16.5698518,32.0806771 16.8943763,31.96 C17.2283763,31.8373333 17.5797096,31.6703333 17.9483763,31.459 L19.2403763,30.721 C19.2800418,30.4305764 19.3612034,30.1473531 19.4813763,29.88 C19.5533142,29.7216431 19.6403855,29.570608 19.7413763,29.429 C19.8779104,29.2381434 20.0142438,29.0471433 20.1503763,28.856 C20.2955648,28.6518005 20.4405649,28.4474671 20.5853763,28.243 C20.7608929,27.993419 20.9208627,27.7332593 21.0643763,27.464 C21.1867091,27.2359828 21.2998009,27.0031271 21.4033763,26.766 C21.5088136,26.5201224 21.5888947,26.2641308 21.6423763,26.002 C21.6963763,25.746 21.7333763,25.468 21.7533763,25.168 C21.7660686,24.9802681 21.7723912,24.7921605 21.7723912,24.604 C21.774312,23.4562096 21.587139,22.315941 21.2183763,21.229 C20.849043,20.139 20.313043,19.1723333 19.6103763,18.329 C18.9000584,17.4792543 18.0198858,16.7874468 17.0263763,16.298 C16.2767646,15.9285359 15.4688229,15.691702 14.6383763,15.598 C14.2756565,15.5547631 13.9106635,15.5333911 13.5453763,15.5339874 Z" id="0"></path>
    <path d="M7,24.0400894 L7,23.7230894 C7.06745088,23.6557561 7.14278422,23.5567561 7.22611755,23.4260894 C7.2301373,23.4197686 7.23413731,23.4134352 7.23811755,23.4070894 C7.28354645,23.3340628 7.32954786,23.2613939 7.37611755,23.1890894 C7.4262559,23.1117431 7.47692376,23.0347412 7.52811755,22.9580894 C7.57498771,22.8877773 7.62232208,22.8177758 7.67011755,22.7480894 C7.71545088,22.6820894 7.75878422,22.6197561 7.80011755,22.5610894 C7.80610714,22.5530816 7.81210715,22.5450816 7.81811755,22.5370894 C7.84628573,22.4971495 7.87529216,22.4578074 7.90511755,22.4190894 C7.93245088,22.3844227 7.95845088,22.3527561 7.98311755,22.3240894 C8.00621583,22.2975942 8.0302304,22.2719119 8.05511755,22.2470894 L17.7051175,12.1220894 C17.9344509,11.8927561 18.1287842,11.5814227 18.2881175,11.1880894 C18.3253761,11.0961956 18.3597265,11.0031493 18.3911175,10.9090894 C18.5671175,10.3817561 18.7164509,9.81042273 18.8391175,9.19508939 C18.9619444,8.58136458 19.0762886,7.96597255 19.1821175,7.34908939 C19.232095,7.05493484 19.2914587,6.76245228 19.3601175,6.47208939 C19.4226787,6.20805078 19.4953994,5.94652311 19.5781175,5.68808939 C19.6424863,5.48391208 19.7216974,5.28471439 19.8151175,5.09208939 C19.9197842,4.88075606 20.0377842,4.69208939 20.1691175,4.52608939 C20.1825749,4.50892218 20.1962426,4.4919209 20.2101175,4.47508939 C20.3118771,4.35005162 20.4347294,4.24378266 20.5731175,4.16108939 C20.7591782,4.05308837 20.9709994,3.99745507 21.1861175,4 C21.2979999,4 21.4098105,4.0057578 21.5211175,4.01708939 C21.6033119,4.02517317 21.6850721,4.03718692 21.7661175,4.05308939 C21.8583615,4.07239749 21.9424719,4.11951323 22.0071175,4.18808939 C22.0477842,4.23008939 22.0854509,4.28075606 22.1201175,4.34008939 C22.1455802,4.38362572 22.1682913,4.42871397 22.1881175,4.47508939 L22.1881175,4.84408939 C22.1882036,4.97820975 22.192873,5.11228799 22.2021175,5.24608939 C22.205552,5.29679912 22.2095523,5.34746894 22.2141175,5.39808939 C22.226696,5.53212568 22.2350335,5.66652616 22.2391175,5.80108939 C22.2404751,5.8514112 22.2411182,5.90174928 22.2411182,5.95208939 L22.2411182,6.26808939 C22.2404955,6.30845912 22.2388283,6.34880597 22.2361175,6.38908939 C22.2254509,6.58108939 22.1951175,6.94708939 22.1451175,7.48708939 C22.1332727,7.61677037 22.1212727,7.74643713 22.1091175,7.87608939 C22.0855297,8.12416197 22.0611962,8.37216309 22.0361175,8.62008939 C21.9621175,9.35542273 21.8711175,10.2070894 21.7631175,11.1750894 C21.7554717,11.244425 21.747805,11.3137584 21.7401175,11.3830894 C21.6612632,12.0828866 21.5812631,12.7825542 21.5001175,13.4820894 C21.4147842,14.2167561 21.3241175,14.9907561 21.2281175,15.8040894 C21.214137,15.9214251 21.200137,16.0387584 21.1861175,16.1560894 C20.9724229,17.9521392 20.735069,19.7452949 20.4741175,21.5350894 C20.2167192,23.3010757 19.961719,25.0674106 19.7091175,26.8340894 C19.6003644,27.6006482 19.4813538,28.3657168 19.3521175,29.1290894 C19.2121175,29.9484227 19.0674509,30.7127561 18.9181175,31.4220894 C18.6367842,32.7580894 18.3731175,33.8394227 18.1271175,34.6660894 C18.0868473,34.8021645 18.0431669,34.937207 17.9961175,35.0710894 C17.8047842,35.6130894 17.6244509,35.8907561 17.4551175,35.9040894 C17.4507993,35.904596 17.4464625,35.9050894 17.4421175,35.9050894 C17.1207842,35.9050894 16.8507842,35.8390894 16.6321175,35.7070894 C16.6117099,35.6943778 16.5917004,35.6810381 16.5721175,35.6670894 C16.4865301,35.6067928 16.4083269,35.5366448 16.3391175,35.4580894 C16.1931175,35.2947561 16.0507842,35.0744227 15.9121175,34.7970894 L15.9121175,34.4550894 C15.9121175,34.2964227 15.9034509,34.1204227 15.8861175,33.9270894 C15.873873,33.7930425 15.865869,33.6586421 15.8621175,33.5240894 C15.8607691,33.4741008 15.8601024,33.4240962 15.8601175,33.3740894 L15.8601175,33.0570894 C15.8601298,32.9594151 15.8611298,32.8617434 15.8631175,32.7640894 C15.8677842,32.5420894 15.8771175,32.2777561 15.8911175,31.9710894 C15.8975818,31.8233978 15.9045818,31.6757302 15.9121175,31.5280894 C15.9309676,31.174567 15.9529685,30.8212196 15.9781175,30.4680894 C16.0047842,30.0940894 16.0357842,29.7004227 16.0711175,29.2870894 C16.1070233,28.8628313 16.1420234,28.438497 16.1761175,28.0140894 C16.2123114,27.568158 16.2476448,27.1221572 16.2821175,26.6760894 C16.316257,26.2300223 16.3512571,25.7840214 16.3871175,25.3380894 C16.4215464,24.9140145 16.4568798,24.4900135 16.4931175,24.0660894 C16.5631175,23.2400894 16.6157842,22.5017561 16.6511175,21.8510894 C16.6594709,21.6967909 16.6671376,21.5424561 16.6741175,21.3880894 C16.6941175,20.9494227 16.7041175,20.5850894 16.7041175,20.2950894 L16.7041175,19.6630894 C16.7043845,19.5462242 16.695356,19.4295229 16.6771175,19.3140894 C16.6645734,19.2360031 16.6468679,19.158834 16.6241175,19.0830894 C16.5933454,18.9822406 16.5510672,18.8852691 16.4981175,18.7940894 C16.4496695,18.7103294 16.3948406,18.6304263 16.3341175,18.5550894 C16.2409322,18.4817255 16.1391885,18.4199406 16.0311175,18.3710894 C15.9171175,18.3177561 15.7897842,18.2737561 15.6491175,18.2390894 C15.5084509,18.3797561 15.2624509,18.6520894 14.9111175,19.0560894 C14.7362692,19.2572236 14.5635925,19.4602354 14.3931175,19.6650894 C14.2144509,19.8797561 14.0281175,20.1077561 13.8341175,20.3490894 C13.806079,20.3840585 13.778079,20.4190586 13.7501175,20.4540894 C13.5306998,20.7278584 13.3066678,20.997897 13.0781175,21.2640894 C12.8319343,21.5513917 12.5815744,21.8350885 12.3271175,22.1150894 C12.0728251,22.394569 11.8154763,22.6712523 11.5551175,22.9450894 C11.3146698,23.1988651 11.0709832,23.4495523 10.8241175,23.6970894 C10.597724,23.9239075 10.3621959,24.1414207 10.1181175,24.3490894 C9.89633925,24.5383196 9.66539395,24.7165346 9.42611755,24.8830894 C8.96945088,25.1997561 8.58278422,25.3580894 8.26611755,25.3580894 C8.09402499,25.360663 7.92249933,25.337748 7.75711755,25.2900894 C7.38511755,25.1767561 7.15011755,24.9197561 7.05211755,24.5190894 C7.01583966,24.3620516 6.99838353,24.2012537 7,24.0400894 L7,24.0400894 Z" id="1"></path>
    <path d="M16.2628276,33.7382555 C15.1100203,33.7357468 13.9586945,33.820993 12.8188276,33.9932555 C12.7450991,34.0045284 12.6714314,34.0161953 12.5978276,34.0282555 C11.6273444,34.1853692 10.6475469,34.2782378 9.66482759,34.3062555 C9.40323796,34.3142815 9.14154031,34.318282 8.87982759,34.3182555 C8.33516446,34.3169625 7.79146107,34.2724898 7.25382759,34.1852555 C7.06569074,34.1550811 6.87830366,34.1204045 6.69182759,34.0812555 C5.93582759,33.9225888 5.23249425,33.6589222 4.58182759,33.2902555 C3.93182759,32.9209222 3.36949425,32.4462555 2.89482759,31.8662555 C2.53297498,31.4190683 2.27477849,30.8972109 2.13882759,30.3382555 C2.08822955,30.1381548 2.0501557,29.9350943 2.02482759,29.7302555 C1.98482759,29.4295888 1.99316092,29.1605888 2.04982759,28.9232555 C2.09007298,28.7499292 2.16194181,28.5855123 2.26182759,28.4382555 C2.49049425,28.1042555 2.78949425,27.8405888 3.15882759,27.6472555 C3.52749425,27.4539222 3.94049425,27.3309222 4.39782759,27.2782555 C4.55888245,27.2595622 4.72023828,27.2435599 4.88182759,27.2302555 C5.03182759,27.2175888 5.17216092,27.2089222 5.30282759,27.2042555 C5.38778826,27.2009744 5.47280359,27.1993074 5.55782759,27.1992555 C6.36649425,27.1992555 7.16616092,27.3222555 7.95682759,27.5682555 C8.74816092,27.8142555 9.52182759,28.1042555 10.2778276,28.4382555 C11.0290355,28.7705945 11.7944352,29.0698811 12.5718276,29.3352555 C13.3451609,29.5985888 14.1538276,29.7302555 14.9978276,29.7302555 C15.6589207,29.7292964 16.3037283,29.5250666 16.8448276,29.1452555 C16.9160987,29.0964842 16.9858006,29.0454584 17.0538276,28.9922555 C17.4543323,28.6777177 17.8191751,28.3202522 18.1418276,27.9262555 C18.3673181,27.6525694 18.5763529,27.3657309 18.7678276,27.0672555 C19.0980394,26.5519245 19.3933669,26.0150564 19.6518276,25.4602555 C19.818104,25.1050926 19.9718653,24.7442038 20.1128276,24.3782555 C20.3939909,23.6524279 20.6445451,22.9151114 20.8638276,22.1682555 C20.9334869,21.9302811 20.9994946,21.6912531 21.0618276,21.4512555 C21.1949313,20.9393598 21.3166281,20.4245657 21.4268276,19.9072555 C21.5060364,19.5357442 21.5777177,19.1626678 21.6418276,18.7882555 C21.6750073,18.593659 21.7056765,18.3986428 21.7338276,18.2032555 C21.8131609,17.6525888 21.8528276,17.2059222 21.8528276,16.8632555 C21.8521027,16.7064491 21.8464332,16.5497045 21.8358276,16.3932555 C21.8144943,16.0519222 21.7714943,15.6412555 21.7068276,15.1612555 C21.6862177,15.0077747 21.6645505,14.8544377 21.6418276,14.7012555 C21.5006384,13.7502709 21.2709752,12.8145441 20.9558276,11.9062555 C20.7779725,11.3857091 20.5554786,10.8815011 20.2908276,10.3992555 C20.1195809,10.089466 19.9278202,9.79146858 19.7168276,9.50725551 C19.533779,9.25481384 19.3084601,9.03592301 19.0508276,8.86025551 C18.6623083,8.60371755 18.2053379,8.47056522 17.7398276,8.47825551 C17.5093962,8.47608527 17.2798076,8.50638288 17.0578276,8.56825551 C16.6591516,8.67939652 16.3124704,8.92763306 16.0788276,9.26925551 C15.7262833,9.77625029 15.4468745,10.330355 15.2488276,10.9152555 C15.2348118,10.9554697 15.2211446,10.9958046 15.2078276,11.0362555 C15.0547028,11.5092152 14.9017028,11.9822152 14.7488276,12.4552555 C14.6998131,12.6062508 14.6508131,12.7572508 14.6018276,12.9082555 C14.5528009,13.063902 14.4891851,13.2145709 14.4118276,13.3582555 C14.3231609,13.5189222 14.2214943,13.6529222 14.1068276,13.7602555 C13.9842941,13.8752251 13.8382658,13.962228 13.6788276,14.0152555 C13.4788596,13.8850225 13.3001045,13.7248175 13.1488276,13.5402555 C12.940424,13.2818853 12.8047553,12.9725744 12.7558276,12.6442555 C12.7052678,12.3243249 12.6685668,12.0023574 12.6458276,11.6792555 C12.6314612,11.4738999 12.6241235,11.2681129 12.6238276,11.0622555 C12.6238276,10.3595888 12.7558276,9.70058885 13.0198276,9.08525551 C13.2831609,8.46992218 13.6611609,7.92492218 14.1538276,7.45025551 C14.651744,6.97207026 15.2445385,6.60378814 15.8938276,6.36925551 C16.5693164,6.12191408 17.2834862,5.99695976 18.0028276,6 C18.6035025,5.99426143 19.2005656,6.09377195 19.7668276,6.29425551 C20.2778071,6.4805311 20.7517842,6.75577636 21.1668276,7.10725551 C22.0169041,7.82643511 22.7163272,8.70666142 23.2248276,9.69725551 C23.2512743,9.74769168 23.2772754,9.79836032 23.3028276,9.84925551 C23.8528278,10.9535872 24.2604189,12.1232696 24.5158276,13.3302555 C24.6101418,13.7665818 24.6905159,14.205805 24.7568276,14.6472555 C24.8601609,15.3425888 24.9118276,15.9759222 24.9118276,16.5472555 C24.9118111,16.9269783 24.9064772,17.3066821 24.8958276,17.6862555 C24.8831609,18.1482555 24.8618276,18.5769222 24.8318276,18.9722555 C24.7808357,19.6651748 24.6751735,20.3529818 24.5158276,21.0292555 C24.4123555,21.4622988 24.2892281,21.8904083 24.1468276,22.3122555 C24.0566336,22.5812243 23.9599386,22.8479691 23.8568276,23.1122555 C23.7436373,23.4017738 23.6283008,23.6904484 23.5108276,23.9782555 C23.4061609,24.2349222 23.2948276,24.5039222 23.1768276,24.7852555 C23.0530238,25.080761 22.9280228,25.3757634 22.8018276,25.6702555 C22.7164571,25.7319549 22.6343466,25.7980438 22.5558276,25.8682555 C22.3911609,26.0142555 22.2078276,26.2002555 22.0058276,26.4262555 C21.9722431,26.4640345 21.938909,26.5020353 21.9058276,26.5402555 C21.5483341,26.9521777 21.2138263,27.3834991 20.9038276,27.8322555 C20.7126133,28.1073573 20.5318188,28.3895569 20.3618276,28.6782555 C20.2656343,28.8418967 20.1736047,29.00795 20.0858276,29.1762555 C20.0258618,29.2911964 19.9708121,29.4086359 19.9208276,29.5282555 C19.8201609,29.7702555 19.7621609,29.9825888 19.7468276,30.1652555 C19.7445601,30.1962016 19.7435593,30.2272276 19.7438276,30.2582555 C19.7401948,30.5196122 19.860332,30.7673024 20.0678276,30.9262555 C20.1389661,30.9834829 20.2156864,31.0334014 20.2968276,31.0752555 C20.6294943,31.2492555 21.0261609,31.3875888 21.4868276,31.4902555 C21.5383703,31.5018299 21.5900402,31.5128305 21.6418276,31.5232555 C22.0192476,31.5984018 22.3987354,31.6627613 22.7798276,31.7162555 C22.9628805,31.7420463 23.1462261,31.7657146 23.3298276,31.7872555 C23.7259486,31.8332408 24.1202213,31.8939495 24.5118276,31.9692555 C24.6808235,32.0020845 24.8491866,32.0380909 25.0168276,32.0772555 C25.2634982,32.133739 25.504752,32.2117032 25.7378276,32.3102555 C25.9577514,32.4030423 26.1669727,32.5193881 26.3618276,32.6572555 C26.670564,32.8710167 26.8689724,33.2103609 26.9038276,33.5842555 C26.9114965,33.6529845 26.9151694,33.7221008 26.9148494,33.7912555 C26.9132636,33.994831 26.8558439,34.1940708 26.7488276,34.3672555 C26.6834943,34.4765888 26.5994943,34.5835888 26.4968276,34.6882555 C26.4616233,34.7244089 26.4252713,34.7594268 26.3878276,34.7932555 C26.2827093,34.9277597 26.1551719,35.0431185 26.0108276,35.1342555 C25.8069646,35.2591245 25.5718696,35.3236196 25.3328276,35.3203807 C24.5620312,35.3203807 23.7932667,35.2412078 23.0388276,35.0832555 C22.2793705,34.9239461 21.52352,34.7479032 20.7718276,34.5552555 C20.0263793,34.3646897 19.2793533,34.18035 18.5308276,34.0022555 C17.787767,33.825786 17.0265549,33.7371793 16.2628276,33.7382555 L16.2628276,33.7382555 Z" id="2"></path>
    <path d="M4,28.6211634 L4,28.3051634 C3.99827907,28.0768526 4.02617977,27.849277 4.0830821,27.6281634 C4.15913282,27.3329358 4.30216362,27.0591927 4.5010821,26.8281634 C4.75765711,26.5316889 5.11217417,26.3372191 5.5000821,26.2801634 C5.63195274,26.2583538 5.76542111,26.2476495 5.8990821,26.2481634 C6.1110821,26.2481634 6.42174877,26.4838301 6.8310821,26.9551634 C6.89953385,27.0346132 6.96654478,27.115293 7.0320821,27.1971634 C7.23886171,27.4524 7.45500941,27.6999025 7.6800821,27.9391634 C8.08141544,28.3671634 8.5510821,28.8231634 9.0890821,29.3071634 C9.59706924,29.7601174 10.1386165,30.1739665 10.7090821,30.5451634 C11.1913477,30.8600151 11.6889613,31.1507069 12.2000821,31.4161634 C13.4134154,32.0488301 14.8460821,32.3651634 16.4980821,32.3651634 C17.1314154,32.3651634 17.7644154,32.3211634 18.3970821,32.2331634 C18.7274731,32.1886086 19.0535937,32.1166949 19.3720821,32.0181634 C19.6166541,31.9419462 19.8547451,31.8463085 20.0840821,31.7321634 C20.5767488,31.4861634 20.9810821,31.1521634 21.2970821,30.7301634 C21.6010821,30.3254968 21.7590821,29.8071634 21.7710821,29.1751634 C21.7716668,29.1488339 21.7720002,29.1224994 21.7720821,29.0961634 C21.7759036,28.5548767 21.7192184,28.0148584 21.6030821,27.4861634 C21.4442596,26.7486187 21.1235295,26.0555822 20.6640821,25.4571634 C20.0010741,24.6116145 19.1865502,23.8967868 18.2620821,23.3491634 C18.124335,23.2661777 17.9846286,23.1864884 17.8430821,23.1101634 C16.7083704,22.503668 15.5009718,22.0442987 14.2500821,21.7431634 C14.2084539,21.7330041 14.1667869,21.723004 14.1250821,21.7131634 C12.7890821,21.3964968 11.5587488,21.0974968 10.4340821,20.8161634 C9.66074877,20.6228301 8.97441544,20.4378301 8.3750821,20.2611634 C8.12000447,20.1860194 7.8659801,20.1073452 7.6130821,20.0251634 C7.2630821,19.9111634 6.9940821,19.7708301 6.8060821,19.6041634 C6.60002717,19.4358663 6.48006932,19.1842116 6.4790821,18.9181634 C6.47900927,18.898388 6.48068243,18.8786447 6.4840821,18.8591634 C6.49141544,18.8171634 6.50741544,18.7841634 6.5320821,18.7601634 C6.54200469,18.7503107 6.55103964,18.7396026 6.5590821,18.7281634 C6.57574877,18.7034968 6.5840821,18.6788301 6.5840821,18.6541634 C6.6420821,18.5674968 6.7590821,18.4338301 6.9350821,18.2531634 C6.97611112,18.210865 7.01744553,18.1688639 7.0590821,18.1271634 L7.5860821,17.6001634 C7.85541544,17.5461634 8.22774877,17.4768301 8.7030821,17.3921634 C8.85803819,17.3645817 9.01303839,17.3372483 9.1680821,17.3101634 C9.53614124,17.2454739 9.90318457,17.1751323 10.2690821,17.0991634 C10.6678697,17.0163077 11.0655696,16.9283003 11.4620821,16.8351634 C12.2880821,16.6418301 13.1230821,16.4044968 13.9670821,16.1231634 C14.5129596,15.9426291 15.0490247,15.7336772 15.5730821,15.4971634 C15.8143642,15.3873148 16.0524611,15.2706006 16.2870821,15.1471634 C16.9904154,14.7784968 17.5707488,14.3391634 18.0280821,13.8291634 C18.4734353,13.349094 18.7184846,12.7169741 18.7130821,12.0621634 C18.7130821,11.5348301 18.5020821,11.1041634 18.0800821,10.7701634 C17.6587488,10.4361634 17.1754154,10.1724968 16.6300821,9.97916345 C16.0854154,9.78583012 15.5230821,9.66283012 14.9430821,9.61016345 C14.7728858,9.59483939 14.6025444,9.58117207 14.4320821,9.56916345 C14.1060821,9.54583012 13.8267488,9.53316345 13.5940821,9.53116345 C13.5777488,9.53110902 13.5614154,9.53110902 13.5450821,9.53116345 C13.2757488,9.53116345 12.9137488,9.53649678 12.4590821,9.54716345 C12.3114089,9.55056173 12.163742,9.5542284 12.0160821,9.55816345 C11.3543831,9.57514385 10.6940861,9.6278875 10.0380821,9.71616345 C9.76791434,9.75224502 9.49852319,9.79392063 9.2300821,9.84116345 C8.90341544,9.89916345 8.60141544,9.96283012 8.3240821,10.0321634 C8.23968153,10.0530697 8.15626392,10.0777614 8.0740821,10.1061634 C7.74874877,10.2194968 7.5860821,10.3618301 7.5860821,10.5331634 L7.5860821,11.6931634 C7.33294598,11.6949138 7.0801942,11.6731537 6.8310821,11.6281634 C6.54441544,11.5741634 6.2880821,11.4868301 6.0620821,11.3661634 C5.92878391,11.2953521 5.80340965,11.2105401 5.6880821,11.1131634 C5.42194395,10.8842001 5.22779335,10.5830756 5.1290821,10.2461634 C5.06574877,10.0441634 5.0260821,9.82016345 5.0100821,9.57416345 C5.00468981,9.4896046 5.00202176,9.40489404 5.0020821,9.32016345 C4.99823331,8.98144472 5.09955654,8.64987315 5.2920821,8.37116345 C5.44254006,8.15465366 5.62416882,7.96156779 5.8310821,7.79816345 C5.90399122,7.7399176 5.9793956,7.68486573 6.0570821,7.63316345 C6.37374877,7.42183012 6.70774877,7.26349678 7.0590821,7.15816345 C7.24753204,7.10085158 7.44009537,7.05805973 7.6350821,7.03016345 C7.77621932,7.01034154 7.91855983,7.00031756 8.0610821,7 L15.7070821,7 C16.4887638,6.99361135 17.259493,7.18414415 17.9480821,7.55416345 C18.6340821,7.92283012 19.2230821,8.39716345 19.7150821,8.97716345 C20.2101272,9.56211705 20.594407,10.2324042 20.8490821,10.9551634 C21.075064,11.5780392 21.2061938,12.2313287 21.2380821,12.8931634 C21.2421429,12.9854406 21.2441434,13.077797 21.2440821,13.1701634 C21.2476864,13.4932423 21.1959386,13.8145525 21.0910821,14.1201634 C20.9717818,14.4557624 20.7810577,14.7614669 20.5320821,15.0161634 C20.0580821,15.5081634 19.5307488,15.9474968 18.9500821,16.3341634 C18.565265,16.5903417 18.1871386,16.8564307 17.8160821,17.1321634 C17.65651,17.2507576 17.4984965,17.3714346 17.3420821,17.4941634 C17.1704929,17.6262003 17.02009,17.783685 16.8960821,17.9611634 C16.7023422,18.2423962 16.6003464,18.576677 16.6040821,18.9181634 C16.6041772,18.9366078 16.6086317,18.9547685 16.6170821,18.9711634 C16.6230821,18.9824968 16.6307488,18.9938301 16.6400821,19.0051634 C16.6454619,19.011428 16.6511349,19.0174347 16.6570821,19.0231634 L16.7090821,19.1291634 C17.8028081,19.5178484 18.8401785,20.049816 19.7940821,20.7111634 C20.7513438,21.3704826 21.6198055,22.150216 22.3780821,23.0311634 C23.1281082,23.9004537 23.741771,24.8786053 24.1980821,25.9321634 C24.5654372,26.8305434 24.775175,27.7855267 24.8180821,28.7551634 C24.8262927,28.9213689 24.8302009,29.0877555 24.8302009,29.2541634 C24.8329468,29.7211387 24.7839805,30.1869898 24.6840821,30.6431634 C24.5733383,31.147733 24.3822357,31.6312294 24.1180821,32.0751634 C23.663281,32.8462079 23.0306893,33.4973145 22.2730821,33.9741634 C21.6042832,34.3905641 20.8833713,34.7167229 20.1290821,34.9441634 C20.0004911,34.9837106 19.8711326,35.0207178 19.7410821,35.0551634 C18.8418101,35.2963912 17.915139,35.4204179 16.9840821,35.4241649 C16.9804154,35.4241649 16.9767488,35.4241649 16.9730821,35.4241649 C16.5444817,35.3899603 16.1161369,35.352626 15.6880821,35.3121634 C15.2810819,35.2734585 14.8744019,35.2314571 14.4680821,35.1861634 C14.0747804,35.1408104 13.6856052,35.0649145 13.3040821,34.9591634 C12.9300821,34.8571634 12.5417488,34.7254968 12.1390821,34.5641634 C12.0449799,34.5265603 11.9513072,34.4878912 11.8580821,34.4481634 C11.4729379,34.2823593 11.0964539,34.0971212 10.7300821,33.8931634 C10.3387488,33.6771634 9.9280821,33.4284968 9.4980821,33.1471634 C9.19053794,32.9453719 8.88714151,32.7373286 8.5880821,32.5231634 C8.16875603,32.2223335 7.75663965,31.9115791 7.3520821,31.5911634 C6.40074877,30.8404968 5.32074877,29.9208301 4.1120821,28.8321634 C4.09240849,28.8145045 4.07274182,28.7968378 4.0530821,28.7791634 C4.02574877,28.7251634 4.0090821,28.6814968 4.0030821,28.6481634 C4.00126202,28.6392736 4.00025785,28.630236 4,28.6211634 Z" id="3"></path>
    <path d="M18.977,23.807 C18.7475796,23.9381119 18.5202186,24.072795 18.295,24.211 C18.065,24.353 17.8236667,24.5053333 17.571,24.668 C17.4858071,24.7233715 17.4008065,24.7790385 17.316,24.835 C16.6930398,25.2438924 16.0506188,25.6223368 15.391,25.969 C14.723,26.3203333 14.046,26.5926667 13.36,26.786 C12.6746667,26.98 11.998,27.0066667 11.33,26.866 C10.7650321,26.8705435 10.2021134,26.7975289 9.657,26.649 C9.00642507,26.4694833 8.40004203,26.1572692 7.876,25.732 C6.94466667,24.976 6.189,24.0266667 5.609,22.884 C5.02941239,21.7436475 4.61204219,20.5278885 4.369,19.272 C4.25055914,18.6699309 4.15813993,18.0630336 4.092,17.453 C4.03209847,16.9010057 4.00138904,16.3462332 4,15.791 C4,14.7083333 4.046,13.7326667 4.138,12.864 C4.14437683,12.8026355 4.15104358,12.7413015 4.158,12.68 C4.264,11.766 4.431,10.8696667 4.659,9.991 C4.83647851,9.31165014 5.03288836,8.63738748 5.248,7.969 C5.32234477,7.73701523 5.39868092,7.50567336 5.477,7.275 C5.793,6.343 6.162,5.27933333 6.584,4.084 C6.6394138,3.77436604 6.82370935,3.50282999 7.091,3.337 C7.11487482,3.32158572 7.13921974,3.30691207 7.164,3.293 C7.46126239,3.12946625 7.79054291,3.03255882 8.129,3.009 C8.15896501,3.00650577 8.18896908,3.0045055 8.219,3.003 C8.26130532,3.0010431 8.30364947,3 8.346,3 C8.56733333,3 8.77666667,3.027 8.974,3.081 C9.07656568,3.10901704 9.17685434,3.14478666 9.274,3.188 C9.33914257,3.21605592 9.40060078,3.2519905 9.457,3.295 C9.61966667,3.423 9.68533333,3.59466667 9.654,3.81 C9.65111752,3.8311294 9.64744831,3.852144 9.643,3.873 C9.64001487,4.60851551 9.53707265,5.34021266 9.337,6.048 C9.27904009,6.25681535 9.21400257,6.46360129 9.142,6.668 C8.808,7.61733333 8.44766667,8.57533333 8.061,9.542 C7.67182081,10.5155328 7.31133192,11.5002911 6.98,12.495 C6.646,13.497 6.479,14.508 6.479,15.528 C6.4801061,15.9412892 6.50715932,16.3541012 6.56,16.764 C6.61164902,17.1632902 6.68138739,17.5600314 6.769,17.953 C6.9235754,18.6706163 7.16327156,19.3672123 7.483,20.028 C7.5409292,20.1463992 7.60161237,20.2634311 7.665,20.379 C8.0505896,21.0952057 8.58039204,21.7237502 9.221,22.225 C9.85366667,22.717 10.6093333,22.963 11.488,22.963 C12.3012005,22.9699193 13.1081582,22.8205456 13.865,22.523 C14.1650591,22.4031387 14.4549936,22.259342 14.732,22.093 C15.6986667,21.513 16.5773333,20.7923333 17.368,19.931 C18.1579783,19.0713478 18.8480435,18.1249822 19.425,17.11 C19.7025466,16.6229236 19.9705973,16.1304973 20.229,15.633 C20.4637374,15.1813416 20.6877995,14.7242148 20.901,14.262 C21.263,13.476 21.5473333,12.8163333 21.754,12.283 C21.7776845,12.2221349 21.8010182,12.1611339 21.824,12.1 C21.8494882,12.0187277 21.875823,11.9377233 21.903,11.857 C22.011,11.535 22.0946667,11.3423333 22.154,11.279 C22.1634239,11.2664518 22.1774585,11.2581749 22.193,11.256 C22.3755894,11.2552808 22.5581154,11.2629556 22.74,11.279 C23.098,11.3123333 23.3846667,11.381 23.6,11.485 C23.703849,11.5330815 23.7988473,11.5983295 23.881,11.678 C24.0192245,11.8389488 24.1193752,12.0289959 24.174,12.234 C24.214,12.3746667 24.238,12.5283333 24.246,12.695 C24.2485633,12.7426243 24.25,12.7903069 24.25,12.838 C24.2490766,13.1876219 24.2317241,13.5370072 24.198,13.885 C24.1633333,14.2503333 24.1116667,14.6343333 24.043,15.037 C24.0332727,15.0950467 24.0232726,15.1530473 24.013,15.211 C23.8501964,16.1120307 23.665475,17.0089633 23.459,17.901 C23.2511493,18.7997907 23.0753713,19.705698 22.932,20.617 C22.864431,21.0433691 22.8117324,21.4719623 22.774,21.902 C22.7396721,22.2900644 22.7219892,22.6794215 22.721,23.069 C22.7210958,23.9151279 22.7738645,24.7604293 22.879,25.6 C22.9847787,26.4460878 23.1078043,27.28993 23.248,28.131 C23.3869276,28.9635761 23.50995,29.7987282 23.617,30.636 C23.7218959,31.4491392 23.7750029,32.2681235 23.776,33.088 C23.77892,33.4150295 23.7268617,33.7402246 23.622,34.05 C23.5162915,34.3547852 23.3537545,34.6367648 23.143,34.881 C22.7654413,35.3271932 22.2171343,35.5933581 21.633,35.614 C21.5737432,35.6178442 21.5143812,35.620094 21.455,35.620094 C21.1526427,35.6244249 20.8694308,35.4724206 20.706,35.218 C20.6366667,35.1193333 20.5753333,35.0023333 20.522,34.867 C20.5069703,34.8280408 20.4929655,34.7886939 20.48,34.749 C20.4024719,34.5141785 20.3370525,34.2755309 20.284,34.034 C20.188,33.6013333 20.1126667,33.1103333 20.058,32.561 C20.0026981,32.0006722 19.9653457,31.4387178 19.946,30.876 C19.9324385,30.4884826 19.9257707,30.1007546 19.926,29.713 C19.9259413,29.2209918 19.9236079,28.7289866 19.919,28.237 C19.9151175,27.7799693 19.9087841,27.3229628 19.9,26.866 C19.8873333,26.2333333 19.8426667,25.678 19.766,25.2 C19.7382448,25.0243632 19.703551,24.8498934 19.662,24.677 C19.5213333,24.097 19.293,23.807 18.977,23.807 Z" id="4"></path>
    <path d="M5.55804922,13.5150001 L5.61104922,13.3040001 C5.72638255,13.0726668 5.93104922,12.6926668 6.22504922,12.1640001 C6.29249794,12.0428784 6.36016472,11.9218782 6.42804922,11.8010001 C6.69036943,11.3332831 6.94672354,10.862245 7.19704922,10.3880001 C7.35610557,10.0867391 7.51310921,9.78439877 7.66804922,9.48100015 C7.87247439,9.08001873 8.07881007,8.68001419 8.28704922,8.28100015 C8.48269694,7.90660134 8.68036649,7.53326256 8.88004922,7.16100015 C8.96696978,6.99946972 9.05363655,6.83780285 9.14004922,6.67600015 C9.38804922,6.21000015 9.56504922,5.87066681 9.67104922,5.65800015 C9.70371588,5.62533348 9.74404922,5.55500015 9.79204922,5.44700015 C9.79576432,5.43801996 9.79943104,5.42901983 9.80304922,5.42000015 C9.83248479,5.35109998 9.85818867,5.28066466 9.88004922,5.20900015 C9.90113289,5.13941259 9.91948032,5.06902521 9.93504922,4.99800015 C9.96914496,4.84275257 10.0222102,4.69228915 10.0930492,4.55000015 C10.107262,4.50751035 10.1209298,4.46484018 10.1340492,4.42200015 C10.1700492,4.30466681 10.1910492,4.21733348 10.1970492,4.16000015 C10.1982746,4.14937576 10.1989422,4.13869443 10.1990492,4.12800015 C10.1990492,4.05800015 10.1900492,3.97033348 10.1720492,3.86500015 C10.1685691,3.84369 10.1652357,3.82235616 10.1620492,3.80100015 C10.1533826,3.74233348 10.1483826,3.69866681 10.1470492,3.67000015 C10.146578,3.66467633 10.1462446,3.65934121 10.1460492,3.65400015 L8.93304922,3.65400015 C8.93115373,3.39801926 8.96070836,3.14277472 9.02104922,2.89400015 C9.10545826,2.54088115 9.27428801,2.21351614 9.51304922,1.94000015 C9.81248679,1.60260476 10.1668136,1.31826428 10.5610492,1.09900015 C10.7004478,1.02066433 10.8436213,0.949244409 10.9900492,0.885000147 C11.3436338,0.73071325 11.7087479,0.604327585 12.0820492,0.507000147 C12.3997714,0.42345742 12.7215158,0.356037962 13.0460492,0.305000147 C13.8146605,0.182546413 14.589551,0.103421447 15.3670492,0.0680001469 C16.1403826,0.0326668135 16.8610492,0.0236668135 17.5290492,0.0410001469 C17.7670255,0.0476239547 18.0050274,0.0532906672 18.2430492,0.0580001469 C18.4310492,0.0613334802 18.6107159,0.0636668135 18.7820492,0.0650001469 C18.9443765,0.0668130129 19.1067119,0.0678130254 19.2690492,0.0680001469 C19.6380865,0.0678508521 20.0071102,0.0635172402 20.3760492,0.0550001469 C20.7804995,0.0454869435 21.1848509,0.0321530152 21.5890492,0.0150001469 C21.8302521,0.00496983937 22.0716379,0 22.3130492,0 C22.9169369,0 23.5204165,0.0313855124 24.1210492,0.0940001469 C24.9099069,0.172625833 25.6830599,0.365998327 26.4160492,0.668000147 C26.4421095,0.678857036 26.4681099,0.689857203 26.4940492,0.701000147 C27.2320492,1.01700015 27.8470492,1.49133348 28.3390492,2.12400015 C28.339067,2.13738901 28.3400697,2.15075842 28.3420492,2.16400015 C28.3460492,2.19066681 28.3540492,2.22133348 28.3660492,2.25600015 C28.3833826,2.30866681 28.3920492,2.35266681 28.3920492,2.38800015 C28.3913897,2.45649087 28.3781709,2.52427953 28.3530492,2.58800015 C28.3337159,2.63800015 28.3077159,2.68900015 28.2750492,2.74100015 C28.2542394,2.77371431 28.2318806,2.80541701 28.2080492,2.83600015 C28.1381707,2.92627067 28.0616229,3.01117529 27.9790492,3.09000015 C27.9261949,3.14054473 27.8704333,3.18795881 27.8120492,3.23200015 C27.7115304,3.30698395 27.6063153,3.37545725 27.4970492,3.43700015 C27.4444615,3.46671526 27.3911102,3.49505817 27.3370492,3.52200015 C27.2915671,3.54513568 27.2451984,3.5664853 27.1980492,3.58600015 C27.1067159,3.62266681 27.0273826,3.64433348 26.9600492,3.65100015 C26.9454427,3.65274347 26.9307572,3.65374475 26.9160492,3.65400015 C26.8983491,3.65372006 26.8806678,3.65271923 26.8630492,3.65100015 C26.7683826,3.64300015 26.5923826,3.61766681 26.3350492,3.57500015 C26.010277,3.52061287 25.685274,3.46761239 25.3600492,3.41600015 C25.0260492,3.36333348 24.7097159,3.31066681 24.4110492,3.25800015 C24.1137159,3.20600015 23.9293826,3.17966681 23.8580492,3.17900015 C23.8577159,3.17899956 23.8573826,3.17899956 23.8570492,3.17900015 C23.7863826,3.17900015 23.5140492,3.17033348 23.0400492,3.15300015 C22.5653826,3.13500015 22.0467159,3.11733348 21.4840492,3.10000015 C20.9213826,3.08266681 20.3587159,3.07400015 19.7960492,3.07400015 L18.4780492,3.07400015 L17.5290492,3.07400015 C17.1423826,3.07400015 16.7467159,3.08266681 16.3420492,3.10000015 C16.1736987,3.10728401 16.0053649,3.1149507 15.8370492,3.12300015 C15.6823826,3.13033348 15.5357159,3.13766681 15.3970492,3.14500015 C15.3517131,3.14761965 15.3063798,3.15028632 15.2610492,3.15300015 C15.2237167,3.15501625 15.1863834,3.15701625 15.1490492,3.15900015 C14.9030492,3.17233348 14.7647159,3.17900015 14.7340492,3.17900015 L13.1520492,3.65400015 C13.1021248,3.93072795 13.0356726,4.20421752 12.9530492,4.47300015 C12.8417159,4.83966681 12.6970492,5.22566681 12.5190492,5.63100015 C12.194661,6.36911188 11.8518875,7.09900615 11.4910492,7.82000015 C11.1217159,8.55800015 10.8053826,9.26966681 10.5420492,9.95500015 C10.4561628,10.1756504 10.3807454,10.400234 10.3160492,10.6280001 C10.2540492,10.8500001 10.2090492,11.0596668 10.1810492,11.2570001 C10.1584221,11.4109798 10.1467262,11.5663683 10.1460492,11.7220001 C10.1461494,11.7447225 10.1474847,11.7674227 10.1500492,11.7900001 C10.1553826,11.8340001 10.1647159,11.8870001 10.1780492,11.9490001 C10.1845977,11.9791037 10.1915985,12.0091071 10.1990492,12.0390001 L10.1990492,12.2490001 C12.1139635,12.5606597 13.9945733,13.0552574 15.8150492,13.7260001 C17.6257159,14.3940001 19.2517159,15.2730001 20.6930492,16.3630001 C22.1208638,17.436673 23.2918364,18.8146494 24.1210492,20.3970001 C24.6041106,21.3285665 24.9458534,22.326833 25.1350492,23.3590001 C25.2970492,24.2043335 25.3807159,25.1106668 25.3860492,26.0780001 C25.3861298,26.1090001 25.3861298,26.1400002 25.3860492,26.1710001 C25.4118819,26.414816 25.4248998,26.6598197 25.4250492,26.9050001 C25.4320502,27.9304634 25.1733145,28.9402558 24.6740492,29.8360001 C24.0475879,30.9570546 23.2054003,31.9430056 22.1960492,32.7370001 C21.1374596,33.5750907 19.9541148,34.2421773 18.6890492,34.7140001 C18.0703634,34.9504308 17.4362133,35.1442175 16.7910492,35.2940001 C16.2016228,35.4309643 15.6019383,35.5192614 14.9980492,35.5580001 C14.4420492,35.5580001 13.8237159,35.5496668 13.1430492,35.5330001 C12.8206783,35.5250135 12.4983422,35.5156801 12.1760492,35.5050001 C11.0808727,35.4677299 9.98908678,35.3621917 8.90704922,35.1890001 C7.79971588,35.0130001 6.70971588,34.7580001 5.63704922,34.4240001 C4.99383564,34.2262421 4.369397,33.9719155 3.77104922,33.6640001 C3.43275897,33.4889569 3.10518046,33.2939458 2.79004922,33.0800001 C1.96338255,32.5173335 1.29538255,31.8140001 0.786049217,30.9700001 C0.467318165,30.4343355 0.247805017,29.8455796 0.138049217,29.2320001 C0.0581791088,28.7965832 0.0190101681,28.3546772 0.021049217,27.9120001 C-0.0436174497,27.0053335 0.0407158837,26.2406668 0.274049217,25.6180001 C0.293715439,25.5644813 0.314722055,25.5114646 0.337049217,25.4590001 C0.61838255,24.8090001 0.926049217,24.4576668 1.26004922,24.4050001 C1.28285739,24.4012025 1.30592788,24.3991964 1.32904922,24.3990001 C1.63304922,24.3990001 1.89138255,24.7260001 2.10404922,25.3800001 C2.1576936,25.5498253 2.19913249,25.7232671 2.22804922,25.8990001 C2.35138255,26.6170001 2.37171588,27.6393335 2.28904922,28.9660001 C2.2906724,29.1428353 2.34651934,29.3149137 2.44904922,29.4590001 C2.51238255,29.5516668 2.59438255,29.6426668 2.69504922,29.7320001 C2.78288619,29.8086085 2.87612747,29.8787901 2.97404922,29.9420001 C3.18842822,30.0805978 3.41269829,30.2032612 3.64504922,30.3090001 C3.87838255,30.4163335 4.13238255,30.5163335 4.40704922,30.6090001 C4.5088436,30.6430151 4.61119078,30.6753528 4.71404922,30.7060001 C5.12904749,30.8301277 5.54718735,30.9434989 5.96804922,31.0460001 C6.32231354,31.1324207 6.6780324,31.2127659 7.03504922,31.2870001 C7.44295017,31.3718166 7.85163467,31.4528202 8.26104922,31.5300001 C8.64263613,31.6024459 9.0249916,31.6707832 9.40804922,31.7350001 C10.0020492,31.8336668 10.5390492,31.9100001 11.0190492,31.9640001 C11.1322816,31.9763212 11.2456192,31.9876549 11.3590492,31.9980001 C11.4570263,32.0072475 11.5550267,32.0162476 11.6530492,32.0250001 C12.0150492,32.0570001 12.2587159,32.0743335 12.3840492,32.0770001 C12.3940456,32.0774349 12.4040461,32.0777682 12.4140492,32.0780001 C13.5740492,32.0780001 14.7517159,31.9723335 15.9470492,31.7610001 C16.7376997,31.6249906 17.5103265,31.3995433 18.2500492,31.0890001 C18.5717662,30.9526792 18.8855915,30.7984374 19.1900492,30.6270001 C20.1335439,30.1037325 20.9382491,29.3624574 21.5370492,28.4650001 C21.8989096,27.9130744 22.151792,27.2969917 22.2820492,26.6500001 C22.3813826,26.1833335 22.4317159,25.6806668 22.4330492,25.1420001 C22.4330609,25.1336668 22.4330609,25.1253335 22.4330492,25.1170001 C22.4360236,24.5520543 22.3925438,23.9878203 22.3030492,23.4300001 C22.1757159,22.6640001 21.9553826,21.9780001 21.6420492,21.3720001 C21.1147159,20.3526668 20.4117159,19.5090001 19.5330492,18.8410001 C18.7425179,18.2449009 17.8715325,17.7637883 16.9460492,17.4120001 C16.8073422,17.3584096 16.6676514,17.3074008 16.5270492,17.2590001 C15.4017159,16.8723335 14.2327159,16.5646668 13.0200492,16.3360001 C11.8227799,16.110108 10.6180608,15.9256645 9.40804922,15.7830001 C8.8314801,15.7154642 8.25576931,15.6407918 7.68104922,15.5590001 C7.1478711,15.4830046 6.61581586,15.3993292 6.08504922,15.3080001 C5.93504922,15.1073335 5.82071588,14.9203335 5.74204922,14.7470001 C5.71171873,14.6807359 5.68566536,14.6125963 5.66404922,14.5430001 C5.62105884,14.4011009 5.59159414,14.2554516 5.57604922,14.1080001 C5.56406276,13.9987431 5.55805381,13.8889128 5.55804922,13.7790001 L5.55804922,13.5150001 Z" id="5"></path>
    <path d="M21.2440529,6.07444877 L20.9800529,6.07444877 C20.6327541,6.07655343 20.2867162,6.11645509 19.9480529,6.19344877 C19.5327195,6.28544877 19.0943862,6.43011544 18.6330529,6.62744877 C18.1521627,6.83558635 17.6840111,7.07199959 17.2310529,7.33544877 C16.7904645,7.59086747 16.3610676,7.86512099 15.9440529,8.15744877 C15.0127195,8.80744877 14.1163862,9.54578211 13.2550529,10.3724488 C12.4128366,11.1774296 11.6285504,12.0409131 10.9080529,12.9564488 C10.5501926,13.4100662 10.2157561,13.8816817 9.90605287,14.3694488 C9.65568113,14.7645551 9.42668543,15.1728084 9.22005287,15.5924488 C9.07040295,15.8952489 8.9417658,16.2079876 8.83505287,16.5284488 C8.7263862,16.8571154 8.65371954,17.1727821 8.61705287,17.4754488 C8.59793014,17.6293791 8.58824538,17.7843353 8.58805287,17.9394488 L8.58805287,18.2034488 C8.85062966,18.1029966 9.11500646,18.0073142 9.38105287,17.9164488 C9.64371954,17.8271154 9.89305287,17.7484488 10.1290529,17.6804488 C10.2650683,17.6413963 10.4017558,17.604724 10.5390529,17.5704488 C11.0818496,17.4337452 11.6321028,17.3285694 12.1870529,17.2554488 C12.1913859,17.25478 12.1957192,17.2541133 12.2000529,17.2534488 C12.7447195,17.1834488 13.2983862,17.1484488 13.8610529,17.1484488 L15.7590529,17.1484488 C16.6220997,17.1441065 17.4825606,17.2431451 18.3220529,17.4434488 C18.7417974,17.5451606 19.154093,17.6754647 19.5560529,17.8334488 C20.5903893,18.2331654 21.541511,18.8214706 22.3610529,19.5684488 C22.429067,19.6307005 22.4960757,19.6940421 22.5620529,19.7584488 C23.4139784,20.5982994 24.0928055,21.597174 24.5600529,22.6984488 C24.5620558,22.7027807 24.5640558,22.7071141 24.5660529,22.7114488 C24.927124,23.5610114 25.1564303,24.4607014 25.2460529,25.3794488 C25.2853439,25.7635214 25.3047032,26.1493722 25.3040529,26.5354488 C25.3040529,28.1521154 24.9350529,29.5317821 24.1970529,30.6744488 C23.4583862,31.8171154 22.5003862,32.7401154 21.3230529,33.4434488 C20.2644259,34.070126 19.1214834,34.5419181 17.9290529,34.8444488 C17.7515323,34.8904438 17.5731678,34.9331179 17.3940529,34.9724488 C15.974128,35.2866241 14.5243191,35.4458885 13.0700529,35.4476111 C12.4147454,35.4511704 11.7606408,35.3908842 11.1170529,35.2674488 C10.3497846,35.1221989 9.61118017,34.8533698 8.93005287,34.4714488 C7.80990652,33.8413933 6.84578825,32.9675009 6.10905287,31.9144488 C5.42910786,30.9354728 4.91896757,29.8489315 4.60005287,28.7004488 C4.56508902,28.5769798 4.53208487,28.4529642 4.50105287,28.3284488 C4.16585228,26.9828724 3.99758662,25.601146 4.00002615,24.2144488 C4.0028887,23.4084153 4.07245971,22.6040005 4.20805287,21.8094488 C4.32220484,21.135795 4.47275867,20.4688182 4.65905287,19.8114488 C5.11035479,18.2167565 5.7197088,16.6710943 6.47805287,15.1974488 C7.27136184,13.6545813 8.20709543,12.1892124 9.27305287,10.8204488 C10.3630529,9.41378211 11.5497195,8.15678211 12.8330529,7.04944877 C13.9570029,6.07292127 15.1850709,5.22313307 16.4950529,4.51544877 C16.6268861,4.44453218 16.7595622,4.37519389 16.8930529,4.30744877 C17.9181962,3.78181063 19.0112703,3.40085008 20.1410529,3.17544877 C20.5058872,3.10414169 20.8739948,3.0507444 21.2440529,3.01544877 C21.3347894,3.00645432 21.4258771,3.0014495 21.5170529,3.00020839 C21.8003862,2.99711544 22.1137195,3.02844877 22.4570529,3.09444877 C22.9137195,3.18244877 23.3530529,3.33178211 23.7750529,3.54244877 C24.0738921,3.69030336 24.352782,3.87544594 24.6050529,4.09344877 C24.6925848,4.1693061 24.7763516,4.24940191 24.8560529,4.33344877 C25.1508099,4.64294989 25.3117651,5.05611615 25.3040529,5.48344877 C25.3040626,5.48711543 25.3040626,5.49078211 25.3040529,5.49444877 C25.3040529,5.70511544 25.2777195,5.92478211 25.2250529,6.15344877 C25.1770541,6.35907029 25.1104462,6.55989814 25.0260529,6.75344877 C25.0137244,6.78193211 25.0010569,6.81026746 24.9880529,6.83844877 C24.9285812,6.96868157 24.8562204,7.09263303 24.7720529,7.20844877 C24.7175153,7.28295196 24.6573385,7.35315824 24.5920529,7.41844877 C24.4543041,7.55670666 24.2708166,7.63991612 24.0760529,7.65244877 C24.0461219,7.65503796 24.0160956,7.65637246 23.9860529,7.65644877 C23.9662819,7.65567131 23.9467356,7.65196427 23.9280529,7.64544877 C23.8647195,7.62544877 23.7700529,7.57744877 23.6440529,7.50144877 C23.5993129,7.47443909 23.5549747,7.4467694 23.5110529,7.41844877 C23.3813185,7.33522082 23.2516518,7.25188746 23.1220529,7.16844877 C22.9793245,7.07621076 22.8366578,6.98387741 22.6940529,6.89144877 C22.5606853,6.80525935 22.4263433,6.72058723 22.2910529,6.63744877 C22.1637195,6.55878211 22.0420529,6.48578211 21.9260529,6.41844877 C21.9097405,6.40907886 21.8934071,6.3997455 21.8770529,6.39044877 L21.2440529,6.07444877 Z M6.58405287,25.2694488 C6.72489143,25.9615738 6.92667782,26.6398839 7.18705287,27.2964488 C7.4843862,28.0337821 7.8483862,28.6764488 8.27905287,29.2244488 C8.53520315,29.551925 8.82402538,29.8524744 9.14105287,30.1214488 C10.0538974,30.8838155 11.1355389,31.4172653 12.2960529,31.6774488 C12.8106325,31.7977043 13.3339403,31.8769528 13.8610529,31.9144488 C14.8512503,31.9138129 15.8394453,31.8254676 16.8140529,31.6504488 C17.5518578,31.522264 18.2698723,31.2987249 18.9500529,30.9854488 C19.1383912,30.8981223 19.3232023,30.8033816 19.5040529,30.7014488 C20.3019481,30.2541002 20.9801359,29.6208505 21.4810529,28.8554488 C21.7609462,28.423599 21.9630017,27.946044 22.0780529,27.4444488 C22.1687195,27.0644488 22.2227195,26.6537821 22.2400529,26.2124488 C22.2440483,26.1091637 22.2460529,26.0058111 22.2460529,25.9024488 C22.2432894,25.5783378 22.1951554,25.2562102 22.1030529,24.9454488 C22.0277195,24.6807821 21.9220529,24.4084488 21.7860529,24.1284488 C21.7393576,24.032936 21.6903431,23.9385747 21.6390529,23.8454488 C21.2282294,23.0985386 20.7230892,22.4075418 20.1360529,21.7894488 C19.5599467,21.1733375 18.8932898,20.6486445 18.1590529,20.2334488 C17.8951069,20.0837657 17.6191532,19.9563252 17.3340529,19.8524488 C17.0207195,19.7397821 16.7163862,19.6694488 16.4210529,19.6414488 C16.324012,19.6318275 16.2265688,19.6268219 16.1290529,19.6264091 C14.8903169,19.6239578 13.6541297,19.738804 12.4370529,19.9694488 C11.2417195,20.1981154 10.1870529,20.5411154 9.27305287,20.9984488 C8.35905287,21.4551154 7.64705287,22.0437821 7.13705287,22.7644488 C6.62771954,23.4851154 6.4433862,24.3201154 6.58405287,25.2694488 Z" id="6"></path>
    <path d="M18.7129896,23.189 L16.2349896,34.843 C16.1976309,34.9673101 16.1494464,35.0881058 16.0909896,35.204 C15.9589896,35.462 15.787323,35.6406667 15.5759896,35.74 C15.4343636,35.8074424 15.2862757,35.8603787 15.1339896,35.898 C14.9939381,35.9326233 14.8502563,35.9504157 14.7059896,35.9510662 C14.5702328,35.9522879 14.4349505,35.9347887 14.3039896,35.899 C14.0540376,35.8313483 13.8393934,35.6707229 13.7039896,35.45 C13.4897029,35.1096608 13.3126827,34.7472388 13.1759896,34.369 C13.4152605,33.4298977 13.6482657,32.4892101 13.8749896,31.547 C14.0883415,30.6609031 14.295014,29.7732112 14.4949896,28.884 C14.8029372,27.492961 14.9876522,26.0774817 15.0469896,24.654 C15.0656852,24.2362615 15.0750209,23.8181566 15.0749896,23.4 C14.1742728,23.3990173 13.273816,23.3693356 12.3749896,23.311 C12.061774,23.291035 11.7487593,23.2680339 11.4359896,23.242 C10.830457,23.1909198 10.2240161,23.1512461 9.61698965,23.123 C9.0636889,23.0974479 8.50987991,23.0844446 7.95598965,23.084 C7.88077261,22.948354 7.81137619,22.8095612 7.74798965,22.668 C7.54865631,22.218 7.47765631,21.8523333 7.53498965,21.571 C7.54136592,21.538522 7.54971472,21.5064627 7.55998965,21.475 C7.6548498,21.1922682 7.84736608,20.9525979 8.10298965,20.799 C8.19021744,20.7444172 8.28187246,20.6972516 8.37698965,20.658 C8.79898965,20.482 9.32632298,20.3853333 9.95898965,20.368 C10.552323,20.3513333 11.184323,20.3503333 11.8549896,20.365 C11.8999911,20.3659349 11.9449911,20.3669349 11.9899896,20.368 C12.3412815,20.376696 12.6926207,20.3833628 13.0439896,20.388 C13.3779734,20.3921398 13.7119803,20.3941399 14.0459896,20.394 C14.2652807,20.3946934 14.484495,20.3856846 14.7029896,20.367 C15.0669896,20.3343333 15.384323,20.273 15.6549896,20.183 L15.7599896,20.025 C15.791323,19.9303333 15.8299896,19.808 15.8759896,19.658 C15.8813417,19.6396721 15.886675,19.6213388 15.8919896,19.603 C15.9177054,19.5171447 15.9440394,19.4314758 15.9709896,19.346 C15.9966772,19.264459 16.0230114,19.1831231 16.0499896,19.102 C16.095323,18.9666667 16.1469896,18.8506667 16.2049896,18.754 C16.2146132,18.7380962 16.2246161,18.7224251 16.2349896,18.707 C16.3411082,18.2833435 16.4371354,17.8572231 16.5229896,17.429 C16.5715506,17.187735 16.6162231,16.9457036 16.6569896,16.703 C16.7509601,16.1331585 16.8097381,15.5580694 16.8329896,14.981 C16.8363569,14.89569 16.8390236,14.8103538 16.8409896,14.725 C16.846966,14.4927146 16.8499663,14.2603622 16.8499896,14.028 C16.8499896,13.5553333 16.838323,13.067 16.8149896,12.563 C16.7964503,12.1653726 16.7787836,11.767705 16.7619896,11.37 C16.7435286,10.9326991 16.7258619,10.4953651 16.7089896,10.058 C16.0416563,9.988 15.2419896,9.97033333 14.3099896,10.005 C13.3786563,10.0403333 12.4206563,10.0756667 11.4359896,10.111 C10.451323,10.1463333 9.50198965,10.1463333 8.58798965,10.111 C8.26536138,10.0992908 7.94339242,10.0736001 7.62298965,10.034 C7.30965631,9.99466667 7.01932298,9.942 6.75198965,9.876 C6.5974401,9.83804045 6.44462704,9.79333095 6.29398965,9.742 C6.11987502,9.68356837 5.9515,9.60925574 5.79098965,9.52 C5.45232298,9.32866667 5.21598965,9.08633333 5.08198965,8.793 C5.03671586,8.69262415 5.00995254,8.58489334 5.00298965,8.475 C4.97765631,8.131 5.11332298,7.70466667 5.40998965,7.196 C5.44871004,7.12989179 5.48871766,7.064546 5.52998965,7 C5.71161288,7.01908699 5.89328003,7.03775371 6.07498965,7.056 C6.48098965,7.09666667 6.94965631,7.142 7.48098965,7.192 C7.73596654,7.21591498 7.99096666,7.23958166 8.24598965,7.263 C8.84063839,7.31774522 9.43603119,7.36408318 10.0319896,7.402 C10.6752323,7.442807 11.3189463,7.47580943 11.9629896,7.501 C13.3161302,7.5540257 14.6699169,7.5890288 16.0239896,7.606 C16.2933095,7.60939279 16.5626484,7.61105949 16.8319896,7.611 C17.889323,7.611 18.8679896,7.583 19.7679896,7.527 L19.7679896,8.292 L19.7679896,9.452 L19.7679896,10.586 L19.7679896,11.324 C19.7697022,12.8395559 19.6815475,14.3538801 19.5039896,15.859 C19.3288077,17.3291675 19.2409868,18.8084321 19.2409896,20.289 L20.8229896,20.289 C21.4426402,20.2875644 22.0608272,20.3492156 22.6679896,20.473 C22.9711474,20.5337015 23.2661556,20.6296883 23.5469896,20.759 C23.7788662,20.8664522 23.9973555,21.0007006 24.1979896,21.159 C24.6199896,21.493 24.8309896,22.0113333 24.8309896,22.714 C24.8298924,23.0715519 24.7763215,23.4270067 24.6719896,23.769 C24.5746563,24.0956667 24.325323,24.2706667 23.9239896,24.294 C23.8923489,24.2955835 23.860669,24.2962505 23.8289896,24.296 C23.4769896,24.296 23.1166563,24.2433333 22.7479896,24.138 C22.3786563,24.0326667 22.018323,23.892 21.6669896,23.716 C21.371747,23.5675679 21.0659093,23.4412219 20.7519896,23.338 C20.7054976,23.3231041 20.6588276,23.3087697 20.6119896,23.295 C20.2524266,23.1880668 19.8791136,23.1344957 19.5039896,23.136 L19.0029896,23.136 C18.8396563,23.136 18.745323,23.1486667 18.7199896,23.174 C18.715701,23.1778307 18.7131709,23.1832525 18.7129896,23.189 Z" id="7"></path>
    <path d="M11.2958777,19.687 L11.2958777,19.581 L11.2958777,19.529 L11.2958777,19.476 L11.2958777,19.318 L11.2958777,19.212 C10.9777349,18.9403156 10.650202,18.6798236 10.3138777,18.431 C10.0905979,18.2654252 9.8642246,18.1040633 9.6348777,17.947 C9.03005039,17.5335229 8.45710798,17.0752359 7.9208777,16.576 C7.53824564,16.2211957 7.19064366,15.8303947 6.8828777,15.409 C6.7847655,15.2736104 6.69137609,15.1348604 6.6028777,14.993 C6.31094953,14.5283272 6.15825883,13.9897454 6.1628777,13.441 C6.16311753,13.325439 6.169125,13.209962 6.1808777,13.095 C6.0741472,12.8791919 6.01352706,12.6435226 6.0028777,12.403 C5.98954436,12.1523333 6.02254436,11.882 6.1018777,11.592 C6.2498777,11.048 6.5138777,10.481 6.8938777,9.891 C6.91956521,9.851461 6.94556603,9.81212642 6.9718777,9.773 C7.28749839,9.30243975 7.63709673,8.8555822 8.0178777,8.436 C8.17449977,8.26223206 8.33555272,8.09250959 8.5008777,7.927 C9.08319332,7.34203327 9.71858973,6.81242468 10.3988777,6.345 C10.8299461,6.04863806 11.279903,5.780735 11.7458777,5.543 C11.9612002,5.43359219 12.1803381,5.33186149 12.4028777,5.238 C12.6417688,5.16173862 12.885696,5.10226048 13.1328777,5.06 C13.368211,5.02 13.596211,5 13.8168777,5 C13.9612986,5 14.1055779,5.00903952 14.2488777,5.027 C14.637847,5.02852176 15.0259573,5.06365244 15.4088777,5.132 C15.7471267,5.19181394 16.0816741,5.2709434 16.4108777,5.369 C17.184211,5.59766667 17.9048777,5.93166667 18.5728777,6.371 C19.2408777,6.811 19.8035444,7.34733333 20.2608777,7.98 C20.6798706,8.60301347 20.90054,9.3382294 20.8938777,10.089 C20.8998546,10.7452991 20.7683676,11.3955805 20.5078777,11.998 C20.4214448,12.194837 20.3211946,12.3853125 20.2078777,12.568 C19.7660323,13.2785111 19.2744717,13.9568713 18.7368777,14.598 C18.7000721,14.6421631 18.6630717,14.6861635 18.6258777,14.73 C18.0285444,15.4333333 17.501211,16.1186667 17.0438777,16.786 C16.5976167,17.4190008 16.3580062,18.1745074 16.3578777,18.949 C16.3578777,19.247 16.4678777,19.561 16.6878777,19.891 C16.7570075,19.994057 16.8317885,20.0932086 16.9118777,20.188 C17.0966011,20.4063733 17.2911344,20.6162556 17.4948777,20.817 C17.7048777,21.0256667 17.9348777,21.2376667 18.1848777,21.453 C18.2263652,21.4885441 18.2680324,21.5238779 18.3098777,21.559 C18.6041463,21.80741 18.8984797,22.0557434 19.1928777,22.304 C19.513485,22.5744038 19.8341516,22.8447371 20.1548777,23.115 C20.8228777,23.677 21.4295444,24.292 21.9748777,24.96 C22.5272001,25.6399876 22.9961985,26.3836036 23.3718777,27.175 C23.6547107,27.7479816 23.8354195,28.365911 23.9058777,29.001 C23.9371425,29.2701938 23.9525025,29.5409974 23.9518777,29.812 C23.956828,30.450063 23.8883783,31.0865785 23.7478777,31.709 C23.5320088,32.6954839 23.056238,33.6062846 22.3698777,34.347 C21.339211,35.4123333 19.905211,35.957 18.0678777,35.981 C18.025547,35.9816084 17.9832128,35.982 17.9408777,35.982 C16.7701709,35.9768546 15.6096109,35.7645818 14.5128777,35.355 C14.2454158,35.2572367 13.9815767,35.1498331 13.7218777,35.033 C12.3478516,34.4225855 11.103697,33.5542233 10.0568777,32.475 C9.03119831,31.4217604 8.25600343,30.1509603 7.7888777,28.757 C7.3728777,27.523 7.31521103,26.2216667 7.6158777,24.853 C7.65860254,24.6587916 7.70762842,24.4660231 7.7628777,24.275 C8.01546817,23.7488826 8.31643021,23.2473908 8.6618777,22.777 C8.82857893,22.5492297 9.00370015,22.3277431 9.1868777,22.113 C9.60067682,21.6079138 10.0237486,21.110496 10.4558777,20.621 C10.7328658,20.306971 11.0128788,19.9956231 11.2958777,19.687 L11.2958777,19.687 Z M10.6628777,26.595 C10.6628777,27.509 10.8475444,28.379 11.2168777,29.205 C11.5788454,30.0209728 12.0883898,30.7630837 12.7198777,31.394 C13.3541298,32.0277627 14.0946991,32.5452812 14.9078777,32.923 C15.7415805,33.3113306 16.6511933,33.5094437 17.5708777,33.503 C17.860211,33.503 18.1855444,33.4553333 18.5468777,33.36 C18.6263258,33.3389253 18.7053418,33.3162541 18.7838777,33.292 C19.1290522,33.187369 19.4614494,33.0444818 19.7748777,32.866 C19.8595703,32.8174552 19.9426166,32.7660931 20.0238777,32.712 C20.3925444,32.466 20.7175444,32.1673333 20.9988777,31.816 C21.1464238,31.6349087 21.2599249,31.4285737 21.3338777,31.207 C21.3919017,31.0291062 21.4212683,30.8431172 21.4208815,30.656 C21.4189077,29.6267415 21.1940898,28.6101143 20.7618777,27.676 C20.3225444,26.7093333 19.7598777,25.8216667 19.0738777,25.013 C18.3927075,24.2085867 17.6232017,23.4833593 16.7798777,22.851 C16.1826104,22.4013341 15.5620851,21.9834225 14.9208777,21.599 C14.6995691,21.4666678 14.4755202,21.3389733 14.2488777,21.216 C14.218211,21.216 14.161211,21.2026667 14.0778777,21.176 C14.0645131,21.1717635 14.0511794,21.1674301 14.0378777,21.163 L13.8268777,21.163 C13.6798739,21.1653737 13.5351647,21.1998446 13.4028777,21.264 C13.176211,21.3686667 12.9395444,21.555 12.6928777,21.823 C12.4061911,22.137487 12.1559386,22.4833454 11.9468777,22.854 C11.8446805,23.0333546 11.7505858,23.2172063 11.6648777,23.405 C11.4427258,23.8894832 11.2431779,24.3840152 11.0668777,24.887 C11.0275845,24.9988917 10.989582,25.1112325 10.9528777,25.224 C10.9074268,25.3637096 10.8650831,25.5044109 10.8258777,25.646 C10.745211,25.9406667 10.6945444,26.1913333 10.6738777,26.398 C10.6669559,26.4634444 10.6632847,26.5291918 10.6628777,26.595 L10.6628777,26.595 Z M9.1388777,14.068 C9.14581895,14.0777091 9.15281908,14.0873759 9.1598777,14.097 C9.4590303,14.4930713 9.79741346,14.8579221 10.1698777,15.186 C10.279124,15.2828383 10.3908271,15.376869 10.5048777,15.468 C10.9189592,15.8011104 11.3605411,16.0985091 11.8248777,16.357 C11.9287085,16.4145241 12.0337315,16.4698696 12.1398777,16.523 C12.2630086,16.5887558 12.3860088,16.654756 12.5088777,16.721 C12.8435444,16.901 13.1025444,17.0433333 13.2858777,17.148 C13.2905458,17.1506641 13.2952125,17.1533307 13.2998777,17.156 C13.4405444,17.0153333 13.704211,16.769 14.0908777,16.417 C14.2919382,16.2339602 14.4896378,16.0472624 14.6838777,15.857 C14.8938044,15.6515875 15.1004964,15.4428952 15.3038777,15.231 C15.5705342,14.9540677 15.8247838,14.6654511 16.0658777,14.366 C16.1848152,14.2176997 16.2998546,14.0663146 16.4108777,13.912 C16.6495444,13.5806667 16.798211,13.3043333 16.8568777,13.083 C16.8750798,13.0181936 16.8848273,12.9513059 16.8858777,12.884 C17.237211,12.568 17.4918777,12.155 17.6498777,11.645 C17.729211,11.3903333 17.7688777,11.1396667 17.7688777,10.893 C17.7686826,10.6464879 17.7284938,10.4016403 17.6498777,10.168 C17.5600028,9.90585194 17.4189385,9.66417315 17.2348777,9.457 C17.064211,9.26033333 16.851211,9.07566667 16.5958777,8.903 C16.3647099,8.75005693 16.11327,8.63022748 15.8488777,8.547 C15.6048777,8.467 15.3348777,8.406 15.0388777,8.364 C14.7769554,8.32717378 14.5132405,8.30447427 14.2488777,8.29592444 C13.8125881,8.29349194 13.3781848,8.35343287 12.9588777,8.474 C12.7407789,8.53748844 12.5283719,8.61910623 12.3238777,8.718 C11.7517147,8.99396192 11.2268777,9.35881649 10.7688777,9.799 C10.3115444,10.2383333 9.9158777,10.713 9.5818777,11.223 C9.2478777,11.733 8.97554436,12.1986667 8.7648777,12.62 C8.66154436,13.1026667 8.78621103,13.5853333 9.1388777,14.068 Z" id="8"></path>
    <path d="M14.6992422,3.00004095 C15.667242,2.99680743 16.6263244,3.18508937 17.5212422,3.55408297 C18.4172422,3.9234163 19.2082422,4.4244163 19.8942422,5.05708297 C20.5873702,5.70033546 21.1511533,6.47014888 21.5552422,7.32508297 C21.9755301,8.19666995 22.1919937,9.15246131 22.1882902,10.120083 C21.9831061,11.0594195 21.8090115,12.0052671 21.6662422,12.956083 C21.5746395,13.5649623 21.4936272,14.1753878 21.4232422,14.787083 C21.229284,16.4637851 21.0536069,18.1425515 20.8962422,19.823083 C20.7506522,21.363226 20.6486115,22.9071755 20.5902422,24.453083 C20.5863764,24.5530756 20.5827097,24.6530758 20.5792422,24.753083 C20.5546975,25.4906038 20.5353636,26.2282889 20.5212422,26.966083 C20.5079089,27.6654163 20.5009089,28.3277496 20.5002422,28.953083 L20.5009367,29.5111385 C20.5032515,30.219657 20.5113533,30.8619719 20.5252422,31.438083 C20.532238,31.7324858 20.5415716,32.0268284 20.5532422,32.321083 C20.5602348,32.4992612 20.5705699,32.6772925 20.5842422,32.855083 C20.6249089,33.3797496 20.6915756,33.7574163 20.7842422,33.988083 C20.7942457,34.0128546 20.8052548,34.0372082 20.8172422,34.061083 C20.8184022,34.1649947 20.8039063,34.2684886 20.7742422,34.368083 C20.6982422,34.6134163 20.5189089,34.7747496 20.2362422,34.852083 C20.0908378,34.8908803 19.9432402,34.9209341 19.7942422,34.942083 C19.6395756,34.9647496 19.4715756,34.9817496 19.2902422,34.993083 C19.096133,35.0048109 18.9017051,35.0104804 18.7072422,35.0101025 C18.5265109,35.00876 18.3571972,34.921504 18.2512422,34.775083 C18.1039089,34.5917496 17.9922422,34.301083 17.9162422,33.903083 C17.8115756,33.3517496 17.7359089,32.698083 17.6892422,31.942083 C17.6729701,31.6729444 17.6606354,31.4035823 17.6522422,31.134083 C17.6242422,30.2347496 17.6249089,29.2654163 17.6542422,28.226083 C17.6611609,27.9827032 17.6694944,27.7393658 17.6792422,27.496083 C17.7319089,26.1774163 17.7582422,24.9467496 17.7582422,23.804083 C17.7586249,23.4183511 17.7529575,23.032637 17.7412422,22.647083 C17.7299089,22.2857496 17.7129089,21.9494163 17.6902422,21.638083 C17.6737564,21.4103208 17.6524182,21.1829358 17.6262422,20.956083 C17.611395,20.825787 17.5920501,20.6960429 17.5682422,20.567083 C17.4942422,20.1724163 17.3889089,19.9134163 17.2522422,19.790083 C17.2160795,19.7563157 17.1726218,19.731336 17.1252422,19.717083 C15.88517,19.5104463 14.645829,19.299445 13.4072422,19.084083 C12.7179686,18.9671782 12.0412911,18.7853693 11.3862422,18.541083 C10.965702,18.38313 10.5572789,18.194627 10.1642422,17.977083 C9.212208,17.4453564 8.42191149,16.6657722 7.87724223,15.721083 C7.87490502,15.7170852 7.87257168,15.7130852 7.87024223,15.709083 C7.6300564,15.291811 7.4461275,14.8445981 7.32324223,14.379083 C7.2039089,13.9444163 7.11757556,13.4654163 7.06424223,12.942083 C7.02022523,12.4947826 6.99886459,12.0455418 7.00011812,11.596083 C6.9952452,10.579504 7.1411686,9.56781331 7.43324223,8.59408297 C7.46300909,8.495589 7.49434642,8.39757652 7.52724223,8.30008297 C7.82959075,7.39098584 8.2847845,6.54011849 8.87324223,5.78408297 C8.93320097,5.70764084 8.99454444,5.63229506 9.05724223,5.55808297 C9.72342486,4.76849664 10.5505328,4.13026657 11.4832422,3.68608297 C12.1880606,3.35129319 12.9443655,3.13795909 13.7202422,3.05508297 C14.0452698,3.01821471 14.3721304,3.00004095 14.6992422,3.00004095 Z M15.1212422,5.47908297 C14.6249573,5.47493107 14.1296985,5.52489286 13.6442422,5.62808297 C13.0195756,5.76674963 12.4789089,6.0014163 12.0222422,6.33208297 C11.7281165,6.54487726 11.4663945,6.79918886 11.2452422,7.08708297 C10.4292422,8.1464163 10.0162422,9.5054163 10.006194,11.164083 L10.006194,11.227083 C10.0080676,11.7946032 10.0826763,12.3595457 10.2282422,12.908083 C10.2495358,12.9897927 10.2722057,13.0711376 10.2962422,13.152083 C10.4895756,13.802083 10.7795756,14.3997496 11.1662422,14.945083 C11.5424671,15.4800828 12.0277943,15.9292831 12.5902422,16.263083 C13.023282,16.5174369 13.5051031,16.6775896 14.0042422,16.733083 C14.1824635,16.7541195 14.3617841,16.7644713 14.5412422,16.7640935 C14.9018778,16.763506 15.262283,16.7458195 15.6212422,16.711083 C15.9073548,16.6825103 16.1805507,16.5820403 16.4162422,16.419083 C16.4985552,16.3637368 16.5770647,16.3029337 16.6512422,16.237083 C16.6616261,16.1256567 16.6756335,16.014598 16.6932422,15.904083 C16.7525756,15.528083 16.8615756,15.0237496 17.0202422,14.391083 C17.2364977,13.5265931 17.4648535,12.6651753 17.7052422,11.807083 C17.9512422,10.9284163 18.1799089,10.1287496 18.3912422,9.40808297 C18.4276333,9.2832908 18.4633006,9.1582887 18.4982422,9.03308297 C18.6302422,8.56308297 18.6999089,8.26408297 18.7072422,8.13608297 L18.7072422,8.11608297 C18.7060272,7.85853111 18.6355663,7.60604627 18.5032422,7.38508297 C18.4473036,7.28954315 18.3834107,7.19888885 18.3122422,7.11408297 C18.0753931,6.83173715 17.8035379,6.58071634 17.5032422,6.36708297 C17.4568057,6.33393818 17.4097986,6.3016 17.3622422,6.27008297 C16.9945622,6.0246916 16.5956863,5.82962582 16.1762422,5.69008297 C16.0525974,5.64864994 15.9275184,5.61162655 15.8012422,5.57908297 C15.5412422,5.5124163 15.3145756,5.47908297 15.1212422,5.47908297 Z" id="9"></path>
    <path d="M10.951,17.113 L10.793,17.113 C10.5506984,17.1130947 10.3155387,17.0309475 10.126,16.88 C10.0920983,16.8538254 10.0593982,16.8261305 10.028,16.797 C9.832624,16.6151152 9.6645542,16.4059542 9.529,16.176 C9.500772,16.1287011 9.4737631,16.0806853 9.448,16.032 C9.2926799,15.7411578 9.1773061,15.4306913 9.105,15.109 C9.0762197,14.9806548 9.0525345,14.85122 9.034,14.721 C9.0113333,14.5576667 9,14.406 9,14.266 C9.000229,13.9814236 9.0354943,13.6979579 9.105,13.422 C9.1432747,13.2473744 9.2716989,13.1063745 9.442,13.052 C9.51,13.0273333 9.5876667,13.0116667 9.675,13.005 C9.7135811,13.0017334 9.7522809,13.0000653 9.791,13 C10.0237045,13.0010559 10.2528901,13.0568963 10.46,13.163 C10.548416,13.2074997 10.6333266,13.2586467 10.714,13.316 C11.0126667,13.5273333 11.2673333,13.7823333 11.478,14.081 C11.6916687,14.3844998 11.8688869,14.7120849 12.006,15.057 C12.0340263,15.1951027 12.0510795,15.3352067 12.057,15.476 C12.0583333,15.508 12.0590051,15.5396667 12.0590051,15.571 C12.0592476,15.7351162 12.0414744,15.8987634 12.006,16.059 C12.004433,16.0786732 11.9986341,16.0977757 11.989,16.115 C11.9496667,16.197 11.8386667,16.3296667 11.656,16.513 C11.6496797,16.5196791 11.6433464,16.5263457 11.637,16.533 L11.057,17.113 C11.0497516,17.1165171 11.0424159,17.1198514 11.035,17.123 C10.979,17.1476667 10.951,17.1443333 10.951,17.113 Z M9.131,25.502 C9.0773902,25.653162 9.0509822,25.8126258 9.053,25.973 C9.052979,26.0226938 9.0543128,26.0723789 9.057,26.122 C9.0976667,26.8673333 9.4536667,27.24 10.125,27.24 C10.1543447,27.24 10.1836857,27.2393363 10.213,27.238 C10.571,27.238 10.8523333,27.1973333 11.057,27.116 C11.1438035,27.083566 11.2240774,27.0358081 11.294,26.975 C11.3308115,26.94105 11.3633814,26.902772 11.391,26.861 C11.5196667,26.6703333 11.5840191,26.3743333 11.5840191,25.973 C11.5842634,25.8601613 11.5792579,25.7473718 11.569,25.635 C11.557,25.5083333 11.538,25.3916667 11.512,25.285 C11.4860661,25.1764751 11.4481675,25.0711638 11.399,24.971 C11.3391957,24.8516971 11.2403981,24.7564279 11.119,24.701 C11.045,24.6656667 10.9593333,24.6396667 10.862,24.623 C10.76942,24.6081663 10.6757569,24.6011415 10.582,24.602 C10.1953333,24.602 9.8436667,24.725 9.527,24.971 C9.3470483,25.1065997 9.2096428,25.2908479 9.131,25.502 L9.131,25.502 Z" id="10"></path>
</svg>
