
<svg width="30px" height="37px" viewBox="0 0 30 37"  translatex="[0, 0, 22, 40, 56, 78, 92, 110, 132, 156]" version="1.1" xmlns="http://www.w3.org/2000/svg" xmlns:xlink="http://www.w3.org/1999/xlink">
    <path d="M15.908,15.7180401 L15.908,15.8800401 C15.908,16.1680401 15.836,16.3120401 15.692,16.3120401 C15.5765879,16.3124934 15.4716611,16.2451523 15.424,16.1400401 C15.3506667,16.0060401 15.314,15.7933734 15.314,15.5020401 C15.314,15.0700401 15.467,14.7010401 15.773,14.3950401 C16.0756667,14.0923734 16.4926667,13.9393734 17.024,13.9360401 C17.03,13.936021 17.036,13.936021 17.042,13.9360401 C17.4260366,13.9319311 17.8079245,13.9938314 18.171,14.1190401 C18.6445157,14.2882702 19.0652364,14.5789814 19.391,14.9620401 C19.985,15.6460401 20.282,16.4380401 20.282,17.3380401 C20.282,18.7780401 19.796,19.9390401 18.824,20.8210401 C18.0193071,21.5477972 17.0022535,21.9965489 15.923,22.1010401 C15.6670249,22.1300004 15.409608,22.144357 15.152,22.1440401 C14.324,22.1440401 13.469,21.8560401 12.587,21.2800401 C11.705,20.7040401 10.967,19.9930401 10.373,19.1470401 C10.1806409,18.8762041 10.0110604,18.5898907 9.866,18.2910401 C9.61,17.7557068 9.482,17.2400401 9.482,16.7440401 C9.48342517,16.5014239 9.5014674,16.2591903 9.536,16.0190401 C9.57066667,15.7697068 9.62166667,15.5030401 9.689,15.2190401 C9.76216701,14.9144612 9.84622091,14.612601 9.941,14.3140401 C10.176075,13.5758491 10.474866,12.8594867 10.834,12.1730401 C10.9700209,11.9107167 11.1134113,11.6522807 11.264,11.3980401 C11.6848792,10.6796151 12.2050041,10.0241568 12.809,9.45104011 C12.9885535,9.28158805 13.1757483,9.12042032 13.37,8.96804011 C14.198,8.32004011 15.116,7.99604011 16.124,7.99604011 C16.8942784,7.99059313 17.6624302,8.07754738 18.412,8.25504011 C19.4067499,8.48894088 20.3393092,8.93475471 21.146,9.56204011 C22.4053708,10.5547768 23.3921775,11.8509069 24.014,13.3290401 C24.0585415,13.4317252 24.1015463,13.5350701 24.143,13.6390401 C24.7946419,15.2939225 25.1330543,17.0554986 25.141,18.8340401 C25.1416572,18.8933712 25.142,18.9527054 25.142,19.0120401 C25.142,19.4827068 25.1376667,19.9063734 25.129,20.2830401 C25.1254934,20.4444049 25.1208266,20.6057424 25.115,20.7670401 C25.1146748,20.7727072 25.1143415,20.7783739 25.114,20.7840401 C25.098,21.1880401 25.039,21.6473734 24.937,22.1620401 C24.9164691,22.2642781 24.8948011,22.3662844 24.872,22.4680401 C24.8126416,22.7893505 24.7409217,23.1082539 24.657,23.4240401 C24.5683333,23.7600401 24.4623333,24.1173734 24.339,24.4960401 C24.2509091,24.7664777 24.1585643,25.035511 24.062,25.3030401 C23.666,26.4010401 23.144,27.4810401 22.496,28.5430401 C22.0316351,29.3122954 21.470003,30.0184528 20.825,30.6440401 C20.6168374,30.8445357 20.3996103,31.035402 20.174,31.2160401 C19.274,31.9360401 18.248,32.2960401 17.096,32.2960401 C16.2485717,32.293201 15.4030158,32.2162411 14.569,32.0660401 C14.1664573,31.9947816 13.7665437,31.9093956 13.37,31.8100401 C12.074,31.4860401 10.859,30.9730401 9.725,30.2710401 C8.591,29.5690401 7.664,28.6600401 6.944,27.5440401 C6.40209914,26.6685039 5.98570791,25.7212727 5.707,24.7300401 C5.59821561,24.3493179 5.50645785,23.9639353 5.432,23.5750401 C5.27557253,22.7729863 5.15909558,21.9636551 5.083,21.1500401 C5.0286651,20.5649352 5.00096981,19.9776617 5,19.3900401 C5,18.2787068 5.17333333,17.0490401 5.52,15.7010401 C5.54403729,15.6075416 5.56870452,15.5142061 5.594,15.4210401 C6.00023086,13.9400999 6.55539665,12.5041068 7.251,11.1350401 C7.256658,11.1237024 7.26232467,11.1123691 7.268,11.1010401 C7.91177193,9.8176898 8.71184899,8.61891774 9.65,7.53204011 C9.719223,7.45202455 9.78922634,7.37268743 9.86,7.29404011 C10.4131833,6.67503242 11.0363542,6.12233326 11.717,5.64704011 C12.1864101,5.32151281 12.6856471,5.04125701 13.208,4.81004011 C13.3582047,4.75318497 13.5106646,4.70247621 13.665,4.65804011 C13.969,4.56937344 14.3363333,4.48037344 14.767,4.39104011 C14.9758525,4.34824987 15.1852002,4.30791375 15.395,4.27004011 C16.385,4.09004011 17.366,4 18.338,4 C18.6823725,3.99904033 19.0265454,4.01673302 19.369,4.05304011 C19.715,4.09104011 20.0366667,4.14904011 20.334,4.22704011 C20.4162161,4.24840556 20.4979064,4.27174564 20.579,4.29704011 C20.7186874,4.33961609 20.8534464,4.39693896 20.981,4.46804011 C21.343,4.67404011 21.524,4.96804011 21.524,5.35004011 C21.5221372,5.4882932 21.4995527,5.62548535 21.457,5.75704011 C21.375,6.02304011 21.2173333,6.31937344 20.984,6.64604011 C20.9437262,6.69887595 20.8992481,6.7483704 20.851,6.79404011 C20.747,6.89404011 20.6113333,6.99770677 20.444,7.10504011 C20.3857112,7.14296284 20.3260014,7.1786553 20.265,7.21204011 C20.145,7.27670677 20.0406667,7.31837344 19.952,7.33704011 C19.9184728,7.34422973 19.8842892,7.34791619 19.85,7.34804011 C19.764,7.34804011 19.7123333,7.31404011 19.695,7.24604011 C19.6901384,7.22641666 19.6877863,7.20625567 19.688,7.18604011 C19.6884918,7.16487617 19.6908341,7.14379582 19.695,7.12304011 C19.707,7.05637344 19.7356667,6.96437344 19.781,6.84704011 C19.7859307,6.83401356 19.7909308,6.82101338 19.796,6.80804011 C19.86,6.64870677 19.9803333,6.44704011 20.157,6.20304011 C20.1803923,6.17050686 20.2040598,6.13817237 20.228,6.10604011 C20.2827418,6.02376264 20.3113259,5.92685552 20.31,5.82804011 C20.31,5.66737344 20.2436667,5.48137344 20.111,5.27004011 C20.1050691,5.26066254 20.0990689,5.25132895 20.093,5.24204011 C19.903,4.95004011 19.482,4.77637344 18.83,4.72104011 C18.6663381,4.70782615 18.5021936,4.70148724 18.338,4.70204011 C18.1482432,4.70295969 17.9586593,4.71364047 17.77,4.73404011 C17.5746667,4.75470677 17.3643333,4.78470677 17.139,4.82404011 C16.8983861,4.8669431 16.6589666,4.91629419 16.421,4.97204011 C15.8436667,5.10670677 15.181,5.31137344 14.433,5.58604011 C14.1672326,5.6835922 13.9028723,5.78493587 13.64,5.89004011 C12.8270093,6.22017836 12.083911,6.70132604 11.45,7.30804011 C11.2026878,7.54148886 10.9692867,7.78924797 10.751,8.05004011 C9.905,9.05804011 9.185,10.2190401 8.591,11.5330401 C7.997,12.8470401 7.547,14.1880401 7.241,15.5560401 C7.09384287,16.2069538 6.97903539,16.8647607 6.897,17.5270401 C6.82228993,18.1271757 6.78388671,18.7312751 6.782,19.3360401 C6.782,20.4513734 6.80733333,21.7010401 6.858,23.0850401 C6.85964403,23.1313743 6.86131069,23.1777076 6.863,23.2240401 C6.88171207,23.819485 6.96248242,24.4113541 7.104,24.9900401 C7.268621,25.6655011 7.54292968,26.3093833 7.916,26.8960401 C8.852,28.3720401 10.193,29.4610401 11.939,30.1630401 C12.9813218,30.5882207 14.0691618,30.8918898 15.181,31.0680401 C15.8146312,31.1660834 16.4548286,31.2155608 17.096,31.2160401 C17.9060635,31.2181103 18.6860266,30.9092034 19.275,30.3530401 C19.3426876,30.2918362 19.4083882,30.22847 19.472,30.1630401 C19.8728518,29.7473779 20.2281975,29.2901218 20.532,28.7990401 C20.7931827,28.3790296 21.0253891,27.9416796 21.227,27.4900401 C21.713,26.4100401 22.118,25.3030401 22.442,24.1690401 C22.69,23.3010401 22.8853333,22.5227068 23.028,21.8340401 C23.069892,21.6320021 23.1085636,21.4293098 23.144,21.2260401 C23.1826716,21.0072576 23.218009,20.7878988 23.25,20.5680401 C23.2853333,20.3280401 23.3136667,20.1017068 23.335,19.8890401 C23.3444568,19.7948094 23.3527907,19.7004694 23.36,19.6060401 C23.3906667,19.2040401 23.4083333,18.7487068 23.413,18.2400401 C23.4136956,18.1553753 23.4140289,18.0707078 23.414,17.9860401 C23.4186755,17.1176803 23.3517824,16.250412 23.214,15.3930401 C23.0606667,14.4717068 22.819,13.6373734 22.489,12.8900401 C22.2708837,12.3931855 22.0017745,11.9203175 21.686,11.4790401 C20.592,9.95837344 18.8653333,9.15937344 16.506,9.08204011 C16.3787077,9.07796771 16.2513575,9.07596745 16.124,9.07604011 C15.404,9.07604011 14.792,9.36404011 14.288,9.94004011 C13.9812883,10.2943795 13.7180836,10.6841508 13.504,11.1010401 C13.337217,11.4235839 13.1931989,11.7573985 13.073,12.1000401 C12.767,12.9640401 12.542,13.8550401 12.398,14.7730401 C12.3421534,15.1254348 12.295471,15.4792208 12.258,15.8340401 C12.2233333,16.1700401 12.2003333,16.4863734 12.189,16.7830401 C12.1842626,16.9139863 12.1819288,17.0450083 12.182,17.1760401 C12.1852092,17.9067942 12.3613441,18.6264115 12.696,19.2760401 C12.7857049,19.4539997 12.884502,19.6272284 12.992,19.7950401 C13.1571195,20.0605618 13.3610445,20.2998787 13.597,20.5050401 C14.0293498,20.8755781 14.5826886,21.0744954 15.152,21.0640401 C15.6048695,21.0678971 16.0561115,21.0093467 16.493,20.8900401 C17.0810863,20.7280548 17.6213857,20.4265163 18.068,20.0110401 C18.7789598,19.3638843 19.1889913,18.450369 19.2,17.4890401 C19.2015079,17.4387214 19.2021746,17.3883811 19.202,17.3380401 C19.202,16.7260401 18.995,16.1860401 18.581,15.7180401 C18.167,15.2500401 17.654,15.0160401 17.042,15.0160401 C16.8594268,15.0170757 16.6787768,15.0534095 16.51,15.1230401 C16.4329328,15.1542177 16.358091,15.1906362 16.286,15.2320401 C16.034,15.3760401 15.908,15.5380401 15.908,15.7180401 Z" id="0"></path>
    <path d="M23.0380924,2.8640843 C22.6060924,3.7280843 22.1380924,4.6010843 21.6340924,5.4830843 C21.2874257,6.08975096 20.906759,6.7770843 20.4920924,7.5450843 C20.2952885,7.90996354 20.0999536,8.27563317 19.9060924,8.6420843 C19.2900924,9.80541763 18.560759,11.2934176 17.7180924,13.1060843 C17.6733417,13.2020452 17.628675,13.2980452 17.5840924,13.3940843 C16.7200924,15.2660843 15.9460924,17.1830843 15.2620924,19.1450843 C14.892123,20.2017615 14.552649,21.2688702 14.2440924,22.3450843 C14.0230324,23.118017 13.8222966,23.8966184 13.6420924,24.6800843 C13.5137757,25.2356592 13.4037165,25.7952934 13.3120924,26.3580843 C13.1480924,27.3740843 13.0780924,28.272751 13.1020924,29.0540843 C13.6780924,28.8020843 14.2630924,28.6040843 14.8570924,28.4600843 C15.280475,28.3587676 15.7116864,28.293534 16.1460924,28.2650843 C16.3551245,28.2509161 16.5645807,28.243912 16.7740924,28.2440843 C17.0597956,28.2438797 17.3454885,28.2475467 17.6310924,28.2550843 C17.861759,28.261751 18.0790924,28.270751 18.2830924,28.2820843 C18.4733539,28.2927099 18.66339,28.307046 18.8530924,28.3250843 C19.0011756,28.3396034 19.1491778,28.3549369 19.2970924,28.3710843 C19.7510924,28.419751 20.2760924,28.482751 20.8720924,28.5600843 C20.8920931,28.5627455 20.9120931,28.5654122 20.9320924,28.5680843 C21.0147455,28.5858871 21.0910827,28.62561 21.1530924,28.6830843 C21.2410924,28.7604176 21.3204257,28.8750843 21.3910924,29.0270843 C21.5170924,29.2970843 21.5800924,29.5760843 21.5800924,29.8640843 C21.5804512,29.9485934 21.5761112,30.0330571 21.5670924,30.1170843 C21.5264257,30.4804176 21.387759,30.6484176 21.1510924,30.6210843 C21.1500912,30.6207543 21.1490912,30.620421 21.1480924,30.6200843 C20.3560924,30.5480843 19.6810924,30.4760843 19.1230924,30.4040843 C18.898118,30.3754837 18.6723546,30.3534743 18.4460924,30.3380843 C18.042759,30.3100843 17.5934257,30.2960843 17.0980924,30.2960843 C16.6872617,30.295112 16.2766738,30.3161421 15.8680924,30.3590843 C15.6379682,30.383747 15.4088168,30.4167688 15.1810924,30.4580843 C14.5903485,30.566217 14.0055724,30.7047342 13.4290924,30.8730843 C13.4100835,30.8787212 13.3910835,30.8843879 13.3720924,30.8900843 C13.3463477,31.0212326 13.2640032,31.1343191 13.1470924,31.1990843 C13.0987479,31.2275693 13.0474456,31.2507056 12.9940924,31.2680843 C12.782759,31.338751 12.605759,31.305751 12.4630924,31.1690843 C12.4600608,31.166116 12.4570606,31.1631159 12.4540924,31.1600843 C11.6620924,31.4120843 10.8880924,31.7090843 10.1320924,32.0510843 C9.44986518,32.3591301 8.76068515,32.6515398 8.06509237,32.9280843 C7.96221667,32.9690651 7.8592162,33.009732 7.75609237,33.0500843 C7.74342468,33.0624876 7.72848569,33.0723337 7.71209237,33.0790843 C7.68275904,33.0910843 7.64442571,33.098751 7.59709237,33.1020843 C7.57812214,33.1034274 7.55911009,33.1040844 7.54009237,33.1040844 C7.42541347,33.1040844 7.31485503,33.0613277 7.23009237,32.9840843 C7.20577832,32.9627681 7.18305136,32.9397069 7.16209237,32.9150843 C7.05409237,32.7890843 7,32.6540843 7,32.5100843 C6.99853657,32.422841 7.01665153,32.3363678 7.05309237,32.2570843 C7.09509237,32.1690843 7.16209237,32.0954176 7.25409237,32.0360843 C7.29347172,32.0105948 7.33495575,31.9885146 7.37809237,31.9700843 C8.20609237,31.6460843 8.98909237,31.2680843 9.72709237,30.8360843 C10.4650924,30.4040843 11.2120924,29.9900843 11.9680924,29.5940843 C11.9320924,29.3060843 11.9050924,29.0180843 11.8870924,28.7300843 C11.8756266,28.5432594 11.8679584,28.3562208 11.8640924,28.1690843 C11.8614659,28.0501023 11.8601325,27.9310953 11.8600924,27.8120843 C11.8638963,26.9703155 11.9210107,26.1296327 12.0310924,25.2950843 C12.1390924,24.4450843 12.2990924,23.547751 12.5110924,22.6030843 C12.5864662,22.2683254 12.6664739,21.9346267 12.7510924,21.6020843 C13.2166033,19.7869246 13.8104302,18.0071147 14.5280924,16.2760843 C14.7778636,15.6698606 15.0405905,15.0690562 15.3160924,14.4740843 C15.4747243,14.12585 15.6294009,13.7758275 15.7800924,13.4240843 C16.068759,12.7480843 16.2984257,12.1610843 16.4690924,11.6630843 C16.4808921,11.6281288 16.4925588,11.5931285 16.5040924,11.5580843 C16.5936336,11.2901501 16.6819678,11.0218141 16.7690924,10.7530843 C16.8370924,10.5424176 16.900759,10.3420843 16.9600924,10.1520843 C17.0161517,9.97307756 17.0711526,9.79374109 17.1250924,9.6140843 C17.2267803,9.27878006 17.3517507,8.95098332 17.4990924,8.6330843 C17.6079874,8.39736982 17.7264185,8.166179 17.8540924,7.9400843 C17.6599137,8.10510561 17.4583746,8.26126499 17.2500924,8.4080843 C16.9960924,8.58675096 16.7474257,8.73675096 16.5040924,8.8580843 C16.3315766,8.94487992 16.1608734,9.03523256 15.9920924,9.1290843 C15.676759,9.3030843 15.3254257,9.50975096 14.9380924,9.7490843 C14.7442117,9.86980537 14.5534815,9.99551395 14.3660924,10.1260843 C13.8314257,10.4960843 13.1760924,10.9914176 12.4000924,11.6120843 C12.3418965,11.6625019 12.2811498,11.7098977 12.2180924,11.7540843 C12.0814257,11.848751 11.9570924,11.9064176 11.8450924,11.9270843 C11.8144379,11.9329575 11.7833042,11.9359704 11.7520924,11.9360843 C11.7007982,11.9374559 11.6498589,11.9271996 11.6030924,11.9060843 C11.5070924,11.8594176 11.4504257,11.7604176 11.4330924,11.6090843 C11.4294788,11.5742042 11.4278096,11.53915 11.4280924,11.5040843 C11.4269197,11.3897174 11.4410449,11.2757071 11.4700924,11.1650843 C11.5266704,10.9459293 11.6666149,10.7575426 11.8600924,10.6400843 C12.5497177,10.2502594 13.2201616,9.8274359 13.8690924,9.3730843 C14.5384257,8.9070843 15.2300924,8.38541763 15.9440924,7.8080843 C16.186804,7.61157049 16.4274835,7.41255992 16.6660924,7.2110843 C17.6863052,6.34812803 18.6868938,5.46223538 19.6670924,4.5540843 C20.4963035,3.78695375 21.3140605,3.00753424 22.1200924,2.2160843 C22.1742853,2.16071144 22.2362724,2.11354738 22.3040924,2.0760843 C22.39675,2.02571634 22.500631,1.99957411 22.6060924,2 C22.7506015,1.99738127 22.8886661,2.05980409 22.9820924,2.1700843 C23.0023928,2.19311959 23.0211027,2.21750923 23.0380924,2.2430843 C23.0906626,2.3222289 23.1188283,2.41507151 23.1191958,2.5100843 C23.1210924,2.6160843 23.0940924,2.7340843 23.0380924,2.8640843 Z" id="1"></path>
    <path d="M29.2366402,30.762 C29.3754194,30.1579519 29.4432115,29.5397684 29.4388568,28.92 C29.4388568,28.2 29.3036402,27.489 29.0336402,26.787 C28.7636402,26.085 28.3586402,25.491 27.8186402,25.005 C27.5087705,24.7254123 27.1389836,24.5205072 26.7376402,24.406 C26.4217445,24.3169919 26.0948243,24.2732229 25.7666402,24.276 C25.6282045,24.275966 25.4898023,24.2803015 25.3516402,24.289 C23.5763068,24.401 22.6886402,25.2606667 22.6886402,26.868 C22.6886402,27.372 22.7606402,27.858 22.9046402,28.326 C22.9160178,28.3718858 22.9293635,28.417261 22.9446402,28.462 C22.9766402,28.556 23.0153068,28.637 23.0606402,28.705 C23.1647045,28.8762301 23.3523254,28.9788115 23.5526402,28.974 C23.5750123,28.9742733 23.5973819,28.9732717 23.6196402,28.971 C23.7776402,28.9523333 23.8856402,28.8673333 23.9436402,28.716 C23.9642133,28.6598475 23.9779783,28.6014304 23.9846402,28.542 C24.0368795,28.3488812 24.0795977,28.153312 24.1126402,27.956 C24.1534912,27.7118459 24.1828569,27.4659085 24.2006402,27.219 C24.2118408,27.0650301 24.2335581,26.9120064 24.2656402,26.761 C24.3243362,26.475197 24.4301097,26.201132 24.5786402,25.95 C24.6603561,25.8130179 24.7738986,25.6977604 24.9096402,25.614 C25.0303068,25.5386667 25.1719735,25.4843333 25.3346402,25.451 C25.476883,25.4227583 25.6216241,25.4090213 25.7666402,25.41 C26.2406797,25.4025582 26.7020061,25.5634201 27.0686402,25.864 C27.2757256,26.035702 27.4557477,26.2376369 27.6026402,26.463 C27.8255142,26.7970097 27.9973998,27.1623508 28.1126402,27.547 C28.243557,27.9927893 28.3082482,28.4553987 28.3046402,28.92 C28.3047439,29.029705 28.3024099,29.1393987 28.2976402,29.249 C28.2423068,30.4936667 27.8666402,31.464 27.1706402,32.16 C26.4146402,32.916 25.4066402,33.438 24.1466402,33.726 C22.8866402,34.014 21.4826402,34.158 19.9346402,34.158 C19.3075686,34.158506 18.6807298,34.1338194 18.0556402,34.084 C16.7633295,33.985227 15.4842274,33.7567441 14.2376402,33.402 C13.6857211,33.2424698 13.1405941,33.0603159 12.6036402,32.856 C11.3659608,32.3813903 10.1695661,31.8054351 9.02664016,31.134 C8.92107701,31.0736173 8.81704432,31.0105975 8.71464016,30.945 C8.55425664,30.8420031 8.39717778,30.7339488 8.24364016,30.621 C8.17556934,30.5710964 8.10756928,30.5210963 8.03964016,30.471 C7.82801975,30.3148355 7.6170181,30.1578343 7.40664016,30 C7.85740035,29.819686 8.30167529,29.6235646 8.73864016,29.412 C10.2834068,28.6573036 11.7385267,27.7315013 13.0766402,26.652 C13.3078936,26.4615971 13.5405667,26.2729252 13.7746402,26.086 C14.8315078,25.2435223 15.9133243,24.4328269 17.0186402,23.655 C18.4226402,22.665 19.7456402,21.612 20.9876402,20.496 C22.2296402,19.38 23.2376402,18.111 24.0116402,16.689 C24.403945,15.9642226 24.6969085,15.1899378 24.8826402,14.387 C25.080739,13.5214579 25.1780524,12.6359059 25.1726402,11.748 C25.1726402,10.452 24.8486402,9.273 24.2006402,8.211 C24.1499415,8.12818195 24.097935,8.04617168 24.0446402,7.965 C23.4009994,6.98933117 22.5846103,6.13939186 21.6356402,5.457 C20.5736402,4.683 19.4396402,4.08 18.2336402,3.648 C17.937799,3.54191875 17.6379006,3.44751248 17.3346402,3.365 C16.4754375,3.12662813 15.5882877,3.00387995 14.6966402,3 C14.483147,3.0004749 14.2698357,3.01249244 14.0576402,3.036 C13.2509735,3.12333333 12.3659735,3.37233333 11.4026402,3.783 C10.1786402,4.305 9.01764016,4.998 7.91964016,5.862 C7.67442379,6.05479806 7.43530654,6.25522966 7.20264016,6.463 C6.44509588,7.13403821 5.77032623,7.89307015 5.19264016,8.724 C4.47264016,9.768 4.11264016,10.812 4.11264016,11.856 C4.11727721,12.5385792 4.27696442,13.2111804 4.57964016,13.823 C4.79181554,14.256902 5.05175805,14.6657664 5.35464016,15.042 C6.18264016,16.086 7.19064016,16.941 8.37864016,17.607 C8.83893479,17.8682064 9.32230985,18.0864616 9.82264016,18.259 C10.4697208,18.484293 11.1494757,18.6015271 11.8346402,18.606 C12.0103383,18.6057157 12.1859048,18.5963699 12.3606402,18.578 C12.6633068,18.5466667 12.9836402,18.4893333 13.3216402,18.406 C13.668077,18.3191585 14.009855,18.2146892 14.3456402,18.093 C15.2996402,17.751 16.2176402,17.265 17.0996402,16.635 C17.1955126,16.5666456 17.2901935,16.4966351 17.3836402,16.425 C18.1164162,15.8684009 18.7583869,15.2014666 19.2866402,14.448 C19.8626402,13.62 20.1506402,12.72 20.1506402,11.748 C20.1506402,10.668 19.8446402,9.696 19.2326402,8.832 C18.6206402,7.968 17.8466402,7.284 16.9106402,6.78 C15.9746402,6.276 14.9846402,6.024 13.9406402,6.024 C13.5452406,6.02464892 13.1512589,6.07129582 12.7666402,6.163 C12.2735346,6.28204146 11.7971943,6.46209677 11.3486402,6.699 C10.4846402,7.149 9.76464016,7.761 9.18864016,8.535 C8.61264016,9.309 8.32464016,10.218 8.32464016,11.262 C8.32514521,11.4063464 8.33349084,11.5505589 8.34964016,11.694 C8.39030683,12.0673333 8.48097349,12.4903333 8.62164016,12.963 C8.63383192,13.0044774 8.64649942,13.0458134 8.65964016,13.087 C8.84702934,13.6814935 9.14565736,14.2349733 9.53964016,14.718 C9.60501272,14.7981354 9.67513896,14.8742725 9.74964016,14.946 C10.086987,15.2853379 10.546152,15.4754863 11.0246402,15.474 C11.4306402,15.474 11.8899735,15.435 12.4026402,15.357 C12.7280759,15.3069703 13.0518957,15.2469419 13.3736402,15.177 C13.6002567,15.1284231 13.8244977,15.0693596 14.0456402,15 C14.6636194,14.8095949 15.2477703,14.5230876 15.7766402,14.151 C15.7893774,14.1420997 15.8020444,14.1330994 15.8146402,14.124 C16.2006402,13.8406667 16.4736402,13.4946667 16.6336402,13.086 C16.7496901,12.7794331 16.8070208,12.4537677 16.8026402,12.126 C16.8040671,11.9233904 16.7836152,11.721219 16.7416402,11.523 C16.661254,11.1154532 16.4447493,10.7473247 16.1276402,10.479 C15.6776402,10.101 15.2186402,9.714 14.7506402,9.318 C14.5793068,9.17533333 14.4133068,9.129 14.2526402,9.179 C14.2092695,9.19284414 14.1679132,9.21234548 14.1296402,9.237 C14.097016,9.25772609 14.0659348,9.28078633 14.0366402,9.306 C13.9019735,9.422 13.8339735,9.56833333 13.8326402,9.745 C13.8326343,9.74666666 13.8326343,9.74833334 13.8326402,9.75 C13.8326402,9.93 13.8866402,10.074 13.9946402,10.182 C14.0649094,10.2435168 14.1359145,10.3041878 14.2076402,10.364 C14.3316402,10.4673333 14.4653068,10.5746667 14.6086402,10.686 C14.7535617,10.798849 14.8999067,10.9098579 15.0476402,11.019 C15.1426311,11.0887375 15.2310037,11.1670677 15.3116402,11.253 C15.540527,11.4859187 15.6687375,11.7994418 15.6686402,12.126 C15.6697664,12.2598295 15.6556759,12.3933534 15.6266402,12.524 C15.5543817,12.8735338 15.3190139,13.1672788 14.9936402,13.314 C14.7531366,13.428176 14.5000757,13.5137603 14.2396402,13.569 C13.9724839,13.6257956 13.7006753,13.6579306 13.4276402,13.665 C13.2499916,13.6703338 13.0723237,13.6750005 12.8946402,13.679 C12.5213068,13.6876667 12.1859735,13.692 11.8886402,13.692 C11.6633068,13.692 11.4249735,13.618 11.1736402,13.47 C11.0552716,13.3994611 10.9422953,13.320244 10.8356402,13.233 C10.4576402,12.927 10.1336402,12.576 9.86364016,12.18 C9.66964016,11.8953333 9.54530683,11.6573333 9.49064016,11.466 C9.47061865,11.3998007 9.45984994,11.3311502 9.45864016,11.262 C9.45079955,10.6069301 9.62530171,9.96258778 9.96264016,9.401 C10.2101609,8.99974074 10.5235517,8.64307705 10.8896402,8.346 C11.106658,8.16497662 11.3362332,7.99956219 11.5766402,7.851 C12.2836351,7.401942 13.1030955,7.16171947 13.9406402,7.158 C15.2006402,7.158 16.2896402,7.59 17.2076402,8.454 C18.1256402,9.318 18.5846402,10.38 18.5846402,11.64 C18.5843491,12.2402659 18.4443201,12.8322223 18.1756402,13.369 C17.97463,13.7690903 17.7217881,14.1409563 17.4236402,14.475 C16.6496402,15.357 15.7406402,16.077 14.6966402,16.635 C14.5237449,16.7278004 14.3479925,16.8151763 14.1696402,16.897 C13.7883068,17.071 13.4199735,17.2053333 13.0646402,17.3 C12.6639114,17.4108049 12.2503924,17.4686304 11.8346402,17.472 C11.7832917,17.4720519 11.7319476,17.4710517 11.6806402,17.469 C10.8306402,17.4343333 9.97297349,17.1113333 9.10764016,16.5 C8.18964016,15.852 7.42464016,15.042 6.81264016,14.07 C6.20064016,13.098 5.89464016,12.162 5.89464016,11.262 C5.8977398,10.7600048 5.99509401,10.2630573 6.18164016,9.797 C6.32758768,9.42991982 6.51194622,9.07930339 6.73164016,8.751 C6.95359726,8.41541097 7.19816373,8.09533627 7.46364016,7.793 C7.90447191,7.29339998 8.39164897,6.83669241 8.91864016,6.429 C9.81864016,5.727 10.7816402,5.169 11.8076402,4.755 C12.2478094,4.57542253 12.7011485,4.42999297 13.1636402,4.32 C13.6658155,4.19941123 14.1801978,4.13700085 14.6966402,4.134 C14.8700813,4.13402438 15.043486,4.13902644 15.2166402,4.149 C16.3688542,4.204507 17.4931437,4.52260533 18.5036402,5.079 C19.6376402,5.709 20.5466402,6.573 21.2306402,7.671 C21.5514993,8.18659773 21.7991987,8.74425778 21.9666402,9.328 C22.1640518,10.0274383 22.2616827,10.751254 22.2566402,11.478 C22.2585272,12.0995926 22.2127262,12.720414 22.1196402,13.335 C21.9813071,14.2743891 21.6996992,15.1870012 21.2846402,16.041 C20.6366402,17.355 19.7996402,18.534 18.7736402,19.578 C17.7476402,20.622 16.6316402,21.603 15.4256402,22.521 C14.2196402,23.439 13.0406402,24.366 11.8886402,25.302 C11.6191791,25.5216888 11.3464826,25.7373791 11.0706402,25.949 C10.4009621,26.4640108 9.71002424,26.95077 8.99964016,27.408 C8.04564016,28.02 7.04664016,28.578 6.00264016,29.082 C5.94250016,29.048688 5.88182557,29.0163505 5.82064016,28.985 C5.56624736,28.8533246 5.30214137,28.7413302 5.03064016,28.65 C5.02564446,28.6483205 5.02064444,28.6466538 5.01564016,28.645 C4.6891333,28.5392369 4.34784483,28.4862376 4.00464016,28.488 C3.90342083,28.4883011 3.80252038,28.4993633 3.70364016,28.521 C3.53897349,28.5563333 3.37230683,28.6206667 3.20364016,28.714 C3.05720664,28.796889 2.91863335,28.8929531 2.78964016,29.001 C2.37564016,29.343 2.00664016,29.73 1.68264016,30.162 C1.61290977,30.2547044 1.54588162,30.3494108 1.48164016,30.446 C1.26764016,30.7693333 1.11864016,31.0706667 1.03464016,31.35 C0.946640159,31.7613333 1.02630683,32.005 1.27364016,32.081 C1.33638765,32.0988101 1.40142572,32.1072347 1.46664016,32.106 C1.48064599,32.1059903 1.49464973,32.1056569 1.50864016,32.105 C1.59797349,32.101 1.67397349,32.0833333 1.73664016,32.052 C2.45664016,31.8 3.16764016,31.557 3.86964016,31.323 C3.95705858,31.2939206 4.04439228,31.2645871 4.13164016,31.235 C4.72386496,31.0340845 5.31166942,30.8203677 5.89464016,30.594 C6.39864016,30.846 6.88464016,31.116 7.35264016,31.404 C7.82064016,31.692 8.19864016,31.926 8.48664016,32.106 C10.2866402,33.15 12.0956402,34.113 13.9136402,34.995 C14.5394108,35.2984126 15.1889,35.5502485 15.8556402,35.748 C17.1805364,36.1344966 18.5545469,36.3265011 19.9346402,36.3182704 C19.9853082,36.3179232 20.0359755,36.3175899 20.0866402,36.317 C21.5996454,36.3102241 23.1004424,36.0457754 24.5246402,35.535 C24.6804929,35.4786279 24.8348768,35.4182748 24.9876402,35.354 C26.1739872,34.8675344 27.2276398,34.1059156 28.0616402,33.132 C28.6371804,32.4473194 29.0401161,31.6345895 29.2366402,30.762 L29.2366402,30.762 Z" id="2"></path>
    <path d="M12.612228,9.102 L12.666228,9.102 C12.8695614,9.102 13.0088947,9.13733333 13.084228,9.208 C13.1295715,9.25024211 13.1543765,9.31006613 13.152228,9.372 C13.152228,9.56866667 12.9885614,9.70566667 12.661228,9.783 C12.6270828,9.79089275 12.5927378,9.79789512 12.558228,9.804 C11.946228,9.84 11.334228,9.939 10.722228,10.101 C10.110228,10.263 9.49822805,10.344 8.88622805,10.344 C8.7018811,10.3466674 8.51798019,10.3251507 8.33922805,10.28 C7.86922805,10.1533333 7.59256138,9.84066667 7.50922805,9.342 C7.49065059,9.2269426 7.48161982,9.11054595 7.48222805,8.994 C7.48222805,8.022 7.85122805,7.158 8.58922805,6.402 C9.11173127,5.87173878 9.7014089,5.41216676 10.343228,5.035 C10.6670429,4.84304219 11.0008487,4.66846175 11.343228,4.512 C12.3751283,4.03468188 13.452595,3.66279506 14.559228,3.402 C14.5942006,3.3938803 14.6292008,3.38588026 14.664228,3.378 C15.780228,3.126 16.716228,3 17.472228,3 C17.7737528,3.00065334 18.0752017,3.00965679 18.376228,3.027 C18.708228,3.045 19.0595614,3.073 19.430228,3.111 C19.6598531,3.13435876 19.8892017,3.16036049 20.118228,3.189 C21.126228,3.315 22.089228,3.558 23.007228,3.918 C23.5431807,4.12467367 24.0500731,4.39996869 24.515228,4.737 C24.7980901,4.94358617 25.0615151,5.17554751 25.302228,5.43 C25.7241775,5.88187649 26.0098225,6.44380693 26.126228,7.051 C26.1907192,7.3705953 26.2222178,7.69596886 26.220228,8.022 C26.222063,8.27432789 26.1989506,8.52621927 26.151228,8.774 C26.0618947,9.21866667 25.8868947,9.589 25.626228,9.885 C25.230228,10.335 24.816228,10.83 24.384228,11.37 C23.376228,12.522 22.242228,13.404 20.982228,14.016 C22.746228,14.628 24.222228,15.618 25.410228,16.986 C26.1858476,17.8915453 26.7197474,18.9786093 26.962228,20.146 C27.1204162,20.8820349 27.1975424,21.6331769 27.192228,22.386 C27.2024471,23.5685174 26.9858718,24.7420298 26.554228,25.843 C26.3594278,26.3310627 26.121135,26.8006201 25.842228,27.246 C24.942228,28.686 23.781228,29.901 22.359228,30.891 C20.937228,31.881 19.434228,32.637 17.850228,33.159 C17.1223721,33.401758 16.3785973,33.5938831 15.624228,33.734 C14.8979609,33.8692995 14.160984,33.938914 13.422228,33.942 C11.730228,33.942 10.083228,33.717 8.48122805,33.267 C7.64618004,33.0388306 6.84808782,32.6923172 6.11122805,32.238 C5.5329869,31.8775324 5.00448583,31.4428302 4.53922805,30.945 C3.55122805,29.8876667 3.03889471,28.4543333 3.00222805,26.645 C3.00086126,26.5753418 3,26.5056716 3,26.436 C2.99270741,25.4097276 3.17125989,24.3905894 3.52722805,23.428 C3.62599456,23.1649548 3.73848223,22.9072679 3.86422805,22.656 C4.44022805,21.504 5.25022805,20.586 6.29422805,19.902 C7.12899787,19.3608151 8.08051384,19.0259335 9.07022805,18.925 C9.36773907,18.8918719 9.66687867,18.8755127 9.96622805,18.876 C10.5400069,18.8716355 11.111566,18.9477088 11.664228,19.102 C12.2494037,19.2676783 12.7994192,19.5387888 13.287228,19.902 C14.205228,20.586 14.916228,21.459 15.420228,22.521 C15.8828055,23.4762825 16.1393551,24.5181536 16.173228,25.579 C16.1752144,25.648649 16.1762145,25.7183227 16.176228,25.788 C16.1909198,26.6965974 15.8220782,27.5693288 15.160228,28.192 C15.1129779,28.2378247 15.0646305,28.2825043 15.015228,28.326 C14.7914369,28.5260852 14.5512622,28.7070525 14.297228,28.867 C13.777228,29.1903333 13.2695614,29.352 12.774228,29.352 C12.2381955,29.3538034 11.7266642,29.127668 11.367228,28.73 C11.2263891,28.5812244 11.1007654,28.418751 10.992228,28.245 C10.7460669,27.8632533 10.5580123,27.4470392 10.434228,27.01 C10.3385296,26.6648011 10.2900882,26.3082184 10.290228,25.95 C10.290228,25.59 10.353228,25.248 10.479228,24.924 C10.5388324,24.7675172 10.6199453,24.6201004 10.720228,24.486 C10.8121233,24.364067 10.9220499,24.256838 11.046228,24.168 C11.3555614,23.962 11.5498947,23.8543333 11.629228,23.845 C11.6328711,23.8444442 11.6365445,23.8441103 11.640228,23.844 C11.6682867,23.8424162 11.6958729,23.851731 11.717228,23.87 C11.793228,23.94 11.762228,24.1496667 11.624228,24.499 C11.6033852,24.5510083 11.5817157,24.6026815 11.559228,24.654 C11.325228,25.194 11.208228,25.77 11.208228,26.382 C11.2060282,26.6461945 11.2510698,26.9086553 11.341228,27.157 C11.3912129,27.2919955 11.4552303,27.421371 11.532228,27.543 C11.6327523,27.6977034 11.7650072,27.8292766 11.920228,27.929 C12.0408947,28.009 12.1805614,28.0796667 12.339228,28.141 C12.4811319,28.1943557 12.6264589,28.2381208 12.774228,28.272 C13.206228,28.38 13.692228,28.164 14.232228,27.624 C14.446165,27.4142668 14.6269048,27.173168 14.768228,26.909 C14.9500636,26.5634401 15.0441581,26.1784767 15.042228,25.788 C15.042228,24.816 14.826228,23.88 14.394228,22.98 C14.0883984,22.3303506 13.6664741,21.7420288 13.149228,21.244 C12.9798715,21.0825446 12.8005167,20.9319132 12.612228,20.793 C11.9049658,20.2726252 11.0550274,19.981866 10.177228,19.96 C10.1069281,19.9572724 10.0365809,19.9559388 9.96622805,19.956 C8.31022805,19.956 7.04122805,20.586 6.15922805,21.846 C5.64885989,22.5869213 5.28560825,23.4190052 5.08922805,24.297 C4.94189471,24.927 4.85889471,25.6066667 4.84022805,26.336 C4.83756213,26.4413122 4.83622869,26.546654 4.83622805,26.652 C4.83306805,27.1485602 4.87591782,27.6443454 4.96422805,28.133 C5.13289471,29.0323333 5.46822805,29.7806667 5.97022805,30.378 C6.72622805,31.278 7.75222805,31.908 9.04822805,32.268 C9.80387365,32.4746596 10.5750866,32.619471 11.354228,32.701 C12.0411283,32.7739225 12.7314698,32.8096413 13.422228,32.808 C15.222228,32.808 16.941228,32.349 18.579228,31.431 C20.217228,30.513 21.567228,29.253 22.629228,27.651 C23.6293392,26.1354018 24.179587,24.3674662 24.216228,22.552 C24.2203147,22.424708 24.2223149,22.2973576 24.222228,22.17 C24.2260344,21.5204668 24.1745149,20.8717894 24.068228,20.231 C23.9468947,19.525 23.753228,18.8896667 23.487228,18.325 C23.300569,17.924398 23.0669281,17.5474172 22.791228,17.202 C22.0449574,16.2811317 21.0637012,15.5790498 19.951228,15.17 C19.5831204,15.0298948 19.2059183,14.9149634 18.822228,14.826 C18.2213615,14.9689719 17.6111926,15.0695528 16.996228,15.127 C16.4364549,15.1796652 15.8744716,15.2053616 15.312228,15.204 C15.2868702,15.2037675 15.2615253,15.202767 15.236228,15.201 C15.1095614,15.193 14.8948947,15.1686667 14.592228,15.128 C14.5802271,15.1263401 14.5682271,15.1246735 14.556228,15.123 C14.160228,15.069 13.782228,14.979 13.422228,14.853 C13.3502334,14.8282793 13.2800613,14.7985397 13.212228,14.764 C12.992228,14.65 12.882228,14.5086667 12.882228,14.34 C12.882228,14.21 12.9705614,14.0796667 13.147228,13.949 C13.1665704,13.9348725 13.1862425,13.921202 13.206228,13.908 C13.5335614,13.646 13.9575614,13.4733333 14.478228,13.39 C14.5310839,13.3816605 14.5840935,13.3743258 14.637228,13.368 C14.8375399,13.3437382 15.0382331,13.3227354 15.239228,13.305 C15.4278947,13.2883333 15.6035614,13.2763333 15.766228,13.269 C15.8848133,13.2633605 16.0035093,13.2603598 16.122228,13.26 C16.950228,13.26 17.760228,13.314 18.552228,13.422 C19.459403,13.0431689 20.3050312,12.5312083 21.061228,11.903 C21.4414067,11.5843176 21.7943003,11.2344345 22.116228,10.857 C23.052228,9.759 23.520228,8.67 23.520228,7.59 C23.5184108,6.92834253 23.2772294,6.28969137 22.841228,5.792 C22.6336873,5.54715911 22.3995843,5.32613643 22.143228,5.133 C21.808066,4.88513725 21.4362534,4.69113344 21.041228,4.558 C20.1418947,4.23933333 18.952228,4.08 17.472228,4.08 C16.896228,4.08 16.122228,4.197 15.150228,4.431 C14.3970263,4.61424955 13.6564777,4.84606765 12.933228,5.125 C12.6802576,5.2217325 12.4292093,5.32341874 12.180228,5.43 C11.7041645,5.63205743 11.2427195,5.8669567 10.799228,6.133 C10.3904004,6.3781225 10.003319,6.65781135 9.64222805,6.969 C9.42146594,7.15734635 9.22526057,7.3727019 9.05822805,7.61 C8.77060603,8.01416925 8.61610816,8.4979363 8.61622805,8.994 C8.61917333,9.0834765 8.67049509,9.16428913 8.75022805,9.205 C8.89489471,9.29633333 9.15689471,9.35033333 9.53622805,9.367 C9.62551492,9.37059747 9.71486912,9.37226453 9.80422805,9.372 C10.1022086,9.37150146 10.4000723,9.36016062 10.697228,9.338 C10.949114,9.31933202 11.2005189,9.29465834 11.451228,9.264 C11.9365614,9.20533333 12.2835614,9.15866667 12.492228,9.124 C12.5323421,9.11730308 12.5723472,9.10996882 12.612228,9.102 L12.612228,9.102 Z" id="3"></path>
    <path d="M17.2441422,20.928 L17.2441422,20.496 C16.5214804,20.5646657 15.7991394,20.6366665 15.0771422,20.712 C14.4220772,20.780331 13.7674003,20.8523321 13.1131422,20.928 C12.531707,20.9943465 11.9484585,21.0437008 11.3641422,21.076 C10.7634756,21.11 10.1261422,21.1313333 9.45214222,21.14 C9.22348629,21.1427813 8.99481504,21.1441146 8.76614222,21.144 C8.29814222,21.144 7.78514222,21.135 7.22714222,21.117 C6.79330051,21.1030724 6.35961147,21.0847381 5.92614222,21.062 C5.7747825,21.0538005 5.62344844,21.0451338 5.47214222,21.036 C5.41440045,21.0344704 5.35744076,21.0222647 5.30414222,21 C5.15214222,20.9413333 4.96614222,20.8096667 4.74614222,20.605 C4.73610122,20.5957107 4.72610112,20.5863773 4.71614222,20.577 C4.48510735,20.3576414 4.2664371,20.1256172 4.06114222,19.882 C3.96180654,19.7648537 3.86511548,19.6454902 3.77114222,19.524 C3.66274673,19.3843849 3.55934812,19.2409611 3.46114222,19.094 C3.36514222,18.95 3.28180889,18.8113333 3.21114222,18.678 C3.1700068,18.6014086 3.13164851,18.5233578 3.09614222,18.444 C2.95747556,18.1326667 2.96880889,17.9543333 3.13014222,17.909 C3.13674255,17.9070784 3.14341412,17.9054105 3.15014222,17.904 C3.80142592,17.7013709 4.41813342,17.4009409 4.97914222,17.013 C5.52247556,16.6443333 6.05580889,16.1853333 6.57914222,15.636 C7.32640859,14.8478198 8.01775493,14.0084472 8.64814222,13.124 C9.00059074,12.631283 9.3370981,12.1273557 9.65714222,11.613 C10.528379,10.2193577 11.3443457,8.79191638 12.1031422,7.334 C12.1520728,7.23946926 12.2007397,7.14480223 12.2491422,7.05 C12.521929,6.5168297 12.7982685,5.98548455 13.0781422,5.456 C13.2968089,5.042 13.5058089,4.653 13.7051422,4.289 C13.8916935,3.94760309 14.0813682,3.60792218 14.2741422,3.27 C14.3147963,3.20004468 14.370051,3.13967381 14.4361422,3.093 C14.5254756,3.031 14.6334756,3 14.7601422,3 C14.8908487,3.00060278 15.0175882,3.04496159 15.1201422,3.126 C15.1658858,3.16076376 15.2080899,3.19995336 15.2461422,3.243 C15.2760245,3.27587486 15.3009534,3.31293136 15.3201422,3.353 C15.3761422,3.47366667 15.3631422,3.60733333 15.2811422,3.754 C15.2701893,3.77310338 15.2585142,3.79178353 15.2461422,3.81 C14.7978883,4.61368469 14.3568705,5.42138402 13.9231422,6.233 C13.4573232,7.10474067 12.9983092,7.98010061 12.5461422,8.859 C11.6101422,10.677 10.5661422,12.396 9.41414222,14.016 C8.59705909,15.1770378 7.63530791,16.2291842 6.55214222,17.147 C6.18799278,17.4530527 5.80956988,17.7417086 5.41814222,18.012 C7.65014222,18.192 9.67514222,18.39 11.4931422,18.606 C12.6725695,18.7452613 13.8548397,18.8592873 15.0391422,18.948 C15.7915688,19.0046076 16.544618,19.0526108 17.2981422,19.092 C17.4781422,17.076 17.8111422,15.096 18.2971422,13.152 C18.7831422,11.208 19.2961422,9.246 19.8361422,7.266 C19.8681478,7.17477533 19.922869,7.09320969 19.9951422,7.029 C20.0984756,6.93366667 20.2448089,6.85066667 20.4341422,6.78 C20.4596565,6.77057126 20.4853268,6.76157 20.5111422,6.753 C20.8891422,6.627 21.2581422,6.564 21.6181422,6.564 C22.1901422,6.564 22.4478089,6.68966667 22.3911422,6.941 C22.3867401,6.95970056 22.3810601,6.97807705 22.3741422,6.996 C21.9061422,8.832 21.3481422,10.812 20.7001422,12.936 C20.2273452,14.4756454 19.8420625,16.0408146 19.5461422,17.624 C19.4524031,18.1295692 19.3690522,18.6370094 19.2961422,19.146 C19.6921422,19.146 20.0971422,19.155 20.5111422,19.173 C20.9251422,19.191 21.3481422,19.2 21.7801422,19.2 C22.1710857,19.2015613 22.5618759,19.1842077 22.9511422,19.148 C23.7271422,19.072 24.3498089,18.9143333 24.8191422,18.675 C24.9879968,18.5901105 25.1461153,18.4853696 25.2901422,18.363 C25.8773311,17.8694799 26.2282663,17.150535 26.2561422,16.384 C26.260151,16.3147392 26.2621519,16.2453767 26.2621422,16.176 C26.2614259,16.0266438 26.2527469,15.877432 26.2361422,15.729 C26.2028089,15.4203333 26.1381422,15.0616667 26.0421422,14.653 C26.025963,14.5845487 26.0092959,14.5162136 25.9921422,14.448 C25.9920223,14.4379315 25.9910184,14.4278929 25.9891422,14.418 C25.9858089,14.3966667 25.9778089,14.3796667 25.9651422,14.367 C25.9471422,14.349 25.9381422,14.322 25.9381422,14.286 C25.937484,14.2299647 25.9445505,14.174106 25.9591422,14.12 C25.9854568,14.0231322 26.0449059,13.9385588 26.1271422,13.881 C26.1955071,13.8314725 26.2719864,13.794248 26.3531422,13.771 C26.4113775,13.7544853 26.4716106,13.7460729 26.5321422,13.746 C26.6193855,13.7444442 26.7058587,13.7625592 26.7851422,13.799 C26.8731422,13.841 26.9468089,13.908 27.0061422,14 C27.0316317,14.0393794 27.0537119,14.0808634 27.0721422,14.124 C27.1492376,14.3921025 27.2149629,14.6633447 27.2691422,14.937 C27.3244756,15.219 27.3618089,15.486 27.3811422,15.738 C27.3909647,15.8657661 27.396166,15.993857 27.396166,16.122 C27.396166,16.133 27.396166,16.144 27.396166,16.155 C27.3881422,17.5423333 26.8751422,18.5753333 25.8571422,19.254 C25.0011422,19.8246667 23.9138089,20.1573333 22.5951422,20.252 C22.323897,20.271062 22.0520561,20.2804014 21.7801422,20.28 C21.4390857,20.279783 21.0980458,20.2847836 20.7571422,20.295 C20.648121,20.298399 20.5391193,20.302399 20.4301422,20.307 C20.1162928,20.3204582 19.8022562,20.3291259 19.4881422,20.333 C19.3881448,20.3338882 19.2881433,20.3342215 19.1881422,20.334 C19.1684537,20.4694114 19.153777,20.6055043 19.1441422,20.742 C19.1374853,20.8398587 19.1341501,20.9379151 19.1341422,21.036 L19.1341422,21.684 C19.1332897,22.4659352 19.107944,23.2476519 19.0581422,24.028 C19.0410708,24.2998483 19.0214032,24.5715274 18.9991422,24.843 C18.9110427,25.9037374 18.8660057,26.9676119 18.8641422,28.032 C18.8641395,28.04 18.8641395,28.048 18.8641422,28.056 C18.8638687,28.4688517 18.8738718,28.8816462 18.8941422,29.294 C18.9008445,29.4304064 18.9088449,29.5667459 18.9181422,29.703 C18.9541422,30.225 19.0441422,30.738 19.1881422,31.242 C19.1882027,31.2524028 19.1892068,31.2627787 19.1911422,31.273 C19.1944756,31.2936667 19.2024756,31.3103333 19.2151422,31.323 C19.2318089,31.3396667 19.2408089,31.3796667 19.2421422,31.443 C19.2421893,31.4479999 19.2421893,31.4530001 19.2421422,31.458 C19.2421422,31.8133333 19.0498089,31.9933333 18.6651422,31.9981921 C18.6594756,31.9981921 18.6538088,31.9981921 18.6481422,31.9981921 C18.4797457,32.0026484 18.3202025,31.9226892 18.2231422,31.785 C18.1838089,31.7323333 18.1494756,31.67 18.1201422,31.598 C18.1159848,31.587393 18.1119843,31.5767252 18.1081422,31.566 C17.9765204,31.0352758 17.8660995,30.4995174 17.7771422,29.96 C17.6789186,29.364066 17.6002099,28.7650792 17.5411422,28.164 C17.4151422,26.904 17.3341422,25.635 17.2981422,24.357 C17.2818605,23.7877463 17.2688603,23.2184035 17.2591422,22.649 C17.2504756,22.1136667 17.2454756,21.6076667 17.2441422,21.131 C17.2440633,21.0633334 17.2440633,20.9956666 17.2441422,20.928 L17.2441422,20.928 Z" id="4"></path>
    <path d="M24.248,8.35120566 L24.194,8.35120566 L9.722,6.40720566 C9.4958878,6.40673567 9.26980451,6.41240442 9.044,6.42420566 C8.51066667,6.45353899 8.08866667,6.51987232 7.778,6.62320566 C7.85,7.16320566 7.904,7.65820566 7.94,8.10820566 C7.976,8.55820566 7.994,9.03520566 7.994,9.53920566 C7.99645708,10.1679513 7.92972216,10.7950583 7.795,11.4092057 C7.77317136,11.5063131 7.74950042,11.6029972 7.724,11.6992057 C7.544,12.3832057 7.292,13.0492057 6.968,13.6972057 C8.3901579,13.0156297 9.86910643,12.4595183 11.388,12.0352057 C11.4356283,12.0220654 11.4832952,12.0090653 11.531,11.9962057 C12.4230678,11.7585247 13.3325887,11.5920021 14.251,11.4982057 C15.0606039,11.4143632 15.8740685,11.3733061 16.688,11.3752057 C17.8244371,11.368574 18.956705,11.513176 20.055,11.8052057 C20.6883286,11.9763661 21.3053734,12.2029058 21.899,12.4822057 C23.465,13.2202057 24.707,14.2822057 25.625,15.6682057 C26.2678987,16.6511793 26.6918212,17.760949 26.868,18.9222057 C26.9592777,19.4980071 27.0040889,20.0802181 27.002,20.6632057 C27.0103877,21.7526347 26.867696,22.8379665 26.578,23.8882057 C26.2839081,24.9359397 25.8157125,25.9267564 25.193,26.8192057 C23.96794,28.562533 22.382464,30.0221668 20.544,31.0992057 C20.5366699,31.1035445 20.5293366,31.1078778 20.522,31.1122057 C18.614,32.2462057 16.562,33.0922057 14.366,33.6502057 C13.0483531,33.9890593 11.7073169,34.2293896 10.354,34.3692057 C9.58778494,34.4470071 8.81815447,34.4863897 8.048,34.4872057 C7.75928047,34.4856025 7.47098364,34.4648906 7.185,34.4252057 C6.89166667,34.386539 6.57966667,34.3288723 6.249,34.2522057 C6.02832469,34.2008664 5.80892686,34.144183 5.591,34.0822057 C4.90291168,33.8918857 4.24679653,33.6007283 3.644,33.2182057 C3.44905709,33.0931465 3.26079914,32.9579613 3.08,32.8132057 C2.36,32.2372057 2,31.5352057 2,30.7072057 C2,29.5192057 2.324,28.4482057 2.972,27.4942057 C3.55545982,26.6422181 4.27704187,25.8935978 5.107,25.2792057 C5.23038704,25.1868493 5.35574946,25.0971618 5.483,25.0102057 C6.509,24.3082057 7.589,23.7682057 8.723,23.3902057 C9.27917186,23.202535 9.84881569,23.0574496 10.427,22.9562057 C10.9253282,22.8692358 11.430142,22.8247426 11.936,22.8232057 C12.872,22.8232057 13.754,22.9852057 14.582,23.3092057 C15.41,23.6332057 15.824,24.2992057 15.824,25.3072057 C15.8253746,25.550999 15.8066445,25.7944907 15.768,26.0352057 C15.7253333,26.292539 15.6576667,26.5218723 15.565,26.7232057 C15.4617946,26.955095 15.310843,27.1626109 15.122,27.3322057 C14.7810345,27.6307336 14.3936015,27.8715703 13.975,28.0452057 C13.7855493,28.1249467 13.5915431,28.1933998 13.394,28.2502057 C12.7353452,28.4423218 12.0921751,28.6840121 11.47,28.9732057 C11.4272393,28.9930043 11.3845721,29.0130046 11.342,29.0332057 C11.126,29.1412057 10.91,29.1952057 10.694,29.1952057 C10.442,29.1952057 10.181,29.1502057 9.911,29.0602057 C9.641,28.9702057 9.362,28.9072057 9.074,28.8712057 C9.00919757,28.8721323 8.9445804,28.8640552 8.882,28.8472057 C8.738,28.8058723 8.647,28.7118723 8.609,28.5652057 C8.59440455,28.5063373 8.58734805,28.4458529 8.588,28.3852057 C8.58714142,28.3016009 8.60032464,28.2184453 8.627,28.1392057 C8.65413745,28.0610553 8.69587776,27.9887733 8.75,27.9262057 C8.85,27.809539 8.981,27.762539 9.143,27.7852057 C9.15605706,27.7868153 9.1690629,27.7888162 9.182,27.7912057 L10.964,27.9532057 C11.1545916,27.864322 11.3455937,27.776321 11.537,27.6892057 C11.837,27.552539 12.105,27.433539 12.341,27.3322057 C12.5440372,27.2468755 12.7331379,27.1315949 12.902,26.9902057 C13.0268299,26.8846943 13.1377211,26.7637221 13.232,26.6302057 C13.418,26.367539 13.524,25.951539 13.55,25.3822057 C13.5542175,25.2852641 13.556218,25.1882387 13.556,25.0912057 C13.5563854,24.9864835 13.5537176,24.8817723 13.548,24.7772057 C13.53,24.4778723 13.4846667,24.2688723 13.412,24.1502057 C13.3993042,24.1291897 13.3842023,24.1097251 13.367,24.0922057 C13.3290478,24.0587961 13.2843789,24.0339043 13.236,24.0192057 C13.0253333,23.944539 12.614,23.9058723 12.002,23.9032057 C11.98,23.9031596 11.958,23.9031596 11.936,23.9032057 C10.712,23.9032057 9.497,24.1642057 8.291,24.6862057 C7.36479421,25.0789628 6.52051701,25.6420404 5.802,26.3462057 C5.62370517,26.5224502 5.45416789,26.7073393 5.294,26.9002057 C4.502,27.8542057 4.106,28.9792057 4.106,30.2752057 C4.106,31.0672057 4.538,31.7872057 5.402,32.4352057 C5.73053786,32.6854316 6.08690379,32.8968352 6.464,33.0652057 C6.96237922,33.2884009 7.50192985,33.4048947 8.048,33.4072057 C10.028,33.4072057 11.945,33.1192057 13.799,32.5432057 C15.653,31.9672057 17.318,31.1212057 18.794,30.0052057 C20.27,28.8892057 21.44,27.5212057 22.304,25.9012057 C22.9361651,24.7004856 23.3406436,23.3931352 23.497,22.0452057 C23.5664567,21.4792049 23.6008556,20.9094515 23.6,20.3392057 C23.6035046,19.6055655 23.5570639,18.8725377 23.461,18.1452057 C23.2536667,16.6352057 22.814,15.413539 22.142,14.4802057 C21.6716911,13.8453247 21.0338627,13.3539683 20.3,13.0612057 C19.7953333,12.8472057 19.22,12.6898723 18.574,12.5892057 C17.9496997,12.4962418 17.3191727,12.451443 16.688,12.4552057 C15.7039383,12.4515627 14.720945,12.5204157 13.747,12.6612057 C12.8470857,12.7911232 11.9607951,13.0023201 11.099,13.2922057 C10.055843,13.6496868 9.0267559,14.0469778 8.014,14.4832057 C7.31673516,14.7824853 6.62591238,15.0965563 5.942,15.4252057 C5.78466667,15.5198723 5.53033333,15.538539 5.179,15.4812057 C5.12712911,15.4726643 5.07545022,15.4629954 5.024,15.4522057 C4.78530593,15.4037355 4.55236183,15.3303329 4.329,15.2332057 C4.17600393,15.1660466 4.02912031,15.0857458 3.89,14.9932057 C3.8408732,14.9606985 3.79347547,14.9256508 3.748,14.8882057 C3.54533333,14.7202057 3.481,14.563539 3.555,14.4182057 C3.55845098,14.4117499 3.56211975,14.4054129 3.566,14.3992057 C3.888,13.7558723 4.17566667,13.1678723 4.429,12.6352057 C4.53870501,12.4048514 4.64704026,12.1738473 4.754,11.9422057 C5.01466667,11.3782057 5.17033333,10.6918723 5.221,9.88320566 C5.23378811,9.6787897 5.24012459,9.47402119 5.24,9.26920566 C5.24028831,8.95945865 5.2346206,8.64973474 5.223,8.34020566 C5.21458474,8.11867138 5.20224947,7.89730339 5.186,7.67620566 C5.15,7.19020566 5.096,6.65920566 5.024,6.08320566 C4.992,5.76387232 5.24333333,5.55087232 5.778,5.44420566 C5.85024817,5.42979606 5.9229549,5.41778944 5.996,5.40820566 C6.68,5.31820566 7.364,5.27320566 8.048,5.27320566 C8.20234195,5.27321164 8.35668099,5.27454503 8.511,5.27720566 C8.67966667,5.27987232 8.838,5.28453899 8.986,5.29120566 C9.05135289,5.29376337 9.11668772,5.29676344 9.182,5.30020566 C9.48533333,5.31687232 9.67833333,5.32587232 9.761,5.32720566 C9.76599995,5.32723727 9.77100005,5.32723727 9.776,5.32720566 L9.884,5.32720566 L24.302,7.27120566 C24.5226667,7.24387232 24.8223333,7.20587232 25.201,7.15720566 C25.3243377,7.14123897 25.447671,7.12523897 25.571,7.10920566 C26.129,7.03720566 26.642,6.88420566 27.11,6.65020566 C27.23167,6.5907808 27.3455324,6.51655192 27.449,6.42920566 C27.6825964,6.23902021 27.8163272,5.95240171 27.812,5.65120566 C27.812,4.64320566 27.668,3.87820566 27.38,3.35620566 C27.1646667,2.96620566 26.7683333,2.69187232 26.191,2.53320566 C25.9787656,2.47607488 25.7624659,2.43528885 25.544,2.41120566 C25.292,2.37520566 25.04,2.24020566 24.788,2.00620566 C24.699136,1.9246389 24.6159427,1.83710216 24.539,1.74420566 C24.4603333,1.64753899 24.3953333,1.55120566 24.344,1.45520566 C24.3179285,1.40633332 24.294885,1.35590493 24.275,1.30420566 C24.187,1.07487232 24.2633333,0.975205656 24.504,1.00520566 C24.5086721,1.00583358 24.5133389,1.00650027 24.518,1.00720566 C25.706,1.15120566 26.741,1.62820566 27.623,2.43820566 C28.3789417,3.12978526 28.8427743,4.08355682 28.92,5.10520566 C28.9375956,5.28667058 28.9461794,5.46888986 28.9461794,5.65120566 C28.9493152,5.91195755 28.9066632,6.17125439 28.82,6.41720566 C28.6828561,6.78625854 28.4343955,7.10356122 28.109,7.32520566 C27.6427827,7.65307374 27.1220245,7.8955073 26.571,8.04120566 C26.4368476,8.0774371 26.3014253,8.10879104 26.165,8.13520566 C25.5996667,8.24587232 25.0926667,8.31387232 24.644,8.33920566 C24.5121421,8.34699518 24.3800876,8.35099683 24.248,8.35120566 L24.248,8.35120566 Z" id="5"></path>
    <path d="M24.8081876,6.45107543 C24.675727,6.5239936 24.5440527,6.59833121 24.4131876,6.67407543 C23.7838543,7.03807543 23.0291876,7.38007543 22.1491876,7.70007543 C21.8885053,7.79481795 21.626129,7.88483271 21.3621876,7.97007543 C20.3541876,8.47407543 19.3641876,9.03207543 18.3921876,9.64407543 C17.7002136,10.0816786 17.0310108,10.5542926 16.3871876,11.0600754 C16.0783926,11.3017289 15.7746602,11.5497826 15.4761876,11.8040754 C14.5196762,12.574898 13.6072377,13.3988636 12.7431876,14.2720754 C12.3165968,14.704716 11.9043732,15.1512915 11.5071876,15.6110754 C10.3731876,16.9250754 9.49118761,18.4100754 8.86118761,20.0660754 C8.23118761,21.7220754 7.91618761,23.7200754 7.91618761,26.0600754 C7.90925778,26.9184649 8.05171499,27.7715163 8.33718761,28.5810754 C8.49517439,29.0203669 8.69790691,29.4422516 8.94218761,29.8400754 C9.62618761,30.9560754 10.5441876,31.8290754 11.6961876,32.4590754 C12.8481876,33.0890754 14.1081876,33.4040754 15.4761876,33.4040754 C15.99263,33.4010746 16.5070123,33.3386642 17.0091876,33.2180754 C17.4716793,33.1080825 17.9250184,32.9626529 18.3651876,32.7830754 C19.3911876,32.3690754 20.3541876,31.8110754 21.2541876,31.1090754 C22.1541876,30.4070754 22.8921876,29.6330754 23.4681876,28.7870754 C23.6895368,28.4662263 23.8765634,28.123009 24.0261876,27.7630754 C24.2243847,27.2921692 24.328345,26.7869766 24.3321876,26.2760754 C24.3321876,25.3400754 24.0171876,24.4220754 23.3871876,23.5220754 C22.7571876,22.6220754 21.9831876,21.8660754 21.0651876,21.2540754 C20.7155027,21.0179052 20.3421519,20.8188295 19.9511876,20.6600754 C19.439197,20.4498886 18.8916298,20.3398999 18.3381876,20.3360754 C17.6648664,20.3392227 17.0006092,20.4915408 16.3931876,20.7820754 C16.2274689,20.8595007 16.0656112,20.9449348 15.9081876,21.0380754 C15.1161876,21.5060754 14.4771876,22.1450754 13.9911876,22.9550754 C13.5328395,23.7240166 13.2826296,24.5990618 13.2651876,25.4940754 C13.2632312,25.5567232 13.2622311,25.6193972 13.2621876,25.6820754 C13.2621876,26.9060754 13.4421876,27.9950754 13.8021876,28.9490754 C14.0289946,29.5957997 14.5648213,30.0858164 15.2291876,30.2540754 C15.5238543,30.3380754 15.8581876,30.3800754 16.2321876,30.3800754 C17.0397753,30.376275 17.8314581,30.1552117 18.5241876,29.7400754 C18.8001577,29.5783108 19.062969,29.3950785 19.3101876,29.1920754 C19.6682329,28.9069693 19.9778859,28.5659121 20.2271876,28.1820754 C20.5883913,27.6125825 20.7763434,26.9504076 20.7681876,26.2760754 C20.7692851,26.2409205 20.7770918,26.2062993 20.7911876,26.1740754 C20.8278543,26.0827421 20.9095209,25.9734088 21.0361876,25.8460754 C21.0368539,25.8454084 21.0375206,25.8447418 21.0381876,25.8440754 C21.1915209,25.6907421 21.3318543,25.6027421 21.4591876,25.5800754 C21.4806352,25.5761644 21.5023865,25.5741565 21.5241876,25.5740754 C21.7575209,25.5740754 21.8828543,25.7747421 21.9001876,26.1760754 C21.90157,26.2093906 21.9022369,26.2427316 21.9021876,26.2760754 C21.9021876,27.2840754 21.6141876,28.1840754 21.0381876,28.9760754 C20.4621876,29.7680754 19.7331876,30.3890754 18.8511876,30.8390754 C18.4135318,31.065657 17.9511218,31.2408224 17.4731876,31.3610754 C17.0672058,31.4619409 16.6505111,31.5133142 16.2321876,31.5140754 C15.2241876,31.5140754 14.2791876,31.2530754 13.3971876,30.7310754 C12.5151876,30.2090754 11.8131876,29.5070754 11.2911876,28.6250754 C10.7691876,27.7430754 10.5081876,26.7800754 10.5081876,25.7360754 C10.5081876,24.7640754 10.7781876,23.8730754 11.3181876,23.0630754 C11.8214667,22.3140822 12.4362263,21.6463785 13.1411876,21.0830754 C13.2166485,21.0219737 13.2929898,20.9619674 13.3701876,20.9030754 C13.9166635,20.4842767 14.5012248,20.1176703 15.1161876,19.8080754 C15.3833951,19.6744072 15.6566921,19.5532756 15.9351876,19.4450754 C16.8171876,19.1030754 17.6181876,18.9320754 18.3381876,18.9320754 C19.0234078,18.9368699 19.7031642,19.0544421 20.3501876,19.2800754 C20.8504825,19.452293 21.3338565,19.670213 21.7941876,19.9310754 C22.9821876,20.5970754 23.9901876,21.4430754 24.8181876,22.4690754 C25.1374216,22.8588005 25.4074533,23.2863507 25.6221876,23.7420754 C25.9086802,24.3488 26.0582131,25.0111143 26.0601876,25.6820754 C26.0601876,26.7260754 25.7001876,27.7700754 24.9801876,28.8140754 C24.4025015,29.6450053 23.7277319,30.4040372 22.9701876,31.0750754 C22.7375212,31.2828458 22.498404,31.4832774 22.2531876,31.6760754 C21.1551876,32.5400754 19.9941876,33.2330754 18.7701876,33.7550754 C17.5461876,34.2770754 16.4481876,34.5380754 15.4761876,34.5380754 C14.7503081,34.5348462 14.0270951,34.4499794 13.3201876,34.2850754 C12.861656,34.179471 12.4095765,34.0475867 11.9661876,33.8900754 C10.7421876,33.4580754 9.60818761,32.8550754 8.56418761,32.0810754 C7.52018761,31.3070754 6.66518761,30.3890754 5.99918761,29.3270754 C5.33318761,28.2650754 5,27.0860754 5,25.7900754 C4.99566493,24.7864597 5.0729205,23.7841438 5.23118761,22.7930754 C5.41518761,21.6717421 5.70985428,20.6427421 6.11518761,19.7060754 C6.17293511,19.5729088 6.23327996,19.4408835 6.29618761,19.3100754 C7.16018761,17.5100754 8.29418761,15.9080754 9.69818761,14.5040754 C10.9651933,13.2406056 12.2916983,12.0382415 13.6731876,10.9010754 C13.8771252,10.7327755 14.0821293,10.5657721 14.2881876,10.4000754 C15.1346367,9.72044414 16.0252607,9.09774226 16.9541876,8.53607543 C16.9834809,8.51834231 17.0128143,8.50067559 17.0421876,8.48307543 C17.9781876,7.92507543 18.9501876,7.44807543 19.9581876,7.05207543 C20.0741088,7.00373533 20.1904465,6.95640022 20.3071876,6.91007543 C20.6818543,6.76207543 21.1325209,6.59340877 21.6591876,6.40407543 C22.3611876,6.15207543 23.0721876,5.90007543 23.7921876,5.64807543 C24.5121876,5.39607543 25.1061876,5.19807543 25.5741876,5.05407543 C25.5869413,5.0420303 25.6018746,5.03252729 25.6181876,5.02607543 C25.6475209,5.01340877 25.6858543,5.00540877 25.7331876,5.00207543 C25.7521578,5.00073232 25.7711699,5 25.7901876,5 C26.0030369,4.99701405 26.2065625,5.08726691 26.3471876,5.24707543 C26.3697933,5.27165733 26.3911534,5.2973562 26.4111876,5.32407543 C26.4276163,5.34563664 26.4429684,5.36799729 26.4571876,5.39107543 C26.5651876,5.57040877 26.5228543,5.69207543 26.3301876,5.75607543 C25.9408543,5.87607543 25.4335209,6.1077421 24.8081876,6.45107543 Z" id="6"></path>
    <path d="M24.872,4.944 C23.684,6.276 22.442,7.752 21.146,9.372 C19.85,10.992 18.59,12.99 17.366,15.366 C17.5014239,15.346646 17.6375168,15.3323028 17.774,15.323 C17.8718474,15.3160095 17.9699038,15.3123407 18.068,15.312 L18.77,15.312 C19.6486667,15.312 20.412,15.4063333 21.06,15.595 C21.2546182,15.6509691 21.4456399,15.7187618 21.632,15.798 C21.6567882,15.8090547 21.6811397,15.8210637 21.705,15.834 C21.933,15.9573333 21.851,16.0596667 21.459,16.141 C21.4446856,16.1437673 21.4303519,16.146434 21.416,16.149 C21.225575,16.1862115 21.0333024,16.2132498 20.84,16.23 C20.588,16.2506667 20.348,16.2506667 20.12,16.23 C19.9341609,16.2037185 19.746688,16.1906856 19.559,16.191 C19.299,16.191 19.032,16.2153333 18.758,16.264 C18.6806569,16.2779301 18.6036373,16.2936008 18.527,16.311 C18.0929905,16.4091689 17.6593212,16.5088362 17.226,16.61 C17.0746297,16.6451747 16.9232963,16.680508 16.772,16.716 C16.7552269,16.7835925 16.7352036,16.8503367 16.712,16.916 C16.6906396,16.976802 16.6655932,17.0362455 16.637,17.094 L16.448,17.472 C15.692,19.092 15.053,20.721 14.531,22.359 C14.1172753,23.6480052 13.7934976,24.9641666 13.562,26.298 C13.5108898,26.5951887 13.464883,26.8932326 13.424,27.192 C13.3722727,27.5680283 13.3319209,27.9455339 13.303,28.324 C13.276513,28.6660352 13.2628368,29.0089418 13.262,29.352 C13.2601543,29.7251315 13.2795188,30.0980663 13.32,30.469 C13.4066667,31.2236667 13.5906667,31.7943333 13.872,32.181 C14.0723633,32.4720336 14.3752278,32.6766815 14.72,32.754 C14.79119,32.7610119 14.8609478,32.7785356 14.927,32.806 C15.0763333,32.87 15.1656667,32.988 15.195,33.16 C15.2024155,33.2042795 15.2060952,33.249104 15.206,33.294 C15.2055557,33.3905454 15.1774455,33.4849402 15.125,33.566 C15.094142,33.6142724 15.0579106,33.6588907 15.017,33.699 C14.9307834,33.7853447 14.8158158,33.8369556 14.694,33.844 C14.6493333,33.8473333 14.6023333,33.8463333 14.553,33.841 C14.5366077,33.8390999 14.5202686,33.8367658 14.504,33.834 C13.496,33.618 12.785,32.997 12.371,31.971 C12.1558362,31.4289984 11.999604,30.8654227 11.905,30.29 C11.8143333,29.7586667 11.7633333,29.191 11.752,28.587 C11.7505181,28.5 11.7498514,28.4130043 11.75,28.326 C11.7520441,27.3205103 11.8178428,26.316162 11.947,25.319 C11.9916555,24.9703801 12.0429983,24.6226494 12.101,24.276 C12.2619786,23.3018995 12.4581066,22.3339345 12.689,21.374 C12.7754393,21.0169181 12.8674505,20.661208 12.965,20.307 C13.257,19.247 13.516,18.377 13.742,17.697 C13.7791536,17.5857121 13.8171547,17.4747088 13.856,17.364 C13.172,17.724 12.533,18.147 11.939,18.633 C11.7108673,18.8184141 11.494452,19.0177967 11.291,19.23 C11.0123333,19.5226667 10.7873333,19.8186667 10.616,20.118 C10.508,20.334 10.346,20.343 10.13,20.145 C9.99057636,20.0155625 9.87185912,19.8654796 9.778,19.7 C9.71580479,19.5915974 9.66198153,19.478602 9.617,19.362 C9.491,19.038 9.482,18.768 9.59,18.552 C9.78265581,18.2597362 10.0141033,17.9949846 10.278,17.765 C10.6146667,17.4656667 11.0243333,17.188 11.507,16.932 C12.0809666,16.6299368 12.6802494,16.3786462 13.298,16.181 C13.6947957,16.0530777 14.0972128,15.9432972 14.504,15.852 C14.8474081,15.1378637 15.2058209,14.4310402 15.579,13.732 C15.945,13.0473333 16.3043333,12.4163333 16.657,11.839 C16.8593063,11.5072256 17.0686876,11.1798174 17.285,10.857 C18.167,9.543 19.112,8.274 20.12,7.05 C19.328,7.374 18.338,7.725 17.15,8.103 C15.962,8.481 14.72,8.814 13.424,9.102 C12.446633,9.32239606 11.4524638,9.46021495 10.452,9.514 C10.1828792,9.52750062 9.91345915,9.53416944 9.644,9.534 C8.91885776,9.53767917 8.19604212,9.45169366 7.492,9.278 C7.13982891,9.18973658 6.79430819,9.07679074 6.458,8.94 C6.23398282,8.84623617 6.0250577,8.71987017 5.838,8.565 C5.63934303,8.39861828 5.47408316,8.19603071 5.351,7.968 C5.117,7.536 5,7.086 5,6.618 C5,6.042 5.144,5.493 5.432,4.971 C5.57091011,4.71504127 5.74492826,4.47976336 5.949,4.272 C6.13071634,4.08836779 6.33864124,3.93267686 6.566,3.81 C7.034,3.594 7.502,3.405 7.97,3.243 C8.33733333,3.11566667 8.67133333,3.03833333 8.972,3.011 C9.05179247,3.00370554 9.13187481,3 9.212,3 C9.58066667,3 9.882,3.077 10.116,3.231 C10.2013881,3.28731096 10.2787577,3.35492527 10.346,3.432 C10.3633101,3.44908891 10.3796681,3.46711608 10.395,3.486 C10.543,3.67066667 10.4276667,3.78766667 10.049,3.837 C9.88367333,3.85871751 9.71833999,3.88038417 9.553,3.902 C9.407,3.92066667 9.25366667,3.94033333 9.093,3.961 C8.92567043,3.9826957 8.75833709,4.00436237 8.591,4.026 C8.033,4.098 7.664,4.242 7.484,4.458 C7.054,4.974 6.79533333,5.42166667 6.708,5.801 C6.68622009,5.89174905 6.67481371,5.98467748 6.674,6.078 C6.66381891,6.44507782 6.84329009,6.79155165 7.149,6.995 C7.30366667,7.105 7.49633333,7.19533333 7.727,7.266 C8.16278671,7.39827857 8.61011452,7.48901647 9.063,7.537 C9.39944626,7.57314215 9.73761909,7.5908353 10.076,7.59 C10.752,7.59 11.3563333,7.547 11.889,7.461 C11.9507984,7.45075147 12.0124696,7.43975065 12.074,7.428 C13.514,7.212 14.981,6.96 16.475,6.672 C17.720131,6.43397373 18.952382,6.13291999 20.167,5.77 C20.3588576,5.7123708 20.5501986,5.65303512 20.741,5.592 C21.3009106,5.41443398 21.8524776,5.21155877 22.394,4.984 C22.928,4.758 23.419,4.51666667 23.867,4.26 C23.9689458,4.20160657 24.0699585,4.14159901 24.17,4.08 C24.2603363,4.02052337 24.3641973,3.98475667 24.472,3.976 C24.4972567,3.97347662 24.522618,3.97214182 24.548,3.972 C24.6166279,3.97129827 24.6850996,3.97868248 24.752,3.994 C24.9333333,4.03733333 25.0413333,4.14733333 25.076,4.324 C25.0842808,4.36817948 25.0882992,4.41305216 25.0880156,4.458 C25.0877057,4.60471362 25.0372472,4.74691482 24.945,4.861 C24.9224239,4.89016405 24.8980428,4.91788502 24.872,4.944 Z" id="7"></path>
    <path d="M24.900277,9.994 C24.900277,11.254 24.576277,12.316 23.928277,13.18 C23.280277,14.044 22.461277,14.701 21.471277,15.151 C20.481277,15.601 19.428277,15.826 18.312277,15.826 C17.9923681,15.8249831 17.672922,15.8015927 17.356277,15.756 C17.179005,15.7309993 17.0025809,15.7003168 16.827277,15.664 C16.4014399,15.5779841 15.9893136,15.4343286 15.602277,15.237 C15.5326249,15.2011583 15.4639341,15.1634785 15.396277,15.124 C15.2549436,15.266 15.0436103,15.5296667 14.762277,15.915 C14.757607,15.9213309 14.7529403,15.9276642 14.748277,15.934 C14.460277,16.33 14.244277,16.618 14.100277,16.798 C15.612277,17.554 17.169277,18.265 18.771277,18.931 C19.2405601,19.1250328 19.7034671,19.3341413 20.159277,19.558 C21.0799436,20.0126667 21.8229436,20.471 22.388277,20.933 C22.3976304,20.9406421 22.4069638,20.9483088 22.416277,20.956 C22.5928386,21.0984214 22.7519429,21.261218 22.890277,21.441 C23.0344236,21.6292871 23.1478294,21.8392227 23.226277,22.063 C23.3608044,22.453981 23.4333478,22.8635984 23.441277,23.277 C23.4420501,23.313328 23.4423834,23.349664 23.442277,23.386 C23.4396641,23.872641 23.3799218,24.3572923 23.264277,24.83 C23.1647718,25.2398082 23.0347422,25.6415965 22.875277,26.032 C22.497277,26.968 22.110277,27.85 21.714277,28.678 C20.850277,30.406 19.671277,31.666 18.177277,32.458 C17.2914122,32.9352206 16.3397547,33.2786126 15.353277,33.477 C14.7804212,33.5893125 14.1980388,33.646 13.614277,33.646 C12.318277,33.646 11.094277,33.385 9.94227698,32.863 C8.79027698,32.341 7.85427698,31.594 7.13427698,30.622 C6.52168479,29.7887794 6.14450688,28.8061136 6.04227698,27.777 C6.01967704,27.5740158 6.00566454,27.3701673 6.00013399,27.166 C5.99590231,26.3288806 6.09192101,25.4942565 6.28627698,24.68 C6.41383805,24.1527973 6.58923165,23.6383317 6.81027698,23.143 C7.26359322,22.1202288 7.83659397,21.1548216 8.51727698,20.267 C8.61210597,20.1439469 8.70912139,20.0225942 8.80827698,19.903 C9.18792596,19.4449597 9.57973212,18.9971336 9.98327698,18.56 C10.3531734,18.1586454 10.7356988,17.7691165 11.130277,17.392 C10.5831049,17.0606079 10.052781,16.7021637 9.54127698,16.318 C9.31957178,16.1505646 9.10216793,15.9775084 8.88927698,15.799 C8.55081051,15.5186882 8.24338562,15.202882 7.97227698,14.857 C7.7500734,14.5715281 7.55961745,14.2627078 7.40427698,13.936 C7.26788535,13.5973939 7.16180284,13.2473551 7.08727698,12.89 C7.08490933,12.8786738 7.08257598,12.8673404 7.08027698,12.856 C7.03648759,12.6400108 7.00543402,12.4216341 6.98727698,12.202 C6.97732999,12.0782489 6.97232601,11.9541502 6.97227698,11.83 C6.96727054,10.4253328 7.50087353,9.07217863 8.46327698,8.049 C8.47918695,8.03125201 8.49518716,8.01358511 8.51127698,7.996 C9.29973138,7.14683745 10.2223543,6.43299556 11.242277,5.883 C11.618439,5.67730211 12.004581,5.49040541 12.399277,5.323 C13.965277,4.657 15.522277,4.324 17.070277,4.324 C17.646277,4.324 18.204277,4.378 18.744277,4.486 C19.588364,4.64392286 20.4051596,4.92314905 21.169277,5.315 C21.5425261,5.5040193 21.9047725,5.71402211 22.254277,5.944 C22.3745951,5.78942571 22.4939308,5.63408925 22.612277,5.478 C22.7190429,5.33715658 22.8247128,5.19548563 22.929277,5.053 C23.0422258,4.89946238 23.1502801,4.74238352 23.253277,4.582 C23.3188745,4.47959584 23.3818943,4.37556315 23.442277,4.27 C23.482931,4.20004468 23.5381857,4.13967381 23.604277,4.093 C23.6936103,4.031 23.8016103,4 23.928277,4 C24.0589835,4.00060278 24.1857229,4.04496159 24.288277,4.126 C24.3340205,4.16076376 24.3762247,4.19995336 24.414277,4.243 C24.4441592,4.27587486 24.4690882,4.31293136 24.488277,4.353 C24.544277,4.47366667 24.531277,4.60733333 24.449277,4.754 C24.438324,4.77310338 24.426649,4.79178353 24.414277,4.81 C24.090277,5.35 23.658277,5.944 23.118277,6.592 C23.5098093,6.92790325 23.8569388,7.31233318 24.151277,7.736 C24.2452745,7.87262082 24.3330312,8.01343198 24.414277,8.158 C24.738277,8.734 24.900277,9.346 24.900277,9.994 Z M21.336277,6.97 C20.5383318,6.28446319 19.5746478,5.820033 18.541277,5.623 C18.5369446,5.62199602 18.5326112,5.62099602 18.528277,5.62 C17.988277,5.512 17.448277,5.458 16.908277,5.458 C15.540277,5.458 14.262277,5.728 13.074277,6.268 C12.4352662,6.55404976 11.8337713,6.91743194 11.283277,7.35 C10.8799472,7.6692237 10.5118603,8.03060598 10.185277,8.428 C9.82111026,8.86383954 9.53460217,9.35905542 9.33827698,9.892 C9.16466396,10.3750533 9.07667757,10.8846976 9.07825556,11.398 C9.07825556,12.01 9.20427698,12.586 9.45627698,13.126 C9.59832875,13.4260042 9.77666173,13.7074412 9.98727698,13.964 C10.1819436,14.2033333 10.4099436,14.437 10.671277,14.665 C11.0005484,14.950299 11.3464922,15.2157675 11.707277,15.46 C12.0112179,15.6661446 12.3231241,15.8602937 12.642277,16.042 C12.742277,15.9753333 12.8889436,15.8236667 13.082277,15.587 C13.0976945,15.5677336 13.113028,15.5484001 13.128277,15.529 C13.344277,15.259 13.569277,14.998 13.803277,14.746 C14.0359436,14.496 14.1706103,14.3346667 14.207277,14.262 C14.2076139,14.2613351 14.2079473,14.2606685 14.208277,14.26 C14.1760485,14.1874936 14.1427112,14.1154852 14.108277,14.044 C14.012277,13.8453333 13.9309436,13.7043333 13.864277,13.621 C13.8619701,13.6179795 13.8596367,13.6149794 13.857277,13.612 C13.8231659,13.5701816 13.7945964,13.5241344 13.772277,13.475 C13.7296103,13.3836667 13.6966103,13.2696667 13.673277,13.133 C13.6715233,13.1216796 13.6698566,13.110346 13.668277,13.099 C13.6591386,13.0365907 13.6521345,12.9738875 13.647277,12.911 C13.6306103,12.707 13.620277,12.4163333 13.616277,12.039 C13.6149666,11.9153376 13.6143,11.7916693 13.614277,11.668 C13.6126604,11.4752972 13.6331272,11.2830436 13.675277,11.095 C13.761277,10.7256667 13.9389436,10.4306667 14.208277,10.21 C14.4885553,9.98247759 14.7926638,9.78599735 15.115277,9.624 C15.2775354,9.54199064 15.4433664,9.46724989 15.612277,9.4 C15.9376775,9.27000547 16.2610495,9.13498934 16.582277,8.995 C16.7637873,8.91589504 16.9444639,8.8348906 17.124277,8.752 C17.1574798,8.73535517 17.1911607,8.71968184 17.225277,8.705 C17.3199436,8.66433333 17.394277,8.644 17.448277,8.644 C17.4769822,8.64372618 17.5055871,8.64742799 17.533277,8.655 C17.597277,8.673 17.6379436,8.71466667 17.655277,8.78 C17.661654,8.80617771 17.6646782,8.83305974 17.664277,8.86 C17.6626838,8.95142284 17.6360515,9.04065842 17.587277,9.118 C17.509277,9.248 17.3729436,9.378 17.178277,9.508 C16.9886719,9.59691722 16.8052584,9.69847951 16.629277,9.812 C16.311277,10.0146667 15.972277,10.2733333 15.612277,10.588 C15.036277,11.092 14.748277,11.65 14.748277,12.262 C14.7478305,12.3564861 14.7555256,12.450835 14.771277,12.544 C14.7877831,12.6421338 14.816332,12.7378567 14.856277,12.829 C14.8991296,12.924676 14.9454944,13.0187399 14.995277,13.111 C15.037076,13.1890443 15.0807555,13.2660667 15.126277,13.342 C16.242277,12.19 17.286277,11.137 18.258277,10.183 C18.765704,9.68438394 19.2654298,9.17799068 19.757277,8.664 C20.2909546,8.10622394 20.8173327,7.54150922 21.336277,6.97 L21.336277,6.97 Z M20.742277,28.138 C21.210277,27.238 21.444277,26.302 21.444277,25.33 C21.444277,24.682 21.327277,24.061 21.093277,23.467 C20.9581596,23.1162637 20.7666359,22.7899641 20.526277,22.501 C20.3815126,22.3289342 20.2185653,22.1730278 20.040277,22.036 C19.6943313,21.7402847 19.3269968,21.4705495 18.941277,21.229 C18.3406103,20.849 17.6449436,20.488 16.854277,20.146 C15.522277,19.57 14.190277,18.958 12.858277,18.31 C11.9695255,19.5093888 11.1269112,20.7422876 10.332277,22.006 C10.0796307,22.408538 9.83260675,22.8145774 9.59127698,23.224 C8.63727698,24.844 8.16027698,26.23 8.16027698,27.382 C8.15393465,27.9604628 8.23932759,28.5362745 8.41327698,29.088 C8.6839638,29.9199846 9.19772068,30.6517834 9.88827698,31.189 C11.0316929,32.1021093 12.4571836,32.5889398 13.920277,32.566 C13.926277,32.566007 13.932277,32.566007 13.938277,32.566 C14.898013,32.5610399 15.8470262,32.3638247 16.729277,31.986 C17.059012,31.8474889 17.3802426,31.689545 17.691277,31.513 C18.471949,31.0648109 19.1580158,30.4690876 19.711277,29.759 C20.107838,29.254186 20.4532047,28.7111798 20.742277,28.138 L20.742277,28.138 Z M22.504277,8.363 C22.3762868,8.16222951 22.2387974,7.96767531 22.092277,7.78 C21.6089632,8.36795746 21.1114841,8.94412631 20.600277,9.508 C20.1311873,10.0257892 19.6473211,10.5299971 19.149277,11.02 C18.195277,11.956 17.196277,13.036 16.152277,14.26 C16.3182597,14.3422445 16.4896572,14.4130755 16.665277,14.472 C16.8250244,14.5258749 16.9872012,14.5722588 17.151277,14.611 C17.529277,14.701 17.916277,14.746 18.312277,14.746 C18.8188121,14.7493177 19.3244865,14.7037735 19.822277,14.61 C20.4296103,14.4913333 20.9749436,14.2953333 21.458277,14.022 C21.5926683,13.9459118 21.723165,13.8631415 21.849277,13.774 C22.6759436,13.1906667 23.130277,12.257 23.212277,10.973 C23.2216276,10.8268536 23.226277,10.6804452 23.226277,10.534 C23.226277,9.84466667 22.9856103,9.121 22.504277,8.363 Z" id="8"></path>
    <path d="M26.4820007,5.07812385 C26.4100007,5.90612385 25.9780007,6.65312385 25.1860007,7.31912385 C24.7667625,7.6688367 24.3222148,7.98703929 23.8560007,8.27112385 C23.3660007,8.57245718 22.828334,8.85812385 22.2430007,9.12812385 C21.0730007,9.66812385 19.8580007,10.1901238 18.5980007,10.6941238 C17.9140007,10.9461238 17.1580007,11.2341238 16.3300007,11.5581238 C15.968957,11.7011453 15.5975509,11.8164784 15.2190007,11.9031238 C14.8217646,11.9946137 14.4156303,12.041901 14.0080007,12.0441238 C13.7842177,12.0451336 13.5609619,12.0223387 13.3420007,11.9761238 C13.2291188,11.951887 13.117894,11.9204902 13.0090007,11.8821238 C12.815291,11.812753 12.6308942,11.719715 12.4600007,11.6051238 C12.340284,11.525153 12.2260308,11.4372916 12.1180007,11.3421238 C11.9684049,11.1961774 11.8517912,11.019893 11.7760007,10.8251238 C11.7151568,10.6623802 11.684653,10.489864 11.6860007,10.3161238 C11.6860007,9.76212385 11.9026673,9.21645718 12.3360007,8.67912385 C12.3531243,8.65762098 12.3704585,8.63628662 12.3880007,8.61512385 C12.4893179,8.49433173 12.589986,8.37299665 12.6900007,8.25112385 C12.937334,7.94979051 13.120334,7.71645718 13.2390007,7.55112385 C13.2618692,7.51916349 13.2842056,7.4868257 13.3060007,7.45412385 C13.5103018,7.2094509 13.7479566,6.99468634 14.0120007,6.81612385 C14.220351,6.67635964 14.4458841,6.56409724 14.6830007,6.48212385 C14.8223425,6.43386347 14.9634412,6.39083337 15.1060007,6.35312385 C15.4006673,6.27579051 15.6596673,6.23712385 15.8830007,6.23712385 C15.9150127,6.23694472 15.9470239,6.23761162 15.9790007,6.23912385 C16.3210007,6.25712385 16.4020007,6.32012385 16.2220007,6.42812385 C15.7959423,6.77039704 15.4246612,7.17573755 15.1210007,7.63012385 C15.0312072,7.76529652 14.9481071,7.90479792 14.8720007,8.04812385 C14.5480007,8.66012385 14.3320007,9.18212385 14.2240007,9.61412385 C14.2145104,9.65275246 14.205177,9.69141945 14.1960007,9.73012385 C14.1100007,10.0847905 14.083334,10.2621238 14.1160007,10.2621238 C14.2374501,10.279434 14.3591278,10.2951021 14.4810007,10.3091238 C14.5931476,10.3222344 14.705495,10.3335691 14.8180007,10.3431238 C14.9524438,10.354311 15.0871565,10.3619802 15.2220007,10.3661238 C15.3213076,10.3689846 15.4206527,10.3703181 15.5200007,10.3701238 C16.4867843,10.3777156 17.4467304,10.2075556 18.3520007,9.86812385 C18.6971932,9.7365207 19.0321174,9.57942053 19.3540007,9.39812385 C19.9202158,9.08311144 20.4544042,8.71370093 20.9490007,8.29512385 C21.3778404,7.9314336 21.7663998,7.52275902 22.1080007,7.07612385 C22.2980444,6.82857405 22.4714264,6.56866803 22.6270007,6.29812385 C22.784334,6.02145718 22.9050007,5.75445718 22.9890007,5.49712385 C23.0820299,5.2229093 23.1309714,4.9356733 23.1340007,4.64612385 C23.1368081,4.42584047 23.0931952,4.20743491 23.0060007,4.00512385 C22.9165002,3.80615318 22.7851885,3.6287971 22.6210007,3.48512385 C22.4831548,3.36557487 22.3245229,3.2723617 22.1530007,3.21012385 C21.864334,3.10012385 21.502334,3.03945718 21.0670007,3.02812385 C21.018011,3.02683905 20.9690071,3.02617233 20.9200007,3.02612385 C20.2000007,3.02612385 19.2640007,3.18812385 18.1120007,3.51212385 C17.6512172,3.64366288 17.196151,3.79446196 16.7480007,3.96412385 C15.9106673,4.27745718 14.979334,4.68479051 13.9540007,5.18612385 C13.7245046,5.29492604 13.4990235,5.41200275 13.2780007,5.53712385 C13.0486673,5.66645718 12.8060007,5.81212385 12.5500007,5.97412385 C12.2765719,6.14721097 12.0065213,6.32557775 11.7400007,6.50912385 C11.0765512,6.96753927 10.4438617,7.46894735 9.84600066,8.01012385 C9.62721275,8.20735819 9.41250076,8.40906743 9.20200066,8.61512385 C8.7294939,9.07414019 8.29350531,9.56930821 7.89800066,10.0961238 C7.64548304,10.4340832 7.4137231,10.7870663 7.20400066,11.1531238 C6.78866733,11.8797905 6.58100066,12.5877905 6.58100066,13.2771238 C6.58110712,13.4245967 6.59079418,13.571907 6.61000066,13.7181238 C6.66400085,14.0872703 6.76830333,14.4472821 6.92000066,14.7881238 C7.18303144,15.3792787 7.63409661,15.8669073 8.20300066,16.1751238 C9.08500066,16.6611238 10.0300007,16.9041238 11.0380007,16.9041238 C11.7436086,16.9077453 12.446199,16.8117998 13.1250007,16.6191238 C13.2769631,16.5752706 13.427384,16.5262421 13.5760007,16.4721238 C15.4480007,15.7521238 17.0140007,14.9061238 18.2740007,13.9341238 C19.0555163,13.3274683 19.7986125,12.6728757 20.4990007,11.9741238 C21.0185427,11.4577615 21.5192044,10.9227439 22,10.3701238 L22.2970007,10.0731238 L22.4860007,9.88412385 C22.5401936,9.82875099 22.6021807,9.78158693 22.6700007,9.74412385 C22.7626583,9.69375589 22.8665393,9.66761366 22.9720007,9.66812385 C23.1880007,9.66812385 23.3500007,9.75812385 23.4580007,9.93812385 C23.5036815,10.0138376 23.5275597,10.1006987 23.5270007,10.1891238 C23.5270007,10.2844572 23.5016673,10.3871238 23.4510007,10.4971238 C23.4365568,10.5274203 23.420877,10.5571119 23.4040007,10.5861238 L22.6750007,11.7201238 C22.1890007,12.4761238 21.5770007,13.5021238 20.8390007,14.7981238 C20.450153,15.4820538 20.0697905,16.1707733 19.6980007,16.8641238 C19.287535,17.62935 18.8848476,18.3987229 18.4900007,19.1721238 C17.8088681,20.5469982 17.1905638,21.9521141 16.6370007,23.3831238 C16.2396697,24.4123714 15.8850339,25.4575962 15.5740007,26.5161238 C14.8900007,28.8561238 14.5480007,30.7101238 14.5480007,32.0781238 C14.5480007,32.6094572 14.591334,33.0214572 14.6780007,33.3141238 C14.7001854,33.3904743 14.7289602,33.4647535 14.7640007,33.5361238 C14.807209,33.6373281 14.8689332,33.7295753 14.9460007,33.8081238 C15.0620007,33.9234572 15.209334,33.9921238 15.3880007,34.0141238 C15.4317946,34.0194994 15.4758781,34.0221712 15.5200007,34.0221238 C15.8426673,34.0221238 16.1730007,33.9064572 16.5110007,33.6751238 C16.550359,33.6477468 16.5890374,33.6194049 16.6270007,33.5901238 C16.7263927,33.5152084 16.820917,33.4340444 16.9100007,33.3471238 C17.1146673,33.1451238 17.2440007,32.9427905 17.2980007,32.7401238 C17.2993718,32.7354681 17.3007052,32.7308013 17.3020007,32.7261238 C17.3276256,32.6649442 17.3601709,32.6068996 17.3990007,32.5531238 C17.448334,32.4851238 17.505334,32.4341238 17.5700007,32.4001238 C17.6372249,32.3649649 17.7121443,32.3470942 17.7880007,32.3481238 C17.9575972,32.3450178 18.1211499,32.4110887 18.2410007,32.5311238 C18.2430121,32.5331124 18.2450121,32.5351124 18.2470007,32.5371238 C18.3260079,32.6146762 18.3694378,32.7214416 18.3670007,32.8321238 C18.3670007,32.8987905 18.3540007,32.9714572 18.3280007,33.0501238 C18.2397245,33.3924502 18.0635795,33.7057883 17.8170007,33.9591238 C17.628334,34.1584572 17.3936673,34.3414572 17.1130007,34.5081238 C16.7079652,34.7532387 16.2643685,34.9280402 15.8010007,35.0251238 C15.548567,35.0764723 15.2916039,35.1021245 15.0340007,35.1021245 C14.6380007,35.1021245 14.2510007,35.0301238 13.8730007,34.8861238 C13.5950609,34.7784893 13.3416781,34.6159161 13.1280007,34.4081238 C13.0372303,34.3212241 12.9523743,34.2283501 12.8740007,34.1301238 C12.365334,33.4947905 12.081334,32.6631238 12.0220007,31.6351238 C12.0139301,31.4949361 12.0099284,31.3545437 12.0100007,31.2141238 C12.0136376,30.5119481 12.0846294,29.8117407 12.2220007,29.1231238 C12.3466673,28.4811238 12.5260007,27.8154572 12.7600007,27.1261238 C12.7619981,27.1207895 12.7639981,27.1154562 12.7660007,27.1101238 C13.2218735,25.7824626 13.7534105,24.482 14.3580007,23.2151238 C14.4469068,23.0277699 14.5372428,22.8410978 14.6290007,22.6551238 C14.9855817,21.9323488 15.3522845,21.2146115 15.7290007,20.5021238 C16.0806874,19.8369954 16.4430677,19.1775765 16.8160007,18.5241238 C17.5360007,17.2641238 18.1300007,16.2381238 18.5980007,15.4461238 C18.2732507,15.6604518 17.9363525,15.8557793 17.5890007,16.0311238 C17.230334,16.2137905 16.8360007,16.3937905 16.4060007,16.5711238 C15.9451236,16.7594111 15.4785702,16.9334932 15.0070007,17.0931238 C13.9971562,17.4426803 12.9518354,17.6797807 11.8900007,17.8001238 C11.4277253,17.8507188 10.9630366,17.8760897 10.4980007,17.8761238 C9.13000066,17.8761238 7.92400066,17.5791238 6.88000066,16.9851238 C6.1428236,16.5635599 5.58702369,15.8849215 5.31900066,15.0791238 C5.18284357,14.6909816 5.09060158,14.2888065 5.04400066,13.8801238 C5.01458774,13.6663844 5,13.4508775 5,13.2351238 C5,12.6671238 5.10233399,12.0941238 5.30700066,11.5161238 C5.40746855,11.2342881 5.52708057,10.9596482 5.66500066,10.6941238 C6.13099402,9.79927957 6.68793385,8.95482206 7.32700066,8.17412385 C7.4885527,7.9753807 7.65459547,7.78033046 7.82500066,7.58912385 C8.37993386,6.96347759 8.97129453,6.37111517 9.59600066,5.81512385 C9.90542816,5.5404858 10.2242864,5.2766606 10.5520007,5.02412385 C11.4880007,4.30412385 12.2620007,3.78212385 12.8740007,3.45812385 C13.9180007,2.95412385 15.0340007,2.58512385 16.2220007,2.35112385 C17.1184195,2.17226325 18.0269476,2.06061926 18.9400007,2.01712385 C19.185841,2.00589427 19.431904,2 19.6780007,2 C20.409263,1.99728098 21.1398958,2.04338401 21.8650007,2.13812385 C22.8636673,2.27279051 23.7636673,2.50579051 24.5650007,2.83712385 C24.8364291,2.94732579 25.0985999,3.07907997 25.3490007,3.23112385 C26.1076673,3.69912385 26.4870091,4.26779051 26.4870091,4.93712385 C26.4870091,4.98417058 26.4854752,5.03120538 26.4820007,5.07812385 Z" id="9"></path>
    <path d="M18.54,14.365 C18.5007264,14.2011395 18.4248252,14.0483113 18.318,13.918 C18.3013989,13.889016 18.2837199,13.8606629 18.265,13.833 C18.119,13.617 17.9026667,13.4293333 17.616,13.27 C17.5918573,13.2566462 17.5675214,13.2436448 17.543,13.231 C17.4116667,13.163 17.2833333,13.11 17.158,13.072 C17.0090503,13.0254726 16.8540428,13.0012106 16.698,13 C16.6843281,13.0000648 16.6706588,13.0003982 16.657,13.001 C16.4216667,13.0103333 16.2346667,13.1 16.096,13.27 C16.031304,13.3516916 15.9793796,13.442728 15.942,13.54 C15.868,13.7626667 15.73,14.0023333 15.528,14.259 C15.4288172,14.384288 15.323697,14.504759 15.213,14.62 C15.131492,14.7041211 15.0600145,14.7974109 15,14.898 C14.8133333,15.216 14.8033333,15.5553333 14.97,15.916 C15.004142,15.9808374 15.0415225,16.043917 15.082,16.105 C15.2726667,16.391 15.5123333,16.5926667 15.801,16.71 C16.0177698,16.7952484 16.2490942,16.8373691 16.482,16.834 C16.662,16.834 16.824,16.807 16.968,16.753 C17.112,16.699 17.256,16.654 17.4,16.618 C17.4894869,16.577608 17.5766251,16.5322026 17.661,16.482 C18.0436667,16.2526667 18.308,15.948 18.454,15.568 C18.5465635,15.3164541 18.5919884,15.0500064 18.588,14.782 C18.5879165,14.7633297 18.5875831,14.7446614 18.587,14.726 C18.5836667,14.596 18.568,14.4756667 18.54,14.365 Z M15.645,23.49 C15.5972297,23.3525225 15.5338134,23.2209924 15.456,23.098 C15.3613333,22.9566667 15.228,22.8226667 15.056,22.696 C14.9594563,22.6257346 14.8585907,22.5616081 14.754,22.504 C14.7298573,22.4906464 14.7055213,22.477645 14.681,22.465 C14.3863333,22.3123333 14.107,22.2353333 13.843,22.2339956 C13.8406667,22.2339956 13.8383333,22.2339956 13.836,22.2339956 C13.7692532,22.2338434 13.7026354,22.2398692 13.637,22.252 C13.459,22.2853333 13.3193333,22.3666667 13.218,22.496 C13.1551312,22.5792903 13.1083326,22.6735659 13.08,22.774 C13.0773729,22.7800175 13.0747062,22.7860177 13.072,22.792 C12.9973333,22.96 12.879,23.1443333 12.717,23.345 C12.63474,23.4458974 12.548678,23.5436345 12.459,23.638 C12.4055867,23.6943709 12.3555018,23.7538048 12.309,23.816 C12.1091851,24.0742761 12.0005288,24.391454 12,24.718 C12,24.79 12.036,24.934 12.108,25.15 C12.1125816,25.1603716 12.1172484,25.1707052 12.122,25.181 C12.1773333,25.2996667 12.24,25.4046667 12.31,25.496 C12.4138905,25.6341037 12.5479712,25.7466357 12.702,25.825 C12.954,25.951 13.224,26.014 13.512,26.014 C13.908,26.014 14.25,25.942 14.538,25.798 C14.6274869,25.757608 14.7146251,25.7122026 14.799,25.662 C15.1816667,25.4326667 15.446,25.128 15.592,24.748 C15.6845635,24.4964541 15.7299884,24.2300064 15.726,23.962 C15.7252924,23.8012695 15.6979207,23.6417702 15.645,23.49 L15.645,23.49 Z" id="10"></path> 
</svg>