<svg xmlns="http://www.w3.org/2000/svg" width="51" height="93" extras="dimmedLEDColor:fill=#222222,dimmedOpacity:opacity=0.5" scale="0.25" translatex="[0, 0, 56, 112, 140, 196, 252, 280, 336, 392, 420, 476]" viewBox="0 0 51 93" version="1.1">
    <g id="0">
        <path d="m5 5.707 4.5 4.5v31.586l-4.5 4.5-4.5-4.5V10.207z"/>
        <path d="m5 47.707 4.5 4.5v31.586l-4.5 4.5-4.5-4.5V52.207z"/>
        <path d="m47 5.707 4.5 4.5v31.586l-4.5 4.5-4.5-4.5V10.207z"/>
        <path d="m47 47.707 4.5 4.5v31.586l-4.5 4.5-4.5-4.5V52.207z"/>
        <path d="m5.707 5 4.5-4.5h31.586l4.5 4.5-4.5 4.5H10.207z"/>
        <path d="m5.707 89 4.5-4.5h31.586l4.5 4.5-4.5 4.5H10.207z"/>
        <path fill="#222222" opacity="0.5" d="m5.707 47 4.5-4.5h31.586l4.5 4.5-4.5 4.5H10.207z"/>
    </g>
    <g id="1">
        <path fill="#222222" opacity="0.5" d="m5 5.707 4.5 4.5v31.586l-4.5 4.5-4.5-4.5V10.207z"/>
        <path fill="#222222" opacity="0.5" d="m5 47.707 4.5 4.5v31.586l-4.5 4.5-4.5-4.5V52.207z"/>
        <path d="m47 5.707 4.5 4.5v31.586l-4.5 4.5-4.5-4.5V10.207z"/>
        <path d="m47 47.707 4.5 4.5v31.586l-4.5 4.5-4.5-4.5V52.207z"/>
        <path fill="#222222" opacity="0.5" d="m5.707 5 4.5-4.5h31.586l4.5 4.5-4.5 4.5H10.207z"/>
        <path fill="#222222" opacity="0.5" d="m5.707 89 4.5-4.5h31.586l4.5 4.5-4.5 4.5H10.207z"/>
        <path fill="#222222" opacity="0.5" d="m5.707 47 4.5-4.5h31.586l4.5 4.5-4.5 4.5H10.207z"/>
    </g>
    <g id="2">
        <path fill="#222222" opacity="0.5" d="m5 5.707 4.5 4.5v31.586l-4.5 4.5-4.5-4.5V10.207z"/>
        <path d="m5 47.707 4.5 4.5v31.586l-4.5 4.5-4.5-4.5V52.207z"/>
        <path d="m47 5.707 4.5 4.5v31.586l-4.5 4.5-4.5-4.5V10.207z"/>
        <path fill="#222222" opacity="0.5" d="m47 47.707 4.5 4.5v31.586l-4.5 4.5-4.5-4.5V52.207z"/>
        <path d="m5.707 5 4.5-4.5h31.586l4.5 4.5-4.5 4.5H10.207z"/>
        <path d="m5.707 89 4.5-4.5h31.586l4.5 4.5-4.5 4.5H10.207z"/>
        <path d="m5.707 47 4.5-4.5h31.586l4.5 4.5-4.5 4.5H10.207z"/>
    </g>
    <g id="3">
        <path fill="#222222" opacity="0.5" d="m5 5.707 4.5 4.5v31.586l-4.5 4.5-4.5-4.5V10.207z"/>
        <path fill="#222222" opacity="0.5" d="m5 47.707 4.5 4.5v31.586l-4.5 4.5-4.5-4.5V52.207z"/>
        <path d="m47 5.707 4.5 4.5v31.586l-4.5 4.5-4.5-4.5V10.207z"/>
        <path d="m47 47.707 4.5 4.5v31.586l-4.5 4.5-4.5-4.5V52.207z"/>
        <path d="m5.707 5 4.5-4.5h31.586l4.5 4.5-4.5 4.5H10.207z"/>
        <path d="m5.707 89 4.5-4.5h31.586l4.5 4.5-4.5 4.5H10.207z"/>
        <path d="m5.707 47 4.5-4.5h31.586l4.5 4.5-4.5 4.5H10.207z"/>
    </g>
    <g id="4">
        <path d="m5 5.707 4.5 4.5v31.586l-4.5 4.5-4.5-4.5V10.207z"/>
        <path fill="#222222" opacity="0.5" d="m5 47.707 4.5 4.5v31.586l-4.5 4.5-4.5-4.5V52.207z"/>
        <path d="m47 5.707 4.5 4.5v31.586l-4.5 4.5-4.5-4.5V10.207z"/>
        <path d="m47 47.707 4.5 4.5v31.586l-4.5 4.5-4.5-4.5V52.207z"/>
        <path fill="#222222" opacity="0.5" d="m5.707 5 4.5-4.5h31.586l4.5 4.5-4.5 4.5H10.207z"/>
        <path fill="#222222" opacity="0.5" d="m5.707 89 4.5-4.5h31.586l4.5 4.5-4.5 4.5H10.207z"/>
        <path d="m5.707 47 4.5-4.5h31.586l4.5 4.5-4.5 4.5H10.207z"/>
    </g>
    <g id="5">
        <path d="m5 5.707 4.5 4.5v31.586l-4.5 4.5-4.5-4.5V10.207z"/>
        <path fill="#222222" opacity="0.5" d="m5 47.707 4.5 4.5v31.586l-4.5 4.5-4.5-4.5V52.207z"/>
        <path fill="#222222" opacity="0.5" d="m47 5.707 4.5 4.5v31.586l-4.5 4.5-4.5-4.5V10.207z"/>
        <path d="m47 47.707 4.5 4.5v31.586l-4.5 4.5-4.5-4.5V52.207z"/>
        <path d="m5.707 5 4.5-4.5h31.586l4.5 4.5-4.5 4.5H10.207z"/>
        <path d="m5.707 89 4.5-4.5h31.586l4.5 4.5-4.5 4.5H10.207z"/>
        <path d="m5.707 47 4.5-4.5h31.586l4.5 4.5-4.5 4.5H10.207z"/>
    </g>
    <g id="6">
        <path d="m5 5.707 4.5 4.5v31.586l-4.5 4.5-4.5-4.5V10.207z"/>
        <path d="m5 47.707 4.5 4.5v31.586l-4.5 4.5-4.5-4.5V52.207z"/>
        <path fill="#222222" opacity="0.5" d="m47 5.707 4.5 4.5v31.586l-4.5 4.5-4.5-4.5V10.207z"/>
        <path d="m47 47.707 4.5 4.5v31.586l-4.5 4.5-4.5-4.5V52.207z"/>
        <path d="m5.707 5 4.5-4.5h31.586l4.5 4.5-4.5 4.5H10.207z"/>
        <path d="m5.707 89 4.5-4.5h31.586l4.5 4.5-4.5 4.5H10.207z"/>
        <path d="m5.707 47 4.5-4.5h31.586l4.5 4.5-4.5 4.5H10.207z"/>
    </g>
    <g id="7">
        <path fill="#222222" opacity="0.5" d="m5 5.707 4.5 4.5v31.586l-4.5 4.5-4.5-4.5V10.207z"/>
        <path fill="#222222" opacity="0.5" d="m5 47.707 4.5 4.5v31.586l-4.5 4.5-4.5-4.5V52.207z"/>
        <path d="m47 5.707 4.5 4.5v31.586l-4.5 4.5-4.5-4.5V10.207z"/>
        <path d="m47 47.707 4.5 4.5v31.586l-4.5 4.5-4.5-4.5V52.207z"/>
        <path d="m5.707 5 4.5-4.5h31.586l4.5 4.5-4.5 4.5H10.207z"/>
        <path fill="#222222" opacity="0.5" d="m5.707 89 4.5-4.5h31.586l4.5 4.5-4.5 4.5H10.207z"/>
        <path fill="#222222" opacity="0.5" d="m5.707 47 4.5-4.5h31.586l4.5 4.5-4.5 4.5H10.207z"/>
    </g>
    <g id="8">
        <path d="m5 5.707 4.5 4.5v31.586l-4.5 4.5-4.5-4.5V10.207z"/>
        <path d="m5 47.707 4.5 4.5v31.586l-4.5 4.5-4.5-4.5V52.207z"/>
        <path d="m47 5.707 4.5 4.5v31.586l-4.5 4.5-4.5-4.5V10.207z"/>
        <path d="m47 47.707 4.5 4.5v31.586l-4.5 4.5-4.5-4.5V52.207z"/>
        <path d="m5.707 5 4.5-4.5h31.586l4.5 4.5-4.5 4.5H10.207z"/>
        <path d="m5.707 89 4.5-4.5h31.586l4.5 4.5-4.5 4.5H10.207z"/>
        <path d="m5.707 47 4.5-4.5h31.586l4.5 4.5-4.5 4.5H10.207z"/>
    </g>
    <g id="9">
        <path d="m5 5.707 4.5 4.5v31.586l-4.5 4.5-4.5-4.5V10.207z"/>
        <path fill="#222222" opacity="0.5" d="m5 47.707 4.5 4.5v31.586l-4.5 4.5-4.5-4.5V52.207z"/>
        <path d="m47 5.707 4.5 4.5v31.586l-4.5 4.5-4.5-4.5V10.207z"/>
        <path d="m47 47.707 4.5 4.5v31.586l-4.5 4.5-4.5-4.5V52.207z"/>
        <path d="m5.707 5 4.5-4.5h31.586l4.5 4.5-4.5 4.5H10.207z"/>
        <path d="m5.707 89 4.5-4.5h31.586l4.5 4.5-4.5 4.5H10.207z"/>
        <path d="m5.707 47 4.5-4.5h31.586l4.5 4.5-4.5 4.5H10.207z"/>
    </g>
    <g id="10">
        <path transform="translate(8 28)" d="M4.5 0 9 4.5 4.5 9 0 4.5z"/>
        <path transform="translate(8 56)" d="M4.5 0 9 4.5 4.5 9 0 4.5z"/>
    </g>
</svg>

