<svg xmlns="http://www.w3.org/2000/svg"  translatex="[0, 0, 22, 42, 58, 78, 96, 110, 132, 156]" width="22" height="50">
    <g fill-rule="nonzero" fill="none">
        <path id="0" d="M10.368 10a8.48 8.48 0 0 1 3.9.966c.143.073.285.15.424.229 1.382.791 2.552 1.869 3.512 3.236a10.71 10.71 0 0 1 1.508 3.42c.049.194.093.389.133.586.17.869.29 1.747.357 2.629.058.753.087 1.509.085 2.262a30.754 30.754 0 0 1-.468 5.497c-.333 1.9-.906 3.749-1.703 5.502a8.768 8.768 0 0 1-1.984 2.812c-1.156 1.07-2.598 1.72-4.313 1.953a11.14 11.14 0 0 1-1.492.097 9.5 9.5 0 0 1-4.181-.944 7.65 7.65 0 0 1-2.404-1.782 7.308 7.308 0 0 1-.7-.92c-.849-1.308-1.402-2.793-1.66-4.45a29.591 29.591 0 0 1-.262-2.282A43.626 43.626 0 0 1 1 25.464v-1.778c0-.745.018-1.49.057-2.234.039-.732.098-1.42.179-2.06.045-.37.101-.739.167-1.108a11.423 11.423 0 0 1 1.568-4.031l.175-.27.094-.191a4.58 4.58 0 0 1 .531-.803l.159-.181c.205-.228.438-.447.699-.658l.255-.198.032-.023a10.248 10.248 0 0 1 2.712-1.414c.409-.143.825-.26 1.25-.35.416-.088.817-.14 1.202-.158l.288-.007Zm.118 1.127-.28.008c-.47.023-.936.096-1.393.217-.627.162-1.285.41-1.972.746-1.308.64-2.2 1.436-2.69 2.388l-.066.091-.01.008-.169.268a10.624 10.624 0 0 0-1.294 3.12l-.072.33a19.712 19.712 0 0 0-.306 2.144c-.07.8-.105 1.604-.103 2.408l.005.635c.01.704.034 1.608.074 2.725l.004.292c.002.088.005.166.01.235l.019.2.007.058c.026 1.671.124 3.086.293 4.241a8.668 8.668 0 0 0 1.08 3.124 7.389 7.389 0 0 0 2.44 2.454c.156.098.315.192.476.28 1.268.695 2.595 1.042 3.986 1.042 1.331 0 2.545-.35 3.648-1.05 1.96-1.243 3.273-2.995 3.948-5.267.38-1.3.65-2.628.808-3.972.156-1.316.232-2.641.229-3.969 0-1.702-.1-3.226-.298-4.57a21.478 21.478 0 0 0-.075-.47 9.662 9.662 0 0 0-1.043-3.05 9.064 9.064 0 0 0-.466-.758 9.496 9.496 0 0 0-1.941-2.127 8.605 8.605 0 0 0-1.129-.763 7.738 7.738 0 0 0-2.473-.908 7.142 7.142 0 0 0-.934-.103l-.313-.007Zm-.121 5.197.158.001c.499.02.982.183 1.393.474.495.359.871.91 1.135 1.645.416 1.158.644 2.48.688 3.963l.007.528c0 .932-.04 1.878-.119 2.822l-.051 1.258c-.015.425-.024.779-.027 1.06v.197a5.984 5.984 0 0 1-.519 2.41 7.217 7.217 0 0 1-.278.566 3.934 3.934 0 0 1-.503.732c-.495.558-1.103.846-1.803.846-.327 0-.659-.08-.995-.236l-.104-.051-.058-.007a1.817 1.817 0 0 1-1.266-.841l-.062-.113c-.627-.996-1-2.787-1.144-5.396a49.092 49.092 0 0 1-.068-2.693c-.003-.805.046-1.61.148-2.41.111-.85.285-1.641.52-2.376l.022-.067c.115-.366.279-.714.49-1.04.523-.79 1.283-1.218 2.247-1.267l.095-.004.094-.001Zm.093 1.127h-.012c-.482 0-.86.081-1.14.238a1.13 1.13 0 0 0-.427.41c-.12.205-.217.42-.294.647a6.915 6.915 0 0 0-.312 1.5l-.101.987a45.296 45.296 0 0 0-.204 2.894c-.006.196-.01.391-.01.586 0 1.534.124 3.03.372 4.484.17.997.45 1.664.82 2.007.093.087.2.155.317.202l.047.016h.02l.116.019.119.04.075.034a1.27 1.27 0 0 0 .645.184 1.16 1.16 0 0 0 .913-.433c.065-.077.125-.158.18-.246a5.05 5.05 0 0 0 .684-1.733c.03-.154.058-.308.085-.462l.052-.334c.036-.258.054-.464.054-.617l.002-.212.003-.212c.005-.232.014-.496.026-.79l.067-1.329.036-.813c.016-.436.025-.793.025-1.07 0-1.527-.156-2.948-.467-4.267a3.805 3.805 0 0 0-.252-.746 1.953 1.953 0 0 0-.43-.613 1.432 1.432 0 0 0-1.01-.371Z"/>
        <path id="1" d="m14.412 10 .437.003.437.01.417.017c.989.053 1.568.178 1.824.433l.094.094.012.132c.092 1.03.144 2.194.157 3.495l.003.648c0 .647-.006 1.293-.015 1.94l-.022 1.3a412.74 412.74 0 0 1-.124 4.74l-.077 2.348a655.24 655.24 0 0 0-.105 3.222l-.07 2.667c-.023.961-.04 1.834-.05 2.619-.008.598-.012 1.197-.013 1.795 0 .859.04 1.717.119 2.602a1.04 1.04 0 0 1-.476.896 1.661 1.661 0 0 1-.363.186l-.137.046c-.189.056-.38.1-.573.13a9.562 9.562 0 0 1-1.513.103c-.45 0-.9-.011-1.348-.035a18.99 18.99 0 0 1-1.234-.106c-.795-.096-1.329-.253-1.626-.507l-.055-.05-.11-.108.005-1.065.01-.912c.021-1.388.063-3.056.126-5.004l.047-1.415.105-2.916.05-1.502c.043-1.337.075-2.54.097-3.612l.024-1.425-.045.056-.088.095a1.774 1.774 0 0 1-1.056.51l-.149.01c-.035.002-.07.003-.106.003-.192 0-.55-.05-1.094-.15l-.502-.094a13.873 13.873 0 0 1-1.396-.347 11.24 11.24 0 0 1-.87-.305 4.342 4.342 0 0 1-.396-.18c-.279-.144-.488-.303-.62-.473a.89.89 0 0 1-.206-.556c0-.356.094-.73.28-1.125.044-.095.092-.188.143-.279l.428-.776.017-.033c.347-.728.775-1.562 1.284-2.5.246-.454.496-.906.749-1.355.19-.34.388-.678.59-1.012l.258-.414c.42-.659.785-1.153 1.103-1.487l.139-.139.103-.097 2.709-.042 1.095-.045c.333-.012.634-.02.903-.026l.52-.008h.154Zm-2.843 8.593v.163l.01.027c.071.234.103.61.108 1.171v.174c0 1.797-.04 3.666-.119 5.608l-.158 3.74a228.88 228.88 0 0 0-.169 3.671l-.04 1.178a144.53 144.53 0 0 0-.053 2.208l-.011.908-.003.608.057.012c.464.085.94.135 1.427.152l.368.007c.36 0 .711-.004 1.053-.012l.414-.013c.859-.033 1.457-.1 1.781-.195l.06-.02-.03-.366a29.505 29.505 0 0 1-.073-1.608l-.005-.543c0-1.457.032-3.043.095-4.76l.183-4.507c.067-1.263.123-2.527.169-3.791l.04-1.171c.045-1.531.068-2.94.068-4.228l-.003-.298a30.805 30.805 0 0 0-.075-1.415l-.018-.26-.038-.631c-.015-.29-.023-.527-.024-.716v-1.423c0-.397-.006-.725-.017-.98l-.736-.03c-.19-.01-.397-.02-.62-.034l-1.04-.062a28.17 28.17 0 0 0-.487-.022l-.413-.008-1.966.039-.272.014c-.245.01-.538.017-.88.022l-.599.003-.055.07c-.27.346-.534.741-.793 1.187l-.155.273-.38.685c-.096.17-.178.312-.246.428l-.396.663-.574.977c-.35.601-.643 1.12-.88 1.554-.359.66-.665 1.347-.916 2.055l-.056.158.055.033c.222.1.555.226.994.37l.462.148.295.09c1.101.333 1.891.498 2.348.499.022 0 .043-.01.076-.046l.04-.052c.032-.046.062-.093.09-.142.085-.15.183-.353.297-.617l.136-.282.14-.274c.021-.042.042-.081.063-.119l.06-.105c.026-.044.052-.088.079-.13.05-.08.112-.153.18-.216a.85.85 0 0 1 .34-.195l.457-1.418-.001 1.439.356.355Z"/>
        <path id="2" d="m11.95 10 .428.004c.573.014 1.144.06 1.712.137a9.698 9.698 0 0 1 1.992.488c.592.214 1.15.512 1.66.887 1.346 1.01 2.232 2.298 2.65 3.854.349 1.297.547 2.798.596 4.501.008.287.012.57.012.849.002.495-.038.989-.12 1.478-.135.776-.383 1.461-.747 2.054-.57.927-1.267 1.665-2.093 2.209-.73.48-1.662.997-2.803 1.553l-.316.153c-.376.176-.75.358-1.12.546-.756.384-1.377.74-1.864 1.066-.61.41-1.082.932-1.42 1.573l-.07.14-.004.036c-.015.1-.045.22-.09.364l-.078.233a4.26 4.26 0 0 0-.075.238l-.03.111.036.006c.147.019.346.032.595.04l.375.007h.554c.415-.002.917-.01 1.506-.022l2.232-.055.632-.018 1.98-.046c.323-.006.62-.01.887-.013l.711-.003.109.112c.094.098.173.21.232.325.147.276.252.648.322 1.121.061.415.102.832.123 1.25.013.266.02.533.02.8 0 .521-.038.938-.116 1.255l-.03.107-.013.038v.353l.007.157c.008.121.024.213.046.278l.007.02.11.19-.089.176-.001.034v.152l-.147.146-.096.069-.236.117-1.447.002-2.418.01-1.01.007-1.886.02-4.293.07-.478.01-1.281.038c-.396.01-.762.019-1.097.025l-.7.012c-.232.002-.45.004-.66.004H2.872l-.116-.019-.201-.067-.101-.1-.081-.123-.068-.167L1 38.14h1.267v-1.254c0-.667.012-1.335.038-2.001l.031-.667c.043-.814.113-1.626.211-2.435.048-.404.12-.805.213-1.202.202-.836.496-1.502.888-1.995l.09-.108.091-.1c.812-.89 1.719-1.679 2.72-2.367.401-.275.807-.543 1.216-.804l.568-.359c.196-.122.397-.246.605-.373l.659-.398.93-.55.268-.16c.501-.303.902-.56 1.2-.77.253-.182.485-.394.69-.631.118-.136.229-.279.33-.425.218-.316.357-.68.404-1.064.019-.142.028-.285.028-.432.003-.356-.05-.71-.158-1.048a2.957 2.957 0 0 0-.34-.709c-.09-.14-.2-.27-.325-.382a1.164 1.164 0 0 0-.798-.298 2.055 2.055 0 0 0-.713.116c-.447.165-.77.513-.979 1.068a7.742 7.742 0 0 0-.406 1.61c-.072.511-.108 1.027-.106 1.542v.153l-.108.107c-.248.248-.741.392-1.52.48l-.21.023c-.404.04-.79.069-1.159.088-.352.02-.704.03-1.058.03l-.121-.001-.12-.004a18.15 18.15 0 0 1-.796-.052l-.243-.022-1.343-.045-.104-.113a.808.808 0 0 1-.145-.218c-.118-.247-.209-.655-.286-1.247a16.661 16.661 0 0 1-.133-1.472 10.66 10.66 0 0 1 .812-4.504 9.415 9.415 0 0 1 2.352-3.393 5.09 5.09 0 0 1 1.358-.882 7.155 7.155 0 0 1 1.3-.438 18.298 18.298 0 0 1 3.425-.43L11.95 10Zm.4 1.088c-2.987 0-5.047.52-6.185 1.531a7.163 7.163 0 0 0-2.056 2.972 10.806 10.806 0 0 0-.664 3.355l-.007.371v.1c0 .183.004.352.013.507l.017.216.051.442.03.226.047.255.036.216.019.151.015.186.317.026.262.018c.138.01.277.018.415.024l.262.01.226.005h.103c.377 0 .986-.052 1.814-.155l.42-.053c.399-.048.734-.08 1.008-.096l.017-.301c.028-.437.086-.872.174-1.302l.072-.322c.105-.431.245-.853.416-1.258.137-.335.328-.644.57-.92.449-.495 1.037-.775 1.746-.836.101-.01.202-.014.302-.014a2.289 2.289 0 0 1 1.733.778c.125.135.239.281.34.434.502.758.754 1.6.754 2.514 0 1.021-.364 1.887-1.085 2.577a9.97 9.97 0 0 1-.857.726c-.451.343-.969.687-1.551 1.03l-.884.516a83.839 83.839 0 0 0-2.59 1.578c-.225.143-.447.289-.666.436-.642.437-1.237.94-1.775 1.5-.19.197-.373.4-.554.612a3.781 3.781 0 0 0-.752 1.331 5.62 5.62 0 0 0-.25 1.193c-.042.419-.076.839-.1 1.26-.025.436-.044.905-.057 1.406-.013.535-.02 1.07-.019 1.605v1.58l-.001.164-.011.324-.01.134h1.359c.595-.002 1.385-.016 2.37-.044l1.151-.034 4.68-.08 2.34-.024c.994-.008 2.057-.012 3.19-.014h.616l-.004-.087-.002-.14c0-.208.015-.502.046-.885l.034-.392.04-1.214c0-.246-.009-.492-.027-.737a6.164 6.164 0 0 0-.126-.874l-.03-.116-.584.012c-.279.007-.593.018-.941.031l-.814.035-2.582.04h-3.922c-.123 0-.246-.009-.37-.028-.544-.09-.872-.422-.872-.929-.004-.423.06-.845.191-1.25a3.51 3.51 0 0 1 .492-.963 5.85 5.85 0 0 1 1.67-1.539c.224-.139.45-.274.68-.404l.426-.24c.224-.123.463-.253.72-.388l.851-.442 2.288-1.219c.42-.244.824-.516 1.208-.811.38-.295.706-.597.98-.907.2-.225.38-.467.535-.72a5.03 5.03 0 0 0 .557-1.374c.107-.424.176-.887.207-1.388.012-.203.017-.406.017-.612a19.99 19.99 0 0 0-.152-2.563c-.238-1.83-.751-3.257-1.533-4.285a5.319 5.319 0 0 0-.244-.298 6.178 6.178 0 0 0-3.322-1.93 9.757 9.757 0 0 0-2.228-.24Z"/>
        <path id="3" d="M10.998 10h.1c1.078-.005 2.151.128 3.195.396.365.095.724.208 1.075.338a7.728 7.728 0 0 1 2.248 1.271c.377.31.72.658 1.027 1.04.617.776 1.02 1.7 1.17 2.676.067.412.1.83.098 1.254l-.04 1.89v4.62l.04 3.6c.001.875-.022 1.75-.07 2.623-.053.941-.136 1.822-.25 2.644-.15 1.086-.399 2.01-.748 2.77a5.62 5.62 0 0 1-.544.947c-1.476 2.11-3.943 3.16-7.357 3.16-1.502 0-2.878-.114-4.128-.341a6.912 6.912 0 0 1-1.53-.456 5.23 5.23 0 0 1-1.619-1.089c-1.043-1.04-1.602-2.477-1.683-4.293l-.007-.236-.007-.859c-.015-.97-.063-1.593-.139-1.837l-.058-.19.436-.521h.172c.385 0 .908-.024 1.565-.073l.253-.019c.255-.02.51-.042.748-.063.458-.062.917-.111 1.378-.147.438-.033.854-.051 1.251-.054h.254l.11.138c.04.05.078.1.115.152.046.066.096.14.149.222l.116.186.063.108c.179.387.446.728.782.997.128.104.264.2.407.288.167.104.342.198.52.28.35.16.66.238.935.238.223.002.444-.038.647-.116.238-.096.449-.248.616-.448.34-.395.506-.844.506-1.364a1.876 1.876 0 0 0-.551-1.334 2.346 2.346 0 0 0-.99-.623c-.405-.136-.892-.205-1.46-.205a7.443 7.443 0 0 0-1.127.09 8.938 8.938 0 0 0-.54.099l-.14.03-.123-.071a1.098 1.098 0 0 1-.432-.456c-.209-.383-.317-.958-.34-1.74a11.156 11.156 0 0 1 .038-1.31c.02-.21.046-.418.077-.599l.034-.4c.02-.25.033-.458.04-.623l.005-.185-.046-.731.233-.465.15-.046c.389-.121.926-.189 1.62-.208l.284-.005.135-.001c.227-.007.454-.019.68-.034.34-.023.635-.054.884-.094l.237-.043c.385-.078.714-.245.992-.5a1.05 1.05 0 0 0 .282-.449c.065-.19.098-.419.098-.692a1.81 1.81 0 0 0-.083-.563 1.423 1.423 0 0 0-.413-.626 1.873 1.873 0 0 0-.487-.323 1.53 1.53 0 0 0-.632-.134c-.582 0-1.178.206-1.796.629-.23.156-.446.332-.644.524-.23.227-.412.465-.549.713-.03.057-.06.114-.086.173l-.085.117a.924.924 0 0 1-.308.189c-.321.127-.823.185-1.534.185l-1.998-.04-.405-.02a35.04 35.04 0 0 0-.895-.017l-.683-.002-.106-.097a.867.867 0 0 1-.213-.3c-.1-.219-.156-.517-.175-.903l-.008-.281v-.066l.04-.89a6.608 6.608 0 0 1 .46-2.486 6.222 6.222 0 0 1 .845-1.476 7.908 7.908 0 0 1 2.668-2.206c.252-.131.51-.25.774-.36a11.813 11.813 0 0 1 4.256-.872l.22-.004Zm.3 1.128c-1.592 0-3.025.261-4.303.784A7.71 7.71 0 0 0 5.16 12.96c-.435.338-.825.73-1.161 1.167-.73.95-1.094 2.037-1.094 3.267l.03 1.421.44.007c.233.006.434.013.6.024l.118.008 1.578.04c.485 0 .97-.025 1.453-.077l.136-.015.015-.026c.15-.261.33-.506.532-.728l.156-.163c.199-.2.422-.391.67-.572l.22-.154c.322-.22.669-.4 1.033-.54a3.891 3.891 0 0 1 1.374-.255c.728 0 1.366.253 1.897.752.54.507.809 1.19.809 2.025 0 .522-.086.968-.26 1.335-.09.19-.211.366-.358.52a2.764 2.764 0 0 1-1.416.795c-.173.038-.348.07-.523.095-.288.043-.616.08-.986.111l-.406.03-.53.036c-.32.023-.599.048-.833.076l-.259.033.02.328c0 .396-.026.792-.078 1.182l-.044.293-.022.161-.056.46c-.025.222-.037.5-.037.83-.001.247.019.492.06.735.02.114.045.227.077.339l.018.06.38-.047c.41-.047.77-.07 1.077-.07a6 6 0 0 1 1.185.11c.479.096.908.256 1.284.48.2.12.386.258.556.414a3.37 3.37 0 0 1 1.101 2.349c.007.097.01.195.01.293 0 .75-.24 1.383-.72 1.878a2.265 2.265 0 0 1-.905.558 3.81 3.81 0 0 1-1.24.183c-.688 0-1.38-.212-2.072-.63l-.19-.12a4.91 4.91 0 0 1-.846-.688 3.327 3.327 0 0 1-.684-.996l-.036-.09-.148.006c-.142.008-.29.02-.444.036l-.252.028-.72.096-.14.021c-.66.103-1.251.167-1.773.191l-.232.008-.309.003-.172-.004c.017.143.031.29.043.445l.017.238.03.537c.005.11.008.203.01.277v.061c.016.352.04.704.074 1.053.03.312.066.602.109.871.038.247.086.493.144.735.155.644.485 1.217.993 1.724l.107.107v.037l.044.03a7.358 7.358 0 0 0 1.704.784l.29.09c.197.058.395.11.595.159 1.175.283 2.382.425 3.622.425.629.002 1.257-.034 1.878-.109 1.452-.181 2.578-.59 3.385-1.217 1.134-.882 1.86-2.071 2.186-3.581.113-.538.202-1.08.267-1.627.16-1.321.24-2.908.24-4.756l-.039-3.403v-6.13a7.528 7.528 0 0 0-.223-1.887 4.856 4.856 0 0 0-1.793-2.739c-1.372-1.041-3.177-1.565-5.427-1.565Z"/>
        <path id="4" d="m17.514 10 .43.428-.016.171-.02.226-.014.227c-.03.505-.044 1.16-.046 2-.025.25-.038.647-.038 1.201l-.119 3.6-.07 1.888a171.353 171.353 0 0 0-.075 2.763l-.004.257c-.006.348-.009.697-.01 1.045 0 .139.002.278.006.416l.011.302.008.135.008.093.126-.005.188-.003c.206 0 .412.004.62.012l.339.018c.696.05 1.134.167 1.362.394l.114.113-.244 5.892-.039.148c-.184.368-.6.519-1.201.519-.112 0-.225-.005-.336-.013l-.242-.025-.26-.028-.276-.013-.153.001-.02.143a25.69 25.69 0 0 0-.157 2.002l-.012.254-.002.362c-.005.34-.019.615-.04.83l-.034.292c-.011.103-.02.2-.027.288l-.017.351c0 .017 0 .035-.002.057-.104.83-.155 1.461-.156 1.908a.553.553 0 0 1-.21.415c-.162.138-.41.23-.761.301a5.439 5.439 0 0 1-.253.044c-.274.04-.55.072-.825.092-.295.023-.609.038-.943.046l-.467.004-.693-.003a32.594 32.594 0 0 1-.934-.022l-.953-.048-.235-.006-.115-.018-.201-.067-.101-.1-.082-.124-.079-.197-.004-.02-.01-.014a.365.365 0 0 1-.046-.126l-.006-.075v-.386h.043l.002-.128.013-.493c.01-.247.021-.502.037-.767l.12-1.759.142-1.823v-.888c0-.128.004-.256.013-.384l.014-.159.008-.066-2.616-.034-.337-.011a77.32 77.32 0 0 0-1.561-.024l-1.168-.004-1.24.04-.276-.005-.195-.01a4.036 4.036 0 0 1-.09-.007l-.103-.012v1.138l-.702-1.558a2.755 2.755 0 0 1-.137-.374c-.11-.376-.2-.886-.27-1.535a24.47 24.47 0 0 1-.14-2.632 5.959 5.959 0 0 1 .37-2.006c.293-.824.762-1.675 1.378-2.512 2.094-3.857 4.492-7.78 7.194-11.769l.068.042.104-.124 1.269-.003a67.187 67.187 0 0 0 2.03-.036L17.514 10Zm-.773 1.129-1.344.01c-.494.007-.907.017-1.24.03l-2.82.037-.326.483a154.454 154.454 0 0 0-4.854 7.778l-.586 1.005a25.09 25.09 0 0 0-.421.776l-.435.85-.208.36c-.103.185-.227.412-.372.682l-.183.343c-.161.305-.33.606-.506.904-.142.24-.284.468-.425.681l-.09.134c-.014.163-.023.489-.026.962v.29c-.001.392.004.783.013 1.172l.016.47c.033.827.095 1.457.185 1.888l.025.113c.009.04.02.08.031.119l.024.07.143.024c.173.028.362.048.566.063l.21.012c.173.008.347.011.52.011l.356-.003c.255-.003.545-.011.87-.023l.863-.035 1.222-.061c.26-.012.492-.021.695-.027l.445-.009h.068c.233 0 .466.003.699.011.992.036 1.577.144 1.855.407l.113.113v.151c0 .8-.07 1.942-.209 3.427l-.084.895-.05.572c-.06.732-.1 1.355-.12 1.87l-.009.278 1.461.065c.547.022.922.035 1.126.037h.056c.278 0 .555-.008.83-.025.368-.024.691-.065.97-.122l.177-.04.007-.168c.02-.353.058-.78.116-1.252l.03-.24c0-.144.01-.325.032-.547l.018-.174c.01-.091.02-.183.031-.269.016-.138.027-.332.033-.578l.005-.502c.05-1.241.134-2.185.256-2.84l.051-.25.076-.078c.058-.058.12-.11.188-.155a.982.982 0 0 1 .331-.143c.085-.018.175-.031.272-.039l.177-.008h.045c.232-.002.464.027.69.084l.115.033.103-.001.15-.007c.083-.006.158-.014.226-.025l.027-.005.21-4.737-.728-.028a7.153 7.153 0 0 0-.58-.032l-.342-.006c-.036 0-.066-.002-.087-.004l-.371.062-.117-.07a.82.82 0 0 1-.31-.333c-.125-.227-.192-.54-.215-.951l-.008-.26v-.339c.004-1.171.035-2.622.093-4.351.02-.6.042-1.2.065-1.798l.119-3.664.002-.387c.004-.423.017-.747.037-.957l.006-.969c.003-.216.007-.412.012-.588l.004-.172Zm-4.34 5.236.09-.001.129.064.01-.01v.014l.101.051.096.069.1.1.068.2.018.116-.12 8.596-.045.08a.664.664 0 0 1-.322.293c-.335.164-.951.24-1.892.25l-.708.008-.601.012-.253.003c-.502 0-.95-.035-1.347-.107s-.703-.177-.92-.323a1.093 1.093 0 0 1-.164-.132l-.14-.138.037-.192c.025-.134.066-.265.118-.388.079-.187.19-.384.333-.59l.132-.182.326-.437.115-.162.086-.128.984-1.766.24-.453.42-.764c.15-.27.302-.539.458-.806.19-.325.372-.623.545-.894.222-.346.435-.64.64-.882l.128-.146.092-.097.077-.148.11-.197c.253-.432.491-.71.742-.832a.72.72 0 0 1 .317-.08Zm-.534 2.014-.07.104c-.113.172-.23.359-.348.562l-.306.54-.604 1.095-.324.522A157.26 157.26 0 0 0 8.127 24.7l-.158.27.24.023c.47.038 1.002.06 1.598.065l.303.002c.243 0 .487-.004.73-.012.282-.01.537-.025.766-.046l.162-.017.099-6.607Z"/>
        <path id="5" d="m19.38 10.732.413.412v.147l.009.032.016.09c.028.187.045.478.052.88l.003.386c-.001.763-.021 1.525-.06 2.287l-.02.347c-.029.486-.062.822-.105 1.03l-.014.058v.744l-.026.136c-.164.41-.685.566-1.597.613-.19.009-.379.013-.574.012l-2.213-.04-.327.002-.328.004c-.72.01-1.634.034-2.75.074l-2.995.035.004.067c.009.106.021.204.036.293l.025.126.091-.016c.548-.09 1.1-.145 1.658-.163l.42-.007a11.09 11.09 0 0 1 2.648.295 6.803 6.803 0 0 1 4.598 3.518 15.984 15.984 0 0 1 1.506 4.26c.258 1.238.407 2.567.448 3.986.007.266.01.532.01.796.002.467-.015.933-.048 1.4-.025.328-.058.644-.1.947l-.06.381-.015.082c-.066.38-.175.753-.324 1.11-.16.384-.38.741-.644 1.054a10.457 10.457 0 0 1-7.368 3.837l-.279.016c-.345.025-.692.037-1.043.037-1.417 0-2.775-.238-4.069-.713a8.216 8.216 0 0 1-2.166-1.17 7.334 7.334 0 0 1-1.078-1.01 5.225 5.225 0 0 1-1.292-3.276 6.602 6.602 0 0 1-.008-.323c0-.31.003-.62.01-.93l.01-.42c.034-.996.11-1.604.23-1.839.053-.19.21-.335.474-.378.383 0 .766-.003 1.148-.008l.674-.013.47-.013.903-.035.65-.03 1.968-.108.421.42v.15l.01.023c.043.114.087.286.134.525l.05.263c.026.157.071.31.133.458.068.162.166.31.282.434.089.09.197.16.323.204.179.066.406.101.689.101a2.15 2.15 0 0 0 .944-.202c.284-.137.536-.346.757-.63l.074-.099c.322-.458.537-.982.63-1.536a5.24 5.24 0 0 0 .077-.925 4.56 4.56 0 0 0-.112-1.043 2.904 2.904 0 0 0-.694-1.342l-.112-.115c-.489-.468-1.187-.754-2.106-.85a7.06 7.06 0 0 0-.732-.036l-.198.003c-.473.01-1.242.053-2.3.128l-.88.066-.995.079c-.21.016-.42.027-.631.034l-.392.006H3.65c-.163.001-.326-.004-.49-.016-.533-.038-.918-.143-1.166-.343a.901.901 0 0 1-.07-.063l-.109-.107-.007-3.644a370.569 370.569 0 0 0-.032-3.304l-.04-6.932.393-.472H2.3c2.26 0 4.51-.025 6.754-.075l3.317-.084 1.875-.038.848-.014.849-.01a310.24 310.24 0 0 1 2.78-.016h.657Zm-.68 1.128-1.28.004c-1.65.01-3.304.033-4.964.071l-3.675.092-2.214.043c-.798.012-1.667.02-2.606.024l-1.093.001.037 6.308.017 1.188c.01.88.016 1.936.02 3.168l.002 1.883.881-.014c.449-.01.964-.024 1.546-.042l1.683-.055 1.089-.028c.247-.005.476-.01.686-.012l.604-.005c.417-.003.834.035 1.246.113.926.184 1.66.592 2.192 1.226.473.572.8 1.251.95 1.975.1.46.148.93.145 1.396a4.744 4.744 0 0 1-.35 1.834c-.161.39-.378.756-.637 1.079a3.263 3.263 0 0 1-2.356 1.275c-.118.01-.236.016-.35.016-.271.002-.54-.038-.802-.121a2.137 2.137 0 0 1-.994-.687c-.23-.282-.41-.6-.536-.937a4.41 4.41 0 0 1-.187-.636l-.027-.138-4.594.173-.022.358-.032.368-.02.204a9.489 9.489 0 0 0-.114 1.488c-.005.5.066 1 .21 1.477.165.538.441 1.036.81 1.461a6.13 6.13 0 0 0 2.112 1.565c.199.09.402.174.61.248 1.135.407 2.316.61 3.542.61 1.36 0 2.689-.217 3.988-.653a10.387 10.387 0 0 0 1.535-.648 7.282 7.282 0 0 0 1.435-.976l.127-.116c.367-.337.688-.722.953-1.142.26-.415.45-.868.564-1.342.23-.956.347-2.214.347-3.77a18.146 18.146 0 0 0-.357-3.689 13.267 13.267 0 0 0-1.497-3.992 5.94 5.94 0 0 0-4.11-2.886 10.315 10.315 0 0 0-2.447-.205c-.099.004-.19.01-.273.017l-.254.032-.375.057c-.42.083-.84.125-1.261.125-.436 0-.687-.34-.796-.886a6.667 6.667 0 0 1-.101-.67 5.299 5.299 0 0 1-.026-.509v-.251l.392-.469 3.61-.041 1.414-.044c.86-.024 1.558-.035 2.095-.035l1.935.04c.256 0 .511-.009.766-.026a8.05 8.05 0 0 0 .496-.05l.157-.024.003-.193c.005-.31.016-.674.03-1.093l.09-2.251c.011-.348.02-.664.025-.947l.005-.336Z"/>
        <path id="6" d="M11.635 10c1.57 0 2.937.346 4.094 1.04a7.018 7.018 0 0 1 2.654 2.793 8.05 8.05 0 0 1 .91 3.465l.003.34c0 .165-.002.33-.007.496l-.012.282-.009.131c-.008.12-.02.241-.034.36a2.154 2.154 0 0 1-.07.343c-.069.235-.179.431-.332.584l-.084.084-.118.019c-.908.144-2.175.232-3.804.265l-.803.012-.974.004-.394-.47v-.133c0-.726-.168-1.366-.503-1.928-.274-.458-.653-.698-1.17-.742a2.105 2.105 0 0 0-.18-.008c-1.318 0-2.011 1.325-2.011 4.18l.003.37c.01.715.048 1.64.115 2.778l.019.512.13-.059a11.7 11.7 0 0 1 2.02-.662l.348-.075a10.29 10.29 0 0 1 1.95-.187 7.56 7.56 0 0 1 2.362.363c.248.08.49.175.727.283a5.717 5.717 0 0 1 2.37 2.003c.37.54.627 1.13.77 1.768.093.42.173.91.24 1.471.033.27.06.54.085.823l.04.806c.006.74-.09 1.476-.288 2.19a6.467 6.467 0 0 1-1.138 2.248 8.138 8.138 0 0 1-3.113 2.405c-.209.095-.42.182-.636.261-1.535.57-3.224.853-5.06.853a9.98 9.98 0 0 1-2.24-.235c-1.035-.239-1.93-.658-2.68-1.259a6.036 6.036 0 0 1-.814-.79 10.879 10.879 0 0 1-2.366-4.835 12.902 12.902 0 0 1-.094-.475c-.323-1.798-.5-3.812-.535-6.04l-.005-.626v-.176c0-1.247.039-2.48.118-3.688l.04-1.182.027-.946c.024-.694.055-1.287.093-1.78.046-.618.143-1.122.295-1.513l.078-.181.03-.137c.186-.752.625-1.46 1.307-2.122l.176-.165a8.16 8.16 0 0 1 .578-.475c1.153-.866 2.33-1.504 3.536-1.913a15.68 15.68 0 0 1 2.495-.59c.492-.073.989-.118 1.487-.134l.374-.006Zm-.317 1.088c-1.357 0-2.7.249-4.036.748a8.85 8.85 0 0 0-2.59 1.484 8.22 8.22 0 0 0-.737.695c-.884.943-1.385 2.04-1.508 3.29l-.08 1.27a96.163 96.163 0 0 0-.26 5.03c-.01.436-.016.87-.016 1.307a33.232 33.232 0 0 0 .252 4.211c.182 1.42.462 2.732.84 3.936.144.459.306.912.49 1.365a5.85 5.85 0 0 0 1.672 2.361c1.09.902 2.561 1.356 4.427 1.356 2.577 0 4.72-.565 6.434-1.69l.105-.069a5.476 5.476 0 0 0 2.463-3.993c.044-.343.066-.689.066-1.018l-.038-.77c-.028-.27-.06-.538-.099-.805a14.818 14.818 0 0 0-.21-1.145 7.068 7.068 0 0 0-.388-1.172 8.582 8.582 0 0 0-.21-.455 2.565 2.565 0 0 0-.65-.766 4.187 4.187 0 0 0-.753-.481 6.11 6.11 0 0 0-.513-.23c-.989-.391-1.948-.586-2.877-.586-1.625 0-3.091.403-4.407 1.21l-.104.064-.121-.011c-.08-.012-.08-.012-.14-.037a1.447 1.447 0 0 1-.206-.122l-.151-.105-.154-.11v-.188c0-.386-.02-.812-.06-1.279l-.06-.618-.003-.237-.009-.25c-.007-.182-.019-.392-.034-.63l-.012-.183a32.14 32.14 0 0 1-.036-.638l-.016-.402-.004-.188a10.85 10.85 0 0 1 .07-1.621c.12-.993.39-1.797.817-2.41l.072-.1c.182-.247.391-.472.625-.675.515-.437 1.09-.66 1.713-.66.555.001 1.09.198 1.509.552.194.16.37.34.524.537.391.499.657 1.084.774 1.703.028.146.05.293.067.44l.008.087h1.558c.504.002 1.007-.017 1.509-.055l.501-.045c.22-.022.438-.05.656-.081l.087-.014.008-.03c.059-.263.102-.529.13-.796l.022-.267a6.1 6.1 0 0 0 .01-.361c0-1.198-.299-2.278-.897-3.247-.599-.97-1.428-1.728-2.492-2.278-1.07-.552-2.248-.828-3.538-.828Zm1.625 17.054c1.172 0 1.934.524 2.183 1.54.06.265.09.535.087.797.004.32-.05.637-.16.942a2.388 2.388 0 0 1-.77 1.048 3.21 3.21 0 0 1-2.054.712c-.686 0-1.318-.21-1.882-.624-.6-.44-.903-1.078-.903-1.876 0-.502.196-.983.538-1.338.17-.185.377-.355.622-.511a4.274 4.274 0 0 1 2.339-.69Zm0 1.008c-.546 0-1.067.2-1.574.61-.124.1-.241.21-.348.325-.237.26-.354.498-.366.715l-.001.04c0 .288.112.565.32.778l.06.062c.148.139.328.24.528.295.181.052.39.08.631.08.266.002.531-.04.782-.12.209-.07.405-.173.587-.306.292-.209.478-.534.51-.898.007-.069.01-.138.01-.208v-.215l-.105-.2-.154-.311a1.907 1.907 0 0 0-.136-.242.944.944 0 0 0-.252-.268.821.821 0 0 0-.387-.132 1.117 1.117 0 0 0-.105-.005Z"/>
        <path id="7" d="M12.863 10a74.05 74.05 0 0 1 4.488.132c.43.026.858.056 1.286.091l.798.07.336.418.04 5.74-.028.145a80.999 80.999 0 0 1-2.927 6.153 184.077 184.077 0 0 1-2.579 4.699c-.467.825-.938 1.647-1.41 2.465l-.74 1.31-.734 1.31a264.908 264.908 0 0 0-2.458 4.5l-.432.82-.475.914-.375.225h-.102a12.556 12.556 0 0 0-1.1.038l-.538.047-.765.08c-.737.074-1.31.111-1.72.111-1.605 0-2.428-.22-2.428-.92l.034-.153.437-.933 1.96-4.126a1467.31 1467.31 0 0 1 2.324-4.828l1.248-2.569a578.09 578.09 0 0 0 3.13-6.555l.694-1.49.277-.602-.315-.004a72.99 72.99 0 0 1-3.426-.143l-.701-.047-1.773-.08a106.34 106.34 0 0 0-2.265-.07l-.43-.006-.603-.002-.41-.492.02-.158c.104-.8.156-1.694.156-2.68v-1.917l.04-.75.306.007-.221-.183.308-.369h.172c1.818 0 3.636-.04 5.463-.118l3.187-.06c.635-.01 1.193-.015 1.675-.018l.576-.002ZM2.411 38.082c.256.05.518.08.786.092l.271.007c.305 0 .763-.03 1.372-.089.217-.02.433-.043.644-.067l.448-.053c.427-.048.791-.08 1.093-.096l.178-.008.353-.69c.69-1.34 1.542-2.92 2.556-4.742l.48-.858c.475-.849.955-1.695 1.436-2.537l.944-1.69a420.876 420.876 0 0 0 2.997-5.459 70.918 70.918 0 0 0 2.376-4.863l.335-.77-.036-4.884-.353-.03a47.504 47.504 0 0 0-.685-.048l-.686-.037-.847-.037a84.766 84.766 0 0 0-2.32-.051l-1.008-.005c-.943 0-2.222.016-3.838.048l-3.105.065c-.717.014-1.364.025-1.941.032l-1.352.012-.01.395-.01.582-.001.278v.277c0 .923-.018 1.693-.052 2.311l-.03.448.522.01c.629.014 1.388.04 2.277.08l1.38.067c1.538.105 2.965.168 4.281.189l.74.006.713-1.42v1.67l.251.35-.531 1.2c-1.068 2.382-2.551 5.535-4.448 9.459l-1.336 2.748-.945 1.91c-.717 1.456-1.39 2.84-2.021 4.154l-.965 2.024.087.02Z"/>
        <path id="8" d="M11.774 10h.364c.982.016 1.96.147 2.916.393 2.551.695 4.19 2.316 4.88 4.832.262 1.01.388 2.048.373 3.063l.04.655c0 1.219-.285 2.365-.856 3.434a10.098 10.098 0 0 1-1.773 2.373l-.188.18.077.065c.326.282.624.594.893.932l.196.258.154.222c.227.345.42.71.579 1.093.27.666.459 1.362.56 2.072.082.564.122 1.133.12 1.699a9.709 9.709 0 0 1-.364 2.727 7.563 7.563 0 0 1-2.047 3.389c-1.607 1.547-3.84 2.317-6.675 2.317-.781.003-1.56-.068-2.329-.212a8.789 8.789 0 0 1-2.712-.984c-1.394-.798-2.454-1.876-3.174-3.229-.716-1.344-1.074-2.813-1.074-4.4 0-1.205.22-2.376.66-3.511.367-.95.87-1.793 1.507-2.526l.154-.172-.14-.16a6.624 6.624 0 0 1-.787-1.178l-.126-.254a8.16 8.16 0 0 1-.356-.873 10.067 10.067 0 0 1-.535-2.62c-.013-.2-.02-.402-.02-.603 0-1.688.376-3.317 1.126-4.88.763-1.59 1.835-2.702 3.22-3.321a8.608 8.608 0 0 1 2.381-.64c.322-.037.644-.066.966-.085.294-.019.608-.033.94-.042l.525-.01.525-.004Zm-.554 1.048c-.772-.005-1.54.061-2.294.197-.839.159-1.58.411-2.227.757a5.707 5.707 0 0 0-1.476 1.124c-1.306 1.39-1.962 3.27-1.962 5.659 0 1.119.172 2.164.515 3.141.173.502.407.98.694 1.425.224.342.485.657.78.94l.112.109v.544l-.107.107a7.917 7.917 0 0 0-1.782 2.683 8.468 8.468 0 0 0-.608 3.184c0 1.652.345 3.035 1.033 4.155l.059.095a6.74 6.74 0 0 0 2.934 2.551 9.495 9.495 0 0 0 3.112.81c.352.031.705.047 1.06.047.811.006 1.62-.075 2.41-.24 1.026-.224 1.919-.603 2.682-1.135.275-.192.534-.405.776-.637a6.702 6.702 0 0 0 2.025-4.189c.042-.365.063-.733.063-1.103.002-.469-.029-.938-.092-1.401a6.649 6.649 0 0 0-.314-1.31 4.959 4.959 0 0 0-.248-.58c-.352-.692-.873-1.419-1.563-2.177a16.882 16.882 0 0 0-.57-.595l-.171-.17.205-.512.075-.06a8.673 8.673 0 0 0 1.278-1.258 6.026 6.026 0 0 0 1.09-1.967l.282-1.349.06-.257c.028-.117.053-.215.077-.297l.05-.153v-1.371l-.066-.22a22.12 22.12 0 0 1-.219-.873l-.043-.187a12.087 12.087 0 0 1-.12-.577 6.61 6.61 0 0 1-.105-.894l-.001-.089-.048-.143a5.156 5.156 0 0 0-3.219-3.16l-.19-.061c-.708-.245-1.517-.41-2.425-.495a16.382 16.382 0 0 0-1.522-.068Zm-.24 16.065.195.005c.261.012.52.053.774.122.412.113.793.317 1.116.595.466.402.764.964.831 1.568.02.149.03.299.03.448 0 .1-.007.186-.02.26l-.02.078v.168l-.083.123a1.693 1.693 0 0 1-.504 1.117l-.094.084a2.302 2.302 0 0 1-.26.196c-.395.256-.843.42-1.308.478a3.966 3.966 0 0 1-1.58-.107 3.072 3.072 0 0 1-1.001-.504 2.221 2.221 0 0 1-.879-1.569 3.29 3.29 0 0 1 .065-1.135 2.27 2.27 0 0 1 .76-1.25 2.921 2.921 0 0 1 1.63-.66l.175-.012.174-.005Zm-.53 1.089-.076.028a1.664 1.664 0 0 0-.238.123c-.134.083-.25.192-.337.32-.062.092-.12.189-.17.29a5.775 5.775 0 0 0-.29.68l-.05.145.003.103c.004.052.01.104.017.156l.03.154c.057.248.194.471.388.632.232.189.51.312.808.359.134.022.27.033.41.032.368.003.734-.056 1.08-.175.094-.032.186-.07.277-.112l.082-.04.044-.094.067-.157.063-.167c.038-.106.082-.209.132-.308l.069-.128a.672.672 0 0 1 .03-.146l.006-.017v-.1l-.014-.039a.605.605 0 0 1-.015-.068l-.004-.031-.098-.174-.142-.233c-.24-.375-.462-.629-.657-.76-.235-.16-.671-.257-1.302-.271l-.113-.002Zm.648-11.246a2.178 2.178 0 0 1 1.598.68l.107.116a2.62 2.62 0 0 1 .686 1.778 2.17 2.17 0 0 1-.57 1.499l-.106.107-.079.074a2.486 2.486 0 0 1-1.708.668 2.46 2.46 0 0 1-1.07-.23 2.433 2.433 0 0 1-.73-.539 2.589 2.589 0 0 1-.68-1.443 3.421 3.421 0 0 1-.032-.51l.049-.73.03-.03v-.254h.123l.01-.023a.853.853 0 0 1 .044-.079l.051-.07c.128-.172.316-.324.563-.465.09-.05.181-.097.274-.14.586-.27 1.062-.409 1.44-.409Zm.2 1.246c-.111 0-.221.006-.33.018-.172.02-.316.057-.43.108-.07.03-.137.063-.205.099-.151.078-.332.18-.54.306l-.124.075-.025.33c.001.198.038.394.11.58l.059.137c.066.138.145.27.24.399.196.277.504.454.851.486.065.007.13.01.2.01a1.2 1.2 0 0 0 .498-.1c.136-.062.258-.15.363-.261.24-.249.354-.527.354-.852a1.657 1.657 0 0 0-.195-.77 2.164 2.164 0 0 0-.103-.18c-.17-.263-.397-.385-.722-.385Z"/>
        <path id="9" d="M10.703 10h.139c.469 0 .937.007 1.405.022.968.031 1.786.098 2.458.2a6.056 6.056 0 0 1 2.117.756c.272.157.533.33.792.527.465.375.844.846 1.106 1.374.503.963.812 2.25.932 3.86.106 1.3.173 2.697.2 4.193l.039 2.795v2.049l.04 3.046a18.537 18.537 0 0 1-.248 3.115c-.206 1.21-.542 2.313-1.008 3.307-.156.336-.33.663-.523.984a5.691 5.691 0 0 1-2.89 2.364 9.528 9.528 0 0 1-2.312.566 15.05 15.05 0 0 1-1.87.11 13.74 13.74 0 0 1-5.19-.994 9.973 9.973 0 0 1-1.645-.837 6.871 6.871 0 0 1-1.546-1.326 5.726 5.726 0 0 1-.45-.605c-.459-.699-.768-1.387-.925-2.066l-.062-.31a11.275 11.275 0 0 1-.097-.775 21.861 21.861 0 0 1-.082-1.695l-.004-.49c0-.096.008-.192.024-.29.041-.225.134-.417.282-.564l.107-.107h.152c.529 0 1.057-.018 1.585-.051l.528-.039.328-.028.78-.035.451-.017c.356-.013.665-.022.926-.025l.318-.003c.725 0 1.22.055 1.507.178.092.036.177.09.25.157l.084.078.025.112c.122.56.49 1.034 1.01 1.298.083.045.168.087.255.124l.072.029h.658l.117-.042c.108-.044.212-.097.31-.157l.145-.095c.31-.228.53-.557.624-.935.07-.264.123-.531.161-.803.05-.344.084-.725.104-1.143l.013-.359-.059.021a7.817 7.817 0 0 1-2.107.366l-.314.006a8.11 8.11 0 0 1-4.15-1.137 8.53 8.53 0 0 1-3.105-3.116A8.436 8.436 0 0 1 1 19.26c0-.798.032-1.512.095-2.142.019-.186.04-.372.067-.558a6.858 6.858 0 0 1 .714-2.216 7.248 7.248 0 0 1 3.246-3.098l.232-.106a13.294 13.294 0 0 1 4.964-1.132l.385-.006Zm1.924 1.127c-1.495 0-2.809.068-3.943.204-.338.04-.675.089-1.01.147a6.744 6.744 0 0 0-3.407 1.652c-.462.41-.862.883-1.186 1.406-.172.281-.32.577-.44.882a7.174 7.174 0 0 0-.411 1.586 9.83 9.83 0 0 0-.1 1.427c-.003.736.064 1.47.2 2.193.144.76.39 1.495.735 2.19a7.08 7.08 0 0 0 1.615 2.14c.299.265.62.504.96.711.876.53 1.86.858 2.881.962.323.035.648.053.973.052a6.86 6.86 0 0 0 2.61-.514l.216-.108.465.155.162.161.067.2.019.115c.001.612-.031 1.223-.098 1.832-.056.493-.136.962-.24 1.408l-.11.432c-.079.294-.2.575-.366.838-.379.583-.95.915-1.682.982a2.862 2.862 0 0 1-1.647-.336 3.676 3.676 0 0 1-.465-.294 3.153 3.153 0 0 1-.576-.543 2.384 2.384 0 0 1-.41-.722l-.019-.062-.165-.02a11.415 11.415 0 0 0-.807-.058l-.403-.007-.306.003a45.76 45.76 0 0 0-1.715.074c-.581.064-1.163.103-1.745.116h-.115v.019a9.723 9.723 0 0 0-.032.745l-.001.182a6.44 6.44 0 0 0 .299 1.999c.2.617.508 1.194.91 1.704a7.4 7.4 0 0 0 2.533 2.044c.243.122.49.233.742.332 1.062.416 2.178.675 3.317.77.42.037.843.055 1.27.055.73.005 1.459-.054 2.175-.177 1.852-.333 3.131-1.129 3.867-2.389 1.035-1.77 1.556-4.033 1.556-6.786l-.04-3.01-.003-2.465-.036-2.389a63.159 63.159 0 0 0-.198-4.13c-.04-.57-.127-1.136-.257-1.69a6.594 6.594 0 0 0-.568-1.538 4.468 4.468 0 0 0-.808-1.1 4.366 4.366 0 0 0-1.71-1.016 7.088 7.088 0 0 0-1.571-.319 10.4 10.4 0 0 0-.982-.045Zm-1.864 5.237.214.006c.566.033 1.118.19 1.614.457l.249.145c.476.296.797.7.953 1.2l.609-.608-.52 1.034.013.103.007.12.003.122c0 .173-.035.345-.102.513l-.017.038v.168l-.082.164-.002.06a1.899 1.899 0 0 1-.7 1.373l-.122.095c-.281.203-.598.35-.931.435a3.933 3.933 0 0 1-.784.12 5.052 5.052 0 0 1-.283.008c-.648 0-1.195-.111-1.637-.34a2.219 2.219 0 0 1-.665-.52 2.881 2.881 0 0 1-.631-1.283 3.99 3.99 0 0 1-.09-.866 2.521 2.521 0 0 1 .154-.898c.147-.384.395-.72.716-.973a3.014 3.014 0 0 1 1.552-.644c.16-.02.321-.03.482-.03Zm-.04 1.008-.16.008a2.006 2.006 0 0 0-.478.103 2.824 2.824 0 0 0-.391.167l-.194.107a1.502 1.502 0 0 0-.3.23.82.82 0 0 0-.25.602c-.002.243.02.485.065.722.055.285.146.537.273.757.043.075.09.147.142.215.216.285.533.478.892.542.157.03.317.045.483.044.263.002.525-.04.773-.124.08-.027.158-.06.235-.096.244-.118.424-.272.547-.465l.038-.07.014-.056.033-.115.039-.115.06-.156.111-.254.003-.047a.817.817 0 0 1 .026-.167l.009-.027-.003-.081a2.1 2.1 0 0 0-.044-.315l-.04-.153a1.603 1.603 0 0 0-.481-.735 2.015 2.015 0 0 0-1.24-.516l-.161-.005Z"/>
        <path id="10" d="M8.942 28.404h.085c1.229 0 2.045.14 2.479.453a.979.979 0 0 1 .299.326l.062.11-.02.126c-.042.27-.076.542-.101.815-.06.632-.1 1.412-.118 2.339l-.01.706-.004.86-.415.412-4.828-.04-.155-.034a.731.731 0 0 1-.348-.331c-.182-.324-.26-.866-.26-1.662v-.172l.005-.17c.01-.377.034-.863.075-1.466l.027-.339c.029-.37.045-.648.05-.833v-.107l.04-.159.181-.361.13-.052c.294-.118.709-.216 1.25-.299.38-.057.761-.094 1.144-.111l.432-.011Zm.323 1.126-.296.006c-.198.007-.397.02-.595.038-.333.03-.688.075-1.066.137l-.42.073-.014.279-.06.853a11.607 11.607 0 0 0-.116 1.649c0 .137.005.274.015.41.008.107.02.206.034.297l.022.113 3.714.034V32.09c0-.48.017-.961.054-1.44l.042-.48.048-.413.012-.08-.201-.042a5.922 5.922 0 0 0-.52-.074l-.264-.02-.194-.007-.195-.004Zm-.323-14.406h.085c1.229 0 2.045.14 2.479.453a.979.979 0 0 1 .299.326l.063.112-.02.126c-.118.72-.192 1.773-.22 3.152l-.01.707-.004.858-.415.414-4.828-.041-.155-.034a.731.731 0 0 1-.348-.331c-.182-.324-.26-.866-.26-1.662v-.172l.005-.17c.01-.377.034-.863.075-1.466l.027-.339c.029-.369.045-.648.05-.833v-.107l.04-.159.181-.361.13-.052c.294-.118.709-.216 1.25-.299.38-.057.761-.094 1.144-.111l.432-.011Zm.481 1.166-.322.005c-.653.016-1.36.084-2.119.202l-.092.016-.035.57-.042.553a11.607 11.607 0 0 0-.115 1.649c0 .137.005.274.015.41.008.107.02.206.034.297l.022.114 3.715.033.002-.291c.01-1.177.047-2.157.11-2.94l.019-.21.03-.308-.06-.012a5.37 5.37 0 0 0-.78-.08l-.382-.008Z"/>
    </g>
</svg>