
<svg width="32px" height="40px" viewBox="0 0 32 40" version="1.1" xmlns="http://www.w3.org/2000/svg" xmlns:xlink="http://www.w3.org/1999/xlink">
    <path d="M31.1770491,34.3945312 C31.1770491,35.1601562 31.0312157,35.8847656 30.7395491,36.5683594 C30.4478824,37.2519531 30.0468407,37.8489583 29.5364241,38.359375 C29.0260074,38.8697917 28.4290022,39.2708333 27.7454084,39.5625 C27.0618147,39.8541667 26.3372053,40 25.5715803,40 L5.96611157,40 C5.20048657,40 4.47587719,39.8541667 3.79228344,39.5625 C3.10868969,39.2708333 2.51168448,38.8697917 2.00126782,38.359375 C1.49085115,37.8489583 1.08980948,37.2519531 0.798142818,36.5683594 C0.506476151,35.8847656 0.360642818,35.1601562 0.360642818,34.3945312 L0.360642818,6.39453125 C0.360642818,5.62890625 0.506476151,4.90429688 0.798142818,4.22070312 C1.08980948,3.53710938 1.49085115,2.94466146 2.00126782,2.44335938 C2.51168448,1.94205729 3.10868969,1.54101562 3.79228344,1.24023438 C4.47587719,0.939453125 5.20048657,0.7890625 5.96611157,0.7890625 L25.5715803,0.7890625 C26.3372053,0.7890625 27.0618147,0.939453125 27.7454084,1.24023438 C28.4290022,1.54101562 29.0260074,1.94205729 29.5364241,2.44335938 C30.0468407,2.94466146 30.4478824,3.53710938 30.7395491,4.22070312 C31.0312157,4.90429688 31.1770491,5.62890625 31.1770491,6.39453125 L31.1770491,34.3945312 Z M5.96611157,6.39453125 L5.96611157,34.3945312 L25.5715803,34.3945312 L25.5715803,6.39453125 L5.96611157,6.39453125 Z" id="0"></path>
    <polygon id="1" points="21.6926741 0.7890625 21.6926741 40 16.0872053 40 16.0872053 6.39453125 9.36064282 6.39453125 9.36064282 0.7890625"></polygon>
    <path d="M5.96611157,6.39453125 L5.96611157,11.453125 L0.360642818,11.453125 L0.360642818,6.39453125 C0.360642818,5.62890625 0.506476151,4.90429688 0.798142818,4.22070312 C1.08980948,3.53710938 1.49085115,2.94466146 2.00126782,2.44335938 C2.51168448,1.94205729 3.10868969,1.54101562 3.79228344,1.24023438 C4.47587719,0.939453125 5.20048657,0.7890625 5.96611157,0.7890625 L23.7122053,0.7890625 C24.4778303,0.7890625 25.2024397,0.939453125 25.8860334,1.24023438 C26.5696272,1.54101562 27.1620751,1.94205729 27.6633772,2.44335938 C28.1646793,2.94466146 28.5657209,3.53710938 28.8665022,4.22070312 C29.1672834,4.90429688 29.3176741,5.62890625 29.3176741,6.39453125 L29.3176741,13.5585938 C29.3176741,14.3242188 29.2447574,15.0078125 29.0989241,15.609375 C28.9530907,16.2109375 28.7206689,16.7532552 28.4016584,17.2363281 C28.082648,17.719401 27.6770491,18.1523438 27.1848616,18.5351562 C26.6926741,18.9179688 26.0911116,19.2825521 25.3801741,19.6289062 L5.96611157,28.734375 L5.96611157,34.3945312 L24.4231428,34.3945312 L24.4231428,29.3632812 L30.0286116,29.3632812 L30.0286116,40 L0.360642818,40 L0.360642818,29.6914062 C0.360642818,28.9257812 0.438116776,28.2421875 0.593064693,27.640625 C0.74801261,27.0390625 0.980434485,26.5013021 1.29033032,26.0273438 C1.60022615,25.5533854 2.00582511,25.1204427 2.50712719,24.7285156 C3.00842928,24.3365885 3.5963199,23.9765625 4.27079907,23.6484375 L23.7122053,14.515625 L23.7122053,6.39453125 L5.96611157,6.39453125 Z" id="2"></path>
    <path d="M0.360642818,28.1328125 L5.85673657,28.1328125 L5.85673657,30.2109375 C5.85673657,31.6875 6.18486157,32.7721354 6.84111157,33.4648438 C7.49736157,34.1575521 8.5728824,34.5039062 10.0676741,34.5039062 L21.3606428,34.5039062 C22.8554345,34.5039062 23.9309553,34.1575521 24.5872053,33.4648438 C25.2434553,32.7721354 25.5715803,31.6875 25.5715803,30.2109375 L25.5715803,27.1757812 C25.5715803,25.6809896 25.2434553,24.5963542 24.5872053,23.921875 C23.9309553,23.2473958 22.8554345,22.9101562 21.3606428,22.9101562 L9.76689282,22.9101562 L9.76689282,17.4414062 L21.1965803,17.4414062 C22.5637678,17.3867188 23.5435855,17.0175781 24.1360334,16.3339844 C24.7284814,15.6503906 25.0247053,14.5976562 25.0247053,13.1757812 L25.0247053,10.6054688 C25.0247053,9.11067708 24.692023,8.01692708 24.0266584,7.32421875 C23.3612939,6.63151042 22.2903303,6.28515625 20.8137678,6.28515625 L10.6145491,6.28515625 C9.13798657,6.28515625 8.07158032,6.63151042 7.41533032,7.32421875 C6.75908032,8.01692708 6.43095532,9.11067708 6.43095532,10.6054688 L6.43095532,12.6835938 L0.934861568,12.6835938 L0.934861568,10.3320312 C0.934861568,3.97005208 4.10673657,0.7890625 10.4504866,0.7890625 L20.9778303,0.7890625 C24.2043928,0.7890625 26.5969709,1.57291667 28.1555647,3.140625 C29.7141584,4.70833333 30.4934553,7.10546875 30.4934553,10.3320312 L30.4934553,11.0429688 C30.4934553,13.2486979 30.1060855,15.0670573 29.3313459,16.4980469 C28.5566064,17.9290365 27.4309553,18.9908854 25.9543928,19.6835938 C27.613247,20.1757812 28.8801741,21.1601563 29.7551741,22.6367188 C30.6301741,24.1132812 31.0676741,26.0729167 31.0676741,28.515625 L31.0676741,30.484375 C31.0676741,36.828125 27.8957991,40 21.5520491,40 L9.90361157,40 C3.5416324,40 0.360642818,36.828125 0.360642818,30.484375 L0.360642818,28.1328125 Z" id="3"></path>
    <path d="M0.360642818,26.4921875 L19.6926741,0.7890625 L26.2825178,0.7890625 L26.2825178,26.4921875 L31.5598616,26.4921875 L31.5598616,31.8789062 L26.2825178,31.8789062 L26.2825178,40 L20.6770491,40 L20.6770491,31.8789062 L0.360642818,31.8789062 L0.360642818,26.4921875 Z M20.6770491,26.4921875 L20.6770491,7.5703125 L6.45829907,26.4921875 L20.6770491,26.4921875 Z" id="4"></path>
    <path d="M30.9465803,30.484375 C30.8918928,33.6744792 30.0898095,36.0579427 28.5403303,37.6347656 C26.9908512,39.2115885 24.6210595,40 21.4309553,40 L10.9036116,40 C4.5416324,40 1.36064282,36.828125 1.36064282,30.484375 L1.36064282,28.1328125 L6.85673657,28.1328125 L6.85673657,30.2109375 C6.85673657,31.6875 7.18486157,32.7721354 7.84111157,33.4648438 C8.49736157,34.1575521 9.5728824,34.5039062 11.0676741,34.5039062 L21.2395491,34.5039062 C22.7343407,34.5039062 23.8098616,34.1575521 24.4661116,33.4648438 C25.1223616,32.7721354 25.4504866,31.6875 25.4504866,30.2109375 L25.4504866,24.9335938 C25.4504866,23.4570312 25.1223616,22.3769531 24.4661116,21.6933594 C23.8098616,21.0097656 22.7343407,20.6679688 21.2395491,20.6679688 L2.48173657,20.6679688 L2.48173657,0.7890625 L29.9348616,0.7890625 L29.9348616,6.39453125 L8.08720532,6.39453125 L8.08720532,15.1992188 L21.4309553,15.1992188 C24.6392887,15.1992188 27.0273095,15.9785156 28.5950178,17.5371094 C30.1627262,19.0957031 30.9465803,21.4882812 30.9465803,24.7148438 L30.9465803,30.484375 Z" id="5"></path>
    <path d="M1.36064282,6.39453125 C1.36064282,5.62890625 1.50647615,4.90429688 1.79814282,4.22070312 C2.08980948,3.53710938 2.49085115,2.94466146 3.00126782,2.44335938 C3.51168448,1.94205729 4.10868969,1.54101562 4.79228344,1.24023438 C5.47587719,0.939453125 6.20048657,0.7890625 6.96611157,0.7890625 L24.8762678,0.7890625 C25.6418928,0.7890625 26.3665022,0.939453125 27.0500959,1.24023438 C27.7336897,1.54101562 28.3306949,1.94205729 28.8411116,2.44335938 C29.3515282,2.94466146 29.7525699,3.53710938 30.0442366,4.22070312 C30.3359032,4.90429688 30.4817366,5.62890625 30.4817366,6.39453125 L30.4817366,11.453125 L24.8762678,11.453125 L24.8762678,6.39453125 L6.96611157,6.39453125 L6.96611157,17.6054688 L24.8762678,17.6054688 C25.6418928,17.6054688 26.3665022,17.7513021 27.0500959,18.0429688 C27.7336897,18.3346354 28.3306949,18.7356771 28.8411116,19.2460938 C29.3515282,19.7565104 29.7525699,20.3535156 30.0442366,21.0371094 C30.3359032,21.7207031 30.4817366,22.4453125 30.4817366,23.2109375 L30.4817366,34.3945312 C30.4817366,35.1601562 30.3359032,35.8847656 30.0442366,36.5683594 C29.7525699,37.2519531 29.3515282,37.8489583 28.8411116,38.359375 C28.3306949,38.8697917 27.7336897,39.2708333 27.0500959,39.5625 C26.3665022,39.8541667 25.6418928,40 24.8762678,40 L6.96611157,40 C6.20048657,40 5.47587719,39.8541667 4.79228344,39.5625 C4.10868969,39.2708333 3.51168448,38.8697917 3.00126782,38.359375 C2.49085115,37.8489583 2.08980948,37.2519531 1.79814282,36.5683594 C1.50647615,35.8847656 1.36064282,35.1601562 1.36064282,34.3945312 L1.36064282,6.39453125 Z M6.96611157,23.2109375 L6.96611157,34.3945312 L24.8762678,34.3945312 L24.8762678,23.2109375 L6.96611157,23.2109375 Z" id="6"></path>
    <polygon id="7" points="4.68095532 40 22.2629866 6.39453125 0.360642818 6.39453125 0.360642818 0.7890625 30.6028303 0.7890625 30.6028303 2.484375 11.1614241 40"></polygon>
    <path d="M21.1965803,17.4414062 C22.5637678,17.3867188 23.5390282,17.0175781 24.1223616,16.3339844 C24.7056949,15.6503906 24.9973616,14.5976562 24.9973616,13.1757812 L24.9973616,10.6054688 C24.9973616,9.11067708 24.6692366,8.01692708 24.0129866,7.32421875 C23.3567366,6.63151042 22.2903303,6.28515625 20.8137678,6.28515625 L10.6145491,6.28515625 C9.13798657,6.28515625 8.07158032,6.63151042 7.41533032,7.32421875 C6.75908032,8.01692708 6.43095532,9.11067708 6.43095532,10.6054688 L6.43095532,13.1757812 C6.43095532,14.5976562 6.72717928,15.6503906 7.31962719,16.3339844 C7.91207511,17.0175781 8.88277823,17.3867188 10.2317366,17.4414062 L21.1965803,17.4414062 Z M21.3606428,34.5039062 C22.8554345,34.5039062 23.9309553,34.1575521 24.5872053,33.4648438 C25.2434553,32.7721354 25.5715803,31.6875 25.5715803,30.2109375 L25.5715803,27.1757812 C25.5715803,25.6809896 25.2434553,24.5963542 24.5872053,23.921875 C23.9309553,23.2473958 22.8554345,22.9101562 21.3606428,22.9101562 L10.0676741,22.9101562 C8.5728824,22.9101562 7.49736157,23.2473958 6.84111157,23.921875 C6.18486157,24.5963542 5.85673657,25.6809896 5.85673657,27.1757812 L5.85673657,30.2109375 C5.85673657,31.6875 6.18486157,32.7721354 6.84111157,33.4648438 C7.49736157,34.1575521 8.5728824,34.5039062 10.0676741,34.5039062 L21.3606428,34.5039062 Z M9.90361157,40 C3.5416324,40 0.360642818,36.828125 0.360642818,30.484375 L0.360642818,28.515625 C0.360642818,26.0729167 0.798142818,24.1132812 1.67314282,22.6367188 C2.54814282,21.1601563 3.8150699,20.1757812 5.47392407,19.6835938 C3.99736157,18.9908854 2.87171053,17.9290365 2.09697094,16.4980469 C1.32223136,15.0670573 0.934861568,13.2486979 0.934861568,11.0429688 L0.934861568,10.3320312 C0.934861568,3.97005208 4.10673657,0.7890625 10.4504866,0.7890625 L20.9778303,0.7890625 C27.3215803,0.7890625 30.4934553,3.97005208 30.4934553,10.3320312 L30.4934553,11.0429688 C30.4934553,13.2486979 30.1060855,15.0670573 29.3313459,16.4980469 C28.5566064,17.9290365 27.4309553,18.9908854 25.9543928,19.6835938 C27.613247,20.1757812 28.8801741,21.1601563 29.7551741,22.6367188 C30.6301741,24.1132812 31.0676741,26.0729167 31.0676741,28.515625 L31.0676741,30.484375 C31.0676741,36.828125 27.8957991,40 21.5520491,40 L9.90361157,40 Z" id="8"></path>
    <path d="M30.4817366,34.3945312 C30.4817366,35.1601562 30.3359032,35.8847656 30.0442366,36.5683594 C29.7525699,37.2519531 29.3515282,37.8489583 28.8411116,38.359375 C28.3306949,38.8697917 27.7336897,39.2708333 27.0500959,39.5625 C26.3665022,39.8541667 25.6418928,40 24.8762678,40 L6.96611157,40 C6.20048657,40 5.47587719,39.8541667 4.79228344,39.5625 C4.10868969,39.2708333 3.51168448,38.8697917 3.00126782,38.359375 C2.49085115,37.8489583 2.08980948,37.2519531 1.79814282,36.5683594 C1.50647615,35.8847656 1.36064282,35.1601562 1.36064282,34.3945312 L1.36064282,29.3632812 L6.96611157,29.3632812 L6.96611157,34.3945312 L24.8762678,34.3945312 L24.8762678,23.2109375 L6.96611157,23.2109375 C6.20048657,23.2109375 5.47587719,23.0605469 4.79228344,22.7597656 C4.10868969,22.4589844 3.51168448,22.0579427 3.00126782,21.5566406 C2.49085115,21.0553385 2.08980948,20.4628906 1.79814282,19.7792969 C1.50647615,19.0957031 1.36064282,18.3710938 1.36064282,17.6054688 L1.36064282,6.39453125 C1.36064282,5.62890625 1.50647615,4.90429688 1.79814282,4.22070312 C2.08980948,3.53710938 2.49085115,2.94466146 3.00126782,2.44335938 C3.51168448,1.94205729 4.10868969,1.54101562 4.79228344,1.24023438 C5.47587719,0.939453125 6.20048657,0.7890625 6.96611157,0.7890625 L24.8762678,0.7890625 C25.6418928,0.7890625 26.3665022,0.939453125 27.0500959,1.24023438 C27.7336897,1.54101562 28.3306949,1.94205729 28.8411116,2.44335938 C29.3515282,2.94466146 29.7525699,3.53710938 30.0442366,4.22070312 C30.3359032,4.90429688 30.4817366,5.62890625 30.4817366,6.39453125 L30.4817366,34.3945312 Z M24.8762678,17.6054688 L24.8762678,6.39453125 L6.96611157,6.39453125 L6.96611157,17.6054688 L24.8762678,17.6054688 Z" id="9"></path>
    <path d="M11.3606428,31.734375 L19.5364241,31.734375 L19.5364241,39.9101562 L11.3606428,39.9101562 L11.3606428,31.734375 Z M11.3606428,10.7890625 L19.5364241,10.7890625 L19.5364241,18.9648438 L11.3606428,18.9648438 L11.3606428,10.7890625 Z" id="10"></path>
</svg>