<svg xmlns="http://www.w3.org/2000/svg" translatex="[0, 0, 22, 44, 56, 78, 98, 110, 132, 156]" width="22" height="50" viewBox="0 0 22 50">
    <g id="full" fill="none" fill-rule="evenodd" stroke="none" stroke-width="1">
        <path id="0" fill="#D0021B" opacity="0.7" d="M22,0 L22,50 L0,50 L0,0 L22,0 Z M10.44,15.9 C6.64,15.9 6.7,19.38 6.7,23.12 L6.7006048,23.770196 C6.711208,27.154384 6.9056,30.3 10.44,30.3 C13.9744,30.3 14.168792,27.154384 14.1793952,23.770196 L14.1799936,23.3371 L14.1800022,23.2285785 L14.1800371,22.6726541 C14.178624,19.107168 14.088,15.9 10.44,15.9 Z M10.44,17.44 C12.32,17.44 12.34,19.74 12.34,23.48 L12.3408608,23.8641597 L12.3412018,23.96145 L12.3411514,24.6506165 C12.3280789,26.6962016 12.1491892,28.76 10.44,28.76 C8.73081081,28.76 8.55192111,26.6962016 8.53884864,24.6506165 L8.53847551,24.0591357 C8.53907962,23.8634039 8.54,23.6697297 8.54,23.48 L8.54043447,22.9015658 C8.54725762,19.5042659 8.65894737,17.44 10.44,17.44 Z"/>
        <path id="1" fill="#D0021B" d="M22,0 L22,50 L0,50 L0,0 L22,0 Z M11.78,16.12 L10.2,16.12 C9.64,16.58 8.32,17.58 7.86,17.78 L7.86,19.54 L9.94,18.14 L9.94,30 L11.78,30 L11.78,16.12 Z"/>
        <path id="2" fill="#33FF00" opacity="0.7" d="M22,0 L22,50 L0,50 L0,0 L22,0 Z M10.26,15.9 C7.9,15.9 6.74,17.4 6.9,19.7 L8.78,19.7 C8.76,18.58 9.02,17.44 10.4,17.44 C11.58,17.44 12.12,18.18 12.12,19.28 C12.12,21.68 10.92,22.72 6.86,28.4 L6.86,30 L14.32,30 L14.32,28.4 L8.82,28.4 C12.4,23.68 13.96,22.64 13.96,19.54 C13.96,17.04 12.76,15.9 10.26,15.9 Z"/>
        <path id="3" fill="#0000FF" d="M22,0 L22,50 L0,50 L0,0 L22,0 Z M10.28,15.9 C7.7,15.9 6.56,17.34 6.7,19.7 L8.54,19.7 C8.52,18.58 8.76,17.44 10.28,17.44 C11.64,17.44 12.2,18.36 12.2,19.62 C12.2,21.4 11.02,22.06 9.36,21.92 L9.36,23.54 C11.5,23.54 12.34,24.02 12.34,26.26 C12.34,27.74 11.84,28.76 10.22,28.76 C8.56,28.76 8.34,27.56 8.32,26.18 L6.48,26.18 C6.48,26.96 6.18,30.3 10.06,30.3 C12.72,30.3 14.18,29 14.18,26.3 C14.18,24.22 13.48,23.06 11.3,22.76 L11.3,22.72 C12.1,22.52 14.04,22.12 14.04,19.5 C14.04,17.08 12.64,15.9 10.28,15.9 Z"/>
        <path id="4" fill="#00ADFF" d="M22,0 L22,50 L0,50 L0,0 L22,0 Z M12.86,16.12 L10.42,16.12 L6.5,25.02 L6.5,26.62 L11.14,26.62 L11.14,30 L12.86,30 L12.86,26.62 L14.5,26.62 L14.5,25.02 L12.86,25.02 L12.86,16.12 Z M11.14,17.8 L11.14,25.02 L8.1,25.02 L11.1,17.8 L11.14,17.8 Z"/>
        <path id="5" fill="#BD10E0" d="M22,0 L22,50 L0,50 L0,0 L22,0 Z M13.66,16.12 L7.18,16.12 L7.18,23.92 L8.84,23.92 C9,23 9.54,22.3 10.54,22.3 C12.26,22.3 12.32,23.88 12.32,25.9 C12.32,27.26 12.2,28.96 10.46,28.96 C9.24,28.96 8.82,27.94 8.82,26.86 L6.98,26.86 C6.98,28.72 7.52,30.3 10.4,30.3 C13.88,30.3 14.16,27.66 14.16,25.44 C14.16,22.24 13.24,20.76 11.26,20.76 C10.32,20.76 9.36,21.2 9.06,21.8 L9.02,21.76 L9.02,17.72 L13.66,17.72 L13.66,16.12 Z"/>
        <path id="6" fill="#50E3C2" d="M22,0 L22,50 L0,50 L0,0 L22,0 Z M10.46,15.9 C6.66,15.9 6.72,19.38 6.72,23.12 L6.7206048,23.770196 C6.731208,27.154384 6.9256,30.3 10.46,30.3 C13.16,30.3 14.16,28.1 14.16,25.62 C14.16,22 12.64,20.96 10.86,20.96 C9.9,20.96 9.06,21.46 8.6,22.26 L8.56,22.26 C8.56,18.56 8.94,17.24 10.44,17.24 C11.54,17.24 12.06,18.32 12.06,19.28 L13.9,19.28 C13.98,17.18 12.54,15.9 10.46,15.9 Z M10.44,22.5 C12.04,22.5 12.32,24.04 12.32,25.3 C12.32,27.12 12.06,28.76 10.56,28.76 C8.84137931,28.76 8.61431629,27.0074197 8.60070032,25.6444446 L8.6,25.5 C8.6,24.26 8.82,22.5 10.44,22.5 Z"/>
        <path id="7" fill="#417505" d="M22,0 L22,50 L0,50 L0,0 L22,0 Z M13.78,16.12 L6.6,16.12 L6.6,17.72 L11.88,17.72 L8,30 L10.08,30 L13.78,17.72 L13.78,16.12 Z"/>
        <path id="8" fill="#4A4A4A" d="M22,0 L22,50 L0,50 L0,0 L22,0 Z M10.44,15.9 C8.26,15.9 6.88,17.2 6.88,19.38 C6.88,20.96 7.66,22.32 9.3,22.64 L9.3,22.66 C7.26,22.86 6.74,24.46 6.74,26.26 C6.74,28.76 8.02,30.3 10.44,30.3 C12.86,30.3 14.14,28.76 14.14,26.26 C14.14,24.46 13.62,22.86 11.58,22.66 L11.58,22.64 C13.22,22.32 14,20.96 14,19.38 C14,17.2 12.62,15.9 10.44,15.9 Z M10.44,23.44 C12.16,23.44 12.3,25.04 12.3,26.28 C12.3,27.48 11.82,28.76 10.44,28.76 C9.06,28.76 8.58,27.48 8.58,26.28 C8.58,25.04 8.72,23.44 10.44,23.44 Z M10.44,17.24 C11.62,17.24 12.16,18.28 12.16,19.32 C12.16,20.34 11.82,21.84 10.44,21.84 C9.06,21.84 8.72,20.34 8.72,19.32 C8.72,18.28 9.26,17.24 10.44,17.24 Z"/>
        <path id="9" fill="#F5A623" d="M22,0 L22,50 L0,50 L0,0 L22,0 Z M10.42,15.9 C8.58,15.9 6.72,17.04 6.72,20.16 C6.72,23.96 8.8,24.54 9.9,24.54 C10.96,24.54 11.84,24.2 12.28,23.24 L12.32,23.24 C12.32,26.8 12.2,28.76 10.42,28.76 C9.24,28.76 8.84,27.7 8.84,26.68 L7,26.68 C6.96,28.88 8.34,30.3 10.42,30.3 C13.9544,30.3 14.148792,27.154384 14.1593952,23.770196 L14.1599936,23.3371 L14.1600022,23.2285785 L14.1600371,22.6726541 C14.158624,19.107168 14.068,15.9 10.42,15.9 Z M10.42,17.24 C12,17.24 12.28,18.86 12.28,20.12 C12.28,21.5 12.02,23 10.42,23 C8.82,23 8.56,21.5 8.56,20.12 C8.56,18.86 8.84,17.24 10.42,17.24 Z"/>
        <path id="10" fill="#ffffff" opacity="0.9" d="M12,0 L12,50 L0,50 L0,0 L12,0 Z M6,28 C4.8954305,28 4,28.8954305 4,30 C4,31.1045695 4.8954305,32 6,32 C7.1045695,32 8,31.1045695 8,30 C8,28.8954305 7.1045695,28 6,28 Z M6,19 C4.8954305,19 4,19.8954305 4,21 C4,22.1045695 4.8954305,23 6,23 C7.1045695,23 8,22.1045695 8,21 C8,19.8954305 7.1045695,19 6,19 Z"/>
    </g>
</svg>