<svg xmlns="http://www.w3.org/2000/svg" xmlns:xlink="http://www.w3.org/1999/xlink" viewBox="0 0 144 144">

<g id="adjustFilter-plus" fill="none" fill-rule="evenodd" stroke="none">
<rect id="background" fill="#263838" fill-rule="nonzero" x="0" y="0" width="144" height="144"/>
<path fill="#999" d="M66.728,53.615l-43.113,43.113l9.657,9.657l43.113,-43.113l-9.657,-9.657Zm5.438,9.683l-5.464,-5.464l-10.868,10.868l5.464,5.464l10.868,-10.868Zm-21.166,-27.298l2.971,8.029l8.029,2.971l-8.029,2.971l-2.971,8.029l-2.971,-8.029l-8.029,-2.971l8.029,-2.971l2.971,-8.029Zm34,-4l2.971,8.029l8.029,2.971l-8.029,2.971l-2.971,8.029l-2.971,-8.029l-8.029,-2.971l8.029,-2.971l2.971,-8.029Z"/>
<path fill="#999" fill-rule="nonzero" d="M97,66c11.59,0 21,9.41 21,21c-0,11.59 -9.41,21 -21,21c-11.59,0 -21,-9.41 -21,-21c-0,-11.59 9.41,-21 21,-21Zm3,18l0,-10l-6,0l0,10l-10,0l0,6l10,0l0,10l6,-0l0,-10l10,0l-0,-6l-10,0Z"/></g></svg>