<svg xmlns="http://www.w3.org/2000/svg" xmlns:xlink="http://www.w3.org/1999/xlink" viewBox="0 0 144 144">
<rect id="background" fill="#5e8b8b" fill-rule="nonzero" x="0" y="0" width="144" height="144"/>
<path id="icon" fill="#f3f3f3" fill-rule="evenodd" d="M104,50l0,44c0,5.519 -4.481,10 -10,10l-44,0c-5.519,0 -10,-4.481 -10,-10l0,-44c0,-5.519 4.481,-10 10,-10l44,0c5.519,0 10,4.481 10,10Zm-4,0c0,-3.311 -2.689,-6 -6,-6l-44,0c-3.311,0 -6,2.689 -6,6l0,44c0,3.311 2.689,6 6,6l44,0c3.311,0 6,-2.689 6,-6l0,-44Zm-28.257,39.207c-1.977,0 -3.393,-1.416 -3.393,-3.394c-0,-2.001 1.416,-3.417 3.393,-3.417c1.978,-0 3.369,1.416 3.369,3.417c0,1.978 -1.391,3.394 -3.369,3.394Zm-2.466,-11.328l0,-2.246c-0.024,-3.223 1.538,-5.42 4.883,-7.422c2.832,-1.733 3.931,-3.272 3.931,-5.859l-0,-0.049c-0,-3.003 -2.344,-5.225 -5.982,-5.225c-3.686,0 -6.03,2.173 -6.274,5.64l-0.049,0.024l-4.15,0.025l-0,-0.049c0.268,-5.249 3.784,-9.448 10.644,-9.448c6.153,-0 10.352,3.808 10.352,8.813l-0,0.049c-0,3.808 -1.978,6.518 -5.103,8.398c-3.1,1.831 -3.979,3.199 -3.979,5.762l-0,1.587l-4.273,-0Z"/>
</svg>