<svg xmlns="http://www.w3.org/2000/svg" width="72" height="72" viewBox="0 0 72 72">
  <g fill="none" fill-rule="evenodd">
    <path fill="#EFEFEF" fill-rule="nonzero" d="M31.8704587 31.8482176L31.8686182 20.2631207 42.676783 26.0758522 31.8704587 31.8482176 31.8704587 31.8482176zM55.6005678 18.2561541C55.6005678 18.2561541 55.2097508 15.4148183 54.0103578 14.1635874 52.4893044 12.5213697 50.7843556 12.5132158 50.0024867 12.4171039 44.4050712 12 36.0086544 12 36.0086544 12L35.9912673 12C35.9912673 12 27.5950462 12 21.997435 12.4171039 21.215527 12.5132158 19.5112047 12.5213697 17.989603 14.1635874 16.7902883 15.4148183 16.4000196 18.2561541 16.4000196 18.2561541 16.4000196 18.2561541 16 21.5928234 16 24.9294524L16 28.0575496C16 31.3941383 16.4000196 34.7307672 16.4000196 34.7307672 16.4000196 34.7307672 16.7902883 37.5721434 17.989603 38.8233743 19.5112047 40.4656323 21.509932 40.4136811 22.4001566 40.5858025 25.6001958 40.902112 36 41 36 41 36 41 44.4050712 40.9869617 50.0024867 40.5698983 50.7843556 40.473746 52.4893044 40.4656323 54.0103578 38.8233743 55.2097508 37.5721434 55.6005678 34.7307672 55.6005678 34.7307672 55.6005678 34.7307672 56 31.3941383 56 28.0575496L56 24.9294524C56 21.5928234 55.6005678 18.2561541 55.6005678 18.2561541L55.6005678 18.2561541zM16 63L16 61.2238916C16 61.0422039 16.0921494 60.8738383 16.2427521 60.7803607L21 57.8275862 18.1281427 55.7055242C17.7339485 55.4142477 17.5 54.9439653 17.5 54.4428343L17.5 49.5517241C17.5 48.6947306 18.1715729 48 19 48L25 48C25.8284271 48 26.5 48.6947306 26.5 49.5517241L26.5 54.4428343C26.5 54.9439653 26.2660515 55.4142477 25.8718573 55.7055242L23 57.8275862 27.7572479 60.7803607C27.9078506 60.8738383 28 61.0422039 28 61.2238916L28 63 16 63z"/>
    <path fill="#EFEFEF" d="M53.9978712,59.3793103 L48.2777778,59.3793103 L44,63 L44.0021288,59.3793103 C42.8963836,59.3793103 42,58.4564 42,57.3154898 L42,50.0638205 C42,48.9240039 42.8945138,48 44.0021288,48 L53.9978712,48 C55.1036164,48 56,48.9229103 56,50.0638205 L56,57.3154898 C56,58.4553064 55.1054862,59.3793103 53.9978712,59.3793103 Z M44,53.1724138 L44,54.2068966 L52,54.2068966 L52,53.1724138 L44,53.1724138 Z M44,55.2413793 L44,56.2758621 L54,56.2758621 L54,55.2413793 L44,55.2413793 Z M44,51.1034483 L44,52.137931 L54,52.137931 L54,51.1034483 L44,51.1034483 Z"/>
  </g>
</svg>
