<?xml version="1.0" encoding="UTF-8" standalone="no"?>
<svg xmlns="http://www.w3.org/2000/svg" xmlns:xlink="http://www.w3.org/1999/xlink" viewBox="0 0 288 288" text-rendering="geometricPrecision" shape-rendering="geometricPrecision" style="white-space: pre;">
    <style>
@keyframes a0_o { 0% { opacity: 0.00483941; } 50% { opacity: 0.00483941; animation-timing-function: cubic-bezier(0.568424,0.001801,1,1); } 75% { opacity: 0.99872; } 100% { opacity: 0; } }
@keyframes a2_t { 0% { transform: translate(144px,144.000003px) rotate(0deg); } 15% { transform: translate(144px,144.000003px) rotate(0deg); } 30% { transform: translate(144px,144.000003px) rotate(720deg); } 100% { transform: translate(144px,144.000003px) rotate(720deg); } }
@keyframes a1_t { 0% { transform: scale(-0,-0) translate(-269px,-156px); animation-timing-function: cubic-bezier(0,0,1,1); } 15% { transform: scale(0,0) translate(-269px,-156px); animation-timing-function: cubic-bezier(0,0,1,1); } 30% { transform: scale(1,1) translate(-269px,-156px); } 100% { transform: scale(1,1) translate(-269px,-156px); } }
    </style>
    <path fill="#ffffff" stroke="#0078FF" d="M143,138.907L150.269,138.907L150.269,153.422L158.781,138.907L166.719,138.907L157.059,154.377L166.719,173.379L158.589,173.379L150.269,155.952L150.269,173.379L143,173.379L143,138.907ZM170.018,138.907L188.859,138.907L188.859,144.207L177.239,144.207L177.239,152.706L187.951,152.706L187.951,158.005L177.239,158.005L177.239,167.984L189.242,167.984L189.242,173.379L170.018,173.379L170.018,138.907ZM190.354,138.907L198.244,138.907L203.409,153.469L208.908,138.907L216.272,138.907L206.661,160.727L206.661,173.379L199.344,173.379L199.344,160.727L190.354,138.907ZM246.973,148.743L246.973,149.793L239.895,149.793L239.895,149.125C239.895,145.257,238.652,143.634,236.452,143.634C232.483,143.634,232.244,148.743,232.244,156.668C232.244,162.923,232.244,168.557,236.5,168.557C238.939,168.557,240.23,166.599,240.23,162.159L240.23,161.777L247.355,161.777L247.355,162.78C247.355,169.894,244.104,173.761,236.596,173.761C225.693,173.761,225.023,165.979,225.023,156.191C225.023,146.451,225.358,138.382,236.931,138.382C243.53,138.382,246.973,141.629,246.973,148.743ZM250.404,138.907L262.407,138.907C268.671,138.907,271.732,141.772,271.732,148.027C271.732,152.944,269.723,155.618,265.467,156.43C269.532,157.003,271.349,158.387,271.636,163.21L271.971,169.13C272.114,171.804,272.258,172.663,272.497,173.379L265.419,173.379C264.846,172.09,264.654,171.374,264.654,169.607L264.654,164.308C264.654,160.154,263.172,159.103,259.059,159.103L257.673,159.103L257.673,173.379L250.404,173.379L250.404,138.907ZM257.673,144.207L257.673,153.804L259.346,153.804C262.694,153.804,264.511,153.088,264.511,148.886C264.511,144.828,262.837,144.207,259.203,144.207L257.673,144.207ZM275.641,138.907L294.482,138.907L294.482,144.207L282.862,144.207L282.862,152.706L293.574,152.706L293.574,158.005L282.862,158.005L282.862,167.984L294.865,167.984L294.865,173.379L275.641,173.379L275.641,138.907ZM304.991,138.907L314.507,138.907L323.88,173.379L316.276,173.379L314.363,165.74L304.512,165.74L302.552,173.379L295.427,173.379L304.991,138.907ZM309.294,145.544L305.899,160.536L312.881,160.536L309.294,145.544ZM320.185,138.907L343.474,138.907L343.474,144.493L335.44,144.493L335.44,173.379L328.124,173.379L328.124,144.493L320.185,144.493L320.185,138.907ZM368.902,155.905C368.902,166.265,368.567,174,356.756,174C345.709,174,344.944,165.883,344.944,155.714C344.944,145.639,346.092,138,356.852,138C368.376,138,368.902,145.257,368.902,155.905ZM352.309,153.804L352.309,156.716C352.309,164.737,352.739,168.891,356.852,168.891C361.394,168.891,361.538,164.785,361.538,155.379L361.538,152.085C361.538,145.162,360.151,143.156,356.899,143.156C353.169,143.156,352.309,146.164,352.309,153.804ZM372.907,138.907L384.91,138.907C391.174,138.907,394.235,141.772,394.235,148.027C394.235,152.944,392.226,155.618,387.97,156.43C392.035,157.003,393.852,158.387,394.139,163.21L394.474,169.13C394.617,171.804,394.761,172.663,395,173.379L387.923,173.379C387.349,172.09,387.158,171.374,387.158,169.607L387.158,164.308C387.158,160.154,385.675,159.103,381.563,159.103L380.176,159.103L380.176,173.379L372.907,173.379L372.907,138.907ZM380.176,144.207L380.176,153.804L381.849,153.804C385.197,153.804,387.014,153.088,387.014,148.886C387.014,144.828,385.34,144.207,381.706,144.207L380.176,144.207Z" opacity="0.00483941" transform="translate(-125,-12)" style="animation: 4s linear both a0_o;"/>
    <g style="animation: 4s linear both a2_t;">
        <path fill="none" stroke="#0078FF" d="M143,138.907L150.269,138.907L150.269,153.422L158.781,138.907L166.719,138.907L157.059,154.377L166.719,173.379L158.589,173.379L150.269,155.952L150.269,173.379L143,173.379L143,138.907ZM170.018,138.907L188.859,138.907L188.859,144.207L177.239,144.207L177.239,152.706L187.951,152.706L187.951,158.005L177.239,158.005L177.239,167.984L189.242,167.984L189.242,173.379L170.018,173.379L170.018,138.907ZM190.354,138.907L198.244,138.907L203.409,153.469L208.908,138.907L216.272,138.907L206.661,160.727L206.661,173.379L199.344,173.379L199.344,160.727L190.354,138.907ZM246.973,148.743L246.973,149.793L239.895,149.793L239.895,149.125C239.895,145.257,238.652,143.634,236.452,143.634C232.483,143.634,232.244,148.743,232.244,156.668C232.244,162.923,232.244,168.557,236.5,168.557C238.939,168.557,240.23,166.599,240.23,162.159L240.23,161.777L247.355,161.777L247.355,162.78C247.355,169.894,244.104,173.761,236.596,173.761C225.693,173.761,225.023,165.979,225.023,156.191C225.023,146.451,225.358,138.382,236.931,138.382C243.53,138.382,246.973,141.629,246.973,148.743ZM250.404,138.907L262.407,138.907C268.671,138.907,271.732,141.772,271.732,148.027C271.732,152.944,269.723,155.618,265.467,156.43C269.532,157.003,271.349,158.387,271.636,163.21L271.971,169.13C272.114,171.804,272.258,172.663,272.497,173.379L265.419,173.379C264.846,172.09,264.654,171.374,264.654,169.607L264.654,164.308C264.654,160.154,263.172,159.103,259.059,159.103L257.673,159.103L257.673,173.379L250.404,173.379L250.404,138.907ZM257.673,144.207L257.673,153.804L259.346,153.804C262.694,153.804,264.511,153.088,264.511,148.886C264.511,144.828,262.837,144.207,259.203,144.207L257.673,144.207ZM275.641,138.907L294.482,138.907L294.482,144.207L282.862,144.207L282.862,152.706L293.574,152.706L293.574,158.005L282.862,158.005L282.862,167.984L294.865,167.984L294.865,173.379L275.641,173.379L275.641,138.907ZM304.991,138.907L314.507,138.907L323.88,173.379L316.276,173.379L314.363,165.74L304.512,165.74L302.552,173.379L295.427,173.379L304.991,138.907ZM309.294,145.544L305.899,160.536L312.881,160.536L309.294,145.544ZM320.185,138.907L343.474,138.907L343.474,144.493L335.44,144.493L335.44,173.379L328.124,173.379L328.124,144.493L320.185,144.493L320.185,138.907ZM368.902,155.905C368.902,166.265,368.567,174,356.756,174C345.709,174,344.944,165.883,344.944,155.714C344.944,145.639,346.092,138,356.852,138C368.376,138,368.902,145.257,368.902,155.905ZM352.309,153.804L352.309,156.716C352.309,164.737,352.739,168.891,356.852,168.891C361.394,168.891,361.538,164.785,361.538,155.379L361.538,152.085C361.538,145.162,360.151,143.156,356.899,143.156C353.169,143.156,352.309,146.164,352.309,153.804ZM372.907,138.907L384.91,138.907C391.174,138.907,394.235,141.772,394.235,148.027C394.235,152.944,392.226,155.618,387.97,156.43C392.035,157.003,393.852,158.387,394.139,163.21L394.474,169.13C394.617,171.804,394.761,172.663,395,173.379L387.923,173.379C387.349,172.09,387.158,171.374,387.158,169.607L387.158,164.308C387.158,160.154,385.675,159.103,381.563,159.103L380.176,159.103L380.176,173.379L372.907,173.379L372.907,138.907ZM380.176,144.207L380.176,153.804L381.849,153.804C385.197,153.804,387.014,153.088,387.014,148.886C387.014,144.828,385.34,144.207,381.706,144.207L380.176,144.207Z" transform="translate(144,144) scale(0,0) translate(-269,-156)" style="animation: 4s linear both a1_t;"/>
    </g>
</svg>
