<svg xmlns="http://www.w3.org/2000/svg" width="20" height="20" viewBox="0 0 20 20"><g id="6"><rect id="background" width="20" height="20" fill="#444444"/><path id="number" fill="#4ACA4A" fill-rule="nonzero" d="M13.6111111,7.32230149 L10.6609393,7.32230149 C10.6609393,6.76244932 10.654854,6.40945047 10.6426833,6.26329437 C10.6305125,6.11713825 10.5720939,5.9945176 10.4674256,5.89542872 C10.3627572,5.79633985 10.2203617,5.74679614 10.0402348,5.74679614 C9.88931769,5.74679614 9.76517803,5.79386266 9.66781214,5.88799709 C9.57044626,5.98213152 9.5144617,6.10351359 9.49985682,6.25214692 C9.48525193,6.40078024 9.4779496,6.70051961 9.4779496,7.15137403 L9.4779496,9.06873431 C9.62886673,8.74669544 9.85037082,8.50516991 10.1424685,8.34415049 C10.4345662,8.18313106 10.7948146,8.10262254 11.2232245,8.10262254 C11.7636052,8.10262254 12.240691,8.25125364 12.654496,8.54852028 C13.068301,8.84578692 13.331185,9.20250156 13.4431558,9.61867486 C13.5551266,10.0348482 13.6111111,10.5971691 13.6111111,11.3056546 L13.6111111,12.2643348 C13.6111111,13.1065903 13.5794677,13.7333181 13.5161798,14.1445369 C13.452892,14.5557558 13.2837213,14.9360037 13.0086627,15.285292 C12.733604,15.6345802 12.3563168,15.905832 11.8767898,16.0990555 C11.3972628,16.2922788 10.8386343,16.3888889 10.2008877,16.3888889 C9.40735571,16.3888889 8.75744813,16.2774155 8.25114548,16.0544655 C7.74484282,15.8315157 7.35416805,15.5107202 7.0791094,15.0920696 C6.80405074,14.6734191 6.64339943,14.2337188 6.59715064,13.7729555 C6.55090183,13.3121922 6.52777778,12.4179284 6.52777778,11.0901374 L6.52777778,9.4254525 C6.52777778,7.99361815 6.54846772,7.03618618 6.58984822,6.55312788 C6.63122872,6.0700696 6.80039943,5.61302897 7.09736541,5.18199234 C7.39433138,4.7509557 7.79961084,4.42768307 8.31321591,4.21216476 C8.82682101,3.99664643 9.41952699,3.88888889 10.0913517,3.88888889 C10.9189618,3.88888889 11.5980787,4.02513406 12.1287228,4.29762848 C12.6593669,4.57012291 13.0390882,4.95408657 13.2678981,5.44953098 C13.4967079,5.9449754 13.6111111,6.56922599 13.6111111,7.32230149 Z M10.6609393,11.0752741 C10.6609393,10.649192 10.6146912,10.3568841 10.5221936,10.1983419 C10.429696,10.0397997 10.2787811,9.96052979 10.0694444,9.96052979 C9.86497606,9.96052979 9.71527825,10.0360839 9.62034652,10.1871945 C9.52541476,10.338305 9.4779496,10.6343286 9.4779496,11.0752741 L9.4779496,13.2527414 C9.4779496,13.782867 9.52298065,14.1296729 9.61304409,14.2931695 C9.70310755,14.4566662 9.85280536,14.5384133 10.062142,14.5384133 C10.1887177,14.5384133 10.3201597,14.4752451 10.4564719,14.3489067 C10.5927842,14.2225684 10.6609393,13.8819555 10.6609393,13.3270577 L10.6609393,11.0752741 Z"/></g></svg>
