<svg xmlns="http://www.w3.org/2000/svg" width="20" height="20" viewBox="0 0 20 20"><g id="8"><rect id="background" width="20" height="20" fill="#444444"/><path id="Shape" fill="#B8E986" fill-rule="nonzero" d="M9.89372091,16.985468 C8.65357696,16.985468 7.65147012,16.7151049 6.88740038,16.1743786 C6.01753638,15.5631228 5.57378819,14.6668103 5.55615581,13.4854409 C5.53264597,11.5870215 6.19973762,10.2939804 7.55743076,9.60631763 C6.51124297,8.97155201 5.98814908,8.06936197 5.98814908,6.89974754 C5.98814908,5.78890769 6.39075505,4.86614655 7.195967,4.13146412 C7.9659142,3.42616898 8.90043026,3.06764395 9.99951518,3.05588903 C12.4680482,3.03237919 13.7023147,4.25195203 13.7023147,6.71460756 C13.7023147,7.4199027 13.5612556,7.9635677 13.2791376,8.34560257 C13.0499167,8.66298538 12.6061685,8.98918438 11.947893,9.32419958 C12.8236345,9.76500904 13.437829,10.2410833 13.7904766,10.7524222 C14.2018987,11.3519231 14.4076098,12.1777062 14.4076098,13.2297714 C14.4076098,14.4287731 13.9638616,15.3691667 13.0763652,16.050952 C12.2535209,16.6739627 11.1926395,16.985468 9.89372091,16.985468 Z M9.97306661,4.6339869 C9.21487434,4.6339869 8.63594458,4.84851417 8.23627733,5.27756872 C7.87775231,5.67723596 7.70142852,6.21796223 7.70730598,6.89974754 C7.71318344,7.72259186 8.38909128,8.30739908 9.7350295,8.65416919 C10.4403246,8.44845811 10.9457862,8.24274703 11.2514141,8.03703595 C11.7392432,7.70789822 11.9831578,7.26708875 11.9831578,6.71460756 C11.9831578,5.91527307 11.8038952,5.35397569 11.4453702,5.03071542 C11.1397423,4.76622974 10.6489745,4.6339869 9.97306661,4.6339869 Z M9.81437521,10.2146347 C8.87985915,10.6495667 8.25684844,11.0257241 7.94534309,11.3431069 C7.45751395,11.830936 7.22829303,12.5185988 7.25768033,13.4060952 C7.28119017,14.1407776 7.61914409,14.6903201 8.27154209,15.0547226 C8.74761631,15.3133308 9.28834258,15.4426349 9.89372091,15.4426349 C10.9281538,15.4426349 11.6510813,15.1987203 12.0625035,14.7108912 C12.3916412,14.3229789 12.5562101,13.7352329 12.5562101,12.9476534 C12.5562101,12.1777062 12.2564596,11.5576342 11.6569588,11.0874374 C11.2572915,10.7641772 10.643097,10.4732429 9.81437521,10.2146347 Z"/></g></svg>
