<svg xmlns="http://www.w3.org/2000/svg" xmlns:xlink="http://www.w3.org/1999/xlink" viewBox="0 0 144 144">

<g id="studioMode" fill="none" fill-rule="evenodd" stroke="none">
<rect id="background" fill="#263838" fill-rule="nonzero" x="0" y="0" width="144" height="144"/>
<path fill="#999" d="M118,90l-92,-0l-0,6l92,-0l-0,-6Zm8,-40l-52,0l0,36l52,0l0,-36Zm-56,0l-52,0l0,36l52,0l0,-36Zm52,4l-44,0l-0,28l44,0l-0,-28Zm-56,0l-44,0l-0,28l44,0l-0,-28Zm-32.005,23.998l21.994,0.001l-0.001,-0.689c-0.269,-0.779 -0.896,-1.541 -1.881,-2.288c-0.985,-0.747 -2.256,-1.362 -3.811,-1.846c-1.556,-0.484 -3.324,-0.726 -5.304,-0.726c-1.97,0 -3.733,0.242 -5.288,0.726c-1.556,0.484 -2.829,1.099 -3.819,1.846c-0.991,0.747 -1.62,1.504 -1.889,2.272l-0.001,0.704Zm10.997,-8.23c1.033,0.01 1.97,-0.245 2.809,-0.765c0.84,-0.521 1.505,-1.234 1.994,-2.138c0.49,-0.905 0.735,-1.92 0.735,-3.045c0,-1.063 -0.248,-2.036 -0.743,-2.919c-0.495,-0.884 -1.16,-1.591 -1.994,-2.122c-0.834,-0.532 -1.768,-0.797 -2.801,-0.797c-1.034,-0 -1.97,0.265 -2.81,0.797c-0.84,0.531 -1.507,1.238 -2.002,2.122c-0.495,0.883 -0.738,1.856 -0.727,2.919c0.011,1.125 0.261,2.135 0.751,3.029c0.49,0.894 1.152,1.601 1.986,2.122c0.834,0.521 1.768,0.786 2.802,0.797Zm73.008,-11.768l-10,0l0,6l10,0l0,-6Z"/></g></svg>