<svg xmlns="http://www.w3.org/2000/svg" xmlns:xlink="http://www.w3.org/1999/xlink" viewBox="0 0 144 144">
<rect id="background" fill="#5e8b8b" fill-rule="nonzero" x="0" y="0" width="144" height="144"/>
<path id="icon" fill="#f3f3f3" fill-rule="evenodd" d="M64.78,88.98c-2.96,0 -4.96,-1 -6,-3c-2.12,2.16 -5.06,3.24 -8.82,3.24c-3.4,0 -6.1,-0.83 -8.1,-2.49c-2,-1.66 -3,-3.87 -3,-6.63c0,-1.68 0.41,-3.17 1.23,-4.47c0.82,-1.3 1.93,-2.35 3.33,-3.15c1.08,-0.6 2.02,-1 2.82,-1.2c0.76,-0.2 2.3,-0.44 4.62,-0.72c3.04,-0.32 4.98,-0.74 5.82,-1.26c0.68,-0.48 1.02,-1.38 1.02,-2.7c0,-1.28 -0.45,-2.3 -1.35,-3.06c-0.9,-0.76 -2.17,-1.14 -3.81,-1.14c-1.56,0 -2.98,0.44 -4.26,1.32l0,-0.06c-0.28,0.28 -0.42,0.44 -0.42,0.48l0.06,0c0.84,0.72 1.26,1.58 1.26,2.58c0,1 -0.37,1.82 -1.11,2.46c-0.74,0.64 -1.67,0.96 -2.79,0.96c-1.28,0 -2.34,-0.41 -3.18,-1.23c-0.84,-0.82 -1.26,-1.85 -1.26,-3.09c0,-2.4 1.18,-4.42 3.54,-6.06c2.24,-1.64 4.98,-2.46 8.22,-2.46c7.56,0 11.34,3.58 11.34,10.74l0,11.46c0,0.8 0.01,1.47 0.03,2.01c0.02,0.54 0.05,0.91 0.09,1.11c0.2,0.88 0.52,1.32 0.96,1.32c0.68,0 1.02,-0.94 1.02,-2.82l0,-2.82c0,-1.72 0.9,-2.58 2.7,-2.58c1.92,0 2.88,1.16 2.88,3.48l0,0.3l-0.06,3.24c-0.08,4.16 -2.34,6.24 -6.78,6.24Zm-7.2,-14.34c-0.24,0.08 -0.47,0.17 -0.69,0.27c-0.22,0.1 -0.47,0.19 -0.75,0.27c-1.08,0.36 -2.78,0.64 -5.1,0.84c-3.76,0.36 -5.64,1.7 -5.64,4.02c0,1.16 0.43,2.09 1.29,2.79c0.86,0.7 2.05,1.05 3.57,1.05c2.28,0 4.05,-0.62 5.31,-1.86c1.26,-1.24 1.91,-2.94 1.95,-5.1l0.06,-2.28Zm24.9,-23.4l-0.21,2.1c-0.06,0.6 -0.11,1.21 -0.15,1.83c-0.04,0.62 -0.08,1.3 -0.12,2.04c-0.04,0.74 -0.06,1.65 -0.06,2.73c1.04,-1.04 2.12,-1.74 3.24,-2.1c1.12,-0.36 2.52,-0.54 4.2,-0.54c4.12,0 7.38,1.42 9.78,4.26c2.4,2.84 3.6,6.54 3.6,11.1c0,2.4 -0.35,4.62 -1.05,6.66c-0.7,2.04 -1.63,3.82 -2.79,5.34c-1.24,1.52 -2.72,2.66 -4.44,3.42c-1.72,0.76 -3.66,1.14 -5.82,1.14c-3.08,0 -5.54,-0.8 -7.38,-2.4c-0.32,1.28 -1.26,1.92 -2.82,1.92c-2,0 -3,-1.22 -3,-3.66l0,-0.78c0,-0.24 0.02,-0.44 0.06,-0.6l0,-1.32c0,-0.44 0.02,-0.88 0.06,-1.32l0.18,-4.38c0,-0.8 0.02,-1.75 0.06,-2.85c0.04,-1.1 0.06,-2.05 0.06,-2.85l-0.12,-15.18c-0.04,-1.08 -0.11,-1.81 -0.21,-2.19c-0.1,-0.38 -0.27,-0.57 -0.51,-0.57c-0.16,0 -0.62,0.08 -1.38,0.24c-0.2,0.04 -0.4,0.06 -0.6,0.06l-0.6,0c-1.92,0 -2.88,-0.86 -2.88,-2.58c-0,-1.8 1.08,-2.7 3.24,-2.7l0.69,0c0.26,0 0.47,0.02 0.63,0.06l1.14,0.18c0.08,0 0.18,0.01 0.3,0.03c0.12,0.02 0.22,0.03 0.3,0.03c0.2,0.04 0.37,0.06 0.51,0.06l0.39,0c0.16,0 0.4,-0.02 0.72,-0.06c0.32,-0.04 0.66,-0.1 1.02,-0.18c0.6,-0.12 1.18,-0.18 1.74,-0.18c1.48,0 2.22,0.8 2.22,2.4l0,0.84Zm-0.06,16.62c-0.28,1.12 -0.42,2.76 -0.42,4.92c0,3.52 0.28,6 0.84,7.44c1.08,2.44 3.02,3.66 5.82,3.66c2.36,0 4.21,-0.96 5.55,-2.88c1.34,-1.92 2.01,-4.5 2.01,-7.74c0,-3.32 -0.64,-5.92 -1.92,-7.8c-1.28,-1.88 -3.04,-2.82 -5.28,-2.82c-0.8,-0 -1.56,0.13 -2.28,0.39c-0.72,0.26 -1.38,0.62 -1.98,1.08c-0.6,0.46 -1.1,1.01 -1.5,1.65c-0.4,0.64 -0.68,1.34 -0.84,2.1Z"/>
</svg>