<svg fill="none" version="1.1" viewBox="0 0 24 24" xmlns="http://www.w3.org/2000/svg">
 <path d="m11.521 0.90776c0-0.50133-0.40634-0.90776-0.90775-0.90776-0.50129 0-0.90763 0.40642-0.90763 0.90776v2.7731c0 0.50133 0.40634 0.90776 0.90763 0.90776 0.50141 0 0.90775-0.40642 0.90775-0.90776zm4.1602 1.21e-5c0-0.50101-0.4067-0.90714-0.90836-0.90714-0.50166 0-0.90836 0.40613-0.90836 0.90714v10.185h-1.8647c-0.50166 0-0.90836 0.40616-0.90836 0.90714s0.4067 0.90714 0.90836 0.90714h1.8647v10.185c0 0.50098 0.4067 0.90714 0.90836 0.90714 0.50166 0 0.90836-0.40616 0.90836-0.90714v-4.7406l2.6083 2.6084c0.3545 0.35451 0.92967 0.35499 1.2847 9.67e-4 0.35499-0.35403 0.35535-0.92843 8.48e-4 -1.2829l-3.8938-3.8939v-2.8771h1.4879l3.8935 3.8934c0.3545 0.35451 0.92955 0.35487 1.2845 8.47e-4s0.35547-0.92831 9.69e-4 -1.2828l-2.6115-2.6115h3.3552c0.50166 0 0.90836-0.40616 0.90836-0.90714s-0.4067-0.90714-0.90836-0.90714h-3.3552l2.6115-2.6114c0.3545-0.3545 0.35402-0.92887-9.69e-4 -1.2829s-0.93004-0.35363-1.2845 8.708e-4l-3.8933 3.8935h-1.488v-2.8771l3.8938-3.894c0.3545-0.3545 0.35414-0.92886-8.48e-4 -1.2829-0.35499-0.35401-0.93016-0.35363-1.2847 8.83e-4l-2.6083 2.6084zm-15.681 11.092c0-0.50135 0.4064-0.90774 0.90773-0.90774h2.773c0.50133 0 0.90774 0.4064 0.90774 0.90774 0 0.50134-0.40641 0.90774-0.90774 0.90774h-2.773c-0.50133 0-0.90773-0.4064-0.90773-0.90774zm4.3232-8.148c-0.35449-0.3545-0.92964-0.3549-1.2846-8.709e-4 -0.35497 0.35401-0.35537 0.92839-8.72e-4 1.2829l1.9608 1.9608c0.3545 0.3545 0.92964 0.35488 1.2846 8.709e-4 0.35497-0.35401 0.35536-0.92839 8.721e-4 -1.2829zm-1.2846 16.297c0.35497 0.35403 0.93012 0.35366 1.2846-8.47e-4l1.9608-1.9609c0.35449-0.35439 0.3541-0.92879-8.721e-4 -1.2828-0.35499-0.35403-0.93012-0.35366-1.2846 8.47e-4l-1.9608 1.9609c-0.3545 0.35451-0.3541 0.92891 8.72e-4 1.2828zm8.4823 0.17042c0-0.50135-0.40634-0.90774-0.90775-0.90774-0.50129 0-0.90763 0.4064-0.90763 0.90774v2.7731c0 0.50134 0.40634 0.90774 0.90763 0.90774 0.50141 0 0.90775-0.4064 0.90775-0.90774zm-0.4262-13.873c0.49512-0.081231 0.90472 0.33271 0.90472 0.83371 0 0.50101-0.41276 0.89578-0.89964 1.0165-1.6237 0.40261-2.8296 1.8701-2.8296 3.6225s1.2059 3.2199 2.8296 3.6224c0.48688 0.12083 0.89964 0.51562 0.89964 1.0166s-0.40961 0.91488-0.90472 0.83372c-2.6326-0.43204-4.6413-2.7178-4.6413-5.4727 0-2.755 2.0086-5.0408 4.6413-5.4727z" clip-rule="evenodd" fill="#fff" fill-rule="evenodd"/>
</svg>
